<?xml version="1.0" encoding="UTF-8" standalone="no"?>
<!-- Created with Inkscape (http://www.inkscape.org/) -->
<svg
   xmlns:dc="http://purl.org/dc/elements/1.1/"
   xmlns:cc="http://creativecommons.org/ns#"
   xmlns:rdf="http://www.w3.org/1999/02/22-rdf-syntax-ns#"
   xmlns:svg="http://www.w3.org/2000/svg"
   xmlns="http://www.w3.org/2000/svg"
   xmlns:sodipodi="http://sodipodi.sourceforge.net/DTD/sodipodi-0.dtd"
   xmlns:inkscape="http://www.inkscape.org/namespaces/inkscape"
   version="1.0"
   width="107.28792"
   height="173.62682"
   id="svg2"
   sodipodi:version="0.32"
   inkscape:version="0.46"
   sodipodi:docname="zapa-front1.svg"
   inkscape:output_extension="org.inkscape.output.svg.inkscape">
  <metadata
     id="metadata58">
    <rdf:RDF>
      <cc:Work
         rdf:about="">
        <dc:format>image/svg+xml</dc:format>
        <dc:type
           rdf:resource="http://purl.org/dc/dcmitype/StillImage" />
      </cc:Work>
    </rdf:RDF>
  </metadata>
  <sodipodi:namedview
     inkscape:window-height="715"
     inkscape:window-width="769"
     inkscape:pageshadow="2"
     inkscape:pageopacity="0.0"
     guidetolerance="10.0"
     gridtolerance="10.0"
     objecttolerance="10.0"
     borderopacity="1.0"
     bordercolor="#666666"
     pagecolor="#ffffff"
     id="base"
     showgrid="false"
     inkscape:zoom="8.0473917"
     inkscape:cx="63.521459"
     inkscape:cy="84.395738"
     inkscape:window-x="501"
     inkscape:window-y="24"
     inkscape:current-layer="svg2" />
  <defs
     id="defs4">
    <inkscape:perspective
       sodipodi:type="inkscape:persp3d"
       inkscape:vp_x="0 : 86.813408 : 1"
       inkscape:vp_y="0 : 1000 : 0"
       inkscape:vp_z="107.28792 : 86.813408 : 1"
       inkscape:persp3d-origin="53.643959 : 57.875605 : 1"
       id="perspective60" />
    <linearGradient
       x1="79.135063"
       y1="222.45238"
       x2="81.359901"
       y2="288.58099"
       id="linearGradient22173"
       gradientUnits="userSpaceOnUse" />
    <linearGradient
       x1="146.3828"
       y1="70.228607"
       x2="116.75287"
       y2="53.988689"
       id="linearGradient15268"
       gradientUnits="userSpaceOnUse"
       gradientTransform="scale(1.034178,0.966951)" />
    <linearGradient
       x1="162.97719"
       y1="23.931684"
       x2="131.34537"
       y2="10.142395"
       id="linearGradient15267"
       gradientUnits="userSpaceOnUse"
       gradientTransform="scale(1.035723,0.965509)" />
    <linearGradient
       x1="215.19115"
       y1="116.1558"
       x2="148.53513"
       y2="78.029449"
       id="linearGradient15266"
       gradientUnits="userSpaceOnUse"
       gradientTransform="scale(1.026523,0.974162)" />
    <linearGradient
       x1="230.18588"
       y1="64.586258"
       x2="171.49763"
       y2="31.573004"
       id="linearGradient15265"
       gradientUnits="userSpaceOnUse"
       gradientTransform="scale(1.032621,0.96841)" />
    <radialGradient
       cx="24.825565"
       cy="176.56438"
       r="42.859913"
       fx="40.974991"
       fy="162.11137"
       id="radialGradient15264"
       gradientUnits="userSpaceOnUse" />
  </defs>
  <g
     transform="translate(-99.96391,-983.01834)"
     id="layer1" />
  <path
     style="fill:#ffe5b9;fill-opacity:1;fill-rule:evenodd;stroke:#000000;stroke-width:1.25;stroke-linecap:butt;stroke-linejoin:miter;stroke-miterlimit:4;stroke-dasharray:none;stroke-opacity:1;display:inline"
     id="path2549"
     d="M 55.33676,73.38526 L 53.91691,89.47686 L 44.92455,93.73646 L 56.75661,108.88146 L 68.58866,92.78986 L 58.64973,88.53036 L 60.06958,75.27846 L 55.33676,73.38526 L 55.33676,73.38526 z" />
  <path
     style="fill:#f2dab7;fill-opacity:1;stroke:#000000;stroke-width:1.07493544;stroke-miterlimit:4;stroke-opacity:1;display:inline"
     id="path2554"
     d="M 32.994778,54.302589 C 30.277696,54.303533 28.074716,51.133269 28.074716,47.222224 C 28.074716,43.31118 30.277696,40.140916 32.994778,40.14186 C 35.711857,40.140916 37.914838,43.31118 37.914838,47.222224 C 37.914838,51.133269 35.711857,54.303533 32.994778,54.302589 z" />
  <path
     style="fill:#f2dab7;fill-opacity:1;stroke:#000000;stroke-width:1.25;stroke-miterlimit:4;stroke-opacity:1;display:inline"
     id="path2555"
     d="M 83.46791,52.837482 C 80.46023,52.840462 78.02073,49.873052 78.02073,46.211533 C 78.02073,42.550013 80.46023,39.582602 83.46791,39.585583 C 86.47559,39.582602 88.91509,42.550013 88.91509,46.211533 C 88.91509,49.873052 86.47559,52.840462 83.46791,52.837482 z" />
  <path
     style="fill:#f2dab7;fill-opacity:1;fill-rule:evenodd;stroke:#000000;stroke-width:1.25000000000000000;stroke-linecap:butt;stroke-linejoin:miter;stroke-miterlimit:4;stroke-dasharray:none;stroke-opacity:1;display:inline"
     id="path2587"
     d="M 36.87875,111.72116 L 30.72608,128.28606 C 20.78715,130.65246 26.93982,140.11816 26.93982,140.11816 C 35.4589,143.43106 38.2986,139.17156 38.2986,139.17156 L 43.5047,111.72116 L 36.87875,111.72116 L 36.87875,111.72116 z" />
  <g
     style="fill:#000000;fill-opacity:1;display:inline"
     id="g2683"
     transform="matrix(-1,0,0,1,139.3194,-479.91293)">
    <path
       style="fill:#000000;fill-opacity:1;fill-rule:evenodd;stroke:#000000;stroke-width:1.25;stroke-linecap:butt;stroke-linejoin:miter;stroke-miterlimit:4;stroke-opacity:1"
       id="path2684"
       d="M 61.053417,633.09397 C 33.603044,634.51381 32.656479,646.81915 32.656479,646.81915 C 32.656479,656.75808 85.664097,651.55198 85.664097,651.55198 L 85.664097,635.46038 L 61.053417,633.09397 L 61.053417,633.09397 z" />
    <path
       style="fill:#000000;fill-opacity:1;fill-rule:nonzero;stroke:none"
       id="path2685"
       d="M 47.091589,633.83797 C 56.984628,634.61994 61.315987,641.7029 57.807393,650.68263 L 56.549444,650.18802 C 59.749959,642.10249 56.066216,635.95637 47.091589,635.18966 L 47.091589,633.83797 z" />
    <path
       style="fill:#000000;fill-opacity:1;fill-rule:nonzero;stroke:none"
       id="path2686"
       d="M 55.137389,632.8914 C 66.681678,632.8924 70.902805,642.0118 66.474303,652.01826 L 65.238683,651.47024 C 69.296349,642.34188 65.745749,634.2404 55.137389,634.2431 L 55.137389,632.8914 z" />
  </g>
  <g
     style="fill:#000000;fill-opacity:1;display:inline"
     id="g2679"
     transform="translate(-32.031479,-479.91293)">
    <path
       style="fill:#000000;fill-opacity:1;fill-rule:evenodd;stroke:#000000;stroke-width:1.25;stroke-linecap:butt;stroke-linejoin:miter;stroke-miterlimit:4;stroke-opacity:1"
       id="path2574"
       d="M 61.053417,633.09397 C 33.603044,634.51381 32.656479,646.81915 32.656479,646.81915 C 32.656479,656.75808 85.664097,651.55198 85.664097,651.55198 L 85.664097,635.46038 L 61.053417,633.09397 L 61.053417,633.09397 z" />
    <path
       style="fill:#000000;fill-opacity:1;fill-rule:nonzero;stroke:none"
       id="path2577"
       d="M 47.091589,633.83797 C 56.984628,634.61994 61.315987,641.7029 57.807393,650.68263 L 56.549444,650.18802 C 59.749959,642.10249 56.066216,635.95637 47.091589,635.18966 L 47.091589,633.83797 z" />
    <path
       style="fill:#000000;fill-opacity:1;fill-rule:nonzero;stroke:none"
       id="path2578"
       d="M 55.137389,632.8914 C 66.681678,632.8924 70.902805,642.0118 66.474303,652.01826 L 65.238683,651.47024 C 69.296349,642.34188 65.745749,634.2404 55.137389,634.2431 L 55.137389,632.8914 z" />
  </g>
  <g
     style="fill:#2e3436;display:inline"
     id="g2592"
     transform="translate(-31.273909,-480.67053)">
    <path
       style="fill:#2e3436;fill-opacity:1;fill-rule:evenodd;stroke:#000000;stroke-width:1.41316688;stroke-linecap:butt;stroke-linejoin:miter;stroke-miterlimit:4;stroke-dasharray:none;stroke-opacity:1"
       id="path2567"
       transform="matrix(0.859835,0,0,0.909951,14.03942,35.05921)"
       d="M 62.946547,630.72755 L 53.480901,657.23136 C 63.419829,661.96419 83.297686,660.07106 83.297686,660.07106 C 93.709897,665.75045 115.48088,658.65121 115.48088,658.65121 L 106.48852,626.46801 L 62.946547,630.72755 L 62.946547,630.72755 z" />
    <path
       style="fill:#2e3436;stroke:#000000;stroke-width:1.41316688;stroke-linecap:butt;stroke-linejoin:miter;stroke-miterlimit:4;stroke-dasharray:none;stroke-opacity:1"
       id="path2568"
       transform="matrix(0.859835,0,0,0.909951,14.03942,35.05921)"
       d="M 79.038145,636.40694 L 76.198451,646.34587 L 92.29005,644.92602" />
    <path
       style="fill:#2e3436;stroke:#000000;stroke-width:1.41316688;stroke-linecap:butt;stroke-linejoin:miter;stroke-miterlimit:4;stroke-dasharray:none;stroke-opacity:1"
       id="path2569"
       transform="matrix(0.859835,0,0,0.909951,14.03942,35.05921)"
       d="M 85.664097,635.93366 L 83.297686,659.59778" />
  </g>
  <path
     style="fill:#f2dab7;fill-opacity:1;fill-rule:evenodd;stroke:#000000;stroke-width:1.25000000000000000;stroke-linecap:butt;stroke-linejoin:miter;stroke-miterlimit:4;stroke-dasharray:none;stroke-opacity:1;display:inline"
     id="path2476"
     d="M 77.537539,110.99744 L 83.690209,127.56234 C 93.629149,129.92874 87.476479,139.39444 87.476479,139.39444 C 78.957389,142.70734 76.117689,138.44784 76.117689,138.44784 L 70.911592,110.99744 L 77.537539,110.99744 L 77.537539,110.99744 z" />
  <path
     style="fill:#ffffff;fill-opacity:1;fill-rule:evenodd;stroke:#000000;stroke-width:1.25;stroke-linecap:butt;stroke-linejoin:miter;stroke-miterlimit:4;stroke-dasharray:none;stroke-opacity:1;display:inline"
     id="path2551"
     d="M 49.00362,88.06366 L 56.59535,86.29046 L 65.0856,87.77276 L 83.88702,128.24506 L 78.23434,131.66616 L 66.38554,98.60996 L 76.80397,130.27826 C 63.98129,135.82836 35.53097,130.60476 35.53097,130.60476 L 45.14798,99.26296 L 35.37881,131.53156 L 28.69719,128.31636 L 49.00362,88.06366 L 49.00362,88.06366 z" />
  <path
     style="fill:#ffffff;fill-opacity:1;stroke:#000000;stroke-width:1;stroke-miterlimit:4;stroke-dasharray:none;stroke-opacity:1"
     id="path2864"
     d="M 51.01194,83.40776 L 56.41167,84.12776 L 53.89179,94.74716 L 45.61222,88.98746 L 51.01194,83.40776 z" />
  <path
     style="fill:#ffffff;fill-opacity:1;stroke:#000000;stroke-width:1;stroke-miterlimit:4;stroke-dasharray:none;stroke-opacity:1"
     id="path3638"
     d="M 62.09126,83.40776 L 56.69154,84.12776 L 59.21141,94.74726 L 67.49099,88.98756 L 62.09126,83.40776 z" />
  <path
     style="fill:#2e3436;fill-opacity:1;stroke:#000000;stroke-width:1;stroke-miterlimit:4;stroke-dasharray:none;stroke-opacity:1"
     id="path3735"
     d="M 40.303252,134.26085 L 36.554112,154.10005" />
  <path
     style="fill:#2e3436;fill-opacity:1;stroke:#000000;stroke-width:1;stroke-miterlimit:4;stroke-dasharray:none;stroke-opacity:1"
     id="path3737"
     d="M 68.734228,135.82299 L 73.264439,155.66219" />
  <path
     style="fill:#003a64;fill-opacity:1;stroke:#000000;stroke-width:1;stroke-miterlimit:4;stroke-dasharray:none;stroke-opacity:1"
     id="path3741"
     d="M 55.15136,94.603971 C 55.15136,94.603971 50.829799,114.35968 50.829799,116.00599 C 50.829799,117.6523 55.357149,127.73595 55.357149,127.73595 C 55.357149,127.73595 61.119231,117.85809 60.501865,113.74232 C 59.8845,109.62654 56.591881,92.957662 56.591881,92.957662 L 55.15136,94.603971 L 55.15136,94.603971 z" />
  <path
     style="fill:#003a64;fill-opacity:1;stroke:#000000;stroke-width:1;stroke-miterlimit:4;stroke-dasharray:none;stroke-opacity:1"
     id="path3739"
     d="M 55.76873,86.16666 L 51.03559,89.87086 L 56.1803,95.63296 L 62.55975,89.66506 L 55.76873,86.16666 L 55.76873,86.16666 z" />
  <path
     style="fill:#2e3436;fill-opacity:1;stroke:#000000;stroke-width:1;stroke-miterlimit:4;stroke-dasharray:none;stroke-opacity:1"
     id="path3743"
     d="M 49.183489,85.343481 L 41.157732,91.517141 L 28.398835,124.44333 L 36.424592,128.97068 L 44.861927,99.954476 L 33.955129,138.02538 C 33.955129,138.02538 38.894056,139.4659 41.980886,139.67169 C 45.067716,139.87748 56.386093,140.49484 56.386093,140.49484 L 56.730288,110.46791 L 50.62401,91.311353 L 49.183489,85.343481 z" />
  <path
     style="fill:#3b4245;fill-opacity:1;stroke:#000000;stroke-width:1;stroke-miterlimit:4;stroke-dasharray:none;stroke-opacity:1"
     id="path3747"
     d="M 48.605587,83.996331 L 43.700436,89.347404 L 51.058162,98.488822 L 48.382625,105.84655 L 53.733699,116.32573 L 58.63885,113.20427 L 48.605587,83.996331 L 48.605587,83.996331 z" />
  <path
     style="fill:#2e3436;fill-opacity:1;stroke:#000000;stroke-width:1;stroke-miterlimit:4;stroke-dasharray:none;stroke-opacity:1"
     id="path3745"
     d="M 63.94564,85.34346 L 71.9714,91.51716 L 84.73029,124.44336 L 76.70454,128.97066 L 68.2672,99.95446 L 79.174,138.02536 C 79.174,138.02536 74.23507,139.46586 71.14824,139.67166 C 68.06141,139.87746 50.98096,140.49486 50.98096,140.49486 L 52.14416,118.46986 L 56.39884,110.46796 L 62.50512,91.31136 L 63.94564,85.34346 z" />
  <path
     style="fill:#3b4245;fill-opacity:1;stroke:#000000;stroke-width:1;stroke-miterlimit:4;stroke-dasharray:none;stroke-opacity:1"
     id="path3749"
     d="M 63.7337,83.99636 L 68.63885,89.34736 L 61.28113,98.48886 L 63.95667,105.84656 L 51.69379,123.23756 L 53.70044,113.20426 L 63.7337,83.99636 z" />
  <g
     transform="translate(-99.96391,-983.01834)"
     id="layer3" />
  <g
     transform="translate(-99.96391,-983.01834)"
     id="layer4" />
  <path
     style="fill:#f2dab7;fill-opacity:1;fill-rule:evenodd;stroke:#000000;stroke-width:1px;stroke-linecap:butt;stroke-linejoin:miter;stroke-opacity:1"
     d="M 55.510666,14.696326 C 47.185666,15.44625 36.201384,18.432413 33.604416,27.602576 C 33.66483,33.589411 31.604906,39.89827 32.854416,45.665076 C 34.558939,50.724588 33.43972,54.195123 33.727944,59.040076 C 33.655247,63.001017 32.514256,69.672687 37.06286,72.721687 C 39.033408,75.381757 41.646727,74.315464 44.510666,76.008826 C 48.858366,77.942367 53.159228,80.377485 57.510666,82.322798 C 60.28714,81.485347 63.043554,78.048853 67.064715,77.704047 C 74.926768,75.413529 73.585885,79.250864 80.208475,70.168006 C 82.544678,62.286214 83.624983,61.530932 82.565819,50.40184 C 82.485629,41.071355 86.21894,32.601143 83.104416,24.259562 C 81.995877,19.052828 76.682612,14.929449 71.198166,15.853312 C 65.960913,14.920365 60.838333,14.571976 55.510666,14.696326 z"
     id="path2498"
     sodipodi:nodetypes="ccccccccccccc" />
  <path
     style="fill:none;fill-rule:evenodd;stroke:#000000;stroke-width:2.29999999999999982;stroke-linecap:round;stroke-linejoin:miter;stroke-opacity:1;stroke-miterlimit:4;stroke-dasharray:none"
     d="M 38.661842,46.042739 C 39.13047,45.456953 39.599098,44.871168 40.067727,44.285382 C 41.137393,42.948299 42.109657,42.444145 42.528026,40.770669 C 42.840445,39.520994 42.09845,41.200245 42.879497,40.419198 C 44.244398,42.150886 47.258518,43.907051 48.164056,44.812589 C 51.119721,46.360335 52.007777,47.341263 55.180992,48.503038"
     id="path3272"
     sodipodi:nodetypes="cssccc" />
  <path
     style="fill:none;fill-rule:evenodd;stroke:#000000;stroke-width:2.29999999999999982;stroke-linecap:round;stroke-linejoin:miter;stroke-opacity:1;stroke-miterlimit:4;stroke-dasharray:none"
     d="M 62.91336,48.854509 C 66.726905,46.370455 70.277149,44.939601 74.511913,40.770669 C 75.617842,41.323633 78.795862,45.654618 79.414848,46.273604"
     id="path3274"
     sodipodi:nodetypes="ccs" />
  <g
     id="g3282"
     transform="translate(1.863958,-1.6154302)">
    <path
       d="M 52.017752,52.193485 A 6.3264832,2.2845633 0 1 1 39.364786,52.193485 A 6.3264832,2.2845633 0 1 1 52.017752,52.193485 z"
       sodipodi:ry="2.2845633"
       sodipodi:rx="6.3264832"
       sodipodi:cy="52.193485"
       sodipodi:cx="45.691269"
       id="path3276"
       style="fill:#fffdfd;fill-opacity:1;stroke:#000000;stroke-width:1;stroke-miterlimit:4;stroke-dasharray:none;stroke-dashoffset:0;stroke-opacity:1"
       sodipodi:type="arc" />
    <path
       transform="matrix(0.3030633,0,0,0.8392521,31.93179,8.126388)"
       d="M 52.017752,52.193485 A 6.3264832,2.2845633 0 1 1 39.364786,52.193485 A 6.3264832,2.2845633 0 1 1 52.017752,52.193485 z"
       sodipodi:ry="2.2845633"
       sodipodi:rx="6.3264832"
       sodipodi:cy="52.193485"
       sodipodi:cx="45.691269"
       id="path3278"
       style="fill:#000000;fill-opacity:1;stroke:#000000;stroke-width:1;stroke-miterlimit:4;stroke-dasharray:none;stroke-dashoffset:0;stroke-opacity:1"
       sodipodi:type="arc" />
    <path
       sodipodi:nodetypes="ccsc"
       id="path3280"
       d="M 39.510369,53.064849 C 45.431767,56.419974 51.396432,53.313377 51.396432,53.313377 C 51.396432,53.313377 50.116326,56.963327 45.307503,56.741293 C 40.777123,56.532116 39.510369,53.41632 39.510369,53.064849 z"
       style="fill:none;fill-rule:evenodd;stroke:#000000;stroke-width:1px;stroke-linecap:butt;stroke-linejoin:miter;stroke-opacity:1" />
  </g>
  <g
     id="g3287"
     transform="matrix(-1,0,0,1,115.77609,-1.6060108)">
    <path
       d="M 52.017752,52.193485 A 6.3264832,2.2845633 0 1 1 39.364786,52.193485 A 6.3264832,2.2845633 0 1 1 52.017752,52.193485 z"
       sodipodi:ry="2.2845633"
       sodipodi:rx="6.3264832"
       sodipodi:cy="52.193485"
       sodipodi:cx="45.691269"
       id="path3289"
       style="fill:#fffdfd;fill-opacity:1;stroke:#000000;stroke-width:1;stroke-miterlimit:4;stroke-dasharray:none;stroke-dashoffset:0;stroke-opacity:1"
       sodipodi:type="arc" />
    <path
       transform="matrix(0.3030633,0,0,0.8392521,31.93179,8.126388)"
       d="M 52.017752,52.193485 A 6.3264832,2.2845633 0 1 1 39.364786,52.193485 A 6.3264832,2.2845633 0 1 1 52.017752,52.193485 z"
       sodipodi:ry="2.2845633"
       sodipodi:rx="6.3264832"
       sodipodi:cy="52.193485"
       sodipodi:cx="45.691269"
       id="path3291"
       style="fill:#000000;fill-opacity:1;stroke:#000000;stroke-width:1;stroke-miterlimit:4;stroke-dasharray:none;stroke-dashoffset:0;stroke-opacity:1"
       sodipodi:type="arc" />
    <path
       sodipodi:nodetypes="ccsc"
       id="path3293"
       d="M 39.510369,53.064849 C 45.431767,56.419974 51.396432,53.313377 51.396432,53.313377 C 51.396432,53.313377 50.116326,56.963327 45.307503,56.741293 C 40.777123,56.532116 39.510369,53.41632 39.510369,53.064849 z"
       style="fill:none;fill-rule:evenodd;stroke:#000000;stroke-width:1px;stroke-linecap:butt;stroke-linejoin:miter;stroke-opacity:1" />
  </g>
  <path
     style="fill:none;fill-rule:evenodd;stroke:#000000;stroke-width:1.04065859px;stroke-linecap:butt;stroke-linejoin:miter;stroke-opacity:1"
     d="M 73.43717,69.351673 L 71.331281,65.921195 C 64.58481,70.930482 55.225224,71.406362 46.060619,66.302359 L 44.656692,69.732837 L 44.656692,69.732837 L 44.656692,69.351673 L 44.305711,68.970509"
     id="path3295"
     sodipodi:nodetypes="ccccccc" />
  <path
     style="fill:none;fill-rule:evenodd;stroke:#000000;stroke-width:1px;stroke-linecap:butt;stroke-linejoin:miter;stroke-opacity:1"
     d="M 60.628797,49.908923 L 60.628797,63.440567 L 62.561889,64.670717 L 60.804533,65.725131 L 59.574383,66.95528 L 57.465555,65.373659 L 56.05967,64.846452 L 57.641291,63.264832"
     id="path3297" />
  <path
     style="fill:#1e1e1e;fill-rule:evenodd;stroke:#000000;stroke-width:1px;stroke-linecap:butt;stroke-linejoin:miter;stroke-opacity:1;fill-opacity:1"
     d="M 33.038303,49.030246 C 32.695747,44.318241 31.482225,40.861818 31.278755,36.135079 C 31.790682,32.851952 30.131875,31.685885 30.744338,28.372745 C 29.735964,24.890297 29.173017,20.176634 32.248733,19.097054 C 33.450379,16.793086 36.313148,17.175686 38.17707,16.79183 C 39.133115,14.495698 39.838613,11.767505 42.271604,10.552234 C 44.990172,9.3903083 47.958765,8.9427989 50.655189,7.6956282 C 53.322733,6.8673712 56.294443,6.0323338 59.06899,6.4983886 C 61.976556,5.6271921 66.201173,6.4680906 67.89479,7.5174322 C 70.837524,7.6572292 73.61848,9.3818034 76.258791,10.276035 C 78.826072,12.098862 79.390218,14.601537 82.145979,16.188961 C 84.704925,20.832746 83.797833,20.734249 85.258549,24.131659 C 84.682061,27.237818 85.734454,30.74159 85.123935,33.847955 C 83.577014,36.213338 84.312692,38.928758 83.775619,41.420346 C 81.885636,42.097481 81.886544,38.304669 81.07604,36.985364 C 80.682356,34.323659 81.93377,31.552243 81.143917,28.915623 C 81.340905,26.519652 81.896595,23.432222 79.814263,21.472826 C 75.954753,22.343764 72.048713,22.541966 67.260319,23.424281 C 64.347646,23.757677 62.832182,25.827649 59.954883,25.609497 C 57.371479,25.415972 51.935646,24.241612 49.445369,23.321836 C 46.666708,24.029916 43.874882,20.566221 41.750777,21.484665 C 40.830635,24.3499 38.165637,26.517301 36.478381,28.895155 C 33.008591,33.666684 34.39356,37.704938 34.013622,49.126677"
     id="path3299"
     sodipodi:nodetypes="ccccccccccccccccccscccc" />
  <path
     style="fill:#e36176;fill-rule:evenodd;stroke:#000000;stroke-width:1px;stroke-linecap:butt;stroke-linejoin:miter;stroke-opacity:1;fill-opacity:1"
     d="M 48.151567,67.482487 C 55.080676,69.170962 56.5311,73.587591 69.591316,67.131016 C 60.535357,74.243479 56.818629,73.917463 48.151567,67.482487 z"
     id="path3305"
     sodipodi:nodetypes="ccc" />
</svg>
