<?xml version="1.0" encoding="UTF-8" standalone="no"?>
<!-- Created with Inkscape (http://www.inkscape.org/) -->

<svg
   xmlns:ns="&amp;#38;#38;#38;#38;#38;#38;#38;#38;#38;#38;#38;#38;#38;#38;#38;ns_xlink;"
   xmlns:dc="http://purl.org/dc/elements/1.1/"
   xmlns:cc="http://creativecommons.org/ns#"
   xmlns:rdf="http://www.w3.org/1999/02/22-rdf-syntax-ns#"
   xmlns:svg="http://www.w3.org/2000/svg"
   xmlns="http://www.w3.org/2000/svg"
   xmlns:sodipodi="http://sodipodi.sourceforge.net/DTD/sodipodi-0.dtd"
   xmlns:inkscape="http://www.inkscape.org/namespaces/inkscape"
   width="107.28794"
   height="198.65305"
   id="svg2"
   sodipodi:version="0.32"
   inkscape:version="0.47 r22583"
   version="1.0"
   sodipodi:docname="front.svg"
   inkscape:output_extension="org.inkscape.output.svg.inkscape">
  <defs
     id="defs4">
    <inkscape:perspective
       sodipodi:type="inkscape:persp3d"
       id="perspective3033"
       inkscape:vp_x="-50 : 600 : 1"
       inkscape:vp_y="0 : 1000 : 0"
       inkscape:vp_z="700 : 600 : 1"
       inkscape:persp3d-origin="300 : 400 : 1" />
    <inkscape:perspective
       sodipodi:type="inkscape:persp3d"
       id="perspective3032"
       inkscape:vp_x="-50 : 600 : 1"
       inkscape:vp_y="0 : 1000 : 0"
       inkscape:vp_z="700 : 600 : 1"
       inkscape:persp3d-origin="300 : 400 : 1" />
    <inkscape:perspective
       sodipodi:type="inkscape:persp3d"
       id="perspective3031"
       inkscape:vp_x="-50 : 600 : 1"
       inkscape:vp_y="0 : 1000 : 0"
       inkscape:vp_z="700 : 600 : 1"
       inkscape:persp3d-origin="300 : 400 : 1" />
    <inkscape:perspective
       sodipodi:type="inkscape:persp3d"
       id="perspective3030"
       inkscape:vp_x="-50 : 600 : 1"
       inkscape:vp_y="0 : 1000 : 0"
       inkscape:vp_z="700 : 600 : 1"
       inkscape:persp3d-origin="300 : 400 : 1" />
    <inkscape:perspective
       sodipodi:type="inkscape:persp3d"
       id="perspective3029"
       inkscape:vp_x="-50 : 600 : 1"
       inkscape:vp_y="0 : 1000 : 0"
       inkscape:vp_z="700 : 600 : 1"
       inkscape:persp3d-origin="300 : 400 : 1" />
    <inkscape:perspective
       sodipodi:type="inkscape:persp3d"
       id="perspective2997"
       inkscape:vp_x="-50 : 600 : 1"
       inkscape:vp_y="0 : 1000 : 0"
       inkscape:vp_z="700 : 600 : 1"
       inkscape:persp3d-origin="300 : 400 : 1" />
    <inkscape:perspective
       sodipodi:type="inkscape:persp3d"
       id="perspective2996"
       inkscape:vp_x="-50 : 600 : 1"
       inkscape:vp_y="0 : 1000 : 0"
       inkscape:vp_z="700 : 600 : 1"
       inkscape:persp3d-origin="300 : 400 : 1" />
    <linearGradient
       inkscape:collect="always"
       ns:href="#linearGradient8459"
       id="linearGradient22173"
       gradientUnits="userSpaceOnUse"
       x1="79.135063"
       y1="222.45238"
       x2="81.359901"
       y2="288.58099" />
    <linearGradient
       inkscape:collect="always"
       ns:href="#linearGradient2085"
       id="linearGradient15268"
       gradientUnits="userSpaceOnUse"
       gradientTransform="scale(1.034178,0.966951)"
       x1="146.3828"
       y1="70.228607"
       x2="116.75287"
       y2="53.988689" />
    <linearGradient
       inkscape:collect="always"
       ns:href="#linearGradient2085"
       id="linearGradient15267"
       gradientUnits="userSpaceOnUse"
       gradientTransform="scale(1.035723,0.965509)"
       x1="162.97719"
       y1="23.931684"
       x2="131.34537"
       y2="10.142395" />
    <linearGradient
       inkscape:collect="always"
       ns:href="#linearGradient4021"
       id="linearGradient15266"
       gradientUnits="userSpaceOnUse"
       gradientTransform="scale(1.026523,0.974162)"
       x1="215.19115"
       y1="116.1558"
       x2="148.53513"
       y2="78.029449" />
    <linearGradient
       inkscape:collect="always"
       ns:href="#linearGradient4021"
       id="linearGradient15265"
       gradientUnits="userSpaceOnUse"
       gradientTransform="scale(1.032621,0.96841)"
       x1="230.18588"
       y1="64.586258"
       x2="171.49763"
       y2="31.573004" />
    <radialGradient
       inkscape:collect="always"
       ns:href="#linearGradient1806"
       id="radialGradient15264"
       gradientUnits="userSpaceOnUse"
       cx="24.825565"
       cy="176.56438"
       fx="40.974991"
       fy="162.11137"
       r="42.859913" />
  </defs>
  <sodipodi:namedview
     id="base"
     pagecolor="#ffffff"
     bordercolor="#666666"
     borderopacity="1.0"
     inkscape:pageopacity="1"
     inkscape:pageshadow="2"
     inkscape:zoom="0.68786391"
     inkscape:cx="4.40153"
     inkscape:cy="98.94773"
     inkscape:document-units="px"
     inkscape:current-layer="layer1"
     width="1062.99px"
     borderlayer="true"
     inkscape:window-width="1024"
     inkscape:window-height="575"
     inkscape:window-x="0"
     inkscape:window-y="25"
     showgrid="false"
     inkscape:window-maximized="1" />
  <metadata
     id="metadata7">
    <rdf:RDF>
      <cc:Work
         rdf:about="">
        <dc:format>image/svg+xml</dc:format>
        <dc:type
           rdf:resource="http://purl.org/dc/dcmitype/StillImage" />
        <dc:title></dc:title>
        <dc:date />
        <dc:creator>
          <cc:Agent>
            <dc:title />
          </cc:Agent>
        </dc:creator>
        <dc:rights>
          <cc:Agent>
            <dc:title />
          </cc:Agent>
        </dc:rights>
        <dc:publisher>
          <cc:Agent>
            <dc:title />
          </cc:Agent>
        </dc:publisher>
        <dc:identifier />
        <dc:source />
        <dc:relation />
        <dc:language />
        <dc:subject>
          <rdf:Bag />
        </dc:subject>
        <dc:coverage />
        <dc:description />
        <dc:contributor>
          <cc:Agent>
            <dc:title />
          </cc:Agent>
        </dc:contributor>
        <cc:license
           rdf:resource="" />
      </cc:Work>
      <cc:Work
         rdf:about="">
        <dc:format>image/svg+xml</dc:format>
        <dc:type
           rdf:resource="http://purl.org/dc/dcmitype/StillImage" />
      </cc:Work>
    </rdf:RDF>
  </metadata>
  <g
     inkscape:label="fondo"
     inkscape:groupmode="layer"
     id="layer1"
     transform="translate(-844.94896,-957.23442)" />
  <g
     inkscape:groupmode="layer"
     id="layer2"
     inkscape:label="dibujos"
     transform="translate(-844.94896,-957.23442)">
    <g
       id="g3838"
       style="fill:#000000;fill-opacity:1;stroke:none;display:inline"
       transform="translate(288.38701,501.59021)">
      <path
         style="fill-rule:nonzero"
         id="path3839"
         d="m 607.2367,545.43155 c -1.15458,1.83076 -2.3091,3.66086 -3.4138,5.52225 l -0.87701,-0.52072 c 1.10622,-1.86229 2.25997,-3.69473 3.41621,-5.52629 l 0.8746,0.52476 z" />
      <path
         style="fill-rule:nonzero"
         id="path3840"
         d="m 608.99652,546.06684 c -0.91679,1.92189 -1.26918,4.02666 -1.59277,6.11116 l -1.00782,-0.15677 c 0.34111,-2.18849 0.72023,-4.39522 1.68832,-6.41052 l 0.91227,0.45613 z" />
      <path
         style="fill-rule:nonzero"
         id="path3841"
         d="m 611.04396,546.76599 c -0.65137,2.87861 -0.44213,5.79948 -0.36996,8.7193 l -1.01964,0.0252 c -0.0743,-3.01141 -0.27866,-6.02436 0.4001,-8.99185 l 0.9895,0.24737 z" />
      <path
         style="fill-rule:nonzero"
         id="path3842"
         d="m 614.08554,545.87855 c 1.01997,2.17067 1.39211,4.55818 1.91622,6.87879 l -0.9949,0.22465 c -0.50582,-2.24051 -0.86033,-4.54736 -1.83359,-6.6473 l 0.91227,-0.45614 z" />
      <path
         style="fill-rule:nonzero"
         id="path3843"
         d="m 617.37922,545.59664 c 2.42251,0.60363 3.30082,3.16147 4.26258,5.21685 l -0.92511,0.42951 c -0.81381,-1.74056 -1.50068,-3.80802 -3.33747,-4.62641 l 0,-1.01995 z" />
      <path
         style="fill-rule:nonzero"
         id="path3844"
         d="m 620.38768,547.50131 c -0.67972,-4.82708 3.62959,1.43543 4.47498,3.1077 l -0.90511,0.47018 c -0.64531,-1.3065 -4.4808,-6.9346 -2.62287,-3.95668 l -0.947,0.3788 z" />
    </g>
    <path
       style="fill:#ffeec4;fill-opacity:1;fill-rule:evenodd;stroke:#000000;stroke-width:1.25;stroke-linecap:butt;stroke-linejoin:miter;stroke-miterlimit:4;stroke-opacity:1;display:inline"
       d="m 916.10352,1085.4677 5.17001,21.5566 c 11.03354,3.5439 4.44536,11.1809 4.44536,11.1809 -6.20247,4.2497 -11.8813,0.5532 -11.8813,0.5532 -3.41135,-6.8695 -3.75575,-33.9764 -3.75575,-33.9764 l 6.02168,0.6857 z"
       id="path3815" />
    <path
       style="fill:#ffeec4;fill-opacity:1;fill-rule:evenodd;stroke:#000000;stroke-width:1.25;stroke-linecap:butt;stroke-linejoin:miter;stroke-miterlimit:4;stroke-opacity:1;display:inline"
       d="m 881.11842,1087.7404 -5.17001,21.5567 c -11.03354,3.5438 -4.44536,11.1808 -4.44536,11.1808 6.20247,4.2498 11.88131,0.5532 11.88131,0.5532 3.41135,-6.8694 3.75575,-33.9764 3.75575,-33.9764 l -6.02169,0.6857 z"
       id="path3816" />
    <path
       style="fill:#0600ff;fill-opacity:1;fill-rule:evenodd;stroke:#000000;stroke-width:1.25;stroke-linecap:butt;stroke-linejoin:miter;stroke-miterlimit:4;stroke-opacity:1;display:inline"
       d="m 879.56545,1114.777 -3.02525,14.8838 c 8.54584,2.5225 20.52388,0.7559 20.52388,0.7559 8.95278,3.0271 22.36919,-0.378 22.36919,-0.378 l -2.42891,-17.532 -37.43891,2.2703 z"
       id="path3818"
       sodipodi:nodetypes="cccccc" />
    <path
       style="fill:#ffeec4;fill-opacity:1;fill-rule:evenodd;stroke:#000000;stroke-width:1.25;stroke-linecap:butt;stroke-linejoin:miter;stroke-miterlimit:4;stroke-opacity:1;display:inline"
       d="m 899.5282,1046.5552 -1.41985,16.0916 -8.99236,4.2595 11.83206,15.145 11.83205,-16.0916 -9.93892,-4.2595 1.41984,-13.2519 -4.73282,-1.8931 z"
       id="path3821" />
    <path
       style="fill:#ffffff;fill-opacity:1;fill-rule:evenodd;stroke:#000000;stroke-width:1.25;stroke-linecap:butt;stroke-linejoin:miter;stroke-miterlimit:4;stroke-opacity:1;display:inline"
       d="m 923.21495,1135.4417 c 27.45039,1.4198 28.39695,13.7252 28.39695,13.7252 0,9.9389 -53.00762,4.7328 -53.00762,4.7328 l 0,-16.0916 24.61067,-2.3664 z"
       id="path3822"
       sodipodi:nodetypes="ccccc" />
    <path
       style="fill:#ffffff;fill-opacity:1;fill-rule:evenodd;stroke:#000000;stroke-width:1.25;stroke-linecap:butt;stroke-linejoin:miter;stroke-miterlimit:4;stroke-opacity:1;display:inline"
       d="m 873.9709,1135.4417 c -27.45038,1.4198 -28.39694,13.7252 -28.39694,13.7252 0,9.9389 53.00762,4.7328 53.00762,4.7328 l 0,-16.0916 -24.61068,-2.3664 z"
       id="path3823"
       sodipodi:nodetypes="ccccc" />
    <path
       sodipodi:type="arc"
       style="fill:#ffeec4;fill-opacity:1;stroke:#000000;stroke-width:1.25;stroke-miterlimit:4;stroke-opacity:1;display:inline"
       id="path3827"
       sodipodi:cx="614.01514"
       sodipodi:cy="503.9519"
       sodipodi:rx="29.545454"
       sodipodi:ry="40.530304"
       d="m 643.56059,503.9519 c 0,22.38427 -13.22795,40.53031 -29.54545,40.53031 -16.31751,0 -29.54546,-18.14604 -29.54546,-40.53031 0,-22.38426 13.22795,-40.5303 29.54546,-40.5303 16.3175,0 29.54545,18.14604 29.54545,40.5303 z"
       transform="matrix(1,0,0,1.138058,288.38701,430.50051)" />
    <path
       style="fill:#ff8c00;fill-opacity:1;stroke:#000000;stroke-width:1.25;stroke-miterlimit:4;stroke-opacity:1;display:inline"
       d="m 898.24619,1137.4363 c 7.8737,1.3577 13.85536,1.4102 21.59167,0 0.85303,-0.011 1.32566,-2.2067 1.23506,-4.0097 0.024,-1.6159 0.0119,-3.5377 -0.64541,-4.4901 -0.5319,-0.6978 -1.16192,-0.3161 -1.74409,-0.4147 -8.15334,1.783 -11.59373,1.5152 -20.43723,0 -0.85301,0.011 -1.32564,2.2068 -1.23504,4.0099 -0.024,1.6158 -0.0119,3.5375 0.64541,4.4899 0.17473,0.2661 0.38134,0.4165 0.58963,0.4147 z"
       id="path3830"
       sodipodi:nodetypes="ccccccccc" />
    <path
       style="fill:#ff8c00;fill-opacity:1;stroke:#000000;stroke-width:1.25;stroke-miterlimit:4;stroke-opacity:1;display:inline"
       d="m 875.51892,1138.1939 c 7.8737,1.3576 13.85536,1.4102 21.59168,0 0.85303,-0.011 1.32566,-2.2068 1.23506,-4.0097 0.024,-1.6159 0.0119,-3.5377 -0.64541,-4.4902 -0.5319,-0.6977 -1.16192,-0.316 -1.74409,-0.4146 -8.15335,1.783 -11.59374,1.5151 -20.43724,0 -0.85301,0.011 -1.32564,2.2068 -1.23504,4.0099 -0.024,1.6158 -0.0119,3.5375 0.64541,4.4899 0.17473,0.2661 0.38134,0.4165 0.58963,0.4147 z"
       id="path3831"
       sodipodi:nodetypes="ccccccccc" />
    <path
       sodipodi:type="arc"
       style="fill:#ff0000;fill-opacity:1;stroke:#000000;stroke-width:1.25;stroke-miterlimit:4;stroke-opacity:1;display:inline"
       id="path3833"
       sodipodi:cx="614.01514"
       sodipodi:cy="503.9519"
       sodipodi:rx="29.545454"
       sodipodi:ry="40.530304"
       d="m 643.56059,503.9519 c 0,22.38427 -13.22795,40.53031 -29.54545,40.53031 -16.31751,0 -29.54546,-18.14604 -29.54546,-40.53031 0,0 0,0 0,0"
       transform="matrix(1,0,0,-1.138058,288.38701,1577.9852)"
       sodipodi:start="0"
       sodipodi:end="3.1415927"
       sodipodi:open="true" />
    <path
       style="fill:#00ff15;fill-opacity:1;fill-rule:evenodd;stroke:#000000;stroke-width:1.25;stroke-linecap:butt;stroke-linejoin:miter;stroke-miterlimit:4;stroke-opacity:1;display:inline"
       d="m 890.20664,1062.385 12.58155,1.4642 9.05672,-1.0175 12.42196,24.1176 -11.62054,5.8061 -3.20567,-18.7582 10.41841,43.3225 c -12.82267,7.5926 -41.27299,0.4466 -41.27299,0.4466 l 9.61701,-42.8758 -4.00709,19.6514 -11.62055,-5.8061 17.63119,-26.3508 z"
       id="path3846"
       sodipodi:nodetypes="cccccccccccc" />
    <path
       style="fill:#ffff00;fill-opacity:1;fill-rule:evenodd;stroke:#000000;stroke-width:1.14981222pt;stroke-linecap:butt;stroke-linejoin:miter;stroke-opacity:1;display:inline"
       d="m 874.00924,1001.4394 -4.19675,27.6874 9.79242,-16.0587 -5.59567,31.0099 12.12397,-19.3812 -7.92719,33.2249 16.78692,-18.8274 3.26416,28.2412 9.32619,-23.8112 13.52287,19.3812 -3.73053,-34.8862 11.65772,14.3975 -4.19678,-26.0262 11.19136,11.6287 -5.12931,-26.0262 -56.88938,-0.5537 z"
       id="path1797"
       sodipodi:nodetypes="cccccccccccccccc" />
    <path
       style="fill:#ff8c00;fill-opacity:1;stroke:#000000;stroke-width:1.3600812;stroke-miterlimit:4;stroke-opacity:1;display:inline"
       d="m 872.34037,1006.0419 c 21.61503,3.4486 39.44217,3.8797 60.29961,0 2.38227,-0.015 3.7022,-2.9695 3.44917,-5.3957 0.0671,-2.17434 0.0333,-4.76031 -1.80246,-6.04193 -1.48547,-0.93886 -3.24492,-0.42524 -4.87077,-0.55801 -19.40397,4.74191 -33.12612,4.74191 -57.07555,1e-5 -2.38226,0.0147 -3.70218,2.96949 -3.44915,5.39574 -0.0671,2.17429 -0.0333,4.76029 1.80245,6.04189 0.48798,0.358 1.06497,0.5603 1.6467,0.558 z"
       id="path3834"
       sodipodi:nodetypes="ccccccccc" />
    <path
       style="fill:none;stroke:#000000;stroke-width:1.25;stroke-linecap:butt;stroke-linejoin:miter;stroke-miterlimit:4;stroke-opacity:1;stroke-dasharray:none;display:inline"
       d="m 889.71274,1124.8603 c 7.95454,-1.5151 17.42424,0 17.42424,0"
       id="path3859" />
    <path
       style="fill:none;stroke:#000000;stroke-width:1.25;stroke-linecap:butt;stroke-linejoin:miter;stroke-miterlimit:4;stroke-opacity:1;stroke-dasharray:none;display:inline"
       d="m 897.47789,1124.6709 0.18939,4.5455"
       id="path3860" />
  </g>
  <g
     inkscape:groupmode="layer"
     id="layer3"
     inkscape:label="globos"
     transform="translate(-844.94896,-957.23442)" />
  <g
     inkscape:groupmode="layer"
     id="layer4"
     inkscape:label="vinietas"
     transform="translate(-844.94896,-957.23442)" />
</svg>
