<?xml version="1.0" encoding="UTF-8" standalone="no"?>
<!-- Created with Inkscape (http://www.inkscape.org/) -->

<svg
   xmlns:svg="http://www.w3.org/2000/svg"
   xmlns="http://www.w3.org/2000/svg"
   version="1.0"
   width="114.04462"
   height="196.94844"
   id="svg2">
  <defs
     id="defs4">
    <linearGradient
       x1="79.135063"
       y1="222.45238"
       x2="81.359901"
       y2="288.58099"
       id="linearGradient22173"
       gradientUnits="userSpaceOnUse" />
    <linearGradient
       x1="146.3828"
       y1="70.228607"
       x2="116.75287"
       y2="53.988689"
       id="linearGradient15268"
       gradientUnits="userSpaceOnUse"
       gradientTransform="scale(1.034178,0.966951)" />
    <linearGradient
       x1="162.97719"
       y1="23.931684"
       x2="131.34537"
       y2="10.142395"
       id="linearGradient15267"
       gradientUnits="userSpaceOnUse"
       gradientTransform="scale(1.035723,0.965509)" />
    <linearGradient
       x1="215.19115"
       y1="116.1558"
       x2="148.53513"
       y2="78.029449"
       id="linearGradient15266"
       gradientUnits="userSpaceOnUse"
       gradientTransform="scale(1.026523,0.974162)" />
    <linearGradient
       x1="230.18588"
       y1="64.586258"
       x2="171.49763"
       y2="31.573004"
       id="linearGradient15265"
       gradientUnits="userSpaceOnUse"
       gradientTransform="scale(1.032621,0.96841)" />
    <radialGradient
       cx="24.825565"
       cy="176.56438"
       r="42.859913"
       fx="40.974991"
       fy="162.11137"
       id="radialGradient15264"
       gradientUnits="userSpaceOnUse" />
  </defs>
  <g
     transform="translate(-966.16108,-958.93902)"
     id="layer1" />
  <g
     transform="translate(-966.16108,-958.93902)"
     id="layer2">
    <path
       d="m 1010.2117,1084.7897 -2.8963,9.1717 -18.34335,-7.2408 2.4136,-10.6198 c 0,0 -6.7581,-2.8963 -6.2753,0.9654 0.4827,3.8618 0.4827,7.2408 0.4827,7.2408 0,0 -7.2408,-8.2062 -11.5852,-9.1716 -4.3445,-0.9655 -9.6544,8.6889 -6.2754,14.9642 3.3791,6.2753 21.2396,2.8963 21.2396,2.8963 l 20.75695,8.2062 6.2753,-14.4815 -5.7926,-1.9309 z"
       id="path4046"
       style="fill:#ffeec4;fill-opacity:1;stroke:#000000;stroke-width:1;stroke-miterlimit:4;stroke-opacity:1;stroke-dasharray:none" />
    <path
       d="m 1044.0723,1085.4677 5.17,21.5566 c 11.0336,3.5439 4.4454,11.1809 4.4454,11.1809 -6.2025,4.2497 -11.8813,0.5532 -11.8813,0.5532 -3.4114,-6.8695 -3.7558,-33.9764 -3.7558,-33.9764 l 6.0217,0.6857 z"
       id="path3870"
       style="fill:#ffeec4;fill-opacity:1;fill-rule:evenodd;stroke:#000000;stroke-width:1.25;stroke-linecap:butt;stroke-linejoin:miter;stroke-miterlimit:4;stroke-opacity:1;display:inline" />
    <g
       transform="translate(416.35575,501.59021)"
       id="g3872"
       style="display:inline">
      <path
         d="m 62.946547,630.72755 -3.518416,27.92519 c 9.938928,4.73283 23.869555,1.41832 23.869555,1.41832 10.412211,5.67939 26.015694,-0.70916 26.015694,-0.70916 l -2.82486,-32.89389 -43.541973,4.25954 z"
         transform="matrix(0.859835,0,0,0.532987,537.0548,277.0172)"
         id="path3873"
         style="fill:#0600ff;fill-opacity:1;fill-rule:evenodd;stroke:#000000;stroke-width:1.84647799;stroke-linecap:butt;stroke-linejoin:miter;stroke-miterlimit:4;stroke-opacity:1" />
      <path
         d="m 605.49242,620.80796 -1.13636,2.84091 7.00758,0.37879"
         id="path3874"
         style="fill:none;stroke:#000000;stroke-width:1.25;stroke-linecap:butt;stroke-linejoin:miter;stroke-miterlimit:4;stroke-opacity:1" />
      <path
         d="m 608.71212,621.18675 0,7.95454"
         id="path3875"
         style="fill:none;stroke:#000000;stroke-width:1.25;stroke-linecap:butt;stroke-linejoin:miter;stroke-miterlimit:4;stroke-opacity:1" />
    </g>
    <path
       d="m 1027.497,1046.5552 -1.4198,16.0916 -8.9924,4.2595 11.8321,15.145 11.832,-16.0916 -9.9389,-4.2595 1.4198,-13.2519 -4.7328,-1.8931 z"
       id="path3876"
       style="fill:#ffeec4;fill-opacity:1;fill-rule:evenodd;stroke:#000000;stroke-width:1.25;stroke-linecap:butt;stroke-linejoin:miter;stroke-miterlimit:4;stroke-opacity:1;display:inline" />
    <path
       d="m 1051.1838,1135.4417 c 27.4504,1.4198 28.3969,13.7252 28.3969,13.7252 0,9.9389 -53.0076,4.7328 -53.0076,4.7328 l 0,-16.0916 24.6107,-2.3664 z"
       id="path3877"
       style="fill:#ffffff;fill-opacity:1;fill-rule:evenodd;stroke:#000000;stroke-width:1.25;stroke-linecap:butt;stroke-linejoin:miter;stroke-miterlimit:4;stroke-opacity:1;display:inline" />
    <path
       d="m 1001.9397,1135.4417 c -27.45035,1.4198 -28.39695,13.7252 -28.39695,13.7252 0,9.9389 53.00765,4.7328 53.00765,4.7328 l 0,-16.0916 -24.6107,-2.3664 z"
       id="path3878"
       style="fill:#ffffff;fill-opacity:1;fill-rule:evenodd;stroke:#000000;stroke-width:1.25;stroke-linecap:butt;stroke-linejoin:miter;stroke-miterlimit:4;stroke-opacity:1;display:inline" />
    <path
       d="m 643.56059,503.9519 a 29.545454,40.530304 0 1 1 -59.09091,0 29.545454,40.530304 0 1 1 59.09091,0 z"
       transform="matrix(1,0,0,1.138058,410.67395,432.20511)"
       id="path3882"
       style="fill:#ffeec4;fill-opacity:1;stroke:#000000;stroke-width:1.25;stroke-miterlimit:4;stroke-opacity:1;display:inline" />
    <path
       d="m 1026.215,1137.4363 c 7.8737,1.3577 13.8554,1.4102 21.5917,0 0.853,-0.011 1.3256,-2.2067 1.235,-4.0097 0.024,-1.6159 0.012,-3.5377 -0.6454,-4.4901 -0.5319,-0.6978 -1.1619,-0.3161 -1.7441,-0.4147 -8.1533,1.783 -11.5937,1.5152 -20.4372,0 -0.853,0.011 -1.3256,2.2068 -1.235,4.0099 -0.024,1.6158 -0.012,3.5375 0.6454,4.4899 0.1747,0.2661 0.3813,0.4165 0.5896,0.4147 z"
       id="path3885"
       style="fill:#ff8c00;fill-opacity:1;stroke:#000000;stroke-width:1.25;stroke-miterlimit:4;stroke-opacity:1;display:inline" />
    <path
       d="m 1003.4878,1138.1939 c 7.8736,1.3576 13.8553,1.4102 21.5916,0 0.853,-0.011 1.3257,-2.2068 1.2351,-4.0097 0.024,-1.6159 0.012,-3.5377 -0.6454,-4.4902 -0.5319,-0.6977 -1.162,-0.316 -1.7441,-0.4146 -8.1534,1.783 -11.5938,1.5151 -20.4372,0 -0.8531,0.011 -1.3257,2.2068 -1.2351,4.0099 -0.024,1.6158 -0.012,3.5375 0.6454,4.4899 0.1748,0.2661 0.3814,0.4165 0.5897,0.4147 z"
       id="path3886"
       style="fill:#ff8c00;fill-opacity:1;stroke:#000000;stroke-width:1.25;stroke-miterlimit:4;stroke-opacity:1;display:inline" />
    <path
       d="m 996.93245,1006.531 -5.2447,11.6488 8.2499,-9.5633 -2.6209,12.5721 13.30585,-14.31 18.4527,18.158 -3.1266,-13.9871 10.9043,18.7513 0.4484,-13.7064 6.1081,16.1496 2.8668,-11.9366 c 2.0035,4.1708 4.081,28.6273 4.081,28.6273 l 1.6122,-20.8368 c 0.6678,1.7378 3.3963,25.0076 3.3963,25.0076 l 0,-9.0368 c 2.6713,-36.1474 -0.6678,-37.5377 -0.6678,-37.5377 l -57.76555,0 z"
       id="path1830"
       style="fill:#ffff00;fill-opacity:1;fill-rule:evenodd;stroke:#000000;stroke-width:1.25;stroke-linecap:butt;stroke-linejoin:miter;stroke-miterlimit:4;stroke-opacity:1;display:inline" />
    <g
       transform="translate(75.446652,502.34781)"
       id="g3912"
       style="display:inline">
      <path
         d="m 643.56059,503.9519 a 29.545454,40.530304 0 1 1 -59.09091,0"
         transform="matrix(1,0,0,-1.138058,335.2273,1077.342)"
         id="path3888"
         style="fill:#ff0000;fill-opacity:1;stroke:#000000;stroke-width:1.25;stroke-miterlimit:4;stroke-opacity:1" />
      <path
         d="m 919.18064,496.12998 c 9.11503,-2.31229 22.9649,-4.82671 60.29962,0 2.38226,0.0147 3.70219,2.96949 3.44916,5.39574 0.0671,2.1743 0.0333,4.76027 -1.80245,6.04188 -1.48547,0.93887 -3.24492,0.42525 -4.87077,0.55802 -39.29034,-5.4995 -51.49734,-2.46919 -57.07556,-2e-5 -2.38226,-0.0147 -3.70218,-2.96948 -3.44915,-5.39573 -0.0671,-2.17429 -0.0333,-4.76026 1.80245,-6.04187 0.48798,-0.35801 1.06497,-0.56033 1.6467,-0.55802 z"
         id="path3889"
         style="fill:#ff8c00;fill-opacity:1;stroke:#000000;stroke-width:1.3600812;stroke-miterlimit:4;stroke-opacity:1" />
    </g>
    <g
       transform="translate(400.06785,503.48421)"
       id="g3890"
       style="display:inline">
      <path
         d="m 602.12989,530.86845 c 4.92665,-5.60302 3.20474,3.61349 2.69071,0.88757 1.9602,-2.34669 2.95818,-2.51226 5.54437,-1.69045 -0.0209,-0.0289 -0.0417,-0.0579 -0.0626,-0.0868 l 0.67636,1.37229 c -0.24207,0.0801 -0.48415,0.16018 -0.72622,0.24027 -2.79162,-0.64108 -2.07842,-1.23608 -4.52736,1.39857 -5.38134,3.48665 2.58736,-7.9687 -2.51341,-1.03965 l -1.08182,-1.08182 z"
         id="path3891"
         style="fill:#000000;fill-opacity:1;fill-rule:nonzero;stroke:none" />
      <path
         d="m 614.56728,529.29973 c 2.27316,-2.20018 3.10381,3.15946 2.40404,0.88226 2.38249,0.0162 2.29496,-0.69063 4.56975,-1.09388 0.62368,0.16192 1.16571,0.49085 1.73274,0.77392 l -0.62753,1.3953 c -0.31635,-0.15756 -0.94462,-0.42072 -1.08062,-0.63949 -1.31256,0.34406 -2.45151,1.02431 -3.50032,0.63363 -3.33506,2.9186 -3.05186,-3.8383 -1.32754,-1.64483 0.0946,0.12036 -1.40504,0.86484 -1.32188,0.96607 l -0.84864,-1.27298 z"
         id="path3892"
         style="fill:#000000;fill-opacity:1;fill-rule:nonzero;stroke:none" />
    </g>
    <g
       transform="translate(404.23455,502.34781)"
       id="g3893"
       style="fill:#000000;fill-opacity:1;stroke:none;display:inline">
      <path
         d="m 607.2367,545.43155 c -1.15458,1.83076 -2.3091,3.66086 -3.4138,5.52225 l -0.87701,-0.52072 c 1.10622,-1.86229 2.25997,-3.69473 3.41621,-5.52629 l 0.8746,0.52476 z"
         id="path3894"
         style="fill-rule:nonzero" />
      <path
         d="m 608.99652,546.06684 c -0.91679,1.92189 -1.26918,4.02666 -1.59277,6.11116 l -1.00782,-0.15677 c 0.34111,-2.18849 0.72023,-4.39522 1.68832,-6.41052 l 0.91227,0.45613 z"
         id="path3895"
         style="fill-rule:nonzero" />
      <path
         d="m 611.04396,546.76599 c -0.65137,2.87861 -0.44213,5.79948 -0.36996,8.7193 l -1.01964,0.0252 c -0.0743,-3.01141 -0.27866,-6.02436 0.4001,-8.99185 l 0.9895,0.24737 z"
         id="path3896"
         style="fill-rule:nonzero" />
      <path
         d="m 614.08554,545.87855 c 1.01997,2.17067 1.39211,4.55818 1.91622,6.87879 l -0.9949,0.22465 c -0.50582,-2.24051 -0.86033,-4.54736 -1.83359,-6.6473 l 0.91227,-0.45614 z"
         id="path3897"
         style="fill-rule:nonzero" />
      <path
         d="m 617.37922,545.59664 c 2.42251,0.60363 3.30082,3.16147 4.26258,5.21685 l -0.92511,0.42951 c -0.81381,-1.74056 -1.50068,-3.80802 -3.33747,-4.62641 l 0,-1.01995 z"
         id="path3898"
         style="fill-rule:nonzero" />
      <path
         d="m 620.38768,547.50131 c -0.67972,-4.82708 3.62959,1.43543 4.47498,3.1077 l -0.90511,0.47018 c -0.64531,-1.3065 -4.4808,-6.9346 -2.62287,-3.95668 l -0.947,0.3788 z"
         id="path3899"
         style="fill-rule:nonzero" />
    </g>
    <path
       d="m 1018.1754,1062.3851 13.7179,6.7671 7.9204,-6.3205 12.422,24.1176 -11.6206,5.8061 -3.2057,-18.7582 10.4185,43.3225 c -12.8227,7.5926 -41.273,0.4466 -41.273,0.4466 l 9.617,-42.8758 -4.0071,19.6514 -11.6205,-5.8061 17.6311,-26.3507 z"
       id="path3901"
       style="fill:#00ff15;fill-opacity:1;fill-rule:evenodd;stroke:#000000;stroke-width:1.25;stroke-linecap:butt;stroke-linejoin:miter;stroke-miterlimit:4;stroke-opacity:1;display:inline" />
    <g
       transform="matrix(0.640057,0.383722,-0.30692,0.64132,818.27578,480.53681)"
       id="g3902"
       style="display:inline">
      <path
         d="m 599.7744,582.6047 c 8.48204,6.77683 10.32365,18.11363 11.58749,28.27131 l -3.89684,0.74104 c -1.15456,-9.08236 -2.47927,-19.44086 -9.89097,-25.71188 l 2.20032,-3.30047 z"
         id="path3903"
         style="fill:#f0ff00;fill-opacity:1;fill-rule:nonzero;stroke:none" />
      <path
         d="m 592.0493,592.28293 c -2.32045,-10.48305 13.57833,-19.65261 22.425,-14.72572 8.3399,4.2453 -5.41921,23.47417 -8.49745,19.57803 -3.77774,-4.78149 4.4829,-8.92534 7.72314,-9.36408 7.88402,-0.50313 14.02952,2.76484 12.25065,11.30764 -2.33312,5.61955 -8.68072,7.67873 -14.13188,9.06608 l -0.95292,-3.8505 c 4.06438,-0.97145 8.82209,-2.38464 11.20928,-6.06105 0.91383,-5.76611 -2.2474,-6.64165 -7.89904,-6.52418 -2.05624,0.30486 -3.4156,2.57324 -4.70891,2.8346 -7.94888,1.60635 7.5184,-8.72489 2.96726,-13.58458 -5.86299,-4.00758 -16.11336,3.3856 -16.98374,9.28292 l -3.40139,2.04084 z"
         id="path3904"
         style="fill:#f0ff00;fill-opacity:1;fill-rule:nonzero;stroke:none" />
    </g>
  </g>
  <g
     transform="translate(-966.16108,-958.93902)"
     id="layer3" />
  <g
     transform="translate(-966.16108,-958.93902)"
     id="layer4" />
</svg>
