<?xml version="1.0" encoding="UTF-8" standalone="no"?>
<!-- Created with Inkscape (http://www.inkscape.org/) -->

<svg
   xmlns:dc="http://purl.org/dc/elements/1.1/"
   xmlns:cc="http://creativecommons.org/ns#"
   xmlns:rdf="http://www.w3.org/1999/02/22-rdf-syntax-ns#"
   xmlns:svg="http://www.w3.org/2000/svg"
   xmlns="http://www.w3.org/2000/svg"
   xmlns:sodipodi="http://sodipodi.sourceforge.net/DTD/sodipodi-0.dtd"
   xmlns:inkscape="http://www.inkscape.org/namespaces/inkscape"
   version="1.0"
   width="110.60419"
   height="198.65744"
   id="svg2"
   inkscape:version="0.47 r22583"
   sodipodi:docname="back.svg">
  <metadata
     id="metadata38">
    <rdf:RDF>
      <cc:Work
         rdf:about="">
        <dc:format>image/svg+xml</dc:format>
        <dc:type
           rdf:resource="http://purl.org/dc/dcmitype/StillImage" />
        <dc:title></dc:title>
      </cc:Work>
    </rdf:RDF>
  </metadata>
  <sodipodi:namedview
     pagecolor="#ffffff"
     bordercolor="#666666"
     borderopacity="1"
     objecttolerance="10"
     gridtolerance="10"
     guidetolerance="10"
     inkscape:pageopacity="0"
     inkscape:pageshadow="2"
     inkscape:window-width="872"
     inkscape:window-height="480"
     id="namedview36"
     showgrid="false"
     inkscape:zoom="1.0206449"
     inkscape:cx="64.704186"
     inkscape:cy="98.991874"
     inkscape:window-x="0"
     inkscape:window-y="26"
     inkscape:window-maximized="0"
     inkscape:current-layer="svg2" />
  <defs
     id="defs4">
    <inkscape:perspective
       sodipodi:type="inkscape:persp3d"
       inkscape:vp_x="0 : 99.326523 : 1"
       inkscape:vp_y="0 : 1000 : 0"
       inkscape:vp_z="107.28794 : 99.326523 : 1"
       inkscape:persp3d-origin="53.64397 : 66.217682 : 1"
       id="perspective40" />
    <linearGradient
       x1="79.135063"
       y1="222.45238"
       x2="81.359901"
       y2="288.58099"
       id="linearGradient22173"
       gradientUnits="userSpaceOnUse" />
    <linearGradient
       x1="146.3828"
       y1="70.228607"
       x2="116.75287"
       y2="53.988689"
       id="linearGradient15268"
       gradientUnits="userSpaceOnUse"
       gradientTransform="scale(1.034178,0.966951)" />
    <linearGradient
       x1="162.97719"
       y1="23.931684"
       x2="131.34537"
       y2="10.142395"
       id="linearGradient15267"
       gradientUnits="userSpaceOnUse"
       gradientTransform="scale(1.035723,0.965509)" />
    <linearGradient
       x1="215.19115"
       y1="116.1558"
       x2="148.53513"
       y2="78.029449"
       id="linearGradient15266"
       gradientUnits="userSpaceOnUse"
       gradientTransform="scale(1.026523,0.974162)" />
    <linearGradient
       x1="230.18588"
       y1="64.586258"
       x2="171.49763"
       y2="31.573004"
       id="linearGradient15265"
       gradientUnits="userSpaceOnUse"
       gradientTransform="scale(1.032621,0.96841)" />
    <radialGradient
       cx="24.825565"
       cy="176.56438"
       r="42.859913"
       fx="40.974991"
       fy="162.11137"
       id="radialGradient15264"
       gradientUnits="userSpaceOnUse" />
    <inkscape:perspective
       id="perspective3524"
       inkscape:persp3d-origin="0.5 : 0.33333333 : 1"
       inkscape:vp_z="1 : 0.5 : 1"
       inkscape:vp_y="0 : 1000 : 0"
       inkscape:vp_x="0 : 0.5 : 1"
       sodipodi:type="inkscape:persp3d" />
  </defs>
  <g
     transform="translate(-840.52537,-959.22595)"
     id="layer1" />
  <g
     transform="translate(-840.52537,-959.22595)"
     id="layer3" />
  <g
     transform="translate(-840.52537,-959.22595)"
     id="layer4" />
  <path
     id="path5104"
     d="m 83.926446,186.29099 c 7.99466,1.8052 10.573581,7.4789 10.573581,7.4789 -5.67363,6.4473 -34.041771,3.6105 -34.041771,3.6105 l 0.25789,-8.7684 23.210301,-2.321 z"
     style="fill:#0000ff;fill-opacity:1;fill-rule:nonzero;stroke:#000000;stroke-width:1;stroke-linecap:round;stroke-linejoin:round;stroke-miterlimit:4;stroke-opacity:1;stroke-dasharray:none;stroke-dashoffset:0.2;display:inline" />
  <path
     style="fill:#0000ff;fill-opacity:1;fill-rule:nonzero;stroke:#000000;stroke-width:1;stroke-linecap:round;stroke-linejoin:round;stroke-miterlimit:4;stroke-opacity:1;stroke-dasharray:none;stroke-dashoffset:0.2;display:inline"
     d="m 37.663929,186.44649 c -7.99466,1.8053 -10.57358,7.4789 -10.57358,7.4789 5.67363,6.4473 34.041776,3.6105 34.041776,3.6105 l -0.25789,-8.7683 -23.210306,-2.3211 z"
     id="path5102" />
  <path
     id="path5047"
     d="M 49.851975,139.90749 38.1811,186.95559 c 12.765025,8.3884 22.247606,2.553 22.247606,2.553 0,-1.8236 0.36471,-29.5418 0.36471,-29.5418 l 0.364719,30.2712 c 10.469901,5.2204 21.518162,-1.4588 21.518162,-1.4588 l -8.388441,-48.1423 -24.43588,-0.7294 z"
     style="fill:#9e00c7;fill-opacity:1;fill-rule:nonzero;stroke:#000000;stroke-width:1;stroke-linecap:round;stroke-linejoin:round;stroke-miterlimit:4;stroke-opacity:1;stroke-dasharray:none;stroke-dashoffset:0.2;display:inline"
     sodipodi:nodetypes="cccccccc" />
  <path
     id="path5049"
     d="m 23.452399,57.264995 -2.57892,53.125795 2.06314,-1.5474 c 11.34725,-9.799893 61.378347,-7.9946 61.378347,-7.9946 12.120941,4.1263 19.857704,9.0262 19.857704,9.0262 l -7.220983,-63.699395 -73.499287,10.0578 0,1.0316 z"
     style="fill:#f74200;fill-opacity:1;fill-rule:nonzero;stroke:#000000;stroke-width:1;stroke-linecap:round;stroke-linejoin:round;stroke-miterlimit:4;stroke-opacity:1;stroke-dasharray:none;stroke-dashoffset:0.2;display:inline" />
  <path
     id="path5100"
     d="m 47.115126,97.638495 c -6.57965,1.825002 -4.990981,8.682495 -4.990981,8.682495 l 1.50901,37.9117 c -10.451425,8.3472 4.358841,12.3259 4.358841,12.3259 2.233609,-10.7884 -0.22519,-12.401 -0.22519,-12.401 l -0.65168,-46.519095 z"
     style="fill:#ffcf60;fill-opacity:1;fill-rule:nonzero;stroke:#000000;stroke-width:1.00000048;stroke-linecap:round;stroke-linejoin:round;stroke-miterlimit:4;stroke-opacity:1;stroke-dasharray:none;stroke-dashoffset:0.2;display:inline" />
  <path
     style="fill:#ffcf60;fill-opacity:1;fill-rule:nonzero;stroke:#000000;stroke-width:1;stroke-linecap:round;stroke-linejoin:round;stroke-miterlimit:4;stroke-opacity:1;stroke-dasharray:none;stroke-dashoffset:0.2;display:inline"
     d="m 74.091166,98.001995 c 6.70519,1.289502 5.67362,8.252595 5.67362,8.252595 l 1.54736,37.9101 c 11.08936,7.4789 -3.3526,12.6367 -3.3526,12.6367 -3.094711,-10.5735 -0.77368,-12.3788 -0.77368,-12.3788 l -3.0947,-46.420595 z"
     id="path5081" />
  <path
     sodipodi:nodetypes="ccccccccc"
     id="path5051"
     d="m 58.240415,82.282595 0.18236,12.4003 c -1.823579,3.2824 -9.66494,3.647202 -9.66494,3.647202 l -0.911789,16.776793 27.90067,0.7295 c 0.18236,-0.9118 -1.09415,-17.871095 -1.09415,-17.871095 -6.20014,0 -10.212,-3.2824 -10.212,-3.2824 -0.911791,-1.8236 -1.2765,-12.2179 -1.2765,-12.2179 l -4.923651,-0.1824 z"
     style="fill:#ffcf60;fill-opacity:1;fill-rule:nonzero;stroke:#000000;stroke-width:1;stroke-linecap:round;stroke-linejoin:round;stroke-miterlimit:4;stroke-opacity:1;stroke-dasharray:none;stroke-dashoffset:0.2;display:inline" />
  <g
     id="g5118"
     style="fill:#ffcf60;fill-opacity:1;display:inline"
     transform="translate(114.00002,-464.498)">
    <path
       sodipodi:type="arc"
       style="fill:#ffcf60;fill-opacity:1;fill-rule:nonzero;stroke:#000000;stroke-width:1;stroke-linecap:round;stroke-linejoin:round;stroke-miterlimit:4;stroke-opacity:1;stroke-dasharray:none;stroke-dashoffset:0.2"
       id="path5053"
       sodipodi:cx="179.23506"
       sodipodi:cy="225.16464"
       sodipodi:rx="30.689169"
       sodipodi:ry="41.520641"
       d="m 209.92423,225.16464 c 0,22.93122 -13.74001,41.52064 -30.68917,41.52064 -16.94916,0 -30.68917,-18.58942 -30.68917,-41.52064 0,-22.93121 13.74001,-41.52064 30.68917,-41.52064 16.94916,0 30.68917,18.58943 30.68917,41.52064 z"
       transform="translate(-233.0704,282.2921)" />
    <path
       style="fill:#ffcf60;fill-opacity:1;fill-rule:nonzero;stroke:#000000;stroke-width:1;stroke-linecap:round;stroke-linejoin:round;stroke-miterlimit:4;stroke-opacity:1;stroke-dasharray:none;stroke-dashoffset:0.2"
       d="m -53.48014,511.85916 c -2.55301,4.74129 -4.46776,4.74129 -4.46776,4.74129 2.27947,2.73536 6.01779,2.09711 6.01779,2.09711"
       id="path5065" />
  </g>
  <path
     id="path5055"
     d="m 65.359895,40.501995 c 6.318361,-13.53932 15.60248,-0.6447 15.60248,-0.6447 -7.22098,11.2183 -15.60248,0.7737 -15.60248,0.6447 z"
     style="fill:#ffffff;fill-opacity:1;fill-rule:nonzero;stroke:#000000;stroke-width:1;stroke-linecap:round;stroke-linejoin:round;stroke-miterlimit:4;stroke-opacity:1;stroke-dasharray:none;stroke-dashoffset:0.2;display:inline" />
  <path
     id="path5057"
     d="m 18.55245,58.554495 c 39.199626,-1.0316 60.862566,-34.0418 60.862566,-34.0418 l -0.77367,7.99466 c 0.51578,-1.03157 3.094701,-6.7052 3.094701,-6.7052 l 0.2579,9.02624 1.54735,-6.44732 0.51578,4.38417 c 3.86839,16.50505 26.047113,25.78925 26.047113,25.78925 C 95.920117,45.659895 89.472817,13.939115 89.472817,13.939115 79.415016,-0.76073514 57.752076,0.52872486 57.752076,0.52872486 28.610239,4.9128849 19.584019,33.023135 19.584019,33.023135 4.88416,46.691395 0.5,44.886195 0.5,44.886195 c 1.03157,-0.2579 17.020879,-3.3526 17.020879,-3.3526 -8.252549,10.5736 -12.894609,10.5736 -12.894609,10.5736 l 14.699859,-4.6421 c -5.931519,11.6051 -11.347259,9.542 -11.347259,9.542 1.03157,-0.5158 12.120929,-3.0947 12.120929,-3.0947 l -1.547349,4.6421 z"
     style="fill:#f74200;fill-opacity:1;fill-rule:nonzero;stroke:#000000;stroke-width:1;stroke-linecap:round;stroke-linejoin:round;stroke-miterlimit:4;stroke-opacity:1;stroke-dasharray:none;stroke-dashoffset:0.2;display:inline" />
  <path
     d="m 193.93493,220.00681 a 1.547353,1.547353 0 1 1 -3.09471,0 1.547353,1.547353 0 1 1 3.09471,0 z"
     sodipodi:ry="1.547353"
     sodipodi:rx="1.547353"
     sodipodi:cy="220.00681"
     sodipodi:cx="192.38757"
     id="path5059"
     style="fill:#000000;fill-opacity:1;fill-rule:nonzero;stroke:#0091ff;stroke-width:1.42380607;stroke-linecap:round;stroke-linejoin:round;stroke-miterlimit:4;stroke-opacity:1;stroke-dasharray:none;stroke-dashoffset:0.2;display:inline"
     sodipodi:type="arc"
     transform="matrix(1.755858,0,0,1.755858,-265.32951,-345.5801)" />
  <path
     id="path5063"
     d="m 80.317645,38.696795 2.321032,-0.7737 m -4.384171,-1.0316 1.54735,-2.45 m -4.51311,0.5158 0.25789,-2.83678"
     style="fill:#ffffff;fill-opacity:1;fill-rule:nonzero;stroke:#000000;stroke-width:1;stroke-linecap:round;stroke-linejoin:round;stroke-miterlimit:4;stroke-opacity:1;stroke-dasharray:none;stroke-dashoffset:0.2;display:inline" />
  <path
     id="path5067"
     d="m 51.770905,119.67779 -2.91708,22.6059 c 10.93902,6.5306 25.889001,1.0047 25.889001,1.0047 l -4.74023,-25.62 -18.23169,2.0094 z"
     style="fill:#009bff;fill-opacity:1;fill-rule:nonzero;stroke:#000000;stroke-width:0.99999994;stroke-linecap:round;stroke-linejoin:round;stroke-miterlimit:4;stroke-opacity:1;stroke-dasharray:none;stroke-dashoffset:0.2;display:inline" />
  <path
     sodipodi:nodetypes="ccccccccccccc"
     id="path5069"
     d="m 52.404976,94.318195 c 3.64715,12.400295 8.38844,11.306095 8.38844,11.306095 8.75315,0.7295 9.84729,-10.941395 9.84729,-10.941395 l 5.47073,2.1883 0.72942,9.847295 3.28244,4.3766 c 7.659001,18.2357 -11.30616,13.8591 -11.30616,13.8591 -6.564861,-4.3766 -13.85915,-2.1883 -13.85915,-2.1883 -13.49444,4.7413 -16.047466,-3.2824 -16.047466,-3.2824 -3.28243,-6.9296 2.917735,-11.3062 2.917735,-11.3062 l 3.647151,-3.6471 1.09414,-8.753195 5.83543,-1.4588 z"
     style="fill:#009bff;fill-opacity:1;fill-rule:nonzero;stroke:#000000;stroke-width:1;stroke-linecap:round;stroke-linejoin:round;stroke-miterlimit:4;stroke-opacity:1;stroke-dasharray:none;stroke-dashoffset:0.2;display:inline" />
  <path
     id="path5071"
     d="m 40.369379,115.47159 c 4.011876,9.1179 14.588606,3.2825 14.588606,3.2825 6.20015,-3.2825 11.30615,0.3647 11.30615,0.3647 7.659011,5.106 12.035581,-0.3647 12.035581,-0.3647"
     style="opacity:0;fill:#ffffff;fill-opacity:1;fill-rule:nonzero;stroke:#000000;stroke-width:1;stroke-linecap:round;stroke-linejoin:round;stroke-miterlimit:4;stroke-opacity:1;stroke-dasharray:none;stroke-dashoffset:0.2;display:inline" />
</svg>
