<?xml version="1.0" encoding="UTF-8" standalone="no"?>
<!-- Created with Inkscape (http://www.inkscape.org/) -->

<svg
   xmlns:svg="http://www.w3.org/2000/svg"
   xmlns="http://www.w3.org/2000/svg"
   version="1.0"
   width="60.41029"
   height="35.79961"
   id="svg2">
  <defs
     id="defs4" />
  <g
     transform="translate(-115.49906,-906.53901)"
     id="layer1" />
  <g
     transform="translate(-115.49906,-906.53901)"
     id="layer2">
    <path
       d="m 97.022873,504.59781 a 17.038162,17.274805 0 1 1 -34.076325,0 17.038162,17.274805 0 1 1 34.076325,0 z"
       transform="translate(53.17751,419.84101)"
       id="path4457"
       style="fill:#ffffff;fill-opacity:1;stroke:#000000;stroke-width:1.25;stroke-miterlimit:4;stroke-opacity:1;display:inline" />
    <path
       d="m 122.10684,504.59781 a 12.541981,13.488545 0 1 1 -25.083963,0 12.541981,13.488545 0 1 1 25.083963,0 z"
       transform="translate(53.17751,420.78761)"
       id="path4459"
       style="fill:#ffffff;fill-opacity:1;stroke:#000000;stroke-width:1.25;stroke-miterlimit:4;stroke-opacity:1;display:inline" />
    <path
       d="m 78.98003,525.00787 a 4.0159335,4.0159335 0 1 1 -8.031867,0 4.0159335,4.0159335 0 1 1 8.031867,0 z"
       transform="matrix(0.8891,0,0,0.8891,55.38801,458.53121)"
       id="path4461"
       style="fill:#ffffff;fill-opacity:1;stroke:#000000;stroke-width:4.21774817;stroke-miterlimit:4;stroke-opacity:1;display:inline" />
    <path
       d="m 78.98003,525.00787 a 4.0159335,4.0159335 0 1 1 -8.031867,0 4.0159335,4.0159335 0 1 1 8.031867,0 z"
       transform="matrix(0.8891,0,0,0.8891,88.51151,458.86581)"
       id="path4463"
       style="fill:#ffffff;fill-opacity:1;stroke:#000000;stroke-width:4.21774817;stroke-miterlimit:4;stroke-opacity:1;display:inline" />
  </g>
  <g
     transform="translate(-115.49906,-906.53901)"
     id="layer3" />
  <g
     transform="translate(-115.49906,-906.53901)"
     id="layer4" />
</svg>
