<?xml version="1.0" encoding="UTF-8" standalone="no"?>
<!-- Created with Inkscape (http://www.inkscape.org/) -->

<svg
   xmlns:svg="http://www.w3.org/2000/svg"
   xmlns="http://www.w3.org/2000/svg"
   xmlns:xlink="http://www.w3.org/1999/xlink"
   version="1.1"
   width="48"
   height="48"
   id="svg1307">
  <defs
     id="defs1309">
    <linearGradient
       id="linearGradient3686">
      <stop
         id="stop3688"
         style="stop-color:#3d280a;stop-opacity:1"
         offset="0" />
      <stop
         id="stop3690"
         style="stop-color:#3d280a;stop-opacity:0"
         offset="1" />
    </linearGradient>
    <linearGradient
       id="linearGradient2305">
      <stop
         id="stop2307"
         style="stop-color:#000000;stop-opacity:1"
         offset="0" />
      <stop
         id="stop2309"
         style="stop-color:#000000;stop-opacity:0"
         offset="1" />
    </linearGradient>
    <linearGradient
       id="linearGradient2297">
      <stop
         id="stop2299"
         style="stop-color:#a15702;stop-opacity:1"
         offset="0" />
      <stop
         id="stop2301"
         style="stop-color:#683c00;stop-opacity:1"
         offset="1" />
    </linearGradient>
    <linearGradient
       id="linearGradient2251">
      <stop
         id="stop2253"
         style="stop-color:#f6e1cf;stop-opacity:1"
         offset="0" />
      <stop
         id="stop3682"
         style="stop-color:#e19d56;stop-opacity:1"
         offset="0.5" />
      <stop
         id="stop2255"
         style="stop-color:#f4dcb7;stop-opacity:1"
         offset="1" />
    </linearGradient>
    <linearGradient
       id="linearGradient2227">
      <stop
         id="stop2229"
         style="stop-color:#8f5402;stop-opacity:1"
         offset="0" />
      <stop
         id="stop2231"
         style="stop-color:#6e4001;stop-opacity:1"
         offset="1" />
    </linearGradient>
    <linearGradient
       id="linearGradient2219">
      <stop
         id="stop2221"
         style="stop-color:#ffffff;stop-opacity:1"
         offset="0" />
      <stop
         id="stop2223"
         style="stop-color:#ffffff;stop-opacity:0.29963899"
         offset="1" />
    </linearGradient>
    <linearGradient
       x1="24"
       y1="7.4000092"
       x2="24"
       y2="38.329697"
       id="linearGradient2225"
       xlink:href="#linearGradient2219"
       gradientUnits="userSpaceOnUse" />
    <radialGradient
       cx="-14.822968"
       cy="20.156464"
       r="5.3293829"
       fx="-14.822968"
       fy="20.156464"
       id="radialGradient2249"
       xlink:href="#linearGradient2251"
       gradientUnits="userSpaceOnUse"
       gradientTransform="matrix(2.45184,1.174729,-1.324281,2.80558,46.03865,-21.18657)" />
    <radialGradient
       cx="-3.0652061"
       cy="18.305458"
       r="5.3310089"
       fx="-3.0652061"
       fy="18.305458"
       id="radialGradient2263"
       xlink:href="#linearGradient2251"
       gradientUnits="userSpaceOnUse"
       gradientTransform="matrix(3.556041,0,0,3.556041,7.834793,-46.7895)" />
    <linearGradient
       x1="-10.735215"
       y1="11.428152"
       x2="-9.25"
       y2="18.440943"
       id="linearGradient2271"
       xlink:href="#linearGradient2227"
       gradientUnits="userSpaceOnUse" />
    <linearGradient
       x1="-10.153608"
       y1="10.91142"
       x2="-7.9586563"
       y2="18.145666"
       id="linearGradient2279"
       xlink:href="#linearGradient2227"
       gradientUnits="userSpaceOnUse" />
    <linearGradient
       x1="-5.2680058"
       y1="20.641153"
       x2="-12.272349"
       y2="8.6855774"
       id="linearGradient2291"
       xlink:href="#linearGradient2219"
       gradientUnits="userSpaceOnUse" />
    <linearGradient
       x1="-5.2680058"
       y1="20.641153"
       x2="-12.272349"
       y2="8.6855774"
       id="linearGradient2295"
       xlink:href="#linearGradient2219"
       gradientUnits="userSpaceOnUse" />
    <radialGradient
       cx="-6"
       cy="37.75"
       r="14"
       fx="-6"
       fy="37.75"
       id="radialGradient2311"
       xlink:href="#linearGradient2305"
       gradientUnits="userSpaceOnUse"
       gradientTransform="matrix(1,0,0,0.267857,0,27.63839)" />
    <linearGradient
       x1="29.064308"
       y1="39.4202"
       x2="12.860207"
       y2="2.4916291"
       id="linearGradient2323"
       xlink:href="#linearGradient2219"
       gradientUnits="userSpaceOnUse" />
    <radialGradient
       cx="24.00001"
       cy="32.820721"
       r="14.999994"
       fx="24.00001"
       fy="32.820721"
       id="radialGradient3684"
       xlink:href="#linearGradient2251"
       gradientUnits="userSpaceOnUse"
       gradientTransform="matrix(2.783877,0,0,1.961686,-42.81308,-33.63393)" />
    <radialGradient
       cx="23.987946"
       cy="30.12611"
       r="10.987951"
       fx="23.987946"
       fy="30.12611"
       id="radialGradient3692"
       xlink:href="#linearGradient3686"
       gradientUnits="userSpaceOnUse"
       gradientTransform="matrix(1.838239,0,0,0.855268,-20.10762,3.134087)" />
    <radialGradient
       cx="24"
       cy="13.057613"
       r="16.971834"
       fx="24"
       fy="13.057613"
       id="radialGradient3697"
       xlink:href="#linearGradient2297"
       gradientUnits="userSpaceOnUse"
       gradientTransform="matrix(1.635062,0,0,1.830454,-15.24149,-12.15138)" />
  </defs>
  <g
     id="layer1">
    <path
       d="m 8,37.75 a 14,3.75 0 1 1 -28,0 14,3.75 0 1 1 28,0 z"
       transform="matrix(1.535714,0,0,1.51296,33.46429,-17.11425)"
       id="path2303"
       style="opacity:0.48453608;color:#000000;fill:url(#radialGradient2311);fill-opacity:1;fill-rule:evenodd;stroke:none;stroke-width:1;marker:none;visibility:visible;display:inline;overflow:visible" />
    <path
       d="m -4.5,14.75 a 4.75,4.75 0 1 1 -9.5,0 4.75,4.75 0 1 1 9.5,0 z"
       transform="matrix(1.042105,0,0,1.368421,16.13946,0.81579)"
       id="path2197"
       style="color:#000000;fill:url(#linearGradient2271);fill-opacity:1;fill-rule:evenodd;stroke:#3d280a;stroke-width:0.83740312;stroke-linecap:round;stroke-linejoin:round;stroke-miterlimit:4;stroke-opacity:1;stroke-dasharray:none;stroke-dashoffset:0;marker:none;visibility:visible;display:inline;overflow:visible" />
    <path
       d="m -4.5,14.75 a 4.75,4.75 0 1 1 -9.5,0 4.75,4.75 0 1 1 9.5,0 z"
       transform="matrix(0.842105,0,0,1.165992,14.28947,3.84008)"
       id="path2293"
       style="opacity:0.2;color:#000000;fill:none;stroke:url(#linearGradient2295);stroke-width:1.00918198;stroke-linecap:round;stroke-linejoin:round;stroke-miterlimit:4;stroke-opacity:1;stroke-dasharray:none;stroke-dashoffset:0;marker:none;visibility:visible;display:inline;overflow:visible" />
    <path
       d="m -4.5,14.75 a 4.75,4.75 0 1 1 -9.5,0 4.75,4.75 0 1 1 9.5,0 z"
       transform="matrix(0.799453,0,0,0.951666,14.62707,7.030045)"
       id="path2213"
       style="color:#000000;fill:url(#radialGradient2263);fill-opacity:1;fill-rule:evenodd;stroke:#50340d;stroke-width:1.14646637;stroke-linecap:round;stroke-linejoin:round;stroke-miterlimit:4;stroke-opacity:1;stroke-dasharray:none;stroke-dashoffset:0;marker:none;visibility:visible;display:inline;overflow:visible" />
    <path
       d="m -4.5,14.75 a 4.75,4.75 0 1 1 -9.5,0 4.75,4.75 0 1 1 9.5,0 z"
       transform="matrix(1.042104,0,0,1.368421,51.13946,0.81579)"
       id="path2199"
       style="color:#000000;fill:url(#linearGradient2279);fill-opacity:1;fill-rule:evenodd;stroke:#3d280a;stroke-width:0.83740354;stroke-linecap:round;stroke-linejoin:round;stroke-miterlimit:4;stroke-opacity:1;stroke-dasharray:none;stroke-dashoffset:0;marker:none;visibility:visible;display:inline;overflow:visible" />
    <path
       d="m -4.5,14.75 a 4.75,4.75 0 1 1 -9.5,0 4.75,4.75 0 1 1 9.5,0 z"
       transform="matrix(0.842105,0,0,1.165992,49.28947,3.80162)"
       id="path2281"
       style="opacity:0.2;color:#000000;fill:none;stroke:url(#linearGradient2291);stroke-width:1.00918198;stroke-linecap:round;stroke-linejoin:round;stroke-miterlimit:4;stroke-opacity:1;stroke-dasharray:none;stroke-dashoffset:0;marker:none;visibility:visible;display:inline;overflow:visible" />
    <path
       d="m -4.5,14.75 a 4.75,4.75 0 1 1 -9.5,0 4.75,4.75 0 1 1 9.5,0 z"
       transform="matrix(0.789752,0,0,0.951666,48.02639,7.030045)"
       id="path2215"
       style="color:#000000;fill:url(#radialGradient2249);fill-opacity:1;fill-rule:evenodd;stroke:#50340d;stroke-width:1.15348637;stroke-linecap:round;stroke-linejoin:round;stroke-miterlimit:4;stroke-opacity:1;stroke-dasharray:none;stroke-dashoffset:0;marker:none;visibility:visible;display:inline;overflow:visible" />
    <path
       d="m 37.5,23.5 c 7.5,8 0,19 -13.5,18.999981 C 10.5,42.499962 3,31.5 10.5,23.5 6.5,13 14.5,5.4999918 24,5.4999959 33.5,5.5 41.5,13 37.5,23.5 z"
       id="path1314"
       style="color:#000000;fill:url(#radialGradient3697);fill-opacity:1;fill-rule:evenodd;stroke:#3d280a;stroke-width:0.99999958;stroke-linecap:round;stroke-linejoin:round;stroke-miterlimit:4;stroke-opacity:1;stroke-dashoffset:0;marker:none;visibility:visible;display:inline;overflow:visible" />
    <path
       d="m 36.5,23.5 c 7,8 0.203501,18.000017 -12.500001,18 C 11.296497,41.499981 4.5,31.5 11.5,23.5 7.5,13 15.060498,6.5000053 23.999999,6.5000091 32.939499,6.500013 40.5,13 36.5,23.5 z"
       id="path2217"
       style="opacity:0.38144328;color:#000000;fill:none;stroke:url(#linearGradient2225);stroke-width:0.99999928;stroke-linecap:round;stroke-linejoin:round;stroke-miterlimit:4;stroke-opacity:1;stroke-dashoffset:0;marker:none;visibility:visible;display:inline;overflow:visible" />
    <path
       d="M 17.838217,10.504844 C 14.264974,10.725244 11.5,14.102208 11.5,18.5 c 0,1.915169 0.480445,3.910093 1.384633,5.308394 C 10.771363,25.573646 9.5,27 9.5016977,30.339227 9.5045488,35.947033 15,40.5 23.999992,40.498302 33,40.496604 38.494904,35.947033 38.498287,30.339227 38.5,27 37.228622,25.573646 35.115352,23.808394 36.01954,22.410093 36.5,20.415168 36.5,18.5 c 0,-4.539658 -2.96593,-7.995156 -6.700689,-7.995156 -2.450936,0 -4.61225,1.586945 -5.799319,3.960829 -1.187068,-2.373884 -3.348382,-3.960829 -5.799318,-3.960829 -0.116711,0 -0.247191,-0.0071 -0.362457,0 z"
       id="path2190"
       style="color:#000000;fill:url(#radialGradient3684);fill-opacity:1;fill-rule:evenodd;stroke:#7a4f13;stroke-width:1.00339544;stroke-linecap:round;stroke-linejoin:round;stroke-miterlimit:4;stroke-opacity:1;stroke-dasharray:none;stroke-dashoffset:0;marker:none;visibility:visible;display:inline;overflow:visible" />
    <path
       d="m -9.5,7.25 a 1.5,1.75 0 1 1 -3,0 1.5,1.75 0 1 1 3,0 z"
       transform="matrix(1.333333,0,0,1.428571,34.66666,11.14286)"
       id="path2201"
       style="color:#000000;fill:#000000;fill-opacity:1;fill-rule:evenodd;stroke:none;stroke-width:0.9354142;marker:none;visibility:visible;display:inline;overflow:visible" />
    <path
       d="m 13.499995,26.6 c 6.29277,2.4 14.683131,2.4 20.975901,0"
       id="path2205"
       style="opacity:0.88144334;fill:none;stroke:url(#radialGradient3692);stroke-width:1.00000012;stroke-linecap:round;stroke-linejoin:miter;stroke-miterlimit:4;stroke-opacity:1;stroke-dasharray:none" />
    <path
       d="m 18.263225,11.504636 c -3.475804,-0.09233 -5.923683,3.31225 -5.901051,7.462085 C 12.371922,20.75417 13.158177,22.69493 14,24 c -1.967512,1.647555 -3.363465,2.902907 -3.4983,6.016575 -0.22665,5.23391 4.971252,9.464175 13.498304,9.481726 8.398429,0.01729 13.646441,-4.096531 13.498306,-9.481726 C 37.412612,26.901167 35.967512,25.647555 34,24 c 0.841824,-1.30507 1.628719,-3.245826 1.637851,-5.033279 0.02176,-4.258738 -2.445472,-7.777974 -6.238523,-7.462085 C 27.125312,11.694018 26,13 25,15 c -0.5,0.5 -1.5,0.5 -2,0 -1,-2 -2,-3.5 -4.736775,-3.495364 z"
       id="path2313"
       style="opacity:0.4;color:#000000;fill:none;stroke:url(#linearGradient2323);stroke-width:1.00300002;stroke-linecap:round;stroke-linejoin:round;stroke-miterlimit:4;stroke-opacity:1;stroke-dasharray:none;stroke-dashoffset:0;marker:none;visibility:visible;display:inline;overflow:visible" />
    <path
       d="m -9.5,7.25 a 1.5,1.75 0 1 1 -3,0 1.5,1.75 0 1 1 3,0 z"
       transform="matrix(1.333333,0,0,1.428571,42.66666,11.14286)"
       id="path2218"
       style="color:#000000;fill:#000000;fill-opacity:1;fill-rule:evenodd;stroke:none;stroke-width:0.9354142;marker:none;visibility:visible;display:inline;overflow:visible" />
  </g>
</svg>
