<?xml version="1.0" encoding="UTF-8" standalone="no"?>
<!-- Created with Inkscape (http://www.inkscape.org/) -->

<svg
   xmlns:svg="http://www.w3.org/2000/svg"
   xmlns="http://www.w3.org/2000/svg"
   xmlns:xlink="http://www.w3.org/1999/xlink"
   version="1.1"
   width="48"
   height="48"
   id="svg4376">
  <defs
     id="defs3">
    <linearGradient
       id="linearGradient4467">
      <stop
         id="stop4469"
         style="stop-color:#ffffff;stop-opacity:1"
         offset="0" />
      <stop
         id="stop4471"
         style="stop-color:#ffffff;stop-opacity:0.24761905"
         offset="1" />
    </linearGradient>
    <radialGradient
       cx="15.414371"
       cy="13.078408"
       r="6.65625"
       fx="15.414371"
       fy="13.078408"
       id="radialGradient5122"
       xlink:href="#linearGradient4467"
       gradientUnits="userSpaceOnUse"
       gradientTransform="matrix(1.913572,0,0,1.662023,4.360788,-11.71828)" />
    <linearGradient
       id="linearGradient4454">
      <stop
         id="stop4456"
         style="stop-color:#729fcf;stop-opacity:0.20784314"
         offset="0" />
      <stop
         id="stop4458"
         style="stop-color:#729fcf;stop-opacity:0.6761905"
         offset="1" />
    </linearGradient>
    <radialGradient
       cx="18.240929"
       cy="21.817987"
       r="8.3085051"
       fx="18.240929"
       fy="21.817987"
       id="radialGradient4460"
       xlink:href="#linearGradient4454"
       gradientUnits="userSpaceOnUse" />
    <linearGradient
       id="linearGradient3290">
      <stop
         id="stop3292"
         style="stop-color:#fffcde;stop-opacity:1"
         offset="0" />
      <stop
         id="stop3294"
         style="stop-color:#f6e76a;stop-opacity:1"
         offset="0.64485979" />
      <stop
         id="stop3296"
         style="stop-color:#ffb738;stop-opacity:1"
         offset="1" />
    </linearGradient>
    <radialGradient
       cx="29.288071"
       cy="15.720984"
       r="8.9020796"
       fx="29.158466"
       fy="15.755712"
       id="radialGradient2714"
       xlink:href="#linearGradient3290"
       gradientUnits="userSpaceOnUse" />
    <linearGradient
       id="linearGradient2509">
      <stop
         id="stop2511"
         style="stop-color:#fffbd5;stop-opacity:1"
         offset="0" />
      <stop
         id="stop2513"
         style="stop-color:#edd400;stop-opacity:1"
         offset="1" />
    </linearGradient>
    <radialGradient
       cx="25.0527"
       cy="39.5928"
       r="15.7572"
       fx="25.0527"
       fy="39.5928"
       id="aigrd2"
       gradientUnits="userSpaceOnUse"
       gradientTransform="matrix(0.617019,0,0,0.617019,9.054796,7.969543)">
      <stop
         id="stop8602"
         style="stop-color:#777777;stop-opacity:1"
         offset="0" />
      <stop
         id="stop8604"
         style="stop-color:#000000;stop-opacity:1"
         offset="1" />
    </radialGradient>
    <linearGradient
       id="linearGradient4565">
      <stop
         id="stop4567"
         style="stop-color:#000000;stop-opacity:1"
         offset="0" />
      <stop
         id="stop4569"
         style="stop-color:#000000;stop-opacity:0"
         offset="1" />
    </linearGradient>
    <linearGradient
       id="linearGradient3824">
      <stop
         id="stop3826"
         style="stop-color:#ffffff;stop-opacity:1"
         offset="0" />
      <stop
         id="stop3828"
         style="stop-color:#c9c9c9;stop-opacity:1"
         offset="1" />
    </linearGradient>
    <linearGradient
       id="linearGradient3800">
      <stop
         id="stop3802"
         style="stop-color:#ffeed6;stop-opacity:1"
         offset="0" />
      <stop
         id="stop8664"
         style="stop-color:#e49c2f;stop-opacity:1"
         offset="0.5" />
      <stop
         id="stop3804"
         style="stop-color:#ffc66c;stop-opacity:1"
         offset="1" />
    </linearGradient>
    <radialGradient
       cx="24.714285"
       cy="38.57143"
       r="19.714285"
       fx="24.714285"
       fy="38.57143"
       id="radialGradient4571"
       xlink:href="#linearGradient4565"
       gradientUnits="userSpaceOnUse"
       gradientTransform="matrix(1,0,0,0.333333,0,25.71429)" />
    <radialGradient
       cx="18.240929"
       cy="21.817987"
       r="8.3085051"
       fx="18.240929"
       fy="21.817987"
       id="radialGradient5150"
       xlink:href="#linearGradient4454"
       gradientUnits="userSpaceOnUse" />
    <radialGradient
       cx="15.414371"
       cy="13.078408"
       r="6.65625"
       fx="15.414371"
       fy="13.078408"
       id="radialGradient5152"
       xlink:href="#linearGradient4467"
       gradientUnits="userSpaceOnUse"
       gradientTransform="matrix(1.913572,0,0,1.662023,-20.16955,-11.71828)" />
  </defs>
  <g
     id="layer1">
    <path
       d="m 44.42857,38.57143 a 19.714285,6.5714288 0 1 1 -39.42857,0 19.714285,6.5714288 0 1 1 39.42857,0 z"
       id="path4563"
       style="opacity:0.53164559;color:#000000;fill:url(#radialGradient4571);fill-opacity:1;fill-rule:evenodd;stroke:none;stroke-width:0.40487173;marker:none;visibility:visible;display:inline;overflow:visible" />
    <path
       d="m 39.774755,19.008621 a 8.6620579,8.6620579 0 1 1 -17.324115,0 8.6620579,8.6620579 0 1 1 17.324115,0 z"
       transform="matrix(2.083142,0,0,2.083142,-40.54715,-16.49224)"
       id="path4320"
       style="color:#000000;fill:url(#radialGradient2714);fill-opacity:1;fill-rule:evenodd;stroke:#9c8c0a;stroke-width:0.48004404;stroke-linecap:round;stroke-linejoin:round;stroke-miterlimit:4;stroke-opacity:1;stroke-dasharray:none;stroke-dashoffset:0;marker:none;visibility:visible;display:inline;overflow:visible" />
    <g
       id="g5201">
      <path
         d="m 38.375,19.1875 a 2.375,0.5625 0 1 1 -4.75,0 2.375,0.5625 0 1 1 4.75,0 z"
         transform="translate(-2.875,-0.625)"
         id="path5197"
         style="color:#000000;fill:#000000;fill-opacity:1;fill-rule:evenodd;stroke:none;stroke-width:0.99999946;marker:none;visibility:visible;display:inline;overflow:visible" />
      <path
         d="m 38.375,19.1875 a 2.375,0.5625 0 1 1 -4.75,0 2.375,0.5625 0 1 1 4.75,0 z"
         transform="translate(-20.25,-0.625)"
         id="path5199"
         style="color:#000000;fill:#000000;fill-opacity:1;fill-rule:evenodd;stroke:none;stroke-width:0.99999946;marker:none;visibility:visible;display:inline;overflow:visible" />
    </g>
    <path
       d="m 39.774755,19.008621 a 8.6620579,8.6620579 0 1 1 -17.324115,0 8.6620579,8.6620579 0 1 1 17.324115,0 z"
       transform="matrix(1.979782,0,0,1.979782,-37.33128,-14.52746)"
       id="path4322"
       style="opacity:0.67721522;color:#000000;fill:none;stroke:#ffffff;stroke-width:0.50510627;stroke-linecap:round;stroke-linejoin:round;stroke-miterlimit:4;stroke-opacity:1;stroke-dasharray:none;stroke-dashoffset:0;marker:none;visibility:visible;display:inline;overflow:visible" />
    <path
       d="m 30.657426,26.772382 c -1.488975,2.57898 -3.229975,4.437623 -6.32921,4.437623 -3.011063,0 -5.215313,-2.142142 -6.590989,-4.524883 1.25843,1.50845 3.101353,3.241234 6.4601,3.241234 4.013194,0 4.714904,-1.434869 6.460099,-3.153974 z"
       id="path2659"
       style="opacity:0.36000001;color:#000000;fill:#ffffff;fill-opacity:1;fill-rule:nonzero;stroke:none;stroke-width:1;marker:none;visibility:visible;display:inline;overflow:visible" />
    <path
       d="m 30.657426,26.423345 c -1.488975,2.578979 -3.229975,4.437623 -6.32921,4.437623 -3.011063,0 -5.215313,-2.142142 -6.590989,-4.524883 1.25843,1.508449 3.101353,3.241233 6.4601,3.241233 4.013194,0 4.714904,-1.434868 6.460099,-3.153973 z"
       id="path8606"
       style="fill:url(#aigrd2);fill-rule:nonzero;stroke:none" />
    <g
       transform="translate(0.375,2.75)"
       id="g1506"
       style="stroke:#414141;stroke-opacity:1">
      <path
         d="m 21.036428,12.467883 a 9.5459423,9.5459423 0 1 1 -19.0918842,0 9.5459423,9.5459423 0 1 1 19.0918842,0 z"
         id="path1500"
         style="color:#000000;fill:none;stroke:#414141;stroke-width:0.99999946;stroke-linecap:round;stroke-linejoin:round;stroke-miterlimit:4;stroke-opacity:1;stroke-dasharray:none;stroke-dashoffset:0;marker:none;visibility:visible;display:inline;overflow:visible" />
      <path
         d="m 21.036428,12.467883 a 9.5459423,9.5459423 0 1 1 -19.0918842,0 9.5459423,9.5459423 0 1 1 19.0918842,0 z"
         transform="translate(24.57196,0)"
         id="path1502"
         style="color:#000000;fill:none;stroke:#414141;stroke-width:0.99999946;stroke-linecap:round;stroke-linejoin:round;stroke-miterlimit:4;stroke-opacity:1;stroke-dasharray:none;stroke-dashoffset:0;marker:none;visibility:visible;display:inline;overflow:visible" />
      <path
         d="m 21.036428,12.467883 a 9.5459423,9.5459423 0 0 1 -7.821452,9.388884"
         transform="matrix(-0.40175,-0.479532,0.479532,-0.40175,22.40521,22.90045)"
         id="path1504"
         style="color:#000000;fill:none;stroke:#414141;stroke-width:1.59850872;stroke-linecap:round;stroke-linejoin:round;stroke-miterlimit:4;stroke-opacity:1;stroke-dasharray:none;stroke-dashoffset:0;marker:none;visibility:visible;display:inline;overflow:visible" />
    </g>
    <path
       d="m 25.897786,18.478292 a 8.3085051,8.3085051 0 1 1 -16.61701,0 8.3085051,8.3085051 0 1 1 16.61701,0 z"
       transform="matrix(1.032158,0,0,1.032158,18.26107,-3.8646)"
       id="path4452"
       style="color:#000000;fill:url(#radialGradient4460);fill-opacity:1;fill-rule:evenodd;stroke:#3063a3;stroke-width:0.968844;stroke-linecap:round;stroke-linejoin:miter;stroke-miterlimit:10;stroke-opacity:1;stroke-dashoffset:0;marker:none;visibility:visible" />
    <path
       d="m 36.254111,7.7185784 c -3.843131,0 -6.955188,3.1120566 -6.955188,6.9551896 0,1.109914 0.310181,2.131139 0.772798,3.062574 0.924239,0.340663 1.90604,0.572443 2.948085,0.572443 4.554082,0 8.191122,-3.587824 8.472165,-8.071456 -1.277428,-1.5095738 -3.106953,-2.5187506 -5.23786,-2.5187506 z"
       id="path4462"
       style="opacity:0.83422457;color:#000000;fill:url(#radialGradient5122);fill-opacity:1;fill-rule:evenodd;stroke:none;stroke-width:1;marker:none;visibility:visible;display:inline;overflow:visible" />
    <path
       d="m 25.897786,18.478292 a 8.3085051,8.3085051 0 1 1 -16.61701,0 8.3085051,8.3085051 0 1 1 16.61701,0 z"
       transform="matrix(1.032158,0,0,1.032158,-6.269258,-3.8646)"
       id="path5146"
       style="color:#000000;fill:url(#radialGradient5150);fill-opacity:1;fill-rule:evenodd;stroke:#3063a3;stroke-width:0.968844;stroke-linecap:round;stroke-linejoin:miter;stroke-miterlimit:10;stroke-opacity:1;stroke-dashoffset:0;marker:none;visibility:visible" />
    <path
       d="m 11.723783,7.7185784 c -3.8431328,0 -6.9551898,3.1120566 -6.9551898,6.9551896 0,1.109914 0.310181,2.131139 0.772798,3.062574 0.924239,0.340663 1.90604,0.572443 2.948085,0.572443 4.5540838,0 8.1911238,-3.587824 8.4721668,-8.071456 C 15.684215,8.7277552 13.85469,7.7185784 11.723783,7.7185784 z"
       id="path5148"
       style="opacity:0.83422457;color:#000000;fill:url(#radialGradient5152);fill-opacity:1;fill-rule:evenodd;stroke:none;stroke-width:1;marker:none;visibility:visible;display:inline;overflow:visible" />
  </g>
</svg>
