<?xml version="1.0" encoding="UTF-8" standalone="no"?>
<!-- Created with Inkscape (http://www.inkscape.org/) -->

<svg
   xmlns:svg="http://www.w3.org/2000/svg"
   xmlns="http://www.w3.org/2000/svg"
   xmlns:xlink="http://www.w3.org/1999/xlink"
   version="1.1"
   width="48"
   height="48"
   id="svg4376">
  <defs
     id="defs3">
    <linearGradient
       id="linearGradient3287">
      <stop
         id="stop3289"
         style="stop-color:#fa9292;stop-opacity:1"
         offset="0" />
      <stop
         id="stop3291"
         style="stop-color:#cc0000;stop-opacity:1"
         offset="1" />
    </linearGradient>
    <linearGradient
       id="linearGradient3076">
      <stop
         id="stop3078"
         style="stop-color:#000000;stop-opacity:1"
         offset="0" />
      <stop
         id="stop3080"
         style="stop-color:#000000;stop-opacity:0"
         offset="1" />
    </linearGradient>
    <linearGradient
       id="linearGradient2349">
      <stop
         id="stop2351"
         style="stop-color:#ef2929;stop-opacity:1"
         offset="0" />
      <stop
         id="stop2353"
         style="stop-color:#ef2929;stop-opacity:0"
         offset="1" />
    </linearGradient>
    <linearGradient
       id="linearGradient2319">
      <stop
         id="stop2321"
         style="stop-color:#ffffff;stop-opacity:1"
         offset="0" />
      <stop
         id="stop2323"
         style="stop-color:#cc0000;stop-opacity:0"
         offset="1" />
    </linearGradient>
    <linearGradient
       id="linearGradient3110">
      <stop
         id="stop3112"
         style="stop-color:#fcc2c2;stop-opacity:1"
         offset="0" />
      <stop
         id="stop3114"
         style="stop-color:#cc0000;stop-opacity:1"
         offset="1" />
    </linearGradient>
    <linearGradient
       id="linearGradient3290">
      <stop
         id="stop3292"
         style="stop-color:#fffcde;stop-opacity:1"
         offset="0" />
      <stop
         id="stop3294"
         style="stop-color:#f6e76a;stop-opacity:1"
         offset="0.64485979" />
      <stop
         id="stop3296"
         style="stop-color:#ffb738;stop-opacity:1"
         offset="1" />
    </linearGradient>
    <linearGradient
       id="linearGradient4565">
      <stop
         id="stop4567"
         style="stop-color:#000000;stop-opacity:1"
         offset="0" />
      <stop
         id="stop4569"
         style="stop-color:#000000;stop-opacity:0"
         offset="1" />
    </linearGradient>
    <radialGradient
       cx="24.714285"
       cy="38.57143"
       r="19.714285"
       fx="24.714285"
       fy="38.57143"
       id="radialGradient1360"
       xlink:href="#linearGradient4565"
       gradientUnits="userSpaceOnUse"
       gradientTransform="matrix(1,0,0,0.333333,0,25.71429)" />
    <radialGradient
       cx="29.288071"
       cy="15.720984"
       r="8.9020796"
       fx="29.158466"
       fy="15.755712"
       id="radialGradient1362"
       xlink:href="#linearGradient3290"
       gradientUnits="userSpaceOnUse" />
    <radialGradient
       cx="27.643423"
       cy="29.13448"
       r="7.75"
       fx="27.643423"
       fy="29.13448"
       id="radialGradient2303"
       xlink:href="#linearGradient3287"
       gradientUnits="userSpaceOnUse"
       gradientTransform="matrix(0.00537727,-0.373242,0.791975,0.01141123,1.832141,36.92856)" />
    <radialGradient
       cx="47.651241"
       cy="24.283606"
       r="7.75"
       fx="47.651241"
       fy="24.283606"
       id="radialGradient3056"
       xlink:href="#linearGradient3110"
       gradientUnits="userSpaceOnUse"
       gradientTransform="matrix(-5.343385e-7,-0.317037,0.972031,-4.735123e-7,0.99978,36.47238)" />
    <radialGradient
       cx="24.319336"
       cy="36.861725"
       r="8.7498102"
       fx="24.319336"
       fy="36.861725"
       id="radialGradient3082"
       xlink:href="#linearGradient3076"
       gradientUnits="userSpaceOnUse"
       gradientTransform="matrix(1.353561,5.943389e-8,-6.380732e-8,1.453164,-8.598368,-19.22848)" />
  </defs>
  <g
     id="layer1">
    <path
       d="m 44.42857,38.57143 a 19.714285,6.5714288 0 1 1 -39.42857,0 19.714285,6.5714288 0 1 1 39.42857,0 z"
       id="path4563"
       style="opacity:0.27058824;color:#000000;fill:url(#radialGradient1360);fill-opacity:1;fill-rule:evenodd;stroke:none;stroke-width:0.40487173;marker:none;visibility:visible;display:inline;overflow:visible" />
    <path
       d="m 39.774755,19.008621 a 8.6620579,8.6620579 0 1 1 -17.324115,0 8.6620579,8.6620579 0 1 1 17.324115,0 z"
       transform="matrix(2.083142,0,0,2.083142,-40.54715,-16.49224)"
       id="path4320"
       style="color:#000000;fill:url(#radialGradient1362);fill-opacity:1;fill-rule:evenodd;stroke:#9c8c0a;stroke-width:0.48004404;stroke-linecap:round;stroke-linejoin:round;stroke-miterlimit:4;stroke-opacity:1;stroke-dasharray:none;stroke-dashoffset:0;marker:none;visibility:visible;display:inline;overflow:visible" />
    <path
       d="m 39.774755,19.008621 a 8.6620579,8.6620579 0 1 1 -17.324115,0 8.6620579,8.6620579 0 1 1 17.324115,0 z"
       transform="matrix(1.979782,0,0,1.979782,-37.33128,-14.52746)"
       id="path4322"
       style="opacity:0.67721522;color:#000000;fill:none;stroke:#ffffff;stroke-width:0.50510627;stroke-linecap:round;stroke-linejoin:round;stroke-miterlimit:4;stroke-opacity:1;stroke-dasharray:none;stroke-dashoffset:0;marker:none;visibility:visible;display:inline;overflow:visible" />
    <path
       d="M -0.875,1.875 A 2.9375,2.875 0 0 1 -6.3564497,3.3124999"
       transform="matrix(-0.965926,-0.258819,0.258819,-0.965926,24.53442,17.20131)"
       id="path1364"
       style="fill:none;stroke:#555753;stroke-width:1;stroke-linecap:butt;stroke-miterlimit:4;stroke-opacity:1;stroke-dasharray:none;stroke-dashoffset:0" />
    <path
       d="M -0.875,1.875 A 2.9375,2.875 0 0 1 -6.3564497,3.3124999"
       transform="matrix(-0.965926,-0.258819,0.258819,-0.965926,15.78442,17.20131)"
       id="path2094"
       style="fill:none;stroke:#555753;stroke-width:1;stroke-linecap:butt;stroke-miterlimit:4;stroke-opacity:1;stroke-dasharray:none;stroke-dashoffset:0" />
    <path
       d="m 15.569526,26.222096 c 0,0 4.738572,-1.329123 6.418569,-1.34856 1.679996,-0.01944 0.301417,1.270806 2.51985,1.245139 2.15557,-0.02494 1.145916,-1.062089 2.747324,-1.080618 1.601407,-0.01853 5.813878,0.981562 5.813878,0.981562 -2.289547,4.333416 -0.185292,9.650559 -8.580153,9.650559 -9.158031,0 -5.898058,-6.362838 -8.919468,-9.448082 z"
       id="path3066"
       style="opacity:0.20555558;fill:url(#radialGradient3082);fill-opacity:1;fill-rule:evenodd;stroke:none" />
    <path
       d="m 16.110241,26.303277 c 0,0 16.4877,0.1875 16.4877,0.1875 C 30.217201,25 29.946346,21.213388 28.154513,21 c -2.948884,1.104671 -4.100298,1.193885 -7.013138,0 -1.854332,0.489277 -3.147227,4.144057 -5.031134,5.303277 z"
       id="path3047"
       style="color:#000000;fill:url(#radialGradient3056);fill-opacity:1;fill-rule:evenodd;stroke:#a40000;stroke-width:0.9999997;stroke-linecap:butt;stroke-linejoin:miter;stroke-miterlimit:4;stroke-opacity:1;stroke-dasharray:none;stroke-dashoffset:0;marker:none;visibility:visible;display:inline;overflow:visible" />
    <path
       d="m 17.160516,26.255438 c 0,0 3.948753,-1.013578 5.34873,-1.028401 C 23.909222,25.212215 25,26.5 25,26.5 c 0,0 0.564007,-1.13337 1.898494,-1.1475 1.334487,-0.01413 4.844828,0.748531 4.844828,0.748531 -1.907928,3.304628 -0.154408,7.359438 -7.150023,7.359438 -7.631583,0 -4.914978,-4.852249 -7.432783,-7.205031 z"
       id="path1360"
       style="fill:url(#radialGradient2303);fill-opacity:1;fill-rule:evenodd;stroke:#a40000;stroke-width:1.00000048;stroke-linecap:butt;stroke-linejoin:miter;stroke-miterlimit:4;stroke-opacity:1;stroke-dasharray:none" />
    <path
       d="M -0.875,1.875 A 2.9375,2.875 0 0 1 -4.2867702,4.7122808"
       transform="matrix(-0.314376,0.949299,0.949299,0.314376,29.0954,15.15051)"
       id="path3092"
       style="fill:none;stroke:#555753;stroke-width:1;stroke-linecap:butt;stroke-miterlimit:4;stroke-opacity:1;stroke-dasharray:none;stroke-dashoffset:0" />
    <path
       d="M -0.875,1.875 A 2.9375,2.875 0 0 1 -4.1789771,4.7275381"
       transform="matrix(-0.243592,0.735557,0.735557,0.243592,28.13302,13.86608)"
       id="path3094"
       style="fill:none;stroke:#555753;stroke-width:1.29058444;stroke-linecap:butt;stroke-miterlimit:4;stroke-opacity:1;stroke-dasharray:none;stroke-dashoffset:0" />
    <path
       d="M -1.1427273,3.0741739 A 2.9375,2.875 0 0 1 -4.348891,4.7016628"
       transform="matrix(-0.243592,0.735557,0.735557,0.243592,25.63302,13.61608)"
       id="path3096"
       style="fill:none;stroke:#555753;stroke-width:1.29058444;stroke-linecap:butt;stroke-miterlimit:4;stroke-opacity:1;stroke-dasharray:none;stroke-dashoffset:0" />
    <path
       d="M -0.875,1.875 A 2.9375,2.875 0 0 1 -4.2867702,4.7122808"
       transform="matrix(0.314376,0.949299,-0.949299,0.314376,19.43113,15.15051)"
       id="path3098"
       style="fill:none;stroke:#555753;stroke-width:1;stroke-linecap:butt;stroke-miterlimit:4;stroke-opacity:1;stroke-dasharray:none;stroke-dashoffset:0" />
    <path
       d="M -0.875,1.875 A 2.9375,2.875 0 0 1 -4.1789771,4.7275381"
       transform="matrix(0.243592,0.735557,-0.735557,0.243592,20.39351,13.86608)"
       id="path3100"
       style="fill:none;stroke:#555753;stroke-width:1.29058444;stroke-linecap:butt;stroke-miterlimit:4;stroke-opacity:1;stroke-dasharray:none;stroke-dashoffset:0" />
    <path
       d="M -1.1427273,3.0741739 A 2.9375,2.875 0 0 1 -4.348891,4.7016628"
       transform="matrix(0.243592,0.735557,-0.735557,0.243592,22.89351,13.61608)"
       id="path3102"
       style="fill:none;stroke:#555753;stroke-width:1.29058444;stroke-linecap:butt;stroke-miterlimit:4;stroke-opacity:1;stroke-dasharray:none;stroke-dashoffset:0" />
  </g>
</svg>
