<?xml version="1.0" encoding="UTF-8" standalone="no"?>
<!-- Created with Inkscape (http://www.inkscape.org/) -->

<svg
   xmlns:svg="http://www.w3.org/2000/svg"
   xmlns="http://www.w3.org/2000/svg"
   xmlns:xlink="http://www.w3.org/1999/xlink"
   version="1.1"
   width="48"
   height="48"
   id="svg4376">
  <defs
     id="defs3">
    <linearGradient
       id="linearGradient5125">
      <stop
         id="stop5127"
         style="stop-color:#729fcf;stop-opacity:1"
         offset="0" />
      <stop
         id="stop5129"
         style="stop-color:#729fcf;stop-opacity:0"
         offset="1" />
    </linearGradient>
    <linearGradient
       id="linearGradient3290">
      <stop
         id="stop3292"
         style="stop-color:#fffcde;stop-opacity:1"
         offset="0" />
      <stop
         id="stop3294"
         style="stop-color:#f6e76a;stop-opacity:1"
         offset="0.64485979" />
      <stop
         id="stop3296"
         style="stop-color:#ffb738;stop-opacity:1"
         offset="1" />
    </linearGradient>
    <linearGradient
       id="linearGradient2729">
      <stop
         id="stop2731"
         style="stop-color:#d6e0f8;stop-opacity:1"
         offset="0" />
      <stop
         id="stop2733"
         style="stop-color:#d6e0f8;stop-opacity:0"
         offset="1" />
    </linearGradient>
    <radialGradient
       cx="25.0527"
       cy="39.5928"
       r="15.7572"
       fx="25.0527"
       fy="39.5928"
       id="aigrd2"
       gradientUnits="userSpaceOnUse"
       gradientTransform="matrix(1.25,0,0,-1.25,-6.479446,73.66448)">
      <stop
         id="stop8602"
         style="stop-color:#777777;stop-opacity:1"
         offset="0" />
      <stop
         id="stop8604"
         style="stop-color:#000000;stop-opacity:1"
         offset="1" />
    </radialGradient>
    <linearGradient
       id="linearGradient4565">
      <stop
         id="stop4567"
         style="stop-color:#000000;stop-opacity:1"
         offset="0" />
      <stop
         id="stop4569"
         style="stop-color:#000000;stop-opacity:0"
         offset="1" />
    </linearGradient>
    <radialGradient
       cx="24.714285"
       cy="38.57143"
       r="19.714285"
       fx="24.714285"
       fy="38.57143"
       id="radialGradient1375"
       xlink:href="#linearGradient4565"
       gradientUnits="userSpaceOnUse"
       gradientTransform="matrix(1,0,0,0.333333,0,25.71429)" />
    <radialGradient
       cx="29.288071"
       cy="15.720984"
       r="8.9020796"
       fx="29.158466"
       fy="15.755712"
       id="radialGradient1377"
       xlink:href="#linearGradient3290"
       gradientUnits="userSpaceOnUse" />
    <radialGradient
       cx="25.0527"
       cy="39.5928"
       r="15.7572"
       fx="25.0527"
       fy="39.5928"
       id="radialGradient1379"
       xlink:href="#aigrd2"
       gradientUnits="userSpaceOnUse"
       gradientTransform="matrix(1.25,0,0,-1.25,-6.479446,73.66448)" />
    <linearGradient
       x1="36.592773"
       y1="18.228588"
       x2="35.032169"
       y2="13.809171"
       id="linearGradient1391"
       xlink:href="#linearGradient2729"
       gradientUnits="userSpaceOnUse"
       gradientTransform="translate(-6.010408,0.176777)" />
    <linearGradient
       x1="29.807129"
       y1="13.022821"
       x2="29.807129"
       y2="8.1614628"
       id="linearGradient1394"
       xlink:href="#linearGradient5125"
       gradientUnits="userSpaceOnUse" />
    <radialGradient
       cx="13.66476"
       cy="20.541668"
       r="4.3085899"
       fx="13.66476"
       fy="20.541668"
       id="radialGradient1398"
       xlink:href="#linearGradient2729"
       gradientUnits="userSpaceOnUse"
       gradientTransform="matrix(1.369875,0,0,2.845006,-5.054248,-35.24141)" />
    <linearGradient
       x1="17.616745"
       y1="14.613358"
       x2="16.829033"
       y2="9.0223665"
       id="linearGradient1401"
       xlink:href="#linearGradient5125"
       gradientUnits="userSpaceOnUse" />
  </defs>
  <g
     id="layer1">
    <path
       d="m 44.42857,38.57143 a 19.714285,6.5714288 0 1 1 -39.42857,0 19.714285,6.5714288 0 1 1 39.42857,0 z"
       id="path4563"
       style="opacity:0.53164559;color:#000000;fill:url(#radialGradient1375);fill-opacity:1;fill-rule:evenodd;stroke:none;stroke-width:0.40487173;marker:none;visibility:visible;display:inline;overflow:visible" />
    <path
       d="m 39.774755,19.008621 a 8.6620579,8.6620579 0 1 1 -17.324115,0 8.6620579,8.6620579 0 1 1 17.324115,0 z"
       transform="matrix(2.083142,0,0,2.083142,-40.59375,-16.52317)"
       id="path4320"
       style="color:#000000;fill:url(#radialGradient1377);fill-opacity:1;fill-rule:evenodd;stroke:#9c8c0a;stroke-width:0.48004404;stroke-linecap:round;stroke-linejoin:round;stroke-miterlimit:4;stroke-opacity:1;stroke-dasharray:none;stroke-dashoffset:0;marker:none;visibility:visible;display:inline;overflow:visible" />
    <path
       d="m 39.774755,19.008621 a 8.6620579,8.6620579 0 1 1 -17.324115,0 8.6620579,8.6620579 0 1 1 17.324115,0 z"
       transform="matrix(1.979782,0,0,1.979782,-37.33128,-14.52746)"
       id="path4322"
       style="opacity:0.67721522;color:#000000;fill:none;stroke:#ffffff;stroke-width:0.50510627;stroke-linecap:round;stroke-linejoin:round;stroke-miterlimit:4;stroke-opacity:1;stroke-dasharray:none;stroke-dashoffset:0;marker:none;visibility:visible;display:inline;overflow:visible" />
    <g
       transform="matrix(0.663775,0,0,0.663775,8.25463,14.97512)"
       id="g2300">
      <path
         d="m 34.014268,32.036842 c -3.723574,-4.164012 -5.562409,-5.631281 -9.551776,-5.631281 -3.901179,0 -6.499672,1.688046 -9.375,5.984835 3.433297,-2.348813 5.309632,-3.649496 9.109835,-3.649496 3.711839,0 5.751077,1.050699 9.816941,3.295942 z"
         id="path1387"
         style="opacity:0.36000001;color:#000000;fill:#ffffff;fill-opacity:1;fill-rule:nonzero;stroke:none;stroke-width:1;marker:none;visibility:visible;display:inline;overflow:visible" />
      <path
         d="m 34.014268,31.329738 c -3.723574,-4.164012 -5.562409,-5.631281 -9.551776,-5.631281 -3.901179,0 -6.499672,1.688046 -9.375,5.984835 3.433297,-2.348813 5.309632,-3.649496 9.109835,-3.649496 3.711839,0 5.751077,1.050699 9.816941,3.295942 z"
         id="path8606"
         style="fill:url(#radialGradient1379);fill-rule:nonzero;stroke:none" />
    </g>
    <path
       d="M 21,8.8749999 14.875,13.625 15.25,10.375 21,8.8749999 z"
       id="path2296"
       style="opacity:0.43670882;color:#000000;fill:#000000;fill-opacity:1;fill-rule:nonzero;stroke:none;stroke-width:1;marker:none;visibility:visible;display:inline;overflow:visible" />
    <path
       d="M 26.375,8.8749999 32.5,13.625 32.125,10.375 26.375,8.8749999 z"
       id="path2298"
       style="opacity:0.43670882;color:#000000;fill:#000000;fill-opacity:1;fill-rule:nonzero;stroke:none;stroke-width:1;marker:none;visibility:visible;display:inline;overflow:visible" />
    <path
       d="m 20.806508,9.0223664 c 0,0 -1.251445,4.8073066 -1.723431,6.5687826 -0.436433,1.628791 -1.864164,4.44708 -1.074918,7.633433 0.989607,3.995249 -0.809426,5.374755 -2.756352,5.460207 -1.794802,0.07878 -3.900635,-0.784795 -3.819999,-3.963182 0.115444,-4.462002 5.028036,-4.434034 6.780213,-8.825598 1.660563,-4.161947 -3.240226,-2.483403 -3.240226,-2.483403 0,0 5.834713,-4.3902396 5.834713,-4.3902396 z"
       id="path2314"
       style="color:#000000;fill:url(#linearGradient1401);fill-opacity:1;fill-rule:nonzero;stroke:none;stroke-width:1;marker:none;visibility:visible;display:inline;overflow:visible" />
    <path
       d="m 20.625,9.1249999 c 0,0 -1.191942,4.5053621 -2.066942,7.4116121 -0.875,2.90625 -2.161791,3.476549 -1.301777,6.821922 C 17.702556,25.094498 16.698856,27 15.125,27 13.492505,27 12.113408,26.032093 12.213388,23.926777 12.399719,20.003143 15.911602,20.57976 17.5625,17.03125 20.222272,11.301015 15.090386,13.431981 15.090386,13.431981 L 20.625,9.1249999 z"
       id="path2310"
       style="color:#000000;fill:url(#radialGradient1398);fill-opacity:1;fill-rule:nonzero;stroke:none;stroke-width:1;marker:none;visibility:visible;display:inline;overflow:visible" />
    <path
       d="m 15.625,24.4375 a 1.1875,1.1875 0 1 1 -2.375,0 1.1875,1.1875 0 1 1 2.375,0 z"
       transform="translate(-0.5,-0.625)"
       id="path2312"
       style="color:#000000;fill:#ffffff;fill-opacity:1;fill-rule:nonzero;stroke:none;stroke-width:1;marker:none;visibility:visible;display:inline;overflow:visible" />
    <path
       d="m 26.507547,8.9188131 c 0,0 1.664681,7.6418849 2.057972,9.4971259 0.481015,2.269053 4.609496,3.757682 4.540334,1.42263 -0.09426,-3.18245 -2.91567,-3.031934 -3.199091,-3.741636 -1.2178,-3.049129 2.692288,-2.485079 2.692288,-2.485079 0,0 -6.091503,-4.6930409 -6.091503,-4.6930409 z"
       id="path2739"
       style="color:#000000;fill:url(#linearGradient1394);fill-opacity:1;fill-rule:nonzero;stroke:none;stroke-width:1;marker:none;visibility:visible;display:inline;overflow:visible" />
    <path
       d="m 27.577164,12.114331 c 0,0 1.02138,4.755442 1.414213,5.877825 0.309359,0.883884 0.739211,1.655804 2.077127,1.546796 1.118282,-0.09111 0.946603,-1.679926 -0.486136,-2.474873 -2.367734,-1.313724 -3.005204,-4.861359 -3.005204,-4.949748 z"
       id="path2743"
       style="color:#000000;fill:url(#linearGradient1391);fill-opacity:1;fill-rule:nonzero;stroke:none;stroke-width:1;marker:none;visibility:visible;display:inline;overflow:visible" />
    <path
       d="m 15.625,24.4375 a 1.1875,1.1875 0 1 1 -2.375,0 1.1875,1.1875 0 1 1 2.375,0 z"
       transform="matrix(0.553405,0,0,0.553405,22.82988,4.234059)"
       id="path2741"
       style="color:#000000;fill:#ffffff;fill-opacity:1;fill-rule:nonzero;stroke:none;stroke-width:1;marker:none;visibility:visible;display:inline;overflow:visible" />
  </g>
</svg>
