<?xml version="1.0" encoding="UTF-8" standalone="no"?>
<!-- Created with Inkscape (http://www.inkscape.org/) -->

<svg
   xmlns:svg="http://www.w3.org/2000/svg"
   xmlns="http://www.w3.org/2000/svg"
   xmlns:xlink="http://www.w3.org/1999/xlink"
   version="1.1"
   width="48"
   height="48"
   id="svg4376">
  <defs
     id="defs3">
    <linearGradient
       id="linearGradient2337">
      <stop
         id="stop2339"
         style="stop-color:#cc0000;stop-opacity:1"
         offset="0" />
      <stop
         id="stop2345"
         style="stop-color:#c84a00;stop-opacity:1"
         offset="0.27586207" />
      <stop
         id="stop2341"
         style="stop-color:#be0000;stop-opacity:1"
         offset="1" />
    </linearGradient>
    <linearGradient
       id="linearGradient2319">
      <stop
         id="stop2321"
         style="stop-color:#f2d565;stop-opacity:1"
         offset="0" />
      <stop
         id="stop2323"
         style="stop-color:#f2d565;stop-opacity:0"
         offset="1" />
    </linearGradient>
    <linearGradient
       id="linearGradient2311">
      <stop
         id="stop2313"
         style="stop-color:#ffd93c;stop-opacity:1"
         offset="0" />
      <stop
         id="stop2315"
         style="stop-color:#ffffff;stop-opacity:0"
         offset="1" />
    </linearGradient>
    <linearGradient
       id="linearGradient2291">
      <stop
         id="stop2293"
         style="stop-color:#ffa107;stop-opacity:1"
         offset="0" />
      <stop
         id="stop2295"
         style="stop-color:#cc0000;stop-opacity:1"
         offset="1" />
    </linearGradient>
    <linearGradient
       id="linearGradient2283">
      <stop
         id="stop2285"
         style="stop-color:#730000;stop-opacity:1"
         offset="0" />
      <stop
         id="stop2287"
         style="stop-color:#ff0202;stop-opacity:1"
         offset="1" />
    </linearGradient>
    <linearGradient
       id="linearGradient2102">
      <stop
         id="stop2104"
         style="stop-color:#000000;stop-opacity:1"
         offset="0" />
      <stop
         id="stop2106"
         style="stop-color:#000000;stop-opacity:0"
         offset="1" />
    </linearGradient>
    <linearGradient
       id="linearGradient3068">
      <stop
         id="stop3070"
         style="stop-color:#cccccc;stop-opacity:1"
         offset="0" />
      <stop
         id="stop3076"
         style="stop-color:#ffffff;stop-opacity:1"
         offset="0.34579438" />
      <stop
         id="stop3078"
         style="stop-color:#ffffff;stop-opacity:1"
         offset="0.72486681" />
      <stop
         id="stop3072"
         style="stop-color:#cecece;stop-opacity:1"
         offset="1" />
    </linearGradient>
    <linearGradient
       id="linearGradient4565">
      <stop
         id="stop4567"
         style="stop-color:#000000;stop-opacity:1"
         offset="0" />
      <stop
         id="stop4569"
         style="stop-color:#000000;stop-opacity:0"
         offset="1" />
    </linearGradient>
    <radialGradient
       cx="24.714285"
       cy="38.57143"
       r="19.714285"
       fx="24.714285"
       fy="38.57143"
       id="radialGradient1360"
       xlink:href="#linearGradient4565"
       gradientUnits="userSpaceOnUse"
       gradientTransform="matrix(1,0,0,0.333333,0,25.71429)" />
    <linearGradient
       x1="14"
       y1="21.0625"
       x2="14"
       y2="34.305527"
       id="linearGradient2112"
       xlink:href="#linearGradient2102"
       gradientUnits="userSpaceOnUse"
       gradientTransform="matrix(1,0,0,1.404523,6.545492,-7.966331)" />
    <linearGradient
       x1="14"
       y1="21.0625"
       x2="13.5"
       y2="33.42667"
       id="linearGradient2116"
       xlink:href="#linearGradient2102"
       gradientUnits="userSpaceOnUse"
       gradientTransform="matrix(1,0,0,1.171895,-1.454508,-3.141166)" />
    <linearGradient
       x1="14"
       y1="21.0625"
       x2="14.5"
       y2="33.431156"
       id="linearGradient2120"
       xlink:href="#linearGradient2102"
       gradientUnits="userSpaceOnUse"
       gradientTransform="matrix(1,0,0,1.159815,14.54551,-2.815047)" />
    <linearGradient
       x1="9.7892637"
       y1="29.629091"
       x2="38.390732"
       y2="29.629091"
       id="linearGradient2132"
       xlink:href="#linearGradient3068"
       gradientUnits="userSpaceOnUse"
       gradientTransform="matrix(1.048897,0,0,1,-5.222439,0)" />
    <linearGradient
       x1="39.125"
       y1="33.375"
       x2="46.625"
       y2="16.5"
       id="linearGradient2289"
       xlink:href="#linearGradient2283"
       gradientUnits="userSpaceOnUse"
       gradientTransform="matrix(0.780746,0,0,0.780746,9.900195,9.256071)" />
    <radialGradient
       cx="30.561104"
       cy="15.699058"
       r="8.9020796"
       fx="30.561104"
       fy="15.699058"
       id="radialGradient2297"
       xlink:href="#linearGradient2291"
       gradientUnits="userSpaceOnUse"
       gradientTransform="matrix(0.771216,0,0,0.771216,6.991896,3.591695)" />
    <linearGradient
       x1="32.098553"
       y1="6.1454587"
       x2="31.775375"
       y2="8.044363"
       id="linearGradient2317"
       xlink:href="#linearGradient2311"
       gradientUnits="userSpaceOnUse" />
    <linearGradient
       x1="28.764467"
       y1="12.221258"
       x2="38.070023"
       y2="38.297359"
       id="linearGradient2325"
       xlink:href="#linearGradient2319"
       gradientUnits="userSpaceOnUse" />
    <linearGradient
       x1="7.2235508"
       y1="6.0204587"
       x2="8.0878754"
       y2="8.044363"
       id="linearGradient2327"
       xlink:href="#linearGradient2311"
       gradientUnits="userSpaceOnUse" />
    <linearGradient
       x1="30.525612"
       y1="7.3609705"
       x2="32.311508"
       y2="9.4234705"
       id="linearGradient2343"
       xlink:href="#linearGradient2337"
       gradientUnits="userSpaceOnUse" />
    <linearGradient
       x1="10.400612"
       y1="7.6109705"
       x2="8.8115082"
       y2="9.6734705"
       id="linearGradient2347"
       xlink:href="#linearGradient2337"
       gradientUnits="userSpaceOnUse" />
  </defs>
  <g
     id="layer1">
    <path
       d="m 27.435547,37.514338 c 0,0 16.791746,0.672804 19.159721,-6.10459 1.588549,-4.546595 -5.001655,-7.368293 -5.562817,-10.442481 -0.561161,-3.07419 3.318172,-2.293443 3.318172,-2.293443 l 0.634356,1.268713 2.293443,-2.732612 -4.098918,-0.536763 0.780746,1.317509 c 0,0 -3.781741,-0.609958 -3.903731,2.683816 -0.121992,3.293773 6.652724,7.490284 4.310485,10.735261 -2.342239,3.244977 -13.679442,2.244645 -13.679442,2.244645 l -3.252015,3.859945 z"
       id="path2281"
       style="color:#000000;fill:url(#linearGradient2289);fill-opacity:1;fill-rule:evenodd;stroke:none;stroke-width:0.99999988;marker:none;visibility:visible;display:inline;overflow:visible" />
    <path
       d="m 44.42857,38.57143 a 19.714285,6.5714288 0 1 1 -39.42857,0 19.714285,6.5714288 0 1 1 39.42857,0 z"
       transform="matrix(1.163647,0,0,1,-4.772741,-0.795495)"
       id="path4563"
       style="opacity:0.53164559;color:#000000;fill:url(#radialGradient1360);fill-opacity:1;fill-rule:evenodd;stroke:none;stroke-width:0.40487173;marker:none;visibility:visible;display:inline;overflow:visible" />
    <path
       d="m 39.774755,19.008621 a 8.6620579,8.6620579 0 1 1 -17.324115,0 8.6620579,8.6620579 0 1 1 17.324115,0 z"
       transform="matrix(2.083142,0,0,2.083142,-44.50164,-16.49224)"
       id="path4320"
       style="color:#000000;fill:url(#radialGradient2297);fill-opacity:1;fill-rule:evenodd;stroke:#a40000;stroke-width:0.48004404;stroke-linecap:round;stroke-linejoin:round;stroke-miterlimit:4;stroke-opacity:1;stroke-dasharray:none;stroke-dashoffset:0;marker:none;visibility:visible;display:inline;overflow:visible" />
    <path
       d="m 39.774755,19.008621 a 8.6620579,8.6620579 0 1 1 -17.324115,0 8.6620579,8.6620579 0 1 1 17.324115,0 z"
       transform="matrix(1.979782,0,0,1.979782,-41.28577,-14.52746)"
       id="path4322"
       style="opacity:0.43181817;color:#000000;fill:none;stroke:url(#linearGradient2325);stroke-width:0.50510627;stroke-linecap:round;stroke-linejoin:round;stroke-miterlimit:4;stroke-opacity:1;stroke-dasharray:none;stroke-dashoffset:0;marker:none;visibility:visible;display:inline;overflow:visible" />
    <path
       d="M -0.875,1.875 A 2.9375,2.875 0 0 1 -6.3564497,3.3124999"
       transform="matrix(-0.965926,-0.258819,0.258819,-0.965926,20.57993,17.20131)"
       id="path1364"
       style="fill:none;stroke:#000000;stroke-width:1;stroke-linecap:butt;stroke-miterlimit:4;stroke-opacity:1;stroke-dasharray:none;stroke-dashoffset:0" />
    <path
       d="M -0.875,1.875 A 2.9375,2.875 0 0 1 -6.3564497,3.3124999"
       transform="matrix(-0.965926,-0.258819,0.258819,-0.965926,11.82993,17.20131)"
       id="path2094"
       style="fill:none;stroke:#000000;stroke-width:1;stroke-linecap:butt;stroke-miterlimit:4;stroke-opacity:1;stroke-dasharray:none;stroke-dashoffset:0" />
    <path
       d="m 5.2330302,21.044769 c -1.5389814,7.567378 4.6920364,17.167526 14.8511488,17.167526 10.247498,0 16.505528,-8.430424 14.72004,-17.105026 l -29.5711888,-0.0625 z"
       id="path2096"
       style="color:#000000;fill:url(#linearGradient2132);fill-opacity:1;fill-rule:nonzero;stroke:none;stroke-width:1.00000012;marker:none;visibility:visible;display:inline;overflow:visible" />
    <path
       d="m 20.545492,21.528657 0,16.854279"
       id="path2110"
       style="opacity:0.18181817;fill:none;stroke:url(#linearGradient2112);stroke-width:0.99999988px;stroke-linecap:square;stroke-linejoin:miter;stroke-opacity:1" />
    <path
       d="m 12.545492,21.468635 0,14.062746"
       id="path2114"
       style="opacity:0.18181817;fill:none;stroke:url(#linearGradient2116);stroke-width:1.00000024px;stroke-linecap:square;stroke-linejoin:miter;stroke-opacity:1" />
    <path
       d="m 28.545492,21.541107 0,13.917802"
       id="path2118"
       style="opacity:0.18181817;fill:none;stroke:url(#linearGradient2120);stroke-width:1.00000048px;stroke-linecap:square;stroke-linejoin:miter;stroke-opacity:1" />
    <path
       d="m 5.4864345,20.615864 c -1.7806546,8.821926 5.1590115,18.087809 14.8090585,18.087809 10.003545,0 16.652216,-9.578383 14.371562,-18.150309 l -29.1806205,0.0625 z"
       id="path2756"
       style="color:#000000;fill:none;stroke:#a40000;stroke-width:0.99999994;stroke-linecap:butt;stroke-linejoin:miter;stroke-miterlimit:4;stroke-opacity:1;stroke-dasharray:none;stroke-dashoffset:0;marker:none;visibility:visible;display:inline;overflow:visible" />
    <path
       d="m 34.535409,4.733087 c -0.125668,0.023511 -0.246278,0.06874 -0.356419,0.1336572 l -5.970021,3.274601 c -0.30832,0.1767703 -0.620545,0.4973498 -0.547654,0.8451938 0.437186,2.086317 2.08394,3.513463 4.304051,3.763381 0.334167,0.03762 0.611947,-0.277499 0.765671,-0.576583 l 2.962734,-5.85864 C 35.87989,5.9453698 35.843224,5.5028759 35.598856,5.1692189 35.354488,4.8355619 34.943682,4.6670854 34.535409,4.733087 z"
       id="path2276"
       style="color:#000000;fill:url(#linearGradient2343);fill-opacity:1;fill-rule:evenodd;stroke:#a40000;stroke-width:0.99999946;stroke-linecap:round;stroke-linejoin:round;stroke-miterlimit:4;stroke-opacity:1;stroke-dashoffset:0;marker:none;visibility:visible;display:inline;overflow:visible" />
    <path
       d="m 6.9267157,4.858087 c 0.125668,0.023511 0.246278,0.06874 0.356419,0.1336572 l 5.9700183,3.274601 c 0.30832,0.1767703 0.620545,0.4973498 0.547654,0.8451938 -0.437186,2.086317 -2.08394,3.513463 -4.3040474,3.763381 -0.334167,0.03762 -0.6119476,-0.277499 -0.7656719,-0.576583 L 5.7683537,6.439697 C 5.5822347,6.0703698 5.6189007,5.6278759 5.8632687,5.2942189 6.1076367,4.9605619 6.5184427,4.7920854 6.9267157,4.858087 z"
       id="path2279"
       style="color:#000000;fill:url(#linearGradient2347);fill-opacity:1;fill-rule:evenodd;stroke:#a40000;stroke-width:0.99999946;stroke-linecap:round;stroke-linejoin:round;stroke-miterlimit:4;stroke-opacity:1;stroke-dasharray:none;stroke-dashoffset:0;marker:none;visibility:visible;display:inline;overflow:visible" />
    <path
       d="m 34.550143,5.7962029 -5.607281,3.036966 c -0.191029,0.1221924 -0.242098,0.125658 -0.179693,0.3632693 0.280108,1.0665168 1.661495,2.2519038 2.732107,2.5130488 0.225831,0.05509 0.423009,-0.08134 0.52927,-0.288078 l 2.755097,-5.5081922 c 0.128655,-0.2552974 -0.153365,-0.1618881 -0.2295,-0.1170139 z"
       id="path2299"
       style="opacity:0.64772728;color:#000000;fill:none;stroke:url(#linearGradient2317);stroke-width:0.99999946;stroke-linecap:round;stroke-linejoin:round;stroke-miterlimit:4;stroke-opacity:1;stroke-dashoffset:0;marker:none;visibility:visible;display:inline;overflow:visible" />
    <path
       d="m 6.9035211,5.9729796 5.6072809,3.036966 C 12.701831,9.132138 12.7529,9.1356036 12.690495,9.3732149 12.410387,10.439732 11.029,11.625119 9.9583881,11.886264 c -0.225831,0.05509 -0.423009,-0.08134 -0.52927,-0.288078 L 6.6740211,6.0899935 c -0.128655,-0.2552974 0.153365,-0.1618881 0.2295,-0.1170139 z"
       id="path2301"
       style="opacity:0.64772728;color:#000000;fill:none;stroke:url(#linearGradient2327);stroke-width:0.99999946;stroke-linecap:round;stroke-linejoin:round;stroke-miterlimit:4;stroke-opacity:1;stroke-dasharray:none;stroke-dashoffset:0;marker:none;visibility:visible;display:inline;overflow:visible" />
  </g>
</svg>
