<?xml version="1.0" encoding="UTF-8" standalone="no"?>
<!-- Created with Inkscape (http://www.inkscape.org/) -->

<svg
   xmlns:svg="http://www.w3.org/2000/svg"
   xmlns="http://www.w3.org/2000/svg"
   version="1.0"
   width="107.66665"
   height="175.42325"
   id="svg2">
  <defs
     id="defs4" />
  <g
     transform="translate(-98.878779,-980.33991)"
     id="layer1" />
  <g
     transform="translate(-98.878779,-980.33991)"
     id="layer2">
    <g
       transform="matrix(-1,0,0,1,506.73421,502.53721)"
       id="g2745"
       style="display:inline">
      <path
         d="m 61.053417,633.09397 c -27.450373,1.41984 -28.396938,13.72518 -28.396938,13.72518 0,9.93893 53.007618,4.73283 53.007618,4.73283 l 0,-16.0916 -24.61068,-2.36641 z"
         transform="translate(268.1573,-0.313798)"
         id="path2746"
         style="fill:#ffffff;fill-opacity:1;fill-rule:evenodd;stroke:#000000;stroke-width:1.25;stroke-linecap:butt;stroke-linejoin:miter;stroke-miterlimit:4;stroke-opacity:1" />
      <path
         d="m 325.45238,634.32792 c -3.30411,1.76396 -4.78275,5.00331 -5.78563,8.53267 -0.38654,3.01387 -0.16775,5.74342 2.73846,7.01553 l -0.45474,1.46078 c -3.8784,-1.31602 -4.27574,-5.27802 -3.75426,-8.89841 1.11808,-3.86039 2.78921,-7.41198 6.40753,-9.38354 l 0.84864,1.27297 z"
         id="path2747"
         style="fill:#000000;fill-opacity:1;fill-rule:nonzero;stroke:none" />
      <path
         d="m 315.00649,636.20283 c -3.94023,3.53627 -3.26217,10.99809 -0.36872,14.99187 l -1.24536,0.88868 c -3.33005,-4.72753 -3.96581,-13.10773 0.76543,-17.15353 l 0.84865,1.27298 z"
         id="path2748"
         style="fill:#000000;fill-opacity:1;fill-rule:nonzero;stroke:none" />
    </g>
    <g
       transform="translate(-201.31,502.34781)"
       id="g2741"
       style="display:inline">
      <path
         d="m 61.053417,633.09397 c -27.450373,1.41984 -28.396938,13.72518 -28.396938,13.72518 0,9.93893 53.007618,4.73283 53.007618,4.73283 l 0,-16.0916 -24.61068,-2.36641 z"
         transform="translate(268.1573,-0.313798)"
         id="path2708"
         style="fill:#ffffff;fill-opacity:1;fill-rule:evenodd;stroke:#000000;stroke-width:1.25;stroke-linecap:butt;stroke-linejoin:miter;stroke-miterlimit:4;stroke-opacity:1" />
      <path
         d="m 325.45238,634.32792 c -3.30411,1.76396 -4.78275,5.00331 -5.78563,8.53267 -0.38654,3.01387 -0.16775,5.74342 2.73846,7.01553 l -0.45474,1.46078 c -3.8784,-1.31602 -4.27574,-5.27802 -3.75426,-8.89841 1.11808,-3.86039 2.78921,-7.41198 6.40753,-9.38354 l 0.84864,1.27297 z"
         id="path2739"
         style="fill:#000000;fill-opacity:1;fill-rule:nonzero;stroke:none" />
      <path
         d="m 315.00649,636.20283 c -3.94023,3.53627 -3.26217,10.99809 -0.36872,14.99187 l -1.24536,0.88868 c -3.33005,-4.72753 -3.96581,-13.10773 0.76543,-17.15353 l 0.84865,1.27298 z"
         id="path2740"
         style="fill:#000000;fill-opacity:1;fill-rule:nonzero;stroke:none" />
    </g>
    <path
       d="m 173.50824,992.82603 c 10.22427,1.29323 -14.24479,-11.92298 -17.61666,-12.48612 3.12724,4.25973 6.82041,8.11439 10.72758,11.67232 -10.13139,-6.34016 -23.14244,-12.91201 -6.14165,1.4311 -2.03638,1.0797 -15.11897,-8.41698 -21.55878,-6.21998 l 0.48779,1.26061 c 5.21281,-0.60661 23.34389,9.75912 21.94155,3.92534 -16.16041,-13.57866 -5.90998,-3.86282 4.66403,0.81063 4.57073,-1.38875 -6.57739,-11.87293 -10.01079,-11.53278 2.83934,0.84693 24.52163,13.45539 18.00893,9.88386 l -0.502,1.25502 z"
       id="path2702"
       style="fill:#000000;fill-opacity:1;fill-rule:nonzero;stroke:none;display:inline" />
    <path
       d="m 61.526698,525.42224 a 6.8625937,6.8625937 0 1 1 -13.725187,0 6.8625937,6.8625937 0 1 1 13.725187,0 z"
       transform="matrix(1.031733,0,0,0.716766,65.63361,650.80701)"
       id="path2695"
       style="fill:#ffe5b9;fill-opacity:1;stroke:#000000;stroke-width:1.25;stroke-miterlimit:4;stroke-opacity:1;display:inline" />
    <path
       d="m 136.3053,524.94897 a 6.6259522,5.4427466 0 1 1 -13.2519,0 6.6259522,5.4427466 0 1 1 13.2519,0 z"
       transform="translate(67.60491,501.27641)"
       id="path2696"
       style="fill:#ffe5b9;fill-opacity:1;stroke:#000000;stroke-width:1.25;stroke-miterlimit:4;stroke-opacity:1;display:inline" />
    <path
       d="m 150.97705,518.55963 a 51.824413,51.587772 0 1 1 -103.648822,0 51.824413,51.587772 0 1 1 103.648822,0 z"
       transform="matrix(0.669126,0,0,0.694018,93.46881,664.32511)"
       id="path2699"
       style="fill:#ffe5b9;fill-opacity:1;stroke:#000000;stroke-width:1.83430135;stroke-miterlimit:4;stroke-opacity:1;display:inline" />
    <g
       transform="matrix(0.4651787,0.8852168,0.8852168,-0.4651787,-938.2484,1435.6234)"
       id="g4513">
      <g
         transform="matrix(0.6557502,-0.05498409,0.05498409,0.6557502,-932.21721,283.43809)"
         id="g4515">
        <rect
           width="5.9731178"
           height="31.785524"
           rx="4.1980953"
           ry="4.1980953"
           x="2084.4009"
           y="-435.39514"
           transform="matrix(0.6198235,0.7847413,-0.7847413,0.6198235,0,0)"
           id="rect4517"
           style="fill:#cccccc;fill-opacity:1;fill-rule:nonzero;stroke:#000000;stroke-width:1;stroke-linecap:butt;stroke-linejoin:round;stroke-miterlimit:4;stroke-opacity:1;stroke-dasharray:none" />
        <path
           d="m 1618.8049,1383.8827 13.0267,-10.8737 -0.7427,-0.2194 -12.1886,10.0342 -0.095,1.0589 z"
           id="path4520"
           style="fill:#ffffff;fill-opacity:1;fill-rule:nonzero;stroke:none" />
      </g>
      <g
         transform="matrix(0.00456249,-0.6580355,0.6580355,0.00456249,-719.42452,2159.3041)"
         id="g4522">
        <rect
           width="5.9731174"
           height="31.785521"
           rx="4.1980953"
           ry="4.1980953"
           x="-187.26065"
           y="2086.7573"
           transform="matrix(0.584065,-0.8117069,0.8117069,0.584065,0,0)"
           id="rect4524"
           style="fill:#cccccc;fill-opacity:1;fill-rule:nonzero;stroke:#000000;stroke-width:0.99999994;stroke-linecap:butt;stroke-linejoin:round;stroke-miterlimit:4;stroke-opacity:1;stroke-dasharray:none" />
        <path
           d="m 1587.8529,1372.1075 17.6564,12.7047 0.035,-0.9921 -16.3468,-11.932 -1.3451,0.2194 z"
           id="path4526"
           style="fill:#ffffff;fill-opacity:1;fill-rule:nonzero;stroke:none" />
      </g>
      <g
         transform="matrix(0.5648622,0.337583,-0.337583,0.5648622,-241.38586,-223.42352)"
         id="g4528">
        <path
           d="m 231.77896,121.57761 a 7.873302,7.873302 0 1 1 -15.74661,0 7.873302,7.873302 0 1 1 15.74661,0 z"
           transform="matrix(0.4492809,-0.6243902,0.6243902,0.4492809,1435.5154,1471.7425)"
           id="path4530"
           style="fill:#cccccc;fill-opacity:1;fill-rule:nonzero;stroke:#000000;stroke-width:1.29999959;stroke-linecap:butt;stroke-linejoin:round;stroke-miterlimit:4;stroke-opacity:1;stroke-dasharray:none" />
        <path
           d="m 231.77896,121.57761 a 7.873302,7.873302 0 1 1 -15.74661,0 7.873302,7.873302 0 1 1 15.74661,0 z"
           transform="matrix(0.100465,-0.1396217,0.1396217,0.100465,1570.2308,1407.7417)"
           id="path4532"
           style="fill:#ffffff;fill-opacity:1;fill-rule:nonzero;stroke:none" />
      </g>
      <g
         transform="matrix(0.6557502,-0.05498409,0.05498409,0.6557502,-932.21721,283.43809)"
         id="g4534">
        <path
           d="m 1625.4971,1352.8929 0.5416,6.395 7.0293,4.1959 3.4203,-1.82 -6.9328,-3.7101 -0.2013,-5.0501 -3.8571,-0.011 z m 9.2208,-7.2783 4.5526,7.3487 -1.1071,6.9924 2.5946,0.8562 1.1937,-8.4761 -2.7863,-10.2992 -4.4475,3.578 z m 8.3995,17.5787 1.1011,1.9815 6.2365,-4.1637 5.2605,1.4069 0.3081,-4.6837 -6.2947,0.7327 -6.6115,4.7263 z m 0.1646,5.8859 0.1823,1.6473 4.2144,0.5056 2.3307,3.3716 2.5594,-1.9043 -3.725,-3.3343 -5.5618,-0.2859 z"
           id="path4536"
           style="fill:#cccccc;fill-opacity:1;fill-rule:nonzero;stroke:#000000;stroke-width:0.99999994;stroke-linecap:butt;stroke-linejoin:round;stroke-miterlimit:4;stroke-opacity:1;stroke-dasharray:none" />
        <path
           d="m 231.77896,121.57761 a 7.873302,7.873302 0 1 1 -15.74661,0 7.873302,7.873302 0 1 1 15.74661,0 z"
           transform="matrix(0.5580852,-0.7756015,0.7756015,0.5580852,1418.3319,1472.7115)"
           id="path4538"
           style="fill:#cccccc;fill-opacity:1;fill-rule:nonzero;stroke:#000000;stroke-width:1.04655123;stroke-linecap:butt;stroke-linejoin:round;stroke-miterlimit:4;stroke-opacity:1;stroke-dasharray:none" />
        <path
           d="m 231.77896,121.57761 a 7.873302,7.873302 0 1 1 -15.74661,0 7.873302,7.873302 0 1 1 15.74661,0 z"
           transform="matrix(0.2150335,-0.2988437,0.2988437,0.2150335,1556.3475,1410.0025)"
           id="path4540"
           style="fill:#ffffff;fill-opacity:1;fill-rule:nonzero;stroke:none" />
      </g>
    </g>
    <path
       d="m 154.21551,1055.3323 -1.41984,16.0916 -8.99237,4.2595 11.83206,15.145 11.83206,-16.0915 -9.93893,-4.2596 1.04106,-15.1458 -4.35404,8e-4 z"
       id="path2694"
       style="fill:#ffe5b9;fill-opacity:1;fill-rule:evenodd;stroke:#000000;stroke-width:1.25;stroke-linecap:butt;stroke-linejoin:miter;stroke-miterlimit:4;stroke-opacity:1;display:inline" />
    <path
       d="m 173.5194,1091.2799 6.15267,16.5649 c 9.93893,2.3664 3.78626,11.8321 3.78626,11.8321 -8.51908,3.3129 -11.35877,-0.9466 -11.35877,-0.9466 l -5.20611,-27.4504 6.62595,0 z"
       id="path2697"
       style="fill:#ffe5b9;fill-opacity:1;fill-rule:evenodd;stroke:#000000;stroke-width:1.25;stroke-linecap:butt;stroke-linejoin:miter;stroke-miterlimit:4;stroke-opacity:1;display:inline" />
    <path
       d="m 135.76794,1110.2668 -8.13889,24.1172 c 8.54584,4.3065 25.63752,2.5839 25.63752,2.5839 8.95278,5.1679 27.67223,-1.292 27.67223,-1.292 l -7.73194,-29.285 -37.43892,3.8759 z"
       id="path2712"
       style="fill:#ffffff;fill-opacity:1;fill-rule:evenodd;stroke:#000000;stroke-width:1.25;stroke-linecap:butt;stroke-linejoin:miter;stroke-miterlimit:4;stroke-opacity:1;display:inline" />
    <path
       d="m 146.03028,1072.0685 9.7541,-1.4724 11.88417,1.7989 12.42197,17.6298 -11.62055,4.2442 -3.20567,-13.7121 10.41842,31.6683 c -12.82267,5.5502 -41.27299,0.3265 -41.27299,0.3265 l 9.61701,-31.3418 -4.00709,14.365 -11.62056,-4.2442 17.63119,-19.2622 z"
       id="path2715"
       style="fill:#ff9f00;fill-opacity:1;fill-rule:evenodd;stroke:#000000;stroke-width:1.25;stroke-linecap:butt;stroke-linejoin:miter;stroke-miterlimit:4;stroke-opacity:1;display:inline" />
    <path
       d="m 140.72612,1123.1828 c 15.53492,-2.9463 25.44513,0.2678 25.44513,0.2678"
       id="path2725"
       style="fill:none;stroke:#000000;stroke-width:1.25;stroke-linecap:butt;stroke-linejoin:miter;stroke-miterlimit:4;stroke-opacity:1;stroke-dasharray:none;display:inline" />
    <path
       d="m 153.31476,1122.1114 -0.26784,14.9991"
       id="path2726"
       style="fill:none;stroke:#000000;stroke-width:1.25;stroke-linecap:butt;stroke-linejoin:miter;stroke-miterlimit:4;stroke-opacity:1;stroke-dasharray:none;display:inline" />
  </g>
  <g
     transform="translate(-98.878779,-980.33991)"
     id="layer3" />
  <g
     transform="translate(-98.878779,-980.33991)"
     id="layer4" />
</svg>
