<?xml version="1.0" encoding="UTF-8" standalone="no"?>
<!-- Created with Inkscape (http://www.inkscape.org/) -->

<svg
   xmlns:svg="http://www.w3.org/2000/svg"
   xmlns="http://www.w3.org/2000/svg"
   version="1.0"
   width="114.70031"
   height="171.48436"
   id="svg2">
  <defs
     id="defs4" />
  <g
     transform="translate(-88.734312,-981.81613)"
     id="layer1" />
  <g
     transform="translate(-88.734312,-981.81613)"
     id="layer2">
    <g
       transform="matrix(-0.4651787,0.8852168,-0.8852168,-0.4651787,1244.0973,1431.6234)"
       id="g4570">
      <g
         transform="matrix(0.6557502,-0.05498409,0.05498409,0.6557502,-932.21721,283.43809)"
         id="g4572">
        <rect
           width="5.9731178"
           height="31.785524"
           rx="4.1980953"
           ry="4.1980953"
           x="2084.4009"
           y="-435.39514"
           transform="matrix(0.6198235,0.7847413,-0.7847413,0.6198235,0,0)"
           id="rect4574"
           style="fill:#cccccc;fill-opacity:1;fill-rule:nonzero;stroke:#000000;stroke-width:1;stroke-linecap:butt;stroke-linejoin:round;stroke-miterlimit:4;stroke-opacity:1;stroke-dasharray:none" />
        <path
           d="m 1618.8049,1383.8827 13.0267,-10.8737 -0.7427,-0.2194 -12.1886,10.0342 -0.095,1.0589 z"
           id="path4576"
           style="fill:#ffffff;fill-opacity:1;fill-rule:nonzero;stroke:none" />
      </g>
      <g
         transform="matrix(0.00456249,-0.6580355,0.6580355,0.00456249,-719.42452,2159.3041)"
         id="g4578">
        <rect
           width="5.9731174"
           height="31.785521"
           rx="4.1980953"
           ry="4.1980953"
           x="-187.26065"
           y="2086.7573"
           transform="matrix(0.584065,-0.8117069,0.8117069,0.584065,0,0)"
           id="rect4580"
           style="fill:#cccccc;fill-opacity:1;fill-rule:nonzero;stroke:#000000;stroke-width:0.99999994;stroke-linecap:butt;stroke-linejoin:round;stroke-miterlimit:4;stroke-opacity:1;stroke-dasharray:none" />
        <path
           d="m 1587.8529,1372.1075 17.6564,12.7047 0.035,-0.9921 -16.3468,-11.932 -1.3451,0.2194 z"
           id="path4582"
           style="fill:#ffffff;fill-opacity:1;fill-rule:nonzero;stroke:none" />
      </g>
      <g
         transform="matrix(0.5648622,0.337583,-0.337583,0.5648622,-241.38586,-223.42352)"
         id="g4584">
        <path
           d="m 231.77896,121.57761 a 7.873302,7.873302 0 1 1 -15.74661,0 7.873302,7.873302 0 1 1 15.74661,0 z"
           transform="matrix(0.4492809,-0.6243902,0.6243902,0.4492809,1435.5154,1471.7425)"
           id="path4586"
           style="fill:#cccccc;fill-opacity:1;fill-rule:nonzero;stroke:#000000;stroke-width:1.29999959;stroke-linecap:butt;stroke-linejoin:round;stroke-miterlimit:4;stroke-opacity:1;stroke-dasharray:none" />
        <path
           d="m 231.77896,121.57761 a 7.873302,7.873302 0 1 1 -15.74661,0 7.873302,7.873302 0 1 1 15.74661,0 z"
           transform="matrix(0.100465,-0.1396217,0.1396217,0.100465,1570.2308,1407.7417)"
           id="path4588"
           style="fill:#ffffff;fill-opacity:1;fill-rule:nonzero;stroke:none" />
      </g>
      <g
         transform="matrix(0.6557502,-0.05498409,0.05498409,0.6557502,-932.21721,283.43809)"
         id="g4590">
        <path
           d="m 1625.4971,1352.8929 0.5416,6.395 7.0293,4.1959 3.4203,-1.82 -6.9328,-3.7101 -0.2013,-5.0501 -3.8571,-0.011 z m 9.2208,-7.2783 4.5526,7.3487 -1.1071,6.9924 2.5946,0.8562 1.1937,-8.4761 -2.7863,-10.2992 -4.4475,3.578 z m 8.3995,17.5787 1.1011,1.9815 6.2365,-4.1637 5.2605,1.4069 0.3081,-4.6837 -6.2947,0.7327 -6.6115,4.7263 z m 0.1646,5.8859 0.1823,1.6473 4.2144,0.5056 2.3307,3.3716 2.5594,-1.9043 -3.725,-3.3343 -5.5618,-0.2859 z"
           id="path4592"
           style="fill:#cccccc;fill-opacity:1;fill-rule:nonzero;stroke:#000000;stroke-width:0.99999994;stroke-linecap:butt;stroke-linejoin:round;stroke-miterlimit:4;stroke-opacity:1;stroke-dasharray:none" />
        <path
           d="m 231.77896,121.57761 a 7.873302,7.873302 0 1 1 -15.74661,0 7.873302,7.873302 0 1 1 15.74661,0 z"
           transform="matrix(0.5580852,-0.7756015,0.7756015,0.5580852,1418.3319,1472.7115)"
           id="path4594"
           style="fill:#cccccc;fill-opacity:1;fill-rule:nonzero;stroke:#000000;stroke-width:1.04655123;stroke-linecap:butt;stroke-linejoin:round;stroke-miterlimit:4;stroke-opacity:1;stroke-dasharray:none" />
        <path
           d="m 231.77896,121.57761 a 7.873302,7.873302 0 1 1 -15.74661,0 7.873302,7.873302 0 1 1 15.74661,0 z"
           transform="matrix(0.2150335,-0.2988437,0.2988437,0.2150335,1556.3475,1410.0025)"
           id="path4596"
           style="fill:#ffffff;fill-opacity:1;fill-rule:nonzero;stroke:none" />
      </g>
    </g>
    <path
       d="m 151.48355,1053.0586 -1.41985,16.0916 -8.99236,4.2596 11.83206,15.145 11.83205,-16.0916 -9.93892,-4.2595 1.41984,-13.252 -4.73282,-1.8931 z"
       id="path2703"
       style="fill:#ffe5b9;fill-opacity:1;fill-rule:evenodd;stroke:#000000;stroke-width:1.25;stroke-linecap:butt;stroke-linejoin:miter;stroke-miterlimit:4;stroke-opacity:1;display:inline" />
    <path
       d="m 61.526698,525.42224 a 6.8625937,6.8625937 0 1 1 -13.725187,0 6.8625937,6.8625937 0 1 1 13.725187,0 z"
       transform="matrix(-1.031733,0,0,0.716766,243.6915,650.67623)"
       id="path2705"
       style="fill:#ffe5b9;fill-opacity:1;stroke:#000000;stroke-width:1.25;stroke-miterlimit:4;stroke-opacity:1;display:inline" />
    <path
       d="m 136.3053,524.94897 a 6.6259522,5.4427466 0 1 1 -13.2519,0 6.6259522,5.4427466 0 1 1 13.2519,0 z"
       transform="matrix(-1,0,0,1,241.7202,501.14575)"
       id="path2707"
       style="fill:#ffe5b9;fill-opacity:1;stroke:#000000;stroke-width:1.25;stroke-miterlimit:4;stroke-opacity:1;display:inline" />
    <path
       d="m 150.97705,518.55963 a 51.824413,51.587772 0 1 1 -103.648822,0 51.824413,51.587772 0 1 1 103.648822,0 z"
       transform="matrix(-0.669126,0,0,0.694018,215.8562,664.19433)"
       id="path2713"
       style="fill:#ffe5b9;fill-opacity:1;stroke:#000000;stroke-width:1.83430135;stroke-miterlimit:4;stroke-opacity:1;display:inline" />
    <path
       d="m 159.35484,994.3022 c 10.22427,1.2932 -14.24479,-11.92297 -17.61666,-12.48607 3.12724,4.25967 6.82041,8.11437 10.72759,11.67227 -10.1314,-6.3401 -23.14245,-12.91197 -6.14165,1.4311 -2.03639,1.0797 -15.11898,-8.417 -21.55879,-6.22 l 0.48779,1.2606 c 5.21281,-0.6066 23.3439,9.7592 21.94156,3.9254 -16.16042,-13.57867 -5.90999,-3.8628 4.66402,0.8106 4.57073,-1.3887 -6.57739,-11.87287 -10.01079,-11.53277 2.83935,0.847 24.52163,13.45537 18.00894,9.88387 l -0.50201,1.255 z"
       id="path2720"
       style="fill:#000000;fill-opacity:1;fill-rule:nonzero;stroke:none;display:inline" />
    <g
       transform="matrix(-1,0,0,1,235.4661,499.76075)"
       id="g2722"
       style="display:inline">
      <path
         d="m 61.053417,633.09397 c -27.450373,1.41984 -28.396938,13.72518 -28.396938,13.72518 0,9.93893 53.007618,4.73283 53.007618,4.73283 l 0,-16.0916 -24.61068,-2.36641 z"
         id="path2724"
         style="fill:#ffffff;fill-opacity:1;fill-rule:evenodd;stroke:#000000;stroke-width:1.25;stroke-linecap:butt;stroke-linejoin:miter;stroke-miterlimit:4;stroke-opacity:1" />
      <path
         d="m 47.091589,633.83797 c 9.893039,0.78197 14.224398,7.86493 10.715804,16.84466 l -1.257949,-0.49461 c 3.200515,-8.08553 -0.483228,-14.23165 -9.457855,-14.99836 l 0,-1.35169 z"
         id="path2727"
         style="fill:#000000;fill-opacity:1;fill-rule:nonzero;stroke:none" />
      <path
         d="m 55.137389,632.8914 c 11.544289,10e-4 15.765416,9.1204 11.336914,19.12686 l -1.23562,-0.54802 c 4.057666,-9.12836 0.507066,-17.22984 -10.101294,-17.22714 l 0,-1.3517 z"
         id="path2729"
         style="fill:#000000;fill-opacity:1;fill-rule:nonzero;stroke:none" />
    </g>
    <g
       transform="translate(64.1152,499.76075)"
       id="g2731"
       style="display:inline">
      <path
         d="m 61.053417,633.09397 c -27.450373,1.41984 -28.396938,13.72518 -28.396938,13.72518 0,9.93893 53.007618,4.73283 53.007618,4.73283 l 0,-16.0916 -24.61068,-2.36641 z"
         id="path2733"
         style="fill:#ffffff;fill-opacity:1;fill-rule:evenodd;stroke:#000000;stroke-width:1.25;stroke-linecap:butt;stroke-linejoin:miter;stroke-miterlimit:4;stroke-opacity:1" />
      <path
         d="m 47.091589,633.83797 c 9.893039,0.78197 14.224398,7.86493 10.715804,16.84466 l -1.257949,-0.49461 c 3.200515,-8.08553 -0.483228,-14.23165 -9.457855,-14.99836 l 0,-1.35169 z"
         id="path2735"
         style="fill:#000000;fill-opacity:1;fill-rule:nonzero;stroke:none" />
      <path
         d="m 55.137389,632.8914 c 11.544289,10e-4 15.765416,9.1204 11.336914,19.12686 l -1.23562,-0.54802 c 4.057666,-9.12836 0.507066,-17.22984 -10.101294,-17.22714 l 0,-1.3517 z"
         id="path2737"
         style="fill:#000000;fill-opacity:1;fill-rule:nonzero;stroke:none" />
    </g>
    <g
       transform="translate(64.8728,499.00275)"
       id="g2739"
       style="display:inline">
      <path
         d="m 62.946547,630.72755 -9.465646,26.50381 c 9.938928,4.73283 29.816785,2.8397 29.816785,2.8397 10.412211,5.67939 32.183194,-1.41985 32.183194,-1.41985 l -8.99236,-32.1832 -43.541973,4.25954 z"
         transform="matrix(0.859835,0,0,0.909951,14.03942,35.05921)"
         id="path2741"
         style="fill:#ffffff;fill-opacity:1;fill-rule:evenodd;stroke:#000000;stroke-width:1.41316688;stroke-linecap:butt;stroke-linejoin:miter;stroke-miterlimit:4;stroke-opacity:1" />
      <path
         d="m 79.038145,636.40694 -2.839694,9.93893 16.091599,-1.41985"
         transform="matrix(0.859835,0,0,0.909951,14.03942,35.05921)"
         id="path2743"
         style="fill:none;stroke:#000000;stroke-width:1.41316688;stroke-linecap:butt;stroke-linejoin:miter;stroke-miterlimit:4;stroke-opacity:1" />
      <path
         d="m 85.664097,635.93366 -2.366411,23.66412"
         transform="matrix(0.859835,0,0,0.909951,14.03942,35.05921)"
         id="path2745"
         style="fill:none;stroke:#000000;stroke-width:1.41316688;stroke-linecap:butt;stroke-linejoin:miter;stroke-miterlimit:4;stroke-opacity:1" />
    </g>
    <path
       d="m 134.37923,1089.6638 -3.03789,5.6961 -14.05027,-4.5568 c -2.27842,-14.0503 -6.45553,-6.0758 -6.45553,-6.0758 -12.53131,-2.6582 -20.12605,-7.5948 -20.12605,-7.5948 -3.0379,4.5569 0,6.4556 0,6.4556 1.89868,3.0379 11.77184,4.5568 11.77184,4.5568 -7.97447,-1.1392 0.75948,12.1516 0.75948,12.1516 10.63263,1.1392 12.53131,-2.2784 12.53131,-2.2784 l 18.98685,1.5189 2.65816,-8.3542 -3.0379,-1.519 z"
       id="path2874"
       style="fill:#ffe5b9;fill-opacity:1;fill-rule:evenodd;stroke:#000000;stroke-width:1.25;stroke-linecap:butt;stroke-linejoin:miter;stroke-miterlimit:4;stroke-opacity:1;stroke-dasharray:none;display:inline" />
    <path
       d="m 143.29832,1069.7949 8.41488,5.2236 13.22339,-4.8972 12.42197,17.6298 -11.62055,4.2442 -3.20567,-13.712 10.41842,31.6683 c -12.82268,5.5501 -41.273,0.3265 -41.273,0.3265 l 9.61701,-31.3419 -4.00709,14.365 -11.62055,-4.2442 17.63119,-19.2621 z"
       id="path2758"
       style="fill:#ff9f00;fill-opacity:1;fill-rule:evenodd;stroke:#000000;stroke-width:1.25;stroke-linecap:butt;stroke-linejoin:miter;stroke-miterlimit:4;stroke-opacity:1;display:inline" />
    <g
       transform="matrix(1.580161,0,0,1.580161,16.8585,153.17674)"
       id="g2760"
       style="display:inline">
      <path
         d="m 79.568221,591.68176 c 3.270418,-5.30277 7.03816,8.14058 7.328073,11.12372 l -2.242542,0.21499 c -0.295658,-3.13174 -1.328754,-5.92497 -2.878956,-8.66548 -0.552855,-0.97736 -2.623264,-1.88937 -1.922132,-2.76646 1.775563,-2.22117 1.946714,-1.0902 1.968381,0.0932 l -2.252824,0 z"
         id="path2762"
         style="fill:#0f00ff;fill-opacity:1;fill-rule:nonzero;stroke:none" />
      <path
         d="m 78.527773,594.98355 c 2.008421,-1.83927 12.204236,-10.70096 13.206035,-5.40678 l -2.074777,-0.87779 c 1.010699,1.98701 -0.0315,0.7243 1.200209,1.14462 0.307451,0.10492 -11.818523,5.92023 -10.6008,6.58218 l -1.730667,-1.44223 z"
         id="path2766"
         style="fill:#0f00ff;fill-opacity:1;fill-rule:nonzero;stroke:none" />
      <path
         d="m 80.15824,596.56287 c 3.164958,-1.82212 7.71847,-3.53287 11.404416,-2.23908 l -0.896834,2.06662 c -3.122678,-0.32624 -6.472418,0.18755 -9.198155,2.00566 l -1.309427,-1.8332 z"
         id="path2771"
         style="fill:#0f00ff;fill-opacity:1;fill-rule:nonzero;stroke:none" />
    </g>
  </g>
  <g
     transform="translate(-88.734312,-981.81613)"
     id="layer3" />
  <g
     transform="translate(-88.734312,-981.81613)"
     id="layer4" />
</svg>
