<?xml version="1.0" encoding="UTF-8" standalone="no"?>
<!-- Created with Inkscape (http://www.inkscape.org/) -->

<svg
   xmlns:svg="http://www.w3.org/2000/svg"
   xmlns="http://www.w3.org/2000/svg"
   version="1.0"
   width="107.28792"
   height="173.62682"
   id="svg2">
  <defs
     id="defs4">
    <linearGradient
       x1="79.135063"
       y1="222.45238"
       x2="81.359901"
       y2="288.58099"
       id="linearGradient22173"
       gradientUnits="userSpaceOnUse" />
    <linearGradient
       x1="146.3828"
       y1="70.228607"
       x2="116.75287"
       y2="53.988689"
       id="linearGradient15268"
       gradientUnits="userSpaceOnUse"
       gradientTransform="scale(1.034178,0.966951)" />
    <linearGradient
       x1="162.97719"
       y1="23.931684"
       x2="131.34537"
       y2="10.142395"
       id="linearGradient15267"
       gradientUnits="userSpaceOnUse"
       gradientTransform="scale(1.035723,0.965509)" />
    <linearGradient
       x1="215.19115"
       y1="116.1558"
       x2="148.53513"
       y2="78.029449"
       id="linearGradient15266"
       gradientUnits="userSpaceOnUse"
       gradientTransform="scale(1.026523,0.974162)" />
    <linearGradient
       x1="230.18588"
       y1="64.586258"
       x2="171.49763"
       y2="31.573004"
       id="linearGradient15265"
       gradientUnits="userSpaceOnUse"
       gradientTransform="scale(1.032621,0.96841)" />
    <radialGradient
       cx="24.825565"
       cy="176.56438"
       r="42.859913"
       fx="40.974991"
       fy="162.11137"
       id="radialGradient15264"
       gradientUnits="userSpaceOnUse" />
  </defs>
  <g
     transform="translate(-99.96391,-983.01834)"
     id="layer1" />
  <g
     transform="translate(-99.96391,-983.01834)"
     id="layer2">
    <g
       transform="matrix(-0.4651787,0.8852168,-0.8852168,-0.4651787,1248.0973,1435.6234)"
       id="g4498">
      <g
         transform="matrix(0.6557502,-0.05498409,0.05498409,0.6557502,-932.21721,283.43809)"
         id="g6188">
        <rect
           width="5.9731178"
           height="31.785524"
           rx="4.1980953"
           ry="4.1980953"
           x="2084.4009"
           y="-435.39514"
           transform="matrix(0.6198235,0.7847413,-0.7847413,0.6198235,0,0)"
           id="rect7560"
           style="fill:#cccccc;fill-opacity:1;fill-rule:nonzero;stroke:#000000;stroke-width:1;stroke-linecap:butt;stroke-linejoin:round;stroke-miterlimit:4;stroke-opacity:1;stroke-dasharray:none" />
        <path
           d="m 1618.8049,1383.8827 13.0267,-10.8737 -0.7427,-0.2194 -12.1886,10.0342 -0.095,1.0589 z"
           id="path7576"
           style="fill:#ffffff;fill-opacity:1;fill-rule:nonzero;stroke:none" />
      </g>
      <g
         transform="matrix(0.00456249,-0.6580355,0.6580355,0.00456249,-719.42452,2159.3041)"
         id="g6180">
        <rect
           width="5.9731174"
           height="31.785521"
           rx="4.1980953"
           ry="4.1980953"
           x="-187.26065"
           y="2086.7573"
           transform="matrix(0.584065,-0.8117069,0.8117069,0.584065,0,0)"
           id="rect7556"
           style="fill:#cccccc;fill-opacity:1;fill-rule:nonzero;stroke:#000000;stroke-width:0.99999994;stroke-linecap:butt;stroke-linejoin:round;stroke-miterlimit:4;stroke-opacity:1;stroke-dasharray:none" />
        <path
           d="m 1587.8529,1372.1075 17.6564,12.7047 0.035,-0.9921 -16.3468,-11.932 -1.3451,0.2194 z"
           id="path7574"
           style="fill:#ffffff;fill-opacity:1;fill-rule:nonzero;stroke:none" />
      </g>
      <g
         transform="matrix(0.5648622,0.337583,-0.337583,0.5648622,-241.38586,-223.42352)"
         id="g6184">
        <path
           d="m 231.77896,121.57761 a 7.873302,7.873302 0 1 1 -15.74661,0 7.873302,7.873302 0 1 1 15.74661,0 z"
           transform="matrix(0.4492809,-0.6243902,0.6243902,0.4492809,1435.5154,1471.7425)"
           id="path7562"
           style="fill:#cccccc;fill-opacity:1;fill-rule:nonzero;stroke:#000000;stroke-width:1.29999959;stroke-linecap:butt;stroke-linejoin:round;stroke-miterlimit:4;stroke-opacity:1;stroke-dasharray:none" />
        <path
           d="m 231.77896,121.57761 a 7.873302,7.873302 0 1 1 -15.74661,0 7.873302,7.873302 0 1 1 15.74661,0 z"
           transform="matrix(0.100465,-0.1396217,0.1396217,0.100465,1570.2308,1407.7417)"
           id="path7570"
           style="fill:#ffffff;fill-opacity:1;fill-rule:nonzero;stroke:none" />
      </g>
      <g
         transform="matrix(0.6557502,-0.05498409,0.05498409,0.6557502,-932.21721,283.43809)"
         id="g6171">
        <path
           d="m 1625.4971,1352.8929 0.5416,6.395 7.0293,4.1959 3.4203,-1.82 -6.9328,-3.7101 -0.2013,-5.0501 -3.8571,-0.011 z m 9.2208,-7.2783 4.5526,7.3487 -1.1071,6.9924 2.5946,0.8562 1.1937,-8.4761 -2.7863,-10.2992 -4.4475,3.578 z m 8.3995,17.5787 1.1011,1.9815 6.2365,-4.1637 5.2605,1.4069 0.3081,-4.6837 -6.2947,0.7327 -6.6115,4.7263 z m 0.1646,5.8859 0.1823,1.6473 4.2144,0.5056 2.3307,3.3716 2.5594,-1.9043 -3.725,-3.3343 -5.5618,-0.2859 z"
           id="path7564"
           style="fill:#cccccc;fill-opacity:1;fill-rule:nonzero;stroke:#000000;stroke-width:0.99999994;stroke-linecap:butt;stroke-linejoin:round;stroke-miterlimit:4;stroke-opacity:1;stroke-dasharray:none" />
        <path
           d="m 231.77896,121.57761 a 7.873302,7.873302 0 1 1 -15.74661,0 7.873302,7.873302 0 1 1 15.74661,0 z"
           transform="matrix(0.5580852,-0.7756015,0.7756015,0.5580852,1418.3319,1472.7115)"
           id="path7566"
           style="fill:#cccccc;fill-opacity:1;fill-rule:nonzero;stroke:#000000;stroke-width:1.04655123;stroke-linecap:butt;stroke-linejoin:round;stroke-miterlimit:4;stroke-opacity:1;stroke-dasharray:none" />
        <path
           d="m 231.77896,121.57761 a 7.873302,7.873302 0 1 1 -15.74661,0 7.873302,7.873302 0 1 1 15.74661,0 z"
           transform="matrix(0.2150335,-0.2988437,0.2988437,0.2150335,1556.3475,1410.0025)"
           id="path7572"
           style="fill:#ffffff;fill-opacity:1;fill-rule:nonzero;stroke:none" />
      </g>
    </g>
    <path
       d="m 155.30067,1056.4036 -1.41985,16.0916 -8.99236,4.2596 11.83206,15.145 11.83205,-16.0916 -9.93893,-4.2595 1.41985,-13.2519 -4.73282,-1.8932 z"
       id="path2549"
       style="fill:#ffe5b9;fill-opacity:1;fill-rule:evenodd;stroke:#000000;stroke-width:1.25;stroke-linecap:butt;stroke-linejoin:miter;stroke-miterlimit:4;stroke-opacity:1;stroke-dasharray:none;display:inline" />
    <path
       d="m 61.526698,525.42224 a 6.8625937,6.8625937 0 1 1 -13.725187,0 6.8625937,6.8625937 0 1 1 13.725187,0 z"
       transform="matrix(1.031733,0,0,0.716766,66.718731,651.87841)"
       id="path2554"
       style="fill:#ffe5b9;fill-opacity:1;stroke:#000000;stroke-width:1.25;stroke-miterlimit:4;stroke-opacity:1;display:inline" />
    <path
       d="m 136.3053,524.94897 a 6.6259522,5.4427466 0 1 1 -13.2519,0 6.6259522,5.4427466 0 1 1 13.2519,0 z"
       transform="translate(68.690001,502.34781)"
       id="path2555"
       style="fill:#ffe5b9;fill-opacity:1;stroke:#000000;stroke-width:1.25;stroke-miterlimit:4;stroke-opacity:1;display:inline" />
    <path
       d="m 136.84266,1094.7395 -6.15267,16.5649 c -9.93893,2.3664 -3.78626,11.8321 -3.78626,11.8321 8.51908,3.3129 11.35878,-0.9466 11.35878,-0.9466 l 5.2061,-27.4504 -6.62595,0 z"
       id="path2587"
       style="fill:#ffe5b9;fill-opacity:1;fill-rule:evenodd;stroke:#000000;stroke-width:1.25;stroke-linecap:butt;stroke-linejoin:miter;stroke-miterlimit:4;stroke-opacity:1;stroke-dasharray:none;display:inline" />
    <path
       d="m 150.97705,518.55963 a 51.824413,51.587772 0 1 1 -103.648822,0 51.824413,51.587772 0 1 1 103.648822,0 z"
       transform="matrix(0.669126,0,0,0.694018,94.553992,665.39651)"
       id="path1280"
       style="fill:#ffe5b9;fill-opacity:1;stroke:#000000;stroke-width:1.83430135;stroke-miterlimit:4;stroke-opacity:1;stroke-dasharray:none;display:inline" />
    <path
       d="m 151.05549,995.50446 c -10.22427,1.29323 14.24478,-11.92298 17.61665,-12.48612 -3.12723,4.25973 -6.8204,8.11439 -10.72758,11.67232 10.1314,-6.34016 23.14245,-12.91201 6.14165,1.4311 2.03639,1.0797 15.11898,-8.41698 21.55879,-6.21998 l -0.48779,1.26061 c -5.21281,-0.60661 -23.3439,9.75911 -21.94156,3.92534 16.16042,-13.57866 5.90999,-3.86282 -4.66402,0.81063 -4.57073,-1.38875 6.57739,-11.87293 10.01078,-11.53278 -2.83934,0.84693 -24.52162,13.45539 -18.00893,9.88386 l 0.50201,1.25502 z"
       id="path2566"
       style="fill:#000000;fill-opacity:1;fill-rule:nonzero;stroke:none;display:inline" />
    <g
       transform="matrix(-1,0,0,1,239.28331,503.10541)"
       id="g2683"
       style="fill:#000000;fill-opacity:1;display:inline">
      <path
         d="m 61.053417,633.09397 c -27.450373,1.41984 -28.396938,13.72518 -28.396938,13.72518 0,9.93893 53.007618,4.73283 53.007618,4.73283 l 0,-16.0916 -24.61068,-2.36641 z"
         id="path2684"
         style="fill:#000000;fill-opacity:1;fill-rule:evenodd;stroke:#000000;stroke-width:1.25;stroke-linecap:butt;stroke-linejoin:miter;stroke-miterlimit:4;stroke-opacity:1" />
      <path
         d="m 47.091589,633.83797 c 9.893039,0.78197 14.224398,7.86493 10.715804,16.84466 l -1.257949,-0.49461 c 3.200515,-8.08553 -0.483228,-14.23165 -9.457855,-14.99836 l 0,-1.35169 z"
         id="path2685"
         style="fill:#000000;fill-opacity:1;fill-rule:nonzero;stroke:none" />
      <path
         d="m 55.137389,632.8914 c 11.544289,10e-4 15.765416,9.1204 11.336914,19.12686 l -1.23562,-0.54802 c 4.057666,-9.12836 0.507066,-17.22984 -10.101294,-17.22714 l 0,-1.3517 z"
         id="path2686"
         style="fill:#000000;fill-opacity:1;fill-rule:nonzero;stroke:none" />
    </g>
    <g
       transform="translate(67.932431,503.10541)"
       id="g2679"
       style="fill:#000000;fill-opacity:1;display:inline">
      <path
         d="m 61.053417,633.09397 c -27.450373,1.41984 -28.396938,13.72518 -28.396938,13.72518 0,9.93893 53.007618,4.73283 53.007618,4.73283 l 0,-16.0916 -24.61068,-2.36641 z"
         id="path2574"
         style="fill:#000000;fill-opacity:1;fill-rule:evenodd;stroke:#000000;stroke-width:1.25;stroke-linecap:butt;stroke-linejoin:miter;stroke-miterlimit:4;stroke-opacity:1" />
      <path
         d="m 47.091589,633.83797 c 9.893039,0.78197 14.224398,7.86493 10.715804,16.84466 l -1.257949,-0.49461 c 3.200515,-8.08553 -0.483228,-14.23165 -9.457855,-14.99836 l 0,-1.35169 z"
         id="path2577"
         style="fill:#000000;fill-opacity:1;fill-rule:nonzero;stroke:none" />
      <path
         d="m 55.137389,632.8914 c 11.544289,10e-4 15.765416,9.1204 11.336914,19.12686 l -1.23562,-0.54802 c 4.057666,-9.12836 0.507066,-17.22984 -10.101294,-17.22714 l 0,-1.3517 z"
         id="path2578"
         style="fill:#000000;fill-opacity:1;fill-rule:nonzero;stroke:none" />
    </g>
    <g
       transform="translate(68.690001,502.34781)"
       id="g2592"
       style="fill:#2e3436;display:inline">
      <path
         d="m 62.946547,630.72755 -9.465646,26.50381 c 9.938928,4.73283 29.816785,2.8397 29.816785,2.8397 10.412211,5.67939 32.183194,-1.41985 32.183194,-1.41985 l -8.99236,-32.1832 -43.541973,4.25954 z"
         transform="matrix(0.859835,0,0,0.909951,14.03942,35.05921)"
         id="path2567"
         style="fill:#2e3436;fill-opacity:1;fill-rule:evenodd;stroke:#000000;stroke-width:1.41316688;stroke-linecap:butt;stroke-linejoin:miter;stroke-miterlimit:4;stroke-opacity:1;stroke-dasharray:none" />
      <path
         d="m 79.038145,636.40694 -2.839694,9.93893 16.091599,-1.41985"
         transform="matrix(0.859835,0,0,0.909951,14.03942,35.05921)"
         id="path2568"
         style="fill:#2e3436;stroke:#000000;stroke-width:1.41316688;stroke-linecap:butt;stroke-linejoin:miter;stroke-miterlimit:4;stroke-opacity:1;stroke-dasharray:none" />
      <path
         d="m 85.664097,635.93366 -2.366411,23.66412"
         transform="matrix(0.859835,0,0,0.909951,14.03942,35.05921)"
         id="path2569"
         style="fill:#2e3436;stroke:#000000;stroke-width:1.41316688;stroke-linecap:butt;stroke-linejoin:miter;stroke-miterlimit:4;stroke-opacity:1;stroke-dasharray:none" />
    </g>
    <path
       d="m 148.96753,1071.082 7.59173,-1.7732 8.49025,1.4823 18.80142,40.4723 -5.65268,3.4211 -11.8488,-33.0562 10.41843,31.6683 c -12.82268,5.5501 -41.273,0.3265 -41.273,0.3265 l 9.61701,-31.3418 -9.76917,32.2686 -6.68162,-3.2152 20.30643,-40.2527 z"
       id="path2551"
       style="fill:#ffffff;fill-opacity:1;fill-rule:evenodd;stroke:#000000;stroke-width:1.25;stroke-linecap:butt;stroke-linejoin:miter;stroke-miterlimit:4;stroke-opacity:1;stroke-dasharray:none;display:inline" />
    <path
       d="m 150.97585,1066.4261 5.39973,0.72 -2.51988,10.6194 -8.27957,-5.7597 5.39972,-5.5797 z"
       id="path2864"
       style="fill:#ffffff;fill-opacity:1;stroke:#000000;stroke-width:1;stroke-miterlimit:4;stroke-opacity:1;stroke-dasharray:none" />
    <path
       d="m 162.05517,1066.4261 -5.39972,0.72 2.51987,10.6195 8.27958,-5.7597 -5.39973,-5.5798 z"
       id="path3638"
       style="fill:#ffffff;fill-opacity:1;stroke:#000000;stroke-width:1;stroke-miterlimit:4;stroke-opacity:1;stroke-dasharray:none" />
    <path
       d="m 40.303252,134.26085 -3.74914,19.8392"
       transform="translate(99.96391,983.01834)"
       id="path3735"
       style="fill:#2e3436;fill-opacity:1;stroke:#000000;stroke-width:1;stroke-miterlimit:4;stroke-opacity:1;stroke-dasharray:none" />
    <path
       d="m 68.734228,135.82299 4.530211,19.8392"
       transform="translate(99.96391,983.01834)"
       id="path3737"
       style="fill:#2e3436;fill-opacity:1;stroke:#000000;stroke-width:1;stroke-miterlimit:4;stroke-opacity:1;stroke-dasharray:none" />
    <path
       d="m 55.15136,94.603971 c 0,0 -4.321561,19.755709 -4.321561,21.402019 0,1.64631 4.52735,11.72996 4.52735,11.72996 0,0 5.762082,-9.87786 5.144716,-13.99363 C 59.8845,109.62654 56.591881,92.957662 56.591881,92.957662 l -1.440521,1.646309 z"
       transform="translate(99.96391,983.01834)"
       id="path3741"
       style="fill:#003a64;fill-opacity:1;stroke:#000000;stroke-width:1;stroke-miterlimit:4;stroke-opacity:1;stroke-dasharray:none" />
    <path
       d="m 155.73264,1069.185 -4.73314,3.7042 5.14471,5.7621 6.37945,-5.9679 -6.79102,-3.4984 z"
       id="path3739"
       style="fill:#003a64;fill-opacity:1;stroke:#000000;stroke-width:1;stroke-miterlimit:4;stroke-opacity:1;stroke-dasharray:none" />
    <path
       d="m 49.183489,85.343481 -8.025757,6.17366 -12.758897,32.926189 8.025757,4.52735 8.437335,-29.016204 -10.906798,38.070904 c 0,0 4.938927,1.44052 8.025757,1.64631 3.08683,0.20579 14.405207,0.82315 14.405207,0.82315 L 56.730288,110.46791 50.62401,91.311353 49.183489,85.343481 z"
       transform="translate(99.96391,983.01834)"
       id="path3743"
       style="fill:#2e3436;fill-opacity:1;stroke:#000000;stroke-width:1;stroke-miterlimit:4;stroke-opacity:1;stroke-dasharray:none" />
    <path
       d="m 48.605587,83.996331 -4.905151,5.351073 7.357726,9.141418 -2.675537,7.357728 5.351074,10.47918 4.905151,-3.12146 -10.033263,-29.207939 z"
       transform="translate(99.96391,983.01834)"
       id="path3747"
       style="fill:#3b4245;fill-opacity:1;stroke:#000000;stroke-width:1;stroke-miterlimit:4;stroke-opacity:1;stroke-dasharray:none" />
    <path
       d="m 163.90955,1068.3618 8.02576,6.1737 12.75889,32.9262 -8.02575,4.5273 -8.43734,-29.0162 10.9068,38.0709 c 0,0 -4.93893,1.4405 -8.02576,1.6463 -3.08683,0.2058 -20.16728,0.8232 -20.16728,0.8232 l 1.1632,-22.025 4.25468,-8.0019 6.10628,-19.1566 1.44052,-5.9679 z"
       id="path3745"
       style="fill:#2e3436;fill-opacity:1;stroke:#000000;stroke-width:1;stroke-miterlimit:4;stroke-opacity:1;stroke-dasharray:none" />
    <path
       d="m 163.69761,1067.0147 4.90515,5.351 -7.35772,9.1415 2.67554,7.3577 -12.26288,17.391 2.00665,-10.0333 10.03326,-29.2079 z"
       id="path3749"
       style="fill:#3b4245;fill-opacity:1;stroke:#000000;stroke-width:1;stroke-miterlimit:4;stroke-opacity:1;stroke-dasharray:none" />
  </g>
  <g
     transform="translate(-99.96391,-983.01834)"
     id="layer3" />
  <g
     transform="translate(-99.96391,-983.01834)"
     id="layer4" />
</svg>
