<?xml version="1.0" encoding="UTF-8" standalone="no"?>
<!-- Created with Inkscape (http://www.inkscape.org/) -->

<svg
   xmlns:svg="http://www.w3.org/2000/svg"
   xmlns="http://www.w3.org/2000/svg"
   xmlns:inkscape="http://www.inkscape.org/namespaces/inkscape"
   version="1.1"
   width="52.297241"
   height="135.44186"
   id="svg2">
  <defs
     id="defs4">
    <inkscape:path-effect
       effect="spiro"
       id="path-effect3592" />
  </defs>
  <g
     transform="translate(-234.95757,-339.65177)"
     id="layer1">
    <path
       d="m 340.25482,391.173 a 51.521236,51.521236 0 1 1 -103.04247,0 51.521236,51.521236 0 1 1 103.04247,0 z"
       transform="matrix(0.50627919,0,0,0.50627919,114.99088,167.69315)"
       id="path2816"
       style="fill:#2e3436;fill-opacity:1;stroke:none" />
    <path
       d="m 253.98648,386.63061 c -1.6539,27.47771 -15.32588,78.04539 -11.94413,85.03974 2.40479,3.56093 5.78575,2.2023 7.87197,0.69989 6.05908,-4.3635 -0.13879,-26.08939 3.25813,-33.09595 3.97351,1.19494 5.34046,1.36003 10.39745,-0.39606 5.05699,-1.75608 1.09025,30.83567 3.21228,33.50151 3.68773,4.63279 10.57547,2.82528 9.93488,-1.60065 -3.1297,-29.88029 -11.83607,-57.47443 -9.17155,-86.54124 l -13.55903,2.39276 z"
       id="path3594"
       style="fill:#2e3436;fill-opacity:1;stroke:none" />
    <path
       d="m 254.24137,389.03112 c -3.13492,9.35653 -5.72551,18.99419 -10.06284,27.84562 -2.1402,4.36762 -5.67682,7.93008 -8.69139,11.75637 -1.80177,6.94598 1.23465,6.64248 5.47626,4.53317 3.88779,-6.13356 7.69617,-12.12932 10.25524,-18.76181 2.3468,-6.08234 3.44428,-12.80141 4.46236,-19.38269"
       id="path3600"
       style="fill:#2e3436;fill-opacity:1;stroke:none" />
    <path
       d="m 265.76139,389.03112 c 3.13493,9.35653 5.72552,18.99419 10.06284,27.84562 2.1402,4.36762 5.67682,7.93008 8.6914,11.75637 1.80176,6.94598 -1.23466,6.64248 -5.47626,4.53317 -3.8878,-6.13356 -7.69618,-12.12932 -10.25525,-18.76181 -2.34679,-6.08234 -3.44427,-12.80141 -4.46236,-19.38269"
       id="path3604"
       style="fill:#2e3436;fill-opacity:1;stroke:none" />
  </g>
</svg>
