<?xml version="1.0" encoding="UTF-8" standalone="no"?>
<!-- Created with Inkscape (http://www.inkscape.org/) -->

<svg
   xmlns:svg="http://www.w3.org/2000/svg"
   xmlns="http://www.w3.org/2000/svg"
   xmlns:inkscape="http://www.inkscape.org/namespaces/inkscape"
   version="1.1"
   width="74.844749"
   height="112.67193"
   id="svg2">
  <defs
     id="defs4">
    <inkscape:path-effect
       effect="spiro"
       id="path-effect3592" />
  </defs>
  <g
     transform="translate(-221.56386,-339.65177)"
     id="layer1">
    <path
       d="m 340.25482,391.173 a 51.521236,51.521236 0 1 1 -103.04247,0 51.521236,51.521236 0 1 1 103.04247,0 z"
       transform="matrix(0.50627919,0,0,0.50627919,114.99088,167.69315)"
       id="path2816"
       style="fill:#2e3436;fill-opacity:1;stroke:none" />
    <path
       d="m 253.98648,376.63061 c 5.37811,41.20687 -1.12706,47.15737 -17.74618,51.72382 -6.54885,1.79944 -11.23627,13.77228 -10.29254,19.69186 1.18437,7.429 5.41821,2.74738 6.84192,3.55586 2.50122,-1.29781 6.35927,-10.02957 10.70671,-15.32259 11.21938,-13.65963 21.63837,-9.13977 26.06559,4.2731 5.4051,6.32661 22.50814,2.36592 23.3708,1.35602 3.56197,-4.16998 4.91655,-7.48653 1.50938,-9.9004 -5.03319,-3.26553 -14.58207,7.57919 -16.782,2.04813 -10.60561,-26.6647 -12.2441,-36.62106 -10.11465,-59.81856 l -13.55903,2.39276 z"
       id="path3594"
       style="fill:#2e3436;fill-opacity:1;stroke:none" />
    <path
       d="m 255.47513,389.59676 -15.34931,15.70627 c -3.26243,-1.23491 -9.99491,-18.20498 -13.20756,-18.91892 -3.21265,-0.71391 -5.3544,1.42785 -5.3544,1.42785 4.04835,9.28165 15.4599,25.32795 18.56196,23.20246 l 19.27587,-13.20756"
       id="path2838"
       style="fill:#2e3436;fill-opacity:1;stroke:none" />
    <path
       d="m 260.68223,401.88292 19.65998,-9.78638 c 2.67503,2.2389 3.45364,20.47906 6.25295,22.20959 2.79931,1.7305 5.52617,0.41199 5.52617,0.41199 -0.77158,-10.09667 -6.27285,-29.00284 -9.90128,-28.01544 l -22.54669,6.13559"
       id="path3633"
       style="fill:#2e3436;fill-opacity:1;stroke:none" />
  </g>
</svg>
