<?xml version="1.0" encoding="UTF-8" standalone="no"?>
<!-- Created with Inkscape (http://www.inkscape.org/) -->

<svg
   xmlns:dc="http://purl.org/dc/elements/1.1/"
   xmlns:cc="http://creativecommons.org/ns#"
   xmlns:rdf="http://www.w3.org/1999/02/22-rdf-syntax-ns#"
   xmlns:svg="http://www.w3.org/2000/svg"
   xmlns="http://www.w3.org/2000/svg"
   xmlns:sodipodi="http://sodipodi.sourceforge.net/DTD/sodipodi-0.dtd"
   xmlns:inkscape="http://www.inkscape.org/namespaces/inkscape"
   width="77.83783"
   height="135.44186"
   id="svg2"
   version="1.1"
   inkscape:version="0.47 r22583"
   sodipodi:docname="doodle3.svg">
  <defs
     id="defs4">
    <inkscape:path-effect
       effect="spiro"
       id="path-effect3592"
       is_visible="true" />
    <inkscape:perspective
       sodipodi:type="inkscape:persp3d"
       inkscape:vp_x="0 : 526.18109 : 1"
       inkscape:vp_y="0 : 1000 : 0"
       inkscape:vp_z="744.09448 : 526.18109 : 1"
       inkscape:persp3d-origin="372.04724 : 350.78739 : 1"
       id="perspective10" />
  </defs>
  <sodipodi:namedview
     id="base"
     pagecolor="#ffffff"
     bordercolor="#666666"
     borderopacity="1.0"
     inkscape:pageopacity="0.0"
     inkscape:pageshadow="2"
     inkscape:zoom="1.8929757"
     inkscape:cx="11.811241"
     inkscape:cy="76.756771"
     inkscape:document-units="px"
     inkscape:current-layer="layer1"
     showgrid="false"
     inkscape:window-width="1024"
     inkscape:window-height="575"
     inkscape:window-x="0"
     inkscape:window-y="25"
     inkscape:window-maximized="1" />
  <metadata
     id="metadata7">
    <rdf:RDF>
      <cc:Work
         rdf:about="">
        <dc:format>image/svg+xml</dc:format>
        <dc:type
           rdf:resource="http://purl.org/dc/dcmitype/StillImage" />
        <dc:title></dc:title>
      </cc:Work>
    </rdf:RDF>
  </metadata>
  <g
     inkscape:label="Capa 1"
     inkscape:groupmode="layer"
     id="layer1"
     transform="translate(-221.56386,-339.65177)">
    <path
       sodipodi:type="arc"
       style="fill:#2e3436;fill-opacity:1;stroke:none"
       id="path2816"
       sodipodi:cx="288.73358"
       sodipodi:cy="391.173"
       sodipodi:rx="51.521236"
       sodipodi:ry="51.521236"
       d="m 340.25482,391.173 c 0,28.4544 -23.06685,51.52124 -51.52124,51.52124 -28.45439,0 -51.52123,-23.06684 -51.52123,-51.52124 0,-28.45439 23.06684,-51.52123 51.52123,-51.52123 28.45439,0 51.52124,23.06684 51.52124,51.52123 z"
       transform="matrix(0.50627919,0,0,0.50627919,114.99088,167.69315)" />
    <path
       style="fill:#2e3436;fill-opacity:1;stroke:none"
       d="m 253.98648,386.63061 c -1.6539,27.47771 -15.32588,78.04539 -11.94413,85.03974 2.40479,3.56093 5.78575,2.2023 7.87197,0.69989 6.05908,-4.3635 -0.13879,-26.08939 3.25813,-33.09595 3.97351,1.19494 5.34046,1.36003 10.39745,-0.39606 5.05699,-1.75608 1.09025,30.83567 3.21228,33.50151 3.68773,4.63279 10.57547,2.82528 9.93488,-1.60065 -3.1297,-29.88029 -11.83607,-57.47443 -9.17155,-86.54124 l -13.55903,2.39276 z"
       id="path3594"
       sodipodi:nodetypes="ccsczsccc" />
    <path
       style="fill:#2e3436;fill-opacity:1;stroke:none"
       d="m 255.47513,389.59676 -15.34931,15.70627 c -3.26243,-1.23491 -9.99491,-18.20498 -13.20756,-18.91892 -3.21265,-0.71391 -5.3544,1.42785 -5.3544,1.42785 4.04835,9.28165 15.4599,25.32795 18.56196,23.20246 l 19.27587,-13.20756"
       id="path2838"
       sodipodi:nodetypes="ccscsc" />
    <path
       sodipodi:nodetypes="ccscsc"
       id="path3633"
       d="m 265.49042,389.59676 15.34931,15.70627 c 3.26243,-1.23491 9.99491,-18.20498 13.20756,-18.91892 3.21265,-0.71391 5.3544,1.42785 5.3544,1.42785 -4.04835,9.28165 -15.4599,25.32795 -18.56196,23.20246 l -19.27587,-13.20756"
       style="fill:#2e3436;fill-opacity:1;stroke:none" />
  </g>
</svg>
