<?xml version="1.0" encoding="UTF-8" standalone="no"?>
<!-- Created with Inkscape (http://www.inkscape.org/) -->

<svg
   xmlns:dc="http://purl.org/dc/elements/1.1/"
   xmlns:cc="http://creativecommons.org/ns#"
   xmlns:rdf="http://www.w3.org/1999/02/22-rdf-syntax-ns#"
   xmlns:svg="http://www.w3.org/2000/svg"
   xmlns="http://www.w3.org/2000/svg"
   xmlns:sodipodi="http://sodipodi.sourceforge.net/DTD/sodipodi-0.dtd"
   xmlns:inkscape="http://www.inkscape.org/namespaces/inkscape"
   width="103.29725"
   height="267.52408"
   id="svg2"
   version="1.1"
   inkscape:version="0.47 r22583"
   sodipodi:docname="Documento nuevo 1">
  <defs
     id="defs4">
    <inkscape:path-effect
       effect="spiro"
       id="path-effect3592"
       is_visible="true" />
    <inkscape:perspective
       sodipodi:type="inkscape:persp3d"
       inkscape:vp_x="0 : 526.18109 : 1"
       inkscape:vp_y="0 : 1000 : 0"
       inkscape:vp_z="744.09448 : 526.18109 : 1"
       inkscape:persp3d-origin="372.04724 : 350.78739 : 1"
       id="perspective10" />
  </defs>
  <sodipodi:namedview
     id="base"
     pagecolor="#ffffff"
     bordercolor="#666666"
     borderopacity="1.0"
     inkscape:pageopacity="0.0"
     inkscape:pageshadow="2"
     inkscape:zoom="1.3830531"
     inkscape:cx="51.648624"
     inkscape:cy="133.76204"
     inkscape:document-units="px"
     inkscape:current-layer="layer1"
     showgrid="false"
     inkscape:window-width="1024"
     inkscape:window-height="575"
     inkscape:window-x="0"
     inkscape:window-y="25"
     inkscape:window-maximized="1" />
  <metadata
     id="metadata7">
    <rdf:RDF>
      <cc:Work
         rdf:about="">
        <dc:format>image/svg+xml</dc:format>
        <dc:type
           rdf:resource="http://purl.org/dc/dcmitype/StillImage" />
        <dc:title></dc:title>
      </cc:Work>
    </rdf:RDF>
  </metadata>
  <g
     inkscape:label="Capa 1"
     inkscape:groupmode="layer"
     id="layer1"
     transform="translate(-234.95757,-339.65177)">
    <path
       sodipodi:type="arc"
       style="fill:#2e3436;fill-opacity:1;stroke:none"
       id="path2816"
       sodipodi:cx="288.73358"
       sodipodi:cy="391.173"
       sodipodi:rx="51.521236"
       sodipodi:ry="51.521236"
       d="m 340.25482,391.173 c 0,28.4544 -23.06685,51.52124 -51.52124,51.52124 -28.45439,0 -51.52123,-23.06684 -51.52123,-51.52124 0,-28.45439 23.06684,-51.52123 51.52123,-51.52123 28.45439,0 51.52124,23.06684 51.52124,51.52123 z"
       transform="translate(-2,0)" />
    <path
       style="fill:#2e3436;fill-opacity:1;stroke:none"
       d="m 272.54338,432.44414 c -3.26678,54.27381 -30.2716,154.15483 -23.59199,167.97003 4.74993,7.03354 11.42798,4.34999 15.54868,1.38243 11.96786,-8.61876 -0.27415,-51.53162 6.43544,-65.37095 7.84845,2.36025 10.54844,2.68632 20.53698,-0.78229 9.98854,-3.46861 2.15346,60.90645 6.34488,66.17201 7.28399,9.15066 20.88862,5.58048 19.62332,-3.16161 -6.18176,-59.01938 -23.37853,-113.52319 -18.11559,-170.9358 l -26.78172,4.72618 z"
       id="path3594"
       sodipodi:nodetypes="ccsczsccc" />
    <path
       style="fill:#2e3436;fill-opacity:1;stroke:none"
       d="m 273.04683,437.18561 c -6.19208,18.48097 -11.309,37.51722 -19.87607,55.00051 -4.22731,8.6269 -11.21282,15.66347 -17.16719,23.22112 -3.55884,13.71967 2.43868,13.1202 10.81668,8.9539 7.67915,-12.11497 15.20144,-23.95777 20.2561,-37.05823 4.63538,-12.0138 6.80312,-25.28528 8.81403,-38.28458"
       id="path3600"
       sodipodi:nodetypes="csccsc" />
    <path
       sodipodi:nodetypes="csccsc"
       id="path3604"
       d="m 295.80112,437.18561 c 6.19208,18.48097 11.309,37.51722 19.87607,55.00051 4.22731,8.6269 11.21282,15.66347 17.16719,23.22112 3.55884,13.71967 -2.43868,13.1202 -10.81668,8.9539 -7.67915,-12.11497 -15.20144,-23.95777 -20.2561,-37.05823 -4.63538,-12.0138 -6.80312,-25.28528 -8.81403,-38.28458"
       style="fill:#2e3436;fill-opacity:1;stroke:none" />
  </g>
</svg>
