<?xml version="1.0" encoding="UTF-8" standalone="no"?>
<!-- Created with Inkscape (http://www.inkscape.org/) -->

<svg
   xmlns:svg="http://www.w3.org/2000/svg"
   xmlns="http://www.w3.org/2000/svg"
   version="1.0"
   width="98.272903"
   height="63.249981"
   id="svg2">
  <defs
     id="defs4">
    <linearGradient
       x1="79.135063"
       y1="222.45238"
       x2="81.359901"
       y2="288.58099"
       id="linearGradient22173"
       gradientUnits="userSpaceOnUse" />
    <linearGradient
       x1="146.3828"
       y1="70.228607"
       x2="116.75287"
       y2="53.988689"
       id="linearGradient15268"
       gradientUnits="userSpaceOnUse"
       gradientTransform="scale(1.034178,0.966951)" />
    <linearGradient
       x1="162.97719"
       y1="23.931684"
       x2="131.34537"
       y2="10.142395"
       id="linearGradient15267"
       gradientUnits="userSpaceOnUse"
       gradientTransform="scale(1.035723,0.965509)" />
    <linearGradient
       x1="215.19115"
       y1="116.1558"
       x2="148.53513"
       y2="78.029449"
       id="linearGradient15266"
       gradientUnits="userSpaceOnUse"
       gradientTransform="scale(1.026523,0.974162)" />
    <linearGradient
       x1="230.18588"
       y1="64.586258"
       x2="171.49763"
       y2="31.573004"
       id="linearGradient15265"
       gradientUnits="userSpaceOnUse"
       gradientTransform="scale(1.032621,0.96841)" />
    <radialGradient
       cx="24.825565"
       cy="176.56438"
       r="42.859913"
       fx="40.974991"
       fy="162.11137"
       id="radialGradient15264"
       gradientUnits="userSpaceOnUse" />
  </defs>
  <g
     transform="translate(-1220.2648,-1059.1765)"
     id="layer1" />
  <g
     transform="translate(-1220.2648,-1059.1765)"
     id="layer2">
    <g
       transform="translate(68.690001,502.34781)"
       id="g15186"
       style="display:inline">
      <path
         d="m 1295.3519,320.80047 -1.4198,7.57252 77.6183,-0.47328 -1.4199,-7.09924 -74.7786,0 z"
         transform="translate(-130.3735,291.0807)"
         id="path15099"
         style="fill:#0000ff;fill-opacity:1;fill-rule:evenodd;stroke:#000000;stroke-width:1pt;stroke-linecap:butt;stroke-linejoin:miter;stroke-opacity:1" />
      <g
         id="g15179">
        <path
           d="m 1282.5733,274.41881 12.3054,46.85494 75.7251,-0.47328 8.9924,-54.42746 -97.0229,8.0458 z"
           transform="translate(-130.3735,291.0807)"
           id="path15098"
           style="fill:#0000ff;fill-opacity:1;fill-rule:evenodd;stroke:#000000;stroke-width:1pt;stroke-linecap:butt;stroke-linejoin:miter;stroke-opacity:1" />
        <g
           id="g15174">
          <path
             d="m 234.27474,352.91084 22.71755,-16.0916"
             transform="translate(930.7035,259.9169)"
             id="path15102"
             style="fill:none;stroke:#ffffff;stroke-width:1pt;stroke-linecap:butt;stroke-linejoin:miter;stroke-opacity:1" />
          <path
             d="m 317.32608,297.54654 -22.71755,16.0916"
             transform="translate(930.7035,259.9169)"
             id="path15103"
             style="fill:none;stroke:#ffffff;stroke-width:1pt;stroke-linecap:butt;stroke-linejoin:miter;stroke-opacity:1" />
          <path
             d="m 233.32818,348.6513 27.92365,-20.35114"
             transform="translate(930.7035,259.9169)"
             id="path15104"
             style="fill:none;stroke:#ffffff;stroke-width:1pt;stroke-linecap:butt;stroke-linejoin:miter;stroke-opacity:1" />
          <path
             d="m 318.27264,301.80608 -27.92365,20.35114"
             transform="translate(930.7035,259.9169)"
             id="path15105"
             style="fill:none;stroke:#ffffff;stroke-width:1pt;stroke-linecap:butt;stroke-linejoin:miter;stroke-opacity:1" />
        </g>
      </g>
    </g>
    <g
       transform="matrix(0.640356,-0.02572253,0.1016,0.688882,399.81541,704.97061)"
       id="g15049"
       style="display:inline">
      <path
         d="m 1196.9925,574.76585 c 8.9293,0 22.144,-0.80353 31.0733,-0.80353 -1.1171,10.90626 -3.0795,23.90509 -3.7498,32.9532 -8.9293,0 -15.4479,-0.53569 -24.3772,-0.53569 -1.1171,-9.46103 -1.8292,-21.74003 -2.9463,-31.61398 z"
         id="rect15044"
         style="fill:#ffffff;fill-opacity:1;fill-rule:nonzero;stroke:#000000;stroke-width:0.625;stroke-linecap:round;stroke-linejoin:round;stroke-miterlimit:4;stroke-opacity:1;stroke-dashoffset:0" />
      <path
         d="m 1215.3625,588.89962 c -0.5333,0.12902 2.4872,-0.27404 2.5068,-2.40938 -0.1481,-1.88836 -1.4922,-3.40045 -3.5365,-3.44684 -1.8429,0.2532 -3.2285,1.86753 -3.357,3.81542 0.2054,1.51901 1.738,4.60436 3.2433,4.72501 1.75,0.20244 3.1236,0.36843 4.873,-0.26415 3.1309,-1.22688 3.5096,-8.76403 1.2363,-11.61794 -3.5335,-3.84708 -8.9814,-2.72713 -11.0442,-1.80259 -7.829,4.39479 -6.1223,12.46797 -4.7601,16.27286 3.179,5.32868 5.6878,6.23744 8.2581,7.53135"
         id="path15042"
         style="fill:none;stroke:#a30000;stroke-width:1.31765342;stroke-linecap:butt;stroke-linejoin:miter;stroke-miterlimit:4;stroke-opacity:1" />
      <text
         x="1211.7239"
         y="604.76434"
         transform="matrix(0.389013,0,0,0.389013,740.5682,369.8816)"
         id="text15046"
         xml:space="preserve"
         style="font-size:18px;font-style:normal;font-variant:normal;font-weight:normal;font-stretch:normal;writing-mode:lr-tb;text-anchor:middle;fill:#000000;fill-opacity:1;stroke:none;font-family:Courier"><tspan
           x="1211.7239"
           y="604.76434"
           id="tspan15047">debian</tspan></text>
    </g>
  </g>
  <g
     transform="translate(-1220.2648,-1059.1765)"
     id="layer3" />
  <g
     transform="translate(-1220.2648,-1059.1765)"
     id="layer4" />
</svg>
