<?xml version="1.0" encoding="UTF-8" standalone="no"?>
<!-- Created with Inkscape (http://www.inkscape.org/) -->

<svg
   xmlns:svg="http://www.w3.org/2000/svg"
   xmlns="http://www.w3.org/2000/svg"
   version="1.0"
   width="98.272903"
   height="63.249981"
   id="svg2">
  <defs
     id="defs4">
    <linearGradient
       x1="79.135063"
       y1="222.45238"
       x2="81.359901"
       y2="288.58099"
       id="linearGradient22173"
       gradientUnits="userSpaceOnUse" />
    <linearGradient
       x1="146.3828"
       y1="70.228607"
       x2="116.75287"
       y2="53.988689"
       id="linearGradient15268"
       gradientUnits="userSpaceOnUse"
       gradientTransform="scale(1.034178,0.966951)" />
    <linearGradient
       x1="162.97719"
       y1="23.931684"
       x2="131.34537"
       y2="10.142395"
       id="linearGradient15267"
       gradientUnits="userSpaceOnUse"
       gradientTransform="scale(1.035723,0.965509)" />
    <linearGradient
       x1="215.19115"
       y1="116.1558"
       x2="148.53513"
       y2="78.029449"
       id="linearGradient15266"
       gradientUnits="userSpaceOnUse"
       gradientTransform="scale(1.026523,0.974162)" />
    <linearGradient
       x1="230.18588"
       y1="64.586258"
       x2="171.49763"
       y2="31.573004"
       id="linearGradient15265"
       gradientUnits="userSpaceOnUse"
       gradientTransform="scale(1.032621,0.96841)" />
    <radialGradient
       cx="24.825565"
       cy="176.56438"
       r="42.859913"
       fx="40.974991"
       fy="162.11137"
       id="radialGradient15264"
       gradientUnits="userSpaceOnUse" />
  </defs>
  <g
     transform="translate(-1224.2806,-1147.7592)"
     id="layer1" />
  <g
     transform="translate(-1224.2806,-1147.7592)"
     id="layer2">
    <g
       transform="translate(-41.619769,502.34781)"
       id="g15244"
       style="display:inline">
      <path
         d="m 1282.5733,274.41881 12.3054,46.85494 75.7251,-0.47328 8.9924,-54.42746 -97.0229,8.0458 z"
         transform="translate(-16.04797,379.6634)"
         id="path1969"
         style="fill:#bababa;fill-opacity:1;fill-rule:evenodd;stroke:#000000;stroke-width:1pt;stroke-linecap:butt;stroke-linejoin:miter;stroke-opacity:1" />
      <path
         d="m 1295.3519,320.80047 -1.4198,7.57252 77.6183,-0.47328 -1.4199,-7.09924 -74.7786,0 z"
         transform="translate(-16.04797,379.6634)"
         id="path1970"
         style="fill:#bababa;fill-opacity:1;fill-rule:evenodd;stroke:#000000;stroke-width:1pt;stroke-linecap:butt;stroke-linejoin:miter;stroke-opacity:1" />
      <g
         transform="translate(1045.029,348.4996)"
         id="g13430">
        <path
           d="m 234.27474,352.91084 22.71755,-16.0916"
           id="path2011"
           style="fill:none;stroke:#ffffff;stroke-width:1pt;stroke-linecap:butt;stroke-linejoin:miter;stroke-opacity:1" />
        <path
           d="m 317.32608,297.54654 -22.71755,16.0916"
           id="path2007"
           style="fill:none;stroke:#ffffff;stroke-width:1pt;stroke-linecap:butt;stroke-linejoin:miter;stroke-opacity:1" />
        <path
           d="m 233.32818,348.6513 27.92365,-20.35114"
           id="path13433"
           style="fill:none;stroke:#ffffff;stroke-width:1pt;stroke-linecap:butt;stroke-linejoin:miter;stroke-opacity:1" />
        <path
           d="m 318.27264,301.80608 -27.92365,20.35114"
           id="path2008"
           style="fill:none;stroke:#ffffff;stroke-width:1pt;stroke-linecap:butt;stroke-linejoin:miter;stroke-opacity:1" />
      </g>
      <g
         transform="matrix(0.260793,0,0,0.260793,1295.832,651.8601)"
         id="g2141">
        <g
           transform="matrix(1.212171,0,0,1.212171,-241.3401,-24.25626)"
           id="g3668">
          <path
             d="m 82.055313,175.83524 a 56.143108,56.143108 0 1 1 -112.286217,0 56.143108,56.143108 0 1 1 112.286217,0 z"
             transform="matrix(0.906401,0,0,0.258385,247.4449,86.91068)"
             id="path4291"
             style="fill:url(#radialGradient15264);fill-opacity:0.75;fill-rule:evenodd;stroke-width:1pt" />
          <path
             d="m -1.8698981,28.04971 -9.9374999,17.90625 c 9.1084749,1.531196 15.2292029,5.925665 18.6562499,10.8125 l 10.1875001,-18.5 c 0,0 -5.40115,-8.935716 -18.9062501,-10.21875 z"
             transform="matrix(1.417765,0,0,1.417765,287.6726,30.15833)"
             id="path3996"
             style="fill:#67ca33;fill-opacity:1;fill-rule:evenodd;stroke:none" />
          <path
             d="m -23.28305,17.240626 -9.78125,17.625 c 1.538212,4.167771 7.298857,9.726614 17.8125,10.6875 l 9.9062499,-17.8125 c -13.6167149,-1.203048 -17.9375009,-10.5 -17.9374999,-10.5 z"
             transform="matrix(1.417765,0,0,1.417765,287.6726,30.15833)"
             id="path4006"
             style="fill:#df3d20;fill-opacity:1;fill-rule:evenodd;stroke:none" />
          <path
             d="m -35.257897,38.571244 -10.03125,18.0625 c 0,0 3.447425,8.738229 17.937499,10.468759 l 10.25,-18.437509 c -9.027158,-1.18692 -15.246732,-5.390287 -18.156249,-10.09375 z"
             transform="matrix(1.417765,0,0,1.417765,287.6726,30.15833)"
             id="path4007"
             style="fill:#0166ca;fill-opacity:1;fill-rule:evenodd;stroke:none" />
          <path
             d="m -13.666122,49.295741 -10.21875,18.406262 c 14.0248979,1.97275 18.7500019,10.875 18.7499999,10.875 l 10.125,-18.40625 C 2.3644789,55.469651 -3.7150041,50.639771 -13.666122,49.295741 z"
             transform="matrix(1.417765,0,0,1.417765,287.6726,30.15833)"
             id="path4008"
             style="fill:#fefe01;fill-opacity:1;fill-rule:evenodd;stroke:none" />
        </g>
        <g
           transform="translate(-63.63668,49.9001)"
           id="g2136">
          <path
             d="m 169.0001,13.137226 -18.97728,27.463332 c 15.80258,2.756768 26.42161,10.668565 32.36729,19.466814 L 200.0647,26.759984 c 0,0 -7.6342,-11.312773 -31.0646,-13.622758 z"
             id="path4010"
             style="fill:url(#linearGradient15265);fill-rule:evenodd;stroke-width:1pt" />
          <path
             d="m 147.47601,49.271654 -19.03113,29.231729 c 24.33222,3.551728 33.16507,18.309078 33.16507,18.309078 L 178.54097,64.944098 C 173.98566,56.480235 164.7405,51.691425 147.47601,49.271654 z"
             id="path4013"
             style="fill:url(#linearGradient15266);fill-rule:evenodd;stroke-width:1pt" />
          <path
             d="M 132.12779,-4.5721924 113.14362,20.321312 c 2.66868,7.503653 12.29688,18.06097 30.53733,19.790938 L 161.07762,8.7422492 C 137.45356,6.5762762 131.81561,-2.5429307 132.12779,-4.5721924 z"
             id="path4011"
             style="fill:url(#linearGradient15267);fill-rule:evenodd;stroke-width:1pt" />
          <path
             d="M 109.92806,31.861634 92.090451,58.738048 c 0,0 5.981049,15.73231 31.120309,18.847939 L 140.99378,44.391115 C 125.3323,42.254191 114.97588,40.329739 109.92806,31.861634 z"
             id="path4012"
             style="fill:url(#linearGradient15268);fill-rule:evenodd;stroke-width:1pt" />
        </g>
      </g>
    </g>
  </g>
  <g
     transform="translate(-1224.2806,-1147.7592)"
     id="layer3" />
  <g
     transform="translate(-1224.2806,-1147.7592)"
     id="layer4" />
</svg>
