<?xml version="1.0" encoding="UTF-8" standalone="no"?>
<!-- Created with Inkscape (http://www.inkscape.org/) -->

<svg
   xmlns:dc="http://purl.org/dc/elements/1.1/"
   xmlns:cc="http://creativecommons.org/ns#"
   xmlns:rdf="http://www.w3.org/1999/02/22-rdf-syntax-ns#"
   xmlns:svg="http://www.w3.org/2000/svg"
   xmlns="http://www.w3.org/2000/svg"
   xmlns:sodipodi="http://sodipodi.sourceforge.net/DTD/sodipodi-0.dtd"
   xmlns:inkscape="http://www.inkscape.org/namespaces/inkscape"
   width="39.943302"
   height="18.13917"
   id="svg2"
   version="1.1"
   inkscape:version="0.47 r22583"
   sodipodi:docname="eyes2.svg">
  <defs
     id="defs4">
    <inkscape:path-effect
       effect="spiro"
       id="path-effect3592"
       is_visible="true" />
    <inkscape:perspective
       sodipodi:type="inkscape:persp3d"
       inkscape:vp_x="0 : 526.18109 : 1"
       inkscape:vp_y="0 : 1000 : 0"
       inkscape:vp_z="744.09448 : 526.18109 : 1"
       inkscape:persp3d-origin="372.04724 : 350.78739 : 1"
       id="perspective10" />
  </defs>
  <sodipodi:namedview
     id="base"
     pagecolor="#ffffff"
     bordercolor="#666666"
     borderopacity="1.0"
     inkscape:pageopacity="0.0"
     inkscape:pageshadow="2"
     inkscape:zoom="20.397846"
     inkscape:cx="19.971648"
     inkscape:cy="9.0695866"
     inkscape:document-units="px"
     inkscape:current-layer="layer1"
     showgrid="false"
     inkscape:window-width="1024"
     inkscape:window-height="575"
     inkscape:window-x="0"
     inkscape:window-y="25"
     inkscape:window-maximized="1" />
  <metadata
     id="metadata7">
    <rdf:RDF>
      <cc:Work
         rdf:about="">
        <dc:format>image/svg+xml</dc:format>
        <dc:type
           rdf:resource="http://purl.org/dc/dcmitype/StillImage" />
        <dc:title />
      </cc:Work>
    </rdf:RDF>
  </metadata>
  <g
     inkscape:label="Capa 1"
     inkscape:groupmode="layer"
     id="layer1"
     transform="translate(-241.49341,-355.82217)">
    <path
       sodipodi:type="arc"
       style="fill:#ffffff;fill-opacity:1;stroke:#000000;stroke-opacity:1"
       id="path3677"
       sodipodi:cx="110.87843"
       sodipodi:cy="25.315153"
       sodipodi:rx="8.4944153"
       sodipodi:ry="8.4944153"
       d="m 119.37285,25.315153 c 0,4.691336 -3.80308,8.494415 -8.49442,8.494415 -4.69133,0 -8.49441,-3.803079 -8.49441,-8.494415 0,-4.691336 3.80308,-8.494415 8.49441,-8.494415 4.69134,0 8.49442,3.803079 8.49442,8.494415 z"
       transform="translate(139.60939,339.50143)" />
    <path
       transform="translate(161.56386,339.65177)"
       d="m 119.37285,25.315153 c 0,4.691336 -3.80308,8.494415 -8.49442,8.494415 -4.69133,0 -8.49441,-3.803079 -8.49441,-8.494415 0,-4.691336 3.80308,-8.494415 8.49441,-8.494415 4.69134,0 8.49442,3.803079 8.49442,8.494415 z"
       sodipodi:ry="8.4944153"
       sodipodi:rx="8.4944153"
       sodipodi:cy="25.315153"
       sodipodi:cx="110.87843"
       id="path3679"
       style="fill:#ffffff;fill-opacity:1;stroke:#000000;stroke-opacity:1"
       sodipodi:type="arc" />
    <path
       style="fill:#000000;fill-opacity:1;stroke:#000000;stroke-width:1;stroke-opacity:1"
       d="m 246.43886,362.12052 c -1.56517,0 -2.84375,1.27858 -2.84375,2.84375 0,1.56517 1.27858,2.84375 2.84375,2.84375 1.56517,0 2.84375,-1.27858 2.84375,-2.84375 0,-0.26543 -0.0568,-0.50636 -0.125,-0.75 l -2.78125,0.75 1.125,-2.59375 c -0.33189,-0.13638 -0.68144,-0.25 -1.0625,-0.25 z"
       id="path3683" />
    <path
       id="path3688"
       d="m 268.43886,362.12052 c -1.56517,0 -2.84375,1.27858 -2.84375,2.84375 0,1.56517 1.27858,2.84375 2.84375,2.84375 1.56517,0 2.84375,-1.27858 2.84375,-2.84375 0,-0.26543 -0.0568,-0.50636 -0.125,-0.75 l -2.78125,0.75 1.125,-2.59375 c -0.33189,-0.13638 -0.68144,-0.25 -1.0625,-0.25 z"
       style="fill:#000000;fill-opacity:1;stroke:#000000;stroke-width:1;stroke-opacity:1" />
  </g>
</svg>
