<?xml version="1.0" encoding="UTF-8" standalone="no"?>
<!-- Created with Inkscape (http://www.inkscape.org/) -->

<svg
   xmlns:svg="http://www.w3.org/2000/svg"
   xmlns="http://www.w3.org/2000/svg"
   xmlns:inkscape="http://www.inkscape.org/namespaces/inkscape"
   version="1.1"
   width="39.943302"
   height="18.13917"
   id="svg2">
  <defs
     id="defs4">
    <inkscape:path-effect
       effect="spiro"
       id="path-effect3592" />
  </defs>
  <g
     transform="translate(-241.49341,-355.82217)"
     id="layer1">
    <path
       d="m 119.37285,25.315153 a 8.4944153,8.4944153 0 1 1 -16.98883,0 8.4944153,8.4944153 0 1 1 16.98883,0 z"
       transform="translate(139.60939,339.50143)"
       id="path3677"
       style="fill:#ffffff;fill-opacity:1;stroke:#000000;stroke-opacity:1" />
    <path
       d="m 119.37285,25.315153 a 8.4944153,8.4944153 0 1 1 -16.98883,0 8.4944153,8.4944153 0 1 1 16.98883,0 z"
       transform="translate(161.56386,339.65177)"
       id="path3679"
       style="fill:#ffffff;fill-opacity:1;stroke:#000000;stroke-opacity:1" />
    <path
       d="m 250.43886,362.12052 c -1.56517,0 -2.84375,1.27858 -2.84375,2.84375 0,1.56517 1.27858,2.84375 2.84375,2.84375 1.56517,0 2.84375,-1.27858 2.84375,-2.84375 0,-0.26543 -0.0568,-0.50636 -0.125,-0.75 l -2.78125,0.75 1.125,-2.59375 c -0.33189,-0.13638 -0.68144,-0.25 -1.0625,-0.25 z"
       id="path3683"
       style="fill:#000000;fill-opacity:1;stroke:#000000;stroke-width:1;stroke-opacity:1" />
    <path
       d="m 272.43886,362.12052 c -1.56517,0 -2.84375,1.27858 -2.84375,2.84375 0,1.56517 1.27858,2.84375 2.84375,2.84375 1.56517,0 2.84375,-1.27858 2.84375,-2.84375 0,-0.26543 -0.0568,-0.50636 -0.125,-0.75 l -2.78125,0.75 1.125,-2.59375 c -0.33189,-0.13638 -0.68144,-0.25 -1.0625,-0.25 z"
       id="path3688"
       style="fill:#000000;fill-opacity:1;stroke:#000000;stroke-width:1;stroke-opacity:1" />
    <path
       d="m 9,0.5 c -4.5236282,0 -8.21015406,3.5412008 -8.46875,8 l 16.9375,0 C 17.210544,4.0408296 13.523895,0.5 9,0.5 z"
       transform="translate(241.49341,355.82217)"
       id="path3774"
       style="fill:#2e3436;fill-opacity:1;stroke:#000000;stroke-opacity:1" />
    <path
       d="m 272.49341,356.32217 c -4.52363,0 -8.21015,3.5412 -8.46875,8 l 16.9375,0 c -0.25821,-4.45917 -3.94485,-8 -8.46875,-8 z"
       id="path3779"
       style="fill:#2e3436;fill-opacity:1;stroke:#000000;stroke-opacity:1" />
  </g>
</svg>
