<?xml version="1.0" encoding="UTF-8" standalone="no"?>
<!-- Created with Inkscape (http://www.inkscape.org/) -->

<svg
   xmlns:svg="http://www.w3.org/2000/svg"
   xmlns="http://www.w3.org/2000/svg"
   xmlns:inkscape="http://www.inkscape.org/namespaces/inkscape"
   version="1.1"
   width="39.943302"
   height="18.13917"
   id="svg2">
  <defs
     id="defs4">
    <inkscape:path-effect
       effect="spiro"
       id="path-effect3592" />
  </defs>
  <g
     transform="translate(-241.49341,-355.82217)"
     id="layer1">
    <path
       d="m 119.37285,25.315153 a 8.4944153,8.4944153 0 1 1 -16.98883,0 8.4944153,8.4944153 0 1 1 16.98883,0 z"
       transform="translate(139.60939,339.50143)"
       id="path3677"
       style="fill:#ffffff;fill-opacity:1;stroke:#000000;stroke-opacity:1" />
    <path
       d="m 119.37285,25.315153 a 8.4944153,8.4944153 0 1 1 -16.98883,0 8.4944153,8.4944153 0 1 1 16.98883,0 z"
       transform="translate(161.56386,339.65177)"
       id="path3679"
       style="fill:#ffffff;fill-opacity:1;stroke:#000000;stroke-opacity:1" />
    <path
       d="m 246.43886,362.12052 c -1.56517,0 -2.84375,1.27858 -2.84375,2.84375 0,1.56517 1.27858,2.84375 2.84375,2.84375 1.56517,0 2.84375,-1.27858 2.84375,-2.84375 0,-0.26543 -0.0568,-0.50636 -0.125,-0.75 l -2.78125,0.75 1.125,-2.59375 c -0.33189,-0.13638 -0.68144,-0.25 -1.0625,-0.25 z"
       id="path3683"
       style="fill:#000000;fill-opacity:1;stroke:#000000;stroke-width:1;stroke-opacity:1" />
    <path
       d="m 268.43886,362.12052 c -1.56517,0 -2.84375,1.27858 -2.84375,2.84375 0,1.56517 1.27858,2.84375 2.84375,2.84375 1.56517,0 2.84375,-1.27858 2.84375,-2.84375 0,-0.26543 -0.0568,-0.50636 -0.125,-0.75 l -2.78125,0.75 1.125,-2.59375 c -0.33189,-0.13638 -0.68144,-0.25 -1.0625,-0.25 z"
       id="path3688"
       style="fill:#000000;fill-opacity:1;stroke:#000000;stroke-width:1;stroke-opacity:1" />
    <path
       d="m 253.21622,356.77007 c -4.28526,-1.44906 -8.91189,0.72464 -10.58514,4.86565 l 16.04499,5.42559 c 1.18381,-4.30691 -1.17434,-8.8421 -5.45985,-10.29124 z"
       id="path3774"
       style="fill:#2e3436;fill-opacity:1;stroke:#000000;stroke-opacity:1" />
    <path
       d="m 270.18523,356.64157 c -4.35365,1.22839 -6.94003,5.63761 -5.97812,9.99909 l 16.30105,-4.5994 c -1.4594,-4.22149 -5.96902,-6.62816 -10.32293,-5.39969 z"
       id="path3779"
       style="fill:#2e3436;fill-opacity:1;stroke:#000000;stroke-opacity:1" />
  </g>
</svg>
