<?xml version="1.0" encoding="UTF-8" standalone="no"?>
<!-- Created with Inkscape (http://www.inkscape.org/) -->

<svg
   xmlns:dc="http://purl.org/dc/elements/1.1/"
   xmlns:cc="http://creativecommons.org/ns#"
   xmlns:rdf="http://www.w3.org/1999/02/22-rdf-syntax-ns#"
   xmlns:svg="http://www.w3.org/2000/svg"
   xmlns="http://www.w3.org/2000/svg"
   xmlns:xlink="http://www.w3.org/1999/xlink"
   xmlns:sodipodi="http://sodipodi.sourceforge.net/DTD/sodipodi-0.dtd"
   xmlns:inkscape="http://www.inkscape.org/namespaces/inkscape"
   width="151.35294"
   height="300"
   id="svg2"
   sodipodi:version="0.32"
   inkscape:version="0.47 r22583"
   version="1.0"
   sodipodi:docname="dgm02.svg"
   inkscape:output_extension="org.inkscape.output.svg.inkscape"
   inkscape:export-filename="/home/danigm/Documents/dgm10-800.png"
   inkscape:export-xdpi="180"
   inkscape:export-ydpi="180">
  <defs
     id="defs4">
    <linearGradient
       inkscape:collect="always"
       id="linearGradient3573">
      <stop
         style="stop-color:#73d216;stop-opacity:1;"
         offset="0"
         id="stop3575" />
      <stop
         style="stop-color:#4e9a06;stop-opacity:1"
         offset="1"
         id="stop3577" />
    </linearGradient>
    <inkscape:perspective
       sodipodi:type="inkscape:persp3d"
       inkscape:vp_x="0 : 526.18109 : 1"
       inkscape:vp_y="0 : 1000 : 0"
       inkscape:vp_z="744.09448 : 526.18109 : 1"
       inkscape:persp3d-origin="372.04724 : 350.78739 : 1"
       id="perspective10" />
    <linearGradient
       inkscape:collect="always"
       xlink:href="#linearGradient3573"
       id="linearGradient3579"
       x1="-40.975609"
       y1="-7.8048778"
       x2="-27.317072"
       y2="409.75607"
       gradientUnits="userSpaceOnUse" />
  </defs>
  <sodipodi:namedview
     id="base"
     pagecolor="#ffffff"
     bordercolor="#666666"
     borderopacity="1.0"
     inkscape:pageopacity="0.0"
     inkscape:pageshadow="2"
     inkscape:zoom="1.2166667"
     inkscape:cx="75.676468"
     inkscape:cy="150"
     inkscape:document-units="px"
     inkscape:current-layer="g3232"
     showgrid="false"
     borderlayer="true"
     inkscape:window-width="1024"
     inkscape:window-height="575"
     inkscape:window-x="0"
     inkscape:window-y="25"
     inkscape:window-maximized="1" />
  <metadata
     id="metadata7">
    <rdf:RDF>
      <cc:Work
         rdf:about="">
        <dc:format>image/svg+xml</dc:format>
        <dc:type
           rdf:resource="http://purl.org/dc/dcmitype/StillImage" />
        <dc:title />
      </cc:Work>
    </rdf:RDF>
  </metadata>
  <g
     inkscape:label="Capa 1"
     inkscape:groupmode="layer"
     id="layer1"
     transform="translate(105.07928,-648.64135)">
    <g
       id="g3232"
       transform="matrix(1.0259238,0,0,1.0259238,-57.329259,5.6699817)">
      <path
         style="fill:#eec88c;fill-opacity:1;stroke:#000000;stroke-width:0.26684034;stroke-opacity:1"
         d="m 24.041711,768.02565 -0.621834,15.54542 -27.9817136,-9.9491 c 0,0 7.4617917,-13.0581 2.4872644,-16.78903 -4.9745314,-3.73088 -7.4617942,12.43632 -7.4617942,12.43632 0,0 -10.5708776,-4.9745 -11.8145076,-8.0836 -1.243632,-3.10905 -3.285345,-10.40848 -7.265081,-10.52919 -4.784239,-0.14514 -7.985276,2.90637 -5.264599,7.18171 l 11.286048,10.18747 -1.865449,1.86544 -17.410852,-8.0836 c -4.18131,3.52363 -7.097628,7.04725 -1.243634,10.57087 l 16.789038,3.10909 0.186711,4.64278 -12.498003,3.44084 c 0.24617,5.36212 -2.220401,6.97262 6.083126,6.75662 l 9.959063,-4.26935 c 0,0 8.558001,1.5489 12.436324,-0.0417 1.9177032,-0.78654 3.7308938,-3.06743 3.7308938,-3.06743 l 36.0653222,9.32727 2.487275,-23.62902 -8.083598,-0.62183 z"
         id="path3901"
         sodipodi:nodetypes="cccscssccccccccccscccc" />
      <path
         id="path3717"
         d="m 84.912465,764.98374 2.855109,41.39894 c 0,0 8.565287,9.27907 7.851514,14.98926 -0.713773,5.7102 -23.554566,9.99285 -23.554566,9.99285 l 0,-69.94992 12.847943,3.56887 z"
         style="fill:#eec88c;fill-opacity:1;stroke:#000000;stroke-width:0.29565528;stroke-miterlimit:4;stroke-opacity:1;stroke-dasharray:none" />
      <g
         id="g3738"
         transform="matrix(0.33665915,0,0,0.37296869,-36.016495,595.14328)">
        <g
           transform="matrix(-1,0,0,1,544.21451,5.8483875)"
           id="g3684">
          <path
             transform="matrix(0.97473126,0,0,0.97473126,55.880621,-5.5267084)"
             id="path3686"
             d="m 142.54081,824.55404 c 0,0 -37.60712,13.32716 -47.469306,21.6114 -9.862189,8.28424 -11.045652,30.37554 -11.045652,30.37554 0,0 1.183463,12.6236 14.201552,13.80707 13.018086,1.18346 44.182606,-12.22912 48.521976,-14.99053 4.33936,-2.76141 49.70543,-30.37554 49.70543,-30.37554 l 1.18346,-22.48579 -55.09746,2.05785 z"
             style="fill:#ffffff;fill-opacity:1;stroke:#000000;stroke-width:1;stroke-miterlimit:4;stroke-opacity:1;stroke-dasharray:none" />
          <path
             id="path3688"
             transform="matrix(0.97473126,0,0,0.97473126,55.880621,-5.5267084)"
             d="m 150.34375,824.28125 -7.8125,0.28125 c 0,0 -20.43022,7.21507 -35.125,14.34375 -6.02584,10.69715 -2.67454,16.78384 1.0625,17.53125 3.94488,0.78897 15.78598,2.76106 23.28125,-3.15625 7.49526,-5.91732 30,-19.34375 30,-19.34375 l -11.40625,-9.65625 z"
             style="fill:#000000;fill-opacity:1;stroke:#000000;stroke-width:1;stroke-miterlimit:4;stroke-opacity:1;stroke-dasharray:none" />
          <path
             id="path3690"
             transform="matrix(0.97473126,0,0,0.97473126,55.880621,-5.5267084)"
             d="m 196.65625,841.0625 -3.75,2.34375 c 0,0 -62.71945,35.09779 -69.03125,36.28125 -6.3118,1.18347 -23.28125,3.96875 -23.28125,3.96875 0,0 -5.321255,-12.41846 -15.96875,-12.6875 -0.481442,3.31835 -0.59375,5.5625 -0.59375,5.5625 0,0 1.169411,12.62903 14.1875,13.8125 13.01809,1.18346 44.19188,-12.23859 48.53125,-15 4.33936,-2.76141 49.71875,-30.375 49.71875,-30.375 l 0.1875,-3.90625 z"
             style="fill:#000000;fill-opacity:1;stroke:#000000;stroke-width:1;stroke-miterlimit:4;stroke-opacity:1;stroke-dasharray:none" />
          <path
             id="path3692"
             d="m 187.56047,823.78478 20.14301,15.10726 7.19393,-3.23727 -24.45937,-18.34452 -1.07908,6.47453 -1.79849,0 z"
             style="fill:#000000;fill-opacity:1;stroke:#000000;stroke-width:0.91180694;stroke-miterlimit:4;stroke-opacity:1;stroke-dasharray:none" />
          <path
             style="fill:#000000;fill-opacity:1;stroke:#000000;stroke-width:0.91180694;stroke-miterlimit:4;stroke-opacity:1;stroke-dasharray:none"
             d="m 195.63538,815.70985 20.14301,15.10728 7.19393,-3.23727 -24.45937,-18.34452 -1.07907,6.47451 -1.7985,0 z"
             id="path3694" />
        </g>
        <g
           id="g3677">
          <path
             style="fill:#ffffff;fill-opacity:1;stroke:#000000;stroke-width:1;stroke-miterlimit:4;stroke-opacity:1;stroke-dasharray:none"
             d="m 142.54081,824.55404 c 0,0 -37.60712,13.32716 -47.469306,21.6114 -9.862189,8.28424 -11.045652,30.37554 -11.045652,30.37554 0,0 1.183463,12.6236 14.201552,13.80707 13.018086,1.18346 44.182606,-12.22912 48.521976,-14.99053 4.33936,-2.76141 49.70543,-30.37554 49.70543,-30.37554 l 1.18346,-22.48579 -55.09746,2.05785 z"
             id="path3661"
             transform="matrix(0.97473126,0,0,0.97473126,55.880621,-5.5267084)" />
          <path
             style="fill:#000000;fill-opacity:1;stroke:#000000;stroke-width:1;stroke-miterlimit:4;stroke-opacity:1;stroke-dasharray:none"
             d="m 150.34375,824.28125 -7.8125,0.28125 c 0,0 -20.43022,7.21507 -35.125,14.34375 -6.02584,10.69715 -2.67454,16.78384 1.0625,17.53125 3.94488,0.78897 15.78598,2.76106 23.28125,-3.15625 7.49526,-5.91732 30,-19.34375 30,-19.34375 l -11.40625,-9.65625 z"
             transform="matrix(0.97473126,0,0,0.97473126,55.880621,-5.5267084)"
             id="path3668" />
          <path
             style="fill:#000000;fill-opacity:1;stroke:#000000;stroke-width:1;stroke-miterlimit:4;stroke-opacity:1;stroke-dasharray:none"
             d="m 196.65625,841.0625 -3.75,2.34375 c 0,0 -62.71945,35.09779 -69.03125,36.28125 -6.3118,1.18347 -23.28125,3.96875 -23.28125,3.96875 0,0 -5.321255,-12.41846 -15.96875,-12.6875 -0.481442,3.31835 -0.59375,5.5625 -0.59375,5.5625 0,0 1.169411,12.62903 14.1875,13.8125 13.01809,1.18346 44.19188,-12.23859 48.53125,-15 4.33936,-2.76141 49.71875,-30.375 49.71875,-30.375 l 0.1875,-3.90625 z"
             transform="matrix(0.97473126,0,0,0.97473126,55.880621,-5.5267084)"
             id="path3663" />
          <path
             style="fill:#000000;fill-opacity:1;stroke:#000000;stroke-width:0.91180694;stroke-miterlimit:4;stroke-opacity:1;stroke-dasharray:none"
             d="m 187.56047,823.78478 20.14301,15.10726 7.19393,-3.23727 -24.45937,-18.34452 -1.07908,6.47453 -1.79849,0 z"
             id="path3673" />
          <path
             id="path3675"
             d="m 195.63538,815.70985 20.14301,15.10728 7.19393,-3.23727 -24.45937,-18.34452 -1.07907,6.47451 -1.7985,0 z"
             style="fill:#000000;fill-opacity:1;stroke:#000000;stroke-width:0.91180694;stroke-miterlimit:4;stroke-opacity:1;stroke-dasharray:none" />
        </g>
        <path
           sodipodi:nodetypes="ccccccccc"
           id="path2887"
           d="m 196.366,529.5265 -2.57785,269.09974 c 15.72399,23.1161 44.56834,13.80293 54.10555,6.16509 l 2.10339,-162.48271 c 29.32041,10.15348 29.52923,4.93734 49.5768,4.30988 l -4.45522,162.72547 c 18.61014,7.67268 46.54059,3.72615 55.59677,-4.48409 L 343.46842,533.34962 196.366,529.5265 z"
           style="fill:#707070;fill-opacity:1;stroke:#000000;stroke-width:1.11606526;stroke-opacity:1" />
        <path
           transform="matrix(0.97473126,0,0,0.97473126,55.880621,-5.5267084)"
           id="path3698"
           d="m 205.21875,600.84375 c -4.89905,31.02737 1.77856,56.54203 5.46875,67.4375 7.71285,2.13656 12.81642,2.77772 17.25,2.71875 -1.37771,-2.05104 -3.41206,-6.19354 -6.34375,-14.5 -6.54919,-18.55602 6.53125,-55.65625 6.53125,-55.65625 l -22.90625,0 z"
           style="fill:#707070;fill-opacity:1;stroke:#000000;stroke-width:1;stroke-miterlimit:4;stroke-opacity:1;stroke-dasharray:none" />
        <path
           transform="matrix(0.97473126,0,0,0.97473126,55.880621,-5.5267084)"
           id="path3708"
           d="m 296.34375,601.75 -10.375,5.65625 L 294.5,836 c 3.31521,-1.29985 6.0502,-2.85442 7.96875,-4.59375 L 296.34375,601.75 z"
           style="fill:#000000;fill-opacity:0.30327866;stroke:none" />
        <path
           transform="matrix(0.97473126,0,0,0.97473126,55.880621,-5.5267084)"
           id="path3703"
           d="m 188.84375,653.25 -2.125,183.625 c 4.28879,-1.61198 7.88282,-3.64173 10.28125,-5.5625 L 199.125,666.46875 188.84375,653.25 z"
           style="fill:#000000;fill-opacity:0.30327866;stroke:none" />
      </g>
      <path
         style="fill:#000000;fill-opacity:1;stroke:#000000;stroke-width:0.30864581;stroke-opacity:1"
         d="m 25.405685,812.6396 c 3.951686,1.05378 4.610299,1.44894 4.610299,1.44894 l -0.131725,-3.16134 -4.478574,1.7124 z"
         id="path3713" />
      <path
         sodipodi:nodetypes="cccscccccccccccccc"
         id="path3155"
         d="m 13.197049,642.4683 c -2.287208,2.37795 -4.2777184,3.34663 -7.2739344,9.09241 -2.2773765,27.46763 2.3159979,52.84744 4.9373134,60.062 3.334332,4.15902 12.634019,12.64176 16.854475,13.68582 10.970343,2.71383 21.851787,-2.46331 21.851787,-2.46331 l -0.18458,7.22543 c -0.266091,0.80082 -0.38414,1.55934 -2.231887,2.81206 l -19.892919,5.75745 10.20822,8.28169 38.836775,-4.09317 8.782745,-6.007 -16.817326,-4.93238 c -1.4493,-0.75148 -2.712608,-1.68895 -3.23468,-3.36768 l -0.918486,-8.94967 c 6.106539,-11.64337 5.327692,-17.36736 5.803055,-23.606 L 66.051442,658.61473 52.214062,647.9322 c -11.153691,-8.61186 -25.242868,-6.46036 -39.017013,-5.4639 z"
         style="fill:#eec88c;fill-opacity:1;stroke:#000000;stroke-width:0.30174336;stroke-miterlimit:4;stroke-opacity:1;stroke-dasharray:none" />
      <path
         style="fill:#ffffff;fill-opacity:0.2819549;stroke:none"
         d="m 12.463815,643.18949 c -1.996666,1.9141 -3.8713275,3.24794 -6.5440632,8.37338 -2.2773765,27.46763 2.3197344,52.8418 4.9410502,60.05636 3.334338,4.15902 12.630026,12.64756 16.850482,13.69161 0.314503,0.0778 0.628839,0.14231 0.942946,0.20744 -5.063627,-4.0206 -17.293455,-13.8893 -17.972591,-18.46292 -0.581649,-3.91713 -3.9778057,-34.68473 -4.2621231,-37.81221 -0.2843174,-3.12749 0.5280502,-16.9825 0.5280502,-16.9825 0,0 1.0036256,-3.11298 2.6119679,-5.22393 1.608339,-2.11094 4.224411,-3.11173 4.224411,-3.11173 l -1.32013,-0.7355 z"
         id="path3334"
         sodipodi:nodetypes="cccscsscscc" />
      <path
         style="fill:#ffffff;fill-opacity:1;stroke:#000000;stroke-width:0.3017433;stroke-miterlimit:4;stroke-opacity:1;stroke-dasharray:none"
         d="m 15.163735,684.92142 c 0,-2.4289 0.385635,-22.49934 -4.434716,-22.37149 -4.8203498,0.12783 -5.109569,22.11583 -5.109569,22.11583 0,0 2.313772,2.8124 3.8562802,3.06808 1.5425078,0.25568 5.4951948,-2.4289 5.6880048,-2.81242 z"
         id="path3167"
         sodipodi:nodetypes="cscsc" />
      <path
         style="fill:#000000;fill-opacity:0.32706766;stroke:none"
         d="m 13.076739,664.69814 c 0.686067,6.71145 0.211064,15.55688 -0.320608,21.90468 1.23316,-0.6965 2.306337,-1.48318 2.404519,-1.67845 0,-1.93147 0.240095,-15.01114 -2.083911,-20.22623 z"
         id="path3305" />
      <path
         id="path3171"
         d="m 12.319649,671.45734 c 0.811917,0 1.571642,0.48937 2.215329,1.32533 0.741676,5.50944 0.842389,11.12735 0.851309,11.67642 -1.17371,-0.80038 -2.683929,-1.30267 -4.614466,-1.28663 -0.73674,0.006 -1.5372872,0.0837 -2.3991341,0.25153 -0.173893,-0.96674 -0.2708694,-2.01007 -0.2708694,-3.10533 0,-2.08196 0.3457216,-3.99096 0.9190207,-5.50447 l 2.1863088,0.26119 -1.064131,-2.34108 c 0.634881,-0.80442 1.381804,-1.27696 2.176633,-1.27696 z"
         style="fill:#000000;fill-opacity:1;stroke:#000000;stroke-width:0.30174339;stroke-miterlimit:4;stroke-opacity:1;stroke-dasharray:none" />
      <path
         style="fill:#ffffff;fill-opacity:0.2518797;stroke:#000000;stroke-width:1.50871658;stroke-miterlimit:4;stroke-opacity:1;stroke-dasharray:none"
         d="m -0.12411008,686.52544 14.48977708,0 0,-14.20167 -14.48977708,0.35065 0,13.85102 z"
         id="path3224"
         sodipodi:nodetypes="ccccc" />
      <path
         sodipodi:nodetypes="csc"
         id="path3153"
         d="m 15.540652,684.24061 c -10.8725586,-3.9262 -13.6462541,3.86465 -13.4383373,8.17386 0.3682923,7.69744 8.1418773,10.14623 13.7403433,6.32288"
         style="fill:#eec88c;fill-opacity:1;stroke:#000000;stroke-width:0.30174336;stroke-miterlimit:4;stroke-opacity:1;stroke-dasharray:none" />
      <path
         id="path3157"
         d="m 68.665414,687.43647 c 8.335019,-5.00101 8.960143,1.66701 8.751771,5.62614 -0.208379,3.95912 -7.91828,3.95912 -7.91828,3.95912"
         style="fill:#eec88c;fill-opacity:1;stroke:#000000;stroke-width:0.30174333;stroke-miterlimit:4;stroke-opacity:1;stroke-dasharray:none" />
      <path
         id="path3159"
         d="m 74.589928,687.53895 c 0,0 -3.331703,0.17534 -3.682403,1.57816 -0.350699,1.40283 -0.17534,2.80564 -0.17534,2.80564 l 1.052098,1.75352 -0.876758,1.22747"
         style="fill:#eec88c;fill-opacity:1;stroke:#000000;stroke-width:0.30174336;stroke-miterlimit:4;stroke-opacity:1;stroke-dasharray:none" />
      <path
         id="path3161"
         d="m 74.059795,687.65941 0.330623,0.54394"
         style="fill:#eec88c;fill-opacity:1;stroke:#000000;stroke-width:0.30174336;stroke-miterlimit:4;stroke-opacity:1;stroke-dasharray:none" />
      <path
         sodipodi:nodetypes="cccccccccccccccsccccccccc"
         id="path3163"
         d="m 12.397784,642.8131 -8.0798105,-9.9516 7.8700445,2.85966 2.794047,-8.76299 4.487012,8.98 8.462226,-7.64699 -1.904306,7.42677 7.617211,-2.47559 -0.952161,3.04688 c 0,0 25.914515,-1.141 31.899319,2.45298 15.027602,5.33913 6.459487,33.86311 6.75799,48.1076 l -3.237318,0.95216 0.190432,7.42676 -2.094722,0.19043 -0.761729,-10.47364 c 0,0 -9.711937,0.19043 -10.664082,-1.33302 -0.952145,-1.52344 -1.523443,-3.04688 -1.523443,-3.04688 l -1.903366,-25.28216 1.523443,-1.71387 -2.666019,-0.76172 3.237317,-2.09473 -5.522474,0 1.523443,-2.85645 -7.42678,-1.14258 C 34.240385,640.57331 20.334838,646.148 12.397784,642.8131 z"
         style="fill:#8f5902;fill-opacity:1;stroke:#000000;stroke-width:0.30174336;stroke-miterlimit:4;stroke-opacity:1;stroke-dasharray:none" />
      <path
         style="fill:#000000;fill-opacity:0.32706766;stroke:none"
         d="m 55.60369,657.53173 -3.818935,3.56434 0.264017,3.48891 2.809984,-2.22535 1.30127,3.15888 5.384239,-3.33803 0.744918,4.27155 5.195641,-2.79113 -0.179156,3.34746 2.602538,-1.11267 3.055157,1.72558 c 0.280128,-2.93952 0.492544,-5.8923 0.537473,-8.74112 l -0.066,-0.0471 -3.715214,2.41394 -0.933533,-3.15887 -4.450706,3.34747 -1.857606,-3.34747 -4.837326,3.15887 -2.036766,-3.71521 z"
         id="path3276" />
      <path
         sodipodi:nodetypes="cscsc"
         id="path3165"
         d="m 24.871954,686.90451 c 0,-2.901 -0.687897,-26.8725 7.910756,-26.71982 8.598653,0.15269 9.114566,26.41445 9.114566,26.41445 0,0 -4.127346,3.35907 -6.878917,3.66444 -2.751562,0.30537 -9.802463,-2.90101 -10.146405,-3.35907 z"
         style="fill:#ffffff;fill-opacity:1;stroke:#000000;stroke-width:0.30174336;stroke-miterlimit:4;stroke-opacity:1;stroke-dasharray:none" />
      <path
         style="fill:#000000;fill-opacity:0.32706766;stroke:none"
         d="m 36.178949,661.89758 c 3.318246,8.97335 2.92252,20.95959 2.442245,26.94947 1.785988,-1.03423 3.272026,-2.24423 3.272026,-2.24423 0,0 -0.366424,-18.86 -5.714271,-24.70524 z"
         id="path3300" />
      <path
         style="fill:#000000;fill-opacity:1;stroke:#000000;stroke-width:0.30174333;stroke-miterlimit:4;stroke-opacity:1;stroke-dasharray:none"
         d="m 38.348485,673.47448 c -0.878483,0 -1.690656,0.49154 -2.40165,1.35033 l 1.649326,3.81949 -3.404749,-0.17361 c -0.430153,1.5205 -0.684808,3.29347 -0.684808,5.18911 0,2.5316 0.444089,4.84386 1.176712,6.62624 0.117378,-0.002 0.232201,-0.008 0.337582,-0.0193 2.751571,-0.30537 6.877014,-3.66517 6.877014,-3.66517 0,0 -0.115622,-5.6425 -1.089905,-11.70925 -0.721645,-0.89712 -1.561433,-1.41785 -2.459522,-1.41785 z"
         id="path3169" />
      <path
         id="path3191"
         d="m 24.022295,656.82498 c 6.243311,-5.70042 11.1294,-4.34318 13.979614,-2.57876 2.8502,1.76441 3.664553,3.39311 3.121649,3.39311"
         style="fill:none;stroke:#000000;stroke-width:0.30174333;stroke-miterlimit:4;stroke-opacity:1;stroke-dasharray:none" />
      <path
         style="fill:none;stroke:#000000;stroke-width:0.30174333;stroke-miterlimit:4;stroke-opacity:1;stroke-dasharray:none"
         d="m 3.2505436,658.49179 c 4.7067119,-4.29743 8.3902294,-3.27424 10.5389454,-1.94408 2.148714,1.33016 2.762635,2.558 2.353347,2.558"
         id="path3193" />
      <path
         sodipodi:nodetypes="ccccc"
         id="path3195"
         d="m 13.534228,703.41591 -0.845698,4.22842 c 18.550354,-0.84838 32.05059,-6.86383 46.723968,-17.81973 4.868073,6.47092 6.03492,14.69306 4.651264,22.51642 -13.768014,9.12378 -25.098132,10.7582 -37.421406,11.05423"
         style="fill:none;stroke:#000000;stroke-width:0.30174336;stroke-miterlimit:4;stroke-opacity:1;stroke-dasharray:none" />
      <path
         id="path3197"
         d="m 59.410019,689.82813 c -9.826224,7.33677 -19.123707,12.45685 -29.766678,15.29448 7.01416,6.96191 6.845501,11.16048 5.920445,17.72264 9.093607,-0.99705 18.102888,-3.61633 28.499394,-10.50589 1.383656,-7.82337 0.21493,-16.04032 -4.653161,-22.51123 z"
         style="fill:#000000;fill-opacity:1;stroke:#000000;stroke-width:0.30174336;stroke-miterlimit:4;stroke-opacity:1;stroke-dasharray:none" />
      <path
         style="fill:#ef2929;fill-opacity:1;stroke:#000000;stroke-width:0.30174333;stroke-miterlimit:4;stroke-opacity:1;stroke-dasharray:none"
         d="m 57.246693,711.54947 c -5.289444,-5.55391 -9.520999,-0.66118 -10.71113,0.39671 -1.19013,1.0579 -2.115772,6.74405 -2.115772,6.74405 l 11.636774,-4.23156 1.190128,-2.9092 z"
         id="path3216" />
      <path
         id="path3204"
         d="m 59.410019,689.82813 c -13.425843,10.02441 -25.872274,15.91179 -42.100937,17.49046 l 0,1.8574 0.541751,0.83194 c 2.615794,-0.15902 16.818979,-1.15777 23.66242,-4.63379 5.943627,-3.01898 16.000009,-9.36417 20.121766,-11.99569 -0.631546,-1.22868 -1.372725,-2.41745 -2.225,-3.55032 z"
         style="fill:#ffffff;fill-opacity:1;stroke:#000000;stroke-width:0.30174336;stroke-miterlimit:4;stroke-opacity:1;stroke-dasharray:none" />
      <path
         id="path3214"
         d="m 61.158076,710.76392 c -4.792489,-5.03211 -8.626483,-0.59906 -9.704793,0.35944 -1.078307,0.95849 -1.916988,6.11041 -1.916988,6.11041 l 10.543474,-3.83398 1.078307,-2.63587 z"
         style="fill:#ef2929;fill-opacity:1;stroke:#000000;stroke-width:0.30174336;stroke-miterlimit:4;stroke-opacity:1;stroke-dasharray:none" />
      <path
         id="path3209"
         d="m 64.517853,708.71163 c -3.48484,1.83036 -11.407635,5.95684 -14.743056,7.43926 -4.313234,1.91699 -19.889601,4.79826 -19.889601,4.79826 l 0,2.32175 c 11.099566,-0.52912 21.625726,-2.61341 34.177984,-10.93154 0.212812,-1.20323 0.366712,-2.41346 0.454673,-3.62773 z"
         style="fill:#ffffff;fill-opacity:1;stroke:#000000;stroke-width:0.30174336;stroke-miterlimit:4;stroke-opacity:1;stroke-dasharray:none" />
      <path
         id="path3218"
         d="m 47.667371,723.518 7.777308,-2.59245"
         style="fill:#ef2929;fill-opacity:1;stroke:#000000;stroke-width:0.30174336;stroke-miterlimit:4;stroke-opacity:1;stroke-dasharray:none" />
      <path
         style="fill:#000000;fill-opacity:0.2819549;stroke:none"
         d="m 69.72905,696.65465 -1.7256,2.77226 c 0,0 0.517205,6.22583 -1.386128,10.55159 -1.903334,4.32576 -4.328139,9.51434 -4.328139,9.51434 0,10e-6 0.873183,8.99762 1.565304,10.38186 0.692121,1.38424 5.355937,4.32814 5.355937,4.32814 l 1.074963,-1.71617 -2.017904,-0.59405 c -1.449296,-0.7515 -2.712256,-1.6876 -3.234312,-3.36634 l -0.914667,-8.958 c 5.826433,-11.10929 5.382434,-16.82356 5.742553,-22.7439 l -0.132007,-0.16973 z"
         id="path3322" />
      <path
         id="path3220"
         d="m 45.230958,731.62887 c 3.939651,5.18374 14.514495,4.9764 17.832082,3.73229 3.317604,-1.24409 6.220507,-4.9764 6.220507,-4.9764 0,0 16.380632,3.31761 18.661485,4.76906 2.280841,1.45145 4.884139,34.85401 4.884139,34.85401 -1.55171,1.69992 -3.908115,1.96033 -6.83066,2.54815 -1.724226,0.34679 -6.776675,-0.424 -6.85958,-1.05648 -0.187132,-1.42758 -1.797935,-12.95652 -2.175863,-15.2418 -0.25346,-1.53267 8.234287,54.68521 7.198259,55.94845 -9.906433,12.07906 -43.766,-3.02309 -58.829988,0.46921 -0.817994,0.18963 6.499071,-57.87692 6.273532,-57.06853 -0.679679,2.43617 -1.193737,13.54615 -2.052481,17.50755 -7.227096,0.44392 -9.158298,-1.04102 -11.874699,-2.15039 0,0 5.366832,-32.07788 7.025626,-33.52933 1.658797,-1.45146 20.734985,-5.39111 20.527641,-5.80579 z"
         style="fill:#00a307;fill-opacity:1;stroke:#000000;stroke-width:0.30174336;stroke-miterlimit:4;stroke-opacity:1;stroke-dasharray:none"
         sodipodi:nodetypes="cscscssssssccsc" />
      <path
         sodipodi:nodetypes="ccccc"
         id="path3222"
         d="m 21.870991,687.51582 23.66108,0 0,-16.18244 -23.66108,0.39957 0,15.78287 z"
         style="fill:#ffffff;fill-opacity:0.2518797;stroke:#000000;stroke-width:1.50871658;stroke-miterlimit:4;stroke-opacity:1;stroke-dasharray:none" />
      <path
         sodipodi:nodetypes="ccccc"
         id="path3226"
         d="m 14.544547,678.20143 7.10159,0 0.137745,2.17704 -7.416046,-0.19015 0.176711,-1.98689 z"
         style="fill:#000000;fill-opacity:1;stroke:#000000;stroke-width:1.5087167;stroke-miterlimit:4;stroke-opacity:1;stroke-dasharray:none" />
      <path
         sodipodi:nodetypes="ccccc"
         id="path3228"
         d="m 46.076533,676.3538 29.205674,2.66821 -0.296457,2.37174 -29.053833,-1.18586 0.144616,-3.85409 z"
         style="fill:#000000;fill-opacity:1;stroke:#000000;stroke-width:1.5087167;stroke-miterlimit:4;stroke-opacity:1;stroke-dasharray:none" />
      <path
         id="path3230"
         d="m 48.723889,674.95367 0.2305,6.98217 c 0,0 7.474813,0.19669 7.408953,0 -0.06586,-0.19668 -0.2305,-6.14627 -0.2305,-6.14627 l -7.408953,-0.8359 z"
         style="fill:#cc0000;fill-opacity:1;stroke:none" />
      <path
         style="fill:#000000;fill-opacity:0.32706766;stroke:none"
         d="m 14.876257,626.72429 2.955685,11.23158 1.707732,-1.83909 -4.663417,-9.39249 z"
         id="path3263"
         sodipodi:nodetypes="cccc" />
      <path
         style="fill:#000000;fill-opacity:0.32706766;stroke:none"
         d="m 4.1044521,632.56997 8.1445429,3.15272 0.459768,1.445 -8.6043109,-4.59772 z"
         id="path3265" />
      <path
         style="fill:#000000;fill-opacity:0.32706766;stroke:none"
         d="m 28.078303,627.84088 -4.269324,8.80135 2.29887,-0.85386 1.970454,-7.94749 z"
         id="path3267" />
      <path
         style="fill:#000000;fill-opacity:0.32706766;stroke:none"
         d="m 33.726923,633.1611 -3.349768,3.67818 2.49591,-0.65682 0.853858,-3.02136 z"
         id="path3269" />
      <path
         style="fill:#000000;fill-opacity:0.32706766;stroke:none"
         d="m 61.563112,637.61667 c 13.682241,5.54906 9.004581,43.82213 8.552539,49.59907 l 1.235275,-0.36775 c -0.298503,-14.24448 8.266658,-42.77008 -6.760944,-48.10921 -0.736819,-0.44248 -1.771425,-0.81221 -3.02687,-1.12211 z"
         id="path3271"
         sodipodi:nodetypes="ccccc" />
      <path
         style="fill:#000000;fill-opacity:0.32706766;stroke:none"
         d="m 48.10898,650.59368 c 0.148675,-0.0372 6.7271,-1.41232 6.7271,-1.41232 l -0.966324,1.41232 -5.760776,0 z"
         id="path3281" />
      <path
         style="fill:#000000;fill-opacity:0.32706766;stroke:none"
         d="m 50.301792,652.71216 c 0,0 4.274128,0.33449 4.125465,0.33449 -0.148675,0 -1.412325,0.52033 -1.412325,0.52033 l -2.71314,-0.85482 z"
         id="path3283" />
      <path
         style="fill:#000000;fill-opacity:0.32706766;stroke:none"
         d="m 33.387829,643.0009 c -2.98615,-0.0309 -7.084466,0.18855 -12.663797,0.86752 l 0.575199,0.0943 c 7.189583,-0.15916 15.395451,-1.45204 20.726011,2.75341 l 6.619482,1.01838 0.810946,-0.0943 -6.770367,-1.7256 c 0,0 -1.019965,-1.10525 -1.885896,-1.73502 -0.541201,-0.3936 -2.434649,-1.12718 -7.411578,-1.17869 z"
         id="path3285" />
      <path
         style="fill:#000000;fill-opacity:0.32706766;stroke:none"
         d="m 66.598459,683.67025 c 0,0 -4.48846,0.39272 -7.88304,0.79208 l 0.05657,0.26402 c 3.040563,0.29362 6.67607,0.21688 6.67607,0.21688 l 0.0095,0.1886 1.140958,-1.46158 z"
         id="path3290" />
      <path
         style="fill:#000000;fill-opacity:0.32706766;stroke:none"
         d="m 17.243223,696.41108 c -1.841921,1.15588 -6.988709,3.81151 -10.7765615,3.07242 l -0.1602994,0.0754 c 2.6839893,1.41783 6.1970049,1.26996 9.1748809,-0.59406 l 0.348891,-0.58462 1.413089,-1.96917 z"
         id="path3295"
         sodipodi:nodetypes="cccccc" />
      <path
         style="fill:#000000;fill-opacity:0.19172932;stroke:none"
         d="m 59.413201,689.82771 c -13.425842,10.02441 -25.87399,15.91302 -42.102637,17.49168 l 0.130177,0.46363 c 17.989145,-0.52377 31.504899,-9.13814 42.585369,-17.09723 -0.1992,-0.28995 -0.399843,-0.57487 -0.612909,-0.85808 z"
         id="path3312"
         sodipodi:nodetypes="ccccc" />
      <path
         style="fill:#000000;fill-opacity:0.2819549;stroke:none"
         d="m 74.754958,685.81075 c 2.869884,3.79945 0.340687,8.92739 -0.537473,10.46672 1.646736,-0.55417 3.107315,-1.51939 3.196587,-3.21545 0.137732,-2.61701 -0.08249,-6.41962 -2.659114,-7.25127 z"
         id="path3317" />
      <path
         style="fill:#000000;fill-opacity:0.2819549;stroke:none"
         d="m 49.50205,722.56688 -0.128702,3.34615 6.177513,-4.89054 -6.048811,1.54439 z"
         id="path3327" />
      <path
         style="fill:#000000;fill-opacity:0.17213117;stroke:none"
         d="m 75.965193,754.09992 -1.78436,2.14123 4.610397,59.53971 c 2.170917,-0.75188 4.003436,-1.90921 5.372368,-3.57837 0.170612,-0.20803 0.08112,-1.92503 -0.18326,-4.61039 l -8.015145,-53.49218 z"
         id="path3756" />
      <path
         style="fill:#000000;fill-opacity:0.17213117;stroke:none"
         d="m 86.449505,734.5202 c 1.894392,15.1518 3.227802,31.90671 3.626587,37.13395 1.08427,-0.34778 2.006688,-0.83625 2.748877,-1.64933 0,0 -2.599622,-33.39659 -4.880463,-34.84804 -0.28996,-0.18452 -0.811911,-0.40239 -1.495001,-0.63658 z"
         id="path3761" />
    </g>
  </g>
</svg>
