<?xml version="1.0" encoding="UTF-8" standalone="no"?>
<!-- Created with Inkscape (http://www.inkscape.org/) -->

<svg
   xmlns:dc="http://purl.org/dc/elements/1.1/"
   xmlns:cc="http://creativecommons.org/ns#"
   xmlns:rdf="http://www.w3.org/1999/02/22-rdf-syntax-ns#"
   xmlns:svg="http://www.w3.org/2000/svg"
   xmlns="http://www.w3.org/2000/svg"
   xmlns:xlink="http://www.w3.org/1999/xlink"
   xmlns:sodipodi="http://sodipodi.sourceforge.net/DTD/sodipodi-0.dtd"
   xmlns:inkscape="http://www.inkscape.org/namespaces/inkscape"
   width="207.50389"
   height="300"
   id="svg2"
   sodipodi:version="0.32"
   inkscape:version="0.47 r22583"
   version="1.0"
   sodipodi:docname="dgm05.svg"
   inkscape:output_extension="org.inkscape.output.svg.inkscape"
   inkscape:export-filename="/home/danigm/Documents/dgm10-800.png"
   inkscape:export-xdpi="180"
   inkscape:export-ydpi="180">
  <defs
     id="defs4">
    <linearGradient
       inkscape:collect="always"
       id="linearGradient3573">
      <stop
         style="stop-color:#73d216;stop-opacity:1;"
         offset="0"
         id="stop3575" />
      <stop
         style="stop-color:#4e9a06;stop-opacity:1"
         offset="1"
         id="stop3577" />
    </linearGradient>
    <inkscape:perspective
       sodipodi:type="inkscape:persp3d"
       inkscape:vp_x="0 : 526.18109 : 1"
       inkscape:vp_y="0 : 1000 : 0"
       inkscape:vp_z="744.09448 : 526.18109 : 1"
       inkscape:persp3d-origin="372.04724 : 350.78739 : 1"
       id="perspective10" />
    <linearGradient
       inkscape:collect="always"
       xlink:href="#linearGradient3573"
       id="linearGradient3579"
       x1="-40.975609"
       y1="-7.8048778"
       x2="-27.317072"
       y2="409.75607"
       gradientUnits="userSpaceOnUse" />
    <linearGradient
       gradientUnits="userSpaceOnUse"
       y2="409.75607"
       x2="-27.317072"
       y1="-7.8048778"
       x1="-40.975609"
       id="linearGradient3579-3"
       xlink:href="#linearGradient3573-7"
       inkscape:collect="always" />
    <inkscape:perspective
       id="perspective10-6"
       inkscape:persp3d-origin="372.04724 : 350.78739 : 1"
       inkscape:vp_z="744.09448 : 526.18109 : 1"
       inkscape:vp_y="0 : 1000 : 0"
       inkscape:vp_x="0 : 526.18109 : 1"
       sodipodi:type="inkscape:persp3d" />
    <linearGradient
       id="linearGradient3573-7"
       inkscape:collect="always">
      <stop
         id="stop3575-4"
         offset="0"
         style="stop-color:#73d216;stop-opacity:1;" />
      <stop
         id="stop3577-1"
         offset="1"
         style="stop-color:#4e9a06;stop-opacity:1" />
    </linearGradient>
  </defs>
  <sodipodi:namedview
     id="base"
     pagecolor="#ffffff"
     bordercolor="#666666"
     borderopacity="1.0"
     inkscape:pageopacity="0.0"
     inkscape:pageshadow="2"
     inkscape:zoom="1.2166667"
     inkscape:cx="103.75195"
     inkscape:cy="150"
     inkscape:document-units="px"
     inkscape:current-layer="g3232"
     showgrid="false"
     borderlayer="true"
     inkscape:window-width="1024"
     inkscape:window-height="575"
     inkscape:window-x="0"
     inkscape:window-y="25"
     inkscape:window-maximized="1" />
  <metadata
     id="metadata7">
    <rdf:RDF>
      <cc:Work
         rdf:about="">
        <dc:format>image/svg+xml</dc:format>
        <dc:type
           rdf:resource="http://purl.org/dc/dcmitype/StillImage" />
        <dc:title />
      </cc:Work>
    </rdf:RDF>
  </metadata>
  <g
     inkscape:label="Capa 1"
     inkscape:groupmode="layer"
     id="layer1"
     transform="translate(166.034,-650.28434)">
    <g
       id="g3232"
       transform="matrix(1.0259238,0,0,1.0259238,-57.329259,5.6699817)">
      <g
         id="g4800"
         transform="matrix(0.3166471,0,0,0.3166471,94.262114,629.19387)">
        <path
           sodipodi:nodetypes="cccscssccccccccccscccc"
           id="path4798"
           d="m -216.47015,443.50087 1.96381,49.09385 88.36877,-31.42016 c 0,0 -23.56501,-41.23866 -7.85501,-53.02127 15.71002,-11.78246 23.56502,39.27502 23.56502,39.27502 0,0 33.38378,-15.7099 37.31127,-25.52874 3.9275,-9.81866 10.37542,-32.87092 22.943775,-33.25213 15.109055,-0.45835 25.218215,9.1786 16.626075,22.68048 l -35.64235,32.17295 5.89126,5.89123 54.9850262,-25.52873 c 13.20495,11.12793 22.4149398,22.25585 3.92751,33.38377 l -53.0212912,9.81879 -0.58965,14.66231 39.469811,10.86648 c -0.77743,16.93407 7.01223,22.02016 -19.211056,21.33802 l -31.45161,-13.48299 c 0,0 -27.026935,4.89157 -39.27502,-0.13164 -6.05628,-2.48396 -11.7825,-9.68721 -11.7825,-9.68721 l -113.89753,29.45634 -7.85504,-74.62256 25.52873,-1.96381 z"
           style="fill:#eec88c;fill-opacity:1;stroke:#000000;stroke-width:0.84270579;stroke-opacity:1" />
        <path
           style="fill:#eec88c;fill-opacity:1;stroke:#000000;stroke-width:0.84270579;stroke-opacity:1"
           d="m -409.39857,443.50087 -1.96381,49.09385 -88.36877,-31.42016 c 0,0 23.56501,-41.23866 7.85501,-53.02127 -15.71002,-11.78246 -23.56502,39.27502 -23.56502,39.27502 0,0 -33.38379,-15.7099 -37.31128,-25.52874 -3.9275,-9.81866 -10.37542,-32.87092 -22.94378,-33.25213 -15.10906,-0.45835 -25.21822,9.1786 -16.62608,22.68048 l 35.64236,32.17295 -5.89126,5.89123 -54.98504,-25.52873 c -13.20495,11.12793 -22.41494,22.25585 -3.92751,33.38377 l 53.0213,9.81879 0.58965,14.66231 -39.46982,10.86648 c 0.77743,16.93407 -7.01223,22.02016 19.21106,21.33802 l 31.45162,-13.48299 c 0,0 27.02694,4.89157 39.27503,-0.13164 6.05628,-2.48396 11.7825,-9.68721 11.7825,-9.68721 l 113.89753,29.45634 7.85504,-74.62256 -25.52873,-1.96381 z"
           id="path3901"
           sodipodi:nodetypes="cccscssccccccccccscccc" />
        <path
           id="path3686-6"
           d="m -227.59116,844.57664 c 0,0 38.97354,15.30098 49.19406,24.81216 10.22052,9.51118 11.44699,34.87432 11.44699,34.87432 0,0 -1.22647,14.49323 -14.71756,15.85197 -13.49108,1.35874 -45.78794,-14.04031 -50.28498,-17.2107 -4.49703,-3.17039 -51.51144,-34.87433 -51.51144,-34.87433 l -1.22646,-25.81605 57.09939,2.36263 z"
           style="fill:#ffffff;fill-opacity:1;stroke:#000000;stroke-width:1.09078908;stroke-miterlimit:4;stroke-opacity:1;stroke-dasharray:none" />
        <path
           id="path3688-4"
           d="m -235.67762,844.26344 8.09636,0.32291 c 0,0 21.17254,8.28366 36.40124,16.46814 6.24479,12.28145 2.77172,19.26961 -1.1011,20.12772 -4.08822,0.90582 -16.35955,3.16999 -24.12716,-3.62371 -7.76759,-6.79371 -31.09002,-22.20866 -31.09002,-22.20866 l 11.82068,-11.0864 z"
           style="fill:#000000;fill-opacity:1;stroke:#000000;stroke-width:1.09078908;stroke-miterlimit:4;stroke-opacity:1;stroke-dasharray:none" />
        <path
           id="path3690-8"
           d="m -283.67285,863.53009 3.88626,2.69087 c 0,0 64.99831,40.29596 71.53944,41.6547 6.54114,1.35875 24.12716,4.55654 24.12716,4.55654 0,0 5.5146,-14.2577 16.54896,-14.56658 0.49894,3.80981 0.61532,6.38633 0.61532,6.38633 0,0 -1.2119,14.49946 -14.70299,15.85821 -13.49109,1.35873 -45.79755,-14.05119 -50.29459,-17.22158 -4.49703,-3.17039 -51.52524,-34.87371 -51.52524,-34.87371 l -0.19432,-4.48478 z"
           style="fill:#000000;fill-opacity:1;stroke:#000000;stroke-width:1.09078908;stroke-miterlimit:4;stroke-opacity:1;stroke-dasharray:none" />
        <path
           id="path3692-5"
           d="m -219.87325,874.72173 -21.41605,17.79437 -7.64858,-3.81308 26.0052,-21.60744 1.14728,7.62615 1.91215,0 z"
           style="fill:#000000;fill-opacity:1;stroke:#000000;stroke-width:1.02037263;stroke-miterlimit:4;stroke-opacity:1;stroke-dasharray:none" />
        <path
           style="fill:#000000;fill-opacity:1;stroke:#000000;stroke-width:1.02037263;stroke-miterlimit:4;stroke-opacity:1;stroke-dasharray:none"
           d="m -228.45849,865.21052 -21.41605,17.7944 -7.64859,-3.81308 26.0052,-21.60744 1.14727,7.62612 1.91217,0 z"
           id="path3694-6" />
        <path
           style="fill:#ffffff;fill-opacity:1;stroke:#000000;stroke-width:1.09078908;stroke-miterlimit:4;stroke-opacity:1;stroke-dasharray:none"
           d="m -391.9356,837.688 c 0,0 -38.97355,15.30098 -49.19407,24.81216 -10.22052,9.51118 -11.44699,34.87432 -11.44699,34.87432 0,0 1.22647,14.49323 14.71756,15.85197 13.49109,1.35874 45.78794,-14.04031 50.28498,-17.2107 4.49703,-3.17039 51.51144,-34.87433 51.51144,-34.87433 l 1.22646,-25.81605 -57.09938,2.36263 z"
           id="path3661-5" />
        <path
           style="fill:#000000;fill-opacity:1;stroke:#000000;stroke-width:1.09078908;stroke-miterlimit:4;stroke-opacity:1;stroke-dasharray:none"
           d="m -383.84915,837.3748 -8.09636,0.32291 c 0,0 -21.17254,8.28366 -36.40124,16.46814 -6.24478,12.28145 -2.77172,19.26961 1.10111,20.12772 4.08821,0.90582 16.35955,3.16999 24.12715,-3.62371 7.7676,-6.79371 31.09003,-22.20866 31.09003,-22.20866 l -11.82069,-11.0864 z"
           id="path3668-2" />
        <path
           style="fill:#000000;fill-opacity:1;stroke:#000000;stroke-width:1.09078908;stroke-miterlimit:4;stroke-opacity:1;stroke-dasharray:none"
           d="m -335.85392,856.64145 -3.88626,2.69087 c 0,0 -64.99831,40.29596 -71.53944,41.6547 -6.54114,1.35875 -24.12716,4.55654 -24.12716,4.55654 0,0 -5.5146,-14.2577 -16.54896,-14.56658 -0.49893,3.80981 -0.61532,6.38633 -0.61532,6.38633 0,0 1.2119,14.49946 14.70299,15.85821 13.49109,1.35873 45.79756,-14.05119 50.29459,-17.22158 4.49703,-3.17039 51.52524,-34.87371 51.52524,-34.87371 l 0.19432,-4.48478 z"
           id="path3663-6" />
        <path
           style="fill:#000000;fill-opacity:1;stroke:#000000;stroke-width:1.02037263;stroke-miterlimit:4;stroke-opacity:1;stroke-dasharray:none"
           d="m -399.65352,867.8331 21.41605,17.79437 7.64858,-3.81308 -26.00519,-21.60744 -1.14728,7.62615 -1.91216,0 z"
           id="path3673-9" />
        <path
           id="path3675-1"
           d="m -391.06827,858.32189 21.41604,17.79439 7.64859,-3.81308 -26.0052,-21.60743 -1.14727,7.62612 -1.91216,0 z"
           style="fill:#000000;fill-opacity:1;stroke:#000000;stroke-width:1.02037263;stroke-miterlimit:4;stroke-opacity:1;stroke-dasharray:none" />
        <path
           style="fill:#707070;fill-opacity:1;stroke:#000000;stroke-width:1.24895132;stroke-opacity:1"
           d="m -390.29148,521.23548 -2.74077,316.96416 c 16.71775,27.22773 47.38506,16.25804 57.52502,7.26167 l 2.23632,-191.3833 c 31.17346,11.95947 31.39548,5.81554 52.71005,5.07647 l -4.73679,191.66924 c 19.7863,9.03741 49.48195,4.38892 59.11048,-5.28167 l -7.70503,-319.80344 -156.39928,-4.50313 z"
           id="path2887-3"
           sodipodi:nodetypes="ccccccccc" />
        <path
           style="fill:#707070;fill-opacity:1;stroke:#000000;stroke-width:1.09078908;stroke-miterlimit:4;stroke-opacity:1;stroke-dasharray:none"
           d="m -326.98031,580.845 c -5.07705,35.62269 1.84318,64.91621 5.66745,77.42536 7.99309,2.453 13.2821,3.18912 17.87677,3.12141 -1.42777,-2.35481 -3.53604,-7.11083 -6.57425,-16.64752 -6.78715,-21.30427 6.76856,-63.89925 6.76856,-63.89925 l -23.73853,0 z"
           id="path3698-3" />
        <path
           style="fill:#000000;fill-opacity:0.30327866;stroke:none"
           d="m -232.54436,581.88547 -10.75196,6.49398 8.84122,262.44971 c 3.43567,-1.49236 6.27003,-3.27717 8.25829,-5.2741 l -6.34755,-263.66959 z"
           id="path3708-1" />
        <path
           style="fill:#000000;fill-opacity:0.30327866;stroke:none"
           d="m -343.95028,641.0129 -2.20221,210.82086 c 4.44462,-1.85073 8.16923,-4.18109 10.65481,-6.38634 l 2.20221,-189.258 -10.65481,-15.17652 z"
           id="path3703-5" />
        <path
           style="fill:#000000;fill-opacity:1;stroke:#000000;stroke-width:0.97473127;stroke-opacity:1"
           d="m -405.09102,584.39574 c 12.47978,3.32793 14.55974,4.57591 14.55974,4.57591 l -0.416,-9.98382 -14.14374,5.40791 z"
           id="path3713-2" />
        <path
           sodipodi:nodetypes="cccscccccccccccccc"
           id="path3155-6"
           d="m -443.64699,46.97945 c -7.22321,7.509795 -13.50942,10.568975 -22.97174,28.714655 -7.19216,86.745255 7.31413,166.896995 15.59248,189.681215 10.53012,13.13457 39.89937,39.9238 53.22795,43.22105 34.64533,8.57053 69.00991,-7.77934 69.00991,-7.77934 l -0.58292,22.81855 c -0.84034,2.52905 -1.21315,4.92453 -7.0485,8.88074 l -62.82363,18.18253 32.23848,26.15434 122.65003,-12.9266 27.7367,-18.97064 -53.11063,-15.57691 c -4.57702,-2.37326 -8.56666,-5.33385 -10.21541,-10.63544 l -2.90066,-28.26386 c 19.285,-36.77083 16.82533,-54.84769 18.32657,-74.54989 L -276.72806,97.971331 -320.42775,64.234952 C -355.65211,37.037914 -400.147,43.83254 -443.64699,46.97945 z"
           style="fill:#eec88c;fill-opacity:1;stroke:#000000;stroke-width:0.95293266;stroke-miterlimit:4;stroke-opacity:1;stroke-dasharray:none" />
        <path
           style="fill:#ffffff;fill-opacity:0.2819549;stroke:none"
           d="m -445.96261,49.25706 c -6.30565,6.044895 -12.226,10.257271 -20.66674,26.443884 -7.19216,86.745256 7.32593,166.879146 15.60428,189.663376 10.53014,13.13456 39.88676,39.94213 53.21534,43.23933 0.99323,0.24573 1.98593,0.44945 2.97791,0.65513 -15.99139,-12.69741 -54.61429,-43.86366 -56.75906,-58.30757 -1.8369,-12.37064 -12.56227,-109.53749 -13.46017,-119.41437 -0.8979,-9.87688 1.66763,-53.63224 1.66763,-53.63224 0,0 3.16954,-9.831086 8.24883,-16.497645 5.07928,-6.666561 13.34107,-9.827123 13.34107,-9.827122 l -4.16909,-2.322773 z"
           id="path3334-9"
           sodipodi:nodetypes="cccscsscscc" />
        <path
           style="fill:#ffffff;fill-opacity:1;stroke:#000000;stroke-width:0.95293254;stroke-miterlimit:4;stroke-opacity:1;stroke-dasharray:none"
           d="m -437.43602,181.05025 c 0,-7.67068 1.21787,-71.05496 -14.00523,-70.6512 -15.2231,0.40371 -16.13648,69.84378 -16.13648,69.84378 0,0 7.3071,8.88182 12.17848,9.68929 4.87138,0.80747 17.35432,-7.6707 17.96323,-8.88187 z"
           id="path3167-4"
           sodipodi:nodetypes="cscsc" />
        <path
           style="fill:#000000;fill-opacity:0.32706766;stroke:none"
           d="m -444.02694,117.1833 c 2.16666,21.19535 0.66656,49.13002 -1.01251,69.17695 3.89443,-2.19961 7.28362,-4.68401 7.59369,-5.30069 0,-6.09975 0.75824,-47.40655 -6.58118,-63.87626 z"
           id="path3305-4" />
        <path
           id="path3171-6"
           d="m -446.4179,138.52946 c 2.56411,0 4.96339,1.54549 6.99621,4.1855 2.34228,17.39931 2.66034,35.14118 2.68851,36.8752 -3.70668,-2.52767 -8.47609,-4.11394 -14.5729,-4.0633 -2.32669,0.0193 -4.85489,0.26447 -7.57668,0.79435 -0.54917,-3.05305 -0.85543,-6.34797 -0.85543,-9.8069 0,-6.57502 1.09182,-12.60381 2.90235,-17.3836 l 6.90456,0.82485 -3.36062,-7.39335 c 2.00501,-2.54041 4.36386,-4.03275 6.874,-4.03275 z"
           style="fill:#000000;fill-opacity:1;stroke:#000000;stroke-width:0.95293278;stroke-miterlimit:4;stroke-opacity:1;stroke-dasharray:none" />
        <path
           style="fill:#ffffff;fill-opacity:0.2518797;stroke:#000000;stroke-width:4.76466274;stroke-miterlimit:4;stroke-opacity:1;stroke-dasharray:none"
           d="m -485.71641,186.11589 45.76002,0 0,-44.85016 -45.76002,1.10739 0,43.74277 z"
           id="path3224-0"
           sodipodi:nodetypes="ccccc" />
        <path
           sodipodi:nodetypes="csc"
           id="path3153-7"
           d="m -436.24568,178.90017 c -34.33652,-12.39928 -43.0961,12.20491 -42.43948,25.81379 1.1631,24.30921 25.71278,32.0427 43.39324,19.96823"
           style="fill:#eec88c;fill-opacity:1;stroke:#000000;stroke-width:0.95293266;stroke-miterlimit:4;stroke-opacity:1;stroke-dasharray:none" />
        <path
           id="path3157-4"
           d="m -268.4729,188.99301 c 26.32274,-15.79366 28.29694,5.26454 27.63888,17.76784 -0.65808,12.50327 -25.00664,12.50327 -25.00664,12.50327"
           style="fill:#eec88c;fill-opacity:1;stroke:#000000;stroke-width:0.9529326;stroke-miterlimit:4;stroke-opacity:1;stroke-dasharray:none" />
        <path
           id="path3159-3"
           d="m -249.76275,189.31664 c 0,0 -10.52182,0.55375 -11.62936,4.98396 -1.10754,4.43027 -0.55374,8.86048 -0.55374,8.86048 l 3.32262,5.53776 -2.76888,3.87647"
           style="fill:#eec88c;fill-opacity:1;stroke:#000000;stroke-width:0.95293266;stroke-miterlimit:4;stroke-opacity:1;stroke-dasharray:none" />
        <path
           id="path3161-7"
           d="m -251.43696,189.69706 1.04414,1.7178"
           style="fill:#eec88c;fill-opacity:1;stroke:#000000;stroke-width:0.95293266;stroke-miterlimit:4;stroke-opacity:1;stroke-dasharray:none" />
        <path
           sodipodi:nodetypes="cccccccccccccccsccccccccc"
           id="path3163-9"
           d="m -446.17114,48.068388 -25.51677,-31.428062 24.85431,9.03106 8.82385,-27.674311 14.17039,28.359659 26.72447,-24.1498925 -6.01397,23.4544135 24.05584,-7.818139 -3.00701,9.622326 c 0,0 81.84037,-3.603376 100.74092,7.746722 47.45852,16.861465 20.39964,106.942766 21.34234,151.928126 l -10.22374,3.00701 0.6014,23.45439 -6.61532,0.6014 -2.40561,-33.07672 c 0,0 -30.67117,0.6014 -33.67813,-4.20977 -3.00696,-4.81117 -4.81117,-9.62233 -4.81117,-9.62233 l -6.011,-79.843348 4.81117,-5.412556 -8.41953,-2.405579 10.22374,-6.61535 -17.44047,0 4.81117,-9.020929 -23.45444,-3.608369 c -24.58154,-19.393219 -68.49651,-1.787852 -93.56244,-12.319751 z"
           style="fill:#8f5902;fill-opacity:1;stroke:#000000;stroke-width:0.95293266;stroke-miterlimit:4;stroke-opacity:1;stroke-dasharray:none" />
        <path
           style="fill:#000000;fill-opacity:0.32706766;stroke:none"
           d="m -309.723,94.551148 -12.06054,11.256502 0.83379,11.01828 8.87418,-7.02785 4.10953,9.97602 17.00391,-10.54181 2.35252,13.48994 16.4083,-8.81462 -0.56579,10.57158 8.21905,-3.51392 9.64846,5.44954 c 0.88467,-9.28328 1.5555,-18.60842 1.69739,-27.605247 l -0.20842,-0.148897 -11.73298,7.623444 -2.94818,-9.975997 -14.05573,10.571607 -5.86649,-10.571607 -15.27671,9.975997 -6.43229,-11.732962 z"
           id="path3276-0" />
        <path
           sodipodi:nodetypes="cscsc"
           id="path3165-0"
           d="m -406.77659,187.31301 c 0,-9.16161 -2.17244,-84.86576 24.98288,-84.38358 27.15532,0.48221 28.78462,83.4192 28.78462,83.4192 0,0 -13.03453,10.60824 -21.72424,11.57263 -8.68968,0.9644 -30.95706,-9.16165 -32.04326,-10.60825 z"
           style="fill:#ffffff;fill-opacity:1;stroke:#000000;stroke-width:0.95293266;stroke-miterlimit:4;stroke-opacity:1;stroke-dasharray:none" />
        <path
           style="fill:#000000;fill-opacity:0.32706766;stroke:none"
           d="m -371.06808,108.33888 c 10.47932,28.33864 9.22958,66.19226 7.71283,85.10884 5.64031,-3.26619 10.33335,-7.08747 10.33335,-7.08747 0,0 -1.1572,-59.56156 -18.04618,-78.02137 z"
           id="path3300-2" />
        <path
           style="fill:#000000;fill-opacity:1;stroke:#000000;stroke-width:0.95293266;stroke-miterlimit:4;stroke-opacity:1;stroke-dasharray:none"
           d="m -364.21649,144.89979 c -2.77433,0 -5.33925,1.5523 -7.58463,4.26445 l 5.20872,12.0623 -10.7525,-0.54829 c -1.35846,4.80189 -2.16269,10.40107 -2.16269,16.38767 0,7.99504 1.40248,15.29736 3.71617,20.92626 0.37069,-0.006 0.73331,-0.024 1.06611,-0.0609 8.68971,-0.96439 21.71823,-11.57493 21.71823,-11.57493 0,0 -0.36514,-17.81951 -3.44202,-36.97887 -2.27902,-2.83318 -4.93115,-4.47767 -7.76739,-4.47767 z"
           id="path3169-2" />
        <path
           id="path3191-6"
           d="m -409.45989,92.319151 c 19.71694,-18.002453 35.14765,-13.716155 44.14888,-8.143967 9.00119,5.572188 11.57299,10.715745 9.85845,10.715745"
           style="fill:none;stroke:#000000;stroke-width:0.9529326;stroke-miterlimit:4;stroke-opacity:1;stroke-dasharray:none" />
        <path
           style="fill:none;stroke:#000000;stroke-width:0.9529326;stroke-miterlimit:4;stroke-opacity:1;stroke-dasharray:none"
           d="m -475.05895,97.583082 c 14.86422,-13.571679 26.4971,-10.340324 33.28294,-6.139567 6.78583,4.200756 8.72465,8.078381 7.43208,8.078381"
           id="path3193-9" />
        <path
           sodipodi:nodetypes="ccccc"
           id="path3195-0"
           d="m -442.58215,239.45749 -2.67079,13.35376 c 58.58369,-2.67927 101.21865,-21.67662 147.5585,-56.27631 15.37381,20.43573 19.05882,46.40198 14.68911,71.10887 -43.48063,28.81371 -79.26216,33.97536 -118.18017,34.91025"
           style="fill:none;stroke:#000000;stroke-width:0.95293266;stroke-miterlimit:4;stroke-opacity:1;stroke-dasharray:none" />
        <path
           id="path3197"
           d="m -297.70227,196.54606 c -31.0321,23.17019 -60.39439,39.33986 -94.00585,48.30135 22.15135,21.98634 21.61871,35.24582 18.6973,55.9697 28.71843,-3.14877 57.17055,-11.42071 90.00365,-33.17855 4.36971,-24.70689 0.67877,-50.65677 -14.6951,-71.0925 z"
           style="fill:#000000;fill-opacity:1;stroke:#000000;stroke-width:0.95293266;stroke-miterlimit:4;stroke-opacity:1;stroke-dasharray:none" />
        <path
           style="fill:#ef2929;fill-opacity:1;stroke:#000000;stroke-width:0.9529326;stroke-miterlimit:4;stroke-opacity:1;stroke-dasharray:none"
           d="m -304.53425,265.14402 c -16.70454,-17.53975 -30.06817,-2.08807 -33.82671,1.25284 -3.75854,3.34094 -6.6818,21.29831 -6.6818,21.29831 l 36.74998,-13.36363 3.75853,-9.18752 z"
           id="path3216" />
        <path
           id="path3204"
           d="m -297.70227,196.54606 c -42.40002,31.65799 -81.70697,50.25089 -132.95855,55.23645 l 0,5.86584 1.7109,2.62736 c 8.26091,-0.50221 53.11585,-3.65635 74.72805,-14.63395 18.77051,-9.5342 50.52947,-29.57287 63.54635,-37.88345 -1.99448,-3.88029 -4.33519,-7.63453 -7.02675,-11.21225 z"
           style="fill:#ffffff;fill-opacity:1;stroke:#000000;stroke-width:0.95293266;stroke-miterlimit:4;stroke-opacity:1;stroke-dasharray:none" />
        <path
           id="path3214"
           d="m -292.18175,262.66317 c -15.13511,-15.89183 -27.24321,-1.89186 -30.64861,1.13515 -3.40539,3.02701 -6.05402,19.29722 -6.05402,19.29722 l 33.29724,-12.10805 3.40539,-8.32432 z"
           style="fill:#ef2929;fill-opacity:1;stroke:#000000;stroke-width:0.95293266;stroke-miterlimit:4;stroke-opacity:1;stroke-dasharray:none" />
        <path
           id="path3209"
           d="m -281.57127,256.18186 c -11.00544,5.78044 -36.02634,18.81225 -46.5599,23.49385 -13.62158,6.05402 -62.81315,15.15336 -62.81315,15.15335 l 0,7.3323 c 35.05343,-1.67102 68.29599,-8.25339 107.93715,-34.5228 0.67208,-3.79989 1.15811,-7.62193 1.4359,-11.4567 z"
           style="fill:#ffffff;fill-opacity:1;stroke:#000000;stroke-width:0.95293266;stroke-miterlimit:4;stroke-opacity:1;stroke-dasharray:none" />
        <path
           id="path3218-3"
           d="m -334.78661,302.94173 24.56144,-8.18719"
           style="fill:#ef2929;fill-opacity:1;stroke:#000000;stroke-width:0.95293266;stroke-miterlimit:4;stroke-opacity:1;stroke-dasharray:none" />
        <path
           style="fill:#000000;fill-opacity:0.2819549;stroke:none"
           d="m -265.11384,218.10484 -5.4496,8.75504 c 0,0 1.63338,19.66175 -4.37752,33.32289 -6.0109,13.66113 -13.66865,30.04714 -13.66865,30.04714 0,10e-6 2.75759,28.41528 4.94337,32.78685 2.18578,4.37155 16.91453,13.66865 16.91453,13.66865 l 3.39483,-5.41983 -6.37272,-1.87605 c -4.57701,-2.37331 -8.56555,-5.32961 -10.21425,-10.6312 l -2.8886,-28.29018 c 18.4004,-35.08415 16.99821,-53.13031 18.1355,-71.82728 l -0.41689,-0.53603 z"
           id="path3322-5" />
        <path
           id="path3220-5"
           d="m -342.48102,328.55657 c 12.44177,16.37072 45.83808,15.71591 56.31532,11.78691 10.47729,-3.92896 19.64492,-15.71592 19.64492,-15.71592 0,0 51.73151,10.4773 58.93465,15.06111 7.2031,4.58381 15.42455,110.07211 15.42455,110.07211 -4.90044,5.36849 -12.34218,6.1909 -21.57184,8.04728 -5.44526,1.09521 -21.40135,-1.33902 -21.66317,-3.33646 -0.59098,-4.50841 -5.67804,-40.91784 -6.87157,-48.13498 -0.80045,-4.84029 26.00462,172.70082 22.73275,176.69025 -31.28541,38.14678 -138.21697,-9.54718 -185.7904,1.4818 -2.5833,0.59889 20.52465,-182.78052 19.81238,-180.22754 -2.14649,7.69363 -3.76993,42.77995 -6.48192,55.29043 -22.82382,1.40192 -28.92273,-3.28765 -37.50137,-6.79115 0,0 16.94894,-101.30483 22.18756,-105.88864 5.23863,-4.58382 65.48295,-17.02559 64.82814,-18.3352 z"
           style="fill:#00a307;fill-opacity:1;stroke:#000000;stroke-width:0.95293266;stroke-miterlimit:4;stroke-opacity:1;stroke-dasharray:none"
           sodipodi:nodetypes="cscscssssssccsc" />
        <path
           sodipodi:nodetypes="ccccc"
           id="path3222-8"
           d="m -416.2539,189.2436 74.72382,0 0,-51.10561 -74.72382,1.26188 0,49.84373 z"
           style="fill:#ffffff;fill-opacity:0.2518797;stroke:#000000;stroke-width:4.76466274;stroke-miterlimit:4;stroke-opacity:1;stroke-dasharray:none" />
        <path
           sodipodi:nodetypes="ccccc"
           id="path3226-7"
           d="m -439.39147,159.82791 22.42746,0 0.43501,6.87528 -23.42054,-0.60051 0.55807,-6.27477 z"
           style="fill:#000000;fill-opacity:1;stroke:#000000;stroke-width:4.76466322;stroke-miterlimit:4;stroke-opacity:1;stroke-dasharray:none" />
        <path
           sodipodi:nodetypes="ccccc"
           id="path3228-1"
           d="m -339.81062,153.99293 92.23415,8.42645 -0.93624,7.49016 -91.75462,-3.74505 0.45671,-12.17156 z"
           style="fill:#000000;fill-opacity:1;stroke:#000000;stroke-width:4.76466322;stroke-miterlimit:4;stroke-opacity:1;stroke-dasharray:none" />
        <path
           id="path3230-7"
           d="m -331.45003,149.57118 0.72794,22.05034 c 0,0 23.60613,0.62115 23.39814,0 -0.20799,-0.62114 -0.72794,-19.41048 -0.72794,-19.41048 l -23.39814,-2.63986 z"
           style="fill:#cc0000;fill-opacity:1;stroke:none" />
        <path
           style="fill:#000000;fill-opacity:0.32706766;stroke:none"
           d="m -438.3439,-2.7415367 9.33432,35.4703407 5.39317,-5.808009 -14.72749,-29.6623317 z"
           id="path3263-0"
           sodipodi:nodetypes="cccc" />
        <path
           style="fill:#000000;fill-opacity:0.32706766;stroke:none"
           d="m -472.36223,15.719636 25.7212,9.956586 1.45199,4.563435 -27.17319,-14.520021 z"
           id="path3265-6" />
        <path
           style="fill:#000000;fill-opacity:0.32706766;stroke:none"
           d="m -396.65065,0.78475421 -13.48291,27.79547179 7.26004,-2.696575 6.22287,-25.09889679 z"
           id="path3267-0" />
        <path
           style="fill:#000000;fill-opacity:0.32706766;stroke:none"
           d="m -378.8118,17.586496 -10.57887,11.616016 7.88231,-2.074288 2.69656,-9.541728 z"
           id="path3269-4" />
        <path
           style="fill:#000000;fill-opacity:0.32706766;stroke:none"
           d="m -290.90261,31.657587 c 43.20975,17.524432 28.43728,138.394213 27.00969,156.638333 l 3.90111,-1.1614 c -0.9427,-44.98536 26.10685,-135.071749 -21.35167,-151.933216 -2.32694,-1.39738 -5.59432,-2.565027 -9.55913,-3.543717 z"
           id="path3271-1"
           sodipodi:nodetypes="ccccc" />
        <path
           style="fill:#000000;fill-opacity:0.32706766;stroke:none"
           d="m -333.39197,72.640141 c 0.46953,-0.117374 21.24479,-4.460226 21.24479,-4.460226 l -3.05174,4.460226 -18.19305,0 z"
           id="path3281-3" />
        <path
           style="fill:#000000;fill-opacity:0.32706766;stroke:none"
           d="m -326.46687,79.330484 c 0,0 13.49808,1.05637 13.02859,1.05637 -0.46953,0 -4.46025,1.64324 -4.46025,1.64324 l -8.56834,-2.69961 z"
           id="path3283-0" />
        <path
           style="fill:#000000;fill-opacity:0.32706766;stroke:none"
           d="m -379.88269,48.661478 c -9.43053,-0.09758 -22.37338,0.595448 -39.99341,2.739683 l 1.81653,0.297788 c 22.70535,-0.502638 48.62022,-4.585683 65.45461,8.695513 l 20.90492,3.216149 2.56104,-0.297794 -21.38143,-5.44958 c 0,0 -3.22114,-3.490508 -5.95583,-5.479364 -1.70916,-1.243035 -7.68884,-3.559731 -23.40643,-3.722395 z"
           id="path3285-2" />
        <path
           style="fill:#000000;fill-opacity:0.32706766;stroke:none"
           d="m -275.00053,177.09893 c 0,0 -14.17496,1.24024 -24.89535,2.50147 l 0.17866,0.83379 c 9.60237,0.92729 21.08363,0.68494 21.08363,0.68494 l 0.0299,0.59559 3.60325,-4.61579 z"
           id="path3290-9" />
        <path
           style="fill:#000000;fill-opacity:0.32706766;stroke:none"
           d="m -430.86881,217.33561 c -5.81695,3.65038 -22.07097,12.03711 -34.03335,9.70298 l -0.50624,0.23824 c 8.47628,4.47761 19.5707,4.01063 28.9751,-1.87611 l 1.10183,-1.84629 4.46266,-6.21882 z"
           id="path3295-6"
           sodipodi:nodetypes="cccccc" />
        <path
           style="fill:#000000;fill-opacity:0.19172932;stroke:none"
           d="m -297.69222,196.54474 c -42.40002,31.65798 -81.71239,50.25475 -132.96392,55.24031 l 0.41111,1.46419 c 56.81134,-1.65411 99.49531,-28.85908 134.48843,-53.99461 -0.62909,-0.91569 -1.26274,-1.81548 -1.93562,-2.70989 z"
           id="path3312-0"
           sodipodi:nodetypes="ccccc" />
        <path
           style="fill:#000000;fill-opacity:0.2819549;stroke:none"
           d="m -249.24157,183.85883 c 9.06335,11.99899 1.07592,28.1935 -1.69739,33.05484 5.20054,-1.75012 9.81318,-4.79836 10.09511,-10.15468 0.43497,-8.26477 -0.26051,-20.27373 -8.39772,-22.90016 z"
           id="path3317-9" />
        <path
           style="fill:#000000;fill-opacity:0.2819549;stroke:none"
           d="m -328.99253,299.93798 -0.40645,10.56744 19.50914,-15.44475 -19.10269,4.87731 z"
           id="path3327-3" />
        <path
           style="fill:#000000;fill-opacity:0.17213117;stroke:none"
           d="m -245.41954,399.52217 -5.63517,6.7622 14.56005,188.03175 c 6.85595,-2.37449 12.64321,-6.02944 16.96642,-11.30079 0.53881,-0.65698 0.25617,-6.07944 -0.57875,-14.56005 l -25.31255,-168.93311 z"
           id="path3756-5" />
        <path
           style="fill:#000000;fill-opacity:0.17213117;stroke:none"
           d="m -212.30914,337.68766 c 5.98266,47.85073 10.19369,100.76427 11.45309,117.27235 3.42422,-1.09831 6.3373,-2.64095 8.6812,-5.20872 0,0 -8.20984,-105.46944 -15.41294,-110.05325 -0.91572,-0.58273 -2.56409,-1.27079 -4.72135,-2.01038 z"
           id="path3761-4" />
      </g>
    </g>
  </g>
</svg>
