<?xml version="1.0" encoding="UTF-8" standalone="no"?>
<!-- Created with Inkscape (http://www.inkscape.org/) -->

<svg
   xmlns:dc="http://purl.org/dc/elements/1.1/"
   xmlns:cc="http://creativecommons.org/ns#"
   xmlns:rdf="http://www.w3.org/1999/02/22-rdf-syntax-ns#"
   xmlns:svg="http://www.w3.org/2000/svg"
   xmlns="http://www.w3.org/2000/svg"
   xmlns:xlink="http://www.w3.org/1999/xlink"
   xmlns:sodipodi="http://sodipodi.sourceforge.net/DTD/sodipodi-0.dtd"
   xmlns:inkscape="http://www.inkscape.org/namespaces/inkscape"
   width="104.50416"
   height="300"
   id="svg2"
   sodipodi:version="0.32"
   inkscape:version="0.47 r22583"
   version="1.0"
   sodipodi:docname="dgm01.svg"
   inkscape:output_extension="org.inkscape.output.svg.inkscape"
   inkscape:export-filename="/home/danigm/Documents/dgm10-800.png"
   inkscape:export-xdpi="180"
   inkscape:export-ydpi="180">
  <defs
     id="defs4">
    <linearGradient
       inkscape:collect="always"
       id="linearGradient3573">
      <stop
         style="stop-color:#73d216;stop-opacity:1;"
         offset="0"
         id="stop3575" />
      <stop
         style="stop-color:#4e9a06;stop-opacity:1"
         offset="1"
         id="stop3577" />
    </linearGradient>
    <inkscape:perspective
       sodipodi:type="inkscape:persp3d"
       inkscape:vp_x="0 : 526.18109 : 1"
       inkscape:vp_y="0 : 1000 : 0"
       inkscape:vp_z="744.09448 : 526.18109 : 1"
       inkscape:persp3d-origin="372.04724 : 350.78739 : 1"
       id="perspective10" />
    <linearGradient
       inkscape:collect="always"
       xlink:href="#linearGradient3573"
       id="linearGradient3579"
       x1="-40.975609"
       y1="-7.8048778"
       x2="-27.317072"
       y2="409.75607"
       gradientUnits="userSpaceOnUse" />
  </defs>
  <sodipodi:namedview
     id="base"
     pagecolor="#ffffff"
     bordercolor="#666666"
     borderopacity="1.0"
     inkscape:pageopacity="0.0"
     inkscape:pageshadow="2"
     inkscape:zoom="1.2166667"
     inkscape:cx="52.252079"
     inkscape:cy="150"
     inkscape:document-units="px"
     inkscape:current-layer="g3232"
     showgrid="false"
     borderlayer="true"
     inkscape:window-width="1024"
     inkscape:window-height="575"
     inkscape:window-x="0"
     inkscape:window-y="25"
     inkscape:window-maximized="1" />
  <metadata
     id="metadata7">
    <rdf:RDF>
      <cc:Work
         rdf:about="">
        <dc:format>image/svg+xml</dc:format>
        <dc:type
           rdf:resource="http://purl.org/dc/dcmitype/StillImage" />
        <dc:title />
      </cc:Work>
    </rdf:RDF>
  </metadata>
  <g
     inkscape:label="Capa 1"
     inkscape:groupmode="layer"
     id="layer1"
     transform="translate(-42.873384,-648.64135)">
    <g
       id="g3232"
       transform="matrix(1.0259238,0,0,1.0259238,-57.329259,5.6699817)">
      <g
         id="g3766"
         transform="matrix(0.31664708,0,0,0.31664708,66.743523,628.09951)">
        <path
           style="fill:#eec88c;fill-opacity:1;stroke:#000000;stroke-width:0.93370599;stroke-miterlimit:4;stroke-opacity:1;stroke-dasharray:none"
           d="m 368.60614,432.29273 9.01669,130.74159 c 0,0 27.04995,29.30412 24.79579,47.33743 -2.25416,18.03332 -74.38744,31.55833 -74.38744,31.55833 l 0,-220.90817 40.57496,11.27082 z"
           id="path3717" />
        <path
           id="path3715"
           d="m 174.82868,434.24219 -9.01669,130.74159 c 0,0 -27.04995,29.30412 -24.79579,47.33743 2.25416,18.03332 74.38744,31.55833 74.38744,31.55833 l 0,-220.90817 -40.57496,11.27082 z"
           style="fill:#eec88c;fill-opacity:1;stroke:#000000;stroke-width:0.93370599;stroke-miterlimit:4;stroke-opacity:1;stroke-dasharray:none" />
        <g
           transform="matrix(1.0631999,0,0,1.1778687,-13.298404,-104.07873)"
           id="g3738">
          <g
             id="g3684"
             transform="matrix(-1,0,0,1,544.21451,5.8483875)">
            <path
               style="fill:#ffffff;fill-opacity:1;stroke:#000000;stroke-width:1;stroke-miterlimit:4;stroke-opacity:1;stroke-dasharray:none"
               d="m 142.54081,824.55404 c 0,0 -37.60712,13.32716 -47.469306,21.6114 -9.862189,8.28424 -11.045652,30.37554 -11.045652,30.37554 0,0 1.183463,12.6236 14.201552,13.80707 13.018086,1.18346 44.182606,-12.22912 48.521976,-14.99053 4.33936,-2.76141 49.70543,-30.37554 49.70543,-30.37554 l 1.18346,-22.48579 -55.09746,2.05785 z"
               id="path3686"
               transform="matrix(0.97473126,0,0,0.97473126,55.880621,-5.5267084)" />
            <path
               style="fill:#000000;fill-opacity:1;stroke:#000000;stroke-width:1;stroke-miterlimit:4;stroke-opacity:1;stroke-dasharray:none"
               d="m 150.34375,824.28125 -7.8125,0.28125 c 0,0 -20.43022,7.21507 -35.125,14.34375 -6.02584,10.69715 -2.67454,16.78384 1.0625,17.53125 3.94488,0.78897 15.78598,2.76106 23.28125,-3.15625 7.49526,-5.91732 30,-19.34375 30,-19.34375 l -11.40625,-9.65625 z"
               transform="matrix(0.97473126,0,0,0.97473126,55.880621,-5.5267084)"
               id="path3688" />
            <path
               style="fill:#000000;fill-opacity:1;stroke:#000000;stroke-width:1;stroke-miterlimit:4;stroke-opacity:1;stroke-dasharray:none"
               d="m 196.65625,841.0625 -3.75,2.34375 c 0,0 -62.71945,35.09779 -69.03125,36.28125 -6.3118,1.18347 -23.28125,3.96875 -23.28125,3.96875 0,0 -5.321255,-12.41846 -15.96875,-12.6875 -0.481442,3.31835 -0.59375,5.5625 -0.59375,5.5625 0,0 1.169411,12.62903 14.1875,13.8125 13.01809,1.18346 44.19188,-12.23859 48.53125,-15 4.33936,-2.76141 49.71875,-30.375 49.71875,-30.375 l 0.1875,-3.90625 z"
               transform="matrix(0.97473126,0,0,0.97473126,55.880621,-5.5267084)"
               id="path3690" />
            <path
               style="fill:#000000;fill-opacity:1;stroke:#000000;stroke-width:0.91180694;stroke-miterlimit:4;stroke-opacity:1;stroke-dasharray:none"
               d="m 187.56047,823.78478 20.14301,15.10726 7.19393,-3.23727 -24.45937,-18.34452 -1.07908,6.47453 -1.79849,0 z"
               id="path3692" />
            <path
               id="path3694"
               d="m 195.63538,815.70985 20.14301,15.10728 7.19393,-3.23727 -24.45937,-18.34452 -1.07907,6.47451 -1.7985,0 z"
               style="fill:#000000;fill-opacity:1;stroke:#000000;stroke-width:0.91180694;stroke-miterlimit:4;stroke-opacity:1;stroke-dasharray:none" />
          </g>
          <g
             id="g3677">
            <path
               transform="matrix(0.97473126,0,0,0.97473126,55.880621,-5.5267084)"
               id="path3661"
               d="m 142.54081,824.55404 c 0,0 -37.60712,13.32716 -47.469306,21.6114 -9.862189,8.28424 -11.045652,30.37554 -11.045652,30.37554 0,0 1.183463,12.6236 14.201552,13.80707 13.018086,1.18346 44.182606,-12.22912 48.521976,-14.99053 4.33936,-2.76141 49.70543,-30.37554 49.70543,-30.37554 l 1.18346,-22.48579 -55.09746,2.05785 z"
               style="fill:#ffffff;fill-opacity:1;stroke:#000000;stroke-width:1;stroke-miterlimit:4;stroke-opacity:1;stroke-dasharray:none" />
            <path
               id="path3668"
               transform="matrix(0.97473126,0,0,0.97473126,55.880621,-5.5267084)"
               d="m 150.34375,824.28125 -7.8125,0.28125 c 0,0 -20.43022,7.21507 -35.125,14.34375 -6.02584,10.69715 -2.67454,16.78384 1.0625,17.53125 3.94488,0.78897 15.78598,2.76106 23.28125,-3.15625 7.49526,-5.91732 30,-19.34375 30,-19.34375 l -11.40625,-9.65625 z"
               style="fill:#000000;fill-opacity:1;stroke:#000000;stroke-width:1;stroke-miterlimit:4;stroke-opacity:1;stroke-dasharray:none" />
            <path
               id="path3663"
               transform="matrix(0.97473126,0,0,0.97473126,55.880621,-5.5267084)"
               d="m 196.65625,841.0625 -3.75,2.34375 c 0,0 -62.71945,35.09779 -69.03125,36.28125 -6.3118,1.18347 -23.28125,3.96875 -23.28125,3.96875 0,0 -5.321255,-12.41846 -15.96875,-12.6875 -0.481442,3.31835 -0.59375,5.5625 -0.59375,5.5625 0,0 1.169411,12.62903 14.1875,13.8125 13.01809,1.18346 44.19188,-12.23859 48.53125,-15 4.33936,-2.76141 49.71875,-30.375 49.71875,-30.375 l 0.1875,-3.90625 z"
               style="fill:#000000;fill-opacity:1;stroke:#000000;stroke-width:1;stroke-miterlimit:4;stroke-opacity:1;stroke-dasharray:none" />
            <path
               id="path3673"
               d="m 187.56047,823.78478 20.14301,15.10726 7.19393,-3.23727 -24.45937,-18.34452 -1.07908,6.47453 -1.79849,0 z"
               style="fill:#000000;fill-opacity:1;stroke:#000000;stroke-width:0.91180694;stroke-miterlimit:4;stroke-opacity:1;stroke-dasharray:none" />
            <path
               style="fill:#000000;fill-opacity:1;stroke:#000000;stroke-width:0.91180694;stroke-miterlimit:4;stroke-opacity:1;stroke-dasharray:none"
               d="m 195.63538,815.70985 20.14301,15.10728 7.19393,-3.23727 -24.45937,-18.34452 -1.07907,6.47451 -1.7985,0 z"
               id="path3675" />
          </g>
          <path
             style="fill:#707070;fill-opacity:1;stroke:#000000;stroke-width:1.11606526;stroke-opacity:1"
             d="m 196.366,529.5265 -2.57785,269.09974 c 15.72399,23.1161 44.56834,13.80293 54.10555,6.16509 l 2.10339,-162.48271 c 29.32041,10.15348 29.52923,4.93734 49.5768,4.30988 l -4.45522,162.72547 c 18.61014,7.67268 46.54059,3.72615 55.59677,-4.48409 L 343.46842,533.34962 196.366,529.5265 z"
             id="path2887"
             sodipodi:nodetypes="ccccccccc" />
          <path
             style="fill:#707070;fill-opacity:1;stroke:#000000;stroke-width:1;stroke-miterlimit:4;stroke-opacity:1;stroke-dasharray:none"
             d="m 205.21875,600.84375 c -4.89905,31.02737 1.77856,56.54203 5.46875,67.4375 7.71285,2.13656 12.81642,2.77772 17.25,2.71875 -1.37771,-2.05104 -3.41206,-6.19354 -6.34375,-14.5 -6.54919,-18.55602 6.53125,-55.65625 6.53125,-55.65625 l -22.90625,0 z"
             id="path3698"
             transform="matrix(0.97473126,0,0,0.97473126,55.880621,-5.5267084)" />
          <path
             style="fill:#000000;fill-opacity:0.30327866;stroke:none"
             d="m 296.34375,601.75 -10.375,5.65625 L 294.5,836 c 3.31521,-1.29985 6.0502,-2.85442 7.96875,-4.59375 L 296.34375,601.75 z"
             id="path3708"
             transform="matrix(0.97473126,0,0,0.97473126,55.880621,-5.5267084)" />
          <path
             style="fill:#000000;fill-opacity:0.30327866;stroke:none"
             d="m 188.84375,653.25 -2.125,183.625 c 4.28879,-1.61198 7.88282,-3.64173 10.28125,-5.5625 L 199.125,666.46875 188.84375,653.25 z"
             id="path3703"
             transform="matrix(0.97473126,0,0,0.97473126,55.880621,-5.5267084)" />
        </g>
        <path
           transform="matrix(0.97473126,0,0,0.97473126,55.880621,-5.5267084)"
           id="path3713"
           d="m 128.03298,603.57244 c 12.8033,3.41421 14.93718,4.69454 14.93718,4.69454 l -0.42678,-10.24264 -14.5104,5.5481 z"
           style="fill:#000000;fill-opacity:1;stroke:#000000;stroke-opacity:1" />
        <path
           style="fill:#eec88c;fill-opacity:1;stroke:#000000;stroke-width:0.95293266;stroke-miterlimit:4;stroke-opacity:1;stroke-dasharray:none"
           d="m 142.1224,45.37793 c -7.22321,7.509795 -13.50942,10.568975 -22.97174,28.714655 -7.19216,86.745255 7.31413,166.896995 15.59248,189.681215 10.53012,13.13457 39.89937,39.9238 53.22795,43.22105 34.64533,8.57053 69.00991,-7.77934 69.00991,-7.77934 l -0.58292,22.81855 c -0.84034,2.52905 -1.21315,4.92453 -7.0485,8.88074 l -62.82363,18.18253 32.23848,26.15434 122.65003,-12.9266 27.7367,-18.97064 -53.11063,-15.57691 c -4.57702,-2.37326 -8.56666,-5.33385 -10.21541,-10.63544 l -2.90066,-28.26386 c 19.285,-36.77083 16.82533,-54.84769 18.32657,-74.54989 L 309.04133,96.369811 265.34164,62.633432 C 230.11728,35.436394 185.62239,42.23102 142.1224,45.37793 z"
           id="path3155"
           sodipodi:nodetypes="cccscccccccccccccc" />
        <path
           sodipodi:nodetypes="cccscsscscc"
           id="path3334"
           d="m 139.80678,47.65554 c -6.30565,6.044895 -12.226,10.257271 -20.66674,26.443884 -7.19216,86.745256 7.32593,166.879146 15.60428,189.663376 10.53014,13.13456 39.88676,39.94213 53.21534,43.23933 0.99323,0.24573 1.98593,0.44945 2.97791,0.65513 -15.99139,-12.69741 -54.61429,-43.86366 -56.75906,-58.30757 -1.8369,-12.37064 -12.56227,-109.53749 -13.46017,-119.41437 -0.8979,-9.87688 1.66763,-53.63224 1.66763,-53.63224 0,0 3.16954,-9.831086 8.24883,-16.497645 5.07928,-6.666561 13.34107,-9.827123 13.34107,-9.827122 l -4.16909,-2.322773 z"
           style="fill:#ffffff;fill-opacity:0.2819549;stroke:none" />
        <path
           sodipodi:nodetypes="cscsc"
           id="path3167"
           d="m 148.33337,179.44873 c 0,-7.67068 1.21787,-71.05496 -14.00523,-70.6512 -15.2231,0.40371 -16.13648,69.84378 -16.13648,69.84378 0,0 7.3071,8.88182 12.17848,9.68929 4.87138,0.80747 17.35432,-7.6707 17.96323,-8.88187 z"
           style="fill:#ffffff;fill-opacity:1;stroke:#000000;stroke-width:0.95293254;stroke-miterlimit:4;stroke-opacity:1;stroke-dasharray:none" />
        <path
           id="path3305"
           d="m 141.74245,115.58178 c 2.16666,21.19535 0.66656,49.13002 -1.01251,69.17695 3.89443,-2.19961 7.28362,-4.68401 7.59369,-5.30069 0,-6.09975 0.75824,-47.40655 -6.58118,-63.87626 z"
           style="fill:#000000;fill-opacity:0.32706766;stroke:none" />
        <path
           style="fill:#000000;fill-opacity:1;stroke:#000000;stroke-width:0.95293278;stroke-miterlimit:4;stroke-opacity:1;stroke-dasharray:none"
           d="m 127.91808,136.92794 c -2.56411,0 -4.96339,1.54549 -6.99621,4.1855 -2.34228,17.39931 -2.66034,35.14118 -2.68851,36.8752 3.70668,-2.52767 8.47609,-4.11394 14.5729,-4.0633 2.32669,0.0193 4.85489,0.26447 7.57668,0.79435 0.54917,-3.05305 0.85543,-6.34797 0.85543,-9.8069 0,-6.57502 -1.09182,-12.60381 -2.90235,-17.3836 l -6.90456,0.82485 3.36062,-7.39335 c -2.00501,-2.54041 -4.36386,-4.03275 -6.874,-4.03275 z"
           id="path3171" />
        <path
           sodipodi:nodetypes="ccccc"
           id="path3224"
           d="m 100.05298,184.51437 45.76002,0 0,-44.85016 -45.76002,1.10739 0,43.74277 z"
           style="fill:#ffffff;fill-opacity:0.2518797;stroke:#000000;stroke-width:4.76466274;stroke-miterlimit:4;stroke-opacity:1;stroke-dasharray:none" />
        <path
           style="fill:#eec88c;fill-opacity:1;stroke:#000000;stroke-width:0.95293266;stroke-miterlimit:4;stroke-opacity:1;stroke-dasharray:none"
           d="m 149.52371,177.29865 c -34.33652,-12.39928 -43.0961,12.20491 -42.43948,25.81379 1.1631,24.30921 25.71278,32.0427 43.39324,19.96823"
           id="path3153"
           sodipodi:nodetypes="csc" />
        <path
           style="fill:#eec88c;fill-opacity:1;stroke:#000000;stroke-width:0.9529326;stroke-miterlimit:4;stroke-opacity:1;stroke-dasharray:none"
           d="m 317.29649,187.39149 c 26.32274,-15.79366 28.29694,5.26454 27.63888,17.76784 -0.65808,12.50327 -25.00664,12.50327 -25.00664,12.50327"
           id="path3157" />
        <path
           style="fill:#eec88c;fill-opacity:1;stroke:#000000;stroke-width:0.95293266;stroke-miterlimit:4;stroke-opacity:1;stroke-dasharray:none"
           d="m 336.00664,187.71512 c 0,0 -10.52182,0.55375 -11.62936,4.98396 -1.10754,4.43027 -0.55374,8.86048 -0.55374,8.86048 l 3.32262,5.53776 -2.76888,3.87647"
           id="path3159" />
        <path
           style="fill:#eec88c;fill-opacity:1;stroke:#000000;stroke-width:0.95293266;stroke-miterlimit:4;stroke-opacity:1;stroke-dasharray:none"
           d="m 334.33243,188.09554 1.04414,1.7178"
           id="path3161" />
        <path
           style="fill:#8f5902;fill-opacity:1;stroke:#000000;stroke-width:0.95293266;stroke-miterlimit:4;stroke-opacity:1;stroke-dasharray:none"
           d="m 139.59825,46.466868 -25.51677,-31.428062 24.85431,9.03106 8.82385,-27.6743109 14.17039,28.3596589 26.72447,-24.14989242 -6.01397,23.45441342 24.05584,-7.818139 -3.00701,9.622326 c 0,0 81.84037,-3.603376 100.74092,7.746722 47.45852,16.861465 20.39964,106.942766 21.34234,151.928126 l -10.22374,3.00701 0.6014,23.45439 -6.61532,0.6014 -2.40561,-33.07672 c 0,0 -30.67117,0.6014 -33.67813,-4.20977 -3.00696,-4.81117 -4.81117,-9.62233 -4.81117,-9.62233 l -6.011,-79.843348 4.81117,-5.412556 -8.41953,-2.405579 10.22374,-6.61535 -17.44047,0 4.81117,-9.020929 -23.45444,-3.608369 C 208.57915,39.3934 164.66418,56.998767 139.59825,46.466868 z"
           id="path3163"
           sodipodi:nodetypes="cccccccccccccccsccccccccc" />
        <path
           id="path3276"
           d="m 276.04639,92.949628 -12.06054,11.256502 0.83379,11.01828 8.87418,-7.02785 4.10953,9.97602 17.00391,-10.54181 2.35252,13.48994 16.4083,-8.81462 -0.56579,10.57158 8.21905,-3.51392 9.64846,5.44954 c 0.88467,-9.28328 1.5555,-18.60842 1.69739,-27.605247 l -0.20842,-0.148897 -11.73298,7.623444 -2.94818,-9.975997 -14.05573,10.571607 -5.86649,-10.571607 -15.27671,9.975997 -6.43229,-11.732962 z"
           style="fill:#000000;fill-opacity:0.32706766;stroke:none" />
        <path
           style="fill:#ffffff;fill-opacity:1;stroke:#000000;stroke-width:0.95293266;stroke-miterlimit:4;stroke-opacity:1;stroke-dasharray:none"
           d="m 178.9928,185.71149 c 0,-9.16161 -2.17244,-84.86576 24.98288,-84.38358 27.15532,0.48221 28.78462,83.4192 28.78462,83.4192 0,0 -13.03453,10.60824 -21.72424,11.57263 -8.68968,0.9644 -30.95706,-9.16165 -32.04326,-10.60825 z"
           id="path3165"
           sodipodi:nodetypes="cscsc" />
        <path
           id="path3300"
           d="m 214.70131,106.73736 c 10.47932,28.33864 9.22958,66.19226 7.71283,85.10884 5.64031,-3.26619 10.33335,-7.08747 10.33335,-7.08747 0,0 -1.1572,-59.56156 -18.04618,-78.02137 z"
           style="fill:#000000;fill-opacity:0.32706766;stroke:none" />
        <path
           style="fill:#000000;fill-opacity:1;stroke:#000000;stroke-width:0.95293266;stroke-miterlimit:4;stroke-opacity:1;stroke-dasharray:none"
           d="m 190.77932,137.43725 c -3.9118,0 -7.4832,3.11143 -10.19123,8.18478 -2.03027,18.17517 -1.59236,35.94962 -1.59236,40.09606 0.75609,1.00699 11.77908,6.19918 21.33786,8.94917 3.48638,-5.89761 5.76441,-14.93788 5.76441,-25.064 0,-5.9866 -0.80721,-11.56776 -2.16567,-16.36965 l -10.76446,0.5414 5.22303,-12.07018 c -2.24538,-2.71215 -4.83725,-4.26758 -7.61158,-4.26758 z"
           id="path3169" />
        <path
           style="fill:none;stroke:#000000;stroke-width:0.9529326;stroke-miterlimit:4;stroke-opacity:1;stroke-dasharray:none"
           d="m 176.3095,90.717631 c 19.71694,-18.002453 35.14765,-13.716155 44.14888,-8.143967 9.00119,5.572188 11.57299,10.715745 9.85845,10.715745"
           id="path3191" />
        <path
           id="path3193"
           d="m 110.71044,95.981562 c 14.86422,-13.571679 26.4971,-10.340324 33.28294,-6.139567 6.78583,4.200756 8.72465,8.078381 7.43208,8.078381"
           style="fill:none;stroke:#000000;stroke-width:0.9529326;stroke-miterlimit:4;stroke-opacity:1;stroke-dasharray:none" />
        <path
           style="fill:none;stroke:#000000;stroke-width:0.95293266;stroke-miterlimit:4;stroke-opacity:1;stroke-dasharray:none"
           d="m 143.18724,237.85597 -2.67079,13.35376 c 58.58369,-2.67927 101.21865,-21.67662 147.5585,-56.27631 15.37381,20.43573 19.05882,46.40198 14.68911,71.10887 -43.48063,28.81371 -79.26216,33.97536 -118.18017,34.91025"
           id="path3195"
           sodipodi:nodetypes="ccccc" />
        <path
           style="fill:#000000;fill-opacity:1;stroke:#000000;stroke-width:0.95293266;stroke-miterlimit:4;stroke-opacity:1;stroke-dasharray:none"
           d="m 288.06712,194.94454 c -31.0321,23.17019 -60.39439,39.33986 -94.00585,48.30135 22.15135,21.98634 21.61871,35.24582 18.6973,55.9697 28.71843,-3.14877 57.17055,-11.42071 90.00365,-33.17855 4.36971,-24.70689 0.67877,-50.65677 -14.6951,-71.0925 z"
           id="path3197" />
        <path
           id="path3216"
           d="m 281.23514,263.5425 c -16.70454,-17.53975 -30.06817,-2.08807 -33.82671,1.25284 -3.75854,3.34094 -6.6818,21.29831 -6.6818,21.29831 l 36.74998,-13.36363 3.75853,-9.18752 z"
           style="fill:#ef2929;fill-opacity:1;stroke:#000000;stroke-width:0.9529326;stroke-miterlimit:4;stroke-opacity:1;stroke-dasharray:none" />
        <path
           style="fill:#ffffff;fill-opacity:1;stroke:#000000;stroke-width:0.95293266;stroke-miterlimit:4;stroke-opacity:1;stroke-dasharray:none"
           d="m 288.06712,194.94454 c -42.40002,31.65799 -81.70697,50.25089 -132.95855,55.23645 l 0,5.86584 1.7109,2.62736 c 8.26091,-0.50221 53.11585,-3.65635 74.72805,-14.63395 18.77051,-9.5342 50.52947,-29.57287 63.54635,-37.88345 -1.99448,-3.88029 -4.33519,-7.63453 -7.02675,-11.21225 z"
           id="path3204" />
        <path
           style="fill:#ef2929;fill-opacity:1;stroke:#000000;stroke-width:0.95293266;stroke-miterlimit:4;stroke-opacity:1;stroke-dasharray:none"
           d="m 293.58764,261.06165 c -15.13511,-15.89183 -27.24321,-1.89186 -30.64861,1.13515 -3.40539,3.02701 -6.05402,19.29722 -6.05402,19.29722 l 33.29724,-12.10805 3.40539,-8.32432 z"
           id="path3214" />
        <path
           style="fill:#ffffff;fill-opacity:1;stroke:#000000;stroke-width:0.95293266;stroke-miterlimit:4;stroke-opacity:1;stroke-dasharray:none"
           d="m 304.19812,254.58034 c -11.00544,5.78044 -36.02634,18.81225 -46.5599,23.49385 -13.62158,6.05402 -62.81315,15.15336 -62.81315,15.15335 l 0,7.3323 c 35.05343,-1.67102 68.29599,-8.25339 107.93715,-34.5228 0.67208,-3.79989 1.15811,-7.62193 1.4359,-11.4567 z"
           id="path3209" />
        <path
           style="fill:#ef2929;fill-opacity:1;stroke:#000000;stroke-width:0.95293266;stroke-miterlimit:4;stroke-opacity:1;stroke-dasharray:none"
           d="m 250.98278,301.34021 24.56144,-8.18719"
           id="path3218" />
        <path
           id="path3322"
           d="m 320.65555,216.50332 -5.4496,8.75504 c 0,0 1.63338,19.66175 -4.37752,33.32289 -6.0109,13.66113 -13.66865,30.04714 -13.66865,30.04714 0,10e-6 2.75759,28.41528 4.94337,32.78685 2.18578,4.37155 16.91453,13.66865 16.91453,13.66865 l 3.39483,-5.41983 -6.37272,-1.87605 c -4.57701,-2.37331 -8.56555,-5.32961 -10.21425,-10.6312 l -2.8886,-28.29018 c 18.4004,-35.08415 16.99821,-53.13031 18.1355,-71.82728 l -0.41689,-0.53603 z"
           style="fill:#000000;fill-opacity:0.2819549;stroke:none" />
        <path
           sodipodi:nodetypes="cscscssssssccsc"
           style="fill:#00a307;fill-opacity:1;stroke:#000000;stroke-width:0.95293266;stroke-miterlimit:4;stroke-opacity:1;stroke-dasharray:none"
           d="m 243.28837,326.95505 c 12.44177,16.37072 45.83808,15.71591 56.31532,11.78691 10.47729,-3.92896 19.64492,-15.71592 19.64492,-15.71592 0,0 51.73151,10.4773 58.93465,15.06111 7.2031,4.58381 15.42455,110.07211 15.42455,110.07211 -4.90044,5.36849 -12.34218,6.1909 -21.57184,8.04728 -5.44526,1.09521 -21.40135,-1.33902 -21.66317,-3.33646 -0.59098,-4.50841 -5.67804,-40.91784 -6.87157,-48.13498 -0.80045,-4.84029 26.00462,172.70082 22.73275,176.69025 -31.28541,38.14678 -138.21697,-9.54718 -185.7904,1.4818 -2.5833,0.59889 20.52465,-182.78052 19.81238,-180.22754 -2.14649,7.69363 -3.76993,42.77995 -6.48192,55.29043 -22.82382,1.40192 -28.92273,-3.28765 -37.50137,-6.79115 0,0 16.94894,-101.30483 22.18756,-105.88864 5.23863,-4.58382 65.48295,-17.02559 64.82814,-18.3352 z"
           id="path3220" />
        <path
           style="fill:#ffffff;fill-opacity:0.2518797;stroke:#000000;stroke-width:4.76466274;stroke-miterlimit:4;stroke-opacity:1;stroke-dasharray:none"
           d="m 169.51549,187.64208 74.72382,0 0,-51.10561 -74.72382,1.26188 0,49.84373 z"
           id="path3222"
           sodipodi:nodetypes="ccccc" />
        <path
           style="fill:#000000;fill-opacity:1;stroke:#000000;stroke-width:4.76466322;stroke-miterlimit:4;stroke-opacity:1;stroke-dasharray:none"
           d="m 146.37792,158.22639 22.42746,0 0.43501,6.87528 -23.42054,-0.60051 0.55807,-6.27477 z"
           id="path3226"
           sodipodi:nodetypes="ccccc" />
        <path
           style="fill:#000000;fill-opacity:1;stroke:#000000;stroke-width:4.76466322;stroke-miterlimit:4;stroke-opacity:1;stroke-dasharray:none"
           d="m 245.95877,152.39141 92.23415,8.42645 -0.93624,7.49016 -91.75462,-3.74505 0.45671,-12.17156 z"
           id="path3228"
           sodipodi:nodetypes="ccccc" />
        <path
           style="fill:#cc0000;fill-opacity:1;stroke:none"
           d="M 254.31936,147.96966 255.0473,170.02 c 0,0 23.60613,0.62115 23.39814,0 -0.20799,-0.62114 -0.72794,-19.41048 -0.72794,-19.41048 l -23.39814,-2.63986 z"
           id="path3230" />
        <path
           sodipodi:nodetypes="cccc"
           id="path3263"
           d="m 147.42549,-4.3430566 9.33432,35.4703406 5.39317,-5.808009 -14.72749,-29.6623316 z"
           style="fill:#000000;fill-opacity:0.32706766;stroke:none" />
        <path
           id="path3265"
           d="m 113.40716,14.118116 25.7212,9.956586 1.45199,4.563435 -27.17319,-14.520021 z"
           style="fill:#000000;fill-opacity:0.32706766;stroke:none" />
        <path
           id="path3267"
           d="m 189.11874,-0.81676569 -13.48291,27.79547169 7.26004,-2.696575 6.22287,-25.09889669 z"
           style="fill:#000000;fill-opacity:0.32706766;stroke:none" />
        <path
           id="path3269"
           d="m 206.95759,15.984976 -10.57887,11.616016 7.88231,-2.074288 2.69656,-9.541728 z"
           style="fill:#000000;fill-opacity:0.32706766;stroke:none" />
        <path
           sodipodi:nodetypes="ccccc"
           id="path3271"
           d="m 294.86678,30.056067 c 43.20975,17.524432 28.43728,138.394213 27.00969,156.638333 l 3.90111,-1.1614 c -0.9427,-44.98536 26.10685,-135.071749 -21.35167,-151.933216 -2.32694,-1.39738 -5.59432,-2.565027 -9.55913,-3.543717 z"
           style="fill:#000000;fill-opacity:0.32706766;stroke:none" />
        <path
           id="path3281"
           d="m 252.37742,71.038621 c 0.46953,-0.117374 21.24479,-4.460226 21.24479,-4.460226 l -3.05174,4.460226 -18.19305,0 z"
           style="fill:#000000;fill-opacity:0.32706766;stroke:none" />
        <path
           id="path3283"
           d="m 259.30252,77.728964 c 0,0 13.49808,1.05637 13.02859,1.05637 -0.46953,0 -4.46025,1.64324 -4.46025,1.64324 l -8.56834,-2.69961 z"
           style="fill:#000000;fill-opacity:0.32706766;stroke:none" />
        <path
           id="path3285"
           d="m 205.8867,47.059958 c -9.43053,-0.09758 -22.37338,0.595448 -39.99341,2.739683 l 1.81653,0.297788 c 22.70535,-0.502638 48.62022,-4.585683 65.45461,8.695513 l 20.90492,3.216149 2.56104,-0.297794 -21.38143,-5.44958 c 0,0 -3.22114,-3.490508 -5.95583,-5.479364 -1.70916,-1.243035 -7.68884,-3.559731 -23.40643,-3.722395 z"
           style="fill:#000000;fill-opacity:0.32706766;stroke:none" />
        <path
           id="path3290"
           d="m 310.76886,175.49741 c 0,0 -14.17496,1.24024 -24.89535,2.50147 l 0.17866,0.83379 c 9.60237,0.92729 21.08363,0.68494 21.08363,0.68494 l 0.0299,0.59559 3.60325,-4.61579 z"
           style="fill:#000000;fill-opacity:0.32706766;stroke:none" />
        <path
           sodipodi:nodetypes="cccccc"
           id="path3295"
           d="m 154.90058,215.73409 c -5.81695,3.65038 -22.07097,12.03711 -34.03335,9.70298 l -0.50624,0.23824 c 8.47628,4.47761 19.5707,4.01063 28.9751,-1.87611 l 1.10183,-1.84629 4.46266,-6.21882 z"
           style="fill:#000000;fill-opacity:0.32706766;stroke:none" />
        <path
           sodipodi:nodetypes="ccccc"
           id="path3312"
           d="m 288.07717,194.94322 c -42.40002,31.65798 -81.71239,50.25475 -132.96392,55.24031 l 0.41111,1.46419 c 56.81134,-1.65411 99.49531,-28.85908 134.48843,-53.99461 -0.62909,-0.91569 -1.26274,-1.81548 -1.93562,-2.70989 z"
           style="fill:#000000;fill-opacity:0.19172932;stroke:none" />
        <path
           id="path3317"
           d="m 336.52782,182.25731 c 9.06335,11.99899 1.07592,28.1935 -1.69739,33.05484 5.20054,-1.75012 9.81318,-4.79836 10.09511,-10.15468 0.43497,-8.26477 -0.26051,-20.27373 -8.39772,-22.90016 z"
           style="fill:#000000;fill-opacity:0.2819549;stroke:none" />
        <path
           id="path3327"
           d="m 256.77686,298.33646 -0.40645,10.56744 19.50914,-15.44475 -19.10269,4.87731 z"
           style="fill:#000000;fill-opacity:0.2819549;stroke:none" />
        <path
           id="path3756"
           transform="matrix(0.97473126,0,0,0.97473126,55.880621,-5.5267084)"
           d="m 291.84375,413.90625 -5.78125,6.9375 L 301,613.75 c 7.03368,-2.43605 12.97097,-6.18575 17.40625,-11.59375 0.55278,-0.67401 0.26281,-6.23704 -0.59375,-14.9375 l -25.96875,-173.3125 z"
           style="fill:#000000;fill-opacity:0.17213117;stroke:none" />
        <path
           id="path3761"
           transform="matrix(0.97473126,0,0,0.97473126,55.880621,-5.5267084)"
           d="m 325.8125,350.46875 c 6.13775,49.0912 10.45795,103.37647 11.75,120.3125 3.51299,-1.12678 6.50159,-2.70942 8.90625,-5.34375 0,0 -8.42267,-108.20361 -15.8125,-112.90625 -0.93946,-0.59784 -2.63057,-1.30373 -4.84375,-2.0625 z"
           style="fill:#000000;fill-opacity:0.17213117;stroke:none" />
      </g>
    </g>
  </g>
</svg>
