<?xml version="1.0" encoding="UTF-8" standalone="no"?>
<!-- Created with Inkscape (http://www.inkscape.org/) -->

<svg
   xmlns:svg="http://www.w3.org/2000/svg"
   xmlns="http://www.w3.org/2000/svg"
   version="1.0"
   width="41.945606"
   height="27.568192"
   id="svg2">
  <defs
     id="defs4" />
  <g
     transform="translate(-223.03599,-962.6313)"
     id="layer1" />
  <g
     transform="translate(-223.03599,-962.6313)"
     id="layer2">
    <path
       d="m 261.42689,964.6586 3.0547,4.8875 c -12.93432,0.8067 -27.90103,3.5623 -37.87824,-6.4148 -12.80606,32.6243 17.76337,28.1314 33.90713,22.9102"
       id="path4931"
       style="fill:none;stroke:#000000;stroke-width:1;stroke-miterlimit:4;stroke-opacity:1;stroke-dasharray:none" />
    <path
       d="m 226.59281,963.1328 c -12.21176,31.1103 15.00986,28.4647 31.5625,23.625 -0.88544,-4.6757 -1.49859,-11.2881 -0.3125,-16.7188 -11.17141,0.8723 -22.94331,1.4003 -31.25,-6.9062 z"
       id="path4933"
       style="fill:#ef2929;fill-opacity:1;stroke:#000000;stroke-width:1;stroke-miterlimit:4;stroke-opacity:1;stroke-dasharray:none" />
    <path
       d="m 226.59281,963.1328 c -0.64504,1.6432 -1.13017,3.1654 -1.5625,4.625 14.10366,6.502 30.28542,6.3494 36,6.0625 l 0.1875,-4.0313 c -12.12784,0.9436 -25.47396,2.4947 -34.625,-6.6562 z m 34.625,6.6562 c 0.17873,-0.014 0.35307,-0.018 0.53125,-0.031 l -0.53125,0.031 z"
       id="path4935"
       style="fill:#ffffff;fill-opacity:1;stroke:#000000;stroke-width:1;stroke-miterlimit:4;stroke-opacity:1;stroke-dasharray:none" />
    <path
       d="m 224.09281,980.7578 c 3.60999,12.7729 24.15696,9.2429 36.40625,5.2812 l 0.15625,-3.7187 c -4.88701,0.6227 -14.28806,1.75 -18.0625,1.75 -3.58991,0 -12.9368,-2.0385 -18.5,-3.3125 z"
       id="path4937"
       style="fill:#ffffff;fill-opacity:1;stroke:#000000;stroke-width:1;stroke-miterlimit:4;stroke-opacity:1;stroke-dasharray:none" />
  </g>
  <g
     transform="translate(-223.03599,-962.6313)"
     id="layer3" />
  <g
     transform="translate(-223.03599,-962.6313)"
     id="layer4" />
</svg>
