<?xml version="1.0" encoding="UTF-8" standalone="no"?>
<!-- Created with Inkscape (http://www.inkscape.org/) -->

<svg
   xmlns:svg="http://www.w3.org/2000/svg"
   xmlns="http://www.w3.org/2000/svg"
   xmlns:xlink="http://www.w3.org/1999/xlink"
   version="1.1"
   width="48"
   height="48"
   id="svg57">
  <defs
     id="defs3">
    <linearGradient
       id="linearGradient3241">
      <stop
         id="stop3243"
         style="stop-color:#ffffff;stop-opacity:1"
         offset="0" />
      <stop
         id="stop3245"
         style="stop-color:#ffffff;stop-opacity:0"
         offset="1" />
    </linearGradient>
    <linearGradient
       id="linearGradient3229">
      <stop
         id="stop3231"
         style="stop-color:#598bcb;stop-opacity:1"
         offset="0" />
      <stop
         id="stop3249"
         style="stop-color:#2f5c96;stop-opacity:1"
         offset="0.75675678" />
      <stop
         id="stop3233"
         style="stop-color:#203e65;stop-opacity:1"
         offset="1" />
    </linearGradient>
    <linearGradient
       id="linearGradient3175">
      <stop
         id="stop3177"
         style="stop-color:#000000;stop-opacity:1"
         offset="0" />
      <stop
         id="stop3179"
         style="stop-color:#000000;stop-opacity:0"
         offset="1" />
    </linearGradient>
    <linearGradient
       id="linearGradient3159">
      <stop
         id="stop3161"
         style="stop-color:#000000;stop-opacity:1"
         offset="0" />
      <stop
         id="stop3163"
         style="stop-color:#000000;stop-opacity:0"
         offset="1" />
    </linearGradient>
    <linearGradient
       id="linearGradient3141">
      <stop
         id="stop3143"
         style="stop-color:#a40000;stop-opacity:1"
         offset="0" />
      <stop
         id="stop3145"
         style="stop-color:#ffc4c4;stop-opacity:1"
         offset="1" />
    </linearGradient>
    <linearGradient
       id="linearGradient3008">
      <stop
         id="stop3010"
         style="stop-color:#ffffff;stop-opacity:1"
         offset="0" />
      <stop
         id="stop3012"
         style="stop-color:#d3d3d3;stop-opacity:1"
         offset="1" />
    </linearGradient>
    <linearGradient
       id="linearGradient2978">
      <stop
         id="stop2980"
         style="stop-color:#ffffff;stop-opacity:1"
         offset="0" />
      <stop
         id="stop2982"
         style="stop-color:#d5d5d5;stop-opacity:1"
         offset="1" />
    </linearGradient>
    <linearGradient
       id="linearGradient2964">
      <stop
         id="stop2966"
         style="stop-color:#000000;stop-opacity:1"
         offset="0" />
      <stop
         id="stop2968"
         style="stop-color:#000000;stop-opacity:0"
         offset="1" />
    </linearGradient>
    <radialGradient
       cx="605.71429"
       cy="486.64789"
       r="117.14286"
       fx="605.71429"
       fy="486.64789"
       id="radialGradient6719"
       xlink:href="#linearGradient5060"
       gradientUnits="userSpaceOnUse"
       gradientTransform="matrix(-2.774389,0,0,1.969706,112.7623,-872.8854)" />
    <linearGradient
       id="linearGradient5060">
      <stop
         id="stop5062"
         style="stop-color:#000000;stop-opacity:1"
         offset="0" />
      <stop
         id="stop5064"
         style="stop-color:#000000;stop-opacity:0"
         offset="1" />
    </linearGradient>
    <radialGradient
       cx="605.71429"
       cy="486.64789"
       r="117.14286"
       fx="605.71429"
       fy="486.64789"
       id="radialGradient6717"
       xlink:href="#linearGradient5060"
       gradientUnits="userSpaceOnUse"
       gradientTransform="matrix(2.774389,0,0,1.969706,-1891.633,-872.8854)" />
    <linearGradient
       id="linearGradient5048">
      <stop
         id="stop5050"
         style="stop-color:#000000;stop-opacity:0"
         offset="0" />
      <stop
         id="stop5056"
         style="stop-color:#000000;stop-opacity:1"
         offset="0.5" />
      <stop
         id="stop5052"
         style="stop-color:#000000;stop-opacity:0"
         offset="1" />
    </linearGradient>
    <linearGradient
       x1="302.85715"
       y1="366.64789"
       x2="302.85715"
       y2="609.50507"
       id="linearGradient6715"
       xlink:href="#linearGradient5048"
       gradientUnits="userSpaceOnUse"
       gradientTransform="matrix(2.774389,0,0,1.969706,-1892.179,-872.8854)" />
    <linearGradient
       id="linearGradient381">
      <stop
         id="stop382"
         style="stop-color:#ffffff;stop-opacity:1"
         offset="0" />
      <stop
         id="stop383"
         style="stop-color:#ffffff;stop-opacity:0.84466022"
         offset="1" />
    </linearGradient>
    <linearGradient
       id="linearGradient368">
      <stop
         id="stop369"
         style="stop-color:#ffffff;stop-opacity:0.10309278"
         offset="0" />
      <stop
         id="stop372"
         style="stop-color:#ffffff;stop-opacity:0"
         offset="1" />
    </linearGradient>
    <linearGradient
       id="linearGradient1065">
      <stop
         id="stop1066"
         style="stop-color:#b5c051;stop-opacity:1"
         offset="0" />
      <stop
         id="stop1067"
         style="stop-color:#858e3f;stop-opacity:1"
         offset="1" />
    </linearGradient>
    <linearGradient
       id="linearGradient172">
      <stop
         id="stop173"
         style="stop-color:#616c08;stop-opacity:1"
         offset="0" />
      <stop
         id="stop174"
         style="stop-color:#495106;stop-opacity:1"
         offset="1" />
    </linearGradient>
    <linearGradient
       id="linearGradient161">
      <stop
         id="stop162"
         style="stop-color:#575955;stop-opacity:1"
         offset="0" />
      <stop
         id="stop163"
         style="stop-color:#7c7e79;stop-opacity:1"
         offset="1" />
    </linearGradient>
    <linearGradient
       id="linearGradient157">
      <stop
         id="stop158"
         style="stop-color:#babdb6;stop-opacity:1"
         offset="0" />
      <stop
         id="stop159"
         style="stop-color:#f1f5ec;stop-opacity:1"
         offset="1" />
    </linearGradient>
    <linearGradient
       id="linearGradient149">
      <stop
         id="stop150"
         style="stop-color:#000000;stop-opacity:1"
         offset="0" />
      <stop
         id="stop151"
         style="stop-color:#000000;stop-opacity:0"
         offset="1" />
    </linearGradient>
    <linearGradient
       id="linearGradient1869">
      <stop
         id="stop1870"
         style="stop-color:#c9c9c9;stop-opacity:1"
         offset="0" />
      <stop
         id="stop1871"
         style="stop-color:#787a7b;stop-opacity:1"
         offset="1" />
    </linearGradient>
    <linearGradient
       x1="7.3738608"
       y1="27.376621"
       x2="7.5291119"
       y2="69.460503"
       id="linearGradient152"
       xlink:href="#linearGradient149"
       gradientUnits="userSpaceOnUse"
       gradientTransform="matrix(3.495016,0,0,0.344323,-2.972087,-0.03408148)" />
    <linearGradient
       x1="7.3738608"
       y1="27.376621"
       x2="7.5291119"
       y2="69.460503"
       id="linearGradient2058"
       xlink:href="#linearGradient149"
       gradientUnits="userSpaceOnUse"
       gradientTransform="matrix(3.520411,0,0,0.348016,-3.037918,1.544257)" />
    <linearGradient
       x1="27.5"
       y1="14"
       x2="27.625"
       y2="18.750015"
       id="linearGradient2970"
       xlink:href="#linearGradient2964"
       gradientUnits="userSpaceOnUse"
       gradientTransform="matrix(1,0,0,0.799991,0,-1.199875)" />
    <radialGradient
       cx="9.5796242"
       cy="33.588264"
       r="2.5527742"
       fx="9.5796242"
       fy="33.588264"
       id="radialGradient2984"
       xlink:href="#linearGradient2978"
       gradientUnits="userSpaceOnUse"
       gradientTransform="matrix(3.146715,0.06924886,-0.06039991,2.744612,-17.82887,-61.79699)" />
    <radialGradient
       cx="9.5796242"
       cy="33.588264"
       r="2.5527742"
       fx="9.5796242"
       fy="33.588264"
       id="radialGradient2988"
       xlink:href="#linearGradient2978"
       gradientUnits="userSpaceOnUse"
       gradientTransform="matrix(3.146715,0.06924886,-0.06039991,2.744612,-16.18243,-61.79699)" />
    <radialGradient
       cx="9.5796242"
       cy="33.588264"
       r="2.5527742"
       fx="9.5796242"
       fy="33.588264"
       id="radialGradient2992"
       xlink:href="#linearGradient2978"
       gradientUnits="userSpaceOnUse"
       gradientTransform="matrix(3.146715,0.06924886,-0.06039991,2.744612,-14.33255,-61.89699)" />
    <radialGradient
       cx="9.5796242"
       cy="33.588264"
       r="2.5527742"
       fx="9.5796242"
       fy="33.588264"
       id="radialGradient2996"
       xlink:href="#linearGradient2978"
       gradientUnits="userSpaceOnUse"
       gradientTransform="matrix(3.146715,0.06924886,-0.06039991,2.744612,-12.67991,-61.03155)" />
    <radialGradient
       cx="9.5796242"
       cy="33.588264"
       r="2.5527742"
       fx="9.5796242"
       fy="33.588264"
       id="radialGradient3000"
       xlink:href="#linearGradient2978"
       gradientUnits="userSpaceOnUse"
       gradientTransform="matrix(3.146715,0.06924886,-0.06039991,2.744612,-10.78506,-60.99081)" />
    <radialGradient
       cx="9.5796242"
       cy="33.588264"
       r="2.5527742"
       fx="9.5796242"
       fy="33.588264"
       id="radialGradient3004"
       xlink:href="#linearGradient2978"
       gradientUnits="userSpaceOnUse"
       gradientTransform="matrix(3.146715,0.06924886,-0.06039991,2.744612,-19.58362,-61.75172)" />
    <linearGradient
       x1="26.151339"
       y1="-5.7401156"
       x2="27.500387"
       y2="13.351768"
       id="linearGradient3097"
       xlink:href="#linearGradient3008"
       gradientUnits="userSpaceOnUse"
       gradientTransform="matrix(0.984533,0,0,1.203586,0.971903,-2.123191)" />
    <radialGradient
       cx="9.5796242"
       cy="33.588264"
       r="2.5527742"
       fx="9.5796242"
       fy="33.588264"
       id="radialGradient3107"
       xlink:href="#linearGradient2978"
       gradientUnits="userSpaceOnUse"
       gradientTransform="matrix(3.146715,0.06924886,-0.06039991,2.744612,-8.332562,-61.89699)" />
    <radialGradient
       cx="9.5796242"
       cy="33.588264"
       r="2.5527742"
       fx="9.5796242"
       fy="33.588264"
       id="radialGradient3111"
       xlink:href="#linearGradient2978"
       gradientUnits="userSpaceOnUse"
       gradientTransform="matrix(3.146715,0.06924886,-0.06039991,2.744612,-6.332562,-61.89699)" />
    <radialGradient
       cx="9.5796242"
       cy="33.588264"
       r="2.5527742"
       fx="9.5796242"
       fy="33.588264"
       id="radialGradient3115"
       xlink:href="#linearGradient2978"
       gradientUnits="userSpaceOnUse"
       gradientTransform="matrix(3.146715,0.06924886,-0.06039991,2.744612,-4.332562,-61.89699)" />
    <radialGradient
       cx="9.5796242"
       cy="33.588264"
       r="2.5527742"
       fx="9.5796242"
       fy="33.588264"
       id="radialGradient3119"
       xlink:href="#linearGradient2978"
       gradientUnits="userSpaceOnUse"
       gradientTransform="matrix(3.146715,0.06924886,-0.06039991,2.744612,-2.332562,-61.89699)" />
    <radialGradient
       cx="9.5796242"
       cy="33.588264"
       r="2.5527742"
       fx="9.5796242"
       fy="33.588264"
       id="radialGradient3123"
       xlink:href="#linearGradient2978"
       gradientUnits="userSpaceOnUse"
       gradientTransform="matrix(3.146715,0.06924886,-0.06039991,2.744612,-0.332562,-61.89699)" />
    <radialGradient
       cx="9.5796242"
       cy="33.588264"
       r="2.5527742"
       fx="9.5796242"
       fy="33.588264"
       id="radialGradient3127"
       xlink:href="#linearGradient2978"
       gradientUnits="userSpaceOnUse"
       gradientTransform="matrix(3.146715,0.06924886,-0.06039991,2.744612,1.667438,-61.89699)" />
    <radialGradient
       cx="9.5796242"
       cy="33.588264"
       r="2.5527742"
       fx="9.5796242"
       fy="33.588264"
       id="radialGradient3131"
       xlink:href="#linearGradient2978"
       gradientUnits="userSpaceOnUse"
       gradientTransform="matrix(3.146715,0.06924886,-0.06039991,2.744612,3.667438,-61.89699)" />
    <radialGradient
       cx="9.5796242"
       cy="33.588264"
       r="2.5527742"
       fx="9.5796242"
       fy="33.588264"
       id="radialGradient3135"
       xlink:href="#linearGradient2978"
       gradientUnits="userSpaceOnUse"
       gradientTransform="matrix(3.146715,0.06924886,-0.06039991,2.744612,5.667438,-61.89699)" />
    <linearGradient
       x1="40.5"
       y1="13.822797"
       x2="40.5"
       y2="16.877842"
       id="linearGradient3147"
       xlink:href="#linearGradient3141"
       gradientUnits="userSpaceOnUse" />
    <linearGradient
       x1="23.5"
       y1="12"
       x2="23.5"
       y2="6.6875"
       id="linearGradient3165"
       xlink:href="#linearGradient3159"
       gradientUnits="userSpaceOnUse" />
    <linearGradient
       x1="25"
       y1="21"
       x2="25"
       y2="32.25"
       id="linearGradient3181"
       xlink:href="#linearGradient3175"
       gradientUnits="userSpaceOnUse" />
    <linearGradient
       x1="24.000006"
       y1="15.837313"
       x2="24.000006"
       y2="21"
       id="linearGradient3239"
       xlink:href="#linearGradient3229"
       gradientUnits="userSpaceOnUse" />
    <linearGradient
       x1="21.67791"
       y1="19.969507"
       x2="22.333523"
       y2="11.643976"
       id="linearGradient3247"
       xlink:href="#linearGradient3241"
       gradientUnits="userSpaceOnUse" />
  </defs>
  <g
     id="layer1">
    <g
       transform="matrix(0.02262383,0,0,0.01966248,44.39519,41.98146)"
       id="g6707"
       style="display:inline">
      <rect
         width="1339.6335"
         height="478.35718"
         x="-1559.2523"
         y="-150.69685"
         id="rect6709"
         style="opacity:0.40206185;color:#000000;fill:url(#linearGradient6715);fill-opacity:1;fill-rule:nonzero;stroke:none;stroke-width:1;marker:none;visibility:visible;display:inline;overflow:visible" />
      <path
         d="m -219.61876,-150.68038 c 0,0 0,478.33079 0,478.33079 142.874166,0.90045 345.40022,-107.16966 345.40014,-239.196175 0,-132.026537 -159.436816,-239.134595 -345.40014,-239.134615 z"
         id="path6711"
         style="opacity:0.40206185;color:#000000;fill:url(#radialGradient6717);fill-opacity:1;fill-rule:nonzero;stroke:none;stroke-width:1;marker:none;visibility:visible;display:inline;overflow:visible" />
      <path
         d="m -1559.2523,-150.68038 c 0,0 0,478.33079 0,478.33079 -142.8742,0.90045 -345.4002,-107.16966 -345.4002,-239.196175 0,-132.026537 159.4368,-239.134595 345.4002,-239.134615 z"
         id="path6713"
         style="opacity:0.40206185;color:#000000;fill:url(#radialGradient6719);fill-opacity:1;fill-rule:nonzero;stroke:none;stroke-width:1;marker:none;visibility:visible;display:inline;overflow:visible" />
    </g>
    <path
       d="m 4.75,21 38.5,0 -0.875,11.25 -36.75,0 L 4.75,21 z"
       id="path3173"
       style="opacity:0.38659794;color:#000000;fill:url(#linearGradient3181);fill-opacity:1;fill-rule:nonzero;stroke:none;stroke-width:0.40000001;marker:none;visibility:visible;display:inline;overflow:visible" />
    <path
       d="m 4.000805,16.500028 c -0.043961,-0.03545 1.7269248,25.505493 1.7274293,25.513235 0.1661293,2.550698 1.5607136,3.482935 3.1216556,3.486733 0.055778,1.31e-4 29.2840441,-0.0033 29.9067541,-0.0059 2.628697,-0.01122 3.2727,-1.634583 3.445623,-3.408279 0.01387,-0.03497 1.783848,-25.550776 1.797715,-25.585748 -13.333058,0 -26.666116,0 -39.999177,0 z"
       id="path1751"
       style="opacity:0.5;fill:#babdb6;fill-opacity:1;fill-rule:evenodd;stroke:#555753;stroke-width:1;stroke-linecap:butt;stroke-linejoin:miter;stroke-miterlimit:4;stroke-opacity:1;stroke-dasharray:none" />
    <path
       d="M 43.457954,20.712669 7.2079371,20.689264 c 27.3113099,0.637328 32.6772069,3.648148 36.0062499,3.494311 l 0.243767,-3.470906 z"
       id="path1893"
       style="opacity:0.23711338;color:#000000;fill:url(#linearGradient2058);fill-opacity:1;fill-rule:nonzero;stroke:none;stroke-width:0;marker:none;visibility:visible;display:block" />
    <g
       transform="translate(0.08838865,0.08838865)"
       id="g3199"
       style="opacity:0.12886598;fill:#000000;fill-opacity:1;stroke:#000000;stroke-width:1.29999995;stroke-miterlimit:4;stroke-opacity:1;stroke-dasharray:none">
      <path
         d="m 29.163487,19.614074 c 0,0 1.115986,3.721376 0.353657,6.73398 -0.762329,3.012604 -0.247896,7.862113 -0.247896,7.862113 l 1.615125,0.424206 c 0,0 -0.766878,-4.605734 0.04698,-8.109542 0.813862,-3.503808 -0.353543,-6.909843 -0.353543,-6.909843 l -1.414327,-9.14e-4 z"
         id="path3201"
         style="color:#000000;fill:#000000;fill-opacity:1;fill-rule:evenodd;stroke:#000000;stroke-width:1.29999995;stroke-linecap:butt;stroke-linejoin:miter;stroke-miterlimit:4;stroke-opacity:1;stroke-dasharray:none;stroke-dashoffset:0;marker:none;visibility:visible;display:inline;overflow:visible" />
      <path
         d="m 9.9124168,19.759341 c 0,0 1.1159872,3.721376 0.3536572,6.73398 -0.7623292,3.012604 -0.247896,7.862113 -0.247896,7.862113 l 1.438349,-0.548066 c 0,0 -0.590101,-3.633462 0.223761,-7.13727 0.813862,-3.503808 -0.353543,-6.909843 -0.353543,-6.909843 l -1.4143282,-9.14e-4 z"
         id="path3203"
         style="color:#000000;fill:#000000;fill-opacity:1;fill-rule:evenodd;stroke:#000000;stroke-width:1.29999995;stroke-linecap:butt;stroke-linejoin:miter;stroke-miterlimit:4;stroke-opacity:1;stroke-dasharray:none;stroke-dashoffset:0;marker:none;visibility:visible;display:inline;overflow:visible" />
      <path
         d="m 11.66716,19.714074 c 0,0 1.115986,3.721376 0.353657,6.73398 -0.762329,3.012604 -3.402976,5.316436 -3.402976,5.316436 l 1.2081968,1.96573 c 0,0 2.7951302,-3.601581 3.6089922,-7.105389 0.813862,-3.503808 -0.353543,-6.909843 -0.353543,-6.909843 l -1.414327,-9.14e-4 z"
         id="path3205"
         style="color:#000000;fill:#000000;fill-opacity:1;fill-rule:evenodd;stroke:#000000;stroke-width:1.29999995;stroke-linecap:butt;stroke-linejoin:miter;stroke-miterlimit:4;stroke-opacity:1;stroke-dasharray:none;stroke-dashoffset:0;marker:none;visibility:visible;display:inline;overflow:visible" />
      <path
         d="m 21.163487,19.614074 c 0,0 1.115986,3.721376 0.353657,6.73398 -0.762329,3.012604 -0.247896,7.862113 -0.247896,7.862113 l 1.659319,0.556788 c 0,0 -0.811072,-4.738316 0.0028,-8.242124 0.813862,-3.503808 -0.353543,-6.909843 -0.353543,-6.909843 l -1.414327,-9.14e-4 z"
         id="path3207"
         style="color:#000000;fill:#000000;fill-opacity:1;fill-rule:evenodd;stroke:#000000;stroke-width:1.29999995;stroke-linecap:butt;stroke-linejoin:miter;stroke-miterlimit:4;stroke-opacity:1;stroke-dasharray:none;stroke-dashoffset:0;marker:none;visibility:visible;display:inline;overflow:visible" />
      <path
         d="m 35.163487,19.614074 c 0,0 1.115986,3.721376 0.353657,6.73398 -0.762329,3.012604 1.033735,7.155006 1.033735,7.155006 l 1.526736,-1.210978 c 0,0 -1.96012,-2.263443 -1.146258,-5.767251 0.813862,-3.503808 -0.353543,-6.909843 -0.353543,-6.909843 l -1.414327,-9.14e-4 z"
         id="path3209"
         style="color:#000000;fill:#000000;fill-opacity:1;fill-rule:evenodd;stroke:#000000;stroke-width:1.29999995;stroke-linecap:butt;stroke-linejoin:miter;stroke-miterlimit:4;stroke-opacity:1;stroke-dasharray:none;stroke-dashoffset:0;marker:none;visibility:visible;display:inline;overflow:visible" />
      <path
         d="m 31.163487,19.614074 c 0,0 1.115986,3.721376 0.353657,6.73398 -0.762329,3.012604 -0.247896,7.862113 -0.247896,7.862113 l 1.526736,-0.06193 c 0,0 -0.678489,-4.119598 0.135373,-7.623406 0.813862,-3.503808 -0.353543,-6.909843 -0.353543,-6.909843 l -1.414327,-9.14e-4 z"
         id="path3211"
         style="color:#000000;fill:#000000;fill-opacity:1;fill-rule:evenodd;stroke:#000000;stroke-width:1.29999995;stroke-linecap:butt;stroke-linejoin:miter;stroke-miterlimit:4;stroke-opacity:1;stroke-dasharray:none;stroke-dashoffset:0;marker:none;visibility:visible;display:inline;overflow:visible" />
      <path
         d="m 33.163487,19.614074 c 0,0 1.115986,3.721376 0.353657,6.73398 -0.762329,3.012604 -1.043391,7.685336 -1.043391,7.685336 l 1.791901,0.424206 c 0,0 -0.148159,-4.428957 0.665703,-7.932765 0.813862,-3.503808 -0.353543,-6.909843 -0.353543,-6.909843 l -1.414327,-9.14e-4 z"
         id="path3213"
         style="color:#000000;fill:#000000;fill-opacity:1;fill-rule:evenodd;stroke:#000000;stroke-width:1.29999995;stroke-linecap:butt;stroke-linejoin:miter;stroke-miterlimit:4;stroke-opacity:1;stroke-dasharray:none;stroke-dashoffset:0;marker:none;visibility:visible;display:inline;overflow:visible" />
      <path
         d="m 27.163487,19.614074 c 0,0 1.115986,3.721376 0.353657,6.73398 -0.762329,3.012604 0.547599,7.641142 0.547599,7.641142 l 1.659319,-0.680648 c 0,0 -1.606567,-3.279909 -0.792705,-6.783717 0.813862,-3.503808 -0.353543,-6.909843 -0.353543,-6.909843 l -1.414327,-9.14e-4 z"
         id="path3215"
         style="color:#000000;fill:#000000;fill-opacity:1;fill-rule:evenodd;stroke:#000000;stroke-width:1.29999995;stroke-linecap:butt;stroke-linejoin:miter;stroke-miterlimit:4;stroke-opacity:1;stroke-dasharray:none;stroke-dashoffset:0;marker:none;visibility:visible;display:inline;overflow:visible" />
      <path
         d="m 25.163487,19.614074 c 0,0 1.115986,3.721376 0.353657,6.73398 -0.762329,3.012604 -1.35275,7.72953 -1.35275,7.72953 l 1.526736,0.203235 c 0,0 0.426365,-4.25218 1.240227,-7.755988 0.813862,-3.503808 -0.353543,-6.909843 -0.353543,-6.909843 l -1.414327,-9.14e-4 z"
         id="path3217"
         style="color:#000000;fill:#000000;fill-opacity:1;fill-rule:evenodd;stroke:#000000;stroke-width:1.29999995;stroke-linecap:butt;stroke-linejoin:miter;stroke-miterlimit:4;stroke-opacity:1;stroke-dasharray:none;stroke-dashoffset:0;marker:none;visibility:visible;display:inline;overflow:visible" />
      <path
         d="m 23.163487,19.614074 c 0,0 1.115986,3.721376 0.353657,6.73398 -0.762329,3.012604 -0.247896,7.862113 -0.247896,7.862113 l 1.438348,-0.548066 c 0,0 -0.590101,-3.633462 0.223761,-7.13727 0.813862,-3.503808 -0.353543,-6.909843 -0.353543,-6.909843 l -1.414327,-9.14e-4 z"
         id="path3219"
         style="color:#000000;fill:#000000;fill-opacity:1;fill-rule:evenodd;stroke:#000000;stroke-width:1.29999995;stroke-linecap:butt;stroke-linejoin:miter;stroke-miterlimit:4;stroke-opacity:1;stroke-dasharray:none;stroke-dashoffset:0;marker:none;visibility:visible;display:inline;overflow:visible" />
      <path
         d="m 13.313608,19.714074 c 0,0 1.115986,3.721376 0.353657,6.73398 -0.762329,3.012604 -0.247896,7.862113 -0.247896,7.862113 l 1.580148,0.388259 c 0,0 -0.731901,-4.569787 0.08196,-8.073595 0.813862,-3.503808 -0.353543,-6.909843 -0.353543,-6.909843 l -1.414327,-9.14e-4 z"
         id="path3221"
         style="color:#000000;fill:#000000;fill-opacity:1;fill-rule:evenodd;stroke:#000000;stroke-width:1.29999995;stroke-linecap:butt;stroke-linejoin:miter;stroke-miterlimit:4;stroke-opacity:1;stroke-dasharray:none;stroke-dashoffset:0;marker:none;visibility:visible;display:inline;overflow:visible" />
      <path
         d="m 19.418083,20.520258 c 0,0 0.197631,3.609543 -0.35345,6.73398 -0.539772,3.060322 2.241784,7.242535 2.241784,7.242535 l 1.414746,-0.632343 c 0,0 -2.794401,-2.615644 -2.162404,-6.785735 0.557673,-3.67968 0.273651,-6.557523 0.273651,-6.557523 l -1.414327,-9.14e-4 z"
         id="path3223"
         style="color:#000000;fill:#000000;fill-opacity:1;fill-rule:evenodd;stroke:#000000;stroke-width:1.29999995;stroke-linecap:butt;stroke-linejoin:miter;stroke-miterlimit:4;stroke-opacity:1;stroke-dasharray:none;stroke-dashoffset:0;marker:none;visibility:visible;display:inline;overflow:visible" />
      <path
         d="m 15.163487,19.614074 c 0,0 1.115986,3.721376 0.353657,6.73398 -0.762329,3.012604 -0.247896,7.862113 -0.247896,7.862113 l 1.438348,-0.548066 c 0,0 -0.590101,-3.633462 0.223761,-7.13727 0.813862,-3.503808 -0.353543,-6.909843 -0.353543,-6.909843 l -1.414327,-9.14e-4 z"
         id="path3225"
         style="color:#000000;fill:#000000;fill-opacity:1;fill-rule:evenodd;stroke:#000000;stroke-width:1.29999995;stroke-linecap:butt;stroke-linejoin:miter;stroke-miterlimit:4;stroke-opacity:1;stroke-dasharray:none;stroke-dashoffset:0;marker:none;visibility:visible;display:inline;overflow:visible" />
      <path
         d="m 16.816129,20.479515 c 0,0 1.115986,3.721376 0.353657,6.73398 -0.762329,3.012604 -2.442798,4.590885 -2.442798,4.590885 l 1.237969,1.135424 c 0,0 1.80518,-2.045724 2.619042,-5.549532 0.813862,-3.503808 -0.353543,-6.909843 -0.353543,-6.909843 l -1.414327,-9.14e-4 z"
         id="path3227"
         style="color:#000000;fill:#000000;fill-opacity:1;fill-rule:evenodd;stroke:#000000;stroke-width:1.29999995;stroke-linecap:butt;stroke-linejoin:miter;stroke-miterlimit:4;stroke-opacity:1;stroke-dasharray:none;stroke-dashoffset:0;marker:none;visibility:visible;display:inline;overflow:visible" />
    </g>
    <g
       id="g3183">
      <path
         d="m 29.163487,19.614074 c 0,0 1.115986,3.721376 0.353657,6.73398 -0.762329,3.012604 -0.247896,7.862113 -0.247896,7.862113 l 1.615125,0.424206 c 0,0 -0.766878,-4.605734 0.04698,-8.109542 0.813862,-3.503808 -0.353543,-6.909843 -0.353543,-6.909843 l -1.414327,-9.14e-4 z"
         id="path3121"
         style="color:#000000;fill:url(#radialGradient3123);fill-opacity:1;fill-rule:evenodd;stroke:none;stroke-width:0.40000001;marker:none;visibility:visible;display:inline;overflow:visible" />
      <path
         d="m 9.9124168,19.759341 c 0,0 1.1159872,3.721376 0.3536572,6.73398 -0.7623292,3.012604 -0.247896,7.862113 -0.247896,7.862113 l 1.438349,-0.548066 c 0,0 -0.590101,-3.633462 0.223761,-7.13727 0.813862,-3.503808 -0.353543,-6.909843 -0.353543,-6.909843 l -1.4143282,-9.14e-4 z"
         id="path3002"
         style="color:#000000;fill:url(#radialGradient3004);fill-opacity:1;fill-rule:evenodd;stroke:none;stroke-width:0.40000001;marker:none;visibility:visible;display:inline;overflow:visible" />
      <path
         d="m 11.66716,19.714074 c 0,0 1.115986,3.721376 0.353657,6.73398 -0.762329,3.012604 -3.402976,5.316436 -3.402976,5.316436 l 1.2081968,1.96573 c 0,0 2.7951302,-3.601581 3.6089922,-7.105389 0.813862,-3.503808 -0.353543,-6.909843 -0.353543,-6.909843 l -1.414327,-9.14e-4 z"
         id="path2976"
         style="color:#000000;fill:url(#radialGradient2984);fill-opacity:1;fill-rule:evenodd;stroke:none;stroke-width:0.40000001;marker:none;visibility:visible;display:inline;overflow:visible" />
      <path
         d="m 21.163487,19.614074 c 0,0 1.115986,3.721376 0.353657,6.73398 -0.762329,3.012604 -0.247896,7.862113 -0.247896,7.862113 l 1.659319,0.556788 c 0,0 -0.811072,-4.738316 0.0028,-8.242124 0.813862,-3.503808 -0.353543,-6.909843 -0.353543,-6.909843 l -1.414327,-9.14e-4 z"
         id="path3105"
         style="color:#000000;fill:url(#radialGradient3107);fill-opacity:1;fill-rule:evenodd;stroke:none;stroke-width:0.40000001;marker:none;visibility:visible;display:inline;overflow:visible" />
      <path
         d="m 35.163487,19.614074 c 0,0 1.115986,3.721376 0.353657,6.73398 -0.762329,3.012604 1.033735,7.155006 1.033735,7.155006 l 1.526736,-1.210978 c 0,0 -1.96012,-2.263443 -1.146258,-5.767251 0.813862,-3.503808 -0.353543,-6.909843 -0.353543,-6.909843 l -1.414327,-9.14e-4 z"
         id="path3133"
         style="color:#000000;fill:url(#radialGradient3135);fill-opacity:1;fill-rule:evenodd;stroke:none;stroke-width:0.40000001;marker:none;visibility:visible;display:inline;overflow:visible" />
      <path
         d="m 31.163487,19.614074 c 0,0 1.115986,3.721376 0.353657,6.73398 -0.762329,3.012604 -0.247896,7.862113 -0.247896,7.862113 l 1.526736,-0.06193 c 0,0 -0.678489,-4.119598 0.135373,-7.623406 0.813862,-3.503808 -0.353543,-6.909843 -0.353543,-6.909843 l -1.414327,-9.14e-4 z"
         id="path3125"
         style="color:#000000;fill:url(#radialGradient3127);fill-opacity:1;fill-rule:evenodd;stroke:none;stroke-width:0.40000001;marker:none;visibility:visible;display:inline;overflow:visible" />
      <path
         d="m 33.163487,19.614074 c 0,0 1.115986,3.721376 0.353657,6.73398 -0.762329,3.012604 -1.043391,7.685336 -1.043391,7.685336 l 1.791901,0.424206 c 0,0 -0.148159,-4.428957 0.665703,-7.932765 0.813862,-3.503808 -0.353543,-6.909843 -0.353543,-6.909843 l -1.414327,-9.14e-4 z"
         id="path3129"
         style="color:#000000;fill:url(#radialGradient3131);fill-opacity:1;fill-rule:evenodd;stroke:none;stroke-width:0.40000001;marker:none;visibility:visible;display:inline;overflow:visible" />
      <path
         d="m 27.163487,19.614074 c 0,0 1.115986,3.721376 0.353657,6.73398 -0.762329,3.012604 0.547599,7.641142 0.547599,7.641142 l 1.659319,-0.680648 c 0,0 -1.606567,-3.279909 -0.792705,-6.783717 0.813862,-3.503808 -0.353543,-6.909843 -0.353543,-6.909843 l -1.414327,-9.14e-4 z"
         id="path3117"
         style="color:#000000;fill:url(#radialGradient3119);fill-opacity:1;fill-rule:evenodd;stroke:none;stroke-width:0.40000001;marker:none;visibility:visible;display:inline;overflow:visible" />
      <path
         d="m 25.163487,19.614074 c 0,0 1.115986,3.721376 0.353657,6.73398 -0.762329,3.012604 -1.35275,7.72953 -1.35275,7.72953 l 1.526736,0.203235 c 0,0 0.426365,-4.25218 1.240227,-7.755988 0.813862,-3.503808 -0.353543,-6.909843 -0.353543,-6.909843 l -1.414327,-9.14e-4 z"
         id="path3113"
         style="color:#000000;fill:url(#radialGradient3115);fill-opacity:1;fill-rule:evenodd;stroke:none;stroke-width:0.40000001;marker:none;visibility:visible;display:inline;overflow:visible" />
      <path
         d="m 23.163487,19.614074 c 0,0 1.115986,3.721376 0.353657,6.73398 -0.762329,3.012604 -0.247896,7.862113 -0.247896,7.862113 l 1.438348,-0.548066 c 0,0 -0.590101,-3.633462 0.223761,-7.13727 0.813862,-3.503808 -0.353543,-6.909843 -0.353543,-6.909843 l -1.414327,-9.14e-4 z"
         id="path3109"
         style="color:#000000;fill:url(#radialGradient3111);fill-opacity:1;fill-rule:evenodd;stroke:none;stroke-width:0.40000001;marker:none;visibility:visible;display:inline;overflow:visible" />
      <path
         d="m 13.313608,19.714074 c 0,0 1.115986,3.721376 0.353657,6.73398 -0.762329,3.012604 -0.247896,7.862113 -0.247896,7.862113 l 1.580148,0.388259 c 0,0 -0.731901,-4.569787 0.08196,-8.073595 0.813862,-3.503808 -0.353543,-6.909843 -0.353543,-6.909843 l -1.414327,-9.14e-4 z"
         id="path2986"
         style="color:#000000;fill:url(#radialGradient2988);fill-opacity:1;fill-rule:evenodd;stroke:none;stroke-width:0.40000001;marker:none;visibility:visible;display:inline;overflow:visible" />
      <path
         d="m 19.418083,20.520258 c 0,0 0.197631,3.609543 -0.35345,6.73398 -0.539772,3.060322 2.241784,7.242535 2.241784,7.242535 l 1.414746,-0.632343 c 0,0 -2.794401,-2.615644 -2.162404,-6.785735 0.557673,-3.67968 0.273651,-6.557523 0.273651,-6.557523 l -1.414327,-9.14e-4 z"
         id="path2998"
         style="color:#000000;fill:url(#radialGradient3000);fill-opacity:1;fill-rule:evenodd;stroke:none;stroke-width:0.40000001;marker:none;visibility:visible;display:inline;overflow:visible" />
      <path
         d="m 15.163487,19.614074 c 0,0 1.115986,3.721376 0.353657,6.73398 -0.762329,3.012604 -0.247896,7.862113 -0.247896,7.862113 l 1.438348,-0.548066 c 0,0 -0.590101,-3.633462 0.223761,-7.13727 0.813862,-3.503808 -0.353543,-6.909843 -0.353543,-6.909843 l -1.414327,-9.14e-4 z"
         id="path2990"
         style="color:#000000;fill:url(#radialGradient2992);fill-opacity:1;fill-rule:evenodd;stroke:none;stroke-width:0.40000001;marker:none;visibility:visible;display:inline;overflow:visible" />
      <path
         d="m 16.816129,20.479515 c 0,0 1.115986,3.721376 0.353657,6.73398 -0.762329,3.012604 -2.442798,4.590885 -2.442798,4.590885 l 1.237969,1.135424 c 0,0 1.80518,-2.045724 2.619042,-5.549532 0.813862,-3.503808 -0.353543,-6.909843 -0.353543,-6.909843 l -1.414327,-9.14e-4 z"
         id="path2994"
         style="color:#000000;fill:url(#radialGradient2996);fill-opacity:1;fill-rule:evenodd;stroke:none;stroke-width:0.40000001;marker:none;visibility:visible;display:inline;overflow:visible" />
    </g>
    <path
       d="m 5.4146811,19.121548 c -0.051257,-1.34e-4 0.8367519,12.817072 1.5422648,21.806255 0.1820049,2.307459 0.551916,3.246606 1.9853618,3.246606 11.8168233,0 28.6106393,0.0861 29.1824863,0.084 2.766505,-0.01016 2.71473,-1.037486 2.943851,-3.220254 0.08341,-0.794605 1.532502,-21.827229 1.518678,-21.827229 -9.901078,0 -24.939532,-0.0574 -37.1726419,-0.08937 z"
       id="path375"
       style="opacity:0.62886598;fill:none;stroke:#ffffff;stroke-width:1;stroke-linecap:butt;stroke-linejoin:miter;stroke-miterlimit:4;stroke-opacity:1;stroke-dasharray:none" />
    <path
       d="m 7.1632325,6.56876 c -1.0667623,0.00244 -1.9595586,0.02711 -2.445858,1.042831 -0.084523,0.176541 -2.6609163,7.341598 -2.7847816,7.614844 -1.06040867,2.33923 -0.082495,5.285922 1.9656538,5.266193 0.3895076,-0.0036 40.3590993,0.01827 40.9788973,0 1.743492,-0.05049 1.966602,-3.462731 1.21604,-4.997739 C 46.050663,15.407927 42.567223,7.513946 42.47838,7.374125 42.067463,6.749683 41.147252,6.476015 40.463708,6.501646 40.329055,6.506821 7.2964985,6.568457 7.1632325,6.56876 z"
       id="path1841"
       style="fill:url(#linearGradient3239);fill-opacity:1;fill-rule:evenodd;stroke:#204a87;stroke-width:1;stroke-linecap:butt;stroke-linejoin:miter;stroke-miterlimit:4;stroke-opacity:1;stroke-dasharray:none" />
    <path
       d="m 4.79225,20.902176 2.4999192,8.8e-5 0.7658514,20.610874 -0.7625435,3.073191 C 6.688538,44.099871 6.4168015,43.362011 6.2792295,42.523528 L 4.79225,20.902176 z"
       id="path2956"
       style="opacity:0.14948455;color:#000000;fill:#555753;fill-opacity:1;fill-rule:evenodd;stroke:none;stroke-width:0.5;marker:none;visibility:visible;display:inline;overflow:visible" />
    <path
       d="m 8.0335688,41.611683 -0.712303,2.928885 c 0.4228633,0.224895 0.735746,0.312261 1.1912817,0.466606 l 30.0258805,-0.0287 c 0.578922,-0.03962 1.13067,-0.0658 1.514338,-0.171585 L 38.00699,41.370874 8.0335688,41.611683 z"
       id="path2958"
       style="opacity:0.42783502;color:#000000;fill:#eeeeec;fill-opacity:1;fill-rule:evenodd;stroke:none;stroke-width:0.5;marker:none;visibility:visible;display:inline;overflow:visible" />
    <path
       d="m 38.00699,41.370874 2.012499,3.444888 c 0.618202,-0.263205 1.330342,-0.723813 1.611423,-1.853898 l 1.508399,-22.016654 -3.447201,-0.0022 -1.68512,20.42789 z"
       id="path2960"
       style="opacity:0.37113402;color:#000000;fill:#eeeeec;fill-opacity:1;fill-rule:evenodd;stroke:none;stroke-width:0.5;marker:none;visibility:visible;display:inline;overflow:visible" />
    <path
       d="m 40.375,7.53125 c -0.06721,2.626e-4 -0.187576,0.030899 -0.3125,0.03125 -0.249848,7.031e-4 -0.604044,-0.00103 -1.0625,0 -0.916912,0.00206 -2.221725,-0.00304 -3.78125,0 -3.11905,0.00608 -7.258907,0.02378 -11.40625,0.03125 -8.294686,0.01494 -16.6369709,-4.38e-5 -16.65625,0 -0.5195564,0.00119 -0.8946892,0.058675 -1.09375,0.125 -0.1990608,0.066325 -0.2671378,0.05319 -0.40625,0.34375 0.068173,-0.1423928 0.021728,-0.026115 0,0.03125 -0.021728,0.057365 -0.054922,0.1450013 -0.09375,0.25 C 5.4848433,8.5537474 5.3772673,8.8700038 5.25,9.21875 4.9954654,9.9162423 4.647162,10.82881 4.3125,11.75 c -0.334662,0.92119 -0.6456998,1.849915 -0.90625,2.5625 -0.1302751,0.356293 -0.2602216,0.650045 -0.34375,0.875 -0.083528,0.224955 -0.09934,0.274269 -0.1875,0.46875 -0.4116522,0.908093 -0.3939016,1.998564 -0.125,2.75 0.2689016,0.751436 0.6376221,1.067496 1.15625,1.0625 0.1368667,-0.0013 0.7125091,-2.16e-4 1.84375,0 1.1312409,2.16e-4 2.719657,-6.29e-4 4.625,0 3.810686,0.0013 8.879551,-0.0014 13.9375,0 5.057949,0.0014 10.12961,5.73e-4 13.96875,0 1.91957,-2.86e-4 3.504113,0.0012 4.65625,0 1.152137,-0.0012 1.997206,-0.0027 1.90625,0 0.09573,-0.0028 0.101126,0.006 0.21875,-0.15625 0.117624,-0.162237 0.240925,-0.520581 0.3125,-0.9375 0.14315,-0.833838 0.004,-1.950707 -0.21875,-2.40625 -0.06807,-0.139211 -0.03415,-0.09269 -0.0625,-0.15625 -0.02835,-0.06356 -0.07502,-0.137502 -0.125,-0.25 C 44.868786,15.337505 44.729962,15.002468 44.5625,14.625 44.227576,13.870065 43.788496,12.876072 43.34375,11.875 42.899004,10.873928 42.46493,9.8847897 42.125,9.125 41.955035,8.7451052 41.790172,8.4138381 41.6875,8.1875 41.636164,8.074331 41.590406,7.9975179 41.5625,7.9375 41.439142,7.7825905 40.858748,7.5177979 40.5,7.53125 c -0.09998,0.00384 -0.04327,-1.135e-4 -0.0625,0 -0.01923,1.135e-4 -0.02889,-1.313e-4 -0.0625,0 z"
       id="path3237"
       style="opacity:0.38659794;fill:none;stroke:url(#linearGradient3247);stroke-width:1;stroke-linecap:butt;stroke-linejoin:miter;stroke-miterlimit:4;stroke-opacity:1;stroke-dasharray:none" />
    <path
       d="M 8,10 7.375,12 39.375001,12 38.593148,10.07544 8,10 z"
       id="path2962"
       style="opacity:0.82989693;color:#000000;fill:url(#linearGradient2970);fill-opacity:1;fill-rule:evenodd;stroke:none;stroke-width:0.5;marker:none;visibility:visible;display:inline;overflow:visible" />
    <path
       d="m 9.8535488,1.5000014 27.3137672,0 c 0.195868,0 0.353553,0.1576849 0.353553,0.3535536 l 0,9.646448 c 0,0 -28.0208738,0 -28.0208738,0 l 0,-9.646448 c 0,-0.1958687 0.1576849,-0.3535536 0.3535536,-0.3535536 z"
       id="rect3006"
       style="color:#000000;fill:url(#linearGradient3097);fill-opacity:1;fill-rule:evenodd;stroke:#888a85;stroke-width:1.00000083;stroke-linecap:butt;stroke-linejoin:miter;stroke-miterlimit:4;stroke-opacity:1;stroke-dashoffset:0;marker:none;visibility:visible;display:inline;overflow:visible" />
    <path
       d="m 10.499998,10.522594 0,-8.0225929 26.004383,0 0,8.1117319"
       id="path3103"
       style="opacity:0.62886598;color:#000000;fill:none;stroke:#ffffff;stroke-width:1.00000024;stroke-linecap:square;stroke-linejoin:miter;stroke-miterlimit:4;stroke-opacity:1;stroke-dasharray:none;stroke-dashoffset:0;marker:none;visibility:visible;display:inline;overflow:visible" />
    <path
       d="m 43,15 a 2.5,1.25 0 1 1 -5,0 2.5,1.25 0 1 1 5,0 z"
       transform="matrix(0.814384,0,0,0.796379,7.58372,3.212694)"
       id="path3139"
       style="color:#000000;fill:#cc0000;fill-opacity:1;fill-rule:evenodd;stroke:#a40000;stroke-width:1.24172473;stroke-linecap:square;stroke-linejoin:miter;stroke-miterlimit:4;stroke-opacity:1;stroke-dasharray:none;stroke-dashoffset:0;marker:none;visibility:visible;display:inline;overflow:visible" />
    <path
       d="m 43,15 a 2.5,1.25 0 1 1 -5,0 2.5,1.25 0 1 1 5,0 z"
       transform="matrix(0.814384,0,0,0.796379,7.58372,2.549784)"
       id="path3137"
       style="color:#000000;fill:#ef2929;fill-opacity:1;fill-rule:evenodd;stroke:url(#linearGradient3147);stroke-width:1.24172473;stroke-linecap:square;stroke-linejoin:miter;stroke-miterlimit:4;stroke-opacity:1;stroke-dasharray:none;stroke-dashoffset:0;marker:none;visibility:visible;display:inline;overflow:visible" />
    <rect
       width="29"
       height="5.3125"
       x="9"
       y="6.6875"
       id="rect3157"
       style="opacity:0.27319587;color:#000000;fill:url(#linearGradient3165);fill-opacity:1;fill-rule:nonzero;stroke:none;stroke-width:0.40000001;marker:none;visibility:visible;display:inline;overflow:visible" />
    <rect
       width="23"
       height="1"
       rx="0.5"
       ry="0.5"
       x="12"
       y="4"
       id="rect3167"
       style="opacity:0.1391753;color:#000000;fill:#000000;fill-opacity:1;fill-rule:nonzero;stroke:none;stroke-width:0.40000001;marker:none;visibility:visible;display:inline;overflow:visible" />
    <rect
       width="15"
       height="1"
       rx="0.5"
       ry="0.5"
       x="12"
       y="6"
       id="rect3169"
       style="opacity:0.1391753;color:#000000;fill:#000000;fill-opacity:1;fill-rule:nonzero;stroke:none;stroke-width:0.40000001;marker:none;visibility:visible;display:inline;overflow:visible" />
    <rect
       width="19"
       height="1"
       rx="0.5"
       ry="0.5"
       x="12"
       y="8"
       id="rect3171"
       style="opacity:0.1391753;color:#000000;fill:#000000;fill-opacity:1;fill-rule:nonzero;stroke:none;stroke-width:0.40000001;marker:none;visibility:visible;display:inline;overflow:visible" />
  </g>
</svg>
