<?xml version="1.0" encoding="UTF-8" standalone="no"?>
<!-- Created with Inkscape (http://www.inkscape.org/) -->

<svg
   xmlns:svg="http://www.w3.org/2000/svg"
   xmlns="http://www.w3.org/2000/svg"
   xmlns:xlink="http://www.w3.org/1999/xlink"
   version="1.1"
   width="48"
   height="48"
   id="svg12360">
  <defs
     id="defs12362">
    <radialGradient
       cx="605.71429"
       cy="486.64789"
       r="117.14286"
       fx="605.71429"
       fy="486.64789"
       id="radialGradient5031"
       xlink:href="#linearGradient5060"
       gradientUnits="userSpaceOnUse"
       gradientTransform="matrix(-2.774389,0,0,1.969706,112.7623,-872.8854)" />
    <linearGradient
       id="linearGradient5060">
      <stop
         id="stop5062"
         style="stop-color:#000000;stop-opacity:1"
         offset="0" />
      <stop
         id="stop5064"
         style="stop-color:#000000;stop-opacity:0"
         offset="1" />
    </linearGradient>
    <radialGradient
       cx="605.71429"
       cy="486.64789"
       r="117.14286"
       fx="605.71429"
       fy="486.64789"
       id="radialGradient5029"
       xlink:href="#linearGradient5060"
       gradientUnits="userSpaceOnUse"
       gradientTransform="matrix(2.774389,0,0,1.969706,-1891.633,-872.8854)" />
    <linearGradient
       id="linearGradient5048">
      <stop
         id="stop5050"
         style="stop-color:#000000;stop-opacity:0"
         offset="0" />
      <stop
         id="stop5056"
         style="stop-color:#000000;stop-opacity:1"
         offset="0.5" />
      <stop
         id="stop5052"
         style="stop-color:#000000;stop-opacity:0"
         offset="1" />
    </linearGradient>
    <linearGradient
       x1="302.85715"
       y1="366.64789"
       x2="302.85715"
       y2="609.50507"
       id="linearGradient5027"
       xlink:href="#linearGradient5048"
       gradientUnits="userSpaceOnUse"
       gradientTransform="matrix(2.774389,0,0,1.969706,-1892.179,-872.8854)" />
    <linearGradient
       id="linearGradient2259">
      <stop
         id="stop2261"
         style="stop-color:#ffffff;stop-opacity:1"
         offset="0" />
      <stop
         id="stop2263"
         style="stop-color:#ffffff;stop-opacity:0"
         offset="1" />
    </linearGradient>
    <linearGradient
       id="linearGradient2251">
      <stop
         id="stop2253"
         style="stop-color:#ffffff;stop-opacity:1"
         offset="0" />
      <stop
         id="stop2255"
         style="stop-color:#ffffff;stop-opacity:0"
         offset="1" />
    </linearGradient>
    <linearGradient
       id="linearGradient2239">
      <stop
         id="stop2241"
         style="stop-color:#ffffff;stop-opacity:1"
         offset="0" />
      <stop
         id="stop2243"
         style="stop-color:#ffffff;stop-opacity:0"
         offset="1" />
    </linearGradient>
    <linearGradient
       id="linearGradient2224">
      <stop
         id="stop2226"
         style="stop-color:#7c7c7c;stop-opacity:1"
         offset="0" />
      <stop
         id="stop2228"
         style="stop-color:#b8b8b8;stop-opacity:1"
         offset="1" />
    </linearGradient>
    <linearGradient
       id="linearGradient2216">
      <stop
         id="stop2218"
         style="stop-color:#000000;stop-opacity:1"
         offset="0" />
      <stop
         id="stop2220"
         style="stop-color:#000000;stop-opacity:0"
         offset="1" />
    </linearGradient>
    <linearGradient
       id="linearGradient15234">
      <stop
         id="stop15236"
         style="stop-color:#97978a;stop-opacity:1"
         offset="0" />
      <stop
         id="stop15242"
         style="stop-color:#c2c2b9;stop-opacity:1"
         offset="0.5" />
      <stop
         id="stop15238"
         style="stop-color:#7d7d6f;stop-opacity:1"
         offset="1" />
    </linearGradient>
    <linearGradient
       id="linearGradient15218">
      <stop
         id="stop15220"
         style="stop-color:#f0f0ef;stop-opacity:1"
         offset="0" />
      <stop
         id="stop2269"
         style="stop-color:#e8e8e8;stop-opacity:1"
         offset="0.59928656" />
      <stop
         id="stop2267"
         style="stop-color:#ffffff;stop-opacity:1"
         offset="0.82758623" />
      <stop
         id="stop15222"
         style="stop-color:#d8d8d3;stop-opacity:1"
         offset="1" />
    </linearGradient>
    <linearGradient
       id="linearGradient14484">
      <stop
         id="stop14486"
         style="stop-color:#c68827;stop-opacity:1"
         offset="0" />
      <stop
         id="stop14488"
         style="stop-color:#89601f;stop-opacity:1"
         offset="1" />
    </linearGradient>
    <linearGradient
       id="linearGradient13746">
      <stop
         id="stop13748"
         style="stop-color:#646459;stop-opacity:1"
         offset="0" />
      <stop
         id="stop13750"
         style="stop-color:#646459;stop-opacity:0"
         offset="1" />
    </linearGradient>
    <radialGradient
       cx="24.647722"
       cy="45.272587"
       r="21.011173"
       fx="24.647722"
       fy="45.272587"
       id="radialGradient13752"
       xlink:href="#linearGradient13746"
       gradientUnits="userSpaceOnUse"
       gradientTransform="matrix(1,0,0,0.110577,0,40.26648)" />
    <linearGradient
       x1="6.1071744"
       y1="10.45129"
       x2="33.857143"
       y2="37.87986"
       id="linearGradient14490"
       xlink:href="#linearGradient14484"
       gradientUnits="userSpaceOnUse" />
    <linearGradient
       x1="22.308331"
       y1="18.99214"
       x2="35.785294"
       y2="39.498238"
       id="linearGradient15224"
       xlink:href="#linearGradient15218"
       gradientUnits="userSpaceOnUse"
       gradientTransform="matrix(1.065698,0,0,0.987595,-1.564439,0.07487332)" />
    <linearGradient
       x1="25.404572"
       y1="3.8180194"
       x2="25.464211"
       y2="9.3233509"
       id="linearGradient15240"
       xlink:href="#linearGradient15234"
       gradientUnits="userSpaceOnUse"
       gradientTransform="matrix(1.052632,0,0,1,-1.789474,0)" />
    <linearGradient
       x1="36.8125"
       y1="39.15625"
       x2="39.0625"
       y2="42.0625"
       id="linearGradient2222"
       xlink:href="#linearGradient2216"
       gradientUnits="userSpaceOnUse" />
    <linearGradient
       x1="35.996582"
       y1="40.458221"
       x2="33.664921"
       y2="37.770721"
       id="linearGradient2230"
       xlink:href="#linearGradient2224"
       gradientUnits="userSpaceOnUse" />
    <linearGradient
       x1="25.682829"
       y1="12.172059"
       x2="25.692169"
       y2="-0.20294096"
       id="linearGradient2245"
       xlink:href="#linearGradient2239"
       gradientUnits="userSpaceOnUse" />
    <linearGradient
       x1="33.396004"
       y1="36.921333"
       x2="34.170048"
       y2="38.070381"
       id="linearGradient2257"
       xlink:href="#linearGradient2251"
       gradientUnits="userSpaceOnUse" />
    <linearGradient
       x1="26.076092"
       y1="26.696676"
       x2="30.811172"
       y2="42.007351"
       id="linearGradient2265"
       xlink:href="#linearGradient2259"
       gradientUnits="userSpaceOnUse" />
    <linearGradient
       x1="25.404572"
       y1="3.8180194"
       x2="25.404572"
       y2="6.481061"
       id="linearGradient2283"
       xlink:href="#linearGradient15234"
       gradientUnits="userSpaceOnUse"
       gradientTransform="matrix(0.538743,0,0,0.511806,10.8008,-0.58264)" />
    <linearGradient
       x1="25.404572"
       y1="3.8180194"
       x2="25.464211"
       y2="9.3233509"
       id="linearGradient2287"
       xlink:href="#linearGradient15234"
       gradientUnits="userSpaceOnUse"
       gradientTransform="matrix(1.005222,0,0,0.883928,-0.627923,0.84375)" />
  </defs>
  <g
     id="layer1">
    <g
       transform="matrix(0.02325216,0,0,0.01485743,44.80627,43.06039)"
       id="g5022"
       style="display:inline">
      <rect
         width="1339.6335"
         height="478.35718"
         x="-1559.2523"
         y="-150.69685"
         id="rect4173"
         style="opacity:0.40206185;color:#000000;fill:url(#linearGradient5027);fill-opacity:1;fill-rule:nonzero;stroke:none;stroke-width:1;marker:none;visibility:visible;display:inline;overflow:visible" />
      <path
         d="m -219.61876,-150.68038 c 0,0 0,478.33079 0,478.33079 142.874166,0.90045 345.40022,-107.16966 345.40014,-239.196175 0,-132.026537 -159.436816,-239.134595 -345.40014,-239.134615 z"
         id="path5058"
         style="opacity:0.40206185;color:#000000;fill:url(#radialGradient5029);fill-opacity:1;fill-rule:nonzero;stroke:none;stroke-width:1;marker:none;visibility:visible;display:inline;overflow:visible" />
      <path
         d="m -1559.2523,-150.68038 c 0,0 0,478.33079 0,478.33079 -142.8742,0.90045 -345.4002,-107.16966 -345.4002,-239.196175 0,-132.026537 159.4368,-239.134595 345.4002,-239.134615 z"
         id="path5018"
         style="opacity:0.40206185;color:#000000;fill:url(#radialGradient5031);fill-opacity:1;fill-rule:nonzero;stroke:none;stroke-width:1;marker:none;visibility:visible;display:inline;overflow:visible" />
    </g>
    <rect
       width="39.035683"
       height="41.045437"
       rx="1.3879371"
       ry="1.3879364"
       x="4.4643173"
       y="4.5"
       id="rect12368"
       style="fill:url(#linearGradient14490);fill-opacity:1;fill-rule:evenodd;stroke:#714c16;stroke-width:0.99999976;stroke-linecap:butt;stroke-linejoin:miter;stroke-miterlimit:4;stroke-opacity:1;stroke-dasharray:none;stroke-dashoffset:0" />
    <rect
       width="30.951559"
       height="35.976688"
       rx="0.56650835"
       ry="0.56650835"
       x="8.5323219"
       y="6.5295157"
       id="rect12413"
       style="fill:url(#linearGradient15224);fill-opacity:1;fill-rule:evenodd;stroke:#888a85;stroke-width:1.00000024;stroke-linecap:butt;stroke-linejoin:miter;stroke-miterlimit:4;stroke-opacity:1;stroke-dasharray:none;stroke-dashoffset:0" />
    <rect
       width="12"
       height="4"
       rx="0.98387533"
       ry="0.98387533"
       x="18"
       y="0"
       id="rect13756"
       style="fill:#5c5c5c;fill-opacity:1;fill-rule:evenodd;stroke:none" />
    <rect
       width="29.014147"
       height="34.040764"
       rx="0"
       ry="0"
       x="9.5171413"
       y="7.4665856"
       id="rect15244"
       style="fill:none;stroke:url(#linearGradient2265);stroke-width:1.00000048;stroke-linecap:butt;stroke-linejoin:miter;stroke-miterlimit:4;stroke-opacity:1;stroke-dasharray:none;stroke-dashoffset:0" />
    <rect
       width="37.085655"
       height="39.092987"
       rx="0.47879848"
       ry="0.47879848"
       x="5.4393425"
       y="5.4307775"
       id="rect15974"
       style="fill:none;stroke:#c68827;stroke-width:0.99999976;stroke-linecap:butt;stroke-linejoin:miter;stroke-miterlimit:4;stroke-opacity:1;stroke-dasharray:none;stroke-dashoffset:0" />
    <rect
       width="18.947376"
       height="7"
       rx="1.3879377"
       ry="1.3879364"
       x="14.791488"
       y="4.4722719"
       id="rect2208"
       style="opacity:0.10795456;fill:#000000;fill-opacity:1;fill-rule:evenodd;stroke:#000000;stroke-width:1.00000012;stroke-linecap:butt;stroke-linejoin:miter;stroke-miterlimit:4;stroke-opacity:1;stroke-dasharray:none;stroke-dashoffset:0" />
    <rect
       width="18.947376"
       height="7"
       rx="1.3879377"
       ry="1.3879364"
       x="14.526322"
       y="3.5"
       id="rect2285"
       style="fill:url(#linearGradient15240);fill-opacity:1;fill-rule:evenodd;stroke:#5c5c5c;stroke-width:1.00000012;stroke-linecap:butt;stroke-linejoin:miter;stroke-miterlimit:4;stroke-opacity:1;stroke-dasharray:none;stroke-dashoffset:0" />
    <rect
       width="9.6973763"
       height="3.5826404"
       rx="0.32543635"
       ry="0.32543635"
       x="19.151323"
       y="1.2086792"
       id="rect2281"
       style="fill:url(#linearGradient2283);fill-opacity:1;fill-rule:evenodd;stroke:none" />
    <rect
       width="18.093992"
       height="6.1875"
       rx="1.0129364"
       ry="1.0129364"
       x="14.953014"
       y="3.9375"
       id="rect13754"
       style="fill:url(#linearGradient2287);fill-opacity:1;fill-rule:evenodd;stroke:none" />
    <path
       d="m 39.018306,36.25 0.04419,5.8125 -8.5,-0.04419 L 39.018306,36.25 z"
       id="path2212"
       style="opacity:0.48863639;color:#000000;fill:url(#linearGradient2222);fill-opacity:1;fill-rule:evenodd;stroke:none;stroke-width:1.00000024;marker:none;visibility:visible;display:inline;overflow:visible" />
    <path
       d="m 30.059082,42.086864 c 1.791141,0.167652 8.989727,-4.369586 9.48084,-8.388009 -1.563262,2.423097 -4.954951,1.968591 -9.063709,2.127601 0,0 0.395369,5.760408 -0.417131,6.260408 z"
       id="path2210"
       style="color:#000000;fill:url(#linearGradient2230);fill-opacity:1;fill-rule:evenodd;stroke:#868a84;stroke-width:1.00000024;stroke-linecap:butt;stroke-linejoin:miter;stroke-miterlimit:4;stroke-opacity:1;stroke-dasharray:none;stroke-dashoffset:0;marker:none;visibility:visible;display:inline;overflow:visible" />
    <path
       d="m 19.46875,1.46875 c -0.0021,0.0021 0.0017,0.028784 0,0.03125 -0.0012,0.00278 -0.03063,-0.00302 -0.03125,0 l 0,2.875 c 0,0.00642 0.02891,0.025698 0.03125,0.03125 0.0025,0.00166 -0.0028,0.03008 0,0.03125 l -3.53125,0 c -0.01776,0 -0.04522,-0.00174 -0.0625,0 -0.03403,0.00517 -0.09355,0.019776 -0.125,0.03125 -0.138168,0.058246 -0.267672,0.1990199 -0.3125,0.34375 -0.01051,0.041035 0,0.1118489 0,0.15625 l 0,4.15625 c 0,0.01776 -0.0017,0.045215 0,0.0625 0.0052,0.034032 0.01978,0.093546 0.03125,0.125 0.0097,0.023028 0.01843,0.0726 0.03125,0.09375 0.0046,0.00682 0.02634,0.02467 0.03125,0.03125 0.02087,0.025314 0.06844,0.072876 0.09375,0.09375 0.01316,0.00983 0.0484,0.0227 0.0625,0.03125 0.01454,0.00788 0.04715,0.024778 0.0625,0.03125 0.03145,0.011474 0.09097,0.026079 0.125,0.03125 0.01728,0.00174 0.04474,0 0.0625,0 l 16.125,0 c 0.01776,0 0.04521,0.00174 0.0625,0 0.03403,-0.00517 0.09355,-0.019776 0.125,-0.03125 0.01535,-0.00647 0.04796,-0.023372 0.0625,-0.03125 0.0141,-0.00855 0.04934,-0.021421 0.0625,-0.03125 0.02531,-0.020874 0.07288,-0.068436 0.09375,-0.09375 0.0049,-0.00658 0.02665,-0.02443 0.03125,-0.03125 0.01282,-0.02115 0.02154,-0.070722 0.03125,-0.09375 0.01147,-0.031454 0.02608,-0.090968 0.03125,-0.125 0.0017,-0.017285 0,-0.04474 0,-0.0625 l 0,-4.15625 c 0,-0.044401 0.01051,-0.1152152 0,-0.15625 -0.04483,-0.1447302 -0.174332,-0.2855036 -0.3125,-0.34375 -0.03145,-0.011474 -0.09097,-0.026079 -0.125,-0.03125 -0.01729,-0.00174 -0.04474,0 -0.0625,0 l -3.53125,0 c 0.0028,-0.00117 -0.0025,-0.029586 0,-0.03125 0.0023,-0.00555 0.03125,-0.024827 0.03125,-0.03125 l 0,-2.875 c -6.16e-4,-0.00302 -0.03008,0.00278 -0.03125,0 -0.0017,-0.00247 0.0021,-0.029154 0,-0.03125 -0.0028,-0.00117 -0.02823,6.157e-4 -0.03125,0 l -9,0 c -0.003,6.157e-4 -0.02847,-0.00117 -0.03125,0 z"
       id="rect2232"
       style="opacity:0.31681818;fill:none;stroke:url(#linearGradient2245);stroke-width:0.99999994;stroke-linecap:butt;stroke-linejoin:miter;stroke-miterlimit:4;stroke-opacity:1;stroke-dasharray:none;stroke-dashoffset:0" />
    <path
       d="m 31.509519,40.68705 c 1.369779,-0.683829 4.529264,-2.601034 5.828645,-4.482038 -1.792523,0.376484 -2.990921,0.589573 -5.727588,0.695482 0,0 0.08656,3.011586 -0.101057,3.786556 z"
       id="path2247"
       style="opacity:0.36931817;color:#000000;fill:none;stroke:url(#linearGradient2257);stroke-width:0.99999982;stroke-linecap:butt;stroke-linejoin:miter;stroke-miterlimit:4;stroke-opacity:1;stroke-dasharray:none;stroke-dashoffset:0;marker:none;visibility:visible;display:inline;overflow:visible" />
    <rect
       width="21"
       height="2"
       x="14"
       y="15"
       id="rect2271"
       style="opacity:0.17045456;color:#000000;fill:#000000;fill-opacity:1;fill-rule:evenodd;stroke:none;stroke-width:1;marker:none;visibility:visible;display:inline;overflow:visible" />
    <rect
       width="20"
       height="2"
       x="14"
       y="19"
       id="rect2273"
       style="opacity:0.17045456;color:#000000;fill:#000000;fill-opacity:1;fill-rule:evenodd;stroke:none;stroke-width:1;marker:none;visibility:visible;display:inline;overflow:visible" />
    <rect
       width="18"
       height="2"
       x="14"
       y="23"
       id="rect2275"
       style="opacity:0.17045456;color:#000000;fill:#000000;fill-opacity:1;fill-rule:evenodd;stroke:none;stroke-width:1;marker:none;visibility:visible;display:inline;overflow:visible" />
    <rect
       width="21"
       height="2"
       x="14"
       y="27"
       id="rect2277"
       style="opacity:0.17045456;color:#000000;fill:#000000;fill-opacity:1;fill-rule:evenodd;stroke:none;stroke-width:1;marker:none;visibility:visible;display:inline;overflow:visible" />
    <rect
       width="13"
       height="2"
       x="14"
       y="31"
       id="rect2279"
       style="opacity:0.17045456;color:#000000;fill:#000000;fill-opacity:1;fill-rule:evenodd;stroke:none;stroke-width:1;marker:none;visibility:visible;display:inline;overflow:visible" />
  </g>
</svg>
