<?xml version="1.0" encoding="UTF-8" standalone="no"?>
<!-- Created with Inkscape (http://www.inkscape.org/) -->
<svg
   xmlns:dc="http://purl.org/dc/elements/1.1/"
   xmlns:cc="http://creativecommons.org/ns#"
   xmlns:rdf="http://www.w3.org/1999/02/22-rdf-syntax-ns#"
   xmlns:svg="http://www.w3.org/2000/svg"
   xmlns="http://www.w3.org/2000/svg"
   xmlns:sodipodi="http://sodipodi.sourceforge.net/DTD/sodipodi-0.dtd"
   xmlns:inkscape="http://www.inkscape.org/namespaces/inkscape"
   version="1.0"
   width="107.28792"
   height="173.62682"
   id="svg2"
   sodipodi:version="0.32"
   inkscape:version="0.46"
   sodipodi:docname="rajoy-front1.svg"
   inkscape:output_extension="org.inkscape.output.svg.inkscape">
  <metadata
     id="metadata58">
    <rdf:RDF>
      <cc:Work
         rdf:about="">
        <dc:format>image/svg+xml</dc:format>
        <dc:type
           rdf:resource="http://purl.org/dc/dcmitype/StillImage" />
      </cc:Work>
    </rdf:RDF>
  </metadata>
  <sodipodi:namedview
     inkscape:window-height="723"
     inkscape:window-width="1018"
     inkscape:pageshadow="2"
     inkscape:pageopacity="0.0"
     guidetolerance="10.0"
     gridtolerance="10.0"
     objecttolerance="10.0"
     borderopacity="1.0"
     bordercolor="#666666"
     pagecolor="#ffffff"
     id="base"
     showgrid="false"
     inkscape:zoom="4.0236959"
     inkscape:cx="48.217081"
     inkscape:cy="139.2951"
     inkscape:window-x="10"
     inkscape:window-y="24"
     inkscape:current-layer="svg2"
     showguides="true"
     inkscape:guide-bbox="true" />
  <defs
     id="defs4">
    <inkscape:perspective
       sodipodi:type="inkscape:persp3d"
       inkscape:vp_x="0 : 86.813408 : 1"
       inkscape:vp_y="0 : 1000 : 0"
       inkscape:vp_z="107.28792 : 86.813408 : 1"
       inkscape:persp3d-origin="53.643959 : 57.875605 : 1"
       id="perspective60" />
    <linearGradient
       x1="79.135063"
       y1="222.45238"
       x2="81.359901"
       y2="288.58099"
       id="linearGradient22173"
       gradientUnits="userSpaceOnUse" />
    <linearGradient
       x1="146.3828"
       y1="70.228607"
       x2="116.75287"
       y2="53.988689"
       id="linearGradient15268"
       gradientUnits="userSpaceOnUse"
       gradientTransform="scale(1.034178,0.966951)" />
    <linearGradient
       x1="162.97719"
       y1="23.931684"
       x2="131.34537"
       y2="10.142395"
       id="linearGradient15267"
       gradientUnits="userSpaceOnUse"
       gradientTransform="scale(1.035723,0.965509)" />
    <linearGradient
       x1="215.19115"
       y1="116.1558"
       x2="148.53513"
       y2="78.029449"
       id="linearGradient15266"
       gradientUnits="userSpaceOnUse"
       gradientTransform="scale(1.026523,0.974162)" />
    <linearGradient
       x1="230.18588"
       y1="64.586258"
       x2="171.49763"
       y2="31.573004"
       id="linearGradient15265"
       gradientUnits="userSpaceOnUse"
       gradientTransform="scale(1.032621,0.96841)" />
    <radialGradient
       cx="24.825565"
       cy="176.56438"
       r="42.859913"
       fx="40.974991"
       fy="162.11137"
       id="radialGradient15264"
       gradientUnits="userSpaceOnUse" />
  </defs>
  <g
     transform="translate(-99.96391,-983.01834)"
     id="layer1" />
  <path
     style="fill:#ffe5b9;fill-opacity:1;fill-rule:evenodd;stroke:#000000;stroke-width:1.25;stroke-linecap:butt;stroke-linejoin:miter;stroke-miterlimit:4;stroke-dasharray:none;stroke-opacity:1;display:inline"
     id="path2549"
     d="M 55.33676,73.38526 L 53.91691,89.47686 L 44.92455,93.73646 L 56.75661,108.88146 L 68.58866,92.78986 L 58.64973,88.53036 L 60.06958,75.27846 L 55.33676,73.38526 L 55.33676,73.38526 z" />
  <path
     style="fill:#f2dab7;fill-opacity:1;stroke:#000000;stroke-width:1.11360252;stroke-miterlimit:4;stroke-dasharray:none;stroke-opacity:1;display:inline"
     id="path2554"
     d="M 32.379703,60.609771 C 29.915903,60.610888 27.918281,56.859119 27.918281,52.23069 C 27.918281,47.602263 29.915903,43.850494 32.379703,43.85161 C 34.8435,43.850494 36.841123,47.602263 36.841123,52.23069 C 36.841123,56.859119 34.8435,60.610888 32.379703,60.609771 z" />
  <path
     style="fill:#f2dab7;fill-opacity:1;stroke:#000000;stroke-width:1.26554954;stroke-miterlimit:4;stroke-opacity:1;display:inline"
     id="path2555"
     d="M 81.534818,59.507661 C 79.016596,59.51131 76.974091,55.87841 76.974091,51.395735 C 76.974091,46.913059 79.016596,43.280158 81.534818,43.283808 C 84.05304,43.280158 86.095545,46.913059 86.095545,51.395735 C 86.095545,55.87841 84.05304,59.51131 81.534818,59.507661 z" />
  <path
     style="fill:#f2dab7;fill-opacity:1;fill-rule:evenodd;stroke:#000000;stroke-width:1.25000000000000000;stroke-linecap:butt;stroke-linejoin:miter;stroke-miterlimit:4;stroke-dasharray:none;stroke-opacity:1;display:inline"
     id="path2587"
     d="M 36.87875,111.72116 L 30.72608,128.28606 C 20.78715,130.65246 26.93982,140.11816 26.93982,140.11816 C 35.4589,143.43106 38.2986,139.17156 38.2986,139.17156 L 43.5047,111.72116 L 36.87875,111.72116 L 36.87875,111.72116 z" />
  <g
     style="fill:#000000;fill-opacity:1;display:inline"
     id="g2683"
     transform="matrix(-1,0,0,1,139.3194,-479.91293)">
    <path
       style="fill:#000000;fill-opacity:1;fill-rule:evenodd;stroke:#000000;stroke-width:1.25;stroke-linecap:butt;stroke-linejoin:miter;stroke-miterlimit:4;stroke-opacity:1"
       id="path2684"
       d="M 61.053417,633.09397 C 33.603044,634.51381 32.656479,646.81915 32.656479,646.81915 C 32.656479,656.75808 85.664097,651.55198 85.664097,651.55198 L 85.664097,635.46038 L 61.053417,633.09397 L 61.053417,633.09397 z" />
    <path
       style="fill:#000000;fill-opacity:1;fill-rule:nonzero;stroke:none"
       id="path2685"
       d="M 47.091589,633.83797 C 56.984628,634.61994 61.315987,641.7029 57.807393,650.68263 L 56.549444,650.18802 C 59.749959,642.10249 56.066216,635.95637 47.091589,635.18966 L 47.091589,633.83797 z" />
    <path
       style="fill:#000000;fill-opacity:1;fill-rule:nonzero;stroke:none"
       id="path2686"
       d="M 55.137389,632.8914 C 66.681678,632.8924 70.902805,642.0118 66.474303,652.01826 L 65.238683,651.47024 C 69.296349,642.34188 65.745749,634.2404 55.137389,634.2431 L 55.137389,632.8914 z" />
  </g>
  <g
     style="fill:#000000;fill-opacity:1;display:inline"
     id="g2679"
     transform="translate(-32.031479,-479.91293)">
    <path
       style="fill:#000000;fill-opacity:1;fill-rule:evenodd;stroke:#000000;stroke-width:1.25;stroke-linecap:butt;stroke-linejoin:miter;stroke-miterlimit:4;stroke-opacity:1"
       id="path2574"
       d="M 61.053417,633.09397 C 33.603044,634.51381 32.656479,646.81915 32.656479,646.81915 C 32.656479,656.75808 85.664097,651.55198 85.664097,651.55198 L 85.664097,635.46038 L 61.053417,633.09397 L 61.053417,633.09397 z" />
    <path
       style="fill:#000000;fill-opacity:1;fill-rule:nonzero;stroke:none"
       id="path2577"
       d="M 47.091589,633.83797 C 56.984628,634.61994 61.315987,641.7029 57.807393,650.68263 L 56.549444,650.18802 C 59.749959,642.10249 56.066216,635.95637 47.091589,635.18966 L 47.091589,633.83797 z" />
    <path
       style="fill:#000000;fill-opacity:1;fill-rule:nonzero;stroke:none"
       id="path2578"
       d="M 55.137389,632.8914 C 66.681678,632.8924 70.902805,642.0118 66.474303,652.01826 L 65.238683,651.47024 C 69.296349,642.34188 65.745749,634.2404 55.137389,634.2431 L 55.137389,632.8914 z" />
  </g>
  <g
     style="fill:#2e3436;display:inline"
     id="g2592"
     transform="translate(-31.273909,-480.67053)">
    <path
       style="fill:#2e3436;fill-opacity:1;fill-rule:evenodd;stroke:#000000;stroke-width:1.41316688;stroke-linecap:butt;stroke-linejoin:miter;stroke-miterlimit:4;stroke-dasharray:none;stroke-opacity:1"
       id="path2567"
       transform="matrix(0.859835,0,0,0.909951,14.03942,35.05921)"
       d="M 62.946547,630.72755 L 53.480901,657.23136 C 63.419829,661.96419 83.297686,660.07106 83.297686,660.07106 C 93.709897,665.75045 115.48088,658.65121 115.48088,658.65121 L 106.48852,626.46801 L 62.946547,630.72755 L 62.946547,630.72755 z" />
    <path
       style="fill:#2e3436;stroke:#000000;stroke-width:1.41316688;stroke-linecap:butt;stroke-linejoin:miter;stroke-miterlimit:4;stroke-dasharray:none;stroke-opacity:1"
       id="path2568"
       transform="matrix(0.859835,0,0,0.909951,14.03942,35.05921)"
       d="M 79.038145,636.40694 L 76.198451,646.34587 L 92.29005,644.92602" />
    <path
       style="fill:#2e3436;stroke:#000000;stroke-width:1.41316688;stroke-linecap:butt;stroke-linejoin:miter;stroke-miterlimit:4;stroke-dasharray:none;stroke-opacity:1"
       id="path2569"
       transform="matrix(0.859835,0,0,0.909951,14.03942,35.05921)"
       d="M 85.664097,635.93366 L 83.297686,659.59778" />
  </g>
  <path
     style="fill:#f2dab7;fill-opacity:1;fill-rule:evenodd;stroke:#000000;stroke-width:1.25000000000000000;stroke-linecap:butt;stroke-linejoin:miter;stroke-miterlimit:4;stroke-dasharray:none;stroke-opacity:1;display:inline"
     id="path2476"
     d="M 77.537539,110.99744 L 83.690209,127.56234 C 93.629149,129.92874 87.476479,139.39444 87.476479,139.39444 C 78.957389,142.70734 76.117689,138.44784 76.117689,138.44784 L 70.911592,110.99744 L 77.537539,110.99744 L 77.537539,110.99744 z" />
  <path
     style="fill:#ffffff;fill-opacity:1;fill-rule:evenodd;stroke:#000000;stroke-width:1.25;stroke-linecap:butt;stroke-linejoin:miter;stroke-miterlimit:4;stroke-dasharray:none;stroke-opacity:1;display:inline"
     id="path2551"
     d="M 49.00362,88.06366 L 56.59535,86.29046 L 65.0856,87.77276 L 83.88702,128.24506 L 78.23434,131.66616 L 66.38554,98.60996 L 76.80397,130.27826 C 63.98129,135.82836 35.53097,130.60476 35.53097,130.60476 L 45.14798,99.26296 L 35.37881,131.53156 L 28.69719,128.31636 L 49.00362,88.06366 L 49.00362,88.06366 z" />
  <path
     style="fill:#ffffff;fill-opacity:1;stroke:#000000;stroke-width:1;stroke-miterlimit:4;stroke-dasharray:none;stroke-opacity:1"
     id="path2864"
     d="M 51.01194,83.40776 L 56.41167,84.12776 L 53.89179,94.74716 L 45.61222,88.98746 L 51.01194,83.40776 z" />
  <path
     style="fill:#ffffff;fill-opacity:1;stroke:#000000;stroke-width:1;stroke-miterlimit:4;stroke-dasharray:none;stroke-opacity:1"
     id="path3638"
     d="M 62.09126,83.40776 L 56.69154,84.12776 L 59.21141,94.74726 L 67.49099,88.98756 L 62.09126,83.40776 z" />
  <path
     style="fill:#2e3436;fill-opacity:1;stroke:#000000;stroke-width:1;stroke-miterlimit:4;stroke-dasharray:none;stroke-opacity:1"
     id="path3735"
     d="M 40.303252,134.26085 L 36.554112,154.10005" />
  <path
     style="fill:#2e3436;fill-opacity:1;stroke:#000000;stroke-width:1;stroke-miterlimit:4;stroke-dasharray:none;stroke-opacity:1"
     id="path3737"
     d="M 68.734228,135.82299 L 73.264439,155.66219" />
  <path
     style="fill:#e80000;fill-opacity:1;stroke:#000000;stroke-width:1;stroke-miterlimit:4;stroke-dasharray:none;stroke-opacity:1"
     id="path3741"
     d="M 55.15136,94.603971 C 55.15136,94.603971 50.829799,114.35968 50.829799,116.00599 C 50.829799,117.6523 55.357149,127.73595 55.357149,127.73595 C 55.357149,127.73595 61.119231,117.85809 60.501865,113.74232 C 59.8845,109.62654 56.591881,92.957662 56.591881,92.957662 L 55.15136,94.603971 L 55.15136,94.603971 z" />
  <path
     style="fill:#e80000;fill-opacity:1;stroke:#000000;stroke-width:1;stroke-miterlimit:4;stroke-dasharray:none;stroke-opacity:1"
     id="path3739"
     d="M 55.76873,86.16666 L 51.03559,89.87086 L 56.1803,95.63296 L 62.55975,89.66506 L 55.76873,86.16666 L 55.76873,86.16666 z" />
  <path
     style="fill:#2e3436;fill-opacity:1;stroke:#000000;stroke-width:1;stroke-miterlimit:4;stroke-dasharray:none;stroke-opacity:1"
     id="path3743"
     d="M 49.183489,85.343481 L 41.157732,91.517141 L 28.398835,124.44333 L 36.424592,128.97068 L 44.861927,99.954476 L 33.955129,138.02538 C 33.955129,138.02538 38.894056,139.4659 41.980886,139.67169 C 45.067716,139.87748 56.386093,140.49484 56.386093,140.49484 L 56.730288,110.46791 L 50.62401,91.311353 L 49.183489,85.343481 z" />
  <path
     style="fill:#3b4245;fill-opacity:1;stroke:#000000;stroke-width:1;stroke-miterlimit:4;stroke-dasharray:none;stroke-opacity:1"
     id="path3747"
     d="M 48.605587,83.996331 L 43.700436,89.347404 L 51.058162,98.488822 L 48.382625,105.84655 L 53.733699,116.32573 L 58.63885,113.20427 L 48.605587,83.996331 L 48.605587,83.996331 z" />
  <path
     style="fill:#2e3436;fill-opacity:1;stroke:#000000;stroke-width:1;stroke-miterlimit:4;stroke-dasharray:none;stroke-opacity:1"
     id="path3745"
     d="M 63.94564,85.34346 L 71.9714,91.51716 L 84.73029,124.44336 L 76.70454,128.97066 L 68.2672,99.95446 L 79.174,138.02536 C 79.174,138.02536 74.23507,139.46586 71.14824,139.67166 C 68.06141,139.87746 50.98096,140.49486 50.98096,140.49486 L 52.14416,118.46986 L 56.39884,110.46796 L 62.50512,91.31136 L 63.94564,85.34346 z" />
  <path
     style="fill:#3b4245;fill-opacity:1;stroke:#000000;stroke-width:1;stroke-miterlimit:4;stroke-dasharray:none;stroke-opacity:1"
     id="path3749"
     d="M 63.7337,83.99636 L 68.63885,89.34736 L 61.28113,98.48886 L 63.95667,105.84656 L 51.69379,123.23756 L 53.70044,113.20426 L 63.7337,83.99636 z" />
  <g
     transform="translate(-99.96391,-983.01834)"
     id="layer3" />
  <g
     transform="translate(-99.96391,-983.01834)"
     id="layer4" />
  <path
     style="fill:none;fill-rule:evenodd;stroke:#000000;stroke-width:2.29999995;stroke-linecap:round;stroke-linejoin:miter;stroke-miterlimit:4;stroke-dasharray:none;stroke-opacity:1"
     d="M 37.607428,49.733188 C 38.076056,49.147402 38.544684,48.561617 39.013313,47.975831 C 40.082979,46.638748 41.055243,46.134594 41.473612,44.461118 C 41.786031,43.211443 41.044036,44.890694 41.825083,44.109647 C 43.189984,45.841335 46.204104,47.5975 47.109642,48.503038 C 50.065307,50.050784 50.953363,51.031712 54.126578,52.193487"
     id="path3272"
     sodipodi:nodetypes="cssccc" />
  <path
     style="fill:none;fill-rule:evenodd;stroke:#000000;stroke-width:2.29999995;stroke-linecap:round;stroke-linejoin:miter;stroke-miterlimit:4;stroke-dasharray:none;stroke-opacity:1"
     d="M 61.858946,52.544958 C 65.672491,50.060904 69.222735,48.63005 73.457499,44.461118 C 74.563428,45.014082 77.741448,49.345067 78.360434,49.964053"
     id="path3274"
     sodipodi:nodetypes="ccs" />
  <g
     id="g3282"
     transform="translate(0.8095441,2.0750183)">
    <path
       d="M 52.017752,52.193485 A 6.3264832,2.2845633 0 1 1 39.364786,52.193485 A 6.3264832,2.2845633 0 1 1 52.017752,52.193485 z"
       sodipodi:ry="2.2845633"
       sodipodi:rx="6.3264832"
       sodipodi:cy="52.193485"
       sodipodi:cx="45.691269"
       id="path3276"
       style="fill:#fffdfd;fill-opacity:1;stroke:#000000;stroke-width:1;stroke-miterlimit:4;stroke-dasharray:none;stroke-dashoffset:0;stroke-opacity:1"
       sodipodi:type="arc" />
    <path
       transform="matrix(0.3030633,0,0,0.8392521,31.93179,8.126388)"
       d="M 52.017752,52.193485 A 6.3264832,2.2845633 0 1 1 39.364786,52.193485 A 6.3264832,2.2845633 0 1 1 52.017752,52.193485 z"
       sodipodi:ry="2.2845633"
       sodipodi:rx="6.3264832"
       sodipodi:cy="52.193485"
       sodipodi:cx="45.691269"
       id="path3278"
       style="fill:#000000;fill-opacity:1;stroke:#000000;stroke-width:1;stroke-miterlimit:4;stroke-dasharray:none;stroke-dashoffset:0;stroke-opacity:1"
       sodipodi:type="arc" />
    <path
       sodipodi:nodetypes="ccsc"
       id="path3280"
       d="M 39.510369,53.064849 C 45.431767,56.419974 51.396432,53.313377 51.396432,53.313377 C 51.396432,53.313377 50.116326,56.963327 45.307503,56.741293 C 40.777123,56.532116 39.510369,53.41632 39.510369,53.064849 z"
       style="fill:none;fill-rule:evenodd;stroke:#000000;stroke-width:1px;stroke-linecap:butt;stroke-linejoin:miter;stroke-opacity:1" />
  </g>
  <g
     id="g3287"
     transform="matrix(-1,0,0,1,114.72168,2.0844377)">
    <path
       d="M 52.017752,52.193485 A 6.3264832,2.2845633 0 1 1 39.364786,52.193485 A 6.3264832,2.2845633 0 1 1 52.017752,52.193485 z"
       sodipodi:ry="2.2845633"
       sodipodi:rx="6.3264832"
       sodipodi:cy="52.193485"
       sodipodi:cx="45.691269"
       id="path3289"
       style="fill:#fffdfd;fill-opacity:1;stroke:#000000;stroke-width:1;stroke-miterlimit:4;stroke-dasharray:none;stroke-dashoffset:0;stroke-opacity:1"
       sodipodi:type="arc" />
    <path
       transform="matrix(0.3030633,0,0,0.8392521,31.93179,8.126388)"
       d="M 52.017752,52.193485 A 6.3264832,2.2845633 0 1 1 39.364786,52.193485 A 6.3264832,2.2845633 0 1 1 52.017752,52.193485 z"
       sodipodi:ry="2.2845633"
       sodipodi:rx="6.3264832"
       sodipodi:cy="52.193485"
       sodipodi:cx="45.691269"
       id="path3291"
       style="fill:#000000;fill-opacity:1;stroke:#000000;stroke-width:1;stroke-miterlimit:4;stroke-dasharray:none;stroke-dashoffset:0;stroke-opacity:1"
       sodipodi:type="arc" />
    <path
       sodipodi:nodetypes="ccsc"
       id="path3293"
       d="M 39.510369,53.064849 C 45.431767,56.419974 51.396432,53.313377 51.396432,53.313377 C 51.396432,53.313377 50.116326,56.963327 45.307503,56.741293 C 40.777123,56.532116 39.510369,53.41632 39.510369,53.064849 z"
       style="fill:none;fill-rule:evenodd;stroke:#000000;stroke-width:1px;stroke-linecap:butt;stroke-linejoin:miter;stroke-opacity:1" />
  </g>
  <path
     style="fill:none;fill-rule:evenodd;stroke:#000000;stroke-width:1.04065859px;stroke-linecap:butt;stroke-linejoin:miter;stroke-opacity:1"
     d="M 72.382756,73.042122 L 70.276867,69.611644 C 63.530396,74.620931 54.17081,75.096811 45.006205,69.992808 L 43.602278,73.423286 L 43.602278,73.423286 L 43.602278,73.042122 L 43.251297,72.660958"
     id="path3295"
     sodipodi:nodetypes="ccccccc" />
  <path
     style="fill:none;fill-rule:evenodd;stroke:#000000;stroke-width:1px;stroke-linecap:butt;stroke-linejoin:miter;stroke-opacity:1"
     d="M 59.574383,53.599372 L 59.574383,67.131016 L 61.507475,68.361166 L 59.750119,69.41558 L 58.519969,70.645729 L 56.411141,69.064108 L 55.005256,68.536901 L 56.586877,66.955281"
     id="path3297" />
  <path
     style="fill:#e36176;fill-opacity:1;fill-rule:evenodd;stroke:#000000;stroke-width:1px;stroke-linecap:butt;stroke-linejoin:miter;stroke-opacity:1"
     d="M 47.097153,71.172936 C 54.026262,72.861411 55.476686,77.27804 68.536902,70.821465 C 59.480943,77.933928 55.764215,77.607912 47.097153,71.172936 z"
     id="path3305"
     sodipodi:nodetypes="ccc" />
  <path
     sodipodi:type="arc"
     style="fill:#f2dab7;fill-opacity:1;stroke:#000000;stroke-width:1.07500005;stroke-linecap:round;stroke-miterlimit:4;stroke-dasharray:none;stroke-dashoffset:0;stroke-opacity:1"
     id="path2430"
     sodipodi:cx="59.486515"
     sodipodi:cy="44.197514"
     sodipodi:rx="23.284973"
     sodipodi:ry="33.829113"
     d="M 82.771488,44.197514 A 23.284973,33.829113 0 1 1 36.201542,44.197514 A 23.284973,33.829113 0 1 1 82.771488,44.197514 z"
     transform="matrix(1.0370742,0,0,1.0203238,-4.1385048,2.0892457)" />
  <path
     style="fill:#1e1e1e;fill-opacity:1;fill-rule:evenodd;stroke:#000000;stroke-width:0.98894477px;stroke-linecap:butt;stroke-linejoin:miter;stroke-opacity:1"
     d="M 31.909545,52.726198 C 31.574607,48.012981 30.388074,44.555669 30.189129,39.827715 C 29.571296,36.046689 29.770698,37.71707 30.36954,32.414856 C 30.874758,27.564609 30.127275,32.838658 31.925758,25.94855 C 33.10068,23.64399 35.111558,20.863446 36.934027,20.479492 C 37.86881,18.182769 39.437296,15.102404 41.816178,13.88682 C 44.474286,12.724595 45.846709,12.122556 48.483165,10.875064 C 51.091384,10.046593 51.009498,8.5083989 57.588524,8.0958956 C 63.594669,8.2788887 64.562089,9.822946 66.218041,10.872557 C 69.095329,11.01239 71.462966,13.440351 74.044558,14.334813 C 76.554743,16.158109 75.524722,17.079806 78.219195,18.667639 C 80.721231,23.312618 80.537256,21.456739 82.492693,27.491057 C 81.929026,30.598015 83.433749,34.432839 82.836807,37.540003 C 81.32429,39.905994 80.800967,44.361806 80.275839,46.854035 C 80.861843,48.748322 79.671415,41.997863 78.878936,40.678218 C 78.494008,38.015829 79.096272,35.2437 78.323985,32.606402 C 78.607894,30.848928 77.532284,28.474392 75.151113,24.098446 C 73.383321,21.065956 73.022218,20.115683 69.733712,17.801175 C 66.885816,18.134657 64.074622,20.655916 63.249535,23.668569 C 59.103357,23.924072 55.644681,23.482669 50.475982,22.97443 C 47.510589,22.067262 43.374969,19.905618 41.298103,20.824298 C 37.788884,22.820423 36.922849,31.325839 35.273117,33.704304 C 31.880494,38.47706 33.234661,41.397977 32.863173,52.822654"
     id="path3299"
     sodipodi:nodetypes="ccccccccccccccccccccccc" />
  <path
     style="fill:none;fill-rule:evenodd;stroke:#000000;stroke-width:1px;stroke-linecap:butt;stroke-linejoin:miter;stroke-opacity:1"
     d="M 55.620331,45.6034 L 54.865917,56.692408"
     id="path3202"
     sodipodi:nodetypes="cc" />
  <path
     style="fill:none;fill-rule:evenodd;stroke:#000000;stroke-width:1px;stroke-linecap:butt;stroke-linejoin:miter;stroke-opacity:1"
     d="M 58.519969,45.691268 L 59.801591,55.841294 C 59.889459,56.994835 61.54995,57.73789 61.585996,58.638036 C 61.622042,59.538182 59.945774,59.453137 59.874383,59.738702 C 59.013976,61.371541 56.038498,62.067987 55.060072,60.182456 L 53.048701,58.886517"
     id="path3204"
     sodipodi:nodetypes="cssccc" />
  <path
     style="fill:#d40c24;fill-opacity:1;fill-rule:evenodd;stroke:#000000;stroke-width:1px;stroke-linecap:butt;stroke-linejoin:miter;stroke-opacity:1"
     d="M 50.275469,67.088375 C 56.455506,67.498425 58.857226,67.2934 64.246452,67.26411 C 57.936779,69.424958 57.296021,70.038457 50.275469,67.088375 z"
     id="path3302"
     sodipodi:nodetypes="ccc" />
  <path
     style="fill:#e3d7c7;fill-opacity:1;fill-rule:evenodd;stroke:#000000;stroke-width:0.98094893px;stroke-linecap:butt;stroke-linejoin:miter;stroke-opacity:1"
     d="M 82.103675,47.918734 C 81.439187,49.182186 82.050401,48.916518 82.103675,47.918734 z M 52.950011,61.747069 C 50.484684,62.509209 46.280958,65.162696 43.759226,71.285267 C 38.006633,63.863078 37.800281,55.637563 33.747115,52.707856 C 32.616732,53.483529 31.561127,52.956461 33.550781,55.685771 C 34.138713,60.649374 38.788905,79.546663 46.620975,78.726852 C 53.936414,84.480668 59.607385,83.533449 67.8856,78.427603 C 74.396335,77.383615 73.796215,74.49976 75.935612,70.196006 C 79.228191,64.105541 83.176478,47.951964 80.632345,47.522802 C 76.374362,64.158803 74.001219,67.70466 70.691908,70.710302 C 68.886579,65.406374 66.558515,64.057575 63.269469,62.109579 C 59.980423,60.161582 55.438827,60.977667 52.950011,61.747069 z M 49.820515,68.377949 C 47.84981,71.58503 50.978679,74.140514 52.755191,75.294122 C 53.643447,75.870926 55.378633,74.86471 54.206128,71.777666 C 56.353815,72.337977 58.719482,72.225024 60.743262,71.602527 C 60.045959,74.575189 60.581408,75.830176 62.014798,74.639658 C 63.623923,73.624876 67.071784,69.989876 65.850916,68.569123 C 61.314593,63.290096 51.79122,65.170868 49.820515,68.377949 z"
     id="path3210"
     sodipodi:nodetypes="ccccccccccczzcscccsz" />
  <path
     style="fill:none;fill-rule:evenodd;stroke:#818181;stroke-width:1px;stroke-linecap:butt;stroke-linejoin:miter;stroke-opacity:1"
     d="M 30.632872,47.212998 C 38.834287,47.212998 38.958551,47.212998 38.958551,47.212998"
     id="path3285" />
  <path
     style="fill:none;fill-rule:evenodd;stroke:#818181;stroke-width:1px;stroke-linecap:butt;stroke-linejoin:miter;stroke-opacity:1"
     d="M 61.077519,47.337262 C 57.163207,44.976248 52.316917,47.27513 52.316917,47.27513"
     id="path3287"
     sodipodi:nodetypes="cs" />
  <path
     style="fill:none;fill-rule:evenodd;stroke:#818181;stroke-width:1px;stroke-linecap:butt;stroke-linejoin:miter;stroke-opacity:1"
     d="M 74.746544,46.840206 C 81.953848,46.96447 81.953848,46.840206 81.953848,46.840206 L 81.953848,46.840206 L 81.70532,47.088734"
     id="path3290" />
  <path
     style="fill:none;fill-rule:evenodd;stroke:#000000;stroke-width:1.5;stroke-linecap:butt;stroke-linejoin:miter;stroke-miterlimit:4;stroke-dasharray:none;stroke-opacity:1"
     d="M 62.12255,44.197514 C 70.733597,41.912951 70.733597,41.912951 70.733597,41.912951"
     id="path3292" />
  <path
     style="fill:none;fill-rule:evenodd;stroke:#000000;stroke-width:1.5;stroke-linecap:butt;stroke-linejoin:miter;stroke-miterlimit:4;stroke-dasharray:none;stroke-opacity:1"
     d="M 49.996791,44.197514 C 42.440158,41.737215 42.440158,41.737215 42.440158,41.737215"
     id="path3294" />
  <g
     id="g4944"
     transform="matrix(-1,0,0,1,88.053468,0.8117436)">
    <g
       transform="matrix(1.1024161,0,0,1,-30.40173,2.6916083)"
       id="g4946">
      <path
         style="fill:#ffffff;fill-opacity:1;fill-rule:evenodd;stroke:#000000;stroke-width:1.20110834px;stroke-linecap:butt;stroke-linejoin:miter;stroke-opacity:1"
         d="M 50.537052,41.694078 C 46.66686,41.797837 44.380881,41.544191 43.123916,45.143883 C 43.123916,45.143883 43.535394,45.935191 46.510584,46.13091 C 50.100683,46.36708 50.280795,44.898006 50.537052,41.694078 z"
         id="path4948"
         sodipodi:nodetypes="ccsc" />
    </g>
    <path
       transform="matrix(1.3840339,0,0,1.1711433,-1.8872241,10.392051)"
       d="M 18.276507,30.094728 A 1.0983478,0.92261213 0 1 1 16.079812,30.094728 A 1.0983478,0.92261213 0 1 1 18.276507,30.094728 z"
       sodipodi:ry="0.92261213"
       sodipodi:rx="1.0983478"
       sodipodi:cy="30.094728"
       sodipodi:cx="17.17816"
       id="path4950"
       style="fill:#000000;fill-opacity:1;fill-rule:evenodd;stroke:#02691f;stroke-width:0.839652;stroke-linecap:round;stroke-miterlimit:4;stroke-dasharray:none;stroke-dashoffset:0;stroke-opacity:1"
       sodipodi:type="arc" />
    <path
       style="fill:none;fill-opacity:1;fill-rule:evenodd;stroke:#000000;stroke-width:1.26111579px;stroke-linecap:butt;stroke-linejoin:miter;stroke-opacity:1"
       d="M 26.952384,44.368709 C 19.698318,44.120997 18.123444,44.906689 16.12267,49.472927"
       id="path4952"
       sodipodi:nodetypes="cc" />
  </g>
  <path
     sodipodi:type="arc"
     style="fill:#fefefe;fill-opacity:0.29482075;fill-rule:evenodd;stroke:#3b3b4d;stroke-width:0.26819667;stroke-linecap:round;stroke-miterlimit:4;stroke-dasharray:none;stroke-dashoffset:0;stroke-opacity:1"
     id="path3279"
     sodipodi:cx="46.04274"
     sodipodi:cy="44.988323"
     sodipodi:rx="6.6779547"
     sodipodi:ry="4.3055234"
     d="M 52.720695,44.988323 A 6.6779547,4.3055234 0 1 1 39.364785,44.988323 A 6.6779547,4.3055234 0 1 1 52.720695,44.988323 z"
     transform="matrix(1.1294202,0.1311839,-0.1269654,1.0931007,21.880712,-7.0226282)"
     sodipodi:insensitive="true" />
  <g
     id="g4938"
     transform="translate(25.569536,1.0544139)">
    <g
       transform="matrix(1.1024161,0,0,1,-30.40173,2.6916083)"
       id="g3248">
      <path
         style="fill:#ffffff;fill-opacity:1;fill-rule:evenodd;stroke:#000000;stroke-width:1.20110834px;stroke-linecap:butt;stroke-linejoin:miter;stroke-opacity:1"
         d="M 50.537052,41.694078 C 46.66686,41.797837 44.380881,41.544191 43.123916,45.143883 C 43.123916,45.143883 43.535394,45.935191 46.510584,46.13091 C 50.100683,46.36708 50.280795,44.898006 50.537052,41.694078 z"
         id="path3212"
         sodipodi:nodetypes="ccsc" />
    </g>
    <path
       transform="matrix(1.3840339,0,0,1.1711433,-1.8872241,10.392051)"
       d="M 18.276507,30.094728 A 1.0983478,0.92261213 0 1 1 16.079812,30.094728 A 1.0983478,0.92261213 0 1 1 18.276507,30.094728 z"
       sodipodi:ry="0.92261213"
       sodipodi:rx="1.0983478"
       sodipodi:cy="30.094728"
       sodipodi:cx="17.17816"
       id="path3214"
       style="fill:#000000;fill-opacity:1;fill-rule:evenodd;stroke:#02691f;stroke-width:0.839652;stroke-linecap:round;stroke-miterlimit:4;stroke-dasharray:none;stroke-dashoffset:0;stroke-opacity:1"
       sodipodi:type="arc" />
    <path
       style="fill:none;fill-opacity:1;fill-rule:evenodd;stroke:#000000;stroke-width:1.26111579px;stroke-linecap:butt;stroke-linejoin:miter;stroke-opacity:1"
       d="M 26.952384,44.368709 C 19.698318,44.120997 18.123444,44.906689 16.12267,49.472927"
       id="path4896"
       sodipodi:nodetypes="cc" />
  </g>
  <path
     sodipodi:type="arc"
     style="fill:#fefefe;fill-opacity:0.29482075;fill-rule:evenodd;stroke:#3b3b4d;stroke-width:0.26819667;stroke-linecap:round;stroke-miterlimit:4;stroke-dasharray:none;stroke-dashoffset:0;stroke-opacity:1"
     id="path3277"
     sodipodi:cx="46.04274"
     sodipodi:cy="44.988323"
     sodipodi:rx="6.6779547"
     sodipodi:ry="4.3055234"
     d="M 52.720695,44.988323 A 6.6779547,4.3055234 0 1 1 39.364785,44.988323 A 6.6779547,4.3055234 0 1 1 52.720695,44.988323 z"
     transform="matrix(1.1091485,-0.2501777,0.2421326,1.0734809,-16.174699,11.588459)"
     sodipodi:insensitive="true" />
  <path
     style="fill:#4b4b4b;fill-opacity:1;fill-rule:evenodd;stroke:none;stroke-width:1px;stroke-linecap:butt;stroke-linejoin:miter;stroke-opacity:1"
     d="M 42.001186,76.825264 C 42.292146,74.337314 43.391448,72.731967 44.919558,71.839635 C 45.524495,73.619397 45.851406,74.115547 47.644907,75.029169 C 49.599077,76.917165 50.292392,77.215551 52.348028,77.326272 C 52.85953,78.307122 53.111407,80.101553 53.865422,80.85048 C 55.740548,81.598385 58.711594,81.502741 59.809902,80.656124 C 61.053585,78.962386 60.444027,78.554082 61.007314,77.5043 C 62.307204,77.332282 62.981412,76.795298 64.036717,77.032057 C 65.345715,76.707549 66.319245,76.022303 67.124843,75.021913 C 68.239046,73.815097 68.943674,72.69714 68.859312,70.854063 C 69.363811,70.596131 69.475486,72.208072 70.00703,72.512751 C 70.617056,73.628003 71.473881,75.58513 71.591062,76.870491 C 70.514028,78.150844 69.068631,78.38514 67.947293,78.44368 C 65.557793,79.116844 64.71502,80.04027 62.549235,81.274399 C 60.477156,82.155995 58.11578,82.365654 56.286103,82.492618 C 55.073396,82.883401 54.155156,81.860326 52.911651,81.773511 C 51.342618,81.487522 49.956764,80.589963 48.595252,79.79741 C 47.555249,79.093256 46.612673,78.222281 45.260508,78.32804 C 43.900713,78.198517 42.889628,77.206822 41.940522,76.330576 C 41.955802,76.217568 41.83413,76.157145 41.752659,76.203945"
     id="path3371"
     sodipodi:nodetypes="cccccccccccccccccccc" />
  <path
     style="fill:none;fill-rule:evenodd;stroke:#000000;stroke-width:0.3;stroke-linecap:butt;stroke-linejoin:miter;stroke-opacity:1;stroke-miterlimit:4;stroke-dasharray:none"
     d="M 60.907319,56.836807 C 63.662527,57.80505 65.711584,60.941433 67.099538,62.898518"
     id="path4889"
     sodipodi:nodetypes="cc" />
  <path
     style="fill:none;fill-rule:evenodd;stroke:#000000;stroke-width:0.3;stroke-linecap:butt;stroke-linejoin:miter;stroke-opacity:1;stroke-miterlimit:4;stroke-dasharray:none"
     d="M 53.628411,56.996626 C 50.756434,58.853918 49.016201,59.771122 47.522376,62.533077 C 47.522376,62.533077 47.522376,63.475452 47.522376,63.475452"
     id="path4891"
     sodipodi:nodetypes="ccc" />
</svg>
