<?xml version="1.0" encoding="UTF-8" standalone="no"?>
<!-- Created with Inkscape (http://www.inkscape.org/) -->

<svg
   xmlns:dc="http://purl.org/dc/elements/1.1/"
   xmlns:cc="http://creativecommons.org/ns#"
   xmlns:rdf="http://www.w3.org/1999/02/22-rdf-syntax-ns#"
   xmlns:svg="http://www.w3.org/2000/svg"
   xmlns="http://www.w3.org/2000/svg"
   xmlns:sodipodi="http://sodipodi.sourceforge.net/DTD/sodipodi-0.dtd"
   xmlns:inkscape="http://www.inkscape.org/namespaces/inkscape"
   width="40.430214"
   height="22"
   id="svg3080"
   version="1.1"
   inkscape:version="0.47 r22583"
   sodipodi:docname="e1.svg">
  <defs
     id="defs3082">
    <inkscape:perspective
       sodipodi:type="inkscape:persp3d"
       inkscape:vp_x="0 : 526.18109 : 1"
       inkscape:vp_y="0 : 1000 : 0"
       inkscape:vp_z="744.09448 : 526.18109 : 1"
       inkscape:persp3d-origin="372.04724 : 350.78739 : 1"
       id="perspective3088" />
    <inkscape:perspective
       id="perspective3098"
       inkscape:persp3d-origin="0.5 : 0.33333333 : 1"
       inkscape:vp_z="1 : 0.5 : 1"
       inkscape:vp_y="0 : 1000 : 0"
       inkscape:vp_x="0 : 0.5 : 1"
       sodipodi:type="inkscape:persp3d" />
    <clipPath
       clipPathUnits="userSpaceOnUse"
       id="clipPath4396">
      <path
         style="fill:#000000;fill-opacity:1;stroke:#000000;stroke-width:1.05400002;stroke-linecap:round;stroke-linejoin:round;stroke-miterlimit:4;stroke-opacity:1;stroke-dasharray:none;display:inline"
         d="m 1229.2232,172.31765 c 0.1148,-3.85943 -15.7758,-13.18081 -34.2791,-15.69524 -10.254,-1.39342 -22.619,3.87465 -21.6499,8.9635 0.6349,3.33363 13.4297,2.23802 20.2034,2.18946 13.422,-0.0962 34.8004,6.1668 35.7256,4.54228 z"
         id="path4398"
         sodipodi:nodetypes="csssc" />
    </clipPath>
    <inkscape:perspective
       id="perspective3750"
       inkscape:persp3d-origin="0.5 : 0.33333333 : 1"
       inkscape:vp_z="1 : 0.5 : 1"
       inkscape:vp_y="0 : 1000 : 0"
       inkscape:vp_x="0 : 0.5 : 1"
       sodipodi:type="inkscape:persp3d" />
  </defs>
  <sodipodi:namedview
     id="base"
     pagecolor="#ffffff"
     bordercolor="#666666"
     borderopacity="1.0"
     inkscape:pageopacity="0.0"
     inkscape:pageshadow="2"
     inkscape:zoom="9.5967833"
     inkscape:cx="20.215107"
     inkscape:cy="11"
     inkscape:document-units="px"
     inkscape:current-layer="layer1"
     showgrid="false"
     inkscape:window-width="1024"
     inkscape:window-height="551"
     inkscape:window-x="0"
     inkscape:window-y="26"
     inkscape:window-maximized="1" />
  <metadata
     id="metadata3085">
    <rdf:RDF>
      <cc:Work
         rdf:about="">
        <dc:format>image/svg+xml</dc:format>
        <dc:type
           rdf:resource="http://purl.org/dc/dcmitype/StillImage" />
        <dc:title />
      </cc:Work>
    </rdf:RDF>
  </metadata>
  <g
     inkscape:label="Capa 1"
     inkscape:groupmode="layer"
     id="layer1"
     transform="translate(-603.22266,-367.18787)">
    <g
       style="display:inline"
       id="g3373"
       transform="matrix(0.43580757,0,0,0.43580757,323.58661,192.58608)"
       inkscape:export-filename="/home/rgarcia/my.art/south_park_test/eyes/center.png"
       inkscape:export-xdpi="299.77121"
       inkscape:export-ydpi="299.77121">
      <path
         sodipodi:type="arc"
         style="fill:#ffffff;fill-opacity:1;stroke:none"
         id="path3375"
         sodipodi:cx="657.5"
         sodipodi:cy="429.27304"
         sodipodi:rx="20.357143"
         sodipodi:ry="23.647097"
         d="m 677.85714,429.27304 c 0,13.05993 -9.1142,23.6471 -20.35714,23.6471 -11.24294,0 -20.35714,-10.58717 -20.35714,-23.6471 0,-13.05993 9.1142,-23.6471 20.35714,-23.6471 11.24294,0 20.35714,10.58717 20.35714,23.6471 z"
         transform="matrix(0.9295949,0.5381873,-0.5250086,0.9529293,278.44904,-337.22343)" />
      <path
         sodipodi:type="arc"
         style="fill:#000000;fill-opacity:1;stroke:none"
         id="path3377"
         sodipodi:cx="651.60712"
         sodipodi:cy="425.16592"
         sodipodi:rx="2.6785715"
         sodipodi:ry="2.5"
         d="m 654.28569,425.16592 c 0,1.38072 -1.19924,2.5 -2.67857,2.5 -1.47934,0 -2.67857,-1.11928 -2.67857,-2.5 0,-1.38071 1.19923,-2.5 2.67857,-2.5 1.47933,0 2.67857,1.11929 2.67857,2.5 z"
         transform="translate(24.642857,-0.3571429)" />
      <path
         transform="matrix(-0.9295949,0.5381873,0.5250086,0.9529293,1097.6223,-336.86629)"
         d="m 677.85714,429.27304 c 0,13.05993 -9.1142,23.6471 -20.35714,23.6471 -11.24294,0 -20.35714,-10.58717 -20.35714,-23.6471 0,-13.05993 9.1142,-23.6471 20.35714,-23.6471 11.24294,0 20.35714,10.58717 20.35714,23.6471 z"
         sodipodi:ry="23.647097"
         sodipodi:rx="20.357143"
         sodipodi:cy="429.27304"
         sodipodi:cx="657.5"
         id="path3379"
         style="fill:#ffffff;fill-opacity:1;stroke:none"
         sodipodi:type="arc" />
      <path
         transform="matrix(-1,0,0,1,1351.4285,-1.541639e-8)"
         d="m 654.28569,425.16592 c 0,1.38072 -1.19924,2.5 -2.67857,2.5 -1.47934,0 -2.67857,-1.11928 -2.67857,-2.5 0,-1.38071 1.19923,-2.5 2.67857,-2.5 1.47933,0 2.67857,1.11929 2.67857,2.5 z"
         sodipodi:ry="2.5"
         sodipodi:rx="2.6785715"
         sodipodi:cy="425.16592"
         sodipodi:cx="651.60712"
         id="path3381"
         style="fill:#000000;fill-opacity:1;stroke:none"
         sodipodi:type="arc" />
    </g>
  </g>
</svg>
