<?xml version="1.0" encoding="UTF-8" standalone="no"?>
<!-- Created with Inkscape (http://www.inkscape.org/) -->

<svg
   xmlns:dc="http://purl.org/dc/elements/1.1/"
   xmlns:cc="http://creativecommons.org/ns#"
   xmlns:rdf="http://www.w3.org/1999/02/22-rdf-syntax-ns#"
   xmlns:svg="http://www.w3.org/2000/svg"
   xmlns="http://www.w3.org/2000/svg"
   xmlns:xlink="http://www.w3.org/1999/xlink"
   xmlns:sodipodi="http://sodipodi.sourceforge.net/DTD/sodipodi-0.dtd"
   xmlns:inkscape="http://www.inkscape.org/namespaces/inkscape"
   width="60.013424"
   height="22"
   id="svg3080"
   version="1.1"
   inkscape:version="0.47 r22583"
   sodipodi:docname="e9.svg">
  <defs
     id="defs3082">
    <inkscape:perspective
       sodipodi:type="inkscape:persp3d"
       inkscape:vp_x="0 : 526.18109 : 1"
       inkscape:vp_y="0 : 1000 : 0"
       inkscape:vp_z="744.09448 : 526.18109 : 1"
       inkscape:persp3d-origin="372.04724 : 350.78739 : 1"
       id="perspective3088" />
    <inkscape:perspective
       id="perspective3098"
       inkscape:persp3d-origin="0.5 : 0.33333333 : 1"
       inkscape:vp_z="1 : 0.5 : 1"
       inkscape:vp_y="0 : 1000 : 0"
       inkscape:vp_x="0 : 0.5 : 1"
       sodipodi:type="inkscape:persp3d" />
    <clipPath
       clipPathUnits="userSpaceOnUse"
       id="clipPath4396">
      <path
         style="fill:#000000;fill-opacity:1;stroke:#000000;stroke-width:1.05400002;stroke-linecap:round;stroke-linejoin:round;stroke-miterlimit:4;stroke-opacity:1;stroke-dasharray:none;display:inline"
         d="m 1229.2232,172.31765 c 0.1148,-3.85943 -15.7758,-13.18081 -34.2791,-15.69524 -10.254,-1.39342 -22.619,3.87465 -21.6499,8.9635 0.6349,3.33363 13.4297,2.23802 20.2034,2.18946 13.422,-0.0962 34.8004,6.1668 35.7256,4.54228 z"
         id="path4398"
         sodipodi:nodetypes="csssc" />
    </clipPath>
    <inkscape:perspective
       id="perspective3750"
       inkscape:persp3d-origin="0.5 : 0.33333333 : 1"
       inkscape:vp_z="1 : 0.5 : 1"
       inkscape:vp_y="0 : 1000 : 0"
       inkscape:vp_x="0 : 0.5 : 1"
       sodipodi:type="inkscape:persp3d" />
  </defs>
  <sodipodi:namedview
     id="base"
     pagecolor="#ffffff"
     bordercolor="#666666"
     borderopacity="1.0"
     inkscape:pageopacity="0.0"
     inkscape:pageshadow="2"
     inkscape:zoom="6.4652202"
     inkscape:cx="30.006712"
     inkscape:cy="11"
     inkscape:document-units="px"
     inkscape:current-layer="layer1"
     showgrid="false"
     inkscape:window-width="1024"
     inkscape:window-height="551"
     inkscape:window-x="0"
     inkscape:window-y="26"
     inkscape:window-maximized="1" />
  <metadata
     id="metadata3085">
    <rdf:RDF>
      <cc:Work
         rdf:about="">
        <dc:format>image/svg+xml</dc:format>
        <dc:type
           rdf:resource="http://purl.org/dc/dcmitype/StillImage" />
        <dc:title />
      </cc:Work>
    </rdf:RDF>
  </metadata>
  <g
     inkscape:label="Capa 1"
     inkscape:groupmode="layer"
     id="layer1"
     transform="translate(-719.80611,-476.03367)">
    <g
       transform="matrix(0.46619971,0,0,0.46619971,548.94103,466.02214)"
       style="display:inline"
       id="g3462"
       inkscape:export-filename="/home/rgarcia/my.art/Boda project/characters/textures/juana/eyes/3.png"
       inkscape:export-xdpi="299"
       inkscape:export-ydpi="299">
      <g
         id="g2969-4-1-8"
         transform="matrix(1.3120156,0,0,0.91012042,-471.86722,-342.53241)"
         inkscape:export-filename="/home/rgarcia/my.art/south_park_project/characters/textures/eyes/3.png"
         inkscape:export-xdpi="299.77121"
         inkscape:export-ydpi="299.77121"
         style="display:inline">
        <path
           sodipodi:type="arc"
           style="color:#000000;fill:#e3bf97;fill-opacity:1;fill-rule:nonzero;stroke:#a99a8a;stroke-width:1.05513167;stroke-linecap:butt;stroke-linejoin:miter;stroke-miterlimit:4;stroke-opacity:1;stroke-dasharray:none;stroke-dashoffset:0;marker:none;visibility:visible;display:inline;overflow:visible;enable-background:accumulate"
           id="path2971-4-3-2"
           sodipodi:cx="657.5"
           sodipodi:cy="429.27304"
           sodipodi:rx="20.357143"
           sodipodi:ry="23.647097"
           d="m 677.85714,429.27304 c 0,13.05993 -9.1142,23.6471 -20.35714,23.6471 -11.24294,0 -20.35714,-10.58717 -20.35714,-23.6471 0,-13.05993 9.1142,-23.6471 20.35714,-23.6471 11.24294,0 20.35714,10.58717 20.35714,23.6471 z"
           transform="matrix(0.9295949,0.5381873,-0.5250086,0.9529293,278.44904,-337.22343)" />
        <path
           transform="matrix(-0.9295949,0.5381873,0.5250086,0.9529293,1097.6223,-336.86629)"
           d="m 677.85714,429.27304 c 0,13.05993 -9.1142,23.6471 -20.35714,23.6471 -11.24294,0 -20.35714,-10.58717 -20.35714,-23.6471 0,-13.05993 9.1142,-23.6471 20.35714,-23.6471 11.24294,0 20.35714,10.58717 20.35714,23.6471 z"
           sodipodi:ry="23.647097"
           sodipodi:rx="20.357143"
           sodipodi:cy="429.27304"
           sodipodi:cx="657.5"
           id="path2975-6-3-0"
           style="color:#000000;fill:#e3bf97;fill-opacity:1;fill-rule:nonzero;stroke:#a99a8a;stroke-width:1.05513167;stroke-linecap:butt;stroke-linejoin:miter;stroke-miterlimit:4;stroke-opacity:1;stroke-dasharray:none;stroke-dashoffset:0;marker:none;visibility:visible;display:inline;overflow:visible;enable-background:accumulate"
           sodipodi:type="arc" />
      </g>
      <path
         sodipodi:nodetypes="cccccccccccccccccccc"
         transform="translate(0,-308.2677)"
         id="path3422"
         d="m 432.63621,350.65863 c 11.33649,2.34935 34.80297,8.21074 58.53313,-0.92542 0.35592,1.74343 1.39256,2.79448 4.06586,1.68381 -3.32595,3.51478 -3.21008,3.02945 -0.71937,5.31301 -2.81448,0.24794 -4.4518,-0.36803 -7.04814,-0.7502 -1.75855,1.9007 -1.90782,2.32905 -0.18926,4.06617 -4.8436,-0.64335 -3.20466,-3.10167 -6.98279,-3.60346 -3.28712,1.24115 -0.85438,4.26321 -2.99119,6.4872 -1.32489,-3.37586 -2.16221,-3.21643 -4.18085,-4.40499 -3.0989,0.34102 -4.27247,2.89616 -5.52449,5.6997 0.78842,-2.59808 -1.9295,-4.55354 -4.19247,-5.93106 -4.1219,1.47376 -3.55399,3.99005 -4.80235,6.03851 -0.59412,-1.85085 -1.54635,-4.65038 -3.29512,-6.50123 -2.66882,0.50693 -4.35507,0.99466 -6.41021,3.95632 -0.0717,-1.77373 -0.18878,-3.33936 -2.61269,-5.11309 -5.41212,1.29586 -4.75783,2.32131 -6.81678,4.17603 0.14399,-2.09353 -0.53739,-4.56589 -3.13154,-5.56417 -1.45926,0.15663 -1.62546,0.46031 -4.62712,1.15677 1.84108,-2.7904 -0.37008,-1.38568 0.92542,-5.7839 l -4e-5,0 z"
         style="color:#000000;fill:#000000;fill-opacity:1;fill-rule:nonzero;stroke:none;stroke-width:1.0927453;marker:none;visibility:visible;display:inline;overflow:visible;enable-background:accumulate" />
      <use
         height="1052.3622"
         width="744.09448"
         transform="matrix(-1,0,0,1,861.7414,0)"
         id="use3460"
         xlink:href="#path3422"
         y="0"
         x="0" />
    </g>
  </g>
</svg>
