<?xml version="1.0" encoding="UTF-8" standalone="no"?>
<!-- Created with Inkscape (http://www.inkscape.org/) -->

<svg
   xmlns:svg="http://www.w3.org/2000/svg"
   xmlns="http://www.w3.org/2000/svg"
   version="1.0"
   width="60.41029"
   height="35.79961"
   id="svg2">
  <defs
     id="defs4" />
  <g
     transform="translate(-183.49906,-886.53901)"
     id="layer1" />
  <g
     transform="translate(-183.49906,-886.53901)"
     id="layer2">
    <path
       d="m 97.022873,504.59781 a 17.038162,17.274805 0 1 1 -34.076325,0 17.038162,17.274805 0 1 1 34.076325,0 z"
       transform="translate(121.17751,399.84101)"
       id="path4827"
       style="fill:#ffffff;fill-opacity:1;stroke:#000000;stroke-width:1.25;stroke-miterlimit:4;stroke-opacity:1;display:inline" />
    <path
       d="m 122.10684,504.59781 a 12.541981,13.488545 0 1 1 -25.083963,0 12.541981,13.488545 0 1 1 25.083963,0 z"
       transform="translate(121.17751,400.78761)"
       id="path4829"
       style="fill:#ffffff;fill-opacity:1;stroke:#000000;stroke-width:1.25;stroke-miterlimit:4;stroke-opacity:1;display:inline" />
    <path
       d="m 78.98003,525.00787 a 4.0159335,4.0159335 0 1 1 -8.031867,0 4.0159335,4.0159335 0 1 1 8.031867,0 z"
       transform="matrix(0.8891,0,0,0.8891,123.38801,438.53121)"
       id="path4831"
       style="fill:#ffffff;fill-opacity:1;stroke:#000000;stroke-width:4.21774817;stroke-miterlimit:4;stroke-opacity:1;display:inline" />
    <path
       d="m 78.98003,525.00787 a 4.0159335,4.0159335 0 1 1 -8.031867,0 4.0159335,4.0159335 0 1 1 8.031867,0 z"
       transform="matrix(0.8891,0,0,0.8891,156.51151,438.86581)"
       id="path4833"
       style="fill:#ffffff;fill-opacity:1;stroke:#000000;stroke-width:4.21774817;stroke-miterlimit:4;stroke-opacity:1;display:inline" />
    <path
       d="m 201.14668,887.1599 c -9.40992,0 -17.03125,7.7406 -17.03125,17.2812 0,0.6828 0.049,1.3379 0.125,2 l 33.8125,0 0.0937,-0.5937 c 0.0377,-0.4691 0.0625,-0.9273 0.0625,-1.4063 0,-9.5406 -7.65258,-17.2812 -17.0625,-17.2812 z"
       id="path4835"
       style="fill:#ffe5b9;fill-opacity:1;stroke:#000000;stroke-width:0.69999999;stroke-miterlimit:4;stroke-opacity:1;stroke-dasharray:none" />
    <path
       d="m 230.74043,891.9099 c -6.92674,0 -12.53125,6.0192 -12.53125,13.4687 0,0.36 0.0368,0.7096 0.0625,1.0625 l 24.9375,0 c 0.0257,-0.3529 0.0625,-0.7025 0.0625,-1.0625 0,-7.4495 -5.6045,-13.4687 -12.53125,-13.4687 z"
       id="path4837"
       style="fill:#ffe5b9;fill-opacity:1;stroke:#000000;stroke-width:0.69999999;stroke-miterlimit:4;stroke-opacity:1;stroke-dasharray:none" />
  </g>
  <g
     transform="translate(-183.49906,-886.53901)"
     id="layer3" />
  <g
     transform="translate(-183.49906,-886.53901)"
     id="layer4" />
</svg>
