<?xml version="1.0" encoding="UTF-8" standalone="no"?>
<!-- Created with Inkscape (http://www.inkscape.org/) -->

<svg
   xmlns:dc="http://purl.org/dc/elements/1.1/"
   xmlns:cc="http://creativecommons.org/ns#"
   xmlns:rdf="http://www.w3.org/1999/02/22-rdf-syntax-ns#"
   xmlns:svg="http://www.w3.org/2000/svg"
   xmlns="http://www.w3.org/2000/svg"
   xmlns:sodipodi="http://sodipodi.sourceforge.net/DTD/sodipodi-0.dtd"
   xmlns:inkscape="http://www.inkscape.org/namespaces/inkscape"
   version="1.0"
   width="107.28795"
   height="172.8869"
   id="svg2"
   inkscape:version="0.47 r22583"
   sodipodi:docname="right1.svg">
  <metadata
     id="metadata38">
    <rdf:RDF>
      <cc:Work
         rdf:about="">
        <dc:format>image/svg+xml</dc:format>
        <dc:type
           rdf:resource="http://purl.org/dc/dcmitype/StillImage" />
        <dc:title></dc:title>
      </cc:Work>
    </rdf:RDF>
  </metadata>
  <sodipodi:namedview
     pagecolor="#ffffff"
     bordercolor="#666666"
     borderopacity="1"
     objecttolerance="10"
     gridtolerance="10"
     guidetolerance="10"
     inkscape:pageopacity="0"
     inkscape:pageshadow="2"
     inkscape:window-width="1024"
     inkscape:window-height="551"
     id="namedview36"
     showgrid="false"
     inkscape:zoom="1.1928861"
     inkscape:cx="18.1041"
     inkscape:cy="47.824278"
     inkscape:window-x="0"
     inkscape:window-y="26"
     inkscape:window-maximized="1"
     inkscape:current-layer="svg2" />
  <defs
     id="defs4">
    <inkscape:path-effect
       effect="spiro"
       id="path-effect3684"
       is_visible="true" />
    <inkscape:perspective
       sodipodi:type="inkscape:persp3d"
       inkscape:vp_x="0 : 99.326523 : 1"
       inkscape:vp_y="0 : 1000 : 0"
       inkscape:vp_z="107.28794 : 99.326523 : 1"
       inkscape:persp3d-origin="53.64397 : 66.217682 : 1"
       id="perspective40" />
    <linearGradient
       x1="79.135063"
       y1="222.45238"
       x2="81.359901"
       y2="288.58099"
       id="linearGradient22173"
       gradientUnits="userSpaceOnUse" />
    <linearGradient
       x1="146.3828"
       y1="70.228607"
       x2="116.75287"
       y2="53.988689"
       id="linearGradient15268"
       gradientUnits="userSpaceOnUse"
       gradientTransform="scale(1.034178,0.966951)" />
    <linearGradient
       x1="162.97719"
       y1="23.931684"
       x2="131.34537"
       y2="10.142395"
       id="linearGradient15267"
       gradientUnits="userSpaceOnUse"
       gradientTransform="scale(1.035723,0.965509)" />
    <linearGradient
       x1="215.19115"
       y1="116.1558"
       x2="148.53513"
       y2="78.029449"
       id="linearGradient15266"
       gradientUnits="userSpaceOnUse"
       gradientTransform="scale(1.026523,0.974162)" />
    <linearGradient
       x1="230.18588"
       y1="64.586258"
       x2="171.49763"
       y2="31.573004"
       id="linearGradient15265"
       gradientUnits="userSpaceOnUse"
       gradientTransform="scale(1.032621,0.96841)" />
    <radialGradient
       cx="24.825565"
       cy="176.56438"
       r="42.859913"
       fx="40.974991"
       fy="162.11137"
       id="radialGradient15264"
       gradientUnits="userSpaceOnUse" />
    <inkscape:perspective
       id="perspective3524"
       inkscape:persp3d-origin="0.5 : 0.33333333 : 1"
       inkscape:vp_z="1 : 0.5 : 1"
       inkscape:vp_y="0 : 1000 : 0"
       inkscape:vp_x="0 : 0.5 : 1"
       sodipodi:type="inkscape:persp3d" />
    <clipPath
       clipPathUnits="userSpaceOnUse"
       id="clipPath3715">
      <path
         style="fill:#ffffff;fill-opacity:1;fill-rule:nonzero;stroke:#000000;stroke-width:0.56952214;stroke-linecap:round;stroke-linejoin:round;stroke-miterlimit:4;stroke-opacity:1;stroke-dasharray:none;stroke-dashoffset:0.2;display:inline"
         d="m 185.11688,220.33022 c 3.59845,-7.71094 8.88596,-0.36717 8.88596,-0.36717 -4.11251,6.38907 -8.88596,0.44064 -8.88596,0.36717 z"
         id="path3717" />
    </clipPath>
    <inkscape:perspective
       id="perspective3554"
       inkscape:persp3d-origin="0.5 : 0.33333333 : 1"
       inkscape:vp_z="1 : 0.5 : 1"
       inkscape:vp_y="0 : 1000 : 0"
       inkscape:vp_x="0 : 0.5 : 1"
       sodipodi:type="inkscape:persp3d" />
  </defs>
  <g
     transform="translate(-842.20576,-974.6223)"
     id="layer1" />
  <g
     transform="translate(-842.20576,-974.6223)"
     id="layer3" />
  <g
     transform="translate(-842.20576,-974.6223)"
     id="layer4" />
  <path
     style="fill:#ffcf68;fill-opacity:1;fill-rule:evenodd;stroke:#000000;stroke-width:1.25;stroke-linecap:butt;stroke-linejoin:miter;stroke-miterlimit:4;stroke-opacity:1;display:inline"
     d="m 55.336759,72.645446 -1.419849,16.091599 -8.99237,4.2595 11.832059,15.144985 11.832061,-16.091485 -9.93893,-4.2596 1.41985,-13.251899 -4.732821,-1.8931 z"
     id="path1302" />
  <path
     sodipodi:type="arc"
     style="fill:#ffcf68;fill-opacity:1;stroke:#000000;stroke-width:1.25;stroke-miterlimit:4;stroke-opacity:1;display:inline"
     id="path1304"
     sodipodi:cx="54.664104"
     sodipodi:cy="525.42224"
     sodipodi:rx="6.8625937"
     sodipodi:ry="6.8625937"
     d="m 61.526698,525.42224 a 6.8625937,6.8625937 0 1 1 -13.725187,0 6.8625937,6.8625937 0 1 1 13.725187,0 z"
     transform="matrix(1.031733,0,0,0.716766,-30.03106,-328.66565)" />
  <path
     sodipodi:type="arc"
     style="fill:#ffcf68;fill-opacity:1;stroke:#000000;stroke-width:1.25;stroke-miterlimit:4;stroke-opacity:1;display:inline"
     id="path1306"
     sodipodi:cx="129.67935"
     sodipodi:cy="524.94897"
     sodipodi:rx="6.6259522"
     sodipodi:ry="5.4427466"
     d="m 136.3053,524.94897 a 6.6259522,5.4427466 0 1 1 -13.2519,0 6.6259522,5.4427466 0 1 1 13.2519,0 z"
     transform="translate(-41.18412,-477.66056)" />
  <path
     style="fill:#ffcf68;fill-opacity:1;fill-rule:evenodd;stroke:#000000;stroke-width:1.25;stroke-linecap:butt;stroke-linejoin:miter;stroke-miterlimit:4;stroke-opacity:1;display:inline"
     d="m 74.640649,108.59303 6.15267,16.5649 c 9.93892,2.3664 3.78626,11.8321 3.78626,11.8321 -8.51908,3.3129 -11.35877,-0.9466 -11.35877,-0.9466 l -5.20611,-27.4504 6.62595,0 z"
     id="path1309" />
  <path
     style="fill:#ffcf68;fill-opacity:1;fill-rule:evenodd;stroke:#000000;stroke-width:1.25;stroke-linecap:butt;stroke-linejoin:miter;stroke-miterlimit:4;stroke-opacity:1;display:inline"
     d="m 36.878749,110.98123 -6.15267,16.5649 c -9.938929,2.3664 -3.78626,11.8321 -3.78626,11.8321 8.51908,3.313 11.35877,-0.9466 11.35877,-0.9466 l 5.20611,-27.4504 -6.62595,0 z"
     id="path1312" />
  <path
     sodipodi:type="arc"
     style="fill:#ffcf68;fill-opacity:1;stroke:#000000;stroke-width:1.83430135;stroke-miterlimit:4;stroke-opacity:1;display:inline"
     id="path1315"
     sodipodi:cx="99.152641"
     sodipodi:cy="518.55963"
     sodipodi:rx="51.824413"
     sodipodi:ry="51.587772"
     d="m 150.97705,518.55963 a 51.824413,51.587772 0 1 1 -103.648822,0 51.824413,51.587772 0 1 1 103.648822,0 z"
     transform="matrix(0.564072,0,0,0.719809,1.33886,-329.57855)" />
  <path
     style="fill:#000000;fill-opacity:1;fill-rule:evenodd;stroke:#000000;stroke-width:1.25;stroke-linecap:butt;stroke-linejoin:miter;stroke-miterlimit:4;stroke-opacity:1;display:inline"
     d="m 78.266019,152.44113 c 27.450371,1.4198 28.396931,13.7252 28.396931,13.7252 0,9.9389 -53.007611,4.7328 -53.007611,4.7328 l 0,-16.0916 24.61068,-2.3664 z"
     id="path1328"
     sodipodi:nodetypes="ccccc" />
  <path
     style="fill:#000000;fill-opacity:1;fill-rule:evenodd;stroke:#000000;stroke-width:1.25;stroke-linecap:butt;stroke-linejoin:miter;stroke-miterlimit:4;stroke-opacity:1;display:inline"
     d="M 29.021929,152.44113 C 1.57156,153.86093 0.625,166.16633 0.625,166.16633 c 0,9.9389 53.007609,4.7328 53.007609,4.7328 l 0,-16.0916 -24.610679,-2.3664 z"
     id="path1339"
     sodipodi:nodetypes="ccccc" />
  <path
     style="fill:#ff0000;fill-opacity:1;fill-rule:evenodd;stroke:#000000;stroke-width:1.25;stroke-linecap:butt;stroke-linejoin:miter;stroke-miterlimit:4;stroke-opacity:1;display:inline"
     d="m 36.889159,127.57993 -8.13889,24.1171 c 8.54584,4.3067 25.63751,2.584 25.63751,2.584 8.95279,5.168 27.67224,-1.292 27.67224,-1.292 l -7.73194,-29.2851 -37.43892,3.876 z"
     id="path1348" />
  <path
     style="fill:none;stroke:#000000;stroke-width:1.25;stroke-linecap:butt;stroke-linejoin:miter;stroke-miterlimit:4;stroke-opacity:1;display:inline"
     d="m 50.725279,132.74783 -2.44167,9.044 13.83613,-1.292"
     id="path1349" />
  <path
     style="fill:none;stroke:#000000;stroke-width:1.25;stroke-linecap:butt;stroke-linejoin:miter;stroke-miterlimit:4;stroke-opacity:1;display:inline"
     d="m 56.422509,132.31723 -2.03473,21.5332"
     id="path1350" />
  <path
     style="fill:#0000ff;fill-opacity:1;fill-rule:evenodd;stroke:#000000;stroke-width:1.25;stroke-linecap:butt;stroke-linejoin:miter;stroke-miterlimit:4;stroke-opacity:1;display:inline"
     d="m 47.151519,89.381645 8.41489,5.2237 13.22339,-4.8972 12.421971,17.629785 -11.62055,4.2442 -3.20568,-13.712085 10.41843,31.668285 c -12.82268,5.5502 -41.273,0.3265 -41.273,0.3265 l 9.61701,-31.341785 -4.00709,14.364985 -11.62055,-4.2442 17.63118,-19.262185 z"
     id="path1353"
     sodipodi:nodetypes="cccccccccccc" />
  <path
     sodipodi:type="arc"
     style="fill:#ffffff;fill-opacity:1;stroke:#000000;stroke-width:4.21774817;stroke-miterlimit:4;stroke-opacity:1;display:inline"
     id="path1363"
     sodipodi:cx="74.964096"
     sodipodi:cy="525.00787"
     sodipodi:rx="4.0159335"
     sodipodi:ry="4.0159335"
     d="m 78.98003,525.00787 a 4.0159335,4.0159335 0 1 1 -8.031867,0 4.0159335,4.0159335 0 1 1 8.031867,0 z"
     transform="matrix(0.8891,0,0,0.8891,-17.555248,-427.26756)" />
  <path
     sodipodi:type="arc"
     style="fill:#ffffff;fill-opacity:1;stroke:#000000;stroke-width:4.21774817;stroke-miterlimit:4;stroke-opacity:1;display:inline"
     id="path1366"
     sodipodi:cx="74.964096"
     sodipodi:cy="525.00787"
     sodipodi:rx="4.0159335"
     sodipodi:ry="4.0159335"
     d="m 78.98003,525.00787 a 4.0159335,4.0159335 0 1 1 -8.031867,0 4.0159335,4.0159335 0 1 1 8.031867,0 z"
     transform="matrix(0.8891,0,0,0.8891,4.0884805,-426.73196)" />
  <g
     style="display:inline"
     id="g2019"
     transform="matrix(-1,0,0,1,157.19844,-678.46916)">
    <g
       id="g2013"
       transform="translate(0.267843,-0.267843)">
      <rect
         style="fill:#ffffff;fill-opacity:0.60122699;fill-rule:nonzero;stroke:#000000;stroke-width:1.25;stroke-linecap:round;stroke-linejoin:round;stroke-miterlimit:4;stroke-opacity:0.99386501;stroke-dashoffset:0"
         id="rect2011"
         width="17.522207"
         height="11.288309"
         x="101.03165"
         y="719.28577"
         rx="4.1227798"
         ry="3.9813375" />
      <rect
         style="fill:#ffffff;fill-opacity:0.60122699;fill-rule:nonzero;stroke:#000000;stroke-width:1.25;stroke-linecap:round;stroke-linejoin:round;stroke-miterlimit:4;stroke-opacity:0.99386501;stroke-dashoffset:0"
         id="rect2010"
         width="17.522207"
         height="11.288309"
         x="76.758698"
         y="719.37512"
         rx="4.1227798"
         ry="3.9813375" />
      <path
         style="fill:#000000;fill-opacity:1;fill-rule:evenodd;stroke:#000000;stroke-width:0.25pt;stroke-linecap:butt;stroke-linejoin:miter;stroke-opacity:1"
         d="m 94.548747,724.22253 6.696083,0 -0.26784,2.94628 -6.1604,-0.26785 -0.267843,-2.67843 z"
         id="path2012" />
    </g>
    <path
       style="fill:#000000;fill-opacity:1;fill-rule:evenodd;stroke:#000000;stroke-width:0.25pt;stroke-linecap:butt;stroke-linejoin:miter;stroke-opacity:1"
       d="m 76.871077,723.68684 -13.92786,-9.64236 -0.267844,2.94627 14.731391,9.37453 -0.535687,-2.67844 z"
       id="path2017" />
    <path
       style="fill:#000000;fill-opacity:1;fill-rule:evenodd;stroke:#000000;stroke-width:0.25pt;stroke-linecap:butt;stroke-linejoin:miter;stroke-opacity:1"
       d="m 119.19035,723.419 17.67767,-11.78512 -0.26785,5.62472 -17.67767,8.83883 0.26785,-2.67843 z"
       id="path2018" />
  </g>
  <path
     sodipodi:type="arc"
     style="fill:#ffcf68;fill-opacity:1;fill-rule:nonzero;stroke:#000000;stroke-width:1.25;stroke-linecap:round;stroke-linejoin:round;stroke-miterlimit:4;stroke-opacity:0.99386501;stroke-dashoffset:0;display:inline"
     id="path2026"
     sodipodi:cx="99.102089"
     sodipodi:cy="736.67725"
     sodipodi:rx="5.089026"
     sodipodi:ry="4.6872606"
     d="m 104.19111,736.67725 a 5.089026,4.6872606 0 1 1 -10.178047,0 5.089026,4.6872606 0 1 1 10.178047,0 z"
     transform="translate(-39.934339,-683.29036)" />
  <path
     style="fill:#000000;fill-opacity:1;fill-rule:evenodd;stroke:#000000;stroke-width:1.25;stroke-linecap:butt;stroke-linejoin:miter;stroke-miterlimit:4;stroke-opacity:1;stroke-dasharray:none;display:inline"
     d="m 24.615939,38.521442 c 23.034541,-11.7851 31.873371,-6.6961 31.873371,-6.6961 l 1.87491,-8.8388 2.14275,8.571 c 13.92786,-3.482 28.391399,4.2855 28.391399,4.2855 -9.37451,-41.5158012 -32.6769,-34.8197015 -32.6769,-34.8197015 -24.37376,4.8212 -31.60553,37.4981015 -31.60553,37.4981015 z"
     id="path2031" />
  <g
     id="g2133"
     style="fill:#ffffff;fill-opacity:1;display:inline"
     transform="translate(40.418699,-676.32646)">
    <path
       style="fill-rule:nonzero;stroke:none"
       id="path2130"
       d="m 12.433173,781.60322 c 3.289699,8.89746 -10.9634939,25.56434 1.673982,16.51761 2.749716,-1.79944 5.417603,-3.05628 8.709508,-2.9746 l 0.160585,2.54481 c -2.773349,0.0848 -5.029135,0.80208 -7.387258,2.50417 -15.15456775,10.81826 -4.946696,-9.89049 -5.524311,-17.64499 l 2.367494,-0.947 z" />
    <path
       style="fill-rule:nonzero;stroke:none"
       id="path2131"
       d="m 11.180463,789.8097 c 1.738201,-3.00112 3.822718,-5.30834 7.367698,-5.52595 l 0,2.54987 c -2.388285,0.36413 -3.838792,1.83949 -5.087025,4.11641 l -2.280673,-1.14033 z" />
    <path
       style="fill-rule:nonzero;stroke:none"
       id="path2132"
       d="m 7.4306547,782.84577 c 3.3522303,-4.0404 7.2649093,-8.35258 12.5414923,-9.58581 l 0.500071,2.50036 c -4.255295,1.73107 -7.859251,4.46553 -10.7608903,8.22578 l -2.280673,-1.14033 z" />
  </g>
</svg>
