<?xml version="1.0" encoding="UTF-8" standalone="no"?>
<!-- Created with Inkscape (http://www.inkscape.org/) -->

<svg
   xmlns:dc="http://purl.org/dc/elements/1.1/"
   xmlns:cc="http://creativecommons.org/ns#"
   xmlns:rdf="http://www.w3.org/1999/02/22-rdf-syntax-ns#"
   xmlns:svg="http://www.w3.org/2000/svg"
   xmlns="http://www.w3.org/2000/svg"
   xmlns:sodipodi="http://sodipodi.sourceforge.net/DTD/sodipodi-0.dtd"
   xmlns:inkscape="http://www.inkscape.org/namespaces/inkscape"
   version="1.0"
   width="124.08327"
   height="170.1394"
   id="svg2"
   inkscape:version="0.47 r22583"
   sodipodi:docname="left2.svg">
  <metadata
     id="metadata38">
    <rdf:RDF>
      <cc:Work
         rdf:about="">
        <dc:format>image/svg+xml</dc:format>
        <dc:type
           rdf:resource="http://purl.org/dc/dcmitype/StillImage" />
        <dc:title></dc:title>
      </cc:Work>
    </rdf:RDF>
  </metadata>
  <sodipodi:namedview
     pagecolor="#ffffff"
     bordercolor="#666666"
     borderopacity="1"
     objecttolerance="10"
     gridtolerance="10"
     guidetolerance="10"
     inkscape:pageopacity="0"
     inkscape:pageshadow="2"
     inkscape:window-width="1024"
     inkscape:window-height="551"
     id="namedview36"
     showgrid="false"
     inkscape:zoom="1.1928861"
     inkscape:cx="18.1041"
     inkscape:cy="47.824278"
     inkscape:window-x="0"
     inkscape:window-y="26"
     inkscape:window-maximized="1"
     inkscape:current-layer="svg2" />
  <defs
     id="defs4">
    <inkscape:path-effect
       effect="spiro"
       id="path-effect3684"
       is_visible="true" />
    <inkscape:perspective
       sodipodi:type="inkscape:persp3d"
       inkscape:vp_x="0 : 99.326523 : 1"
       inkscape:vp_y="0 : 1000 : 0"
       inkscape:vp_z="107.28794 : 99.326523 : 1"
       inkscape:persp3d-origin="53.64397 : 66.217682 : 1"
       id="perspective40" />
    <linearGradient
       x1="79.135063"
       y1="222.45238"
       x2="81.359901"
       y2="288.58099"
       id="linearGradient22173"
       gradientUnits="userSpaceOnUse" />
    <linearGradient
       x1="146.3828"
       y1="70.228607"
       x2="116.75287"
       y2="53.988689"
       id="linearGradient15268"
       gradientUnits="userSpaceOnUse"
       gradientTransform="scale(1.034178,0.966951)" />
    <linearGradient
       x1="162.97719"
       y1="23.931684"
       x2="131.34537"
       y2="10.142395"
       id="linearGradient15267"
       gradientUnits="userSpaceOnUse"
       gradientTransform="scale(1.035723,0.965509)" />
    <linearGradient
       x1="215.19115"
       y1="116.1558"
       x2="148.53513"
       y2="78.029449"
       id="linearGradient15266"
       gradientUnits="userSpaceOnUse"
       gradientTransform="scale(1.026523,0.974162)" />
    <linearGradient
       x1="230.18588"
       y1="64.586258"
       x2="171.49763"
       y2="31.573004"
       id="linearGradient15265"
       gradientUnits="userSpaceOnUse"
       gradientTransform="scale(1.032621,0.96841)" />
    <radialGradient
       cx="24.825565"
       cy="176.56438"
       r="42.859913"
       fx="40.974991"
       fy="162.11137"
       id="radialGradient15264"
       gradientUnits="userSpaceOnUse" />
    <inkscape:perspective
       id="perspective3524"
       inkscape:persp3d-origin="0.5 : 0.33333333 : 1"
       inkscape:vp_z="1 : 0.5 : 1"
       inkscape:vp_y="0 : 1000 : 0"
       inkscape:vp_x="0 : 0.5 : 1"
       sodipodi:type="inkscape:persp3d" />
    <clipPath
       clipPathUnits="userSpaceOnUse"
       id="clipPath3715">
      <path
         style="fill:#ffffff;fill-opacity:1;fill-rule:nonzero;stroke:#000000;stroke-width:0.56952214;stroke-linecap:round;stroke-linejoin:round;stroke-miterlimit:4;stroke-opacity:1;stroke-dasharray:none;stroke-dashoffset:0.2;display:inline"
         d="m 185.11688,220.33022 c 3.59845,-7.71094 8.88596,-0.36717 8.88596,-0.36717 -4.11251,6.38907 -8.88596,0.44064 -8.88596,0.36717 z"
         id="path3717" />
    </clipPath>
    <inkscape:perspective
       id="perspective3554"
       inkscape:persp3d-origin="0.5 : 0.33333333 : 1"
       inkscape:vp_z="1 : 0.5 : 1"
       inkscape:vp_y="0 : 1000 : 0"
       inkscape:vp_x="0 : 0.5 : 1"
       sodipodi:type="inkscape:persp3d" />
    <inkscape:perspective
       id="perspective3594"
       inkscape:persp3d-origin="0.5 : 0.33333333 : 1"
       inkscape:vp_z="1 : 0.5 : 1"
       inkscape:vp_y="0 : 1000 : 0"
       inkscape:vp_x="0 : 0.5 : 1"
       sodipodi:type="inkscape:persp3d" />
    <inkscape:perspective
       id="perspective3619"
       inkscape:persp3d-origin="0.5 : 0.33333333 : 1"
       inkscape:vp_z="1 : 0.5 : 1"
       inkscape:vp_y="0 : 1000 : 0"
       inkscape:vp_x="0 : 0.5 : 1"
       sodipodi:type="inkscape:persp3d" />
  </defs>
  <g
     transform="translate(-823.3952,-975.17452)"
     id="layer1" />
  <g
     transform="translate(-823.3952,-975.17452)"
     id="layer3" />
  <g
     transform="translate(-823.3952,-975.17452)"
     id="layer4" />
  <path
     style="fill:#ffcf68;fill-opacity:1;fill-rule:evenodd;stroke:#000000;stroke-width:1.25;stroke-linecap:butt;stroke-linejoin:miter;stroke-miterlimit:4;stroke-opacity:1;display:inline"
     d="m 68.746523,69.89794 1.41985,16.0916 8.99236,4.2595 -11.83206,15.145 -11.83205,-16.0915 9.93892,-4.2596 -1.41984,-13.2519 4.73282,-1.8931 z"
     id="path1301" />
  <path
     style="fill:#ffcf68;fill-opacity:1;fill-rule:evenodd;stroke:#000000;stroke-width:1.25;stroke-linecap:butt;stroke-linejoin:miter;stroke-miterlimit:4;stroke-opacity:1;display:inline"
     d="m 87.204533,108.23374 6.152673,16.5649 c 9.938934,2.3664 3.78626,11.8321 3.78626,11.8321 -8.519083,3.313 -11.358783,-0.9466 -11.358783,-0.9466 l -5.2061,-27.4504 6.62595,0 z"
     id="path1311" />
  <path
     sodipodi:type="arc"
     style="fill:#ffcf68;fill-opacity:1;stroke:#000000;stroke-width:1.83430135;stroke-miterlimit:4;stroke-opacity:1;display:inline"
     id="path2045"
     sodipodi:cx="99.152641"
     sodipodi:cy="518.55963"
     sodipodi:rx="51.824413"
     sodipodi:ry="51.587772"
     d="m 150.97705,518.55963 a 51.824413,51.587772 0 1 1 -103.648822,0 51.824413,51.587772 0 1 1 103.648822,0 z"
     transform="matrix(-0.564072,0,0,0.719809,111.79635,-329.57854)" />
  <path
     sodipodi:type="arc"
     style="fill:#ffcf68;fill-opacity:1;stroke:#000000;stroke-width:1.25;stroke-miterlimit:4;stroke-opacity:1;display:inline"
     id="path2043"
     sodipodi:cx="54.664104"
     sodipodi:cy="525.42224"
     sodipodi:rx="4.5312643"
     sodipodi:ry="6.8625937"
     d="M 59.082373,526.94524 A 4.5312643,6.8625937 0 0 1 50.137627,525.7376"
     transform="matrix(-0.135663,1.004104,1.421324,0.04625595,-661.70754,-35.23076)"
     sodipodi:start="0.22379116"
     sodipodi:end="3.0956225"
     sodipodi:open="true" />
  <path
     style="fill:#000000;fill-opacity:1;fill-rule:evenodd;stroke:#000000;stroke-width:1.25;stroke-linecap:butt;stroke-linejoin:miter;stroke-miterlimit:4;stroke-opacity:1;display:inline"
     d="m 45.817273,149.69364 c -27.450377,1.4198 -28.396937,13.7252 -28.396937,13.7252 0,9.9389 53.007617,4.7328 53.007617,4.7328 l 0,-16.0916 -24.61068,-2.3664 z"
     id="path1324"
     sodipodi:nodetypes="ccccc" />
  <path
     style="fill:#000000;fill-opacity:1;fill-rule:evenodd;stroke:#000000;stroke-width:1.25;stroke-linecap:butt;stroke-linejoin:miter;stroke-miterlimit:4;stroke-opacity:1;display:inline"
     d="m 95.061336,149.69364 c 27.450384,1.4198 28.396944,13.7252 28.396944,13.7252 0,9.9389 -53.007627,4.7328 -53.007627,4.7328 l 0,-16.0916 24.610683,-2.3664 z"
     id="path1335"
     sodipodi:nodetypes="ccccc" />
  <path
     style="fill:#ff0000;fill-opacity:1;fill-rule:evenodd;stroke:#000000;stroke-width:1.25;stroke-linecap:butt;stroke-linejoin:miter;stroke-miterlimit:4;stroke-opacity:1;display:inline"
     d="m 87.194113,124.83244 8.138893,24.1171 c -8.545843,4.3067 -25.637523,2.584 -25.637523,2.584 -8.95278,5.168 -27.67223,-1.292 -27.67223,-1.292 l 7.73194,-29.2851 37.43892,3.876 z"
     id="path1344" />
  <path
     style="fill:none;stroke:#000000;stroke-width:1.25;stroke-linecap:butt;stroke-linejoin:miter;stroke-miterlimit:4;stroke-opacity:1;display:inline"
     d="m 73.357993,130.00034 2.44166,9.044 -13.83612,-1.292"
     id="path1345" />
  <path
     style="fill:none;stroke:#000000;stroke-width:1.25;stroke-linecap:butt;stroke-linejoin:miter;stroke-miterlimit:4;stroke-opacity:1;display:inline"
     d="m 67.660763,129.56974 2.03472,21.5332"
     id="path1346" />
  <path
     style="fill:#ffcf68;fill-opacity:1;stroke:#000000;stroke-width:1;stroke-miterlimit:4;stroke-opacity:1;stroke-dasharray:none;stroke-dashoffset:0"
     d="m 51.870229,104.70117 -6.28207,13.61115 -13.611153,-6.28207 c 0,0 5.758565,-13.61115 0,-13.61115 -5.758565,0 -3.298892,13.13758 -3.298892,13.13758 0,0 -12.465871,-19.764876 -16.070825,-12.614074 -1.866903,3.703194 9.867683,10.845434 9.867683,10.845434 l -0.968083,4.33624 c 0,0 -17.2467002,-9.06713 -19.3407232,-4.87908 -2.09402399,4.18805 -3.14103499,5.75856 2.617529,7.85259 5.7585652,2.09402 16.1996882,1.73804 16.1996882,1.73804 l 1.787974,4.11878 c 0,0 -9.640562,4.25731 -9.640562,6.35134 1.018997,6.99381 14.759107,-2.20696 18.322705,-5.23506 2.61753,-2.61753 3.141036,-3.14104 3.141036,-3.14104 l 14.134658,4.18805 9.946612,-18.32271 -6.805577,-2.09402 z"
     id="path3962"
     sodipodi:nodetypes="cccscsccsscccccccc" />
  <path
     style="fill:#0000ff;fill-opacity:1;fill-rule:evenodd;stroke:#000000;stroke-width:1.25;stroke-linecap:butt;stroke-linejoin:miter;stroke-miterlimit:4;stroke-opacity:1;display:inline"
     d="m 76.931753,86.63414 -8.41488,5.2237 -13.22339,-4.8972 -12.42197,17.6298 11.62055,4.2442 3.20567,-13.7121 -10.41842,31.6683 c 12.82268,5.5502 41.273,0.3265 41.273,0.3265 l -9.61701,-31.3418 4.00709,14.365 11.620553,-4.2442 -17.631193,-19.2622 z"
     id="path1352"
     sodipodi:nodetypes="cccccccccccc" />
  <path
     sodipodi:type="arc"
     style="fill:#ffffff;fill-opacity:1;stroke:#000000;stroke-width:4.21774817;stroke-miterlimit:4;stroke-opacity:1;display:inline"
     id="path2046"
     sodipodi:cx="74.964096"
     sodipodi:cy="525.00787"
     sodipodi:rx="4.0159335"
     sodipodi:ry="4.0159335"
     d="m 78.98003,525.00787 a 4.0159335,4.0159335 0 1 1 -8.031867,0 4.0159335,4.0159335 0 1 1 8.031867,0 z"
     transform="matrix(-0.8891,0,0,0.8891,122.65525,-423.78555)" />
  <path
     sodipodi:type="arc"
     style="fill:#ffffff;fill-opacity:1;stroke:#000000;stroke-width:4.21774817;stroke-miterlimit:4;stroke-opacity:1;display:inline"
     id="path2047"
     sodipodi:cx="74.964096"
     sodipodi:cy="525.00787"
     sodipodi:rx="4.0159335"
     sodipodi:ry="4.0159335"
     d="m 78.98003,525.00787 a 4.0159335,4.0159335 0 1 1 -8.031867,0 4.0159335,4.0159335 0 1 1 8.031867,0 z"
     transform="matrix(-0.8891,0,0,0.8891,104.49345,-422.98215)" />
  <g
     style="display:inline"
     id="g2069"
     transform="matrix(-1,0,0,1,560.96166,-683.89515)">
    <g
       id="g2049"
       transform="matrix(-1,0,0,1,612.423,5.409187)">
      <rect
         style="fill:#ffffff;fill-opacity:0.60122699;fill-rule:nonzero;stroke:#000000;stroke-width:1.25;stroke-linecap:round;stroke-linejoin:round;stroke-miterlimit:4;stroke-opacity:0.99386501;stroke-dashoffset:0"
         id="rect2050"
         width="17.522207"
         height="11.288309"
         x="101.03165"
         y="719.28577"
         rx="4.1227798"
         ry="3.9813375" />
      <rect
         style="fill:#ffffff;fill-opacity:0.60122699;fill-rule:nonzero;stroke:#000000;stroke-width:1.25;stroke-linecap:round;stroke-linejoin:round;stroke-miterlimit:4;stroke-opacity:0.99386501;stroke-dashoffset:0"
         id="rect2051"
         width="17.522207"
         height="11.288309"
         x="76.758698"
         y="719.37512"
         rx="4.1227798"
         ry="3.9813375" />
      <path
         style="fill:#000000;fill-opacity:1;fill-rule:evenodd;stroke:#000000;stroke-width:0.25pt;stroke-linecap:butt;stroke-linejoin:miter;stroke-opacity:1"
         d="m 94.548747,724.22253 6.696083,0 -0.26784,2.94628 -6.1604,-0.26785 -0.267843,-2.67843 z"
         id="path2052" />
    </g>
    <path
       style="fill:#000000;fill-opacity:1;fill-rule:evenodd;stroke:#000000;stroke-width:0.25pt;stroke-linecap:butt;stroke-linejoin:miter;stroke-opacity:1"
       d="m 493.5004,727.75681 -17.67767,-11.78512 0.26785,5.62472 17.67767,8.83883 -0.26785,-2.67843 z"
       id="path2054" />
  </g>
  <path
     style="fill:#000000;fill-opacity:1;fill-rule:evenodd;stroke:#000000;stroke-width:1.25;stroke-linecap:butt;stroke-linejoin:miter;stroke-miterlimit:4;stroke-opacity:1;display:inline"
     d="m 88.519323,38.52144 c -9.37452,-13.9278 -36.69455,-7.7674 -39.90867,-7.2318 l -3.21413,-8.0353 -6.96392,7.4997 c -13.92786,-3.482 -14.19571,5.089 -14.19571,5.089 9.37452,-41.5157994 32.6769,-34.8196994 32.6769,-34.8196994 24.37376,4.8212 31.60553,37.4980994 31.60553,37.4980994 z"
     id="path2057"
     sodipodi:nodetypes="ccccccc" />
  <path
     style="fill:#ffcf68;fill-opacity:1;fill-rule:evenodd;stroke:#000000;stroke-width:1.25;stroke-linecap:butt;stroke-linejoin:miter;stroke-miterlimit:4;stroke-opacity:1;stroke-dasharray:none;display:inline"
     d="m 47.237863,49.96964 c -8.30314,-1.8749 -10.17805,2.4106 -10.17805,2.4106 -1.60706,4.5533 4.01765,5.089 4.01765,5.089 5.08903,1.0714 6.96393,-0.5357 6.96393,-0.5357"
     id="path2062" />
  <g
     id="g2137"
     style="fill:#ffffff;fill-opacity:1;display:inline"
     transform="translate(50.77382,-678.00255)">
    <path
       style="fill-rule:nonzero;stroke:none"
       id="path2138"
       d="m 12.433173,781.60322 c 3.289699,8.89746 -10.9634939,25.56434 1.673982,16.51761 2.749716,-1.79944 5.417603,-3.05628 8.709508,-2.9746 l 0.160585,2.54481 c -2.773349,0.0848 -5.029135,0.80208 -7.387258,2.50417 -15.15456775,10.81826 -4.946696,-9.89049 -5.524311,-17.64499 l 2.367494,-0.947 z" />
    <path
       style="fill-rule:nonzero;stroke:none"
       id="path2139"
       d="m 11.180463,789.8097 c 1.738201,-3.00112 3.822718,-5.30834 7.367698,-5.52595 l 0,2.54987 c -2.388285,0.36413 -3.838792,1.83949 -5.087025,4.11641 l -2.280673,-1.14033 z" />
    <path
       style="fill-rule:nonzero;stroke:none"
       id="path2140"
       d="m 7.4306547,782.84577 c 3.3522303,-4.0404 7.2649093,-8.35258 12.5414923,-9.58581 l 0.500071,2.50036 c -4.255295,1.73107 -7.859251,4.46553 -10.7608903,8.22578 l -2.280673,-1.14033 z" />
  </g>
</svg>
