<?xml version="1.0" encoding="UTF-8" standalone="no"?>
<!-- Created with Inkscape (http://www.inkscape.org/) -->

<svg
   xmlns:dc="http://purl.org/dc/elements/1.1/"
   xmlns:cc="http://creativecommons.org/ns#"
   xmlns:rdf="http://www.w3.org/1999/02/22-rdf-syntax-ns#"
   xmlns:svg="http://www.w3.org/2000/svg"
   xmlns="http://www.w3.org/2000/svg"
   xmlns:sodipodi="http://sodipodi.sourceforge.net/DTD/sodipodi-0.dtd"
   xmlns:inkscape="http://www.inkscape.org/namespaces/inkscape"
   id="svg1050"
   sodipodi:version="0.32"
   inkscape:version="0.47 r22583"
   width="200"
   height="279.01608"
   sodipodi:docname="andatuz1.svg"
   version="1.1">
  <metadata
     id="metadata3466">
    <rdf:RDF>
      <cc:Work
         rdf:about="">
        <dc:format>image/svg+xml</dc:format>
        <dc:type
           rdf:resource="http://purl.org/dc/dcmitype/StillImage" />
      </cc:Work>
    </rdf:RDF>
  </metadata>
  <defs
     id="defs1052">
    <inkscape:perspective
       sodipodi:type="inkscape:persp3d"
       inkscape:vp_x="0 : 526.18109 : 1"
       inkscape:vp_y="0 : 1000 : 0"
       inkscape:vp_z="744.09448 : 526.18109 : 1"
       inkscape:persp3d-origin="372.04724 : 350.78739 : 1"
       id="perspective3468" />
  </defs>
  <sodipodi:namedview
     id="base"
     pagecolor="#ffffff"
     bordercolor="#666666"
     borderopacity="1.0"
     inkscape:pageopacity="0.0"
     inkscape:pageshadow="2"
     inkscape:zoom="1.3081683"
     inkscape:cx="100"
     inkscape:cy="139.50804"
     inkscape:window-width="1024"
     inkscape:window-height="575"
     inkscape:window-x="0"
     inkscape:window-y="25"
     showgrid="false"
     inkscape:window-maximized="1"
     inkscape:current-layer="svg1050" />
  <g
     id="g3470"
     transform="matrix(0.34541005,0,0,0.34541005,-31.394322,-47.965099)">
    <g
       transform="matrix(3.220991,0,0,3.220991,-268.2728,-913.497)"
       id="g826"
       style="fill:#000000;stroke:#000000;stroke-width:7.99989986">
      <path
         id="path827"
         d="m 224.755,508.27 c 0,0 50.886,25.17 58.013,31.755 7.128,6.585 5.195,6.488 -1.6,4.711 -6.795,-1.777 -17.656,-9.027 -21.515,-6.345 -3.86,2.681 8.786,11.992 13.95,17.041 5.164,5.049 2.806,6.848 -2.189,5.64 -4.995,-1.208 -27.616,-14.104 -27.616,-14.104 0,0 -8.296,-4.993 -6.387,0.639 1.909,5.632 6.929,18.34 3.272,19.382 -3.657,1.042 -7.65,-4.003 -9.834,-8.424 -2.183,-4.421 -14.289,-24.724 -17.967,-29.487 -3.679,-4.762 -9,-7.903 -7.853,-15.299 1.147,-7.396 19.726,-5.509 19.726,-5.509 z" />
    </g>
    <g
       transform="matrix(3.220991,0,0,3.220991,-268.2728,-913.497)"
       id="g828"
       style="stroke:#000000;stroke-width:12">
      <path
         id="path829"
         d="m 204.203,333.409 c -1.674,-0.274 -16,-6 -37,21 -21,27 -17.412,30.735 -22.853,39.588 -5.441,8.854 -25.279,78.721 -9.706,106.133 15.574,27.412 53.545,30.721 66.986,30.721 13.441,0 85.014,-11.736 80,-53.015 -5.015,-41.28 -8.53,-59.735 -26.986,-93.868 -18.455,-34.132 -41.268,-49.055 -50.441,-50.559 z" />
    </g>
    <g
       transform="matrix(3.220991,0,0,3.220991,-268.2728,-913.497)"
       id="g830"
       style="fill:#000000;stroke:#000000;stroke-width:7.99989986">
      <path
         id="path831"
         d="m 172.27,514.896 c 0,0 -47.034,22.82 -53.101,29.101 -6.067,6.282 -4.135,6.282 2.416,4.832 6.55,-1.45 16.269,-8.214 20.617,-5.315 4.349,2.899 -6.819,11.651 -11.167,16.483 -4.349,4.832 -1.665,6.765 3.167,5.798 4.833,-0.966 25.45,-12.831 25.45,-12.831 0,0 7.517,-4.618 6.55,0.966 -0.966,5.584 -3.865,18.147 0,19.382 3.866,1.236 7.034,-3.651 8.484,-8 1.449,-4.348 10.201,-24.214 13.1,-28.832 2.9,-4.617 7.732,-7.516 5.316,-15.033 -2.416,-7.517 -20.832,-6.551 -20.832,-6.551 z" />
    </g>
    <g
       transform="matrix(3.220991,0,0,3.220991,-268.2728,-913.497)"
       id="g832"
       style="fill:#fdce27">
      <path
         id="path833"
         d="m 176.011,509.514 c 0,0 -47.034,22.82 -53.101,29.101 -6.067,6.282 -4.134,6.282 2.416,4.832 6.551,-1.449 16.269,-8.214 20.618,-5.315 4.349,2.899 -6.819,11.651 -11.168,16.483 -4.349,4.832 -1.664,6.765 3.168,5.799 4.832,-0.967 25.45,-12.832 25.45,-12.832 0,0 7.516,-4.618 6.55,0.966 -0.966,5.584 -3.866,18.147 0,19.382 3.865,1.236 7.034,-3.651 8.483,-8 1.45,-4.348 10.202,-24.214 13.101,-28.831 2.899,-4.618 7.731,-7.517 5.315,-15.034 -2.416,-7.517 -20.832,-6.551 -20.832,-6.551 z" />
    </g>
    <g
       transform="matrix(3.220991,0,0,3.220991,-268.2728,-913.497)"
       id="g834"
       style="fill:#fdce27">
      <path
         id="path835"
         d="m 220.723,502.965 c 0,0 50.886,25.17 58.013,31.755 7.128,6.585 5.195,6.488 -1.6,4.711 -6.795,-1.777 -17.656,-9.028 -21.515,-6.346 -3.859,2.682 8.786,11.992 13.95,17.042 5.165,5.049 2.806,6.848 -2.189,5.64 -4.995,-1.208 -27.616,-14.104 -27.616,-14.104 0,0 -8.296,-4.994 -6.387,0.639 1.909,5.632 6.929,18.34 3.272,19.382 -3.657,1.042 -7.65,-4.003 -9.834,-8.424 -2.183,-4.421 -14.289,-24.725 -17.967,-29.487 -3.679,-4.763 -9,-7.903 -7.853,-15.299 1.147,-7.396 19.726,-5.509 19.726,-5.509 z" />
    </g>
    <g
       transform="matrix(3.220991,0,0,3.220991,-268.2728,-913.497)"
       id="g836"
       style="fill:#feb02a">
      <path
         id="path837"
         d="m 149.121,523.067 c -1.034,1.124 21.506,9.573 30.292,10.135 8.787,0.562 8.899,3.955 8.899,3.955 l 5.079,-8.674 -36.382,-9.46 c 0,0 -6.854,2.921 -7.888,4.044 z" />
    </g>
    <g
       transform="matrix(3.220991,0,0,3.220991,-268.2728,-913.497)"
       id="g838"
       style="fill:#feb02a">
      <path
         id="path839"
         d="m 216.905,535.16 c 0,0 2.285,-3.788 6.195,-4.089 3.911,-0.301 27.61,-5.114 32.903,-9.504 l -6.496,-4.09 c 0,0 -11.789,-2.707 -15.699,-1.804 -3.911,0.902 -20.692,4.39 -21.594,7.097 -0.902,2.707 -0.602,4.992 -0.602,4.992 l 5.293,7.398 z" />
    </g>
    <g
       transform="matrix(3.220991,0,0,3.220991,-268.2728,-913.497)"
       id="g840"
       style="fill:#88d5b0;stroke:#000000;stroke-width:1.5">
      <path
         id="path841"
         d="m 204.203,330.409 c -1.674,-0.274 -16,-6 -37,21 -21,27 -17.412,30.735 -22.853,39.588 -5.441,8.854 -25.279,78.721 -9.706,106.133 15.574,27.412 53.545,30.721 66.986,30.721 13.441,0 85.014,-11.736 80,-53.015 -5.015,-41.28 -8.53,-59.735 -26.986,-93.868 -18.455,-34.132 -41.268,-49.055 -50.441,-50.559 z" />
    </g>
    <g
       transform="matrix(3.220991,0,0,3.220991,-268.2728,-913.497)"
       id="g842"
       style="fill:#fefef6">
      <path
         id="path843"
         d="m 153.531,400.074 c -2.095,-14.904 4.422,-30.635 14.813,-32.095 4.386,-0.617 9.149,2.081 12.856,5.24 6.215,-10.73 17.071,-15.076 27.493,-11.843 15.651,4.856 23.882,17.594 20.645,35.95 -0.424,2.406 -1.042,4.716 -1.829,6.908 4.133,3.674 7.546,8.673 9.595,15.434 10,33 41,76 -2,96.5 -43,20.5 -93,-7 -97.5,-17.5 -4.5,-10.5 -3.5,-44.5 1.5,-63.5 5,-19 14.427,-35.094 14.427,-35.094 z" />
    </g>
    <g
       transform="matrix(3.220991,0,0,3.220991,-268.2728,-913.497)"
       id="g844"
       style="fill:#eff1e4">
      <path
         id="path845"
         d="m 235.462,516.534 c -42.896,20.451 -92.758,-6.867 -97.466,-17.423 13.929,9.918 31.141,15.78 49.77,15.78 28.943,0 54.468,-14.149 69.573,-35.682 1.63,14.95 -2.971,28.312 -21.877,37.325 z" />
    </g>
    <g
       transform="matrix(3.220991,0,0,3.220991,-268.2728,-913.497)"
       id="g846"
       style="fill:#c1efd7">
      <path
         id="path847"
         d="m 204.581,334.913 c 2.387,-1.2 6.525,0.49 9.243,3.775 2.718,3.285 2.987,6.921 0.6,8.121 -2.386,1.201 -6.524,-0.49 -9.242,-3.775 -2.718,-3.285 -2.987,-6.921 -0.601,-8.121 z" />
    </g>
    <g
       transform="matrix(3.220991,0,0,3.220991,-268.2728,-913.497)"
       id="g848"
       style="fill:#c1efd7">
      <path
         id="path849"
         d="M 209.503,340.861 z" />
    </g>
    <g
       transform="matrix(3.220991,0,0,3.220991,-268.2728,-913.497)"
       id="g850"
       style="fill:#eff1e4">
      <path
         id="path851"
         d="m 238.366,424.464 c 1.329,-1.828 17.163,46.172 17.163,46.172 0,0 -8.498,1.329 -16,-31.003 0,0 -2.493,-13.341 -1.163,-15.169 z" />
    </g>
    <g
       transform="matrix(3.220991,0,0,3.220991,-268.2728,-913.497)"
       id="g852"
       style="fill:#000000">
      <path
         id="path853"
         d="m 204.137,386.459 c 0,-2.306 1.158,-4.176 2.587,-4.176 1.429,0 2.587,1.87 2.587,4.176 0,2.307 -1.158,4.177 -2.587,4.177 -1.429,0 -2.587,-1.87 -2.587,-4.177 z" />
    </g>
    <g
       transform="matrix(3.220991,0,0,3.220991,-268.2728,-913.497)"
       id="g854"
       style="fill:#000000">
      <path
         id="path855"
         d="M 206.724,386.459 z" />
    </g>
    <g
       transform="matrix(3.220991,0,0,3.220991,-268.2728,-913.497)"
       id="g858"
       style="fill:#ffffff">
      <path
         id="path859"
         d="m 207.191,386.098 c 0,-0.742 0.601,-1.343 1.343,-1.343 0.741,0 1.342,0.601 1.342,1.343 0,0.741 -0.601,1.343 -1.342,1.343 -0.742,0 -1.343,-0.602 -1.343,-1.343 z" />
    </g>
    <g
       transform="matrix(3.220991,0,0,3.220991,-268.2728,-913.497)"
       id="g860"
       style="fill:#ffffff">
      <path
         id="path861"
         d="M 208.534,386.098 z" />
    </g>
    <g
       transform="matrix(3.220991,0,0,3.220991,-268.2728,-913.497)"
       id="g862"
       style="fill:#eff1e4">
      <path
         id="path863"
         d="m 180.188,431.99 c -2.858,3.013 -5.865,5.638 -8.554,6.884 -8.544,3.961 -6.778,-4.951 -6.297,-8.169 0.481,-3.218 2.927,-8.228 2.927,-8.228 1.644,-6.684 7.222,-20.17 9.668,-23.636 2.445,-3.466 5.456,-7.179 10.951,-5.693 4.943,1.336 7.907,12.535 8.452,14.771 1.187,1.566 2.046,3.54 2.446,5.843 1.348,7.757 -3.024,16.304 -9.766,19.09 -3.578,1.479 -7.104,1.038 -9.827,-0.862 z" />
    </g>
    <g
       transform="matrix(3.220991,0,0,3.220991,-268.2728,-913.497)"
       id="g864"
       style="fill:#fae62a;stroke:#000000;stroke-width:4">
      <path
         id="path865"
         d="m 174.257,414.365 c -2.579,1.763 -5.293,3.298 -7.719,4.028 -7.711,2.317 -6.117,-2.897 -5.683,-4.779 0.435,-1.883 2.642,-4.814 2.642,-4.814 1.483,-3.911 6.517,-11.8 8.724,-13.828 2.207,-2.028 4.924,-4.2 9.882,-3.331 4.461,0.782 7.136,7.334 7.628,8.642 1.071,0.916 1.846,2.071 2.207,3.418 1.216,4.538 -2.729,9.538 -8.813,11.168 -3.229,0.866 -6.411,0.607 -8.868,-0.504 z" />
    </g>
    <g
       transform="matrix(3.220991,0,0,3.220991,-268.2728,-913.497)"
       id="g866"
       style="fill:#fdce27">
      <path
         id="path867"
         d="m 173.911,413.01 c -2.579,1.762 -5.293,3.298 -7.719,4.027 -7.711,2.317 -6.118,-2.896 -5.683,-4.779 0.434,-1.883 2.642,-4.814 2.642,-4.814 1.482,-3.91 6.517,-11.8 8.724,-13.828 2.207,-2.027 4.924,-4.199 9.882,-3.331 4.461,0.782 7.135,7.334 7.628,8.643 1.071,0.915 1.846,2.07 2.207,3.418 1.216,4.538 -2.729,9.538 -8.813,11.168 -3.229,0.865 -6.411,0.607 -8.868,-0.504 z" />
    </g>
    <g
       transform="matrix(3.220991,0,0,3.220991,-268.2728,-913.497)"
       id="g868"
       style="fill:#000000">
      <path
         id="path869"
         d="m 179.852,394.531 c 0.593,-0.816 1.468,-1.191 1.953,-0.839 0.486,0.353 0.399,1.301 -0.194,2.117 -0.593,0.816 -1.468,1.191 -1.953,0.839 -0.486,-0.353 -0.399,-1.301 0.194,-2.117 z" />
    </g>
    <g
       transform="matrix(3.220991,0,0,3.220991,-268.2728,-913.497)"
       id="g870"
       style="fill:#000000">
      <path
         id="path871"
         d="M 180.731,395.17 z" />
    </g>
    <g
       transform="matrix(3.220991,0,0,3.220991,-268.2728,-913.497)"
       id="g872"
       style="fill:#feb02a">
      <path
         id="path873"
         d="m 173.924,413.482 c -2.58,1.762 -5.293,3.298 -7.719,4.027 -3.941,1.184 -5.45,0.399 -5.927,-0.9 0,0 2.776,3.962 15.495,-7.748 7.071,-6.51 9.142,-12.185 9.588,-16.072 2.306,2.278 3.696,5.704 4.037,6.611 1.071,0.915 1.846,2.07 2.207,3.418 1.216,4.538 -2.73,9.538 -8.813,11.168 -3.229,0.865 -6.411,0.607 -8.868,-0.504 z" />
    </g>
    <g
       transform="matrix(3.220991,0,0,3.220991,-268.2728,-913.497)"
       id="g874"
       style="stroke:#000000;stroke-width:2">
      <path
         id="path875"
         d="m 170.724,416.212 c 0,0 14.032,-8.163 15.674,-14.533" />
    </g>
    <g
       transform="matrix(3.220991,0,0,3.220991,-268.2728,-913.497)"
       id="g876"
       style="stroke:#000000">
      <path
         id="path877"
         d="m 184.163,399.445 c 0,0 3.186,0.391 4.121,3.975" />
    </g>
    <g
       transform="matrix(3.220991,0,0,3.220991,-268.2728,-913.497)"
       id="g878"
       style="fill:#f9ec70">
      <path
         id="path879"
         d="m 171.268,395.807 c 2.111,-3.129 4.502,-5.207 5.341,-4.64 0.839,0.566 -0.191,3.561 -2.301,6.69 -2.111,3.128 -4.502,5.206 -5.341,4.64 -0.839,-0.566 0.191,-3.562 2.301,-6.69 z" />
    </g>
    <g
       transform="matrix(3.220991,0,0,3.220991,-268.2728,-913.497)"
       id="g880"
       style="fill:#f9ec70">
      <path
         id="path881"
         d="M 172.788,396.832 z" />
    </g>
    <g
       transform="matrix(3.220991,0,0,3.220991,-268.2728,-913.497)"
       id="g882"
       style="fill:#f9ec70">
      <path
         id="path883"
         d="m 135.017,556.526 c -0.832,-1.234 3.856,-5.851 10.471,-10.313 6.615,-4.462 12.653,-7.079 13.485,-5.845 0.832,1.233 -3.856,5.85 -10.472,10.312 -6.615,4.462 -12.652,7.08 -13.484,5.846 z" />
    </g>
    <g
       transform="matrix(3.220991,0,0,3.220991,-268.2728,-913.497)"
       id="g884"
       style="fill:#f9ec70">
      <path
         id="path885"
         d="M 146.995,548.447 z" />
    </g>
    <g
       transform="matrix(3.220991,0,0,3.220991,-268.2728,-913.497)"
       id="g886"
       style="fill:#f9ec70">
      <path
         id="path887"
         d="m 123.795,538.638 c -0.342,-1.121 2.805,-3.076 7.03,-4.368 4.226,-1.292 7.929,-1.43 8.271,-0.31 0.343,1.121 -2.805,3.076 -7.03,4.368 -4.225,1.292 -7.928,1.431 -8.271,0.31 z" />
    </g>
    <g
       transform="matrix(3.220991,0,0,3.220991,-268.2728,-913.497)"
       id="g888"
       style="fill:#f9ec70">
      <path
         id="path889"
         d="M 131.446,536.299 z" />
    </g>
    <g
       transform="matrix(3.220991,0,0,3.220991,-268.2728,-913.497)"
       id="g890"
       style="fill:#f9ec70">
      <path
         id="path891"
         d="m 174.533,546.505 c 1.146,0.243 1.33,3.944 0.411,8.266 -0.918,4.322 -2.592,7.628 -3.738,7.384 -1.146,-0.243 -1.331,-3.944 -0.412,-8.266 0.919,-4.322 2.592,-7.628 3.739,-7.384 z" />
    </g>
    <g
       transform="matrix(3.220991,0,0,3.220991,-268.2728,-913.497)"
       id="g892"
       style="fill:#f9ec70">
      <path
         id="path893"
         d="M 172.869,554.33 z" />
    </g>
    <g
       transform="matrix(3.220991,0,0,3.220991,-268.2728,-913.497)"
       id="g894"
       style="fill:#f9ec70">
      <path
         id="path895"
         d="m 272.936,555.629 c -1.265,1.357 -7.792,-2.674 -14.579,-9.003 -6.786,-6.328 -11.263,-12.558 -9.998,-13.915 1.265,-1.356 7.792,2.674 14.579,9.003 6.787,6.329 11.263,12.559 9.998,13.915 z" />
    </g>
    <g
       transform="matrix(3.220991,0,0,3.220991,-268.2728,-913.497)"
       id="g896"
       style="fill:#f9ec70">
      <path
         id="path897"
         d="M 260.648,544.17 z" />
    </g>
    <g
       transform="matrix(3.220991,0,0,3.220991,-268.2728,-913.497)"
       id="g898"
       style="fill:#f9ec70">
      <path
         id="path899"
         d="m 229.136,550.027 c -2.529,-4.963 -3.559,-9.506 -2.302,-10.147 1.258,-0.641 4.328,2.863 6.857,7.826 2.529,4.964 3.559,9.506 2.302,10.147 -1.258,0.641 -4.328,-2.863 -6.857,-7.826 z" />
    </g>
    <g
       transform="matrix(3.220991,0,0,3.220991,-268.2728,-913.497)"
       id="g900"
       style="fill:#f9ec70">
      <path
         id="path901"
         d="M 231.413,548.867 z" />
    </g>
    <g
       transform="matrix(3.220991,0,0,3.220991,-268.2728,-913.497)"
       id="g902"
       style="fill:#f9ec70">
      <path
         id="path903"
         d="m 270.423,531.522 c 0.495,-0.735 4.164,0.874 8.195,3.592 4.03,2.718 6.895,5.518 6.4,6.252 -0.496,0.735 -4.165,-0.873 -8.195,-3.592 -4.03,-2.718 -6.896,-5.517 -6.4,-6.252 z" />
    </g>
    <g
       transform="matrix(3.220991,0,0,3.220991,-268.2728,-913.497)"
       id="g904"
       style="fill:#f9ec70">
      <path
         id="path905"
         d="M 277.72,536.444 z" />
    </g>
    <g
       transform="matrix(3.220991,0,0,3.220991,-268.2728,-913.497)"
       id="g906"
       style="fill:#2c996c">
      <path
         id="path907"
         d="m 259.655,474.68 c -0.131,1.049 -1.219,1.689 -2.658,1.526 -0.826,-2.499 -13.884,-41.936 -16.685,-45.795 1.41,-6.942 5.981,-22.666 17.329,-13.303 14.327,11.821 20.873,34.445 23.883,47.513 3.009,13.068 -0.756,27.407 -8.549,24.386 -7.792,-3.021 -13.32,-14.327 -13.32,-14.327 z" />
    </g>
    <g
       transform="matrix(3.220991,0,0,3.220991,-268.2728,-913.497)"
       id="g908"
       style="fill:#2c996c;stroke:#000000;stroke-width:4">
      <path
         id="path909"
         d="m 243.054,426.338 c 0,0 1.193,23.265 11.651,36.338 2.747,3.433 6.18,2.975 6.409,1.144 0,0 5.025,10.279 12.109,13.025 7.085,2.747 10.507,-10.288 7.771,-22.169 -2.736,-11.88 -8.686,-32.447 -21.711,-43.194 -13.025,-10.746 -16.229,14.856 -16.229,14.856 z" />
    </g>
    <g
       transform="matrix(3.220991,0,0,3.220991,-268.2728,-913.497)"
       id="g910"
       style="fill:#88d5b0">
      <path
         id="path911"
         d="m 241.725,421.612 c 0,0 1.193,23.265 11.651,36.338 2.747,3.433 6.18,2.975 6.409,1.144 0,0 5.024,10.278 12.109,13.025 7.084,2.746 10.507,-10.289 7.771,-22.169 -2.736,-11.881 -8.687,-32.448 -21.711,-43.194 -13.025,-10.746 -16.229,14.856 -16.229,14.856 z" />
    </g>
    <g
       transform="matrix(3.220991,0,0,3.220991,-268.2728,-913.497)"
       id="g912"
       style="fill:#c1efd7">
      <path
         id="path913"
         d="m 252.807,409.83 c 2.387,-1.2 6.525,0.49 9.243,3.775 2.718,3.286 2.987,6.922 0.601,8.122 -2.387,1.2 -6.525,-0.49 -9.243,-3.775 -2.718,-3.286 -2.987,-6.922 -0.601,-8.122 z" />
    </g>
    <g
       transform="matrix(3.220991,0,0,3.220991,-268.2728,-913.497)"
       id="g914"
       style="fill:#c1efd7">
      <path
         id="path915"
         d="M 257.729,415.779 z" />
    </g>
    <g
       transform="matrix(3.220991,0,0,3.220991,-268.2728,-913.497)"
       id="g916"
       style="fill:#2c996c;stroke:#000000;stroke-width:3.21519995">
      <path
         id="path917"
         d="m 140.115,428.525 c 0,0 -0.785,22.865 -7.666,35.713 -1.807,3.374 -4.065,2.924 -4.216,1.125 0,0 -3.306,10.101 -7.967,12.8 -4.661,2.7 -6.912,-10.111 -5.112,-21.787 1.8,-11.676 5.715,-31.889 14.284,-42.451 8.569,-10.561 10.677,14.6 10.677,14.6 z" />
    </g>
    <g
       transform="matrix(3.220991,0,0,3.220991,-268.2728,-913.497)"
       id="g918"
       style="fill:#88d5b0">
      <path
         id="path919"
         d="m 142.305,425.465 c 0,0 -0.785,20.578 -7.666,32.141 -1.806,3.037 -4.065,2.632 -4.216,1.012 0,0 -3.305,9.091 -7.966,11.521 -4.661,2.429 -6.913,-9.101 -5.113,-19.609 1.8,-10.508 5.715,-28.7 14.284,-38.205 8.569,-9.506 10.677,13.14 10.677,13.14 z" />
    </g>
    <g
       transform="matrix(3.220991,0,0,3.220991,-268.2728,-913.497)"
       id="g920"
       style="fill:#2c996c">
      <path
         id="path921"
         d="m 134.029,458.893 c -0.2,0.37 -0.404,0.732 -0.615,1.086 -1.807,3.036 -4.065,2.631 -4.216,1.012 0,0 -3.306,9.091 -7.967,11.52 -4.661,2.429 -6.912,-9.1 -5.112,-19.608 1.509,-8.81 4.504,-23.02 10.482,-32.985 -3.037,10.498 -8.69,33.49 -2.585,41.444 1.47,1.916 4.574,-1.149 4.918,-6.231 0.276,-4.062 1.05,5.108 5.095,3.762 z" />
    </g>
    <g
       transform="matrix(3.220991,0,0,3.220991,-268.2728,-913.497)"
       id="g922"
       style="fill:#88d5b0">
      <path
         id="path923"
         d="m 126.526,419.85 c 0,0 2.69,-5.122 7.006,-9.49 4.885,-4.944 7.346,-4.544 9.235,-9.867 1.862,-5.248 1.415,5.511 1.415,12.6 0,7.089 -2.07,14.426 -2.65,16.165 -0.58,1.74 -2.285,1.043 -4.273,-1.822 -1.988,-2.865 -3.347,-4.273 -4.887,-4.438 -1.539,-0.166 -5.846,-3.148 -5.846,-3.148 z" />
    </g>
    <g
       transform="matrix(3.220991,0,0,3.220991,-268.2728,-913.497)"
       id="g924"
       style="fill:#c1efd7">
      <path
         id="path925"
         d="m 134.692,434.071 c 0.458,-5.23 1.835,-9.381 3.077,-9.272 1.243,0.108 1.879,4.436 1.421,9.665 -0.457,5.23 -1.835,9.381 -3.077,9.272 -1.242,-0.109 -1.878,-4.436 -1.421,-9.665 z" />
    </g>
    <g
       transform="matrix(3.220991,0,0,3.220991,-268.2728,-913.497)"
       id="g926"
       style="fill:#000000">
      <path
         id="path927"
         d="m 164.473,386.33 c 0,-2.307 1.158,-4.177 2.587,-4.177 1.429,0 2.587,1.87 2.587,4.177 0,2.306 -1.158,4.176 -2.587,4.176 -1.429,0 -2.587,-1.87 -2.587,-4.176 z" />
    </g>
    <g
       transform="matrix(3.220991,0,0,3.220991,-268.2728,-913.497)"
       id="g928"
       style="fill:#000000">
      <path
         id="path929"
         d="M 167.06,386.33 z" />
    </g>
    <g
       transform="matrix(3.220991,0,0,3.220991,-268.2728,-913.497)"
       id="g930"
       style="fill:#ffffff">
      <path
         id="path931"
         d="m 167.527,385.968 c 0,-0.741 0.601,-1.343 1.343,-1.343 0.741,0 1.342,0.602 1.342,1.343 0,0.742 -0.601,1.343 -1.342,1.343 -0.742,0 -1.343,-0.601 -1.343,-1.343 z" />
    </g>
    <g
       transform="matrix(3.220991,0,0,3.220991,-268.2728,-913.497)"
       id="g932"
       style="fill:#ffffff">
      <path
         id="path933"
         d="M 168.87,385.968 z" />
    </g>
    <path
       sodipodi:nodetypes="cc"
       id="path1049"
       d="m 370.67185,288.94225 c 22.95114,-13.11492 41.80395,-13.93463 59.83688,2.45906"
       style="fill:none;stroke:#000000;stroke-width:3.2209919pt" />
  </g>
</svg>
