<?xml version="1.0" encoding="UTF-8" standalone="no"?>
<!-- Created with Inkscape (http://www.inkscape.org/) -->

<svg
   xmlns:svg="http://www.w3.org/2000/svg"
   xmlns="http://www.w3.org/2000/svg"
   version="1.1"
   width="200"
   height="261.19354"
   id="svg1050">
  <defs
     id="defs1052" />
  <g
     transform="matrix(0.33721434,0,0,0.33721434,-22.887001,-52.5504)"
     id="g2948">
    <g
       transform="matrix(3.088532,0,0,3.088532,-229.2183,-1869.078)"
       id="g934"
       style="fill:#88d5b0;stroke:#000000;stroke-width:4">
      <path
         d="m 138.724,739.904 c 0,0 -1.498,-3.33 -6.168,-0.166 -4.67,3.163 -19.671,23.342 -20.504,27.671 -0.832,4.329 -7.492,28.67 4.837,25.831 12.329,-2.838 20.004,-17.006 21.502,-21.336 1.499,-4.328 0.333,-32 0.333,-32 z"
         id="path935" />
    </g>
    <g
       transform="matrix(3.088532,0,0,3.088532,-229.2183,-1869.078)"
       id="g936"
       style="fill:#000000;stroke:#000000;stroke-width:7.99989986">
      <path
         d="m 221.706,837.173 c 0,0 50.885,25.171 58.013,31.756 7.127,6.585 5.194,6.488 -1.601,4.711 -6.795,-1.777 -17.655,-9.028 -21.515,-6.346 -3.859,2.682 8.786,11.992 13.951,17.042 5.164,5.049 2.806,6.847 -2.19,5.64 -4.995,-1.208 -27.615,-14.105 -27.615,-14.105 0,0 -8.296,-4.993 -6.387,0.639 1.909,5.633 6.928,18.341 3.271,19.383 -3.657,1.042 -7.65,-4.003 -9.833,-8.424 -2.184,-4.421 -14.289,-24.724 -17.968,-29.487 -3.678,-4.763 -9,-7.903 -7.853,-15.299 1.148,-7.396 19.727,-5.51 19.727,-5.51 z"
         id="path937" />
    </g>
    <g
       transform="matrix(3.088532,0,0,3.088532,-229.2183,-1869.078)"
       id="g938"
       style="stroke:#000000;stroke-width:12">
      <path
         d="m 201.154,662.313 c -1.674,-0.274 -16,-6 -37,21 -21,27 -17.412,30.735 -22.853,39.588 -5.441,8.853 -25.28,78.721 -9.706,106.133 15.573,27.411 53.544,30.72 66.985,30.72 13.441,0 85.015,-11.735 80,-53.015 -5.014,-41.279 -8.53,-59.735 -26.985,-93.867 -18.456,-34.133 -41.269,-49.056 -50.441,-50.559 z"
         id="path939" />
    </g>
    <g
       transform="matrix(3.088532,0,0,3.088532,-229.2183,-1869.078)"
       id="g940"
       style="fill:#000000;stroke:#000000;stroke-width:7.99989986">
      <path
         d="m 169.22,843.8 c 0,0 -47.033,22.819 -53.101,29.101 -6.067,6.281 -4.134,6.281 2.417,4.831 6.55,-1.449 16.268,-8.214 20.617,-5.315 4.349,2.9 -6.819,11.652 -11.168,16.484 -4.349,4.831 -1.664,6.764 3.168,5.798 4.832,-0.967 25.45,-12.832 25.45,-12.832 0,0 7.517,-4.618 6.55,0.966 -0.966,5.584 -3.865,18.148 0,19.383 3.866,1.235 7.034,-3.652 8.483,-8 1.45,-4.349 10.202,-24.215 13.101,-28.832 2.899,-4.618 7.731,-7.517 5.315,-15.034 -2.416,-7.517 -20.832,-6.55 -20.832,-6.55 z"
         id="path941" />
    </g>
    <g
       transform="matrix(3.088532,0,0,3.088532,-229.2183,-1869.078)"
       id="g942"
       style="fill:#fdce27">
      <path
         d="m 172.962,838.418 c 0,0 -47.034,22.819 -53.101,29.101 -6.067,6.281 -4.135,6.281 2.416,4.832 6.55,-1.45 16.269,-8.214 20.617,-5.315 4.349,2.899 -6.819,11.651 -11.168,16.483 -4.348,4.832 -1.664,6.765 3.168,5.798 4.832,-0.966 25.45,-12.832 25.45,-12.832 0,0 7.517,-4.617 6.55,0.967 -0.966,5.584 -3.865,18.147 0,19.382 3.866,1.235 7.034,-3.651 8.484,-8 1.449,-4.349 10.201,-24.214 13.1,-28.832 2.9,-4.618 7.732,-7.517 5.316,-15.034 -2.416,-7.516 -20.832,-6.55 -20.832,-6.55 z"
         id="path943" />
    </g>
    <g
       transform="matrix(3.088532,0,0,3.088532,-229.2183,-1869.078)"
       id="g944"
       style="fill:#fdce27">
      <path
         d="m 217.674,831.868 c 0,0 50.885,25.17 58.013,31.755 7.127,6.585 5.194,6.488 -1.601,4.711 -6.795,-1.776 -17.655,-9.027 -21.514,-6.345 -3.86,2.681 8.786,11.992 13.95,17.041 5.164,5.05 2.806,6.848 -2.19,5.64 -4.995,-1.208 -27.615,-14.104 -27.615,-14.104 0,0 -8.296,-4.993 -6.387,0.639 1.909,5.632 6.928,18.34 3.271,19.382 -3.657,1.042 -7.65,-4.002 -9.833,-8.424 -2.184,-4.421 -14.289,-24.724 -17.968,-29.486 -3.678,-4.763 -9,-7.904 -7.852,-15.3 1.147,-7.396 19.726,-5.509 19.726,-5.509 z"
         id="path945" />
    </g>
    <g
       transform="matrix(3.088532,0,0,3.088532,-229.2183,-1869.078)"
       id="g946"
       style="fill:#feb02a">
      <path
         d="m 146.072,851.971 c -1.034,1.124 21.505,9.573 30.292,10.135 8.786,0.562 8.899,3.955 8.899,3.955 l 5.078,-8.674 -36.382,-9.461 c 0,0 -6.853,2.921 -7.887,4.045 z"
         id="path947" />
    </g>
    <g
       transform="matrix(3.088532,0,0,3.088532,-229.2183,-1869.078)"
       id="g948"
       style="fill:#feb02a">
      <path
         d="m 213.856,864.064 c 0,0 2.284,-3.789 6.195,-4.09 3.91,-0.3 27.61,-5.113 32.902,-9.504 l -6.496,-4.089 c 0,0 -11.789,-2.707 -15.699,-1.805 -3.91,0.902 -20.691,4.39 -21.594,7.098 -0.902,2.707 -0.601,4.992 -0.601,4.992 l 5.293,7.398 z"
         id="path949" />
    </g>
    <g
       transform="matrix(3.088532,0,0,3.088532,-229.2183,-1869.078)"
       id="g950"
       style="fill:#88d5b0;stroke:#000000;stroke-width:1.5">
      <path
         d="m 201.154,659.313 c -1.674,-0.274 -16,-6 -37,21 -21,27 -17.412,30.735 -22.853,39.588 -5.441,8.853 -25.28,78.721 -9.706,106.133 15.573,27.411 53.544,30.72 66.985,30.72 13.441,0 85.015,-11.735 80,-53.015 -5.014,-41.279 -8.53,-59.735 -26.985,-93.867 -18.456,-34.133 -41.269,-49.056 -50.441,-50.559 z"
         id="path951" />
    </g>
    <g
       transform="matrix(3.088532,0,0,3.088532,-229.2183,-1869.078)"
       id="g952"
       style="fill:#fefef6">
      <path
         d="m 150.482,728.977 c -2.095,-14.903 4.631,-28.168 15.022,-29.629 4.386,-0.616 8.724,0.969 12.431,4.128 6.215,-10.73 16.878,-17.067 27.625,-15.172 14.685,2.59 23.966,19.569 20.729,37.926 -0.424,2.406 -1.043,4.716 -1.83,6.908 4.133,3.674 7.547,8.672 9.596,15.434 10,33 41,76 -2,96.5 -43,20.5 -93,-7 -97.5,-17.5 -4.5,-10.5 -3.5,-44.5 1.5,-63.5 5,-19 14.427,-35.095 14.427,-35.095 z"
         id="path953" />
    </g>
    <g
       transform="matrix(3.088532,0,0,3.088532,-229.2183,-1869.078)"
       id="g954"
       style="fill:#eff1e4">
      <path
         d="m 232.413,845.438 c -42.896,20.45 -92.758,-6.867 -97.467,-17.423 13.93,9.918 31.142,15.779 49.77,15.779 28.944,0 54.468,-14.149 69.574,-35.682 1.629,14.95 -2.972,28.313 -21.877,37.326 z"
         id="path955" />
    </g>
    <g
       transform="matrix(3.088532,0,0,3.088532,-229.2183,-1869.078)"
       id="g956"
       style="fill:#c1efd7">
      <path
         d="m 201.532,663.817 c 2.386,-1.201 6.524,0.49 9.242,3.775 2.719,3.285 2.988,6.921 0.601,8.121 -2.387,1.2 -6.525,-0.49 -9.243,-3.775 -2.718,-3.285 -2.987,-6.921 -0.6,-8.121 z"
         id="path957" />
    </g>
    <g
       transform="matrix(3.088532,0,0,3.088532,-229.2183,-1869.078)"
       id="g960"
       style="fill:#eff1e4">
      <path
         d="m 235.316,753.368 c 1.33,-1.829 17.164,46.171 17.164,46.171 0,0 -8.499,1.33 -16,-31.003 0,0 -2.493,-13.34 -1.164,-15.168 z"
         id="path961" />
    </g>
    <g
       transform="matrix(3.088532,0,0,3.088532,-229.2183,-1869.078)"
       id="g962"
       style="fill:#000000">
      <path
         d="m 201.088,715.363 c 0,-2.307 1.158,-4.177 2.587,-4.177 1.428,0 2.586,1.87 2.586,4.177 0,2.306 -1.158,4.176 -2.586,4.176 -1.429,0 -2.587,-1.87 -2.587,-4.176 z"
         id="path963" />
    </g>
    <g
       transform="matrix(3.088532,0,0,3.088532,-229.2183,-1869.078)"
       id="g972"
       style="fill:#ffffff">
      <path
         d="m 204.141,715.001 c 0,-0.741 0.602,-1.342 1.343,-1.342 0.742,0 1.343,0.601 1.343,1.342 0,0.742 -0.601,1.343 -1.343,1.343 -0.741,0 -1.343,-0.601 -1.343,-1.343 z"
         id="path973" />
    </g>
    <g
       transform="matrix(3.088532,0,0,3.088532,-229.2183,-1869.078)"
       id="g976"
       style="fill:#eff1e4">
      <path
         d="m 177.139,760.893 c -2.858,3.013 -5.865,5.639 -8.554,6.885 -8.544,3.961 -6.779,-4.951 -6.297,-8.169 0.481,-3.218 2.927,-8.229 2.927,-8.229 1.643,-6.683 7.222,-20.17 9.667,-23.635 2.446,-3.466 5.457,-7.179 10.952,-5.694 4.942,1.336 7.906,12.535 8.452,14.772 1.187,1.565 2.046,3.539 2.446,5.842 1.347,7.757 -3.025,16.304 -9.766,19.091 -3.578,1.479 -7.104,1.037 -9.827,-0.863 z"
         id="path977" />
    </g>
    <g
       transform="matrix(3.088532,0,0,3.088532,-229.2183,-1869.078)"
       id="g978"
       style="fill:#fae62a;stroke:#000000;stroke-width:4">
      <path
         d="m 171.208,743.269 c -2.58,1.762 -5.293,3.298 -7.72,4.027 -7.71,2.317 -6.117,-2.896 -5.682,-4.779 0.434,-1.883 2.641,-4.814 2.641,-4.814 1.483,-3.91 6.517,-11.8 8.724,-13.828 2.207,-2.027 4.924,-4.199 9.883,-3.33 4.461,0.781 7.135,7.333 7.628,8.642 1.071,0.915 1.846,2.07 2.207,3.417 1.216,4.539 -2.73,9.539 -8.813,11.169 -3.229,0.865 -6.411,0.607 -8.868,-0.504 z"
         id="path979" />
    </g>
    <g
       transform="matrix(3.088532,0,0,3.088532,-229.2183,-1869.078)"
       id="g980"
       style="fill:#fdce27">
      <path
         d="m 170.861,741.913 c -2.579,1.763 -5.292,3.299 -7.719,4.028 -7.71,2.317 -6.117,-2.897 -5.683,-4.78 0.435,-1.882 2.642,-4.813 2.642,-4.813 1.483,-3.911 6.517,-11.8 8.724,-13.828 2.207,-2.027 4.924,-4.2 9.883,-3.331 4.46,0.782 7.135,7.334 7.627,8.642 1.071,0.916 1.847,2.071 2.208,3.418 1.216,4.538 -2.73,9.538 -8.813,11.168 -3.229,0.866 -6.411,0.607 -8.869,-0.504 z"
         id="path981" />
    </g>
    <g
       transform="matrix(3.088532,0,0,3.088532,-229.2183,-1869.078)"
       id="g982"
       style="fill:#000000">
      <path
         d="m 176.803,723.435 c 0.593,-0.816 1.467,-1.192 1.953,-0.839 0.485,0.352 0.398,1.3 -0.195,2.116 -0.593,0.816 -1.467,1.192 -1.953,0.839 -0.485,-0.353 -0.398,-1.3 0.195,-2.116 z"
         id="path983" />
    </g>
    <g
       transform="matrix(6.473292,0,0,6.473292,-606.6424,-3823.8)"
       id="g984"
       style="fill:#000000">
      <path
         d="M 177.682,724.073 z"
         id="path985" />
    </g>
    <g
       transform="matrix(3.088532,0,0,3.088532,-229.2183,-1869.078)"
       id="g986"
       style="fill:#feb02a">
      <path
         d="m 170.875,742.385 c -2.58,1.763 -5.293,3.299 -7.72,4.028 -3.94,1.184 -5.45,0.399 -5.927,-0.901 0,0 2.777,3.962 15.496,-7.747 7.071,-6.51 9.142,-12.186 9.587,-16.072 2.306,2.277 3.696,5.703 4.038,6.61 1.071,0.916 1.846,2.071 2.207,3.418 1.216,4.538 -2.73,9.539 -8.813,11.169 -3.229,0.865 -6.411,0.607 -8.868,-0.505 z"
         id="path987" />
    </g>
    <g
       transform="matrix(3.088532,0,0,3.088532,-229.2183,-1869.078)"
       id="g988"
       style="stroke:#000000;stroke-width:2">
      <path
         d="m 167.674,745.116 c 0,0 14.032,-8.163 15.674,-14.533"
         id="path989" />
    </g>
    <g
       transform="matrix(3.088532,0,0,3.088532,-229.2183,-1869.078)"
       id="g990"
       style="stroke:#000000">
      <path
         d="m 181.113,728.349 c 0,0 3.187,0.39 4.122,3.974"
         id="path991" />
    </g>
    <g
       transform="matrix(3.088532,0,0,3.088532,-229.2183,-1869.078)"
       id="g992"
       style="fill:#f9ec70">
      <path
         d="m 168.219,724.71 c 2.11,-3.129 4.501,-5.206 5.341,-4.64 0.839,0.566 -0.191,3.561 -2.302,6.69 -2.11,3.129 -4.501,5.206 -5.34,4.64 -0.84,-0.566 0.191,-3.561 2.301,-6.69 z"
         id="path993" />
    </g>
    <g
       transform="matrix(6.473292,0,0,6.473292,-606.6424,-3823.8)"
       id="g994"
       style="fill:#f9ec70">
      <path
         d="M 169.739,725.735 z"
         id="path995" />
    </g>
    <g
       transform="matrix(3.088532,0,0,3.088532,-229.2183,-1869.078)"
       id="g996"
       style="fill:#f9ec70">
      <path
         d="m 131.968,885.429 c -0.833,-1.233 3.855,-5.851 10.471,-10.313 6.615,-4.462 12.652,-7.079 13.484,-5.845 0.833,1.234 -3.856,5.851 -10.471,10.313 -6.615,4.462 -12.652,7.079 -13.484,5.845 z"
         id="path997" />
    </g>
    <g
       transform="matrix(3.088532,0,0,3.088532,-229.2183,-1869.078)"
       id="g1000"
       style="fill:#f9ec70">
      <path
         d="m 120.746,867.542 c -0.343,-1.121 2.805,-3.076 7.03,-4.368 4.225,-1.292 7.928,-1.431 8.271,-0.31 0.342,1.12 -2.805,3.076 -7.03,4.367 -4.226,1.292 -7.928,1.431 -8.271,0.311 z"
         id="path1001" />
    </g>
    <g
       transform="matrix(3.088532,0,0,3.088532,-229.2183,-1869.078)"
       id="g1004"
       style="fill:#f9ec70">
      <path
         d="m 171.483,875.408 c 1.146,0.244 1.331,3.945 0.412,8.267 -0.919,4.321 -2.592,7.628 -3.739,7.384 -1.146,-0.244 -1.33,-3.945 -0.411,-8.267 0.918,-4.321 2.592,-7.627 3.738,-7.384 z"
         id="path1005" />
    </g>
    <g
       transform="matrix(3.088532,0,0,3.088532,-229.2183,-1869.078)"
       id="g1008"
       style="fill:#f9ec70">
      <path
         d="m 269.887,884.533 c -1.265,1.356 -7.792,-2.675 -14.579,-9.003 -6.787,-6.329 -11.263,-12.559 -9.998,-13.915 1.265,-1.357 7.792,2.674 14.579,9.003 6.786,6.328 11.263,12.558 9.998,13.915 z"
         id="path1009" />
    </g>
    <g
       transform="matrix(3.088532,0,0,3.088532,-229.2183,-1869.078)"
       id="g1012"
       style="fill:#f9ec70">
      <path
         d="m 226.087,878.93 c -2.529,-4.963 -3.56,-9.506 -2.302,-10.146 1.258,-0.641 4.328,2.863 6.856,7.826 2.529,4.963 3.56,9.506 2.302,10.147 -1.258,0.641 -4.327,-2.863 -6.856,-7.827 z"
         id="path1013" />
    </g>
    <g
       transform="matrix(3.088532,0,0,3.088532,-229.2183,-1869.078)"
       id="g1016"
       style="fill:#f9ec70">
      <path
         d="m 267.373,860.426 c 0.496,-0.735 4.165,0.873 8.195,3.592 4.03,2.718 6.896,5.517 6.4,6.252 -0.495,0.735 -4.164,-0.873 -8.194,-3.592 -4.031,-2.718 -6.896,-5.518 -6.401,-6.252 z"
         id="path1017" />
    </g>
    <g
       transform="matrix(3.088532,0,0,3.088532,-229.2183,-1869.078)"
       id="g1020"
       style="stroke:#000000;stroke-width:4.83459997">
      <path
         d="m 113.051,755.904 c 0,0 -1.49,-6.493 -5.161,-4.162 -3.671,2.331 -7.501,9.166 -8.833,17.498 -1.332,8.333 0.325,22.827 4.662,26.664 4.337,3.838 7.842,3.83 10.839,2.664 2.997,-1.165 5.669,-0.665 7.001,-2.331 1.332,-1.665 2.664,-12.994 2.83,-17.332 0.167,-4.337 -0.507,-9.49 -4.836,-11.829 -4.329,-2.339 -5.661,-3.172 -5.828,-4.836 -0.166,-1.665 -0.674,-6.336 -0.674,-6.336 z"
         id="path1021" />
    </g>
    <g
       transform="matrix(3.088532,0,0,3.088532,-229.2183,-1869.078)"
       id="g1022"
       style="fill:#88d5b0">
      <path
         d="m 114.722,756.279 c 0,0 -1.49,-6.493 -5.161,-4.162 -3.671,2.331 -7.501,9.165 -8.833,17.498 -1.332,8.333 0.325,22.827 4.662,26.664 4.337,3.838 7.842,3.83 10.839,2.664 2.997,-1.165 5.669,-0.666 7.001,-2.331 1.332,-1.665 2.664,-12.995 2.83,-17.332 0.167,-4.337 -0.507,-9.49 -4.836,-11.829 -4.329,-2.339 -5.661,-3.172 -5.828,-4.837 -0.166,-1.665 -0.674,-6.335 -0.674,-6.335 z"
         id="path1023" />
    </g>
    <g
       transform="matrix(3.088532,0,0,3.088532,-229.2183,-1869.078)"
       id="g1024"
       style="fill:#c1efd7">
      <path
         d="m 108.591,757.794 c 0,-2.699 1.357,-4.888 3.031,-4.888 1.674,0 3.031,2.189 3.031,4.888 0,2.7 -1.357,4.889 -3.031,4.889 -1.674,0 -3.031,-2.189 -3.031,-4.889 z"
         id="path1025" />
    </g>
    <g
       transform="matrix(3.088532,0,0,3.088532,-229.2183,-1869.078)"
       id="g1028"
       style="fill:#2c996c">
      <path
         d="m 116.073,763.432 c 0.424,1.308 1.916,2.201 5.708,4.25 4.329,2.339 5.003,7.492 4.836,11.829 -0.166,4.337 -1.498,15.667 -2.83,17.332 -1.332,1.665 -4.004,1.166 -7.001,2.331 -2.997,1.166 -6.502,1.174 -10.839,-2.664 -0.279,-0.247 -0.547,-0.538 -0.804,-0.869 0.152,0.091 0.299,0.158 0.441,0.198 3.545,0.993 8.142,-2.469 11.036,-4.454 2.894,-1.986 3.971,-1.986 4.68,-8.851 0.709,-6.866 -1.56,-9.844 -2.411,-10.695 -0.851,-0.851 -2.837,-3.32 -3.887,-5.447 -0.736,-1.49 0.352,-2.493 1.071,-2.96 z"
         id="path1029" />
    </g>
    <g
       transform="matrix(3.088532,0,0,3.088532,-229.2183,-1869.078)"
       id="g1030"
       style="stroke:#000000">
      <path
         d="m 114.786,769.673 c 0,0 1.351,-4.397 1.125,-7.55"
         id="path1031" />
    </g>
    <g
       transform="matrix(3.088532,0,0,3.088532,-229.2183,-1869.078)"
       id="g1032"
       style="fill:#2c996c">
      <path
         d="m 256.606,803.583 c -0.131,1.05 -1.219,1.689 -2.659,1.527 -0.825,-2.499 -13.883,-41.937 -16.684,-45.796 1.41,-6.942 5.98,-22.666 17.329,-13.302 14.327,11.821 20.873,34.444 23.882,47.513 3.01,13.068 -0.755,27.407 -8.548,24.385 -7.793,-3.021 -13.32,-14.327 -13.32,-14.327 z"
         id="path1033" />
    </g>
    <g
       transform="matrix(3.088532,0,0,3.088532,-229.2183,-1869.078)"
       id="g1034"
       style="fill:#2c996c;stroke:#000000;stroke-width:4">
      <path
         d="m 240.005,755.241 c 0,0 1.193,23.265 11.651,36.339 2.746,3.433 6.18,2.975 6.408,1.144 0,0 5.025,10.278 12.11,13.025 7.084,2.746 10.507,-10.289 7.771,-22.169 -2.736,-11.881 -8.687,-32.448 -21.712,-43.194 -13.024,-10.747 -16.228,14.855 -16.228,14.855 z"
         id="path1035" />
    </g>
    <g
       transform="matrix(3.088532,0,0,3.088532,-229.2183,-1869.078)"
       id="g1036"
       style="fill:#88d5b0">
      <path
         d="m 238.675,750.515 c 0,0 1.193,23.265 11.652,36.338 2.746,3.433 6.179,2.975 6.408,1.145 0,0 5.025,10.278 12.109,13.024 7.085,2.747 10.508,-10.288 7.772,-22.169 -2.736,-11.88 -8.687,-32.447 -21.712,-43.194 -13.024,-10.746 -16.229,14.856 -16.229,14.856 z"
         id="path1037" />
    </g>
    <g
       transform="matrix(3.088532,0,0,3.088532,-229.2183,-1869.078)"
       id="g1038"
       style="fill:#c1efd7">
      <path
         d="m 249.758,738.734 c 2.386,-1.2 6.525,0.49 9.243,3.775 2.718,3.285 2.987,6.921 0.6,8.121 -2.386,1.2 -6.524,-0.49 -9.243,-3.775 -2.718,-3.285 -2.987,-6.921 -0.6,-8.121 z"
         id="path1039" />
    </g>
    <path
       d="m 376.76867,300.45983 c 22.00731,-12.57558 40.08477,-13.36158 57.37623,2.35794"
       id="path1046"
       style="fill:none;stroke:#000000;stroke-width:3.08853245pt" />
    <path
       d="m 379.12658,288.67022 c 12.31364,-12.57561 27.77116,-17.29145 43.22868,-15.71952"
       id="path1047"
       style="fill:none;stroke:#000000;stroke-width:3.08853245pt" />
    <path
       d="m 247.08268,357.83605 39.2988,-5.50181 -44.01465,16.50548 0,0"
       id="path1048"
       style="fill:none;stroke:#000000;stroke-width:3.08853245pt" />
  </g>
</svg>
