<?xml version="1.0" encoding="UTF-8" standalone="no"?>
<!-- Created with Inkscape (http://www.inkscape.org/) -->

<svg
   xmlns:svg="http://www.w3.org/2000/svg"
   xmlns="http://www.w3.org/2000/svg"
   xmlns:xlink="http://www.w3.org/1999/xlink"
   version="1.1"
   width="48"
   height="48"
   id="svg11300">
  <defs
     id="defs3">
    <linearGradient
       id="linearGradient2407">
      <stop
         id="stop2409"
         style="stop-color:#d5d5d5;stop-opacity:1"
         offset="0" />
      <stop
         id="stop2411"
         style="stop-color:#747474;stop-opacity:1"
         offset="1" />
    </linearGradient>
    <linearGradient
       id="linearGradient2399">
      <stop
         id="stop2401"
         style="stop-color:#ffffff;stop-opacity:1"
         offset="0" />
      <stop
         id="stop2403"
         style="stop-color:#ffffff;stop-opacity:0"
         offset="1" />
    </linearGradient>
    <linearGradient
       id="linearGradient2371">
      <stop
         id="stop2373"
         style="stop-color:#000000;stop-opacity:1"
         offset="0" />
      <stop
         id="stop2375"
         style="stop-color:#000000;stop-opacity:0.48453608"
         offset="1" />
    </linearGradient>
    <linearGradient
       id="linearGradient2355">
      <stop
         id="stop2357"
         style="stop-color:#000000;stop-opacity:1"
         offset="0" />
      <stop
         id="stop2359"
         style="stop-color:#000000;stop-opacity:0"
         offset="1" />
    </linearGradient>
    <linearGradient
       id="linearGradient2345">
      <stop
         id="stop2347"
         style="stop-color:#d5d5d5;stop-opacity:1"
         offset="0" />
      <stop
         id="stop2349"
         style="stop-color:#a0a0a0;stop-opacity:1"
         offset="1" />
    </linearGradient>
    <linearGradient
       id="linearGradient2337">
      <stop
         id="stop2339"
         style="stop-color:#ffffff;stop-opacity:1"
         offset="0" />
      <stop
         id="stop2341"
         style="stop-color:#ffffff;stop-opacity:0"
         offset="1" />
    </linearGradient>
    <linearGradient
       id="linearGradient2252">
      <stop
         id="stop2254"
         style="stop-color:#c6c6c6;stop-opacity:1"
         offset="0" />
      <stop
         id="stop2256"
         style="stop-color:#c6c6c6;stop-opacity:0"
         offset="1" />
    </linearGradient>
    <linearGradient
       id="linearGradient2242">
      <stop
         id="stop2244"
         style="stop-color:#000000;stop-opacity:1"
         offset="0" />
      <stop
         id="stop2246"
         style="stop-color:#000000;stop-opacity:0"
         offset="1" />
    </linearGradient>
    <linearGradient
       id="linearGradient2232">
      <stop
         id="stop2234"
         style="stop-color:#b0b0b0;stop-opacity:1"
         offset="0" />
      <stop
         id="stop2236"
         style="stop-color:#747474;stop-opacity:1"
         offset="1" />
    </linearGradient>
    <radialGradient
       cx="15.4375"
       cy="42.090427"
       r="11.1875"
       fx="15.4375"
       fy="42.090427"
       id="radialGradient2238"
       xlink:href="#linearGradient2232"
       gradientUnits="userSpaceOnUse"
       gradientTransform="matrix(1,0,0,0.52514,0,22.02165)" />
    <radialGradient
       cx="25.1875"
       cy="41"
       r="16.4375"
       fx="25.1875"
       fy="41"
       id="radialGradient2248"
       xlink:href="#linearGradient2242"
       gradientUnits="userSpaceOnUse"
       gradientTransform="matrix(1,0,0,0.425856,0,23.53992)" />
    <linearGradient
       x1="41.25"
       y1="36.689548"
       x2="48.25"
       y2="35.689548"
       id="linearGradient2258"
       xlink:href="#linearGradient2252"
       gradientUnits="userSpaceOnUse" />
    <radialGradient
       cx="20.275276"
       cy="5.7119732"
       r="12.494026"
       fx="20.275276"
       fy="5.7119732"
       id="radialGradient2343"
       xlink:href="#linearGradient2337"
       gradientUnits="userSpaceOnUse"
       gradientTransform="matrix(2.530751,0,0,2.296006,-31.03641,-6.699856)" />
    <radialGradient
       cx="19.557497"
       cy="6.644074"
       r="10.98921"
       fx="19.557497"
       fy="6.644074"
       id="radialGradient2351"
       xlink:href="#linearGradient2345"
       gradientUnits="userSpaceOnUse"
       gradientTransform="matrix(1.491918,-0.08445108,-0.05874412,3.986724,-9.646804,-20.27595)" />
    <linearGradient
       x1="25.160467"
       y1="15.803662"
       x2="33.96875"
       y2="20.4375"
       id="linearGradient2361"
       xlink:href="#linearGradient2355"
       gradientUnits="userSpaceOnUse" />
    <linearGradient
       x1="25.160467"
       y1="15.803662"
       x2="33.96875"
       y2="20.4375"
       id="linearGradient2363"
       xlink:href="#linearGradient2355"
       gradientUnits="userSpaceOnUse" />
    <linearGradient
       x1="25.160467"
       y1="15.803662"
       x2="33.96875"
       y2="20.4375"
       id="linearGradient2365"
       xlink:href="#linearGradient2355"
       gradientUnits="userSpaceOnUse" />
    <linearGradient
       x1="25.160467"
       y1="15.803662"
       x2="33.96875"
       y2="20.4375"
       id="linearGradient2367"
       xlink:href="#linearGradient2355"
       gradientUnits="userSpaceOnUse" />
    <linearGradient
       x1="25.160467"
       y1="15.803662"
       x2="33.96875"
       y2="20.4375"
       id="linearGradient2369"
       xlink:href="#linearGradient2355"
       gradientUnits="userSpaceOnUse" />
    <linearGradient
       x1="18.328718"
       y1="15.323075"
       x2="14.40625"
       y2="14.046875"
       id="linearGradient2377"
       xlink:href="#linearGradient2371"
       gradientUnits="userSpaceOnUse" />
    <linearGradient
       x1="18.328718"
       y1="15.323075"
       x2="14.40625"
       y2="14.046875"
       id="linearGradient2379"
       xlink:href="#linearGradient2371"
       gradientUnits="userSpaceOnUse" />
    <linearGradient
       x1="18.328718"
       y1="15.323075"
       x2="14.40625"
       y2="14.046875"
       id="linearGradient2381"
       xlink:href="#linearGradient2371"
       gradientUnits="userSpaceOnUse" />
    <linearGradient
       x1="18.328718"
       y1="15.323075"
       x2="14.40625"
       y2="14.046875"
       id="linearGradient2383"
       xlink:href="#linearGradient2371"
       gradientUnits="userSpaceOnUse" />
    <linearGradient
       x1="18.328718"
       y1="15.323075"
       x2="14.40625"
       y2="14.046875"
       id="linearGradient2385"
       xlink:href="#linearGradient2371"
       gradientUnits="userSpaceOnUse" />
    <linearGradient
       x1="16.4375"
       y1="49.110714"
       x2="17.402376"
       y2="43.420425"
       id="linearGradient2405"
       xlink:href="#linearGradient2399"
       gradientUnits="userSpaceOnUse" />
    <radialGradient
       cx="33.499996"
       cy="20.538168"
       r="2.2697368"
       fx="33.499996"
       fy="20.538168"
       id="radialGradient2413"
       xlink:href="#linearGradient2407"
       gradientUnits="userSpaceOnUse"
       gradientTransform="matrix(0.435326,0,0,0.435326,18.91658,12.49341)" />
  </defs>
  <g
     id="layer1">
    <path
       d="M 41.625,41 A 16.4375,7 0 1 1 8.75,41 16.4375,7 0 1 1 41.625,41 z"
       transform="matrix(1.106464,0,0,1.044643,-2.681557,-2.517857)"
       id="path2240"
       style="opacity:0.49431817;color:#000000;fill:url(#radialGradient2248);fill-opacity:1;fill-rule:evenodd;stroke:none;stroke-width:2;marker:none;visibility:visible;display:inline;overflow:visible" />
    <path
       d="m 27.625,46.375 a 11.1875,5.875 0 1 1 -22.375,0 11.1875,5.875 0 1 1 22.375,0 z"
       transform="translate(8.75,-7)"
       id="path2222"
       style="color:#000000;fill:url(#radialGradient2238);fill-opacity:1;fill-rule:evenodd;stroke:#424242;stroke-width:1;stroke-linecap:butt;stroke-linejoin:miter;stroke-miterlimit:4;stroke-opacity:1;stroke-dasharray:none;stroke-dashoffset:0;marker:none;visibility:visible;display:inline;overflow:visible" />
    <path
       d="m 35.375,22.125 a 1.875,1.875 0 1 1 -3.75,0 1.875,1.875 0 1 1 3.75,0 z"
       transform="matrix(2.066667,0,0,1.266667,-43.98333,9.475)"
       id="path2260"
       style="color:#000000;fill:#424242;fill-opacity:1;fill-rule:evenodd;stroke:none;stroke-width:2;marker:none;visibility:visible;display:inline;overflow:visible" />
    <path
       d="m 20.25,31.375 c 0,0 0.735875,3.40224 3,3.125 6.125,-0.75 5.471362,-0.489507 9.875,0.875 4.4375,1.375 2.09375,3.59375 6.625,4 4.53125,0.40625 4.125,-3.625 8,-3.875"
       id="path2250"
       style="color:#000000;fill:none;stroke:url(#linearGradient2258);stroke-width:1;stroke-linecap:butt;stroke-linejoin:miter;stroke-miterlimit:4;stroke-opacity:1;stroke-dasharray:none;stroke-dashoffset:0;marker:none;visibility:visible;display:inline;overflow:visible" />
    <rect
       width="22.136791"
       height="30.692028"
       rx="6.6936979"
       ry="6.6936979"
       x="16.028919"
       y="-4.0142608"
       transform="matrix(0.970732,0.240164,-0.264014,0.964519,0,0)"
       id="rect1343"
       style="color:#000000;fill:url(#radialGradient2351);fill-opacity:1;fill-rule:evenodd;stroke:#7c7c7c;stroke-width:1.00015199;stroke-linecap:butt;stroke-linejoin:miter;stroke-miterlimit:4;stroke-opacity:1;stroke-dasharray:none;stroke-dashoffset:0;marker:none;visibility:visible;display:inline;overflow:visible" />
    <rect
       width="19.862064"
       height="28.524395"
       rx="5.4198565"
       ry="5.4198565"
       x="17.210075"
       y="-3.006144"
       transform="matrix(0.970732,0.240164,-0.264014,0.964519,0,0)"
       id="rect2353"
       style="opacity:0.30681817;color:#000000;fill:none;stroke:#ffffff;stroke-width:1.00015211;stroke-linecap:butt;stroke-linejoin:miter;stroke-miterlimit:4;stroke-opacity:1;stroke-dasharray:none;stroke-dashoffset:0;marker:none;visibility:visible;display:inline;overflow:visible" />
    <path
       d="M 20.09375,1.96875 C 17.872662,2.3212044 15.943233,4.0082576 15.3125,6.3125 l -4.84375,17.84375 c 2.856946,1.404105 6.63761,0.46875 10.21875,0.46875 0.490008,0 0.988068,-0.0015 1.46875,-0.03125 -0.935141,-0.227563 -2.3125,-0.5625 -2.3125,-0.5625 -0.219863,-0.05954 -0.421184,-0.135194 -0.5625,-0.25 -0.0047,-0.0041 -0.02666,-0.02708 -0.03125,-0.03125 -0.01333,-0.01284 -0.04694,-0.04627 -0.0625,-0.0625 -0.0057,-0.0055 -0.02564,-0.02568 -0.03125,-0.03125 -0.0082,-0.01586 -0.02495,-0.05009 -0.03125,-0.0625 -0.0097,-0.02434 -0.02473,-0.07193 -0.03125,-0.09375 1.96e-4,-0.0031 -6.1e-5,-0.02851 0,-0.03125 -0.0058,-0.01078 -0.02563,-0.05156 -0.03125,-0.0625 7.1e-5,-0.0061 4.7e-5,-0.02725 0,-0.03125 2.3e-4,-0.01787 -3.3e-5,-0.05098 0,-0.0625 -1.06e-4,-0.006 -3.17e-4,-0.02762 0,-0.03125 -1.09e-4,-0.0032 1.1e-5,-0.02848 0,-0.03125 0.0081,-0.03623 0.02466,-0.09348 0.03125,-0.125 0.0053,-0.01027 0.0254,-0.05125 0.03125,-0.0625 1e-6,-0.0029 2.63e-4,-0.02817 0,-0.03125 0.0076,-0.02457 0.02232,-0.07148 0.03125,-0.09375 0.0081,-0.01646 0.02615,-0.05247 0.03125,-0.0625 0.02476,-0.04515 0.06326,-0.117676 0.09375,-0.15625 0.0064,-0.0065 0.02699,-0.02699 0.03125,-0.03125 0.01125,-0.0055 0.05222,-0.02625 0.0625,-0.03125 0.02856,-0.01715 0.08934,-0.0477 0.125,-0.0625 0.01088,1.54e-4 0.05152,-3.15e-4 0.0625,0 -1.81e-4,-0.0017 -5.4e-5,-0.02423 0,-0.03125 0.007,-5.8e-5 0.02948,-2.06e-4 0.03125,0 0.174833,-0.03267 0.396484,-0.0068 0.625,0.03125 l 5.9375,1.375 c 1.190295,-0.291143 2.327227,-0.690228 3.40625,-1.15625 -0.152403,-0.08613 -0.317465,-0.140846 -0.46875,-0.1875 -0.03737,-0.01082 -0.08789,-0.02344 -0.125,-0.03125 0,0 -8.21875,-2 -8.21875,-2 -0.219863,-0.05954 -0.444213,-0.135194 -0.59375,-0.25 -0.005,-0.0041 -0.0264,-0.02708 -0.03125,-0.03125 -0.0045,-0.0044 -0.0269,-0.02674 -0.03125,-0.03125 -0.0042,-0.0046 -0.02726,-0.02651 -0.03125,-0.03125 -0.0054,-0.01063 -0.02627,-0.05159 -0.03125,-0.0625 -0.0057,-0.0055 -0.0256,-0.02571 -0.03125,-0.03125 3.13e-4,-0.0032 -9.2e-5,-0.02849 0,-0.03125 -0.0057,-0.01088 -0.02575,-0.05147 -0.03125,-0.0625 1.71e-4,-0.0031 -5.8e-5,-0.02851 0,-0.03125 -3.1e-5,-0.01078 -2.19e-4,-0.05156 0,-0.0625 -7.29e-4,-0.02153 -0.0017,-0.0707 0,-0.09375 4.2e-5,-0.0035 1.39e-4,-0.02729 0,-0.03125 -7.08e-4,-0.01301 -8.47e-4,-0.05144 0,-0.0625 -1.44e-4,-0.0034 2.2e-5,-0.02842 0,-0.03125 0.0057,-0.01115 0.02592,-0.05212 0.03125,-0.0625 0.0088,-0.02783 0.02164,-0.06835 0.03125,-0.09375 0.0053,-0.01064 0.02572,-0.05177 0.03125,-0.0625 0.01712,-0.03633 0.04438,-0.09357 0.0625,-0.125 0.01442,-0.02096 0.04488,-0.07032 0.0625,-0.09375 0.0046,-0.0049 0.02658,-0.02659 0.03125,-0.03125 0.0064,-0.0065 0.02699,-0.02699 0.03125,-0.03125 0.01129,-0.0055 0.05225,-0.02625 0.0625,-0.03125 0.01589,-0.0083 0.04993,-0.02514 0.0625,-0.03125 0.0085,-0.0038 0.04594,-0.02303 0.0625,-0.03125 0.0032,2.44e-4 0.0285,-7.1e-5 0.03125,0 0.0043,-0.0042 0.02473,-0.02481 0.03125,-0.03125 0.0028,5.8e-5 0.028,-1.65e-4 0.03125,0 0.0072,-0.007 0.02992,-0.0295 0.03125,-0.03125 0.0033,1.6e-4 0.02847,-5.8e-5 0.03125,0 0.0064,1.24e-4 0.02825,1.21e-4 0.03125,0 0.144148,-0.0058 0.322022,0.03284 0.5,0.0625 l 8.3125,1.9375 c 0.619385,0.172852 1.187319,0.608795 1.625,1.03125 0.513762,-0.273253 0.991279,-0.594876 1.46875,-0.90625 -0.145645,-0.194998 -1.330445,-1.699487 -2.40625,-2.03125 -0.03737,-0.01082 -0.08789,-0.02344 -0.125,-0.03125 0,0 -8.21875,-2 -8.21875,-2 -0.219863,-0.05954 -0.444213,-0.135194 -0.59375,-0.25 -0.005,-0.0041 -0.0264,-0.02708 -0.03125,-0.03125 -0.0045,-0.0044 -0.0269,-0.02674 -0.03125,-0.03125 -0.0042,-0.0046 -0.02726,-0.02651 -0.03125,-0.03125 -0.0054,-0.01063 -0.02627,-0.05159 -0.03125,-0.0625 -0.0057,-0.0055 -0.0256,-0.02571 -0.03125,-0.03125 3.13e-4,-0.0032 -9.2e-5,-0.02849 0,-0.03125 -0.0057,-0.01088 -0.02575,-0.05147 -0.03125,-0.0625 1.71e-4,-0.0031 -5.8e-5,-0.02851 0,-0.03125 -3.1e-5,-0.01078 -2.19e-4,-0.05156 0,-0.0625 -7.29e-4,-0.02153 -0.0017,-0.0707 0,-0.09375 4.2e-5,-0.0035 1.39e-4,-0.02729 0,-0.03125 -7.08e-4,-0.01301 -8.47e-4,-0.05144 0,-0.0625 -1.44e-4,-0.0034 2.2e-5,-0.02842 0,-0.03125 0.0057,-0.01115 0.02592,-0.05212 0.03125,-0.0625 0.0088,-0.02783 0.02164,-0.06835 0.03125,-0.09375 0.0053,-0.01064 0.02572,-0.05177 0.03125,-0.0625 0.01712,-0.03633 0.04438,-0.09357 0.0625,-0.125 0.01442,-0.02096 0.04488,-0.07032 0.0625,-0.09375 0.0046,-0.0049 0.02658,-0.02659 0.03125,-0.03125 0.0064,-0.0065 0.02699,-0.02699 0.03125,-0.03125 0.01129,-0.0055 0.05225,-0.02625 0.0625,-0.03125 0.01589,-0.0083 0.04993,-0.02514 0.0625,-0.03125 0.0055,-0.0057 0.02574,-0.02557 0.03125,-0.03125 0.01093,1.72e-4 0.05148,-3.36e-4 0.0625,0 0.0043,-0.0042 0.02473,-0.02481 0.03125,-0.03125 0.0028,5.8e-5 0.028,-1.64e-4 0.03125,0 0.0072,-0.007 0.02992,-0.0295 0.03125,-0.03125 0.0033,1.6e-4 0.02847,-5.8e-5 0.03125,0 0.0064,1.24e-4 0.02825,1.2e-4 0.03125,0 0.144148,-0.0058 0.322022,0.03284 0.5,0.0625 l 8.3125,1.9375 c 1.34375,0.375 2.46875,2 2.46875,2 l -0.40625,1.5625 c 0.184167,-0.120101 0.38407,-0.218251 0.5625,-0.34375 L 35.6875,11.34375 C 36.528911,8.2698323 34.727126,5.1972501 31.65625,4.4375 L 22.375,2.125 C 21.77522,1.9766113 21.181753,1.9275559 20.59375,1.96875 c -0.0035,2.486e-4 -0.02517,7.82e-5 -0.03125,0 -0.0129,-2.549e-4 -0.05005,6.017e-4 -0.0625,0 -0.0063,-2.183e-4 -0.02482,2.3e-5 -0.03125,0 -0.003,-6.2e-5 -0.02464,2.87e-5 -0.03125,0 -0.03001,8.403e-4 -0.09506,-0.00124 -0.125,0 -0.0093,3.783e-4 -0.0463,2.411e-4 -0.0625,0 -0.0038,-5.14e-5 -0.02715,-2.325e-4 -0.03125,0 -0.01062,-1.801e-4 -0.05189,1.383e-4 -0.0625,0 -0.01063,-1.889e-4 -0.05188,1.477e-4 -0.0625,0 z m -4.5,5.21875 L 20.5,8.15625 c 0.19043,0.058594 0.39146,0.1451941 0.53125,0.28125 0.0045,0.00465 0.02686,0.026489 0.03125,0.03125 0.0043,0.00488 0.02714,0.026257 0.03125,0.03125 0.0053,0.010589 0.02627,0.051637 0.03125,0.0625 0.0057,0.00549 0.02561,0.025729 0.03125,0.03125 0.01009,0.024615 0.02353,0.071387 0.03125,0.09375 0.0088,0.028553 0.02484,0.089561 0.03125,0.125 -7.8e-5,0.00612 -5.2e-5,0.027254 0,0.03125 -2.51e-4,0.017731 3.8e-5,0.050749 0,0.0625 3.54e-4,0.028361 0.002,0.095219 0,0.125 1.43e-4,0.00343 -1.7e-5,0.028422 0,0.03125 -0.0057,0.011111 -0.02578,0.051666 -0.03125,0.0625 -0.0072,0.027506 -0.02266,0.068485 -0.03125,0.09375 2.84e-4,0.00308 -3.4e-5,0.028369 0,0.03125 -0.0057,0.011482 -0.02584,0.052411 -0.03125,0.0625 -0.0071,0.014453 -0.0236,0.048969 -0.03125,0.0625 -0.0056,0.00549 -0.02563,0.02582 -0.03125,0.03125 -0.0053,0.011093 -0.02587,0.051625 -0.03125,0.0625 -0.0045,0.00544 -0.0266,0.02602 -0.03125,0.03125 -0.0048,0.00502 -0.02639,0.026436 -0.03125,0.03125 -0.005,0.00461 -0.02618,0.026843 -0.03125,0.03125 -0.01062,0.00534 -0.05167,0.026344 -0.0625,0.03125 -0.0055,0.00567 -0.02573,0.025623 -0.03125,0.03125 -0.02107,0.00872 -0.07201,0.024139 -0.09375,0.03125 -0.02423,0.0087 -0.06855,0.025216 -0.09375,0.03125 -0.165238,0.035054 -0.353516,0.019531 -0.53125,-0.03125 L 15.1875,8.59375 15.59375,7.1875 z m 7.8125,1.59375 c 0.0033,1.604e-4 0.02847,-5.78e-5 0.03125,0 0.0064,1.235e-4 0.02825,1.207e-4 0.03125,0 0.144148,-0.0058 0.322022,0.032837 0.5,0.0625 l 8.3125,1.9375 c 1.34375,0.375 2.21875,1.75 2.21875,1.75 l -0.34375,1.53125 c -0.145645,-0.194998 -1.142945,-1.418237 -2.21875,-1.75 -0.03737,-0.01082 -0.08789,-0.02344 -0.125,-0.03125 0,0 -8.21875,-2 -8.21875,-2 -0.219863,-0.05954 -0.444213,-0.135194 -0.59375,-0.25 -0.005,-0.0041 -0.0264,-0.02708 -0.03125,-0.03125 -0.0045,-0.00439 -0.0269,-0.026743 -0.03125,-0.03125 -0.0042,-0.00462 -0.02726,-0.026506 -0.03125,-0.03125 -0.0054,-0.010627 -0.02627,-0.051586 -0.03125,-0.0625 -0.0057,-0.0055 -0.0256,-0.025714 -0.03125,-0.03125 3.13e-4,-0.00319 -9.2e-5,-0.028491 0,-0.03125 -0.0057,-0.010884 -0.02575,-0.051469 -0.03125,-0.0625 1.71e-4,-0.0031 -5.8e-5,-0.028513 0,-0.03125 -3.1e-5,-0.010782 -2.19e-4,-0.051558 0,-0.0625 -7.29e-4,-0.02153 -0.0017,-0.0707 0,-0.09375 4.2e-5,-0.00354 1.39e-4,-0.027287 0,-0.03125 -7.08e-4,-0.013007 -8.47e-4,-0.05144 0,-0.0625 -1.44e-4,-0.00343 2.2e-5,-0.02842 0,-0.03125 0.0057,-0.011149 0.02592,-0.052118 0.03125,-0.0625 0.0088,-0.027832 0.02164,-0.068345 0.03125,-0.09375 0.0053,-0.010637 0.02572,-0.051774 0.03125,-0.0625 0.01712,-0.036329 0.04438,-0.093567 0.0625,-0.125 0.01442,-0.020961 0.04488,-0.07032 0.0625,-0.09375 0.0046,-0.00487 0.02658,-0.026589 0.03125,-0.03125 0.0064,-0.00649 0.02699,-0.026987 0.03125,-0.03125 0.01129,-0.00551 0.05225,-0.02625 0.0625,-0.03125 0.01589,-0.00826 0.04993,-0.025139 0.0625,-0.03125 0.0055,-0.00573 0.02574,-0.025566 0.03125,-0.03125 0.01093,1.718e-4 0.05148,-3.363e-4 0.0625,0 0.0043,-0.00424 0.02473,-0.02481 0.03125,-0.03125 0.0028,5.8e-5 0.028,-1.645e-4 0.03125,0 0.0072,-0.00702 0.02992,-0.029497 0.03125,-0.03125 z m -8.71875,1.78125 4.90625,0.96875 c 0.19043,0.05859 0.39146,0.145194 0.53125,0.28125 0.0045,0.0046 0.02686,0.02649 0.03125,0.03125 0.0043,0.0049 0.02714,0.02626 0.03125,0.03125 0.0053,0.01059 0.02627,0.05164 0.03125,0.0625 0.0057,0.0055 0.02561,0.02573 0.03125,0.03125 -1.8e-4,0.0016 -5.8e-5,0.02418 0,0.03125 0.0057,0.01087 0.02579,0.0515 0.03125,0.0625 0.007,0.02284 0.02449,0.06687 0.03125,0.09375 1.73e-4,0.0035 -3.9e-5,0.02725 0,0.03125 -4.29e-4,0.01784 -3.29e-4,0.05098 0,0.0625 -7.6e-5,0.0235 0.0024,0.06885 0,0.09375 -0.0053,0.04229 -0.01904,0.109863 -0.03125,0.15625 8.7e-5,0.0027 -3.11e-4,0.02847 0,0.03125 -0.01271,0.03004 -0.0485,0.09715 -0.0625,0.125 -0.0069,0.01492 -0.02386,0.04851 -0.03125,0.0625 -0.0053,0.01101 -0.02582,0.05171 -0.03125,0.0625 -0.0056,0.0055 -0.02564,0.02579 -0.03125,0.03125 -0.03543,0.04525 -0.08293,0.09292 -0.125,0.125 -0.0055,0.0057 -0.02572,0.02565 -0.03125,0.03125 -0.01585,0.0082 -0.04952,0.02477 -0.0625,0.03125 -0.0088,0.004 -0.04598,0.02307 -0.0625,0.03125 -0.0031,-2.61e-4 -0.02851,7.6e-5 -0.03125,0 -0.01091,0.0057 -0.05153,0.02568 -0.0625,0.03125 -0.165238,0.03505 -0.353516,0.01953 -0.53125,-0.03125 l -4.9375,-1.0625 0.40625,-1.40625 z M 22.5,12.21875 c 0.0033,1.6e-4 0.02847,-5.8e-5 0.03125,0 0.0064,1.24e-4 0.02825,1.21e-4 0.03125,0 0.144148,-0.0058 0.322022,0.03284 0.5,0.0625 l 8.3125,1.9375 c 1.34375,0.375 2.09375,1.65625 2.09375,1.65625 l -0.3125,1.4375 c -0.145645,-0.194998 -1.049195,-1.230737 -2.125,-1.5625 -0.03737,-0.01082 -0.08789,-0.02344 -0.125,-0.03125 0,0 -8.21875,-2 -8.21875,-2 -0.219863,-0.05954 -0.444213,-0.135194 -0.59375,-0.25 -0.005,-0.0041 -0.0264,-0.02708 -0.03125,-0.03125 -0.0045,-0.0044 -0.0269,-0.02674 -0.03125,-0.03125 -0.0042,-0.0046 -0.02726,-0.02651 -0.03125,-0.03125 -0.0054,-0.01063 -0.02627,-0.05159 -0.03125,-0.0625 -0.0057,-0.0055 -0.0256,-0.02571 -0.03125,-0.03125 3.13e-4,-0.0032 -9.2e-5,-0.02849 0,-0.03125 -0.0057,-0.01088 -0.02575,-0.05147 -0.03125,-0.0625 1.71e-4,-0.0031 -5.8e-5,-0.02851 0,-0.03125 -3.1e-5,-0.01078 -2.19e-4,-0.05156 0,-0.0625 -7.29e-4,-0.02153 -0.0017,-0.0707 0,-0.09375 4.2e-5,-0.0035 1.39e-4,-0.02729 0,-0.03125 -7.08e-4,-0.01301 -8.47e-4,-0.05144 0,-0.0625 -1.44e-4,-0.0034 2.2e-5,-0.02842 0,-0.03125 0.0057,-0.01115 0.02592,-0.05212 0.03125,-0.0625 0.0088,-0.02783 0.02164,-0.06835 0.03125,-0.09375 0.0053,-0.01064 0.02572,-0.05177 0.03125,-0.0625 0.01712,-0.03633 0.04438,-0.09357 0.0625,-0.125 0.01442,-0.02096 0.04488,-0.07032 0.0625,-0.09375 0.0046,-0.0049 0.02658,-0.02659 0.03125,-0.03125 0.0064,-0.0065 0.02699,-0.02699 0.03125,-0.03125 0.01129,-0.0055 0.05225,-0.02625 0.0625,-0.03125 0.01589,-0.0083 0.04993,-0.02514 0.0625,-0.03125 0.0085,-0.0038 0.04594,-0.02303 0.0625,-0.03125 0.0032,2.44e-4 0.0285,-7.1e-5 0.03125,0 0.0043,-0.0042 0.02473,-0.02481 0.03125,-0.03125 0.0028,5.8e-5 0.028,-1.64e-4 0.03125,0 0.0072,-0.007 0.02992,-0.0295 0.03125,-0.03125 z m -8.75,1.71875 4.90625,1 c 0.138855,0.04272 0.284631,0.109547 0.40625,0.1875 0.01105,0.0053 0.05157,0.02585 0.0625,0.03125 0.0055,0.0056 0.02575,0.02565 0.03125,0.03125 0.0053,0.0047 0.02608,0.02642 0.03125,0.03125 0.01317,0.01305 0.04669,0.04631 0.0625,0.0625 0.0056,0.0055 0.02564,0.02571 0.03125,0.03125 -1.8e-4,0.0034 5.6e-5,0.0284 0,0.03125 0.0055,0.01105 0.02569,0.0521 0.03125,0.0625 0.0057,0.0055 0.02557,0.02576 0.03125,0.03125 0.01103,0.03195 0.0255,0.08954 0.03125,0.125 3e-5,0.01072 2.03e-4,0.05163 0,0.0625 6.58e-4,0.02305 0.0016,0.06932 0,0.09375 8.4e-5,0.0032 1e-6,0.02845 0,0.03125 -0.0078,0.03657 -0.02418,0.09511 -0.03125,0.125 2.3e-4,0.0031 -2.6e-5,0.02849 0,0.03125 -0.01419,0.03152 -0.04866,0.09624 -0.0625,0.125 -0.0081,0.01632 -0.02599,0.05161 -0.03125,0.0625 -0.0054,0.01056 -0.0231,0.04639 -0.03125,0.0625 -0.0051,0.01106 -0.02609,0.05225 -0.03125,0.0625 -0.02526,0.02949 -0.06715,0.07061 -0.09375,0.09375 -0.0055,0.0056 -0.0257,0.02567 -0.03125,0.03125 -0.0055,0.0057 -0.02572,0.02565 -0.03125,0.03125 -0.01585,0.0082 -0.04952,0.02477 -0.0625,0.03125 -0.0088,0.004 -0.04598,0.02307 -0.0625,0.03125 -0.0031,-2.61e-4 -0.02851,7.6e-5 -0.03125,0 -0.179334,0.05325 -0.395508,0.05664 -0.59375,0 l -4.9375,-1.125 0.40625,-1.375 z m -0.875,3.34375 4.90625,1.0625 c 0.222168,0.06836 0.455112,0.196095 0.59375,0.375 0.0056,0.0055 0.02564,0.02571 0.03125,0.03125 0.0082,0.01577 0.02458,0.04932 0.03125,0.0625 0.0099,0.02477 0.02423,0.07091 0.03125,0.09375 0.0058,0.0108 0.0257,0.05156 0.03125,0.0625 -1e-6,0.01074 2.29e-4,0.05161 0,0.0625 -5.9e-5,0.0061 -6.4e-5,0.02726 0,0.03125 -6.9e-5,0.01762 4.12e-4,0.05052 0,0.0625 7.1e-5,0.0032 1.2e-5,0.02844 0,0.03125 1.61e-4,0.0031 -2.4e-5,0.02851 0,0.03125 -0.0035,0.01181 -0.02642,0.04968 -0.03125,0.0625 -0.0013,0.0038 0.001,0.02788 0,0.03125 2.87e-4,0.0028 -5.4e-5,0.0286 0,0.03125 -0.0084,0.03209 -0.02122,0.09194 -0.03125,0.125 -0.03151,0.07936 -0.08071,0.162183 -0.125,0.21875 -0.0045,0.0054 -0.0266,0.02602 -0.03125,0.03125 -0.0048,0.005 -0.02639,0.02644 -0.03125,0.03125 -0.005,0.0046 -0.02618,0.02684 -0.03125,0.03125 -0.0055,0.0056 -0.0257,0.02567 -0.03125,0.03125 -0.01059,0.0054 -0.05171,0.02627 -0.0625,0.03125 -0.0055,0.0057 -0.02574,0.0256 -0.03125,0.03125 -0.02478,0.0097 -0.07232,0.02424 -0.09375,0.03125 -0.01091,-1.27e-4 -0.05153,2.91e-4 -0.0625,0 -0.165238,0.03505 -0.353516,0.01953 -0.53125,-0.03125 L 12.46875,18.6875 12.875,17.28125 z m -0.96875,3.375 4.90625,1.0625 c 0.19043,0.05859 0.39146,0.145194 0.53125,0.28125 0.0045,0.0046 0.02686,0.02649 0.03125,0.03125 0.0043,0.0049 0.02714,0.02626 0.03125,0.03125 0.0053,0.01059 0.02627,0.05164 0.03125,0.0625 0.0057,0.0055 0.02561,0.02573 0.03125,0.03125 0.01009,0.02462 0.02353,0.07139 0.03125,0.09375 0.0088,0.02855 0.02484,0.08956 0.03125,0.125 5.21e-4,0.0055 -1.04e-4,0.02326 0,0.03125 -2.51e-4,0.01773 3.8e-5,0.05075 0,0.0625 3.54e-4,0.02836 0.002,0.09522 0,0.125 -9.95e-4,0.0037 0.0013,0.02733 0,0.03125 -0.0047,0.0125 -0.02755,0.05111 -0.03125,0.0625 -0.0072,0.02751 -0.02266,0.06848 -0.03125,0.09375 -0.0079,0.02147 -0.02195,0.06946 -0.03125,0.09375 -0.0071,0.01445 -0.0236,0.04897 -0.03125,0.0625 -0.0056,0.0055 -0.02563,0.02582 -0.03125,0.03125 -0.0053,0.01109 -0.02587,0.05163 -0.03125,0.0625 -0.0045,0.0054 -0.0266,0.02602 -0.03125,0.03125 -0.0048,0.005 -0.02639,0.02644 -0.03125,0.03125 -0.005,0.0046 -0.02618,0.02684 -0.03125,0.03125 -0.01062,0.0053 -0.05167,0.02634 -0.0625,0.03125 -0.0055,0.0057 -0.02573,0.02562 -0.03125,0.03125 -0.02107,0.0087 -0.07201,0.02414 -0.09375,0.03125 -0.02423,0.0087 -0.06855,0.02522 -0.09375,0.03125 -0.165238,0.03505 -0.353516,0.01953 -0.53125,-0.03125 L 11.5,22.0625 11.90625,20.65625 z"
       id="rect2302"
       style="opacity:0.44318183;color:#000000;fill:url(#radialGradient2343);fill-opacity:1;fill-rule:evenodd;stroke:none;stroke-width:1.00015175;marker:none;visibility:visible;display:inline;overflow:visible" />
    <path
       d="m 22.28125,15.84375 8.3125,1.9375 c 1.34375,0.375 2.46875,2 2.46875,2 L 32.65625,21.375 c 0,0 -1.34375,-1.84375 -2.53125,-2.09375 0,0 -8.21875,-2 -8.21875,-2 -0.485214,-0.131407 -0.934884,-0.320784 -0.75,-0.90625 0.1875,-0.59375 0.5625,-0.625 1.125,-0.53125 z"
       id="path2284"
       style="color:#000000;fill:url(#linearGradient2365);fill-opacity:1;fill-rule:evenodd;stroke:none;stroke-width:1;marker:none;visibility:visible;display:inline;overflow:visible" />
    <path
       d="m 31.5,19 -0.125,15.375 0,0.03125 0,0.03125 c 0.0877,1.40324 -1.095769,2.637096 -2.25,2.40625 L 18.65625,34.6875 c -0.46875,-0.125 -1.71875,-0.625 -1.3125,-2.0625 l -1.9375,-0.5 c -0.678757,2.436693 1.25,4.15625 2.6875,4.46875 L 28.75,38.78125 c 2.574613,0.514923 4.747942,-1.833968 4.625,-4.40625 -0.001,-0.02114 0.0013,-0.04134 0,-0.0625 L 33.5,19 l -2,0 z"
       id="path1345"
       style="color:#000000;fill:#747474;fill-opacity:1;fill-rule:evenodd;stroke:#424242;stroke-width:1;stroke-linecap:butt;stroke-linejoin:miter;stroke-miterlimit:4;stroke-opacity:1;stroke-dasharray:none;stroke-dashoffset:0;marker:none;visibility:visible;display:inline;overflow:visible" />
    <path
       d="m 21.25,19.28125 8.3125,1.9375 c 1.34375,0.375 2.46875,2 2.46875,2 L 31.625,24.8125 c 0,0 -1.34375,-1.84375 -2.53125,-2.09375 0,0 -8.21875,-2 -8.21875,-2 -0.485214,-0.131407 -0.934884,-0.320784 -0.75,-0.90625 0.1875,-0.59375 0.5625,-0.625 1.125,-0.53125 z"
       id="path2286"
       style="color:#000000;fill:url(#linearGradient2367);fill-opacity:1;fill-rule:evenodd;stroke:none;stroke-width:1;marker:none;visibility:visible;display:inline;overflow:visible" />
    <path
       d="m 24.09375,8.9687499 8.3125,1.9375001 c 1.34375,0.375 2.0625,1.5 2.0625,1.5 L 34.0625,14 c 0,0 -0.9375,-1.34375 -2.125,-1.59375 0,0 -8.21875,-2 -8.21875,-2 -0.485214,-0.131407 -0.934884,-0.320784 -0.75,-0.9062501 0.1875,-0.59375 0.5625,-0.625 1.125,-0.53125 z"
       id="path2280"
       style="color:#000000;fill:url(#linearGradient2361);fill-opacity:1;fill-rule:evenodd;stroke:none;stroke-width:1;marker:none;visibility:visible;display:inline;overflow:visible" />
    <path
       d="m 23.1875,12.40625 8.3125,1.9375 c 1.34375,0.375 2.0625,1.5625 2.0625,1.5625 l -0.4375,1.5 c 0,0 -0.90625,-1.3125 -2.09375,-1.5625 0,0 -8.21875,-2 -8.21875,-2 -0.485214,-0.131407 -0.934884,-0.320784 -0.75,-0.90625 0.1875,-0.59375 0.5625,-0.625 1.125,-0.53125 z"
       id="path2282"
       style="color:#000000;fill:url(#linearGradient2363);fill-opacity:1;fill-rule:evenodd;stroke:none;stroke-width:1;marker:none;visibility:visible;display:inline;overflow:visible" />
    <path
       d="m 35.375,22.125 a 1.875,1.875 0 1 1 -3.75,0 1.875,1.875 0 1 1 3.75,0 z"
       transform="matrix(1.266667,0,0,1.266667,-10.30833,-8.15)"
       id="path2220"
       style="color:#000000;fill:url(#radialGradient2413);fill-opacity:1;fill-rule:evenodd;stroke:#424242;stroke-width:0.78947347;stroke-linecap:butt;stroke-linejoin:miter;stroke-miterlimit:4;stroke-opacity:1;stroke-dasharray:none;stroke-dashoffset:0;marker:none;visibility:visible;display:inline;overflow:visible" />
    <path
       d="m 20.34375,22.71875 8.3125,1.9375 c 1.34375,0.375 2.46875,2 2.46875,2 L 30.71875,28.25 c 0,0 -1.34375,-1.84375 -2.53125,-2.09375 0,0 -8.21875,-2 -8.21875,-2 -0.485214,-0.131407 -0.872384,-0.320784 -0.75,-0.90625 0.123851,-0.592482 0.5625,-0.625 1.125,-0.53125 z"
       id="path2288"
       style="color:#000000;fill:url(#linearGradient2369);fill-opacity:1;fill-rule:evenodd;stroke:none;stroke-width:1;marker:none;visibility:visible;display:inline;overflow:visible" />
    <path
       d="m 16.5625,23.34375 -4.9375,-1.15625 0.40625,-1.40625 4.90625,1.0625 c 0.40625,0.125 0.84375,0.375 0.6875,0.96875 -0.154418,0.586787 -0.625,0.65625 -1.0625,0.53125 z"
       id="path2292"
       style="color:#000000;fill:url(#linearGradient2377);fill-opacity:1;fill-rule:evenodd;stroke:none;stroke-width:1;marker:none;visibility:visible;display:inline;overflow:visible" />
    <path
       d="m 17.53125,19.976562 -4.9375,-1.15625 0.40625,-1.40625 4.90625,1.0625 c 0.40625,0.125 0.84375,0.375 0.6875,0.96875 -0.154418,0.586788 -0.625,0.65625 -1.0625,0.53125 z"
       id="path2294"
       style="color:#000000;fill:url(#linearGradient2379);fill-opacity:1;fill-rule:evenodd;stroke:none;stroke-width:1;marker:none;visibility:visible;display:inline;overflow:visible" />
    <path
       d="m 18.40625,16.546875 -4.9375,-1.09375 0.40625,-1.40625 4.90625,1 c 0.40625,0.125 0.84375,0.375 0.6875,0.96875 -0.154418,0.586787 -0.625,0.65625 -1.0625,0.53125 z"
       id="path2296"
       style="color:#000000;fill:url(#linearGradient2385);fill-opacity:1;fill-rule:evenodd;stroke:none;stroke-width:1;marker:none;visibility:visible;display:inline;overflow:visible" />
    <path
       d="m 19.34375,13.148438 -4.9375,-1.0625 0.40625,-1.40625 4.90625,0.96875 c 0.40625,0.125 0.84375,0.375 0.6875,0.96875 -0.154418,0.586786 -0.625,0.65625 -1.0625,0.53125 z"
       id="path2298"
       style="color:#000000;fill:url(#linearGradient2383);fill-opacity:1;fill-rule:evenodd;stroke:none;stroke-width:1;marker:none;visibility:visible;display:inline;overflow:visible" />
    <path
       d="M 20.25,9.78125 15.3125,8.71875 15.71875,7.3125 20.625,8.28125 c 0.40625,0.125 0.84375,0.375 0.6875,0.96875 -0.154418,0.586787 -0.625,0.65625 -1.0625,0.53125 z"
       id="path2300"
       style="color:#000000;fill:url(#linearGradient2381);fill-opacity:1;fill-rule:evenodd;stroke:none;stroke-width:1;marker:none;visibility:visible;display:inline;overflow:visible" />
    <path
       d="m 27.625,46.375 a 11.1875,5.875 0 1 1 -22.375,0 11.1875,5.875 0 1 1 22.375,0 z"
       transform="matrix(0.916296,0,0,0.807726,10.12589,1.916708)"
       id="path2389"
       style="opacity:0.29545456;color:#000000;fill:none;stroke:url(#linearGradient2405);stroke-width:1.16238523;stroke-linecap:butt;stroke-linejoin:miter;stroke-miterlimit:4;stroke-opacity:1;stroke-dasharray:none;stroke-dashoffset:0;marker:none;visibility:visible;display:inline;overflow:visible" />
  </g>
</svg>
