<?xml version="1.0" encoding="UTF-8" standalone="no"?>
<!-- Created with Inkscape (http://www.inkscape.org/) -->

<svg
   xmlns:svg="http://www.w3.org/2000/svg"
   xmlns="http://www.w3.org/2000/svg"
   xmlns:xlink="http://www.w3.org/1999/xlink"
   version="1.1"
   width="48"
   height="48"
   id="svg19135">
  <defs
     id="defs3">
    <linearGradient
       id="linearGradient2497">
      <stop
         id="stop2499"
         style="stop-color:#ffffff;stop-opacity:0.6082474"
         offset="0" />
      <stop
         id="stop2501"
         style="stop-color:#ffffff;stop-opacity:0"
         offset="1" />
    </linearGradient>
    <linearGradient
       id="linearGradient19474">
      <stop
         id="stop19476"
         style="stop-color:#ffffff;stop-opacity:1"
         offset="0" />
      <stop
         id="stop19478"
         style="stop-color:#939393;stop-opacity:1"
         offset="1" />
    </linearGradient>
    <linearGradient
       id="linearGradient19278">
      <stop
         id="stop19280"
         style="stop-color:#000000;stop-opacity:1"
         offset="0" />
      <stop
         id="stop19282"
         style="stop-color:#000000;stop-opacity:0"
         offset="1" />
    </linearGradient>
    <linearGradient
       id="linearGradient19270">
      <stop
         id="stop19272"
         style="stop-color:#aaaaaa;stop-opacity:1"
         offset="0" />
      <stop
         id="stop19274"
         style="stop-color:#505050;stop-opacity:1"
         offset="1" />
    </linearGradient>
    <linearGradient
       id="linearGradient19149">
      <stop
         id="stop19151"
         style="stop-color:#adadad;stop-opacity:1"
         offset="0" />
      <stop
         id="stop19153"
         style="stop-color:#747474;stop-opacity:1"
         offset="1" />
    </linearGradient>
    <radialGradient
       cx="16.331211"
       cy="34.833511"
       r="15.231354"
       fx="16.331211"
       fy="34.833511"
       id="radialGradient19155"
       xlink:href="#linearGradient19149"
       gradientUnits="userSpaceOnUse"
       gradientTransform="scale(1.347925,0.741881)" />
    <radialGradient
       cx="25.940556"
       cy="41.706387"
       r="26.594908"
       fx="25.940556"
       fy="41.706387"
       id="radialGradient19161"
       xlink:href="#linearGradient19149"
       gradientUnits="userSpaceOnUse"
       gradientTransform="scale(1.347925,0.741881)" />
    <linearGradient
       x1="6.8835502"
       y1="56.288612"
       x2="16.294504"
       y2="68.766663"
       id="linearGradient19175"
       xlink:href="#linearGradient19270"
       gradientUnits="userSpaceOnUse"
       gradientTransform="matrix(1.70088,0,0,0.587931,-1.374996,-7.214286)" />
    <linearGradient
       x1="5.1625452"
       y1="50.805511"
       x2="26.171595"
       y2="50.805477"
       id="linearGradient19243"
       xlink:href="#linearGradient19149"
       gradientUnits="userSpaceOnUse"
       gradientTransform="matrix(1.411264,0,0,0.708585,-1.517853,-6.857043)" />
    <radialGradient
       cx="17.579762"
       cy="47.402554"
       r="16.798437"
       fx="17.579762"
       fy="47.402554"
       id="radialGradient19284"
       xlink:href="#linearGradient19278"
       gradientUnits="userSpaceOnUse"
       gradientTransform="scale(1.357519,0.736638)" />
    <radialGradient
       cx="30.873167"
       cy="31.265368"
       r="3.2488604"
       fx="30.873167"
       fy="31.265368"
       id="radialGradient19480"
       xlink:href="#linearGradient19474"
       gradientUnits="userSpaceOnUse"
       gradientTransform="scale(1.287593,0.776643)" />
    <radialGradient
       cx="30.873167"
       cy="31.265368"
       r="3.2488604"
       fx="30.873167"
       fy="31.265368"
       id="radialGradient19488"
       xlink:href="#linearGradient19474"
       gradientUnits="userSpaceOnUse"
       gradientTransform="scale(1.287593,0.776643)" />
    <radialGradient
       cx="30.873167"
       cy="31.265368"
       r="3.2488604"
       fx="30.873167"
       fy="31.265368"
       id="radialGradient19494"
       xlink:href="#linearGradient19474"
       gradientUnits="userSpaceOnUse"
       gradientTransform="scale(1.287593,0.776643)" />
    <radialGradient
       cx="30.873167"
       cy="31.265368"
       r="3.2488604"
       fx="30.873167"
       fy="31.265368"
       id="radialGradient19496"
       xlink:href="#linearGradient19474"
       gradientUnits="userSpaceOnUse"
       gradientTransform="scale(1.287593,0.776643)" />
    <linearGradient
       x1="5.1625452"
       y1="50.805511"
       x2="26.171595"
       y2="50.805477"
       id="linearGradient2479"
       xlink:href="#linearGradient19149"
       gradientUnits="userSpaceOnUse"
       gradientTransform="matrix(1.411264,0,0,0.708585,-1.517853,-5.016059)" />
    <linearGradient
       x1="11.562314"
       y1="8.0809259"
       x2="30.75012"
       y2="53.658985"
       id="linearGradient2503"
       xlink:href="#linearGradient2497"
       gradientUnits="userSpaceOnUse"
       gradientTransform="matrix(1.072527,0,0,0.932378,0.5,0.75)" />
  </defs>
  <g
     id="layer1">
    <path
       d="m 24.0625,5.5839466 c -4.179355,0 -8.074575,0.8084374 -11.3125,2.15625 -0.658579,-0.3095335 -1.34941,-0.6249999 -2.21875,-0.625 -2.2244907,0 -4.0312501,1.1872471 -4.03125,2.65625 0,0.5168724 0.269623,0.9977834 0.65625,1.4062504 C 4.9340629,13.221121 3.625,16.032281 3.625,18.6875 c 0,2.011001 0.7980122,3.724223 2.125,5.416973 -1.300143,0.549948 -2.1875,1.467916 -2.1875,3.004442 0,1.707663 2.0703602,3.093751 4.65625,3.09375 0.3731121,0 0.7145145,-0.10174 1.0625,-0.15625 -0.1107184,0.370632 -0.21875,0.738935 -0.21875,1.125 -3e-7,0.69579 0,1.536444 0,2.232233 -3e-7,4.211767 6.830316,7.624999 15.21875,7.625 8.388435,1e-6 15.1875,-3.413234 15.1875,-7.625 0,-0.697482 0,-1.53475 0,-2.232233 0,-0.408322 -0.09569,-0.796571 -0.21875,-1.1875 0.528288,0.136458 1.086288,0.21875 1.6875,0.21875 2.585889,0 4.775888,-1.386087 4.775888,-3.09375 0,-1.848189 -1.360474,-2.871441 -3.119638,-3.316942 1.181349,-1.614638 1.875,-3.21399 1.875,-5.104473 0,-2.43811 -1.131701,-5.040088 -3.03125,-6.978553 0.759491,-0.484082 1.25,-1.185926 1.25,-1.9375004 0,-1.4690033 -1.806761,-2.6562498 -4.03125,-2.65625 -1.132461,0 -2.142685,0.315303 -2.875,0.8125 -3.324472,-1.464707 -7.345023,-2.3437501 -11.71875,-2.34375 z"
       id="path19447"
       style="color:#000000;fill:url(#linearGradient2479);fill-opacity:1;fill-rule:evenodd;stroke:#4c4c4c;stroke-width:2;stroke-linecap:butt;stroke-linejoin:miter;stroke-miterlimit:4;stroke-opacity:1;stroke-dashoffset:0;marker:none;visibility:visible;display:inline;overflow:visible" />
    <path
       d="m 46.669048,34.918526 a 22.804193,12.374369 0 1 1 -45.6083867,0 22.804193,12.374369 0 1 1 45.6083867,0 z"
       transform="translate(0.332106,-0.646447)"
       id="path19276"
       style="color:#000000;fill:url(#radialGradient19284);fill-opacity:1;fill-rule:evenodd;stroke:none;stroke-width:4;marker:none;visibility:visible;display:inline;overflow:visible" />
    <path
       d="m 24.294647,21.455457 c -8.388434,0 -15.2187501,3.413233 -15.2187501,7.625 0,0.695789 0,3.304211 0,4 0,4.211766 6.8303161,7.624999 15.2187501,7.625 8.388435,0 15.1875,-3.413234 15.1875,-7.625 0,-0.697483 0,-3.302517 0,-4 0,-4.211766 -6.799065,-7.625 -15.1875,-7.625 z"
       id="path19181"
       style="color:#000000;fill:url(#linearGradient19243);fill-opacity:1;fill-rule:evenodd;stroke:none;stroke-width:2;marker:none;visibility:visible;display:inline;overflow:visible" />
    <path
       d="m 39.142858,35.142857 a 14.285714,6 0 1 1 -28.571429,0 14.285714,6 0 1 1 28.571429,0 z"
       transform="translate(-0.483935,-6.734736)"
       id="path19268"
       style="color:#000000;fill:#ffffff;fill-opacity:0.5964912;fill-rule:evenodd;stroke:none;stroke-width:4;marker:none;visibility:visible;display:inline;overflow:visible" />
    <path
       d="m 39.142858,35.142857 a 14.285714,6 0 1 1 -28.571429,0 14.285714,6 0 1 1 28.571429,0 z"
       transform="translate(-0.660711,-6.9999)"
       id="path19218"
       style="color:#000000;fill:#afafaf;fill-opacity:1;fill-rule:evenodd;stroke:none;stroke-width:4;marker:none;visibility:visible;display:inline;overflow:visible" />
    <path
       d="m 43.482147,20.5 -5.714286,9.571428 C 31.910718,34.785714 18.33929,35.071429 10.910718,30.214286 L 5.1964325,21.357143 43.482147,20.5 z"
       id="path19173"
       style="color:#000000;fill:url(#linearGradient19175);fill-opacity:1;fill-rule:evenodd;stroke:none;stroke-width:2;marker:none;visibility:visible;display:inline;overflow:visible" />
    <path
       d="m 24.0625,6.3062181 c -11.276567,0 -20.4374999,5.7021429 -20.4375,12.7499979 0,2.011001 0.7980122,3.901 2.125,5.59375 -1.300143,0.549948 -2.1875,1.467916 -2.1875,2.5625 0,1.707663 2.0703602,3.093751 4.65625,3.09375 1.434223,0 2.671716,-0.453892 3.53125,-1.125 3.431878,1.632412 7.670156,2.65625 12.3125,2.65625 4.956638,0 9.429869,-1.162723 12.96875,-3 0.828827,0.871764 2.233564,1.46875 3.90625,1.46875 2.585889,0 4.6875,-1.386087 4.6875,-3.09375 0,-1.317859 -1.272086,-2.429499 -3.03125,-2.875 1.181349,-1.614638 1.875,-3.390767 1.875,-5.28125 0,-7.047854 -9.129684,-12.7499981 -20.40625,-12.7499979 z"
       id="path19500"
       style="color:#000000;fill:#737373;fill-opacity:1;fill-rule:evenodd;stroke:none;stroke-width:2.23437405;marker:none;visibility:visible;display:inline;overflow:visible" />
    <path
       d="m 47.729706,28.819729 a 4.6845822,3.0935922 0 1 1 -9.369164,0 4.6845822,3.0935922 0 1 1 9.369164,0 z"
       transform="translate(-34.81183,-2.226137)"
       id="path19441"
       style="color:#000000;fill:#cbcbcb;fill-opacity:1;fill-rule:evenodd;stroke:none;stroke-width:2.23437405;marker:none;visibility:visible;display:inline;overflow:visible" />
    <path
       d="m 47.729706,28.819729 a 4.6845822,3.0935922 0 1 1 -9.369164,0 4.6845822,3.0935922 0 1 1 9.369164,0 z"
       transform="matrix(0.860242,0,0,0.860242,-26.51038,-14.90547)"
       id="path19443"
       style="color:#000000;fill:#cbcbcb;fill-opacity:1;fill-rule:evenodd;stroke:none;stroke-width:2.23437405;marker:none;visibility:visible;display:inline;overflow:visible" />
    <path
       d="m 43.857143,23.714285 a 18.285715,11.428572 0 1 1 -36.5714298,0 18.285715,11.428572 0 1 1 36.5714298,0 z"
       transform="matrix(1.117187,0,0,1.117187,-4.514504,-8.045078)"
       id="path19163"
       style="color:#000000;fill:#cbcbcb;fill-opacity:1;fill-rule:evenodd;stroke:none;stroke-width:2;marker:none;visibility:visible;display:inline;overflow:visible" />
    <path
       d="m 47.729706,28.819729 a 4.6845822,3.0935922 0 1 1 -9.369164,0 4.6845822,3.0935922 0 1 1 9.369164,0 z"
       transform="translate(-2.104706,-2.226137)"
       id="path19439"
       style="color:#000000;fill:#cbcbcb;fill-opacity:1;fill-rule:evenodd;stroke:none;stroke-width:2.23437405;marker:none;visibility:visible;display:inline;overflow:visible" />
    <path
       d="m 47.729706,28.819729 a 4.6845822,3.0935922 0 1 1 -9.369164,0 4.6845822,3.0935922 0 1 1 9.369164,0 z"
       transform="matrix(0.860242,0,0,0.860242,1.625659,-14.90547)"
       id="path19445"
       style="color:#000000;fill:#cbcbcb;fill-opacity:1;fill-rule:evenodd;stroke:none;stroke-width:2.23437405;marker:none;visibility:visible;display:inline;overflow:visible" />
    <path
       d="m 43.857143,23.714285 a 18.285715,11.428572 0 1 1 -36.5714298,0 18.285715,11.428572 0 1 1 36.5714298,0 z"
       transform="translate(-1.517853,-5.266059)"
       id="path19145"
       style="color:#000000;fill:url(#radialGradient19161);fill-opacity:1;fill-rule:evenodd;stroke:none;stroke-width:2;marker:none;visibility:visible;display:inline;overflow:visible" />
    <path
       d="m 35.428571,28.071428 a 9.2142859,5.0714288 0 1 1 -18.428572,0 9.2142859,5.0714288 0 1 1 18.428572,0 z"
       transform="matrix(0.901236,0,0,1.02817,0.552644,-6.002357)"
       id="path19147"
       style="color:#000000;fill:url(#radialGradient19155);fill-opacity:1;fill-rule:evenodd;stroke:none;stroke-width:2;marker:none;visibility:visible;display:inline;overflow:visible" />
    <path
       d="m 38.839286,11.785714 c 11.546456,11.302037 -12.989478,25.213025 -30.5625002,12.34375 3.1588642,3.425594 9.0049492,5.75 15.7812502,5.75 10.093715,0 18.281249,-5.128929 18.28125,-11.4375 0,-2.498316 -1.321155,-4.774918 -3.5,-6.65625 z"
       id="path19245"
       style="color:#000000;fill:#ffffff;fill-opacity:0.85964912;fill-rule:evenodd;stroke:none;stroke-width:2;marker:none;visibility:visible;display:inline;overflow:visible" />
    <path
       d="m 43.398678,25.195807 a 2.7842331,1.6793786 0 1 1 -5.568466,0 2.7842331,1.6793786 0 1 1 5.568466,0 z"
       transform="matrix(0.795827,0,0,0.947763,9.518711,3.245336)"
       id="path19472"
       style="color:#000000;fill:url(#radialGradient19480);fill-opacity:1;fill-rule:evenodd;stroke:none;stroke-width:4;marker:none;visibility:visible;display:inline;overflow:visible" />
    <path
       d="m 43.398678,25.195807 a 2.7842331,1.6793786 0 1 1 -5.568466,0 2.7842331,1.6793786 0 1 1 5.568466,0 z"
       transform="matrix(0.795827,0,0,0.947763,-24.91284,3.245336)"
       id="path19486"
       style="color:#000000;fill:url(#radialGradient19488);fill-opacity:1;fill-rule:evenodd;stroke:none;stroke-width:4;marker:none;visibility:visible;display:inline;overflow:visible" />
    <path
       d="m 43.398678,25.195807 a 2.7842331,1.6793786 0 1 1 -5.568466,0 2.7842331,1.6793786 0 1 1 5.568466,0 z"
       transform="matrix(0.672594,0,0,0.801003,12.18531,-11.0271)"
       id="path19490"
       style="color:#000000;fill:url(#radialGradient19494);fill-opacity:1;fill-rule:evenodd;stroke:none;stroke-width:4;marker:none;visibility:visible;display:inline;overflow:visible" />
    <path
       d="m 43.398678,25.195807 a 2.7842331,1.6793786 0 1 1 -5.568466,0 2.7842331,1.6793786 0 1 1 5.568466,0 z"
       transform="matrix(0.672594,0,0,0.801003,-17.56469,-11.0271)"
       id="path19492"
       style="color:#000000;fill:url(#radialGradient19496);fill-opacity:1;fill-rule:evenodd;stroke:none;stroke-width:4;marker:none;visibility:visible;display:inline;overflow:visible" />
    <path
       d="m 24.083697,6.1675499 c -4.012598,0 -8.002397,0.9011805 -11.111128,2.1952151 C 12.340267,8.0655819 11.677,7.7627027 10.842347,7.7627026 c -2.1357327,0 -3.745402,1.0148757 -3.7454019,2.4252654 0,0.496248 0.383865,0.957971 0.7550655,1.35014 -2.1335213,1.961891 -3.7653522,4.321439 -3.7653522,6.870714 0,1.930761 1.1411713,4.245349 2.4152119,5.870558 -1.2482669,0.528005 -2.4752182,1.409345 -2.4752182,2.460255 0,1.639527 2.3627523,2.97031 4.8454645,2.970309 0.3582248,0 0.6860052,-0.09768 1.020106,-0.150016 -0.1063007,0.355844 -0.2100219,0.709452 -0.2100219,1.080113 -2e-7,0.668027 0,1.492993 0,2.16102 -2e-7,4.043716 6.5577843,7.320759 14.6115183,7.32076 8.053734,1e-6 14.581515,-3.277045 14.581515,-7.32076 0,-0.669653 0,-1.491367 0,-2.16102 0,-0.39203 -0.09187,-0.764788 -0.210022,-1.140119 0.507209,0.131013 1.042945,0.210022 1.620168,0.210022 2.482712,0 4.875468,-1.330782 4.875468,-2.970309 0,-1.265276 -1.59633,-2.332561 -3.285302,-2.760286 1.134212,-1.550214 2.050187,-3.755475 2.050187,-5.570527 0,-2.340829 -1.336546,-4.499541 -3.160303,-6.360661 0.729187,-0.464767 1.200125,-1.138607 1.200125,-1.860193 0,-1.4103901 -1.109671,-2.4252652 -3.245402,-2.4252654 -1.087276,0 -2.057192,0.3027224 -2.760287,0.7800811 C 32.768041,7.1365188 28.282911,6.1675498 24.083697,6.1675499 z"
       id="path2495"
       style="color:#000000;fill:none;stroke:url(#linearGradient2503);stroke-width:0.96009976;stroke-linecap:butt;stroke-linejoin:miter;stroke-miterlimit:4;stroke-opacity:1;stroke-dashoffset:0;marker:none;visibility:visible;display:inline;overflow:visible" />
  </g>
</svg>
