<?xml version="1.0" encoding="UTF-8" standalone="no"?>
<!-- Created with Inkscape (http://www.inkscape.org/) -->

<svg
   xmlns:svg="http://www.w3.org/2000/svg"
   xmlns="http://www.w3.org/2000/svg"
   xmlns:xlink="http://www.w3.org/1999/xlink"
   version="1.1"
   width="48"
   height="48"
   id="svg1328">
  <defs
     id="defs3">
    <linearGradient
       id="linearGradient6932">
      <stop
         id="stop6934"
         style="stop-color:#ffffff;stop-opacity:1"
         offset="0" />
      <stop
         id="stop6936"
         style="stop-color:#e7e6ae;stop-opacity:1"
         offset="1" />
    </linearGradient>
    <linearGradient
       id="linearGradient6924">
      <stop
         id="stop6926"
         style="stop-color:#ffffff;stop-opacity:1"
         offset="0" />
      <stop
         id="stop6928"
         style="stop-color:#ffffff;stop-opacity:0"
         offset="1" />
    </linearGradient>
    <linearGradient
       id="linearGradient4206">
      <stop
         id="stop4208"
         style="stop-color:#7d4b01;stop-opacity:1"
         offset="0" />
      <stop
         id="stop4210"
         style="stop-color:#535353;stop-opacity:1"
         offset="1" />
    </linearGradient>
    <linearGradient
       id="linearGradient4176">
      <stop
         id="stop4178"
         style="stop-color:#ffffff;stop-opacity:1"
         offset="0" />
      <stop
         id="stop4180"
         style="stop-color:#ffffff;stop-opacity:0"
         offset="1" />
    </linearGradient>
    <linearGradient
       id="linearGradient4162">
      <stop
         id="stop4164"
         style="stop-color:#f79403;stop-opacity:1"
         offset="0" />
      <stop
         id="stop4170"
         style="stop-color:#fdb343;stop-opacity:1"
         offset="0.18691589" />
      <stop
         id="stop4172"
         style="stop-color:#fdb74f;stop-opacity:1"
         offset="0.43008122" />
      <stop
         id="stop4166"
         style="stop-color:#8f5601;stop-opacity:1"
         offset="1" />
    </linearGradient>
    <linearGradient
       id="linearGradient4134">
      <stop
         id="stop4136"
         style="stop-color:#7e807a;stop-opacity:1"
         offset="0" />
      <stop
         id="stop4148"
         style="stop-color:#babbb8;stop-opacity:1"
         offset="0.25" />
      <stop
         id="stop4142"
         style="stop-color:#a5a6a3;stop-opacity:1"
         offset="0.5" />
      <stop
         id="stop4138"
         style="stop-color:#333432;stop-opacity:1"
         offset="1" />
    </linearGradient>
    <linearGradient
       id="linearGradient4126">
      <stop
         id="stop4128"
         style="stop-color:#000000;stop-opacity:1"
         offset="0" />
      <stop
         id="stop4130"
         style="stop-color:#000000;stop-opacity:0"
         offset="1" />
    </linearGradient>
    <radialGradient
       cx="23.857143"
       cy="40"
       r="17.142857"
       fx="23.857143"
       fy="40"
       id="radialGradient4132"
       xlink:href="#linearGradient4126"
       gradientUnits="userSpaceOnUse"
       gradientTransform="matrix(1,0,0,0.5,0,20)" />
    <linearGradient
       x1="9.3030529"
       y1="26.71875"
       x2="38.826412"
       y2="26.71875"
       id="linearGradient4140"
       xlink:href="#linearGradient4134"
       gradientUnits="userSpaceOnUse"
       gradientTransform="translate(-1.142857e-6,-1.714284)" />
    <linearGradient
       x1="24"
       y1="16.525082"
       x2="24"
       y2="13.284962"
       id="linearGradient4160"
       xlink:href="#linearGradient6932"
       gradientUnits="userSpaceOnUse" />
    <linearGradient
       x1="10.116071"
       y1="17.511776"
       x2="38.013393"
       y2="17.511776"
       id="linearGradient4168"
       xlink:href="#linearGradient4162"
       gradientUnits="userSpaceOnUse"
       gradientTransform="translate(-1.142857e-6,-1.714284)" />
    <linearGradient
       x1="17.160095"
       y1="14.004482"
       x2="37.969398"
       y2="56.575912"
       id="linearGradient4182"
       xlink:href="#linearGradient4176"
       gradientUnits="userSpaceOnUse"
       gradientTransform="translate(-1.142857e-6,-1.714284)" />
    <linearGradient
       x1="25.064732"
       y1="21.857143"
       x2="25.207588"
       y2="25.428572"
       id="linearGradient4198"
       xlink:href="#linearGradient4206"
       gradientUnits="userSpaceOnUse"
       gradientTransform="translate(-1.142857e-6,-1.714284)" />
    <linearGradient
       x1="16.07143"
       y1="19.5"
       x2="15.785715"
       y2="30"
       id="linearGradient6930"
       xlink:href="#linearGradient6924"
       gradientUnits="userSpaceOnUse"
       gradientTransform="translate(-0.142857,0.928571)" />
    <linearGradient
       x1="24"
       y1="16.525082"
       x2="24"
       y2="13.284962"
       id="linearGradient6942"
       xlink:href="#linearGradient6932"
       gradientUnits="userSpaceOnUse" />
    <radialGradient
       cx="23.857143"
       cy="40"
       r="17.142857"
       fx="23.857143"
       fy="40"
       id="radialGradient6946"
       xlink:href="#linearGradient4126"
       gradientUnits="userSpaceOnUse"
       gradientTransform="matrix(1,0,0,0.5,0,20)" />
  </defs>
  <g
     id="layer1">
    <path
       d="M 41,40 A 17.142857,8.5714283 0 1 1 6.7142868,40 17.142857,8.5714283 0 1 1 41,40 z"
       transform="matrix(1.058752,0,0,1.151259,-1.115944,-10.27691)"
       id="path3366"
       style="color:#000000;fill:url(#radialGradient4132);fill-opacity:1;fill-rule:nonzero;stroke:none;stroke-width:1;marker:none;visibility:visible;display:block;overflow:visible" />
    <path
       d="m 23.937499,7.191965 c -7.859427,0 -14.2499993,2.8025009 -14.2500003,6.250001 0,0.247385 0,22.86736 0,23.125 0,3.447501 6.3905723,6.25 14.2500003,6.25 7.859428,0 14.504466,-2.8025 14.504464,-6.25 0,-0.204061 0,-22.920939 0,-23.125 0,-3.4475011 -6.645037,-6.250001 -14.504464,-6.250001 z"
       id="path3068"
       style="color:#000000;fill:url(#linearGradient4140);fill-opacity:1;fill-rule:nonzero;stroke:url(#linearGradient4198);stroke-width:1;stroke-linecap:butt;stroke-linejoin:miter;stroke-miterlimit:10;stroke-opacity:1;stroke-dasharray:none;stroke-dashoffset:0;marker:none;visibility:visible;display:block;overflow:visible" />
    <path
       d="m 23.941292,7.4484874 c -7.625145,0 -13.825221,2.7189626 -13.825222,6.0636946 0,0.240011 0,6.307884 0,6.557844 0,3.344734 6.200076,5.647898 13.825222,5.647898 7.625146,0 14.072102,-2.303164 14.0721,-5.647898 0,-0.197978 0,-6.359866 0,-6.557844 0,-3.344733 -6.446955,-6.0636946 -14.0721,-6.0636946 z"
       id="path4152"
       style="color:#000000;fill:url(#linearGradient4168);fill-opacity:1;fill-rule:nonzero;stroke:none;stroke-width:0.76899999;marker:none;visibility:visible;display:block;overflow:visible" />
    <path
       d="m 23.946122,7.9712859 c -7.327758,0 -13.286026,2.6129201 -13.286027,5.8272051 0,0.230651 0,21.88606 0,22.126271 0,3.214287 5.958268,5.827205 13.286027,5.827205 7.327758,0 13.523277,-2.612919 13.523275,-5.827205 0,-0.190256 0,-21.936013 0,-22.126271 0,-3.214286 -6.195518,-5.8272051 -13.523275,-5.8272051 z"
       id="path4174"
       style="opacity:0.5443038;color:#000000;fill:none;stroke:url(#linearGradient4182);stroke-width:1;stroke-linecap:butt;stroke-linejoin:miter;stroke-miterlimit:10;stroke-opacity:1;stroke-dasharray:none;stroke-dashoffset:0;marker:none;visibility:visible;display:block;overflow:visible" />
    <path
       d="m 36.857142,14.071428 a 12.857142,5.5 0 1 1 -25.714284,0 12.857142,5.5 0 1 1 25.714284,0 z"
       transform="matrix(1.037291,0,0,0.954619,-0.894979,-0.07572056)"
       id="path3364"
       style="color:#000000;fill:#fed496;fill-opacity:1;fill-rule:nonzero;stroke:url(#linearGradient4160);stroke-width:1.00492704;stroke-linecap:butt;stroke-linejoin:miter;stroke-miterlimit:10;stroke-opacity:1;stroke-dasharray:none;stroke-dashoffset:0;marker:none;visibility:visible;display:block;overflow:visible" />
    <path
       d="M 41,40 A 17.142857,8.5714283 0 1 1 6.7142868,40 17.142857,8.5714283 0 1 1 41,40 z"
       transform="matrix(0.36343,0,0,0.36343,15.47247,-4.118577)"
       id="path6944"
       style="opacity:0.65822784;color:#000000;fill:url(#radialGradient6946);fill-opacity:1;fill-rule:nonzero;stroke:none;stroke-width:1;marker:none;visibility:visible;display:block;overflow:visible" />
    <path
       d="m 23.889443,6.465348 c -2.002794,0 -4.631284,0.714153 -4.631284,1.592669 0,0.06304 0,2.564005 0,2.629659 0,0.878516 2.62849,1.592669 4.631284,1.592669 2.002795,0 4.410416,-0.714153 4.410415,-1.592669 0,-0.052 0,-2.577659 0,-2.629659 0,-0.878517 -2.40762,-1.592669 -4.410415,-1.592669 z"
       id="path3362"
       style="color:#000000;fill:#fcaf3e;fill-opacity:1;fill-rule:nonzero;stroke:#b46c02;stroke-width:1;stroke-linecap:butt;stroke-linejoin:miter;stroke-miterlimit:10;stroke-opacity:1;stroke-dasharray:none;stroke-dashoffset:0;marker:none;visibility:visible;display:block;overflow:visible" />
    <path
       d="M 13.642858,17.999999 14,34.785714 18.571429,36.071428 18.428572,19.357142 c 0,0 2.071428,0 5.428571,-0.214286 -5.215743,-0.233073 -11.183373,-2.47468 -13.214285,-3.928571 1.416899,2.092176 3,2.785714 3,2.785714 z"
       id="path6922"
       style="opacity:0.49367083;color:#000000;fill:url(#linearGradient6930);fill-opacity:1;fill-rule:nonzero;stroke:none;stroke-width:1;marker:none;visibility:visible;display:block;overflow:visible" />
    <path
       d="m 36.857142,14.071428 a 12.857142,5.5 0 1 1 -25.714284,0 12.857142,5.5 0 1 1 25.714284,0 z"
       transform="matrix(0.271979,0,0,0.216619,17.27048,5.409742)"
       id="path6940"
       style="color:#000000;fill:#fed496;fill-opacity:1;fill-rule:nonzero;stroke:url(#linearGradient6942);stroke-width:4.11986637;stroke-linecap:butt;stroke-linejoin:miter;stroke-miterlimit:10;stroke-opacity:1;stroke-dasharray:none;stroke-dashoffset:0;marker:none;visibility:visible;display:block;overflow:visible" />
  </g>
  <g
     id="layer2" />
</svg>
