<?xml version="1.0" encoding="UTF-8" standalone="no"?>
<!-- Created with Inkscape (http://www.inkscape.org/) -->

<svg
   xmlns:svg="http://www.w3.org/2000/svg"
   xmlns="http://www.w3.org/2000/svg"
   xmlns:xlink="http://www.w3.org/1999/xlink"
   version="1.1"
   width="48"
   height="48"
   id="svg7631">
  <defs
     id="defs3">
    <radialGradient
       cx="605.71429"
       cy="486.64789"
       r="117.14286"
       fx="605.71429"
       fy="486.64789"
       id="radialGradient6719"
       xlink:href="#linearGradient5060"
       gradientUnits="userSpaceOnUse"
       gradientTransform="matrix(-2.774389,0,0,1.969706,112.7623,-872.8854)" />
    <linearGradient
       id="linearGradient5060">
      <stop
         id="stop5062"
         style="stop-color:#000000;stop-opacity:1"
         offset="0" />
      <stop
         id="stop5064"
         style="stop-color:#000000;stop-opacity:0"
         offset="1" />
    </linearGradient>
    <radialGradient
       cx="605.71429"
       cy="486.64789"
       r="117.14286"
       fx="605.71429"
       fy="486.64789"
       id="radialGradient6717"
       xlink:href="#linearGradient5060"
       gradientUnits="userSpaceOnUse"
       gradientTransform="matrix(2.774389,0,0,1.969706,-1891.633,-872.8854)" />
    <linearGradient
       id="linearGradient5048">
      <stop
         id="stop5050"
         style="stop-color:#000000;stop-opacity:0"
         offset="0" />
      <stop
         id="stop5056"
         style="stop-color:#000000;stop-opacity:1"
         offset="0.5" />
      <stop
         id="stop5052"
         style="stop-color:#000000;stop-opacity:0"
         offset="1" />
    </linearGradient>
    <linearGradient
       x1="302.85715"
       y1="366.64789"
       x2="302.85715"
       y2="609.50507"
       id="linearGradient6715"
       xlink:href="#linearGradient5048"
       gradientUnits="userSpaceOnUse"
       gradientTransform="matrix(2.774389,0,0,1.969706,-1892.179,-872.8854)" />
    <linearGradient
       id="linearGradient2818">
      <stop
         id="stop2820"
         style="stop-color:#ffffff;stop-opacity:1"
         offset="0" />
      <stop
         id="stop2822"
         style="stop-color:#ffffff;stop-opacity:0"
         offset="1" />
    </linearGradient>
    <linearGradient
       id="linearGradient2690">
      <stop
         id="stop2692"
         style="stop-color:#ffffff;stop-opacity:1"
         offset="0" />
      <stop
         id="stop2694"
         style="stop-color:#ffffff;stop-opacity:0"
         offset="1" />
    </linearGradient>
    <linearGradient
       id="linearGradient2673">
      <stop
         id="stop2675"
         style="stop-color:#8b8b8b;stop-opacity:1"
         offset="0" />
      <stop
         id="stop2681"
         style="stop-color:#d3d9da;stop-opacity:1"
         offset="0.5" />
      <stop
         id="stop2677"
         style="stop-color:#828282;stop-opacity:1"
         offset="1" />
    </linearGradient>
    <linearGradient
       id="linearGradient2656">
      <stop
         id="stop2658"
         style="stop-color:#000000;stop-opacity:1"
         offset="0" />
      <stop
         id="stop2660"
         style="stop-color:#000000;stop-opacity:0"
         offset="1" />
    </linearGradient>
    <linearGradient
       id="linearGradient2631">
      <stop
         id="stop2633"
         style="stop-color:#010101;stop-opacity:1"
         offset="0" />
      <stop
         id="stop2635"
         style="stop-color:#959595;stop-opacity:1"
         offset="1" />
    </linearGradient>
    <linearGradient
       id="linearGradient2615">
      <stop
         id="stop2617"
         style="stop-color:#363d40;stop-opacity:1"
         offset="0" />
      <stop
         id="stop2623"
         style="stop-color:#818f95;stop-opacity:1"
         offset="0.5" />
      <stop
         id="stop2619"
         style="stop-color:#31383b;stop-opacity:1"
         offset="1" />
    </linearGradient>
    <linearGradient
       id="linearGradient2304">
      <stop
         id="stop2306"
         style="stop-color:#353633;stop-opacity:1"
         offset="0" />
      <stop
         id="stop2308"
         style="stop-color:#676964;stop-opacity:1"
         offset="1" />
    </linearGradient>
    <linearGradient
       id="linearGradient2290">
      <stop
         id="stop2292"
         style="stop-color:#555753;stop-opacity:1"
         offset="0" />
      <stop
         id="stop2294"
         style="stop-color:#313330;stop-opacity:1"
         offset="1" />
    </linearGradient>
    <linearGradient
       id="linearGradient2268">
      <stop
         id="stop2270"
         style="stop-color:#555753;stop-opacity:1"
         offset="0" />
      <stop
         id="stop2272"
         style="stop-color:#141514;stop-opacity:1"
         offset="1" />
    </linearGradient>
    <linearGradient
       id="linearGradient2230">
      <stop
         id="stop2232"
         style="stop-color:#eeeeee;stop-opacity:1"
         offset="0" />
      <stop
         id="stop2234"
         style="stop-color:#a2a2a2;stop-opacity:1"
         offset="1" />
    </linearGradient>
    <linearGradient
       id="linearGradient3301">
      <stop
         id="stop3303"
         style="stop-color:#ffffff;stop-opacity:1"
         offset="0" />
      <stop
         id="stop3305"
         style="stop-color:#cbcbcb;stop-opacity:1"
         offset="1" />
    </linearGradient>
    <linearGradient
       id="linearGradient2591">
      <stop
         id="stop2593"
         style="stop-color:#7a7a7a;stop-opacity:1"
         offset="0" />
      <stop
         id="stop2595"
         style="stop-color:#000000;stop-opacity:1"
         offset="1" />
    </linearGradient>
    <radialGradient
       cx="25.375"
       cy="36.8125"
       r="17.5"
       fx="25.375"
       fy="36.8125"
       id="radialGradient1415"
       xlink:href="#linearGradient2656"
       gradientUnits="userSpaceOnUse"
       gradientTransform="matrix(1,0,0,0.453571,0,20.1154)" />
    <radialGradient
       cx="25.375"
       cy="36.8125"
       r="17.5"
       fx="25.375"
       fy="36.8125"
       id="radialGradient1417"
       xlink:href="#linearGradient2656"
       gradientUnits="userSpaceOnUse"
       gradientTransform="matrix(1,0,0,0.453571,0,20.1154)" />
    <linearGradient
       x1="22.549892"
       y1="39.051506"
       x2="38.416191"
       y2="30.566227"
       id="linearGradient1423"
       xlink:href="#linearGradient2615"
       gradientUnits="userSpaceOnUse" />
    <linearGradient
       x1="23.660564"
       y1="35.302856"
       x2="33.904015"
       y2="30.916578"
       id="linearGradient1425"
       xlink:href="#linearGradient2673"
       gradientUnits="userSpaceOnUse" />
    <radialGradient
       cx="16.875"
       cy="23.672499"
       r="4.625"
       fx="16.875"
       fy="23.672499"
       id="radialGradient1431"
       xlink:href="#linearGradient2591"
       gradientUnits="userSpaceOnUse"
       gradientTransform="matrix(1,0,0,1.013514,0,-0.304899)" />
    <linearGradient
       x1="12.835793"
       y1="18.849401"
       x2="18.422049"
       y2="27.072878"
       id="linearGradient1433"
       xlink:href="#linearGradient2631"
       gradientUnits="userSpaceOnUse" />
    <linearGradient
       x1="6.5595827"
       y1="29.37381"
       x2="6.5595827"
       y2="30.191154"
       id="linearGradient1451"
       xlink:href="#linearGradient3301"
       gradientUnits="userSpaceOnUse"
       gradientTransform="matrix(0.655244,0,0,1.898477,14.94194,-35.5518)" />
    <linearGradient
       x1="6.5595827"
       y1="29.37381"
       x2="6.5595827"
       y2="30.191154"
       id="linearGradient1456"
       xlink:href="#linearGradient3301"
       gradientUnits="userSpaceOnUse"
       gradientTransform="matrix(1.477785,0,0,1.982181,18.56747,-51.60768)" />
    <linearGradient
       x1="7.9151335"
       y1="30.816841"
       x2="7.9151335"
       y2="24.700985"
       id="linearGradient1458"
       xlink:href="#linearGradient2230"
       gradientUnits="userSpaceOnUse"
       gradientTransform="matrix(1.318423,0,0,0.773191,18.70736,-14.22023)" />
    <linearGradient
       x1="29.395439"
       y1="9.4121714"
       x2="29.395439"
       y2="12.84669"
       id="linearGradient1461"
       xlink:href="#linearGradient2268"
       gradientUnits="userSpaceOnUse" />
    <linearGradient
       x1="16.66662"
       y1="16.12499"
       x2="35.888493"
       y2="57.124992"
       id="linearGradient1469"
       xlink:href="#linearGradient2690"
       gradientUnits="userSpaceOnUse" />
    <linearGradient
       x1="7.8705277"
       y1="29.71875"
       x2="14.84375"
       y2="29.71875"
       id="linearGradient1475"
       xlink:href="#linearGradient2290"
       gradientUnits="userSpaceOnUse"
       gradientTransform="matrix(1.024993,0,0,1,-0.06795098,0)" />
    <linearGradient
       x1="16.353432"
       y1="26.09341"
       x2="30.130077"
       y2="26.09341"
       id="linearGradient1482"
       xlink:href="#linearGradient2304"
       gradientUnits="userSpaceOnUse" />
    <linearGradient
       x1="7.8705277"
       y1="29.71875"
       x2="14.84375"
       y2="29.71875"
       id="linearGradient1485"
       xlink:href="#linearGradient2290"
       gradientUnits="userSpaceOnUse"
       gradientTransform="matrix(1.035758,0,0,1,-0.162473,0.20203)" />
    <radialGradient
       cx="14.75"
       cy="22.6875"
       r="1.75"
       fx="14.75"
       fy="22.6875"
       id="radialGradient2824"
       xlink:href="#linearGradient2818"
       gradientUnits="userSpaceOnUse"
       gradientTransform="matrix(1,0,0,1.035714,0,-0.810268)" />
  </defs>
  <g
     id="layer1">
    <g
       transform="matrix(0.0245274,0,0,0.02086758,45.15006,37.31476)"
       id="g6707">
      <rect
         width="1339.6335"
         height="478.35718"
         x="-1559.2523"
         y="-150.69685"
         id="rect6709"
         style="opacity:0.40206185;color:#000000;fill:url(#linearGradient6715);fill-opacity:1;fill-rule:nonzero;stroke:none;stroke-width:1;marker:none;visibility:visible;display:inline;overflow:visible" />
      <path
         d="m -219.61876,-150.68038 c 0,0 0,478.33079 0,478.33079 142.874166,0.90045 345.40022,-107.16966 345.40014,-239.196175 0,-132.026537 -159.436816,-239.134595 -345.40014,-239.134615 z"
         id="path6711"
         style="opacity:0.40206185;color:#000000;fill:url(#radialGradient6717);fill-opacity:1;fill-rule:nonzero;stroke:none;stroke-width:1;marker:none;visibility:visible;display:inline;overflow:visible" />
      <path
         d="m -1559.2523,-150.68038 c 0,0 0,478.33079 0,478.33079 -142.8742,0.90045 -345.4002,-107.16966 -345.4002,-239.196175 0,-132.026537 159.4368,-239.134595 345.4002,-239.134615 z"
         id="path6713"
         style="opacity:0.40206185;color:#000000;fill:url(#radialGradient6719);fill-opacity:1;fill-rule:nonzero;stroke:none;stroke-width:1;marker:none;visibility:visible;display:inline;overflow:visible" />
    </g>
    <path
       d="m 42.875,36.8125 a 17.5,7.9375 0 1 1 -35,0 17.5,7.9375 0 1 1 35,0 z"
       transform="matrix(0.693194,0,0,0.811023,13.91019,9.95669)"
       id="path2664"
       style="opacity:0.39873418;color:#000000;fill:url(#radialGradient1415);fill-opacity:1;fill-rule:nonzero;stroke:none;stroke-width:1;marker:none;visibility:visible;display:block;overflow:visible" />
    <path
       d="m 8.9327762,18.92078 c -3.4712691,0 -6.2792829,1.12 -6.2792829,2.5 0,0.156792 0.1570095,0.288682 0.2265721,0.4375 -0.010187,0.04943 -0.097102,0.04118 -0.097102,0.09375 0,0 -0.1294698,16.311958 -0.1294698,16.46875 0,1.38 2.8080138,2.5 6.2792829,2.5 3.4712698,0 6.2792828,-1.12 6.2792828,-2.5 L 15.08259,21.95203 c 0,-0.05257 -0.08692,-0.04432 -0.0971,-0.09375 0.06956,-0.148818 0.226572,-0.280708 0.226572,-0.4375 0,-1.38 -2.808013,-2.5 -6.2792828,-2.5 z"
       id="path2608"
       style="color:#000000;fill:url(#linearGradient1485);fill-opacity:1;fill-rule:nonzero;stroke:#282828;stroke-width:2.00000024;stroke-linecap:butt;stroke-linejoin:miter;stroke-miterlimit:4;stroke-opacity:1;stroke-dasharray:none;stroke-dashoffset:0;marker:none;visibility:visible;display:block;overflow:visible" />
    <path
       d="m 2.1428571,38.647933 40.1428569,0 c 1.111168,0.101015 2.219362,-1.150036 2.219362,-1.857143 l 0,-17.647933 c -0.101015,-1.111168 -3.96897,-2.423755 -4.878107,-2.52477 l -2.432118,0 -2.923525,-3.084962 -10.55704,0 -3.435468,3.031407 c 0,0 -6.726815,0.211654 -11.9411093,1.167085 C 3.1234141,18.687048 2,20.318891 2,21.531074 l 0.1428571,17.116859 z"
       id="path8417"
       style="color:#000000;fill:url(#linearGradient1482);fill-opacity:1;fill-rule:nonzero;stroke:#282828;stroke-width:1;stroke-linecap:butt;stroke-linejoin:miter;stroke-miterlimit:4;stroke-opacity:1;stroke-dasharray:none;stroke-dashoffset:0;marker:none;visibility:visible;display:block;overflow:visible" />
    <path
       d="m 33.890618,13.907352 1.363706,3.788072 1.868782,-0.454569 -3.232488,-3.333503 z"
       id="path2300"
       style="color:#000000;fill:#3f413e;fill-opacity:1;fill-rule:nonzero;stroke:none;stroke-width:1;marker:none;visibility:visible;display:block;overflow:visible" />
    <path
       d="m 43.133513,33.908371 a 1.9697975,1.9697975 0 1 1 -3.939595,0 1.9697975,1.9697975 0 1 1 3.939595,0 z"
       transform="matrix(1.256914,0,0,1.256914,-11.68675,-10.02479)"
       id="path2302"
       style="color:#000000;fill:#585b57;fill-opacity:1;fill-rule:nonzero;stroke:#a7a7a7;stroke-width:0.79559946;stroke-linecap:butt;stroke-linejoin:miter;stroke-miterlimit:4;stroke-opacity:1;stroke-dasharray:none;stroke-dashoffset:0;marker:none;visibility:visible;display:block;overflow:visible" />
    <path
       d="m 40.714286,33.57143 a 10.142858,10.142858 0 1 1 -20.285715,0 10.142858,10.142858 0 1 1 20.285715,0 z"
       transform="matrix(1.082923,0,0,1.082923,-3.320501,-4.385684)"
       id="path2280"
       style="color:#000000;fill:url(#linearGradient1423);fill-opacity:1;fill-rule:nonzero;stroke:none;stroke-width:1;marker:none;visibility:visible;display:block;overflow:visible" />
    <path
       d="m 40.714286,33.57143 a 10.142858,10.142858 0 1 1 -20.285715,0 10.142858,10.142858 0 1 1 20.285715,0 z"
       transform="matrix(1.082923,0,0,1.082923,-3.155039,-2.49593)"
       id="path2278"
       style="color:#000000;fill:url(#linearGradient1425);fill-opacity:1;fill-rule:nonzero;stroke:none;stroke-width:1;marker:none;visibility:visible;display:block;overflow:visible" />
    <path
       d="m 8.9327729,18.71875 c -3.4351925,0 -6.2140229,1.12 -6.2140229,2.5 0,0.156792 0.1553777,0.288682 0.2242173,0.4375 -0.010081,0.04943 -0.096093,0.04118 -0.096093,0.09375 0,0 -0.1281242,16.311958 -0.1281242,16.46875 0,1.38 2.7788304,2.5 6.2140229,2.5 3.4351931,0 6.2140231,-1.12 6.2140231,-2.5 L 15.018672,21.75 c 0,-0.05257 -0.08601,-0.04432 -0.09609,-0.09375 0.06884,-0.148818 0.224218,-0.280708 0.224218,-0.4375 0,-1.38 -2.77883,-2.5 -6.2140231,-2.5 z"
       id="path7949"
       style="color:#000000;fill:url(#linearGradient1475);fill-opacity:1;fill-rule:nonzero;stroke:none;stroke-width:1;marker:none;visibility:visible;display:block;overflow:visible" />
    <path
       d="m 24.243661,14.15989 -0.757614,3.636549 -0.353554,1.212183 -2.77792,-2.070813 3.889088,-2.777919 z"
       id="path2298"
       style="color:#000000;fill:#7b7e79;fill-opacity:1;fill-rule:nonzero;stroke:none;stroke-width:1;marker:none;visibility:visible;display:block;overflow:visible" />
    <path
       d="m 19.030081,27.9953 4.910534,-8.582617 11.212694,0 4.838579,7.115358 -4.737564,-8.731602 -11.818785,0 -4.405458,10.198861 z"
       id="path2276"
       style="color:#000000;fill:#a7aba7;fill-opacity:1;fill-rule:nonzero;stroke:none;stroke-width:1;marker:none;visibility:visible;display:block;overflow:visible" />
    <path
       d="m 20.3125,16.875 c 0,0 -12.145896,0.638063 -16.15625,2.75 -0.8520399,0.448702 -1.4880076,0.840607 -1.4880076,1.442227 0,1.38 2.824079,3.026523 6.1755076,3.026523 3.351429,0 6,-1.495 6,-2.875 0,-0.314339 -0.179931,-0.629054 -0.4375,-0.90625 L 23.03125,18.5 20.3125,16.875 z"
       id="path7953"
       style="color:#000000;fill:#888a85;fill-opacity:1;fill-rule:nonzero;stroke:none;stroke-width:1;marker:none;visibility:visible;display:block;overflow:visible" />
    <path
       d="m 24.553211,14.482118 -3.917302,2.792985 c 0,10e-7 -6.444742,0.435034 -11.2491768,1.315365 C 4.582297,19.4708 3.16662,20.423893 3.04162,21.603294 l 0.226119,16.591424 c 0.2959617,1.161082 3.2300568,2.073143 6.228573,2.073143 2.998516,0 5.501388,-1.599561 5.79735,-2.760643 l 26.487981,0.125 c 1.461328,0.03057 1.731849,-0.701093 1.731849,-1.352619 l 0,-16.677122 c 0,-0.711984 -2.841634,-1.864212 -3.67931,-1.957287 l -2.933405,0.0625 -3.24031,-3.225572 -9.107256,0 z"
       id="path2683"
       style="opacity:0.4177215;color:#000000;fill:none;stroke:url(#linearGradient1469);stroke-width:1;stroke-linecap:butt;stroke-linejoin:miter;stroke-miterlimit:4;stroke-opacity:1;stroke-dasharray:none;stroke-dashoffset:0;marker:none;visibility:visible;display:block;overflow:visible" />
    <path
       d="m 40.714286,33.57143 a 10.142858,10.142858 0 1 1 -20.285715,0 10.142858,10.142858 0 1 1 20.285715,0 z"
       transform="matrix(1.082923,0,0,1.082923,-3.050891,-1.56885)"
       id="path8415"
       style="color:#000000;fill:#2e3436;fill-opacity:1;fill-rule:nonzero;stroke:none;stroke-width:1;marker:none;visibility:visible;display:block;overflow:visible" />
    <path
       d="m 19.875,22.5625 a 4.125,4.1875 0 1 1 -8.25,0 4.125,4.1875 0 1 1 8.25,0 z"
       transform="matrix(1.676984,0,0,1.676984,3.488419,-3.050526)"
       id="path2589"
       style="color:#000000;fill:url(#radialGradient1431);fill-opacity:1;fill-rule:nonzero;stroke:url(#linearGradient1433);stroke-width:0.59630877;stroke-linecap:butt;stroke-linejoin:miter;stroke-miterlimit:4;stroke-opacity:1;stroke-dashoffset:0;marker:none;visibility:visible;display:inline;overflow:visible;font-family:Bitstream Vera Sans" />
    <path
       d="m 16.5,22.6875 a 1.75,1.8125 0 1 1 -3.5,0 1.75,1.8125 0 1 1 3.5,0 z"
       transform="matrix(1.676984,0,0,1.676984,5.499948,-3.195174)"
       id="path2599"
       style="opacity:0.60759499;color:#000000;fill:#ffffff;fill-opacity:0.52866247;fill-rule:nonzero;stroke:none;stroke-width:1;marker:none;visibility:visible;display:inline;overflow:visible;font-family:Bitstream Vera Sans" />
    <path
       d="m 16.5,22.6875 a 1.75,1.8125 0 1 1 -3.5,0 1.75,1.8125 0 1 1 3.5,0 z"
       transform="matrix(1.673245,0,0,1.673245,3.33394,-5.000547)"
       id="path2601"
       style="opacity:0.37341769;color:#000000;fill:#ffffff;fill-opacity:1;fill-rule:nonzero;stroke:none;stroke-width:1;marker:none;visibility:visible;display:inline;overflow:visible;font-family:Bitstream Vera Sans" />
    <path
       d="m 16.5,22.6875 a 1.75,1.8125 0 1 1 -3.5,0 1.75,1.8125 0 1 1 3.5,0 z"
       transform="matrix(0.41273,0,0,0.41273,27.45136,28.98197)"
       id="path8405"
       style="color:#000000;fill:url(#radialGradient2824);fill-opacity:1;fill-rule:nonzero;stroke:none;stroke-width:1;marker:none;visibility:visible;display:inline;overflow:visible;font-family:Bitstream Vera Sans" />
    <path
       d="m 22.223356,15.574103 2.929442,-2.12132 0.909137,-2.424366 6.363961,0 1.313199,2.929443 2.828427,2.424365 -2.525381,-10.9096472 -9.899495,0 -1.91929,10.1015252 z"
       id="path1507"
       style="color:#000000;fill:url(#linearGradient1461);fill-opacity:1;fill-rule:nonzero;stroke:none;stroke-width:1;marker:none;visibility:visible;display:block;overflow:visible" />
    <rect
       width="9.328516"
       height="4.5837932"
       rx="1.5035444"
       ry="1.5035454"
       x="24.478594"
       y="4.6366777"
       id="rect3297"
       style="color:#000000;fill:url(#linearGradient1456);fill-opacity:1;fill-rule:nonzero;stroke:url(#linearGradient1458);stroke-width:1.00000036;stroke-linecap:butt;stroke-linejoin:miter;stroke-miterlimit:4;stroke-opacity:1;stroke-dashoffset:0;marker:none;visibility:visible;display:inline;overflow:visible;font-family:Bitstream Vera Sans" />
    <path
       d="m 14.857143,38.214287 a 6.0714288,2.5 0 1 1 -12.1428576,0 6.0714288,2.5 0 1 1 12.1428576,0 z"
       transform="matrix(0.359444,0,0,0.554344,7.698551,0.07305544)"
       id="path2288"
       style="color:#000000;fill:#2f302e;fill-opacity:1;fill-rule:nonzero;stroke:none;stroke-width:1;marker:none;visibility:visible;display:block;overflow:visible" />
    <path
       d="m 2.7034271,21.250564 c -0.1355518,1.785664 2.4438455,3.880204 6.1953695,3.881473 3.8140244,0.0013 5.8494304,-2.18382 6.0514604,-4.10311 l 4.545687,-1.717259 -5.151778,1.010152 c 0.101016,1.91929 -1.701837,3.830458 -5.4402931,3.771004 -4.0863664,-0.06598 -5.5754458,-1.65476 -6.2004458,-2.84226 z"
       id="path2312"
       style="color:#000000;fill:#c4c6c3;fill-opacity:1;fill-rule:nonzero;stroke:none;stroke-width:1;marker:none;visibility:visible;display:block;overflow:visible" />
    <rect
       width="4.1362314"
       height="4.3902278"
       rx="0.69542336"
       ry="0.69542354"
       x="17.562916"
       y="18.317474"
       id="rect2282"
       style="color:#000000;fill:url(#linearGradient1451);fill-opacity:1;fill-rule:nonzero;stroke:#464646;stroke-width:0.9999997;stroke-linecap:butt;stroke-linejoin:miter;stroke-miterlimit:4;stroke-opacity:1;stroke-dashoffset:0;marker:none;visibility:visible;display:inline;overflow:visible;font-family:Bitstream Vera Sans" />
    <path
       d="m 16.5,22.6875 a 1.75,1.8125 0 1 1 -3.5,0 1.75,1.8125 0 1 1 3.5,0 z"
       transform="matrix(0.389835,0,0,0.389835,4.452477,12.38659)"
       id="path2612"
       style="opacity:0.43037971;color:#000000;fill:#ffffff;fill-opacity:1;fill-rule:nonzero;stroke:none;stroke-width:1;marker:none;visibility:visible;display:inline;overflow:visible;font-family:Bitstream Vera Sans" />
    <path
       d="m 16.5,22.6875 a 1.75,1.8125 0 1 1 -3.5,0 1.75,1.8125 0 1 1 3.5,0 z"
       transform="matrix(0.45611,0,0,0.45611,20.30269,21.39326)"
       id="path2629"
       style="color:#000000;fill:#ffffff;fill-opacity:1;fill-rule:nonzero;stroke:none;stroke-width:1;marker:none;visibility:visible;display:inline;overflow:visible;font-family:Bitstream Vera Sans" />
    <path
       d="m 42.25,20.5625 a 1.625,0.6875 0 1 1 -3.25,0 1.625,0.6875 0 1 1 3.25,0 z"
       transform="matrix(1.038462,0,0,1.636364,-1.1875,-12.71023)"
       id="path2641"
       style="color:#000000;fill:#c5c5c5;fill-opacity:0.52866247;fill-rule:nonzero;stroke:none;stroke-width:2;marker:none;visibility:visible;display:block;overflow:visible" />
    <path
       d="m 42.25,20.5625 a 1.625,0.6875 0 1 1 -3.25,0 1.625,0.6875 0 1 1 3.25,0 z"
       transform="matrix(1.038462,0,0,1.636364,-1.125,-12.33523)"
       id="path2639"
       style="color:#000000;fill:#565656;fill-opacity:1;fill-rule:nonzero;stroke:none;stroke-width:2;marker:none;visibility:visible;display:block;overflow:visible" />
    <path
       d="m 23.271357,28.422173 c 2.602739,-3.367642 8.755661,-4.192713 12.274919,-1.041239"
       id="path2650"
       style="color:#000000;fill:none;stroke:#777777;stroke-width:1.00000072;stroke-linecap:butt;stroke-linejoin:miter;stroke-miterlimit:4;stroke-opacity:1;stroke-dasharray:none;stroke-dashoffset:0;marker:none;visibility:visible;display:block;overflow:visible" />
    <path
       d="m 30.219981,31.818049 c -1.619967,0 -2.910355,1.367899 -2.910355,3.045722 0,0.383845 0.246717,0.643162 0.372255,0.981399 0.12668,0.01735 0.207178,0.135365 0.338413,0.135365 1.616354,0 2.910355,-1.337799 2.910355,-3.01188 0,-0.39361 -0.27415,-0.670063 -0.406095,-1.01524 -0.11496,-0.01419 -0.185943,-0.135366 -0.304573,-0.135366 z"
       id="path2668"
       style="opacity:0.67088611;color:#000000;fill:#ffffff;fill-opacity:1;fill-rule:nonzero;stroke:none;stroke-width:1;marker:none;visibility:visible;display:inline;overflow:visible;font-family:Bitstream Vera Sans" />
  </g>
</svg>
