<?xml version="1.0" encoding="UTF-8" standalone="no"?>
<!-- Created with Inkscape (http://www.inkscape.org/) -->

<svg
   xmlns:svg="http://www.w3.org/2000/svg"
   xmlns="http://www.w3.org/2000/svg"
   xmlns:xlink="http://www.w3.org/1999/xlink"
   version="1.1"
   width="48"
   height="48"
   id="svg1260">
  <defs
     id="defs3">
    <radialGradient
       cx="605.71429"
       cy="486.64789"
       r="117.14286"
       fx="605.71429"
       fy="486.64789"
       id="radialGradient6719"
       xlink:href="#linearGradient5060"
       gradientUnits="userSpaceOnUse"
       gradientTransform="matrix(-2.774389,0,0,1.969706,112.7623,-872.8854)" />
    <linearGradient
       id="linearGradient5060">
      <stop
         id="stop5062"
         style="stop-color:#000000;stop-opacity:1"
         offset="0" />
      <stop
         id="stop5064"
         style="stop-color:#000000;stop-opacity:0"
         offset="1" />
    </linearGradient>
    <radialGradient
       cx="605.71429"
       cy="486.64789"
       r="117.14286"
       fx="605.71429"
       fy="486.64789"
       id="radialGradient6717"
       xlink:href="#linearGradient5060"
       gradientUnits="userSpaceOnUse"
       gradientTransform="matrix(2.774389,0,0,1.969706,-1891.633,-872.8854)" />
    <linearGradient
       id="linearGradient5048">
      <stop
         id="stop5050"
         style="stop-color:#000000;stop-opacity:0"
         offset="0" />
      <stop
         id="stop5056"
         style="stop-color:#000000;stop-opacity:1"
         offset="0.5" />
      <stop
         id="stop5052"
         style="stop-color:#000000;stop-opacity:0"
         offset="1" />
    </linearGradient>
    <linearGradient
       x1="302.85715"
       y1="366.64789"
       x2="302.85715"
       y2="609.50507"
       id="linearGradient6715"
       xlink:href="#linearGradient5048"
       gradientUnits="userSpaceOnUse"
       gradientTransform="matrix(2.774389,0,0,1.969706,-1892.179,-872.8854)" />
    <linearGradient
       id="linearGradient2244">
      <stop
         id="stop2246"
         style="stop-color:#ffffff;stop-opacity:1"
         offset="0" />
      <stop
         id="stop2248"
         style="stop-color:#ffffff;stop-opacity:0"
         offset="1" />
    </linearGradient>
    <linearGradient
       id="linearGradient2230">
      <stop
         id="stop2232"
         style="stop-color:#eeeeee;stop-opacity:1"
         offset="0" />
      <stop
         id="stop2234"
         style="stop-color:#a2a2a2;stop-opacity:1"
         offset="1" />
    </linearGradient>
    <linearGradient
       id="linearGradient3301">
      <stop
         id="stop3303"
         style="stop-color:#ffffff;stop-opacity:1"
         offset="0" />
      <stop
         id="stop3305"
         style="stop-color:#cbcbcb;stop-opacity:1"
         offset="1" />
    </linearGradient>
    <linearGradient
       id="linearGradient3287">
      <stop
         id="stop3289"
         style="stop-color:#ffffff;stop-opacity:1"
         offset="0" />
      <stop
         id="stop3291"
         style="stop-color:#ffffff;stop-opacity:0"
         offset="1" />
    </linearGradient>
    <linearGradient
       id="linearGradient3279">
      <stop
         id="stop3281"
         style="stop-color:#bebebe;stop-opacity:0"
         offset="0" />
      <stop
         id="stop3283"
         style="stop-color:#717171;stop-opacity:1"
         offset="1" />
    </linearGradient>
    <linearGradient
       id="linearGradient3265">
      <stop
         id="stop3267"
         style="stop-color:#ffffff;stop-opacity:1"
         offset="0" />
      <stop
         id="stop3269"
         style="stop-color:#ffffff;stop-opacity:0"
         offset="1" />
    </linearGradient>
    <linearGradient
       id="linearGradient3250">
      <stop
         id="stop3252"
         style="stop-color:#174992;stop-opacity:1"
         offset="0" />
      <stop
         id="stop3254"
         style="stop-color:#233247;stop-opacity:1"
         offset="1" />
    </linearGradient>
    <linearGradient
       id="linearGradient3238">
      <stop
         id="stop3240"
         style="stop-color:#000000;stop-opacity:0.2783505"
         offset="0" />
      <stop
         id="stop3242"
         style="stop-color:#000000;stop-opacity:0"
         offset="1" />
    </linearGradient>
    <linearGradient
       id="linearGradient3180">
      <stop
         id="stop3182"
         style="stop-color:#c8c8c8;stop-opacity:1"
         offset="0" />
      <stop
         id="stop3184"
         style="stop-color:#545454;stop-opacity:1"
         offset="1" />
    </linearGradient>
    <linearGradient
       id="linearGradient3170">
      <stop
         id="stop3172"
         style="stop-color:#919191;stop-opacity:1"
         offset="0" />
      <stop
         id="stop3174"
         style="stop-color:#545454;stop-opacity:1"
         offset="1" />
    </linearGradient>
    <linearGradient
       id="linearGradient3116">
      <stop
         id="stop3118"
         style="stop-color:#ffffff;stop-opacity:1"
         offset="0" />
      <stop
         id="stop3120"
         style="stop-color:#ffffff;stop-opacity:0"
         offset="1" />
    </linearGradient>
    <linearGradient
       id="linearGradient3016">
      <stop
         id="stop3018"
         style="stop-color:#000000;stop-opacity:1"
         offset="0" />
      <stop
         id="stop3020"
         style="stop-color:#747474;stop-opacity:1"
         offset="1" />
    </linearGradient>
    <linearGradient
       id="linearGradient2854">
      <stop
         id="stop2856"
         style="stop-color:#dddddd;stop-opacity:1"
         offset="0" />
      <stop
         id="stop2858"
         style="stop-color:#a0a0a0;stop-opacity:1"
         offset="1" />
    </linearGradient>
    <linearGradient
       id="linearGradient2801">
      <stop
         id="stop2803"
         style="stop-color:#d7d7d7;stop-opacity:1"
         offset="0" />
      <stop
         id="stop2805"
         style="stop-color:#9a9a9a;stop-opacity:1"
         offset="1" />
    </linearGradient>
    <linearGradient
       id="linearGradient2659">
      <stop
         id="stop2661"
         style="stop-color:#000000;stop-opacity:1"
         offset="0" />
      <stop
         id="stop2663"
         style="stop-color:#b6b6b6;stop-opacity:1"
         offset="1" />
    </linearGradient>
    <linearGradient
       id="linearGradient2591">
      <stop
         id="stop2593"
         style="stop-color:#d3d3d3;stop-opacity:1"
         offset="0" />
      <stop
         id="stop2595"
         style="stop-color:#000000;stop-opacity:1"
         offset="1" />
    </linearGradient>
    <linearGradient
       id="linearGradient2261">
      <stop
         id="stop2263"
         style="stop-color:#b6b6b6;stop-opacity:1"
         offset="0" />
      <stop
         id="stop2265"
         style="stop-color:#a0a0a0;stop-opacity:1"
         offset="1" />
    </linearGradient>
    <linearGradient
       x1="39.814648"
       y1="3.25"
       x2="39.532253"
       y2="26.625"
       id="linearGradient3186"
       xlink:href="#linearGradient3180"
       gradientUnits="userSpaceOnUse"
       gradientTransform="matrix(1.192333,0,0,1,-11.96891,-0.625)" />
    <linearGradient
       x1="31.289474"
       y1="23.074486"
       x2="31.55464"
       y2="35.537243"
       id="linearGradient1605"
       xlink:href="#linearGradient2261"
       gradientUnits="userSpaceOnUse"
       gradientTransform="matrix(0.920341,0,0,1,5.113065,-0.618717)" />
    <linearGradient
       x1="32.372795"
       y1="24.311874"
       x2="34.443943"
       y2="36.686241"
       id="linearGradient1607"
       xlink:href="#linearGradient3250"
       gradientUnits="userSpaceOnUse" />
    <linearGradient
       x1="40.59375"
       y1="33.21875"
       x2="21.375"
       y2="23.5"
       id="linearGradient1609"
       xlink:href="#linearGradient3116"
       gradientUnits="userSpaceOnUse" />
    <linearGradient
       x1="28.798098"
       y1="20.222286"
       x2="33.98465"
       y2="35.071529"
       id="linearGradient1611"
       xlink:href="#linearGradient3265"
       gradientUnits="userSpaceOnUse" />
    <linearGradient
       x1="16.489622"
       y1="26.012749"
       x2="13.114621"
       y2="28.125509"
       id="linearGradient1618"
       xlink:href="#linearGradient3238"
       gradientUnits="userSpaceOnUse"
       gradientTransform="matrix(1.030948,0,0,1.030948,-0.405869,-2.837538)" />
    <linearGradient
       x1="30.661369"
       y1="23.39677"
       x2="16.638567"
       y2="27.727798"
       id="linearGradient1629"
       xlink:href="#linearGradient2244"
       gradientUnits="userSpaceOnUse" />
    <linearGradient
       x1="8.6845827"
       y1="32.006123"
       x2="7.15625"
       y2="27.409931"
       id="linearGradient1633"
       xlink:href="#linearGradient3016"
       gradientUnits="userSpaceOnUse"
       gradientTransform="matrix(0.633663,0,0,1.297297,10.46536,-8.81081)" />
    <linearGradient
       x1="26.980543"
       y1="15.296312"
       x2="26.604893"
       y2="27.891649"
       id="linearGradient1676"
       xlink:href="#linearGradient3279"
       gradientUnits="userSpaceOnUse" />
    <linearGradient
       x1="18.694136"
       y1="24.665476"
       x2="23.864855"
       y2="32.090096"
       id="linearGradient1679"
       xlink:href="#linearGradient2801"
       gradientUnits="userSpaceOnUse" />
    <linearGradient
       x1="6.5595827"
       y1="29.37381"
       x2="6.5595827"
       y2="30.191154"
       id="linearGradient1682"
       xlink:href="#linearGradient3301"
       gradientUnits="userSpaceOnUse"
       gradientTransform="matrix(1.120873,0,0,2.563637,-0.106115,-48.35474)" />
    <linearGradient
       x1="7.9151335"
       y1="30.816841"
       x2="7.9151335"
       y2="24.700985"
       id="linearGradient1684"
       xlink:href="#linearGradient2230"
       gradientUnits="userSpaceOnUse" />
    <linearGradient
       x1="9.5126343"
       y1="16.013027"
       x2="11.343681"
       y2="35.138027"
       id="linearGradient1687"
       xlink:href="#linearGradient3287"
       gradientUnits="userSpaceOnUse" />
    <linearGradient
       x1="12.586802"
       y1="29.70616"
       x2="12.523165"
       y2="36.841251"
       id="linearGradient1690"
       xlink:href="#linearGradient2854"
       gradientUnits="userSpaceOnUse" />
    <linearGradient
       x1="12.649302"
       y1="24.64366"
       x2="12.523165"
       y2="36.841251"
       id="linearGradient1693"
       xlink:href="#linearGradient2854"
       gradientUnits="userSpaceOnUse" />
    <linearGradient
       x1="12.649302"
       y1="24.64366"
       x2="12.523165"
       y2="36.841251"
       id="linearGradient1696"
       xlink:href="#linearGradient3170"
       gradientUnits="userSpaceOnUse"
       gradientTransform="translate(-1.125,-0.125)" />
    <radialGradient
       cx="16.875"
       cy="23.672499"
       r="4.625"
       fx="16.875"
       fy="23.672499"
       id="radialGradient1699"
       xlink:href="#linearGradient2591"
       gradientUnits="userSpaceOnUse"
       gradientTransform="matrix(1,0,0,1.013514,0,-0.304899)" />
    <linearGradient
       x1="12.187341"
       y1="42.484329"
       x2="12.257777"
       y2="30.812494"
       id="linearGradient1701"
       xlink:href="#linearGradient2659"
       gradientUnits="userSpaceOnUse" />
    <linearGradient
       x1="7.687366"
       y1="42.484352"
       x2="7.757802"
       y2="30.812517"
       id="linearGradient1703"
       xlink:href="#linearGradient2659"
       gradientUnits="userSpaceOnUse" />
    <linearGradient
       x1="3.1873815"
       y1="42.484329"
       x2="3.2578177"
       y2="30.812494"
       id="linearGradient1705"
       xlink:href="#linearGradient2659"
       gradientUnits="userSpaceOnUse" />
    <linearGradient
       x1="-1.3126028"
       y1="42.484329"
       x2="-1.2421666"
       y2="30.812494"
       id="linearGradient1707"
       xlink:href="#linearGradient2659"
       gradientUnits="userSpaceOnUse" />
    <linearGradient
       x1="0.93738264"
       y1="40.23436"
       x2="1.0078188"
       y2="28.562525"
       id="linearGradient1709"
       xlink:href="#linearGradient2659"
       gradientUnits="userSpaceOnUse" />
    <linearGradient
       x1="5.437367"
       y1="40.234337"
       x2="5.507803"
       y2="28.562502"
       id="linearGradient1711"
       xlink:href="#linearGradient2659"
       gradientUnits="userSpaceOnUse" />
    <linearGradient
       x1="9.9373512"
       y1="40.234337"
       x2="10.007788"
       y2="28.562502"
       id="linearGradient1713"
       xlink:href="#linearGradient2659"
       gradientUnits="userSpaceOnUse" />
    <linearGradient
       x1="12.18735"
       y1="37.984367"
       x2="12.257786"
       y2="26.312532"
       id="linearGradient1715"
       xlink:href="#linearGradient2659"
       gradientUnits="userSpaceOnUse" />
    <linearGradient
       x1="7.687366"
       y1="37.984344"
       x2="7.757802"
       y2="26.31251"
       id="linearGradient1717"
       xlink:href="#linearGradient2659"
       gradientUnits="userSpaceOnUse" />
    <linearGradient
       x1="3.1873815"
       y1="37.984344"
       x2="3.2578177"
       y2="26.31251"
       id="linearGradient1719"
       xlink:href="#linearGradient2659"
       gradientUnits="userSpaceOnUse" />
    <linearGradient
       x1="-1.3126028"
       y1="37.984344"
       x2="-1.2421666"
       y2="26.31251"
       id="linearGradient1721"
       xlink:href="#linearGradient2659"
       gradientUnits="userSpaceOnUse" />
    <linearGradient
       x1="0.93738264"
       y1="35.734352"
       x2="1.0078188"
       y2="24.062519"
       id="linearGradient1723"
       xlink:href="#linearGradient2659"
       gradientUnits="userSpaceOnUse" />
    <linearGradient
       x1="-1.3126028"
       y1="33.484383"
       x2="-1.2421666"
       y2="21.812548"
       id="linearGradient1725"
       xlink:href="#linearGradient2659"
       gradientUnits="userSpaceOnUse" />
    <linearGradient
       x1="3.1873748"
       y1="33.484383"
       x2="3.2578108"
       y2="21.812548"
       id="linearGradient1727"
       xlink:href="#linearGradient2659"
       gradientUnits="userSpaceOnUse" />
    <linearGradient
       x1="5.437367"
       y1="35.734352"
       x2="5.507803"
       y2="24.062519"
       id="linearGradient1729"
       xlink:href="#linearGradient2659"
       gradientUnits="userSpaceOnUse" />
    <linearGradient
       x1="7.687366"
       y1="33.484383"
       x2="7.757802"
       y2="21.812548"
       id="linearGradient1731"
       xlink:href="#linearGradient2659"
       gradientUnits="userSpaceOnUse" />
    <linearGradient
       x1="9.9373579"
       y1="35.734352"
       x2="10.007794"
       y2="24.062519"
       id="linearGradient1733"
       xlink:href="#linearGradient2659"
       gradientUnits="userSpaceOnUse" />
    <linearGradient
       x1="302.85715"
       y1="366.64789"
       x2="302.85715"
       y2="609.50507"
       id="linearGradient12782"
       xlink:href="#linearGradient5048"
       gradientUnits="userSpaceOnUse"
       gradientTransform="matrix(2.774389,0,0,1.969706,-1892.179,-872.8854)" />
    <radialGradient
       cx="605.71429"
       cy="486.64789"
       r="117.14286"
       fx="605.71429"
       fy="486.64789"
       id="radialGradient12784"
       xlink:href="#linearGradient5060"
       gradientUnits="userSpaceOnUse"
       gradientTransform="matrix(2.774389,0,0,1.969706,-1891.633,-872.8854)" />
    <radialGradient
       cx="605.71429"
       cy="486.64789"
       r="117.14286"
       fx="605.71429"
       fy="486.64789"
       id="radialGradient12786"
       xlink:href="#linearGradient5060"
       gradientUnits="userSpaceOnUse"
       gradientTransform="matrix(-2.774389,0,0,1.969706,112.7623,-872.8854)" />
  </defs>
  <g
     id="layer1">
    <path
       d="m 30.806057,10.75 c 0,0 0.167672,-1.15625 1.564938,-1.125 0,0 8.197293,0 8.197293,0 1.527677,0 2.067952,0.953125 2.012062,2.0625 0,0 0,5.125 0,5.125 -0.01863,1.03125 -0.838359,1.671875 -1.863021,1.75 0,0 -9.538668,0.0625 -9.538668,0.0625 L 30.731536,16 l 0.07452,-5.25 z"
       id="path3178"
       style="color:#000000;fill:url(#linearGradient3186);fill-opacity:1;fill-rule:nonzero;stroke:#6c6c6c;stroke-width:1;stroke-linecap:round;stroke-linejoin:round;stroke-miterlimit:4;stroke-opacity:1;stroke-dashoffset:0;marker:none;visibility:visible;display:inline;overflow:visible;font-family:Bitstream Vera Sans" />
    <g
       transform="matrix(0.0198486,0,0,0.02086758,38.77905,35.9036)"
       id="g6707">
      <rect
         width="1339.6335"
         height="478.35718"
         x="-1559.2523"
         y="-150.69685"
         id="rect6709"
         style="opacity:0.40206185;color:#000000;fill:url(#linearGradient6715);fill-opacity:1;fill-rule:nonzero;stroke:none;stroke-width:1;marker:none;visibility:visible;display:inline;overflow:visible" />
      <path
         d="m -219.61876,-150.68038 c 0,0 0,478.33079 0,478.33079 142.874166,0.90045 345.40022,-107.16966 345.40014,-239.196175 0,-132.026537 -159.436816,-239.134595 -345.40014,-239.134615 z"
         id="path6711"
         style="opacity:0.40206185;color:#000000;fill:url(#radialGradient6717);fill-opacity:1;fill-rule:nonzero;stroke:none;stroke-width:1;marker:none;visibility:visible;display:inline;overflow:visible" />
      <path
         d="m -1559.2523,-150.68038 c 0,0 0,478.33079 0,478.33079 -142.8742,0.90045 -345.4002,-107.16966 -345.4002,-239.196175 0,-132.026537 159.4368,-239.134595 345.4002,-239.134615 z"
         id="path6713"
         style="opacity:0.40206185;color:#000000;fill:url(#radialGradient6719);fill-opacity:1;fill-rule:nonzero;stroke:none;stroke-width:1;marker:none;visibility:visible;display:inline;overflow:visible" />
    </g>
    <g
       transform="matrix(0.01194071,0,0,0.01272548,44.30799,39.99902)"
       id="g12774"
       style="opacity:0.32989687">
      <rect
         width="1339.6335"
         height="478.35718"
         x="-1559.2523"
         y="-150.69685"
         id="rect12776"
         style="opacity:0.40206185;color:#000000;fill:url(#linearGradient12782);fill-opacity:1;fill-rule:nonzero;stroke:none;stroke-width:1;marker:none;visibility:visible;display:inline;overflow:visible" />
      <path
         d="m -219.61876,-150.68038 c 0,0 0,478.33079 0,478.33079 142.874166,0.90045 345.40022,-107.16966 345.40014,-239.196175 0,-132.026537 -159.436816,-239.134595 -345.40014,-239.134615 z"
         id="path12778"
         style="opacity:0.40206185;color:#000000;fill:url(#radialGradient12784);fill-opacity:1;fill-rule:nonzero;stroke:none;stroke-width:1;marker:none;visibility:visible;display:inline;overflow:visible" />
      <path
         d="m -1559.2523,-150.68038 c 0,0 0,478.33079 0,478.33079 -142.8742,0.90045 -345.4002,-107.16966 -345.4002,-239.196175 0,-132.026537 159.4368,-239.134595 345.4002,-239.134615 z"
         id="path12780"
         style="opacity:0.40206185;color:#000000;fill:url(#radialGradient12786);fill-opacity:1;fill-rule:nonzero;stroke:none;stroke-width:1;marker:none;visibility:visible;display:inline;overflow:visible" />
    </g>
  </g>
  <g
     id="layer2">
    <path
       d="m 39.875,12.375 -8.1875,2.5 -5.625,-0.25 8.125,-2.25 5.6875,0 z"
       id="path3188"
       style="color:#000000;fill:#c6c6c6;fill-opacity:1;fill-rule:nonzero;stroke:#c4c4c4;stroke-width:1;stroke-linecap:butt;stroke-linejoin:round;stroke-miterlimit:4;stroke-opacity:1;stroke-dashoffset:0;marker:none;visibility:visible;display:inline;overflow:visible;font-family:Bitstream Vera Sans" />
    <path
       d="m 39.875,12.4375 -8.375,2.4375 0,4.5 8.375,-2.875 0,-4.0625 z"
       id="path3168"
       style="color:#000000;fill:url(#linearGradient1696);fill-opacity:1;fill-rule:nonzero;stroke:#7a7a7a;stroke-width:1;stroke-linecap:butt;stroke-linejoin:round;stroke-miterlimit:4;stroke-opacity:1;stroke-dashoffset:0;marker:none;visibility:visible;display:inline;overflow:visible;font-family:Bitstream Vera Sans" />
    <path
       d="M 30.946541,13.125 16.1875,13.045653 c -5.202075,0 -7.5625,3.52325 -7.5625,6.59375 0,2.887974 2.153028,4.946448 3.625,5.46875 l 0,7.141847 c 0,3.470857 2.252357,6.455357 5.4375,6.3125 l 14.84375,0.15625 c 1.899429,0 4.90625,-1.913073 4.90625,-3.8125 l 0,-16.193401 c 0,-3.47994 -2.226812,-5.587849 -6.490959,-5.587849 z"
       id="path3024"
       style="color:#000000;fill:url(#linearGradient1693);fill-opacity:1;fill-rule:nonzero;stroke:#6c6c6c;stroke-width:2;stroke-linecap:butt;stroke-linejoin:miter;stroke-miterlimit:4;stroke-opacity:1;stroke-dasharray:none;stroke-dashoffset:0;marker:none;visibility:visible;display:inline;overflow:visible;font-family:Bitstream Vera Sans" />
    <path
       d="m 7.0590545,14.475766 c 0,0 15.5892855,-0.357143 15.5892855,-0.357143 1.899429,0 3.428572,1.529143 3.428572,3.428572 l 0,16.857143 c 0,1.899428 -1.529143,4.708901 -3.428572,4.708901 L 7.8090545,38.970382 c -3.185143,0.142857 -5.428572,-3.238044 -5.428572,-6.708901 0,0 0,-12.232143 0,-12.232143 -0.1580558,-2.480207 0.942781,-5.250996 4.678572,-5.553572 z"
       id="rect2100"
       style="fill:url(#linearGradient1690);fill-opacity:1;stroke:#6c6c6c;stroke-width:1;stroke-miterlimit:4;stroke-opacity:1" />
    <path
       d="m 7.5565619,15.38216 c 0,0 14.9041811,-0.281802 14.9041811,-0.281802 1.767492,0 2.79267,-0.621267 2.79267,1.146225 l 0,17.5473 c 0,1.767492 -1.422926,4.381815 -3.190418,4.381815 L 8.2544659,38.042764 c -2.9638987,0.132934 -4.9631078,-3.013125 -4.9631078,-6.242892 0,0 0,-11.382482 0,-11.382482 -0.014495,-1.865986 0.081799,-4.665284 4.2652038,-5.03523 z"
       id="path3026"
       style="fill:none;stroke:url(#linearGradient1687);stroke-width:0.93053865;stroke-miterlimit:4;stroke-opacity:0.75141243" />
    <rect
       width="7.075511"
       height="5.9284096"
       rx="1.5035444"
       ry="1.5035446"
       x="4.377378"
       y="24.388432"
       id="rect3297"
       style="color:#000000;fill:url(#linearGradient1682);fill-opacity:1;fill-rule:nonzero;stroke:url(#linearGradient1684);stroke-width:1;stroke-linecap:butt;stroke-linejoin:miter;stroke-miterlimit:4;stroke-opacity:1;stroke-dashoffset:0;marker:none;visibility:visible;display:inline;overflow:visible;font-family:Bitstream Vera Sans" />
    <path
       d="M 30.183978,13.125 16.1875,13.023129 c -4.858325,0.03125 -7.5625,3.52325 -7.5625,6.59375 0,2.887974 2.153028,4.946448 3.625,5.46875 l 0,7.164371 c 0,3.470857 -0.561048,6.17989 5.4375,6.3125 0,0 14.84375,0.15625 14.84375,0.15625 2.001404,0.06163 4.90625,-1.913073 4.90625,-3.8125 l 0,-15.839847 c 0,-3.965396 -2.415466,-6.045877 -7.253522,-5.941403 z"
       id="path2295"
       style="fill:url(#linearGradient1679);fill-opacity:1;stroke:none" />
    <path
       d="m 17.633475,37.570175 c 0.53033,-0.08286 1.224904,-0.390642 1.220864,-1.09476 l -0.07182,-12.517046 c 1.34099,-1.607074 2.30568,-3.766308 1.385184,-6.325129 0,0 16.159903,-0.03883 16.159903,-0.03883 L 36.10664,33.946253 c 0,0 -1.15652,3.725524 -3.712311,3.756504 0,0 -14.760854,-0.132582 -14.760854,-0.132582 z"
       id="path3277"
       style="opacity:0.65573772;color:#000000;fill:url(#linearGradient1676);fill-opacity:1;fill-rule:nonzero;stroke:none;stroke-width:1;marker:none;visibility:visible;display:inline;overflow:visible;font-family:Bitstream Vera Sans" />
    <path
       d="m 19.875,22.5625 a 4.125,4.1875 0 1 1 -8.25,0 4.125,4.1875 0 1 1 8.25,0 z"
       transform="translate(-1.375,-2.890164)"
       id="path2589"
       style="color:#000000;fill:url(#radialGradient1699);fill-opacity:1;fill-rule:nonzero;stroke:#6c6c6c;stroke-width:1;stroke-linecap:butt;stroke-linejoin:miter;stroke-miterlimit:4;stroke-opacity:1;stroke-dashoffset:0;marker:none;visibility:visible;display:inline;overflow:visible;font-family:Bitstream Vera Sans" />
    <path
       d="m 16.5,22.6875 a 1.75,1.8125 0 1 1 -3.5,0 1.75,1.8125 0 1 1 3.5,0 z"
       transform="translate(0.5625,-2.515164)"
       id="path2599"
       style="color:#000000;fill:#ffffff;fill-opacity:0.45762706;fill-rule:nonzero;stroke:none;stroke-width:1;marker:none;visibility:visible;display:inline;overflow:visible;font-family:Bitstream Vera Sans" />
    <path
       d="m 16.5,22.6875 a 1.75,1.8125 0 1 1 -3.5,0 1.75,1.8125 0 1 1 3.5,0 z"
       transform="matrix(0.840316,0,0,0.840316,0.85534,-0.480722)"
       id="path2601"
       style="color:#000000;fill:#ffffff;fill-opacity:1;fill-rule:nonzero;stroke:none;stroke-width:1;marker:none;visibility:visible;display:inline;overflow:visible;font-family:Bitstream Vera Sans" />
    <g
       transform="translate(1.000003,7e-6)"
       id="g3032">
      <g
         transform="translate(0.176777,0.176777)"
         id="g2874"
         style="fill:#ffffff;fill-opacity:1">
        <path
           d="m 4.875,32.5 a 1.125,1.125 0 1 1 -2.25,0 1.125,1.125 0 1 1 2.25,0 z"
           transform="matrix(0.444446,0,0,0.444446,2.83333,18.05551)"
           id="path2876"
           style="color:#000000;fill-rule:nonzero;stroke:none;stroke-width:1;marker:none;visibility:visible;display:inline;overflow:visible;font-family:Bitstream Vera Sans" />
        <path
           d="m 4.875,32.5 a 1.125,1.125 0 1 1 -2.25,0 1.125,1.125 0 1 1 2.25,0 z"
           transform="matrix(0.444446,0,0,0.444446,4.833326,18.0555)"
           id="path2878"
           style="color:#000000;fill-rule:nonzero;stroke:none;stroke-width:1;marker:none;visibility:visible;display:inline;overflow:visible;font-family:Bitstream Vera Sans" />
        <path
           d="m 4.875,32.5 a 1.125,1.125 0 1 1 -2.25,0 1.125,1.125 0 1 1 2.25,0 z"
           transform="matrix(0.444446,0,0,0.444446,6.833326,18.05551)"
           id="path2880"
           style="color:#000000;fill-rule:nonzero;stroke:none;stroke-width:1;marker:none;visibility:visible;display:inline;overflow:visible;font-family:Bitstream Vera Sans" />
        <path
           d="m 4.875,32.5 a 1.125,1.125 0 1 1 -2.25,0 1.125,1.125 0 1 1 2.25,0 z"
           transform="matrix(0.444446,0,0,0.444446,8.833326,18.05551)"
           id="path2882"
           style="color:#000000;fill-rule:nonzero;stroke:none;stroke-width:1;marker:none;visibility:visible;display:inline;overflow:visible;font-family:Bitstream Vera Sans" />
        <path
           d="m 4.875,32.5 a 1.125,1.125 0 1 1 -2.25,0 1.125,1.125 0 1 1 2.25,0 z"
           transform="matrix(0.444446,0,0,0.444446,7.833329,19.0555)"
           id="path2884"
           style="color:#000000;fill-rule:nonzero;stroke:none;stroke-width:1;marker:none;visibility:visible;display:inline;overflow:visible;font-family:Bitstream Vera Sans" />
        <path
           d="m 4.875,32.5 a 1.125,1.125 0 1 1 -2.25,0 1.125,1.125 0 1 1 2.25,0 z"
           transform="matrix(0.444446,0,0,0.444446,5.833329,19.05551)"
           id="path2886"
           style="color:#000000;fill-rule:nonzero;stroke:none;stroke-width:1;marker:none;visibility:visible;display:inline;overflow:visible;font-family:Bitstream Vera Sans" />
        <path
           d="m 4.875,32.5 a 1.125,1.125 0 1 1 -2.25,0 1.125,1.125 0 1 1 2.25,0 z"
           transform="matrix(0.444446,0,0,0.444446,3.833329,19.05551)"
           id="path2888"
           style="color:#000000;fill-rule:nonzero;stroke:none;stroke-width:1;marker:none;visibility:visible;display:inline;overflow:visible;font-family:Bitstream Vera Sans" />
        <path
           d="m 4.875,32.5 a 1.125,1.125 0 1 1 -2.25,0 1.125,1.125 0 1 1 2.25,0 z"
           transform="matrix(0.444446,0,0,0.444446,2.833326,20.0555)"
           id="path2890"
           style="color:#000000;fill-rule:nonzero;stroke:none;stroke-width:1;marker:none;visibility:visible;display:inline;overflow:visible;font-family:Bitstream Vera Sans" />
        <path
           d="m 4.875,32.5 a 1.125,1.125 0 1 1 -2.25,0 1.125,1.125 0 1 1 2.25,0 z"
           transform="matrix(0.444446,0,0,0.444446,4.833326,20.05551)"
           id="path2892"
           style="color:#000000;fill-rule:nonzero;stroke:none;stroke-width:1;marker:none;visibility:visible;display:inline;overflow:visible;font-family:Bitstream Vera Sans" />
        <path
           d="m 4.875,32.5 a 1.125,1.125 0 1 1 -2.25,0 1.125,1.125 0 1 1 2.25,0 z"
           transform="matrix(0.444446,0,0,0.444446,6.833326,20.05551)"
           id="path2894"
           style="color:#000000;fill-rule:nonzero;stroke:none;stroke-width:1;marker:none;visibility:visible;display:inline;overflow:visible;font-family:Bitstream Vera Sans" />
        <path
           d="m 4.875,32.5 a 1.125,1.125 0 1 1 -2.25,0 1.125,1.125 0 1 1 2.25,0 z"
           transform="matrix(0.444446,0,0,0.444446,8.833326,20.05551)"
           id="path2896"
           style="color:#000000;fill-rule:nonzero;stroke:none;stroke-width:1;marker:none;visibility:visible;display:inline;overflow:visible;font-family:Bitstream Vera Sans" />
        <path
           d="m 4.875,32.5 a 1.125,1.125 0 1 1 -2.25,0 1.125,1.125 0 1 1 2.25,0 z"
           transform="matrix(0.444446,0,0,0.444446,7.833329,21.05551)"
           id="path2898"
           style="color:#000000;fill-rule:nonzero;stroke:none;stroke-width:1;marker:none;visibility:visible;display:inline;overflow:visible;font-family:Bitstream Vera Sans" />
        <path
           d="m 4.875,32.5 a 1.125,1.125 0 1 1 -2.25,0 1.125,1.125 0 1 1 2.25,0 z"
           transform="matrix(0.444446,0,0,0.444446,8.833326,22.0555)"
           id="path2900"
           style="color:#000000;fill-rule:nonzero;stroke:none;stroke-width:1;marker:none;visibility:visible;display:inline;overflow:visible;font-family:Bitstream Vera Sans" />
        <path
           d="m 4.875,32.5 a 1.125,1.125 0 1 1 -2.25,0 1.125,1.125 0 1 1 2.25,0 z"
           transform="matrix(0.444446,0,0,0.444446,6.833329,22.0555)"
           id="path2902"
           style="color:#000000;fill-rule:nonzero;stroke:none;stroke-width:1;marker:none;visibility:visible;display:inline;overflow:visible;font-family:Bitstream Vera Sans" />
        <path
           d="m 4.875,32.5 a 1.125,1.125 0 1 1 -2.25,0 1.125,1.125 0 1 1 2.25,0 z"
           transform="matrix(0.444446,0,0,0.444446,5.833329,21.05551)"
           id="path2904"
           style="color:#000000;fill-rule:nonzero;stroke:none;stroke-width:1;marker:none;visibility:visible;display:inline;overflow:visible;font-family:Bitstream Vera Sans" />
        <path
           d="m 4.875,32.5 a 1.125,1.125 0 1 1 -2.25,0 1.125,1.125 0 1 1 2.25,0 z"
           transform="matrix(0.444446,0,0,0.444446,4.833326,22.0555)"
           id="path2906"
           style="color:#000000;fill-rule:nonzero;stroke:none;stroke-width:1;marker:none;visibility:visible;display:inline;overflow:visible;font-family:Bitstream Vera Sans" />
        <path
           d="m 4.875,32.5 a 1.125,1.125 0 1 1 -2.25,0 1.125,1.125 0 1 1 2.25,0 z"
           transform="matrix(0.444446,0,0,0.444446,3.833326,21.05551)"
           id="path2908"
           style="color:#000000;fill-rule:nonzero;stroke:none;stroke-width:1;marker:none;visibility:visible;display:inline;overflow:visible;font-family:Bitstream Vera Sans" />
      </g>
      <g
         id="g2995">
        <path
           d="m 4.875,32.5 a 1.125,1.125 0 1 1 -2.25,0 1.125,1.125 0 1 1 2.25,0 z"
           transform="matrix(0.444446,0,0,0.444446,2.83333,18.05551)"
           id="path2603"
           style="color:#000000;fill:url(#linearGradient1701);fill-opacity:1;fill-rule:nonzero;stroke:none;stroke-width:1;marker:none;visibility:visible;display:inline;overflow:visible;font-family:Bitstream Vera Sans" />
        <path
           d="m 4.875,32.5 a 1.125,1.125 0 1 1 -2.25,0 1.125,1.125 0 1 1 2.25,0 z"
           transform="matrix(0.444446,0,0,0.444446,4.833326,18.0555)"
           id="path2605"
           style="color:#000000;fill:url(#linearGradient1703);fill-opacity:1;fill-rule:nonzero;stroke:none;stroke-width:1;marker:none;visibility:visible;display:inline;overflow:visible;font-family:Bitstream Vera Sans" />
        <path
           d="m 4.875,32.5 a 1.125,1.125 0 1 1 -2.25,0 1.125,1.125 0 1 1 2.25,0 z"
           transform="matrix(0.444446,0,0,0.444446,6.833326,18.05551)"
           id="path2607"
           style="color:#000000;fill:url(#linearGradient1705);fill-opacity:1;fill-rule:nonzero;stroke:none;stroke-width:1;marker:none;visibility:visible;display:inline;overflow:visible;font-family:Bitstream Vera Sans" />
        <path
           d="m 4.875,32.5 a 1.125,1.125 0 1 1 -2.25,0 1.125,1.125 0 1 1 2.25,0 z"
           transform="matrix(0.444446,0,0,0.444446,8.833326,18.05551)"
           id="path2609"
           style="color:#000000;fill:url(#linearGradient1707);fill-opacity:1;fill-rule:nonzero;stroke:none;stroke-width:1;marker:none;visibility:visible;display:inline;overflow:visible;font-family:Bitstream Vera Sans" />
        <path
           d="m 4.875,32.5 a 1.125,1.125 0 1 1 -2.25,0 1.125,1.125 0 1 1 2.25,0 z"
           transform="matrix(0.444446,0,0,0.444446,7.833329,19.0555)"
           id="path2611"
           style="color:#000000;fill:url(#linearGradient1709);fill-opacity:1;fill-rule:nonzero;stroke:none;stroke-width:1;marker:none;visibility:visible;display:inline;overflow:visible;font-family:Bitstream Vera Sans" />
        <path
           d="m 4.875,32.5 a 1.125,1.125 0 1 1 -2.25,0 1.125,1.125 0 1 1 2.25,0 z"
           transform="matrix(0.444446,0,0,0.444446,5.833329,19.05551)"
           id="path2613"
           style="color:#000000;fill:url(#linearGradient1711);fill-opacity:1;fill-rule:nonzero;stroke:none;stroke-width:1;marker:none;visibility:visible;display:inline;overflow:visible;font-family:Bitstream Vera Sans" />
        <path
           d="m 4.875,32.5 a 1.125,1.125 0 1 1 -2.25,0 1.125,1.125 0 1 1 2.25,0 z"
           transform="matrix(0.444446,0,0,0.444446,3.833329,19.05551)"
           id="path2615"
           style="color:#000000;fill:url(#linearGradient1713);fill-opacity:1;fill-rule:nonzero;stroke:none;stroke-width:1;marker:none;visibility:visible;display:inline;overflow:visible;font-family:Bitstream Vera Sans" />
        <path
           d="m 4.875,32.5 a 1.125,1.125 0 1 1 -2.25,0 1.125,1.125 0 1 1 2.25,0 z"
           transform="matrix(0.444446,0,0,0.444446,2.833326,20.0555)"
           id="path2619"
           style="color:#000000;fill:url(#linearGradient1715);fill-opacity:1;fill-rule:nonzero;stroke:none;stroke-width:1;marker:none;visibility:visible;display:inline;overflow:visible;font-family:Bitstream Vera Sans" />
        <path
           d="m 4.875,32.5 a 1.125,1.125 0 1 1 -2.25,0 1.125,1.125 0 1 1 2.25,0 z"
           transform="matrix(0.444446,0,0,0.444446,4.833326,20.05551)"
           id="path2621"
           style="color:#000000;fill:url(#linearGradient1717);fill-opacity:1;fill-rule:nonzero;stroke:none;stroke-width:1;marker:none;visibility:visible;display:inline;overflow:visible;font-family:Bitstream Vera Sans" />
        <path
           d="m 4.875,32.5 a 1.125,1.125 0 1 1 -2.25,0 1.125,1.125 0 1 1 2.25,0 z"
           transform="matrix(0.444446,0,0,0.444446,6.833326,20.05551)"
           id="path2623"
           style="color:#000000;fill:url(#linearGradient1719);fill-opacity:1;fill-rule:nonzero;stroke:none;stroke-width:1;marker:none;visibility:visible;display:inline;overflow:visible;font-family:Bitstream Vera Sans" />
        <path
           d="m 4.875,32.5 a 1.125,1.125 0 1 1 -2.25,0 1.125,1.125 0 1 1 2.25,0 z"
           transform="matrix(0.444446,0,0,0.444446,8.833326,20.05551)"
           id="path2625"
           style="color:#000000;fill:url(#linearGradient1721);fill-opacity:1;fill-rule:nonzero;stroke:none;stroke-width:1;marker:none;visibility:visible;display:inline;overflow:visible;font-family:Bitstream Vera Sans" />
        <path
           d="m 4.875,32.5 a 1.125,1.125 0 1 1 -2.25,0 1.125,1.125 0 1 1 2.25,0 z"
           transform="matrix(0.444446,0,0,0.444446,7.833329,21.05551)"
           id="path2627"
           style="color:#000000;fill:url(#linearGradient1723);fill-opacity:1;fill-rule:nonzero;stroke:none;stroke-width:1;marker:none;visibility:visible;display:inline;overflow:visible;font-family:Bitstream Vera Sans" />
        <path
           d="m 4.875,32.5 a 1.125,1.125 0 1 1 -2.25,0 1.125,1.125 0 1 1 2.25,0 z"
           transform="matrix(0.444446,0,0,0.444446,8.833326,22.0555)"
           id="path2629"
           style="color:#000000;fill:url(#linearGradient1725);fill-opacity:1;fill-rule:nonzero;stroke:none;stroke-width:1;marker:none;visibility:visible;display:inline;overflow:visible;font-family:Bitstream Vera Sans" />
        <path
           d="m 4.875,32.5 a 1.125,1.125 0 1 1 -2.25,0 1.125,1.125 0 1 1 2.25,0 z"
           transform="matrix(0.444446,0,0,0.444446,6.833329,22.0555)"
           id="path2631"
           style="color:#000000;fill:url(#linearGradient1727);fill-opacity:1;fill-rule:nonzero;stroke:none;stroke-width:1;marker:none;visibility:visible;display:inline;overflow:visible;font-family:Bitstream Vera Sans" />
        <path
           d="m 4.875,32.5 a 1.125,1.125 0 1 1 -2.25,0 1.125,1.125 0 1 1 2.25,0 z"
           transform="matrix(0.444446,0,0,0.444446,5.833329,21.05551)"
           id="path2633"
           style="color:#000000;fill:url(#linearGradient1729);fill-opacity:1;fill-rule:nonzero;stroke:none;stroke-width:1;marker:none;visibility:visible;display:inline;overflow:visible;font-family:Bitstream Vera Sans" />
        <path
           d="m 4.875,32.5 a 1.125,1.125 0 1 1 -2.25,0 1.125,1.125 0 1 1 2.25,0 z"
           transform="matrix(0.444446,0,0,0.444446,4.833326,22.0555)"
           id="path2635"
           style="color:#000000;fill:url(#linearGradient1731);fill-opacity:1;fill-rule:nonzero;stroke:none;stroke-width:1;marker:none;visibility:visible;display:inline;overflow:visible;font-family:Bitstream Vera Sans" />
        <path
           d="m 4.875,32.5 a 1.125,1.125 0 1 1 -2.25,0 1.125,1.125 0 1 1 2.25,0 z"
           transform="matrix(0.444446,0,0,0.444446,3.833326,21.05551)"
           id="path2637"
           style="color:#000000;fill:url(#linearGradient1733);fill-opacity:1;fill-rule:nonzero;stroke:none;stroke-width:1;marker:none;visibility:visible;display:inline;overflow:visible;font-family:Bitstream Vera Sans" />
      </g>
    </g>
    <rect
       width="4"
       height="3"
       rx="0.50354433"
       ry="0.50354433"
       x="13"
       y="28"
       id="rect3014"
       style="color:#000000;fill:url(#linearGradient1633);fill-opacity:1;fill-rule:nonzero;stroke:none;stroke-width:2;marker:none;visibility:visible;display:inline;overflow:visible;font-family:Bitstream Vera Sans" />
    <path
       d="m 19.234835,37.206242 c 0,0 0,-12.859835 0,-12.859835 0.767696,-0.805786 1.186439,-1.483 1.592229,-2.723146 0,0 13.500601,0 13.500601,0 0,0 -12.875,0.714263 -12.875,0.714263 -0.338388,0.7848 -0.900428,1.670495 -1.449524,2.284772 0,0 -0.768306,12.583946 -0.768306,12.583946 z"
       id="path1466"
       style="fill:#000000;fill-opacity:0.10734456;fill-rule:evenodd;stroke:none" />
    <path
       d="M 30.852943,13.627626 16.56414,13.509265 c -4.590951,0.02953 -7.1463046,3.550322 -7.1463046,6.451839 0,2.729037 2.0345376,4.674225 3.4255016,5.167783 l 0,6.770086 c 0,3.279841 -0.530171,6.016562 5.138252,6.141874 0,0 14.026837,0.147651 14.026837,0.147651 2.244811,0.01405 4.945598,-1.410042 4.901404,-3.77946 l 0,-15.55118 c 0,-3.066581 -1.990811,-5.230232 -6.056887,-5.230232 z"
       id="path2240"
       style="opacity:0.63387978;fill:none;stroke:url(#linearGradient1629);stroke-width:1;stroke-miterlimit:4;stroke-opacity:1" />
    <g
       transform="matrix(1,0,-0.06156892,1,1.77654,0)"
       id="g3216">
      <rect
         width="5.0357141"
         height="7.0985928"
         rx="0.28571433"
         ry="0.28517434"
         x="20.82843"
         y="25.444061"
         id="rect2108"
         style="color:#000000;fill:#e0e0e0;fill-opacity:1;fill-rule:nonzero;stroke:#6c6c6c;stroke-width:0.88373333;stroke-linecap:butt;stroke-linejoin:miter;stroke-miterlimit:4;stroke-opacity:1;stroke-dashoffset:0;marker:none;visibility:visible;display:inline;overflow:visible;font-family:Bitstream Vera Sans" />
      <rect
         width="21.545832"
         height="16.267857"
         rx="1.2857143"
         ry="1.2832843"
         x="23.79928"
         y="20.720566"
         id="rect2096"
         style="color:#000000;fill:url(#linearGradient1605);fill-opacity:1;fill-rule:nonzero;stroke:#6c6c6c;stroke-width:1;stroke-linecap:butt;stroke-linejoin:miter;stroke-miterlimit:4;stroke-opacity:1;stroke-dasharray:none;stroke-dashoffset:0;marker:none;visibility:visible;display:inline;overflow:visible;font-family:Bitstream Vera Sans" />
      <rect
         width="16.053572"
         height="12.053572"
         rx="0.27234393"
         ry="0.27182922"
         x="25.938265"
         y="22.881281"
         id="rect2098"
         style="fill:url(#linearGradient1607);fill-opacity:1;stroke:none" />
      <rect
         width="18.296387"
         height="14.230534"
         rx="0.0071788891"
         ry="0.0071653211"
         x="24.837126"
         y="21.748661"
         id="rect3030"
         style="color:#000000;fill:none;stroke:url(#linearGradient1609);stroke-width:1;stroke-linecap:round;stroke-linejoin:round;stroke-miterlimit:4;stroke-opacity:1;stroke-dashoffset:0;marker:none;visibility:visible;display:inline;overflow:visible;font-family:Bitstream Vera Sans" />
      <g
         transform="translate(-0.707105,0)"
         id="g3201" />
      <path
         d="m 27.375,23.5 c -0.150879,0 -0.303229,0.130656 -0.3125,0.28125 l -0.5625,9.25 C 33.815243,31.681306 33.85748,27.120605 41.34375,26 l 0.125,-2.21875 C 41.478022,23.630657 41.36963,23.5 41.21875,23.5 l -13.84375,0 z"
         transform="matrix(1,0,0.06156892,1,-1.77654,0)"
         id="rect3258"
         style="opacity:0.15300544;fill:url(#linearGradient1611);fill-opacity:1;stroke:none" />
    </g>
    <path
       d="m 20.948038,32.973981 1.988738,2.209709 0.176776,-2.253903 -2.165514,0.04419 z m 3.623923,4.507806 0.530329,1.149048 c 0,0 7.336233,0.08839 7.336233,0.08839 1.814182,0.08349 3.379744,-1.237436 3.379744,-1.237436 l -11.246306,0 z"
       id="path3234"
       style="fill:#000000;fill-opacity:0.25988704;fill-rule:evenodd;stroke:none" />
    <path
       d="m 13.114621,25.495849 c 3.189332,0.09113 5.034588,-0.512569 5.888873,-1.902208 -1.230171,2.597027 -5.888873,2.938742 -5.888873,2.938742 l 0,-1.036534 z"
       id="path3236"
       style="fill:url(#linearGradient1618);fill-opacity:1;fill-rule:evenodd;stroke:none" />
    <path
       d="m 21.214039,15.323636 11.57068,0"
       id="path3246"
       style="fill:none;stroke:#ffffff;stroke-width:1.00000048px;stroke-linecap:round;stroke-linejoin:round;stroke-opacity:0.62711864" />
    <path
       d="m 20.064156,18.345709 a 0.83968931,0.83968931 0 1 1 -1.679379,0 0.83968931,0.83968931 0 1 1 1.679379,0 z"
       transform="matrix(1.321444,0,0,1.321444,-6.515399,-9.03965)"
       id="path3248"
       style="color:#000000;fill:#ffffff;fill-opacity:1;fill-rule:nonzero;stroke:none;stroke-width:1;marker:none;visibility:visible;display:inline;overflow:visible;font-family:Bitstream Vera Sans" />
  </g>
</svg>
