<?xml version="1.0" encoding="UTF-8" standalone="no"?>
<!-- Created with Inkscape (http://www.inkscape.org/) -->

<svg
   xmlns:svg="http://www.w3.org/2000/svg"
   xmlns="http://www.w3.org/2000/svg"
   xmlns:xlink="http://www.w3.org/1999/xlink"
   version="1.1"
   width="48"
   height="48"
   id="svg2913">
  <defs
     id="defs3">
    <radialGradient
       cx="605.71429"
       cy="486.64789"
       r="117.14286"
       fx="605.71429"
       fy="486.64789"
       id="radialGradient6719"
       xlink:href="#linearGradient5060"
       gradientUnits="userSpaceOnUse"
       gradientTransform="matrix(-2.774389,0,0,1.969706,112.7623,-872.8854)" />
    <linearGradient
       id="linearGradient5060">
      <stop
         id="stop5062"
         style="stop-color:#000000;stop-opacity:1"
         offset="0" />
      <stop
         id="stop5064"
         style="stop-color:#000000;stop-opacity:0"
         offset="1" />
    </linearGradient>
    <radialGradient
       cx="605.71429"
       cy="486.64789"
       r="117.14286"
       fx="605.71429"
       fy="486.64789"
       id="radialGradient6717"
       xlink:href="#linearGradient5060"
       gradientUnits="userSpaceOnUse"
       gradientTransform="matrix(2.774389,0,0,1.969706,-1891.633,-872.8854)" />
    <linearGradient
       id="linearGradient5048">
      <stop
         id="stop5050"
         style="stop-color:#000000;stop-opacity:0"
         offset="0" />
      <stop
         id="stop5056"
         style="stop-color:#000000;stop-opacity:1"
         offset="0.5" />
      <stop
         id="stop5052"
         style="stop-color:#000000;stop-opacity:0"
         offset="1" />
    </linearGradient>
    <linearGradient
       x1="302.85715"
       y1="366.64789"
       x2="302.85715"
       y2="609.50507"
       id="linearGradient6715"
       xlink:href="#linearGradient5048"
       gradientUnits="userSpaceOnUse"
       gradientTransform="matrix(2.774389,0,0,1.969706,-1892.179,-872.8854)" />
    <linearGradient
       id="linearGradient2351">
      <stop
         id="stop2353"
         style="stop-color:#656565;stop-opacity:1"
         offset="0" />
      <stop
         id="stop2355"
         style="stop-color:#656565;stop-opacity:0"
         offset="1" />
    </linearGradient>
    <linearGradient
       id="linearGradient2345">
      <stop
         id="stop2347"
         style="stop-color:#d9d9d9;stop-opacity:1"
         offset="0" />
      <stop
         id="stop2349"
         style="stop-color:#eeeeee;stop-opacity:0"
         offset="1" />
    </linearGradient>
    <linearGradient
       id="linearGradient2329">
      <stop
         id="stop2331"
         style="stop-color:#000000;stop-opacity:1"
         offset="0" />
      <stop
         id="stop2333"
         style="stop-color:#000000;stop-opacity:0"
         offset="1" />
    </linearGradient>
    <linearGradient
       id="linearGradient2315">
      <stop
         id="stop2317"
         style="stop-color:#656565;stop-opacity:1"
         offset="0" />
      <stop
         id="stop2319"
         style="stop-color:#656565;stop-opacity:0"
         offset="1" />
    </linearGradient>
    <linearGradient
       id="linearGradient2165">
      <stop
         id="stop2167"
         style="stop-color:#000000;stop-opacity:1"
         offset="0" />
      <stop
         id="stop2169"
         style="stop-color:#000000;stop-opacity:0"
         offset="1" />
    </linearGradient>
    <linearGradient
       x1="14.9966"
       y1="11.1885"
       x2="32.511002"
       y2="34.307499"
       id="aigrd1"
       gradientUnits="userSpaceOnUse">
      <stop
         id="stop3034"
         style="stop-color:#ebebeb;stop-opacity:1"
         offset="0" />
      <stop
         id="stop3036"
         style="stop-color:#ffffff;stop-opacity:1"
         offset="0.5" />
      <stop
         id="stop3038"
         style="stop-color:#ebebeb;stop-opacity:1"
         offset="1" />
    </linearGradient>
    <linearGradient
       id="linearGradient6036">
      <stop
         id="stop6038"
         style="stop-color:#ffffff;stop-opacity:1"
         offset="0" />
      <stop
         id="stop6040"
         style="stop-color:#ffffff;stop-opacity:0"
         offset="1" />
    </linearGradient>
    <linearGradient
       id="linearGradient4264">
      <stop
         id="stop4266"
         style="stop-color:#000000;stop-opacity:1"
         offset="0" />
      <stop
         id="stop4268"
         style="stop-color:#000000;stop-opacity:0"
         offset="1" />
    </linearGradient>
    <linearGradient
       id="linearGradient4254">
      <stop
         id="stop4256"
         style="stop-color:#ffffff;stop-opacity:1"
         offset="0" />
      <stop
         id="stop4258"
         style="stop-color:#ffffff;stop-opacity:0"
         offset="1" />
    </linearGradient>
    <linearGradient
       id="linearGradient4244">
      <stop
         id="stop4246"
         style="stop-color:#e4e4e4;stop-opacity:1"
         offset="0" />
      <stop
         id="stop4248"
         style="stop-color:#d3d3d3;stop-opacity:1"
         offset="1" />
    </linearGradient>
    <linearGradient
       id="linearGradient4228">
      <stop
         id="stop4230"
         style="stop-color:#bbbbbb;stop-opacity:1"
         offset="0" />
      <stop
         id="stop4232"
         style="stop-color:#9f9f9f;stop-opacity:1"
         offset="1" />
    </linearGradient>
    <linearGradient
       x1="7.6046205"
       y1="28.481176"
       x2="36.183067"
       y2="40.943935"
       id="linearGradient4234"
       xlink:href="#linearGradient4228"
       gradientUnits="userSpaceOnUse"
       gradientTransform="translate(0,-1.944537)" />
    <radialGradient
       cx="15.571491"
       cy="2.958519"
       r="20.935818"
       fx="15.571491"
       fy="2.958519"
       id="radialGradient4250"
       xlink:href="#linearGradient4244"
       gradientUnits="userSpaceOnUse"
       gradientTransform="matrix(1.286242,0.781698,-0.710782,1.169552,-2.354348,-6.821398)" />
    <linearGradient
       x1="12.378357"
       y1="4.433136"
       x2="44.0961"
       y2="47.620636"
       id="linearGradient4260"
       xlink:href="#linearGradient4254"
       gradientUnits="userSpaceOnUse"
       gradientTransform="translate(0,-1.944537)" />
    <radialGradient
       cx="23.201941"
       cy="27.096155"
       r="23.555494"
       fx="23.201941"
       fy="27.096155"
       id="radialGradient4270"
       xlink:href="#linearGradient4264"
       gradientUnits="userSpaceOnUse"
       gradientTransform="matrix(1,0,0,0.651032,0,9.455693)" />
    <linearGradient
       x1="14.9966"
       y1="11.1885"
       x2="32.511002"
       y2="34.307499"
       id="linearGradient2155"
       xlink:href="#aigrd1"
       gradientUnits="userSpaceOnUse"
       gradientTransform="matrix(0.952531,0,0,0.656725,1.345471,19.22026)" />
    <linearGradient
       x1="10.50172"
       y1="3.6100161"
       x2="48.798885"
       y2="54.698483"
       id="linearGradient2161"
       xlink:href="#linearGradient6036"
       gradientUnits="userSpaceOnUse"
       gradientTransform="matrix(0.738933,0,0,0.509459,6.215767,21.99197)" />
    <radialGradient
       cx="24.218407"
       cy="33.769478"
       r="17.67767"
       fx="24.218407"
       fy="33.769478"
       id="radialGradient2171"
       xlink:href="#linearGradient2165"
       gradientUnits="userSpaceOnUse"
       gradientTransform="matrix(1,0,0,0.695,0,10.29969)" />
    <linearGradient
       x1="24.306797"
       y1="33.693432"
       x2="24.306797"
       y2="37.609333"
       id="linearGradient2321"
       xlink:href="#linearGradient2351"
       gradientUnits="userSpaceOnUse" />
    <linearGradient
       x1="23.375"
       y1="28.433596"
       x2="23.375"
       y2="32.938416"
       id="linearGradient2335"
       xlink:href="#linearGradient2329"
       gradientUnits="userSpaceOnUse" />
    <linearGradient
       x1="23.375"
       y1="28.433596"
       x2="23.375"
       y2="32.938416"
       id="linearGradient2337"
       xlink:href="#linearGradient2329"
       gradientUnits="userSpaceOnUse" />
    <linearGradient
       x1="24.306797"
       y1="32.790924"
       x2="24.306797"
       y2="34.201233"
       id="linearGradient2341"
       xlink:href="#linearGradient2315"
       gradientUnits="userSpaceOnUse"
       gradientTransform="matrix(1,0,0,0.799429,0,6.604619)" />
    <linearGradient
       x1="26.332899"
       y1="34.172115"
       x2="26.193645"
       y2="21.987923"
       id="linearGradient2343"
       xlink:href="#linearGradient2345"
       gradientUnits="userSpaceOnUse"
       gradientTransform="matrix(0.800126,0,0,0.551649,4.725541,20.59938)" />
  </defs>
  <g
     id="layer2">
    <g
       transform="matrix(0.0245274,0,0,0.02086758,45.69054,34.82775)"
       id="g6707">
      <rect
         width="1339.6335"
         height="478.35718"
         x="-1559.2523"
         y="-150.69685"
         id="rect6709"
         style="opacity:0.40206185;color:#000000;fill:url(#linearGradient6715);fill-opacity:1;fill-rule:nonzero;stroke:none;stroke-width:1;marker:none;visibility:visible;display:inline;overflow:visible" />
      <path
         d="m -219.61876,-150.68038 c 0,0 0,478.33079 0,478.33079 142.874166,0.90045 345.40022,-107.16966 345.40014,-239.196175 0,-132.026537 -159.436816,-239.134595 -345.40014,-239.134615 z"
         id="path6711"
         style="opacity:0.40206185;color:#000000;fill:url(#radialGradient6717);fill-opacity:1;fill-rule:nonzero;stroke:none;stroke-width:1;marker:none;visibility:visible;display:inline;overflow:visible" />
      <path
         d="m -1559.2523,-150.68038 c 0,0 0,478.33079 0,478.33079 -142.8742,0.90045 -345.4002,-107.16966 -345.4002,-239.196175 0,-132.026537 159.4368,-239.134595 345.4002,-239.134615 z"
         id="path6713"
         style="opacity:0.40206185;color:#000000;fill:url(#radialGradient6719);fill-opacity:1;fill-rule:nonzero;stroke:none;stroke-width:1;marker:none;visibility:visible;display:inline;overflow:visible" />
    </g>
    <path
       d="m 11.28569,6.0180852 c -0.625,0 -1.031249,0.2901802 -1.281248,0.843753 -10e-7,0 -6.4687505,17.1035638 -6.4687505,17.1035638 0,0 -0.25,0.671559 -0.25,1.78125 0,0 0,9.649968 0,9.649968 0,1.082613 0.6577855,1.625002 1.65625,1.625 l 38.5624985,0 c 0.984853,0 1.59375,-0.71818 1.59375,-1.84375 l 0,-9.649968 c 0,0 0.105963,-0.770423 -0.09375,-1.3125 L 38.28569,7.0180888 C 38.101165,6.506182 37.648785,6.0299905 37.16069,6.0180852 l -25.875,0 z"
       id="path4196"
       style="fill:none;stroke:#535353;stroke-width:2;stroke-linecap:round;stroke-linejoin:round;stroke-miterlimit:4;stroke-opacity:1;stroke-dasharray:none" />
    <path
       d="m 41.896076,33.769478 a 17.67767,12.28598 0 1 1 -35.3553388,0 17.67767,12.28598 0 1 1 35.3553388,0 z"
       transform="translate(0.883883,1.260942e-6)"
       id="path2163"
       style="opacity:0.56571428;color:#000000;fill:url(#radialGradient2171);fill-opacity:1;fill-rule:evenodd;stroke:none;stroke-width:1;marker:none;visibility:visible;display:inline;overflow:visible" />
    <path
       d="m 3.2735915,25.052276 0.7646021,-0.692215 37.6096894,0.0625 3.462407,0.317298 0,10.438532 c 0,1.125569 -0.607018,1.843331 -1.591871,1.843331 l -38.5829876,0 c -0.9984647,0 -1.6618399,-0.542051 -1.6618399,-1.624664 l 0,-10.344782 z"
       id="path4170"
       style="fill:url(#linearGradient4234);fill-opacity:1;fill-rule:evenodd;stroke:none" />
    <path
       d="m 3.5490842,23.969868 c -0.7142857,1.464286 -6.156e-4,2.392857 1.0357143,2.392857 0,0 38.9999985,0 38.9999985,0 1.119047,-0.02381 1.845238,-1.011905 1.428571,-2.142858 L 38.299082,7.0091618 C 38.114558,6.497255 37.64432,6.0210632 37.156225,6.0091582 l -25.857142,0 c -0.625,0 -1.035714,0.3035732 -1.285713,0.857146 0,0 -6.4642858,17.1035638 -6.4642858,17.1035638 z"
       id="path3093"
       style="fill:url(#radialGradient4250);fill-opacity:1;fill-rule:evenodd;stroke:none" />
    <path
       d="m 44.796162,23.684152 c 0.06352,1.249974 -0.414003,2.31584 -1.322116,2.34375 0,0 -38.1187164,-1e-6 -38.1187163,0 -1.2892319,0 -1.867736,-0.324947 -2.0840507,-0.868056 0.091761,0.944332 0.8258174,1.649306 2.0840507,1.649306 -1e-7,-1e-6 38.1187163,0 38.1187163,0 1.076007,-0.03307 1.752805,-1.424024 1.352164,-2.994791 l -0.03005,-0.130209 z"
       id="path4201"
       style="fill:#ffffff;fill-opacity:1;fill-rule:evenodd;stroke:none" />
    <path
       d="m 11.642515,6.4711801 c -0.601692,0 -0.992791,0.2793586 -1.233466,0.8122873 -10e-7,0 -6.4150149,16.5907286 -6.4150149,16.5907286 0,0 -0.2406768,0.646515 -0.2406768,1.714823 0,0 0,9.290096 0,9.290096 0,1.35474 0.4440561,1.626899 1.5944841,1.626899 l 37.6869046,0 c 1.323126,0 1.534316,-0.316397 1.534316,-1.837492 l 0,-9.290096 c 0,0 0.10201,-0.741691 -0.09025,-1.263553 L 37.885616,7.308891 C 37.707973,6.8160745 37.334964,6.4826414 36.865071,6.4711801 l -25.222556,0 z"
       id="path4252"
       style="fill:none;stroke:url(#linearGradient4260);stroke-width:1.00000024;stroke-linecap:round;stroke-linejoin:round;stroke-miterlimit:4;stroke-opacity:1;stroke-dasharray:none" />
    <g
       transform="matrix(0.933652,0,0,0.933652,1.612716,-0.367774)"
       id="g2142">
      <rect
         width="37.930714"
         height="3.8650389"
         x="5.3414402"
         y="32.363384"
         id="rect2151"
         style="color:#000000;fill:url(#linearGradient2321);fill-opacity:1;fill-rule:evenodd;stroke:none;stroke-width:1;marker:none;visibility:visible;display:inline;overflow:visible" />
      <path
         d="m 7.9921136,31.810344 c -0.274935,0.831022 -0.46875,1.703398 -0.46875,2.59375 -1e-6,6.370233 7.4479484,11.46875 16.6874994,11.46875 9.23955,0 16.656251,-5.098517 16.656251,-11.46875 0,-0.886583 -0.164823,-1.765951 -0.4375,-2.59375 l -15.562501,0 c 1.839817,0.245167 3.34375,1.259355 3.34375,2.59375 0,1.510468 -1.809179,2.75 -4,2.75 -2.190822,0 -4,-1.239532 -4,-2.75 1e-6,-1.334395 1.503933,-2.348583 3.34375,-2.59375 l -15.5624994,0 z"
         id="path3040"
         style="fill:url(#linearGradient2155);fill-rule:nonzero;stroke:none" />
      <path
         d="m 7.8358636,32.341594 c -0.172554,0.665807 -0.3125,1.361287 -0.3125,2.0625 0,6.370233 7.4479484,11.46875 16.6874994,11.46875 9.23955,0 16.656251,-5.098517 16.656251,-11.46875 0,-0.701213 -0.139946,-1.396693 -0.3125,-2.0625 l -32.7187504,0 z"
         id="path3049"
         style="fill:url(#linearGradient2343);fill-rule:nonzero;stroke:#808080;stroke-miterlimit:4;stroke-opacity:1" />
      <path
         d="m 16.572139,31.835312 c -0.773487,0.919977 -1.324956,1.459319 -1.324956,2.587596 -10e-7,3.473033 4.110394,6.206372 9.030621,6.206372 5.037376,-1e-6 9.030621,-2.814107 9.030621,-6.206372 0,-1.144851 -0.586243,-1.67305 -1.359823,-2.587596 l -5.376955,0 c 1.677886,0.543429 2.622441,1.236937 2.622441,2.587596 1e-6,1.857669 -2.221874,3.382124 -4.916284,3.382124 -2.694412,0 -4.916284,-1.524455 -4.916284,-3.382124 0,-1.351442 0.919333,-2.044591 2.598774,-2.587596 l -5.388155,0 z"
         id="path3051"
         style="opacity:0.10999995;fill-rule:nonzero;stroke:none" />
      <path
         d="m 18.573984,44.74288 3.7888,-7.530836 c -0.877149,-0.21569 -1.548583,-0.639114 -1.972425,-1.19631 l -10.378482,3.588283 c 1.749921,2.385447 4.794658,4.240461 8.562107,5.138863 z"
         id="path4214"
         style="fill:#ffffff;fill-opacity:0.41807909;fill-rule:nonzero;stroke:none" />
      <path
         d="m 8.9118137,32.267515 c -0.248767,0.739872 -0.4040405,1.679649 -0.4040405,2.473402 0,5.590576 7.5943828,10.072151 15.7030978,10.072151 8.108716,-1e-6 15.502276,-4.481576 15.502276,-10.072151 -10e-7,-0.794292 -0.183805,-1.733071 -0.4329,-2.473402 l -30.3684333,0 z"
         id="path5264"
         style="opacity:0.54644811;fill:none;stroke:url(#linearGradient2161);stroke-miterlimit:4;stroke-opacity:1" />
      <rect
         width="37.863773"
         height="1.1911809"
         x="5.3414402"
         y="31.62747"
         id="rect4963"
         style="color:#000000;fill:url(#linearGradient2341);fill-opacity:1;fill-rule:evenodd;stroke:none;stroke-width:1;marker:none;visibility:visible;display:inline;overflow:visible;font-family:Bitstream Vera Sans" />
    </g>
    <path
       d="m 26.3125,30.25 13.75,0 c 0,0 0.541459,1.120993 -0.0625,3.375 0,0 -13.3125,-0.5 -13.3125,-0.5 1.850359,-1.850359 -0.375,-2.875 -0.375,-2.875 z"
       id="path2325"
       style="opacity:0.36000001;fill:url(#linearGradient2335);fill-opacity:1;fill-rule:evenodd;stroke:none" />
    <path
       d="m 22.098146,30.25 -13.75,0 c 0,0 -0.541459,1.120993 0.0625,3.375 0,0 13.3125,-0.5 13.3125,-0.5 -1.850359,-1.850359 0.375,-2.875 0.375,-2.875 z"
       id="path2327"
       style="opacity:0.36000001;fill:url(#linearGradient2337);fill-opacity:1;fill-rule:evenodd;stroke:none" />
  </g>
</svg>
