<?xml version="1.0" encoding="UTF-8" standalone="no"?>
<!-- Created with Inkscape (http://www.inkscape.org/) -->

<svg
   xmlns:svg="http://www.w3.org/2000/svg"
   xmlns="http://www.w3.org/2000/svg"
   xmlns:xlink="http://www.w3.org/1999/xlink"
   version="1.1"
   width="48"
   height="48"
   id="svg2913">
  <defs
     id="defs3">
    <radialGradient
       cx="605.71429"
       cy="486.64789"
       r="117.14286"
       fx="605.71429"
       fy="486.64789"
       id="radialGradient6719"
       xlink:href="#linearGradient5060"
       gradientUnits="userSpaceOnUse"
       gradientTransform="matrix(-2.774389,0,0,1.969706,112.7623,-872.8854)" />
    <linearGradient
       id="linearGradient5060">
      <stop
         id="stop5062"
         style="stop-color:#000000;stop-opacity:1"
         offset="0" />
      <stop
         id="stop5064"
         style="stop-color:#000000;stop-opacity:0"
         offset="1" />
    </linearGradient>
    <radialGradient
       cx="605.71429"
       cy="486.64789"
       r="117.14286"
       fx="605.71429"
       fy="486.64789"
       id="radialGradient6717"
       xlink:href="#linearGradient5060"
       gradientUnits="userSpaceOnUse"
       gradientTransform="matrix(2.774389,0,0,1.969706,-1891.633,-872.8854)" />
    <linearGradient
       id="linearGradient5048">
      <stop
         id="stop5050"
         style="stop-color:#000000;stop-opacity:0"
         offset="0" />
      <stop
         id="stop5056"
         style="stop-color:#000000;stop-opacity:1"
         offset="0.5" />
      <stop
         id="stop5052"
         style="stop-color:#000000;stop-opacity:0"
         offset="1" />
    </linearGradient>
    <linearGradient
       x1="302.85715"
       y1="366.64789"
       x2="302.85715"
       y2="609.50507"
       id="linearGradient6715"
       xlink:href="#linearGradient5048"
       gradientUnits="userSpaceOnUse"
       gradientTransform="matrix(2.774389,0,0,1.969706,-1892.179,-872.8854)" />
    <linearGradient
       id="linearGradient5699">
      <stop
         id="stop5701"
         style="stop-color:#7a7a7a;stop-opacity:1"
         offset="0" />
      <stop
         id="stop5703"
         style="stop-color:#a5a5a5;stop-opacity:1"
         offset="1" />
    </linearGradient>
    <linearGradient
       id="linearGradient2681">
      <stop
         id="stop2683"
         style="stop-color:#000000;stop-opacity:0.47524753"
         offset="0" />
      <stop
         id="stop2685"
         style="stop-color:#000000;stop-opacity:0"
         offset="1" />
    </linearGradient>
    <linearGradient
       id="linearGradient2673">
      <stop
         id="stop2675"
         style="stop-color:#ffffff;stop-opacity:1"
         offset="0" />
      <stop
         id="stop2677"
         style="stop-color:#6f6f6f;stop-opacity:1"
         offset="1" />
    </linearGradient>
    <linearGradient
       id="linearGradient4264">
      <stop
         id="stop4266"
         style="stop-color:#000000;stop-opacity:1"
         offset="0" />
      <stop
         id="stop4268"
         style="stop-color:#000000;stop-opacity:0"
         offset="1" />
    </linearGradient>
    <linearGradient
       id="linearGradient4254">
      <stop
         id="stop4256"
         style="stop-color:#ffffff;stop-opacity:1"
         offset="0" />
      <stop
         id="stop4258"
         style="stop-color:#ffffff;stop-opacity:0"
         offset="1" />
    </linearGradient>
    <linearGradient
       id="linearGradient4244">
      <stop
         id="stop4246"
         style="stop-color:#e4e4e4;stop-opacity:1"
         offset="0" />
      <stop
         id="stop4248"
         style="stop-color:#d3d3d3;stop-opacity:1"
         offset="1" />
    </linearGradient>
    <linearGradient
       id="linearGradient4228">
      <stop
         id="stop4230"
         style="stop-color:#bbbbbb;stop-opacity:1"
         offset="0" />
      <stop
         id="stop4232"
         style="stop-color:#9f9f9f;stop-opacity:1"
         offset="1" />
    </linearGradient>
    <linearGradient
       x1="7.6046205"
       y1="28.481176"
       x2="36.183067"
       y2="40.943935"
       id="linearGradient4234"
       xlink:href="#linearGradient4228"
       gradientUnits="userSpaceOnUse"
       gradientTransform="translate(0,0.055463)" />
    <radialGradient
       cx="15.571491"
       cy="2.958519"
       r="20.935818"
       fx="15.571491"
       fy="2.958519"
       id="radialGradient4250"
       xlink:href="#linearGradient4244"
       gradientUnits="userSpaceOnUse"
       gradientTransform="matrix(1.286242,0.781698,-0.710782,1.169552,-2.354348,-4.821398)" />
    <linearGradient
       x1="12.378357"
       y1="4.433136"
       x2="44.0961"
       y2="47.620636"
       id="linearGradient4260"
       xlink:href="#linearGradient4254"
       gradientUnits="userSpaceOnUse"
       gradientTransform="translate(0,0.055463)" />
    <radialGradient
       cx="23.201941"
       cy="27.096155"
       r="23.555494"
       fx="23.201941"
       fy="27.096155"
       id="radialGradient4270"
       xlink:href="#linearGradient4264"
       gradientUnits="userSpaceOnUse"
       gradientTransform="matrix(1,0,0,0.651032,0,9.455693)" />
    <radialGradient
       cx="40.796875"
       cy="33.734375"
       r="0.984375"
       fx="40.796875"
       fy="33.734375"
       id="radialGradient2679"
       xlink:href="#linearGradient2673"
       gradientUnits="userSpaceOnUse"
       gradientTransform="matrix(1.253968,0,0,1.253968,-10.36111,-8.56746)" />
    <linearGradient
       x1="25.785229"
       y1="32.363384"
       x2="25.785229"
       y2="35.670216"
       id="linearGradient2687"
       xlink:href="#linearGradient2681"
       gradientUnits="userSpaceOnUse" />
    <linearGradient
       x1="25.785229"
       y1="32.363384"
       x2="25.785229"
       y2="35.670216"
       id="linearGradient2689"
       xlink:href="#linearGradient2681"
       gradientUnits="userSpaceOnUse" />
    <linearGradient
       x1="34.420757"
       y1="22.70549"
       x2="16.12734"
       y2="10.596288"
       id="linearGradient5705"
       xlink:href="#linearGradient5699"
       gradientUnits="userSpaceOnUse" />
  </defs>
  <g
     id="layer2">
    <g
       transform="matrix(0.0245274,0,0,0.02086758,45.69054,36.1536)"
       id="g6707">
      <rect
         width="1339.6335"
         height="478.35718"
         x="-1559.2523"
         y="-150.69685"
         id="rect6709"
         style="opacity:0.40206185;color:#000000;fill:url(#linearGradient6715);fill-opacity:1;fill-rule:nonzero;stroke:none;stroke-width:1;marker:none;visibility:visible;display:inline;overflow:visible" />
      <path
         d="m -219.61876,-150.68038 c 0,0 0,478.33079 0,478.33079 142.874166,0.90045 345.40022,-107.16966 345.40014,-239.196175 0,-132.026537 -159.436816,-239.134595 -345.40014,-239.134615 z"
         id="path6711"
         style="opacity:0.40206185;color:#000000;fill:url(#radialGradient6717);fill-opacity:1;fill-rule:nonzero;stroke:none;stroke-width:1;marker:none;visibility:visible;display:inline;overflow:visible" />
      <path
         d="m -1559.2523,-150.68038 c 0,0 0,478.33079 0,478.33079 -142.8742,0.90045 -345.4002,-107.16966 -345.4002,-239.196175 0,-132.026537 159.4368,-239.134595 345.4002,-239.134615 z"
         id="path6713"
         style="opacity:0.40206185;color:#000000;fill:url(#radialGradient6719);fill-opacity:1;fill-rule:nonzero;stroke:none;stroke-width:1;marker:none;visibility:visible;display:inline;overflow:visible" />
    </g>
    <path
       d="m 11.28569,8.018085 c -0.625,0 -1.031249,0.29018 -1.281248,0.843753 -10e-7,0 -6.4687505,17.103564 -6.4687505,17.103564 0,0 -0.25,0.671559 -0.25,1.78125 0,0 0,9.649968 0,9.649968 0,1.082613 0.6577855,1.625002 1.65625,1.625 l 38.5624985,0 c 0.984853,0 1.59375,-0.71818 1.59375,-1.84375 l 0,-9.649968 c 0,0 0.105963,-0.770423 -0.09375,-1.3125 L 38.28569,9.018089 C 38.101165,8.506182 37.648785,8.029991 37.16069,8.018085 l -25.875,0 z"
       id="path4196"
       style="fill:none;stroke:#535353;stroke-width:2;stroke-linecap:round;stroke-linejoin:round;stroke-miterlimit:4;stroke-opacity:1;stroke-dasharray:none" />
    <path
       d="m 3.2735915,27.052276 0.7646021,-0.692215 37.6096894,0.0625 3.462407,0.317298 0,10.438532 c 0,1.125569 -0.607018,1.843331 -1.591871,1.843331 l -38.5829876,0 c -0.9984647,0 -1.6618399,-0.542051 -1.6618399,-1.624664 l 0,-10.344782 z"
       id="path4170"
       style="fill:url(#linearGradient4234);fill-opacity:1;fill-rule:evenodd;stroke:none" />
    <path
       d="m 3.5490842,25.969868 c -0.7142857,1.464286 -6.156e-4,2.392857 1.0357143,2.392857 0,0 38.9999985,0 38.9999985,0 1.119047,-0.02381 1.845238,-1.011905 1.428571,-2.142858 L 38.299082,9.009162 C 38.114558,8.497255 37.64432,8.021063 37.156225,8.009158 l -25.857142,0 c -0.625,0 -1.035714,0.303573 -1.285713,0.857146 0,0 -6.4642858,17.103564 -6.4642858,17.103564 z"
       id="path3093"
       style="fill:url(#radialGradient4250);fill-opacity:1;fill-rule:evenodd;stroke:none" />
    <path
       d="m 43.562434,27.674347 c 0,0 -38.1187161,-1e-6 -38.118716,0 -1.2892319,0 -1.9119302,-0.236559 -2.1282449,-0.779668 0.091761,0.944332 0.8700116,1.560918 2.1282449,1.560918 -10e-8,-1e-6 38.118716,0 38.118716,0 1.076007,-0.03307 1.739398,-0.858751 1.484747,-2.155102 -0.134048,0.841582 -0.576634,1.345942 -1.484747,1.373852 z"
       id="path4201"
       style="fill:#ffffff;fill-opacity:1;fill-rule:evenodd;stroke:none" />
    <path
       d="M 38.34467,9.2120874 C 38.34467,9.2120874 44.5,24.75 44.5,24.75 43.881282,24.352252 43.618718,24.036612 43,24.125 l -37.75,0 c -0.7071068,0 -1.4116117,0.75 -1.4116117,0.75 L 10.125,8.875 C 10.258882,8.3753463 10.748699,8.0732233 11.411612,8.0732233 L 36.830806,7.984835 c 1.325825,0.1767767 1.292893,0.608534 1.513864,1.2272524 z"
       id="path5637"
       style="color:#000000;fill:url(#linearGradient5705);fill-opacity:1;fill-rule:nonzero;stroke:none;stroke-width:1;marker:none;visibility:visible;display:inline;overflow:visible" />
    <path
       d="m 44.707773,25.362009 c -0.334225,-0.233508 -0.634973,-0.19452 -1.189533,-0.22243 0,0 -38.7816288,-0.265165 -38.7816288,-0.265165 -0.5745242,0.04419 -1.2408991,0.809679 -1.2408991,0.809679 0,0 0.571062,-1.400031 0.571062,-1.400031 0,0 0.3396815,-1.16317 1.5979148,-1.16317 -10e-8,10e-7 37.1906381,0 37.1906381,0 0.722454,0.03307 1.167233,0.429655 1.352164,0.895568 l 0.500282,1.345549 z"
       id="path5697"
       style="fill:#686868;fill-opacity:1;fill-rule:evenodd;stroke:none" />
    <path
       d="m 11.642515,8.47118 c -0.601692,0 -0.992791,0.279359 -1.233466,0.812287 -10e-7,0 -6.4150149,16.590729 -6.4150149,16.590729 0,0 -0.2406768,0.646515 -0.2406768,1.714823 0,0 0,9.290096 0,9.290096 0,1.35474 0.4440561,1.626899 1.5944841,1.626899 l 37.6869046,0 c 1.323126,0 1.534316,-0.316397 1.534316,-1.837492 l 0,-9.290096 c 0,0 0.10201,-0.741691 -0.09025,-1.263553 L 37.885616,9.308891 C 37.707973,8.816075 37.334964,8.482641 36.865071,8.47118 l -25.222556,0 z"
       id="path4252"
       style="fill:none;stroke:url(#linearGradient4260);stroke-width:1.00000024;stroke-linecap:round;stroke-linejoin:round;stroke-miterlimit:4;stroke-opacity:1;stroke-dasharray:none" />
    <g
       transform="matrix(0.828197,0,0,0.61024,4.176,11.16143)"
       id="g2142"
       style="fill:url(#linearGradient2687);fill-opacity:1">
      <rect
         width="37.930714"
         height="3.8650389"
         x="5.3414402"
         y="32.363384"
         id="rect2151"
         style="color:#000000;fill:url(#linearGradient2689);fill-opacity:1;fill-rule:evenodd;stroke:none;stroke-width:1;marker:none;visibility:visible;display:inline;overflow:visible" />
    </g>
    <path
       d="m 8.625,33.25 c 0,0 0.4446486,0.816942 1.2401437,0.772748 0,0 30.8502413,-0.02275 30.8502413,-0.02275 -0.04419,-2.43068 -0.6875,-3.11857 -0.6875,-3.11857 L 40.0625,33.3125 8.625,33.25 z"
       id="path1899"
       style="opacity:0.71428576;fill:#ffffff;fill-opacity:1;fill-rule:evenodd;stroke:none" />
    <path
       d="m 42,33.984375 a 0.984375,0.984375 0 1 1 -1.96875,0 0.984375,0.984375 0 1 1 1.96875,0 z"
       transform="matrix(1.380952,0,0,1.380952,-15.625,-10.94643)"
       id="path2671"
       style="color:#000000;fill:url(#radialGradient2679);fill-opacity:1;fill-rule:evenodd;stroke:none;stroke-width:1.02044296px;marker:none;visibility:visible;display:inline;overflow:visible;font-family:Bitstream Vera Sans" />
  </g>
</svg>
