<?xml version="1.0" encoding="UTF-8" standalone="no"?>
<!-- Created with Inkscape (http://www.inkscape.org/) -->

<svg
   xmlns:svg="http://www.w3.org/2000/svg"
   xmlns="http://www.w3.org/2000/svg"
   xmlns:xlink="http://www.w3.org/1999/xlink"
   version="1.1"
   width="48"
   height="48"
   id="svg4654">
  <defs
     id="defs3">
    <linearGradient
       id="linearGradient12270">
      <stop
         id="stop12272"
         style="stop-color:#acacac;stop-opacity:1"
         offset="0" />
      <stop
         id="stop12274"
         style="stop-color:#8d8d8d;stop-opacity:0"
         offset="1" />
    </linearGradient>
    <linearGradient
       id="linearGradient11950">
      <stop
         id="stop11952"
         style="stop-color:#ffffff;stop-opacity:1"
         offset="0" />
      <stop
         id="stop11954"
         style="stop-color:#a9a9a9;stop-opacity:1"
         offset="1" />
    </linearGradient>
    <linearGradient
       id="linearGradient11937">
      <stop
         id="stop11939"
         style="stop-color:#fd6c05;stop-opacity:1"
         offset="0" />
      <stop
         id="stop11941"
         style="stop-color:#b41111;stop-opacity:1"
         offset="1" />
    </linearGradient>
    <linearGradient
       id="linearGradient11635">
      <stop
         id="stop11637"
         style="stop-color:#ffffff;stop-opacity:1"
         offset="0" />
      <stop
         id="stop11639"
         style="stop-color:#ffffff;stop-opacity:0"
         offset="1" />
    </linearGradient>
    <linearGradient
       id="linearGradient11621">
      <stop
         id="stop11623"
         style="stop-color:#b1b1b1;stop-opacity:1"
         offset="0" />
      <stop
         id="stop11629"
         style="stop-color:#dfdfdf;stop-opacity:1"
         offset="0.2" />
      <stop
         id="stop11625"
         style="stop-color:#565656;stop-opacity:1"
         offset="1" />
    </linearGradient>
    <linearGradient
       id="linearGradient11607">
      <stop
         id="stop11609"
         style="stop-color:#000000;stop-opacity:1"
         offset="0" />
      <stop
         id="stop11611"
         style="stop-color:#000000;stop-opacity:0"
         offset="1" />
    </linearGradient>
    <linearGradient
       id="linearGradient11597">
      <stop
         id="stop11599"
         style="stop-color:#ffffff;stop-opacity:1"
         offset="0" />
      <stop
         id="stop11643"
         style="stop-color:#d9d9d9;stop-opacity:1"
         offset="0.37333333" />
      <stop
         id="stop11964"
         style="stop-color:#c5c5c5;stop-opacity:1"
         offset="0.60311109" />
      <stop
         id="stop11601"
         style="stop-color:#909090;stop-opacity:1"
         offset="1" />
    </linearGradient>
    <radialGradient
       cx="24.344677"
       cy="32.342636"
       r="22.829447"
       fx="24.344677"
       fy="32.342636"
       id="radialGradient11613"
       xlink:href="#linearGradient11607"
       gradientUnits="userSpaceOnUse"
       gradientTransform="matrix(1,0,0,0.619469,0,12.30737)" />
    <linearGradient
       x1="23.991123"
       y1="6.583746"
       x2="23.991123"
       y2="15.069027"
       id="linearGradient11627"
       xlink:href="#linearGradient11621"
       gradientUnits="userSpaceOnUse" />
    <linearGradient
       x1="10.807498"
       y1="2.4829133"
       x2="16.002489"
       y2="56.399807"
       id="linearGradient11641"
       xlink:href="#linearGradient11635"
       gradientUnits="userSpaceOnUse"
       gradientTransform="matrix(0.771415,0,0,1,5.848417,1)" />
    <radialGradient
       cx="25.754154"
       cy="46.026909"
       r="6.4192042"
       fx="25.754154"
       fy="46.026909"
       id="radialGradient11943"
       xlink:href="#linearGradient11937"
       gradientUnits="userSpaceOnUse"
       gradientTransform="matrix(0.840529,0,0,0.367351,4.170553,27.37887)" />
    <linearGradient
       x1="23.991123"
       y1="12.830256"
       x2="23.991123"
       y2="7.1877394"
       id="linearGradient11958"
       xlink:href="#linearGradient11950"
       gradientUnits="userSpaceOnUse" />
    <radialGradient
       cx="20.588579"
       cy="14.245288"
       r="13.261548"
       fx="20.588579"
       fy="14.245288"
       id="radialGradient12258"
       xlink:href="#linearGradient11597"
       gradientUnits="userSpaceOnUse"
       gradientTransform="matrix(1.866374,0,0,2.305134,-16.99169,-19.0131)" />
    <linearGradient
       x1="35.743351"
       y1="4.375"
       x2="36.543125"
       y2="-1"
       id="linearGradient12278"
       xlink:href="#linearGradient12270"
       gradientUnits="userSpaceOnUse"
       gradientTransform="matrix(0.840529,0,0,1,4.170553,0)" />
  </defs>
  <g
     id="layer1">
    <path
       d="m 47.174124,32.342636 a 22.829447,14.142136 0 1 1 -45.6588938,0 22.829447,14.142136 0 1 1 45.6588938,0 z"
       transform="matrix(0.684189,0,0,1.241071,7.976598,-9.19101)"
       id="path11605"
       style="color:#000000;fill:url(#radialGradient11613);fill-opacity:1;fill-rule:evenodd;stroke:none;stroke-width:1;marker:none;visibility:visible;display:inline;overflow:visible" />
    <path
       d="M 23.922984,10.5 C 20.560868,3 22.031794,1.75 28.966158,3.75 35.754648,5.7079269 43.465284,14 42.834887,5.25 42.167034,-4.0199067 33.378936,-8.7500001 33.378936,-8.7500001"
       id="path12260"
       style="fill:none;stroke:url(#linearGradient12278);stroke-width:1.00000036;stroke-linecap:butt;stroke-linejoin:miter;stroke-miterlimit:4;stroke-opacity:1;stroke-dasharray:none" />
    <path
       d="M 9.9398834,27.131191 C 7.483519,38.037747 14.640836,45.541488 25.387143,45.541488 c 10.630001,0 15.914895,-8.690604 13.725835,-18.410297 l -3.48962,-13.014568 c -0.407121,-1.82299 -1.276546,-2.405887 -1.861129,-2.604272 -5.722916,-2.5695253 -13.785474,-2.6933702 -18.820559,0 -0.639764,0.347238 -1.105047,0.347236 -1.570329,2.083419 L 9.9398834,27.131191 z"
       id="path11595"
       style="fill:url(#radialGradient12258);fill-opacity:1;fill-rule:evenodd;stroke:#4f4f4f;stroke-width:1.00000072;stroke-linecap:butt;stroke-linejoin:miter;stroke-miterlimit:4;stroke-opacity:1;stroke-dasharray:none" />
    <g
       transform="matrix(0.840529,0,0,1,4.170553,1)"
       id="g11960">
      <path
         d="M 8.5736698,22.948218 C 16.805824,17.644917 29.854661,17.038826 38.524694,22.342126 30.832368,18.464709 17.818978,17.99819 8.5736698,22.948218 z"
         id="path11948"
         style="fill:#ffffff;fill-opacity:0.79661016;fill-rule:evenodd;stroke:none" />
      <path
         d="M 8.7504465,22.72725 C 17.380348,16.495871 30.031438,16.42011 38.436306,22.25374 30.655591,17.580828 17.686395,17.291086 8.7504465,22.72725 z"
         id="path11615"
         style="fill:#000000;fill-opacity:0.25988704;fill-rule:evenodd;stroke:none" />
    </g>
    <path
       d="m 26.162951,11.331463 a 2.171828,4.7477169 0 1 1 -4.343656,0 2.171828,4.7477169 0 1 1 4.343656,0 z"
       transform="matrix(1.666343,0,0,1.417807,-15.70639,0.347873)"
       id="path11617"
       style="color:#000000;fill:url(#linearGradient11958);fill-opacity:1;fill-rule:evenodd;stroke:none;stroke-width:1.0000006;marker:none;visibility:visible;display:inline;overflow:visible;font-family:Bitstream Vera Sans" />
    <path
       d="m 10.487085,28.908148 c -1.4079642,8.460412 4.638057,15.666219 14.971935,15.666219 10.333821,0 14.288712,-8.697906 13.113991,-15.666219 L 34.847875,14.950287 c -0.309102,-2.195907 -1.219603,-2.407722 -1.758836,-2.619308 -5.85152,-2.296032 -12.674138,-2.4854501 -17.441372,0 -0.597406,0.311464 -1.092251,0.193088 -1.455254,1.77725 l -3.705328,14.799919 z"
       id="path11633"
       style="fill:none;stroke:url(#linearGradient11641);stroke-width:1.00000024;stroke-linecap:butt;stroke-linejoin:miter;stroke-miterlimit:4;stroke-opacity:1;stroke-dasharray:none" />
    <path
       d="m 26.162951,11.331463 a 2.171828,4.7477169 0 1 1 -4.343656,0 2.171828,4.7477169 0 1 1 4.343656,0 z"
       transform="matrix(0.840529,0,0,1,4.085647,2.742517)"
       id="path11619"
       style="color:#000000;fill:url(#linearGradient11627);fill-opacity:1;fill-rule:evenodd;stroke:#595959;stroke-width:0.5453732;stroke-linecap:butt;stroke-linejoin:miter;stroke-miterlimit:4;stroke-opacity:1;stroke-dasharray:none;stroke-dashoffset:0;marker:none;visibility:visible;display:inline;overflow:visible;font-family:Bitstream Vera Sans" />
    <path
       d="m 26.162951,11.331463 a 2.171828,4.7477169 0 1 1 -4.343656,0 2.171828,4.7477169 0 1 1 4.343656,0 z"
       transform="matrix(0.234565,0,0,0.542553,17.98658,6.360322)"
       id="path11631"
       style="color:#000000;fill:#ffffff;fill-opacity:0.33333333;fill-rule:evenodd;stroke:none;stroke-width:1.0000006;marker:none;visibility:visible;display:inline;overflow:visible;font-family:Bitstream Vera Sans" />
  </g>
</svg>
