<?xml version="1.0" encoding="UTF-8" standalone="no"?>
<!-- Created with Inkscape (http://www.inkscape.org/) -->

<svg
   xmlns:svg="http://www.w3.org/2000/svg"
   xmlns="http://www.w3.org/2000/svg"
   xmlns:xlink="http://www.w3.org/1999/xlink"
   version="1.1"
   width="48"
   height="48"
   id="svg2913">
  <defs
     id="defs3">
    <radialGradient
       cx="605.71429"
       cy="486.64789"
       r="117.14286"
       fx="605.71429"
       fy="486.64789"
       id="radialGradient6719"
       xlink:href="#linearGradient5060"
       gradientUnits="userSpaceOnUse"
       gradientTransform="matrix(-2.774389,0,0,1.969706,112.7623,-872.8854)" />
    <linearGradient
       id="linearGradient5060">
      <stop
         id="stop5062"
         style="stop-color:#000000;stop-opacity:1"
         offset="0" />
      <stop
         id="stop5064"
         style="stop-color:#000000;stop-opacity:0"
         offset="1" />
    </linearGradient>
    <radialGradient
       cx="605.71429"
       cy="486.64789"
       r="117.14286"
       fx="605.71429"
       fy="486.64789"
       id="radialGradient6717"
       xlink:href="#linearGradient5060"
       gradientUnits="userSpaceOnUse"
       gradientTransform="matrix(2.774389,0,0,1.969706,-1891.633,-872.8854)" />
    <linearGradient
       id="linearGradient5048">
      <stop
         id="stop5050"
         style="stop-color:#000000;stop-opacity:0"
         offset="0" />
      <stop
         id="stop5056"
         style="stop-color:#000000;stop-opacity:1"
         offset="0.5" />
      <stop
         id="stop5052"
         style="stop-color:#000000;stop-opacity:0"
         offset="1" />
    </linearGradient>
    <linearGradient
       x1="302.85715"
       y1="366.64789"
       x2="302.85715"
       y2="609.50507"
       id="linearGradient6715"
       xlink:href="#linearGradient5048"
       gradientUnits="userSpaceOnUse"
       gradientTransform="matrix(2.774389,0,0,1.969706,-1892.179,-872.8854)" />
    <linearGradient
       id="linearGradient2510">
      <stop
         id="stop2512"
         style="stop-color:#ffffff;stop-opacity:1"
         offset="0" />
      <stop
         id="stop2514"
         style="stop-color:#ffffff;stop-opacity:0"
         offset="1" />
    </linearGradient>
    <linearGradient
       id="linearGradient5411">
      <stop
         id="stop5413"
         style="stop-color:#ffffff;stop-opacity:1"
         offset="0" />
      <stop
         id="stop5415"
         style="stop-color:#ffffff;stop-opacity:0"
         offset="1" />
    </linearGradient>
    <linearGradient
       id="linearGradient5069">
      <stop
         id="stop5071"
         style="stop-color:#000000;stop-opacity:1"
         offset="0" />
      <stop
         id="stop5073"
         style="stop-color:#000000;stop-opacity:0"
         offset="1" />
    </linearGradient>
    <linearGradient
       id="linearGradient5018">
      <stop
         id="stop5020"
         style="stop-color:#aaaaaa;stop-opacity:1"
         offset="0" />
      <stop
         id="stop5022"
         style="stop-color:#cdcdcd;stop-opacity:1"
         offset="1" />
    </linearGradient>
    <linearGradient
       id="linearGradient4990">
      <stop
         id="stop4992"
         style="stop-color:#ff8a2b;stop-opacity:1"
         offset="0" />
      <stop
         id="stop4994"
         style="stop-color:#833a00;stop-opacity:1"
         offset="1" />
    </linearGradient>
    <linearGradient
       id="linearGradient4264">
      <stop
         id="stop4266"
         style="stop-color:#000000;stop-opacity:1"
         offset="0" />
      <stop
         id="stop4268"
         style="stop-color:#000000;stop-opacity:0"
         offset="1" />
    </linearGradient>
    <linearGradient
       id="linearGradient4254">
      <stop
         id="stop4256"
         style="stop-color:#ffffff;stop-opacity:1"
         offset="0" />
      <stop
         id="stop4258"
         style="stop-color:#ffffff;stop-opacity:0"
         offset="1" />
    </linearGradient>
    <linearGradient
       id="linearGradient4244">
      <stop
         id="stop4246"
         style="stop-color:#e4e4e4;stop-opacity:1"
         offset="0" />
      <stop
         id="stop4248"
         style="stop-color:#d3d3d3;stop-opacity:1"
         offset="1" />
    </linearGradient>
    <linearGradient
       id="linearGradient4228">
      <stop
         id="stop4230"
         style="stop-color:#bbbbbb;stop-opacity:1"
         offset="0" />
      <stop
         id="stop4232"
         style="stop-color:#9f9f9f;stop-opacity:1"
         offset="1" />
    </linearGradient>
    <radialGradient
       cx="23.201941"
       cy="27.096155"
       r="23.555494"
       fx="23.201941"
       fy="27.096155"
       id="radialGradient1464"
       xlink:href="#linearGradient4264"
       gradientUnits="userSpaceOnUse"
       gradientTransform="matrix(1,0,0,0.651032,0,9.455693)" />
    <radialGradient
       cx="10.363534"
       cy="32.708817"
       r="3.8227961"
       fx="10.363534"
       fy="32.708817"
       id="radialGradient1470"
       xlink:href="#linearGradient5069"
       gradientUnits="userSpaceOnUse"
       gradientTransform="matrix(1,0,0,0.624277,0,12.28944)" />
    <linearGradient
       x1="24.237061"
       y1="31.712437"
       x2="24.237061"
       y2="28.359171"
       id="linearGradient1476"
       xlink:href="#linearGradient5411"
       gradientUnits="userSpaceOnUse" />
    <linearGradient
       x1="23.599133"
       y1="3.4934268"
       x2="26.032751"
       y2="13.095204"
       id="linearGradient1482"
       xlink:href="#linearGradient4990"
       gradientUnits="userSpaceOnUse" />
    <linearGradient
       x1="24.395184"
       y1="11.50959"
       x2="17.766058"
       y2="-6.4607105"
       id="linearGradient1484"
       xlink:href="#linearGradient4990"
       gradientUnits="userSpaceOnUse" />
    <linearGradient
       x1="21.057629"
       y1="2.4374962"
       x2="26.28611"
       y2="29.562496"
       id="linearGradient1489"
       xlink:href="#linearGradient2510"
       gradientUnits="userSpaceOnUse" />
    <linearGradient
       x1="26.3125"
       y1="17.5"
       x2="23.0625"
       y2="17.5"
       id="linearGradient1496"
       xlink:href="#linearGradient5018"
       gradientUnits="userSpaceOnUse"
       gradientTransform="translate(0,-0.625)" />
    <linearGradient
       x1="28.46875"
       y1="28.125"
       x2="20"
       y2="26.375"
       id="linearGradient1501"
       xlink:href="#linearGradient5018"
       gradientUnits="userSpaceOnUse"
       gradientTransform="translate(0,-0.625)" />
    <linearGradient
       x1="12.378357"
       y1="4.433136"
       x2="44.0961"
       y2="47.620636"
       id="linearGradient1507"
       xlink:href="#linearGradient4254"
       gradientUnits="userSpaceOnUse"
       gradientTransform="translate(0,8.055463)" />
    <radialGradient
       cx="15.571491"
       cy="2.958519"
       r="20.935818"
       fx="15.571491"
       fy="2.958519"
       id="radialGradient1512"
       xlink:href="#linearGradient4244"
       gradientUnits="userSpaceOnUse"
       gradientTransform="matrix(1.286242,0.781698,-0.710782,1.169552,-2.354348,3.178602)" />
    <linearGradient
       x1="7.6046205"
       y1="28.481176"
       x2="36.183067"
       y2="40.943935"
       id="linearGradient1516"
       xlink:href="#linearGradient4228"
       gradientUnits="userSpaceOnUse"
       gradientTransform="translate(0,8.055463)" />
    <radialGradient
       cx="22.693991"
       cy="4.9365706"
       r="6.6291261"
       fx="22.693991"
       fy="4.9365706"
       id="radialGradient1520"
       xlink:href="#linearGradient4990"
       gradientUnits="userSpaceOnUse"
       gradientTransform="matrix(2.385563,0,0,2.385563,-30.8437,-6.089588)" />
  </defs>
  <g
     id="layer2">
    <g
       transform="matrix(0.02354239,0,0,0.02086758,45.31444,40.2786)"
       id="g6707">
      <rect
         width="1339.6335"
         height="478.35718"
         x="-1559.2523"
         y="-150.69685"
         id="rect6709"
         style="opacity:0.40206185;color:#000000;fill:url(#linearGradient6715);fill-opacity:1;fill-rule:nonzero;stroke:none;stroke-width:1;marker:none;visibility:visible;display:inline;overflow:visible" />
      <path
         d="m -219.61876,-150.68038 c 0,0 0,478.33079 0,478.33079 142.874166,0.90045 345.40022,-107.16966 345.40014,-239.196175 0,-132.026537 -159.436816,-239.134595 -345.40014,-239.134615 z"
         id="path6711"
         style="opacity:0.40206185;color:#000000;fill:url(#radialGradient6717);fill-opacity:1;fill-rule:nonzero;stroke:none;stroke-width:1;marker:none;visibility:visible;display:inline;overflow:visible" />
      <path
         d="m -1559.2523,-150.68038 c 0,0 0,478.33079 0,478.33079 -142.8742,0.90045 -345.4002,-107.16966 -345.4002,-239.196175 0,-132.026537 159.4368,-239.134595 345.4002,-239.134615 z"
         id="path6713"
         style="opacity:0.40206185;color:#000000;fill:url(#radialGradient6719);fill-opacity:1;fill-rule:nonzero;stroke:none;stroke-width:1;marker:none;visibility:visible;display:inline;overflow:visible" />
    </g>
    <path
       d="m 9.28569,22.018085 c -0.625,0 -1.031249,0.29018 -1.281248,0.843753 -10e-7,0 -4.4687505,11.103564 -4.4687505,11.103564 0,0 -0.25,0.671559 -0.25,1.78125 0,0 0,5.649968 0,5.649968 0,1.082613 0.6577855,1.625002 1.65625,1.625 l 38.5624985,0 c 0.984853,0 1.59375,-0.71818 1.59375,-1.84375 l 0,-5.649968 c 0,0 0.105963,-0.770423 -0.09375,-1.3125 L 40.28569,23.018089 c -0.184525,-0.511907 -0.636905,-0.988098 -1.125,-1.000004 l -29.875,0 z"
       id="path4196"
       style="fill:none;stroke:#535353;stroke-width:2;stroke-linecap:round;stroke-linejoin:round;stroke-miterlimit:4;stroke-opacity:1;stroke-dasharray:none" />
    <path
       d="m 3.2735915,35.052276 0.7646021,-0.692215 37.6096894,0.0625 3.462407,0.317298 0,6.438532 c 0,1.125569 -0.607018,1.843331 -1.591871,1.843331 l -38.5829876,0 c -0.9984647,0 -1.6618399,-0.542051 -1.6618399,-1.624664 l 0,-6.344782 z"
       id="path4170"
       style="fill:url(#linearGradient1516);fill-opacity:1;fill-rule:evenodd;stroke:none" />
    <path
       d="m 24.5625,19.75 c -2.624655,0 -4.709751,1.051914 -4.875,2.375 l -0.0625,0 c 0,0 -1.28125,5.1875 -1.28125,5.1875 -0.21875,1.09375 2.078745,3.03125 6.21875,3.03125 4.171393,0 6.5625,-1.96875 6.15625,-3.4375 0,0 -1.1875,-4.78125 -1.1875,-4.78125 l -0.0625,0 C 29.30511,20.801122 27.188264,19.750001 24.5625,19.75 z"
       id="path5030"
       style="color:#000000;fill:none;stroke:#666666;stroke-width:2;stroke-linecap:butt;stroke-linejoin:miter;stroke-miterlimit:4;stroke-opacity:1;stroke-dasharray:none;stroke-dashoffset:0;marker:none;visibility:visible;display:inline;overflow:visible;font-family:Bitstream Vera Sans" />
    <path
       d="m 3.5490842,33.969868 c -0.7142857,1.464286 -6.156e-4,2.392857 1.0357143,2.392857 0,0 38.9999985,0 38.9999985,0 1.119047,-0.02381 1.845238,-1.011905 1.428571,-2.142858 L 40.299082,23.009162 C 40.114558,22.497255 39.64432,22.021063 39.156225,22.009158 l -29.857142,0 c -0.625,0 -1.035714,0.303573 -1.285713,0.857146 0,0 -4.4642858,11.103564 -4.4642858,11.103564 z"
       id="path3093"
       style="fill:url(#radialGradient1512);fill-opacity:1;fill-rule:evenodd;stroke:none" />
    <path
       d="m 14.18633,32.708817 a 3.8227961,2.3864853 0 1 1 -7.6455921,0 3.8227961,2.3864853 0 1 1 7.6455921,0 z"
       transform="translate(0.154679,0.287261)"
       id="path5067"
       style="color:#000000;fill:url(#radialGradient1470);fill-opacity:1;fill-rule:evenodd;stroke:none;stroke-width:2;marker:none;visibility:visible;display:inline;overflow:visible;font-family:Bitstream Vera Sans" />
    <path
       d="m 44.796162,33.684152 c 0.06352,1.249974 -0.414003,2.31584 -1.322116,2.34375 0,0 -38.1187164,-10e-7 -38.1187163,0 -1.2892319,0 -1.867736,-0.324947 -2.0840507,-0.868056 0.091761,0.944332 0.8258174,1.649306 2.0840507,1.649306 -1e-7,-10e-7 38.1187163,0 38.1187163,0 1.076007,-0.03307 1.752805,-1.424024 1.352164,-2.994791 l -0.03005,-0.130209 z"
       id="path4201"
       style="fill:#ffffff;fill-opacity:1;fill-rule:evenodd;stroke:none" />
    <path
       d="m 9.642515,22.47118 c -0.601692,0 -0.992791,0.279359 -1.233466,0.812287 -10e-7,0 -4.4150149,10.590729 -4.4150149,10.590729 0,0 -0.2406768,0.646515 -0.2406768,1.714823 0,0 0,5.290096 0,5.290096 0,1.35474 0.4440561,1.626899 1.5944841,1.626899 l 37.6869046,0 c 1.323126,0 1.534316,-0.316397 1.534316,-1.837492 l 0,-5.290096 c 0,0 0.10201,-0.741691 -0.09025,-1.263553 L 39.885616,23.308891 c -0.177643,-0.492816 -0.550652,-0.82625 -1.020545,-0.837711 l -29.222556,0 z"
       id="path4252"
       style="fill:none;stroke:url(#linearGradient1507);stroke-width:1.00000024;stroke-linecap:round;stroke-linejoin:round;stroke-miterlimit:4;stroke-opacity:1;stroke-dasharray:none" />
    <path
       d="m 31.819805,28.377787 a 7.2478447,3.7123106 0 1 1 -14.495689,0 7.2478447,3.7123106 0 1 1 14.495689,0 z"
       transform="matrix(1.581301,0,0,1.581301,-14.2837,-16.5907)"
       id="path4341"
       style="color:#000000;fill:#ffffff;fill-opacity:0.48022593;fill-rule:evenodd;stroke:none;stroke-width:1px;marker:none;visibility:visible;display:inline;overflow:visible;font-family:Bitstream Vera Sans" />
    <path
       d="m 31.819805,28.377787 a 7.2478447,3.7123106 0 1 1 -14.495689,0 7.2478447,3.7123106 0 1 1 14.495689,0 z"
       transform="matrix(0.853659,0,0,0.853659,3.595897,2.933178)"
       id="path4343"
       style="color:#000000;fill:#c9c9c9;fill-opacity:1;fill-rule:evenodd;stroke:none;stroke-width:1px;marker:none;visibility:visible;display:inline;overflow:visible;font-family:Bitstream Vera Sans" />
    <path
       d="m 24.5625,1.34375 c -3.659278,0 -6.625,2.9657226 -6.625,6.625 0,2.607559 1.559074,4.792747 3.75,5.875 l 0,8.46875 c 0,0 0,0.03564 0,0.0625 0,0.813967 1.285826,1.468751 2.875,1.46875 1.589174,0 2.875,-0.654783 2.875,-1.46875 l 0,-0.0625 0,-8.4375 c 2.210442,-1.075204 3.75,-3.284395 3.75,-5.90625 0,-3.6592776 -2.965722,-6.625 -6.625,-6.625 z"
       id="path4659"
       style="color:#000000;fill:none;stroke:#666666;stroke-width:2;stroke-linecap:butt;stroke-linejoin:miter;stroke-miterlimit:4;stroke-opacity:1;stroke-dasharray:none;stroke-dashoffset:0;marker:none;visibility:visible;display:inline;overflow:visible;font-family:Bitstream Vera Sans" />
    <path
       d="m 29.53125,22.125 c 0,0 1.1875,4.78125 1.1875,4.78125 0.40625,1.46875 -1.984857,3.4375 -6.15625,3.4375 -4.140005,0 -6.4375,-1.9375 -6.21875,-3.03125 0,0 1.28125,-5.1875 1.28125,-5.1875 l 9.90625,0 z"
       id="path5026"
       style="color:#000000;fill:url(#linearGradient1501);fill-opacity:1;fill-rule:evenodd;stroke:none;stroke-width:1px;marker:none;visibility:visible;display:inline;overflow:visible;font-family:Bitstream Vera Sans" />
    <path
       d="m 31.819805,28.377787 a 7.2478447,3.7123106 0 1 1 -14.495689,0 7.2478447,3.7123106 0 1 1 14.495689,0 z"
       transform="matrix(0.682927,0,0,0.682927,7.79111,2.903166)"
       id="path4345"
       style="color:#000000;fill:#e4e4e4;fill-opacity:1;fill-rule:evenodd;stroke:none;stroke-width:1px;marker:none;visibility:visible;display:inline;overflow:visible;font-family:Bitstream Vera Sans" />
    <path
       d="m 24.5625,24.65625 c -4.00081,0 -7.25,1.669555 -7.25,3.71875 0,2.049195 3.24919,3.718752 7.25,3.71875 4.00081,0 7.25,-1.669555 7.25,-3.71875 0,-2.049195 -3.24919,-3.71875 -7.25,-3.71875 z"
       transform="matrix(0.633635,0,0,0.633635,9.123852,4.17687)"
       id="path5419"
       style="color:#000000;fill:none;stroke:url(#linearGradient1476);stroke-width:1.07779324px;stroke-linecap:butt;stroke-linejoin:miter;stroke-miterlimit:4;stroke-opacity:1;stroke-dasharray:none;stroke-dashoffset:0;marker:none;visibility:visible;display:inline;overflow:visible;font-family:Bitstream Vera Sans" />
    <path
       d="m 24.5625,6.28125 c -1.589174,0 -2.874999,0.6547825 -2.875,1.46875 0,0.026864 0.05973,0.035989 0.0625,0.0625 l -0.0625,0 0,13.875 0.0625,0 c -0.0028,0.02651 -0.0625,0.03564 -0.0625,0.0625 0,0.813967 1.285826,1.468751 2.875,1.46875 1.589174,0 2.875,-0.654783 2.875,-1.46875 0,-0.02686 -0.05973,-0.03599 -0.0625,-0.0625 l 0.0625,0 0,-13.875 -0.0625,0 c 0.0028,-0.026511 0.0625,-0.035636 0.0625,-0.0625 0,-0.8139671 -1.285826,-1.46875 -2.875,-1.46875 z"
       id="path4347"
       style="color:#000000;fill:url(#linearGradient1496);fill-opacity:1;fill-rule:evenodd;stroke:none;stroke-width:1px;marker:none;visibility:visible;display:inline;overflow:visible;font-family:Bitstream Vera Sans" />
    <path
       d="m 31.02431,8.4020205 a 6.6291261,6.6291261 0 1 1 -13.258253,0 6.6291261,6.6291261 0 1 1 13.258253,0 z"
       transform="matrix(0.967577,0,0,0.967577,0.96773,-0.16866)"
       id="path4641"
       style="color:#000000;fill:url(#radialGradient1520);fill-opacity:1;fill-rule:evenodd;stroke:none;stroke-width:1.07542491;marker:none;visibility:visible;display:inline;overflow:visible;font-family:Bitstream Vera Sans" />
    <g
       transform="matrix(1,0,0,0.84966,0.810662,5.224199)"
       id="g5049">
      <path
         d="m 31.02431,8.4020205 a 6.6291261,6.6291261 0 1 1 -13.258253,0 6.6291261,6.6291261 0 1 1 13.258253,0 z"
         transform="matrix(0.510331,0,0,0.354752,-2.87767,29.41695)"
         id="path5039"
         style="color:#000000;fill:url(#linearGradient1482);fill-opacity:1;fill-rule:evenodd;stroke:none;stroke-width:1.07542491;marker:none;visibility:visible;display:inline;overflow:visible;font-family:Bitstream Vera Sans" />
      <path
         d="m 31.02431,8.4020205 a 6.6291261,6.6291261 0 1 1 -13.258253,0 6.6291261,6.6291261 0 1 1 13.258253,0 z"
         transform="matrix(0.430193,0,0,0.299045,-0.922674,29.60375)"
         id="path5045"
         style="color:#000000;fill:url(#linearGradient1484);fill-opacity:1;fill-rule:evenodd;stroke:none;stroke-width:1.07542491;marker:none;visibility:visible;display:inline;overflow:visible;font-family:Bitstream Vera Sans" />
    </g>
    <path
       d="m 24.563623,2.0718822 c -3.284876,0 -5.943495,2.6876119 -5.943495,5.9724868 0,2.312769 1.660026,4.26294 3.58867,5.247671 l 0,7.121965 c -0.867236,0.395397 -2.15313,1.043191 -2.16803,1.681574 0,0 -1.246684,5.145245 -1.246684,5.145245 -0.202948,1.014743 1.928587,2.812287 5.769539,2.812287 3.870072,0 6.088458,-1.826537 5.711553,-3.189192 l -1.217691,-4.855318 c -0.01596,-0.683778 -1.225688,-1.111895 -2.201538,-1.507618 l 0,-7.208943 c 1.928645,-0.984731 3.680162,-2.934902 3.680163,-5.247671 0,-3.2848748 -2.687613,-5.9724868 -5.972487,-5.9724868 z"
       id="path2204"
       style="opacity:0.52571429;color:#000000;fill:none;stroke:url(#linearGradient1489);stroke-width:0.99999976px;stroke-linecap:butt;stroke-linejoin:miter;stroke-miterlimit:4;stroke-opacity:1;stroke-dasharray:none;stroke-dashoffset:0;marker:none;visibility:visible;display:inline;overflow:visible;font-family:Bitstream Vera Sans" />
  </g>
</svg>
