<?xml version="1.0" encoding="UTF-8" standalone="no"?>
<!-- Created with Inkscape (http://www.inkscape.org/) -->

<svg
   xmlns:svg="http://www.w3.org/2000/svg"
   xmlns="http://www.w3.org/2000/svg"
   xmlns:xlink="http://www.w3.org/1999/xlink"
   version="1.1"
   width="48"
   height="48"
   id="svg3077">
  <defs
     id="defs3">
    <linearGradient
       id="linearGradient23419">
      <stop
         id="stop23421"
         style="stop-color:#000000;stop-opacity:1"
         offset="0" />
      <stop
         id="stop23423"
         style="stop-color:#000000;stop-opacity:0"
         offset="1" />
    </linearGradient>
    <linearGradient
       x1="12.2744"
       y1="32.4165"
       x2="35.391201"
       y2="14.2033"
       id="linearGradient3435"
       gradientUnits="userSpaceOnUse">
      <stop
         id="stop3437"
         style="stop-color:#ffffc8;stop-opacity:1"
         offset="0" />
      <stop
         id="stop3439"
         style="stop-color:#9a91ef;stop-opacity:0"
         offset="1" />
    </linearGradient>
    <linearGradient
       x1="12.2744"
       y1="32.4165"
       x2="35.391201"
       y2="14.2033"
       id="linearGradient3421"
       gradientUnits="userSpaceOnUse">
      <stop
         id="stop3423"
         style="stop-color:#ffffff;stop-opacity:1"
         offset="0" />
      <stop
         id="stop3427"
         style="stop-color:#b8c04c;stop-opacity:0"
         offset="1" />
    </linearGradient>
    <linearGradient
       x1="12.2744"
       y1="32.4165"
       x2="35.391201"
       y2="14.2033"
       id="linearGradient3406"
       gradientUnits="userSpaceOnUse">
      <stop
         id="stop3408"
         style="stop-color:#b307ff;stop-opacity:0.82178217"
         offset="0" />
      <stop
         id="stop3410"
         style="stop-color:#f0ff8b;stop-opacity:0.64356434"
         offset="1" />
      <stop
         id="stop3412"
         style="stop-color:#ffffff;stop-opacity:0"
         offset="1" />
    </linearGradient>
    <linearGradient
       x1="12.2744"
       y1="32.4165"
       x2="35.391201"
       y2="14.2033"
       id="linearGradient3394"
       gradientUnits="userSpaceOnUse">
      <stop
         id="stop3396"
         style="stop-color:#fff307;stop-opacity:1"
         offset="0" />
      <stop
         id="stop3398"
         style="stop-color:#166eff;stop-opacity:1"
         offset="0.5" />
      <stop
         id="stop3400"
         style="stop-color:#ffffff;stop-opacity:0"
         offset="1" />
    </linearGradient>
    <linearGradient
       id="linearGradient6036">
      <stop
         id="stop6038"
         style="stop-color:#ffffff;stop-opacity:1"
         offset="0" />
      <stop
         id="stop6040"
         style="stop-color:#ffffff;stop-opacity:0"
         offset="1" />
    </linearGradient>
    <linearGradient
       id="linearGradient6028">
      <stop
         id="stop6030"
         style="stop-color:#ffffff;stop-opacity:1"
         offset="0" />
      <stop
         id="stop6032"
         style="stop-color:#ffffff;stop-opacity:0"
         offset="1" />
    </linearGradient>
    <linearGradient
       id="linearGradient4236">
      <stop
         id="stop4238"
         style="stop-color:#ffffff;stop-opacity:0.32673267"
         offset="0" />
      <stop
         id="stop4240"
         style="stop-color:#ffffff;stop-opacity:0.60396039"
         offset="1" />
    </linearGradient>
    <linearGradient
       x1="12.2744"
       y1="32.4165"
       x2="35.391201"
       y2="14.2033"
       id="aigrd2"
       gradientUnits="userSpaceOnUse">
      <stop
         id="stop3043"
         style="stop-color:#fbfbfb;stop-opacity:1"
         offset="0" />
      <stop
         id="stop3045"
         style="stop-color:#b6b6b6;stop-opacity:1"
         offset="0.5" />
      <stop
         id="stop3047"
         style="stop-color:#e4e4e4;stop-opacity:1"
         offset="1" />
    </linearGradient>
    <linearGradient
       x1="14.9966"
       y1="11.1885"
       x2="32.511002"
       y2="34.307499"
       id="aigrd1"
       gradientUnits="userSpaceOnUse">
      <stop
         id="stop3034"
         style="stop-color:#ebebeb;stop-opacity:1"
         offset="0" />
      <stop
         id="stop3036"
         style="stop-color:#ffffff;stop-opacity:1"
         offset="0.5" />
      <stop
         id="stop3038"
         style="stop-color:#ebebeb;stop-opacity:1"
         offset="1" />
    </linearGradient>
    <linearGradient
       x1="14.9966"
       y1="11.1885"
       x2="32.511002"
       y2="34.307499"
       id="linearGradient3912"
       xlink:href="#aigrd1"
       gradientUnits="userSpaceOnUse"
       gradientTransform="matrix(1.190476,0,0,1.190476,-4.224424,-2.5)" />
    <linearGradient
       x1="21.125"
       y1="14.625"
       x2="29"
       y2="28"
       id="linearGradient4222"
       xlink:href="#linearGradient4236"
       gradientUnits="userSpaceOnUse"
       gradientTransform="matrix(1.25,0,0,1.25,-5.652995,-2.604165)" />
    <linearGradient
       x1="21.125"
       y1="14.625"
       x2="29"
       y2="28"
       id="linearGradient4224"
       xlink:href="#linearGradient4236"
       gradientUnits="userSpaceOnUse"
       gradientTransform="matrix(1.25,0,0,1.25,-5.652995,-2.604165)" />
    <linearGradient
       x1="12.2744"
       y1="32.4165"
       x2="35.391201"
       y2="14.2033"
       id="linearGradient4242"
       xlink:href="#aigrd2"
       gradientUnits="userSpaceOnUse"
       gradientTransform="matrix(1.190476,0,0,1.190476,-4.224424,-2.500001)" />
    <linearGradient
       x1="28.702885"
       y1="31.494707"
       x2="17.742729"
       y2="18.366575"
       id="linearGradient6034"
       xlink:href="#linearGradient6028"
       gradientUnits="userSpaceOnUse" />
    <linearGradient
       x1="10.50172"
       y1="3.6100161"
       x2="48.798885"
       y2="54.698483"
       id="linearGradient6042"
       xlink:href="#linearGradient6036"
       gradientUnits="userSpaceOnUse" />
    <radialGradient
       cx="37.751469"
       cy="27.569166"
       r="21.333334"
       fx="37.751469"
       fy="27.569166"
       id="radialGradient3392"
       xlink:href="#linearGradient3394"
       gradientUnits="userSpaceOnUse"
       gradientTransform="matrix(0.848684,0.95802,-0.782119,0.692834,18.69147,-20.52578)" />
    <radialGradient
       cx="53.556889"
       cy="48.23827"
       r="21.333334"
       fx="53.556889"
       fy="48.23827"
       id="radialGradient3429"
       xlink:href="#linearGradient3421"
       gradientUnits="userSpaceOnUse"
       gradientTransform="matrix(0.15845,-0.158988,0.432907,0.431441,-2.723645,15.00107)" />
    <radialGradient
       cx="16.885271"
       cy="33.377594"
       r="21.333334"
       fx="16.885271"
       fy="33.377594"
       id="radialGradient3433"
       xlink:href="#linearGradient3435"
       gradientUnits="userSpaceOnUse"
       gradientTransform="matrix(0.00518427,-0.12286,0.544548,0.02297824,0.957234,26.30756)" />
    <radialGradient
       cx="35.511295"
       cy="21.618015"
       r="21.333334"
       fx="35.511295"
       fy="21.618015"
       id="radialGradient3443"
       xlink:href="#linearGradient3435"
       gradientUnits="userSpaceOnUse"
       gradientTransform="matrix(0.105916,-0.0191424,0.104789,0.579807,17.13693,7.115158)" />
    <radialGradient
       cx="133.84108"
       cy="23.914305"
       r="21.333334"
       fx="133.84108"
       fy="23.914305"
       id="radialGradient3447"
       xlink:href="#linearGradient3435"
       gradientUnits="userSpaceOnUse"
       gradientTransform="matrix(-0.0504822,0.01387847,-0.12844,-0.467196,35.41257,39.44172)" />
    <radialGradient
       cx="26.137741"
       cy="38.807304"
       r="21.333334"
       fx="26.137741"
       fy="38.807304"
       id="radialGradient3449"
       xlink:href="#linearGradient3406"
       gradientUnits="userSpaceOnUse"
       gradientTransform="matrix(0.769501,-1.2425,0.6703,0.415141,-21.77857,41.36563)" />
    <linearGradient
       x1="14.9966"
       y1="11.1885"
       x2="32.511002"
       y2="34.307499"
       id="linearGradient23343"
       xlink:href="#aigrd1"
       gradientUnits="userSpaceOnUse"
       gradientTransform="matrix(1.190476,0,0,1.190476,-4.224424,-2.5)" />
    <linearGradient
       x1="12.2744"
       y1="32.4165"
       x2="35.391201"
       y2="14.2033"
       id="linearGradient23345"
       xlink:href="#aigrd2"
       gradientUnits="userSpaceOnUse"
       gradientTransform="matrix(1.190476,0,0,1.190476,-4.224424,-2.500001)" />
    <linearGradient
       x1="21.125"
       y1="14.625"
       x2="29"
       y2="28"
       id="linearGradient23347"
       xlink:href="#linearGradient4236"
       gradientUnits="userSpaceOnUse"
       gradientTransform="matrix(1.25,0,0,1.25,-5.652995,-2.604165)" />
    <linearGradient
       x1="21.125"
       y1="14.625"
       x2="29"
       y2="28"
       id="linearGradient23349"
       xlink:href="#linearGradient4236"
       gradientUnits="userSpaceOnUse"
       gradientTransform="matrix(1.25,0,0,1.25,-5.652995,-2.604165)" />
    <linearGradient
       x1="10.50172"
       y1="3.6100161"
       x2="48.798885"
       y2="54.698483"
       id="linearGradient23351"
       xlink:href="#linearGradient6036"
       gradientUnits="userSpaceOnUse" />
    <linearGradient
       x1="28.702885"
       y1="31.494707"
       x2="17.742729"
       y2="18.366575"
       id="linearGradient23353"
       xlink:href="#linearGradient6028"
       gradientUnits="userSpaceOnUse" />
    <radialGradient
       cx="37.751469"
       cy="27.569166"
       r="21.333334"
       fx="37.751469"
       fy="27.569166"
       id="radialGradient23355"
       xlink:href="#linearGradient3394"
       gradientUnits="userSpaceOnUse"
       gradientTransform="matrix(0.848684,0.95802,-0.782119,0.692834,18.69147,-20.52578)" />
    <radialGradient
       cx="26.137741"
       cy="38.807304"
       r="21.333334"
       fx="26.137741"
       fy="38.807304"
       id="radialGradient23357"
       xlink:href="#linearGradient3406"
       gradientUnits="userSpaceOnUse"
       gradientTransform="matrix(0.769501,-1.2425,0.6703,0.415141,-21.77857,41.36563)" />
    <radialGradient
       cx="53.556889"
       cy="48.23827"
       r="21.333334"
       fx="53.556889"
       fy="48.23827"
       id="radialGradient23359"
       xlink:href="#linearGradient3421"
       gradientUnits="userSpaceOnUse"
       gradientTransform="matrix(0.15845,-0.158988,0.432907,0.431441,-2.723645,15.00107)" />
    <radialGradient
       cx="16.885271"
       cy="33.377594"
       r="21.333334"
       fx="16.885271"
       fy="33.377594"
       id="radialGradient23361"
       xlink:href="#linearGradient3435"
       gradientUnits="userSpaceOnUse"
       gradientTransform="matrix(0.00518427,-0.12286,0.544548,0.02297824,0.957234,26.30756)" />
    <radialGradient
       cx="35.511295"
       cy="21.618015"
       r="21.333334"
       fx="35.511295"
       fy="21.618015"
       id="radialGradient23363"
       xlink:href="#linearGradient3435"
       gradientUnits="userSpaceOnUse"
       gradientTransform="matrix(0.105916,-0.0191424,0.104789,0.579807,17.13693,7.115158)" />
    <radialGradient
       cx="133.84108"
       cy="23.914305"
       r="21.333334"
       fx="133.84108"
       fy="23.914305"
       id="radialGradient23365"
       xlink:href="#linearGradient3435"
       gradientUnits="userSpaceOnUse"
       gradientTransform="matrix(-0.0504822,0.01387847,-0.12844,-0.467196,35.41257,39.44172)" />
    <radialGradient
       cx="133.84108"
       cy="23.914305"
       r="21.333334"
       fx="133.84108"
       fy="23.914305"
       id="radialGradient23368"
       xlink:href="#linearGradient3435"
       gradientUnits="userSpaceOnUse"
       gradientTransform="matrix(-0.0504822,0.01387847,-0.12844,-0.467196,35.41257,39.44172)" />
    <radialGradient
       cx="35.511295"
       cy="21.618015"
       r="21.333334"
       fx="35.511295"
       fy="21.618015"
       id="radialGradient23371"
       xlink:href="#linearGradient3435"
       gradientUnits="userSpaceOnUse"
       gradientTransform="matrix(0.105916,-0.0191424,0.104789,0.579807,17.13693,7.115158)" />
    <radialGradient
       cx="16.885271"
       cy="33.377594"
       r="21.333334"
       fx="16.885271"
       fy="33.377594"
       id="radialGradient23374"
       xlink:href="#linearGradient3435"
       gradientUnits="userSpaceOnUse"
       gradientTransform="matrix(0.00518427,-0.12286,0.544548,0.02297824,0.957234,26.30756)" />
    <radialGradient
       cx="53.556889"
       cy="48.23827"
       r="21.333334"
       fx="53.556889"
       fy="48.23827"
       id="radialGradient23377"
       xlink:href="#linearGradient3421"
       gradientUnits="userSpaceOnUse"
       gradientTransform="matrix(0.15845,-0.158988,0.432907,0.431441,-2.723645,15.00107)" />
    <radialGradient
       cx="26.137741"
       cy="38.807304"
       r="21.333334"
       fx="26.137741"
       fy="38.807304"
       id="radialGradient23380"
       xlink:href="#linearGradient3406"
       gradientUnits="userSpaceOnUse"
       gradientTransform="matrix(0.769501,-1.2425,0.6703,0.415141,-21.77857,41.36563)" />
    <radialGradient
       cx="37.751469"
       cy="27.569166"
       r="21.333334"
       fx="37.751469"
       fy="27.569166"
       id="radialGradient23383"
       xlink:href="#linearGradient3394"
       gradientUnits="userSpaceOnUse"
       gradientTransform="matrix(0.848684,0.95802,-0.782119,0.692834,18.69147,-20.52578)" />
    <linearGradient
       x1="10.50172"
       y1="3.6100161"
       x2="48.798885"
       y2="54.698483"
       id="linearGradient23387"
       xlink:href="#linearGradient6036"
       gradientUnits="userSpaceOnUse" />
    <linearGradient
       x1="21.125"
       y1="14.625"
       x2="29"
       y2="28"
       id="linearGradient23390"
       xlink:href="#linearGradient4236"
       gradientUnits="userSpaceOnUse"
       gradientTransform="matrix(1.25,0,0,1.25,-5.652995,-2.604165)" />
    <linearGradient
       x1="21.125"
       y1="14.625"
       x2="29"
       y2="28"
       id="linearGradient23393"
       xlink:href="#linearGradient4236"
       gradientUnits="userSpaceOnUse"
       gradientTransform="matrix(1.25,0,0,1.25,-5.652995,-2.604165)" />
    <linearGradient
       x1="12.2744"
       y1="32.4165"
       x2="35.391201"
       y2="14.2033"
       id="linearGradient23397"
       xlink:href="#aigrd2"
       gradientUnits="userSpaceOnUse"
       gradientTransform="matrix(1.190476,0,0,1.190476,-4.224424,-2.500001)" />
    <linearGradient
       x1="14.9966"
       y1="11.1885"
       x2="32.511002"
       y2="34.307499"
       id="linearGradient23400"
       xlink:href="#aigrd1"
       gradientUnits="userSpaceOnUse"
       gradientTransform="matrix(1.190476,0,0,1.190476,-4.224424,-2.5)" />
    <radialGradient
       cx="23.334524"
       cy="41.63604"
       r="22.627417"
       fx="23.334524"
       fy="41.63604"
       id="radialGradient23425"
       xlink:href="#linearGradient23419"
       gradientUnits="userSpaceOnUse"
       gradientTransform="matrix(1,0,0,0.25,0,31.22703)" />
  </defs>
  <g
     id="layer1">
    <path
       d="m 45.961941,41.63604 a 22.627417,5.6568542 0 1 1 -45.25483346,0 22.627417,5.6568542 0 1 1 45.25483346,0 z"
       transform="matrix(1,0,0,1.066291,1,-2.885106)"
       id="path23417"
       style="opacity:0.55;color:#000000;fill:url(#radialGradient23425);fill-opacity:1;fill-rule:evenodd;stroke:none;stroke-width:2;marker:none;visibility:visible;display:inline;overflow:visible" />
    <path
       d="M 24.347006,4.1666669 C 12.799386,4.1666669 3.5136719,13.452381 3.5136719,25 c 0,11.54762 9.2857141,20.833335 20.8333341,20.833335 11.54762,0 20.833335,-9.285715 20.833335,-20.833335 0,-11.547619 -9.285715,-20.8333331 -20.833335,-20.8333331 l 0,0 z m 0,25.8333341 c -2.738095,0 -5,-2.261905 -5,-5.000001 0,-2.738095 2.261905,-5 5,-5 2.738095,0 5,2.261905 5,5 0,2.738096 -2.261905,5.000001 -5,5.000001 z"
       id="path3040"
       style="fill:url(#linearGradient23400);fill-rule:nonzero;stroke:none" />
    <path
       d="M 24.347006,4.1666665 C 12.799386,4.1666665 3.513672,13.452381 3.513672,25 c 0,11.54762 9.285714,20.833335 20.833334,20.833335 11.54762,0 20.833335,-9.285715 20.833335,-20.833335 0,-11.547619 -9.285715,-20.8333335 -20.833335,-20.8333335 l 0,0 z m 0,25.8333345 c -2.738095,0 -5,-2.261905 -5,-5.000001 0,-2.738095 2.261905,-5 5,-5 2.738095,0 5,2.261905 5,5 0,2.738096 -2.261905,5.000001 -5,5.000001 z"
       id="path3049"
       style="fill:url(#linearGradient23397);fill-rule:nonzero;stroke:#808080;stroke-miterlimit:4;stroke-opacity:1" />
    <path
       d="M 24.347006,14.895835 C 18.70442,14.895835 14.24284,19.488638 14.24284,25 c 0,5.642588 4.592804,10.104166 10.104166,10.104166 5.642586,0 10.104166,-4.592802 10.104166,-10.104166 0,-5.642586 -4.592804,-10.104165 -10.104166,-10.104165 l 0,0 z m 0,15.615529 c -3.018127,0 -5.511362,-2.493235 -5.511362,-5.511364 0,-3.018127 2.493235,-5.511362 5.511362,-5.511362 3.018127,0 5.511362,2.493235 5.511362,5.511362 0,3.018129 -2.493235,5.511364 -5.511362,5.511364 z"
       id="path3051"
       style="opacity:0.10999995;fill-rule:nonzero;stroke:none" />
    <path
       d="M 29.922111,5.6692337 26.325518,19.663896 c 1.124704,0.299517 2.024143,0.99547 2.635128,1.958542 l 12.39222,-7.549285 C 38.817618,9.9434382 34.748656,6.9050853 29.922111,5.6692337 z"
       id="path3916"
       style="fill:url(#linearGradient23393);fill-opacity:1;fill-rule:nonzero;stroke:none" />
    <path
       d="M 17.307824,43.766057 22.043079,30.114558 C 20.946815,29.723566 20.107654,28.956005 19.577936,27.945951 L 6.6068752,34.450599 c 2.1870573,4.324212 5.9923798,7.686883 10.7009488,9.315458 z"
       id="path4214"
       style="fill:url(#linearGradient23390);fill-opacity:1;fill-rule:nonzero;stroke:none" />
    <path
       d="m 24.347002,5.2023655 c -10.973544,0 -19.7976309,8.8240885 -19.7976309,19.7976315 0,10.973544 8.8240869,19.797631 19.7976309,19.797631 10.973544,0 19.797631,-8.824087 19.797631,-19.797631 0,-10.973543 -8.824087,-19.7976315 -19.797631,-19.7976315 l 0,0 z"
       id="path5264"
       style="opacity:0.54644811;fill:none;stroke:url(#linearGradient23387);stroke-miterlimit:4;stroke-opacity:1" />
    <path
       d="m 30.405591,24.930641 a 6.0987959,6.0987959 0 1 1 -12.197592,0 6.0987959,6.0987959 0 1 1 12.197592,0 z"
       transform="translate(0.08838835,0.08838865)"
       id="path6026"
       style="opacity:0.67213111;color:#000000;fill:none;stroke:url(#linearGradient23353);stroke-width:0.93053865;stroke-linecap:butt;stroke-linejoin:miter;stroke-miterlimit:4;stroke-opacity:1;stroke-dashoffset:0;marker:none;visibility:visible;display:inline;overflow:visible" />
    <path
       d="M 24.347006,4.1666665 C 12.799386,4.1666665 3.513672,13.452381 3.513672,25 c 0,11.54762 9.285714,20.833335 20.833334,20.833335 11.54762,0 20.833335,-9.285715 20.833335,-20.833335 0,-11.547619 -9.285715,-20.8333335 -20.833335,-20.8333335 l 0,0 z m 0,25.8333345 c -2.738095,0 -5,-2.261905 -5,-5.000001 0,-2.738095 2.261905,-5 5,-5 2.738095,0 5,2.261905 5,5 0,2.738096 -2.261905,5.000001 -5,5.000001 z"
       id="path3390"
       style="opacity:0.1142857;fill:url(#radialGradient23383);fill-opacity:1;fill-rule:nonzero;stroke:none" />
    <path
       d="M 24.347006,4.1666665 C 12.799386,4.1666665 3.513672,13.452381 3.513672,25 c 0,11.54762 9.285714,20.833335 20.833334,20.833335 11.54762,0 20.833335,-9.285715 20.833335,-20.833335 0,-11.547619 -9.285715,-20.8333335 -20.833335,-20.8333335 l 0,0 z m 0,25.8333345 c -2.738095,0 -5,-2.261905 -5,-5.000001 0,-2.738095 2.261905,-5 5,-5 2.738095,0 5,2.261905 5,5 0,2.738096 -2.261905,5.000001 -5,5.000001 z"
       id="path3404"
       style="opacity:0.09714284;fill:url(#radialGradient23380);fill-opacity:1;fill-rule:nonzero;stroke:none" />
    <path
       d="M 24.347006,4.1666665 C 12.799386,4.1666665 3.513672,13.452381 3.513672,25 c 0,11.54762 9.285714,20.833335 20.833334,20.833335 11.54762,0 20.833335,-9.285715 20.833335,-20.833335 0,-11.547619 -9.285715,-20.8333335 -20.833335,-20.8333335 l 0,0 z m 0,25.8333345 c -2.738095,0 -5,-2.261905 -5,-5.000001 0,-2.738095 2.261905,-5 5,-5 2.738095,0 5,2.261905 5,5 0,2.738096 -2.261905,5.000001 -5,5.000001 z"
       id="path3419"
       style="opacity:0.71428576;fill:url(#radialGradient23377);fill-opacity:1;fill-rule:nonzero;stroke:none" />
    <path
       d="M 24.347006,4.1666665 C 12.799386,4.1666665 3.513672,13.452381 3.513672,25 c 0,11.54762 9.285714,20.833335 20.833334,20.833335 11.54762,0 20.833335,-9.285715 20.833335,-20.833335 0,-11.547619 -9.285715,-20.8333335 -20.833335,-20.8333335 l 0,0 z m 0,25.8333345 c -2.738095,0 -5,-2.261905 -5,-5.000001 0,-2.738095 2.261905,-5 5,-5 2.738095,0 5,2.261905 5,5 0,2.738096 -2.261905,5.000001 -5,5.000001 z"
       id="path3431"
       style="opacity:0.62285713;fill:url(#radialGradient23374);fill-opacity:1;fill-rule:nonzero;stroke:none" />
    <path
       d="M 24.347006,4.1666665 C 12.799386,4.1666665 3.513672,13.452381 3.513672,25 c 0,11.54762 9.285714,20.833335 20.833334,20.833335 11.54762,0 20.833335,-9.285715 20.833335,-20.833335 0,-11.547619 -9.285715,-20.8333335 -20.833335,-20.8333335 l 0,0 z m 0,25.8333345 c -2.738095,0 -5,-2.261905 -5,-5.000001 0,-2.738095 2.261905,-5 5,-5 2.738095,0 5,2.261905 5,5 0,2.738096 -2.261905,5.000001 -5,5.000001 z"
       id="path3441"
       style="opacity:0.37142861;fill:url(#radialGradient23371);fill-opacity:1;fill-rule:nonzero;stroke:none" />
    <path
       d="M 24.347006,4.1666665 C 12.799386,4.1666665 3.513672,13.452381 3.513672,25 c 0,11.54762 9.285714,20.833335 20.833334,20.833335 11.54762,0 20.833335,-9.285715 20.833335,-20.833335 0,-11.547619 -9.285715,-20.8333335 -20.833335,-20.8333335 l 0,0 z m 0,25.8333345 c -2.738095,0 -5,-2.261905 -5,-5.000001 0,-2.738095 2.261905,-5 5,-5 2.738095,0 5,2.261905 5,5 0,2.738096 -2.261905,5.000001 -5,5.000001 z"
       id="path3445"
       style="opacity:0.23428572;fill:url(#radialGradient23368);fill-opacity:1;fill-rule:nonzero;stroke:none" />
  </g>
</svg>
