<?xml version="1.0" encoding="UTF-8" standalone="no"?>
<!-- Created with Inkscape (http://www.inkscape.org/) -->

<svg
   xmlns:svg="http://www.w3.org/2000/svg"
   xmlns="http://www.w3.org/2000/svg"
   xmlns:xlink="http://www.w3.org/1999/xlink"
   version="1.1"
   width="48"
   height="48"
   id="svg2327">
  <defs
     id="defs3">
    <linearGradient
       id="linearGradient2329">
      <stop
         id="stop2331"
         style="stop-color:#ffffff;stop-opacity:1"
         offset="0" />
      <stop
         id="stop2333"
         style="stop-color:#ffffff;stop-opacity:0"
         offset="1" />
    </linearGradient>
    <linearGradient
       id="linearGradient2321">
      <stop
         id="stop2323"
         style="stop-color:#7b7f7a;stop-opacity:1"
         offset="0" />
      <stop
         id="stop2325"
         style="stop-color:#7b7f7a;stop-opacity:0"
         offset="1" />
    </linearGradient>
    <linearGradient
       id="linearGradient2711">
      <stop
         id="stop2713"
         style="stop-color:#909090;stop-opacity:1"
         offset="0" />
      <stop
         id="stop2715"
         style="stop-color:#bebebe;stop-opacity:0"
         offset="1" />
    </linearGradient>
    <linearGradient
       id="linearGradient2701">
      <stop
         id="stop2703"
         style="stop-color:#585956;stop-opacity:1"
         offset="0" />
      <stop
         id="stop2705"
         style="stop-color:#bbbeb8;stop-opacity:1"
         offset="1" />
    </linearGradient>
    <linearGradient
       id="linearGradient2683">
      <stop
         id="stop2685"
         style="stop-color:#000000;stop-opacity:1"
         offset="0" />
      <stop
         id="stop2687"
         style="stop-color:#000000;stop-opacity:0"
         offset="1" />
    </linearGradient>
    <linearGradient
       id="linearGradient2675">
      <stop
         id="stop2677"
         style="stop-color:#5b5b97;stop-opacity:1"
         offset="0" />
      <stop
         id="stop2679"
         style="stop-color:#1b1b43;stop-opacity:1"
         offset="1" />
    </linearGradient>
    <linearGradient
       id="linearGradient2667">
      <stop
         id="stop2669"
         style="stop-color:#ffffff;stop-opacity:1"
         offset="0" />
      <stop
         id="stop2671"
         style="stop-color:#fcfcff;stop-opacity:0"
         offset="1" />
    </linearGradient>
    <linearGradient
       id="linearGradient2454">
      <stop
         id="stop2456"
         style="stop-color:#000000;stop-opacity:1"
         offset="0" />
      <stop
         id="stop2458"
         style="stop-color:#000000;stop-opacity:0"
         offset="1" />
    </linearGradient>
    <linearGradient
       id="linearGradient2415">
      <stop
         id="stop2417"
         style="stop-color:#ffffff;stop-opacity:1"
         offset="0" />
      <stop
         id="stop2419"
         style="stop-color:#ffffff;stop-opacity:0"
         offset="1" />
    </linearGradient>
    <linearGradient
       id="linearGradient2253">
      <stop
         id="stop2255"
         style="stop-color:#8f8f8f;stop-opacity:1"
         offset="0" />
      <stop
         id="stop2257"
         style="stop-color:#494949;stop-opacity:1"
         offset="1" />
    </linearGradient>
    <linearGradient
       id="linearGradient2245">
      <stop
         id="stop2247"
         style="stop-color:#dde1d9;stop-opacity:1"
         offset="0" />
      <stop
         id="stop2249"
         style="stop-color:#cacdc6;stop-opacity:1"
         offset="1" />
    </linearGradient>
    <linearGradient
       x1="8.6116238"
       y1="7.2293582"
       x2="34.784473"
       y2="33.339787"
       id="linearGradient2251"
       xlink:href="#linearGradient2245"
       gradientUnits="userSpaceOnUse"
       gradientTransform="matrix(1.129863,0,0,0.885063,2.875,1.570628)" />
    <linearGradient
       x1="17.698339"
       y1="13.004725"
       x2="34.974548"
       y2="55.200756"
       id="linearGradient2421"
       xlink:href="#linearGradient2415"
       gradientUnits="userSpaceOnUse"
       gradientTransform="matrix(1.108069,0,0,0.902471,5.5,3.875)" />
    <radialGradient
       cx="12.57571"
       cy="67.501709"
       r="8.7662792"
       fx="12.57571"
       fy="67.501709"
       id="radialGradient2460"
       xlink:href="#linearGradient2454"
       gradientUnits="userSpaceOnUse"
       gradientTransform="scale(1.925808,0.519262)" />
    <linearGradient
       x1="11.492236"
       y1="1.6537577"
       x2="17.199417"
       y2="26.729263"
       id="linearGradient2673"
       xlink:href="#linearGradient2667"
       gradientUnits="userSpaceOnUse"
       gradientTransform="matrix(1.238977,0,0,0.895955,5.090553,1.543476)" />
    <linearGradient
       x1="19.150396"
       y1="32.622238"
       x2="16.315819"
       y2="8.8666229"
       id="linearGradient2681"
       xlink:href="#linearGradient2675"
       gradientUnits="userSpaceOnUse"
       gradientTransform="matrix(1.174139,0,0,0.945431,5.221825,1.543476)" />
    <linearGradient
       x1="3.7069976"
       y1="171.29134"
       x2="3.7069974"
       y2="162.45061"
       id="linearGradient2689"
       xlink:href="#linearGradient2683"
       gradientUnits="userSpaceOnUse"
       gradientTransform="matrix(5.705159,0,0,0.17528,5.5,2.195627)" />
    <linearGradient
       x1="12.206709"
       y1="53.535141"
       x2="12.127711"
       y2="64.892525"
       id="linearGradient2707"
       xlink:href="#linearGradient2701"
       gradientUnits="userSpaceOnUse"
       gradientTransform="matrix(1.816345,0,0,1.278927,2.5,-40.24508)" />
    <linearGradient
       x1="34.300991"
       y1="3.9384086"
       x2="35.520542"
       y2="3.8451097"
       id="linearGradient2717"
       xlink:href="#linearGradient2711"
       gradientUnits="userSpaceOnUse" />
    <linearGradient
       x1="34.300991"
       y1="3.9384086"
       x2="35.520542"
       y2="3.8451097"
       id="linearGradient2721"
       xlink:href="#linearGradient2711"
       gradientUnits="userSpaceOnUse" />
    <linearGradient
       x1="34.300991"
       y1="3.9384086"
       x2="35.520542"
       y2="3.8451097"
       id="linearGradient2725"
       xlink:href="#linearGradient2711"
       gradientUnits="userSpaceOnUse" />
    <linearGradient
       x1="34.300991"
       y1="3.9384086"
       x2="35.520542"
       y2="3.8451097"
       id="linearGradient2729"
       xlink:href="#linearGradient2711"
       gradientUnits="userSpaceOnUse" />
    <linearGradient
       x1="34.300991"
       y1="3.9384086"
       x2="35.520542"
       y2="3.8451097"
       id="linearGradient2733"
       xlink:href="#linearGradient2711"
       gradientUnits="userSpaceOnUse" />
    <linearGradient
       x1="10.390738"
       y1="5.3817744"
       x2="32.536823"
       y2="31.246054"
       id="linearGradient1561"
       xlink:href="#linearGradient2253"
       gradientUnits="userSpaceOnUse"
       gradientTransform="matrix(1.104397,0,0,0.905471,4.5,2.875)" />
    <linearGradient
       x1="-35.658386"
       y1="33.416473"
       x2="-35.658386"
       y2="28.205938"
       id="linearGradient2327"
       xlink:href="#linearGradient2321"
       gradientUnits="userSpaceOnUse" />
    <linearGradient
       x1="-35.122688"
       y1="34.242237"
       x2="-35.074745"
       y2="30.962345"
       id="linearGradient2337"
       xlink:href="#linearGradient2329"
       gradientUnits="userSpaceOnUse" />
  </defs>
  <g
     id="layer1">
    <path
       d="m 41.10058,35.051105 a 16.882174,4.552 0 1 1 -33.7643469,0 16.882174,4.552 0 1 1 33.7643469,0 z"
       transform="matrix(1.050251,0,0,1.867888,-0.945558,-28.10611)"
       id="path2452"
       style="opacity:0.50857143;color:#000000;fill:url(#radialGradient2460);fill-opacity:1;fill-rule:evenodd;stroke:none;stroke-width:1;marker:none;visibility:visible;display:inline;overflow:visible" />
    <path
       d="m -26.263968,29.716238 a 9.3944187,3.939595 0 1 1 -18.788837,0 9.3944187,3.939595 0 1 1 18.788837,0 z"
       transform="translate(60.03339,8.07843)"
       id="path2407"
       style="color:#000000;fill:#adb0aa;fill-opacity:1;fill-rule:evenodd;stroke:#4b4d4a;stroke-width:1;stroke-linecap:butt;stroke-linejoin:miter;stroke-miterlimit:4;stroke-opacity:1;stroke-dashoffset:0;marker:none;visibility:visible;display:inline;overflow:visible" />
    <path
       d="m -26.263968,29.716238 a 9.3944187,3.939595 0 1 1 -18.788837,0 9.3944187,3.939595 0 1 1 18.788837,0 z"
       transform="matrix(0.902373,0,0,0.82765,56.55215,12.86792)"
       id="path1825"
       style="color:#000000;fill:none;stroke:url(#linearGradient2327);stroke-width:1.15713382;stroke-linecap:butt;stroke-linejoin:miter;stroke-miterlimit:4;stroke-opacity:1;stroke-dasharray:none;stroke-dashoffset:0;marker:none;visibility:visible;display:inline;overflow:visible" />
    <path
       d="m -26.263968,29.716238 a 9.3944187,3.939595 0 1 1 -18.788837,0 9.3944187,3.939595 0 1 1 18.788837,0 z"
       transform="matrix(0.837548,0,0,0.852655,54.17811,11.00615)"
       id="path2983"
       style="color:#000000;fill:none;stroke:url(#linearGradient2337);stroke-width:1.18333709;stroke-linecap:butt;stroke-linejoin:miter;stroke-miterlimit:4;stroke-opacity:1;stroke-dasharray:none;stroke-dashoffset:0;marker:none;visibility:visible;display:inline;overflow:visible" />
    <rect
       width="9.0396729"
       height="6.3650389"
       x="19.972397"
       y="31.078613"
       id="rect2699"
       style="color:#000000;fill:url(#linearGradient2707);fill-opacity:1;fill-rule:evenodd;stroke:none;stroke-width:0.60872948;marker:none;visibility:visible;display:inline;overflow:visible" />
    <path
       d="m 7.5809024,4.5706221 33.5881946,0 c 0.911342,0 1.624147,0.5834818 1.666752,1.401587 l 1.332044,25.5781139 c 0.05821,1.117735 -0.901056,2.020305 -2.020305,2.020305 l -35.545176,0 c -1.1192491,0 -2.078514,-0.90257 -2.0203052,-2.020305 L 5.9141506,5.9722091 c 0.040284,-0.7735346 0.5475027,-1.401587 1.6667518,-1.401587 z"
       id="rect2404"
       style="color:#000000;fill:url(#linearGradient2251);fill-opacity:1;fill-rule:evenodd;stroke:url(#linearGradient1561);stroke-width:1;stroke-linecap:butt;stroke-linejoin:miter;stroke-miterlimit:4;stroke-opacity:1;stroke-dashoffset:0;marker:none;visibility:visible;display:inline;overflow:visible" />
    <path
       d="m 8.910535,7.180827 -1.2421952,22.045317 31.6503892,0 L 37.983712,7.274256 8.910535,7.180827 z"
       id="path2377"
       style="fill:url(#linearGradient2681);fill-opacity:1;fill-rule:evenodd;stroke:#000079;stroke-width:0.5;stroke-linecap:butt;stroke-linejoin:round;stroke-miterlimit:4;stroke-opacity:1;stroke-dasharray:none" />
    <path
       d="m 6.6774331,31.610789 35.4284769,0"
       id="path2393"
       style="fill:none;stroke:url(#linearGradient2689);stroke-width:0.99618119;stroke-linecap:round;stroke-linejoin:miter;stroke-miterlimit:4;stroke-opacity:0.24840764" />
    <path
       d="M 7.4145985,5.5813396 41.260101,5.5435383 c 0.283697,-3.169e-4 0.559302,0.2372498 0.582105,0.6525437 l 1.361892,24.803248 c 0.05804,1.057031 -0.539749,1.785871 -1.598371,1.785871 l -34.5239687,0 c -1.0586228,0 -1.5930144,-0.728791 -1.5358714,-1.785871 L 6.8699773,6.505163 C 6.9086732,5.7893326 7.0363626,5.581762 7.4145985,5.5813396 z"
       id="path2397"
       style="color:#000000;fill:none;stroke:url(#linearGradient2421);stroke-width:0.99999964;stroke-linecap:butt;stroke-linejoin:miter;stroke-miterlimit:4;stroke-opacity:0.70063692;stroke-dashoffset:0;marker:none;visibility:visible;display:inline;overflow:visible" />
    <path
       d="M 9.211536,7.621363 8.409007,25.491693 C 19.453645,23.091063 23.83047,14.999494 37.563039,12.344943 L 37.401567,7.687427 9.211536,7.621363 z"
       id="path2443"
       style="opacity:0.53142856;fill:url(#linearGradient2673);fill-opacity:1;fill-rule:evenodd;stroke:none" />
    <path
       d="m 35.620504,3.9384086 a 0.83968931,0.83968931 0 1 1 -1.679378,0 0.83968931,0.83968931 0 1 1 1.679378,0 z"
       transform="matrix(1.331237,0,0,0.658449,-5.91933,5.728866)"
       id="path2709"
       style="color:#000000;fill:url(#linearGradient2717);fill-opacity:1;fill-rule:evenodd;stroke:none;stroke-width:0.5;marker:none;visibility:visible;display:inline;overflow:visible" />
    <path
       d="m 35.620504,3.9384086 a 0.83968931,0.83968931 0 1 1 -1.679378,0 0.83968931,0.83968931 0 1 1 1.679378,0 z"
       transform="matrix(1.331237,0,0,0.658449,-5.80573,7.83465)"
       id="path2719"
       style="color:#000000;fill:url(#linearGradient2721);fill-opacity:1;fill-rule:evenodd;stroke:none;stroke-width:0.5;marker:none;visibility:visible;display:inline;overflow:visible" />
    <path
       d="m 35.620504,3.9384086 a 0.83968931,0.83968931 0 1 1 -1.679378,0 0.83968931,0.83968931 0 1 1 1.679378,0 z"
       transform="matrix(1.331237,0,0,0.658449,-5.69213,9.83465)"
       id="path2723"
       style="color:#000000;fill:url(#linearGradient2725);fill-opacity:1;fill-rule:evenodd;stroke:none;stroke-width:0.5;marker:none;visibility:visible;display:inline;overflow:visible" />
    <path
       d="m 35.620504,3.9384086 a 0.83968931,0.83968931 0 1 1 -1.679378,0 0.83968931,0.83968931 0 1 1 1.679378,0 z"
       transform="matrix(1.331237,0,0,0.658449,-5.57853,11.83465)"
       id="path2727"
       style="color:#000000;fill:url(#linearGradient2729);fill-opacity:1;fill-rule:evenodd;stroke:none;stroke-width:0.5;marker:none;visibility:visible;display:inline;overflow:visible" />
    <path
       d="m 35.620504,3.9384086 a 0.83968931,0.83968931 0 1 1 -1.679378,0 0.83968931,0.83968931 0 1 1 1.679378,0 z"
       transform="matrix(1.331237,0,0,0.658449,-5.46493,13.83465)"
       id="path2731"
       style="color:#000000;fill:url(#linearGradient2733);fill-opacity:1;fill-rule:evenodd;stroke:none;stroke-width:0.5;marker:none;visibility:visible;display:inline;overflow:visible" />
    <path
       d="m 22.5,30.192666 0.281716,0 c 0.08376,1e-6 0.147985,0.01866 0.19266,0.05599 0.04497,0.03703 0.06745,0.08994 0.06745,0.158714 -1e-6,0.06907 -0.02248,0.122268 -0.06745,0.159595 -0.04467,0.03703 -0.108895,0.05555 -0.19266,0.05555 l -0.111981,0 0,0.22837 -0.169735,0 0,-0.658219 m 0.169735,0.123003 0,0.183843 0.0939,0 c 0.03292,0 0.05834,-0.0079 0.07627,-0.02381 0.01793,-0.01617 0.02689,-0.03894 0.02689,-0.06834 0,-0.02939 -0.009,-0.05202 -0.02689,-0.06789 -0.01793,-0.01587 -0.04335,-0.02381 -0.07627,-0.02381 l -0.0939,0 m 0.792244,-0.0119 c -0.05173,1e-6 -0.09185,0.01911 -0.120358,0.05731 -0.02851,0.03821 -0.04276,0.092 -0.04276,0.161359 0,0.06907 0.01425,0.122709 0.04276,0.160918 0.02851,0.03821 0.06863,0.05731 0.120358,0.05731 0.05202,0 0.09229,-0.0191 0.120799,-0.05731 0.02851,-0.03821 0.04276,-0.09185 0.04276,-0.160918 -1e-6,-0.06936 -0.01425,-0.123149 -0.04276,-0.161359 -0.02851,-0.03821 -0.06878,-0.05731 -0.120799,-0.05731 m 0,-0.123003 c 0.105808,10e-7 0.188692,0.03027 0.248651,0.09082 0.05996,0.06055 0.08994,0.144165 0.08994,0.250855 -10e-7,0.106397 -0.02998,0.189868 -0.08994,0.250414 -0.05996,0.06055 -0.142843,0.09082 -0.248651,0.09082 -0.105515,0 -0.188399,-0.03027 -0.248651,-0.09082 -0.05996,-0.06055 -0.08994,-0.144017 -0.08994,-0.250414 0,-0.10669 0.02998,-0.190309 0.08994,-0.250855 0.06025,-0.06055 0.143136,-0.09082 0.248651,-0.09082 m 0.466441,0.0119 0.189574,0 0.239393,0.451451 0,-0.451451 0.160918,0 0,0.658219 -0.189575,0 -0.239392,-0.451451 0,0.451451 -0.160918,0 0,-0.658219 m 0.663069,0 0.185606,0 0.149896,0.234543 0.149896,-0.234543 0.186048,0 -0.250856,0.380912 0,0.277307 -0.169735,0 0,-0.277307 -0.250855,-0.380912"
       id="text2735"
       style="font-size:0.9029026px;font-style:normal;font-variant:normal;font-weight:bold;font-stretch:normal;writing-mode:lr-tb;text-anchor:start;fill:#4a4a4a;fill-opacity:1;stroke:none;font-family:Bitstream Vera Sans" />
  </g>
</svg>
