<?xml version="1.0" encoding="UTF-8" standalone="no"?>
<!-- Created with Inkscape (http://www.inkscape.org/) -->

<svg
   xmlns:dc="http://purl.org/dc/elements/1.1/"
   xmlns:cc="http://creativecommons.org/ns#"
   xmlns:rdf="http://www.w3.org/1999/02/22-rdf-syntax-ns#"
   xmlns:svg="http://www.w3.org/2000/svg"
   xmlns="http://www.w3.org/2000/svg"
   xmlns:sodipodi="http://sodipodi.sourceforge.net/DTD/sodipodi-0.dtd"
   xmlns:inkscape="http://www.inkscape.org/namespaces/inkscape"
   version="1.0"
   width="107.66664"
   height="171.24731"
   id="svg2"
   inkscape:version="0.47 r22583"
   sodipodi:docname="front.svg">
  <metadata
     id="metadata38">
    <rdf:RDF>
      <cc:Work
         rdf:about="">
        <dc:format>image/svg+xml</dc:format>
        <dc:type
           rdf:resource="http://purl.org/dc/dcmitype/StillImage" />
        <dc:title></dc:title>
      </cc:Work>
    </rdf:RDF>
  </metadata>
  <sodipodi:namedview
     pagecolor="#ffffff"
     bordercolor="#666666"
     borderopacity="1"
     objecttolerance="10"
     gridtolerance="10"
     guidetolerance="10"
     inkscape:pageopacity="0"
     inkscape:pageshadow="2"
     inkscape:window-width="1024"
     inkscape:window-height="551"
     id="namedview36"
     showgrid="false"
     inkscape:zoom="0.57840699"
     inkscape:cx="55.136277"
     inkscape:cy="86.404973"
     inkscape:window-x="0"
     inkscape:window-y="26"
     inkscape:window-maximized="1"
     inkscape:current-layer="svg2" />
  <defs
     id="defs4">
    <inkscape:path-effect
       effect="spiro"
       id="path-effect3684"
       is_visible="true" />
    <inkscape:perspective
       sodipodi:type="inkscape:persp3d"
       inkscape:vp_x="0 : 99.326523 : 1"
       inkscape:vp_y="0 : 1000 : 0"
       inkscape:vp_z="107.28794 : 99.326523 : 1"
       inkscape:persp3d-origin="53.64397 : 66.217682 : 1"
       id="perspective40" />
    <linearGradient
       x1="79.135063"
       y1="222.45238"
       x2="81.359901"
       y2="288.58099"
       id="linearGradient22173"
       gradientUnits="userSpaceOnUse" />
    <linearGradient
       x1="146.3828"
       y1="70.228607"
       x2="116.75287"
       y2="53.988689"
       id="linearGradient15268"
       gradientUnits="userSpaceOnUse"
       gradientTransform="scale(1.034178,0.966951)" />
    <linearGradient
       x1="162.97719"
       y1="23.931684"
       x2="131.34537"
       y2="10.142395"
       id="linearGradient15267"
       gradientUnits="userSpaceOnUse"
       gradientTransform="scale(1.035723,0.965509)" />
    <linearGradient
       x1="215.19115"
       y1="116.1558"
       x2="148.53513"
       y2="78.029449"
       id="linearGradient15266"
       gradientUnits="userSpaceOnUse"
       gradientTransform="scale(1.026523,0.974162)" />
    <linearGradient
       x1="230.18588"
       y1="64.586258"
       x2="171.49763"
       y2="31.573004"
       id="linearGradient15265"
       gradientUnits="userSpaceOnUse"
       gradientTransform="scale(1.032621,0.96841)" />
    <radialGradient
       cx="24.825565"
       cy="176.56438"
       r="42.859913"
       fx="40.974991"
       fy="162.11137"
       id="radialGradient15264"
       gradientUnits="userSpaceOnUse" />
    <inkscape:perspective
       id="perspective3524"
       inkscape:persp3d-origin="0.5 : 0.33333333 : 1"
       inkscape:vp_z="1 : 0.5 : 1"
       inkscape:vp_y="0 : 1000 : 0"
       inkscape:vp_x="0 : 0.5 : 1"
       sodipodi:type="inkscape:persp3d" />
    <clipPath
       clipPathUnits="userSpaceOnUse"
       id="clipPath3715">
      <path
         style="fill:#ffffff;fill-opacity:1;fill-rule:nonzero;stroke:#000000;stroke-width:0.56952214;stroke-linecap:round;stroke-linejoin:round;stroke-miterlimit:4;stroke-opacity:1;stroke-dasharray:none;stroke-dashoffset:0.2;display:inline"
         d="m 185.11688,220.33022 c 3.59845,-7.71094 8.88596,-0.36717 8.88596,-0.36717 -4.11251,6.38907 -8.88596,0.44064 -8.88596,0.36717 z"
         id="path3717" />
    </clipPath>
    <inkscape:perspective
       id="perspective3554"
       inkscape:persp3d-origin="0.5 : 0.33333333 : 1"
       inkscape:vp_z="1 : 0.5 : 1"
       inkscape:vp_y="0 : 1000 : 0"
       inkscape:vp_x="0 : 0.5 : 1"
       sodipodi:type="inkscape:persp3d" />
    <inkscape:perspective
       id="perspective3594"
       inkscape:persp3d-origin="0.5 : 0.33333333 : 1"
       inkscape:vp_z="1 : 0.5 : 1"
       inkscape:vp_y="0 : 1000 : 0"
       inkscape:vp_x="0 : 0.5 : 1"
       sodipodi:type="inkscape:persp3d" />
  </defs>
  <g
     transform="translate(-845.42569,-973.71234)"
     id="layer1" />
  <g
     transform="translate(-845.42569,-973.71234)"
     id="layer3" />
  <g
     transform="translate(-845.42569,-973.71234)"
     id="layer4" />
  <path
     style="fill:#000000;fill-opacity:1;fill-rule:evenodd;stroke:#000000;stroke-width:1.25;stroke-linecap:butt;stroke-linejoin:miter;stroke-miterlimit:4;stroke-opacity:1;display:inline"
     d="m 78.6447,150.80154 c 27.45038,1.4198 28.39694,13.7252 28.39694,13.7252 0,9.9389 -53.00762,4.7328 -53.00762,4.7328 l 0,-16.0916 24.61068,-2.3664 z"
     id="path1288"
     sodipodi:nodetypes="ccccc" />
  <path
     style="fill:#000000;fill-opacity:1;fill-rule:evenodd;stroke:#000000;stroke-width:1.25;stroke-linecap:butt;stroke-linejoin:miter;stroke-miterlimit:4;stroke-opacity:1;display:inline"
     d="M 29.02194,150.61214 C 1.57156,152.03194 0.625,164.33734 0.625,164.33734 c 0,9.9389 53.00762,4.7328 53.00762,4.7328 l 0,-16.0916 -24.61068,-2.3664 z"
     id="path1292"
     sodipodi:nodetypes="ccccc" />
  <path
     sodipodi:type="arc"
     style="fill:#ffcf68;fill-opacity:1;stroke:#000000;stroke-width:1.25;stroke-miterlimit:4;stroke-opacity:1;display:inline"
     id="path2112"
     sodipodi:cx="54.664104"
     sodipodi:cy="525.42224"
     sodipodi:rx="6.8625937"
     sodipodi:ry="6.8625937"
     d="m 61.526698,525.42224 a 6.8625937,6.8625937 0 1 1 -13.725187,0 6.8625937,6.8625937 0 1 1 13.725187,0 z"
     transform="matrix(1.031733,0,0,0.716766,-35.18027,-329.70604)" />
  <path
     sodipodi:type="arc"
     style="fill:#ffcf68;fill-opacity:1;stroke:#000000;stroke-width:1.25;stroke-miterlimit:4;stroke-opacity:1;display:inline"
     id="path2113"
     sodipodi:cx="129.67935"
     sodipodi:cy="524.94897"
     sodipodi:rx="6.6259522"
     sodipodi:ry="5.4427466"
     d="m 136.3053,524.94897 a 6.6259522,5.4427466 0 1 1 -13.2519,0 6.6259522,5.4427466 0 1 1 13.2519,0 z"
     transform="translate(-46.33337,-476.42825)" />
  <path
     sodipodi:type="arc"
     style="fill:#ffcf68;fill-opacity:1;stroke:#000000;stroke-width:1.83430135;stroke-miterlimit:4;stroke-opacity:1;display:inline"
     id="path2061"
     sodipodi:cx="99.152641"
     sodipodi:cy="518.55963"
     sodipodi:rx="51.824413"
     sodipodi:ry="51.587772"
     d="m 150.97705,518.55963 a 51.824413,51.587772 0 1 1 -103.648822,0 51.824413,51.587772 0 1 1 103.648822,0 z"
     transform="matrix(0.564072,0,0,0.719809,-3.76047,-331.07584)" />
  <path
     style="fill:#ffcf68;fill-opacity:1;fill-rule:evenodd;stroke:#000000;stroke-width:1.25;stroke-linecap:butt;stroke-linejoin:miter;stroke-miterlimit:4;stroke-opacity:1;display:inline"
     d="m 55.33669,70.816442 -1.41984,16.091604 -8.99237,4.2595 11.83206,15.145094 11.83206,-16.091594 -9.93893,-4.2596 1.04106,-15.145804 -4.35404,8e-4 z"
     id="path1300"
     sodipodi:nodetypes="cccccccc" />
  <path
     style="fill:#ffcf68;fill-opacity:1;fill-rule:evenodd;stroke:#000000;stroke-width:1.25;stroke-linecap:butt;stroke-linejoin:miter;stroke-miterlimit:4;stroke-opacity:1;display:inline"
     d="m 74.64058,106.76414 6.15267,16.5648 c 9.93893,2.3664 3.78626,11.8321 3.78626,11.8321 -8.51908,3.313 -11.35877,-0.9466 -11.35877,-0.9466 l -5.20611,-27.4503 6.62595,0 z"
     id="path1307" />
  <path
     style="fill:#ffcf68;fill-opacity:1;fill-rule:evenodd;stroke:#000000;stroke-width:1.25;stroke-linecap:butt;stroke-linejoin:miter;stroke-miterlimit:4;stroke-opacity:1;display:inline"
     d="m 36.87868,109.15234 -6.15267,16.5649 c -9.93892,2.3664 -3.78625,11.832 -3.78625,11.832 8.51908,3.313 11.35877,-0.9466 11.35877,-0.9466 l 5.20611,-27.4503 -6.62596,0 z"
     id="path1310" />
  <path
     style="fill:#ff0000;fill-opacity:1;fill-rule:evenodd;stroke:#000000;stroke-width:1.25;stroke-linecap:butt;stroke-linejoin:miter;stroke-miterlimit:4;stroke-opacity:1;display:inline"
     d="m 36.88912,125.75104 -8.13889,24.1171 c 8.54584,4.3067 25.63751,2.584 25.63751,2.584 8.95279,5.168 27.67224,-1.292 27.67224,-1.292 l -7.73195,-29.2851 -37.43891,3.876 z"
     id="path1342" />
  <path
     style="fill:#0000ff;fill-opacity:1;fill-rule:evenodd;stroke:#000000;stroke-width:1.25;stroke-linecap:butt;stroke-linejoin:miter;stroke-miterlimit:4;stroke-opacity:1;display:inline"
     d="m 47.15146,87.552746 9.7541,-1.4725 11.88417,1.7989 12.42197,17.629794 -11.62055,4.2442 -3.20567,-13.711994 10.41842,31.668294 c -12.82267,5.5501 -41.27299,0.3264 -41.27299,0.3264 l 9.61701,-31.341794 -4.00709,14.364994 -11.62056,-4.2442 17.63119,-19.262094 z"
     id="path1351"
     sodipodi:nodetypes="cccccccccccc" />
  <path
     style="fill:none;stroke:#000000;stroke-width:1.25;stroke-linecap:butt;stroke-linejoin:miter;stroke-miterlimit:4;stroke-opacity:1;display:inline"
     d="m 41.8473,138.66694 c 15.53492,-2.9463 25.44513,0.2678 25.44513,0.2678"
     id="path1375" />
  <path
     style="fill:none;stroke:#000000;stroke-width:1.25;stroke-linecap:butt;stroke-linejoin:miter;stroke-miterlimit:4;stroke-opacity:1;display:inline"
     d="m 54.43594,137.59554 -0.26784,14.9993"
     id="path1376" />
  <path
     style="fill:#000000;fill-opacity:1;fill-rule:evenodd;stroke:#000000;stroke-width:1.25;stroke-linecap:butt;stroke-linejoin:miter;stroke-miterlimit:4;stroke-opacity:1;display:inline"
     d="m 21.16633,37.717942 23.30239,8.3031 c 24.10591,6.1604 39.90868,-10.1781 39.90868,-10.1781 -9.37452,-41.5157 -32.67691,-34.8196 -32.67691,-34.8196 -24.37376,4.8212 -30.53416,36.6946 -30.53416,36.6946 z"
     id="path2110"
     sodipodi:nodetypes="ccccc" />
</svg>
