<?xml version="1.0" encoding="UTF-8" standalone="no"?>
<!-- Created with Inkscape (http://www.inkscape.org/) -->

<svg
   xmlns:svg="http://www.w3.org/2000/svg"
   xmlns="http://www.w3.org/2000/svg"
   version="1.0"
   width="107.28794"
   height="198.65303"
   id="svg2">
  <defs
     id="defs4" />
  <g
     transform="translate(-625.25198,-957.99202)"
     id="layer1" />
  <g
     transform="translate(-625.25198,-957.99202)"
     id="layer2">
    <path
       d="m 696.40655,1086.2252 5.17001,21.5567 c 11.03354,3.5439 4.44536,11.1808 4.44536,11.1808 -6.20247,4.2498 -11.88131,0.5533 -11.88131,0.5533 -3.41135,-6.8695 -3.75575,-33.9765 -3.75575,-33.9765 l 6.02169,0.6857 z"
       id="path3772"
       style="fill:#ffeec4;fill-opacity:1;fill-rule:evenodd;stroke:#000000;stroke-width:1.25;stroke-linecap:butt;stroke-linejoin:miter;stroke-miterlimit:4;stroke-opacity:1;display:inline" />
    <path
       d="m 661.42144,1088.498 -5.17001,21.5567 c -11.03354,3.5438 -4.44536,11.1808 -4.44536,11.1808 6.20247,4.2497 11.88131,0.5532 11.88131,0.5532 3.41135,-6.8695 3.75575,-33.9764 3.75575,-33.9764 l -6.02169,0.6857 z"
       id="path3766"
       style="fill:#ffeec4;fill-opacity:1;fill-rule:evenodd;stroke:#000000;stroke-width:1.25;stroke-linecap:butt;stroke-linejoin:miter;stroke-miterlimit:4;stroke-opacity:1;display:inline" />
    <g
       transform="translate(68.690001,502.34781)"
       id="g3717"
       style="display:inline">
      <path
         d="m 62.946547,630.72755 -3.518416,27.92519 c 9.938928,4.73283 23.869555,1.41832 23.869555,1.41832 10.412211,5.67939 26.015694,-0.70916 26.015694,-0.70916 l -2.82486,-32.89389 -43.541973,4.25954 z"
         transform="matrix(0.859835,0,0,0.532987,537.0548,277.0172)"
         id="path3709"
         style="fill:#0600ff;fill-opacity:1;fill-rule:evenodd;stroke:#000000;stroke-width:1.84647799;stroke-linecap:butt;stroke-linejoin:miter;stroke-miterlimit:4;stroke-opacity:1;stroke-dasharray:none" />
      <path
         d="m 605.49242,620.80796 -1.13636,2.84091 7.00758,0.37879"
         id="path3715"
         style="fill:none;stroke:#000000;stroke-width:1.25;stroke-linecap:butt;stroke-linejoin:miter;stroke-miterlimit:4;stroke-opacity:1;stroke-dasharray:none" />
      <path
         d="m 608.71212,621.18675 0,7.95454"
         id="path3716"
         style="fill:none;stroke:#000000;stroke-width:1.25;stroke-linecap:butt;stroke-linejoin:miter;stroke-miterlimit:4;stroke-opacity:1;stroke-dasharray:none" />
    </g>
    <path
       d="m 679.83122,1047.3127 -1.41985,16.0916 -8.99236,4.2596 11.83206,15.145 11.83205,-16.0916 -9.93892,-4.2595 1.41984,-13.2519 -4.73282,-1.8932 z"
       id="path3706"
       style="fill:#ffeec4;fill-opacity:1;fill-rule:evenodd;stroke:#000000;stroke-width:1.25;stroke-linecap:butt;stroke-linejoin:miter;stroke-miterlimit:4;stroke-opacity:1;display:inline" />
    <path
       d="m 703.51798,1136.1993 c 27.45038,1.4198 28.39694,13.7251 28.39694,13.7251 0,9.939 -53.00762,4.7329 -53.00762,4.7329 l 0,-16.0916 24.61068,-2.3664 z"
       id="path3733"
       style="fill:#ffffff;fill-opacity:1;fill-rule:evenodd;stroke:#000000;stroke-width:1.25;stroke-linecap:butt;stroke-linejoin:miter;stroke-miterlimit:4;stroke-opacity:1;display:inline" />
    <path
       d="m 654.27392,1136.1993 c -27.45038,1.4198 -28.39694,13.7251 -28.39694,13.7251 0,9.939 53.00762,4.7329 53.00762,4.7329 l 0,-16.0916 -24.61068,-2.3664 z"
       id="path3737"
       style="fill:#ffffff;fill-opacity:1;fill-rule:evenodd;stroke:#000000;stroke-width:1.25;stroke-linecap:butt;stroke-linejoin:miter;stroke-miterlimit:4;stroke-opacity:1;display:inline" />
    <g
       transform="translate(68.690001,502.34781)"
       id="g3657"
       style="display:inline">
      <path
         d="m 638.25757,526.30038 0.75758,18.93939 -5.68182,-5.68182 -0.37879,6.4394 -2.27272,-6.06061 -3.4091,6.06061 -0.75757,-7.57576 11.74242,-12.12121 z"
         id="path3647"
         style="fill:#ffff00;fill-opacity:1;fill-rule:evenodd;stroke:#000000;stroke-width:1.25;stroke-linecap:butt;stroke-linejoin:miter;stroke-miterlimit:4;stroke-opacity:1" />
      <path
         d="m 589.01515,527.05796 -0.75758,18.93939 5.68182,-5.68182 0.37879,6.4394 2.27272,-6.06061 3.4091,6.06061 0.75757,-7.57576 -11.74242,-12.12121 z"
         id="path3643"
         style="fill:#ffff00;fill-opacity:1;fill-rule:evenodd;stroke:#000000;stroke-width:1.25;stroke-linecap:butt;stroke-linejoin:miter;stroke-miterlimit:4;stroke-opacity:1" />
    </g>
    <path
       d="m 643.56059,503.9519 a 29.545454,40.530304 0 1 1 -59.09091,0 29.545454,40.530304 0 1 1 59.09091,0 z"
       transform="matrix(1,0,0,1.138058,68.690001,431.25811)"
       id="path2777"
       style="fill:#ffeec4;fill-opacity:1;stroke:#000000;stroke-width:1.25;stroke-miterlimit:4;stroke-opacity:1;display:inline" />
    <path
       d="m 709.87308,1005.4864 7.16856,22.0408 -8.44223,-14.0862 4.18087,17.3437 -14.24716,-22.6467 2.45738,12.8267 -16.60037,-15.4783"
       id="path3638"
       style="fill:#ffff00;fill-opacity:1;fill-rule:evenodd;stroke:#000000;stroke-width:1pt;stroke-linecap:butt;stroke-linejoin:miter;stroke-opacity:1;display:inline" />
    <path
       d="m 655.19505,1006.244 -7.16856,22.0407 8.44223,-14.0861 -4.18087,17.3437 14.24716,-22.6468 -2.45738,12.8267 16.22159,-16.2358"
       id="path1709"
       style="fill:#ffff00;fill-opacity:1;fill-rule:evenodd;stroke:#000000;stroke-width:1pt;stroke-linecap:butt;stroke-linejoin:miter;stroke-opacity:1;display:inline" />
    <path
       d="m 678.54921,1138.1939 c 7.8737,1.3576 13.85536,1.4102 21.59168,0 0.85303,-0.011 1.32566,-2.2068 1.23506,-4.0097 0.024,-1.6159 0.0119,-3.5377 -0.64541,-4.4902 -0.5319,-0.6977 -1.16192,-0.316 -1.74409,-0.4146 -8.15335,1.783 -11.59374,1.5151 -20.43724,0 -0.85301,0.011 -1.32564,2.2068 -1.23504,4.0099 -0.024,1.6158 -0.0119,3.5375 0.64541,4.4899 0.17473,0.2661 0.38134,0.4165 0.58963,0.4147 z"
       id="path3799"
       style="fill:#ff8c00;fill-opacity:1;stroke:#000000;stroke-width:1.25;stroke-miterlimit:4;stroke-opacity:1;display:inline" />
    <path
       d="m 655.82194,1138.9515 c 7.8737,1.3576 13.85536,1.4101 21.59168,0 0.85303,-0.011 1.32566,-2.2068 1.23506,-4.0098 0.024,-1.6158 0.0119,-3.5376 -0.64541,-4.4901 -0.5319,-0.6977 -1.16192,-0.316 -1.74409,-0.4147 -8.15335,1.7831 -11.59374,1.5152 -20.43724,0 -0.85301,0.011 -1.32564,2.2068 -1.23504,4.0099 -0.024,1.6158 -0.0119,3.5376 0.64541,4.49 0.17473,0.2661 0.38134,0.4164 0.58963,0.4147 z"
       id="path3725"
       style="fill:#ff8c00;fill-opacity:1;stroke:#000000;stroke-width:1.25;stroke-miterlimit:4;stroke-opacity:1;display:inline" />
    <g
       transform="translate(68.690001,502.34781)"
       id="g3726"
       style="display:inline">
      <path
         d="m 643.56059,503.9519 a 29.545454,40.530304 0 1 1 -59.09091,0"
         transform="matrix(1,0,0,-1.138058,3.333333e-6,1076.395)"
         id="path2779"
         style="fill:#ff0000;fill-opacity:1;stroke:#000000;stroke-width:1.25;stroke-miterlimit:4;stroke-opacity:1" />
      <path
         d="m 583.95336,497.57811 c 21.61503,-3.0303 39.44217,-3.40909 60.29962,0 2.38226,0.0129 3.70219,2.60926 3.44916,4.74118 0.0671,1.91053 0.0333,4.1828 -1.80245,5.30894 -1.48547,0.82497 -3.24492,0.37366 -4.87077,0.49032 -19.40398,-4.16667 -33.12613,-4.16667 -57.07556,-1e-5 -2.38226,-0.0129 -3.70218,-2.60926 -3.44915,-4.74118 -0.0671,-1.91052 -0.0333,-4.18279 1.80245,-5.30893 0.48798,-0.31458 1.06497,-0.49235 1.6467,-0.49032 z"
         transform="matrix(1,0,0,1.138058,0,-71.08973)"
         id="rect2780"
         style="fill:#ff8c00;fill-opacity:1;stroke:#000000;stroke-width:1.27491915;stroke-miterlimit:4;stroke-opacity:1" />
    </g>
    <g
       transform="translate(68.690001,502.34781)"
       id="g3703"
       style="display:inline">
      <path
         d="m 602.12989,530.86845 c 4.92665,-5.60302 3.20474,3.61349 2.69071,0.88757 1.9602,-2.34669 2.95818,-2.51226 5.54437,-1.69045 -0.0209,-0.0289 -0.0417,-0.0579 -0.0626,-0.0868 l 0.67636,1.37229 c -0.24207,0.0801 -0.48415,0.16018 -0.72622,0.24027 -2.79162,-0.64108 -2.07842,-1.23608 -4.52736,1.39857 -5.38134,3.48665 2.58736,-7.9687 -2.51341,-1.03965 l -1.08182,-1.08182 z"
         id="path3660"
         style="fill:#000000;fill-opacity:1;fill-rule:nonzero;stroke:none" />
      <path
         d="m 614.56728,529.29973 c 2.27316,-2.20018 3.10381,3.15946 2.40404,0.88226 2.38249,0.0162 2.29496,-0.69063 4.56975,-1.09388 0.62368,0.16192 1.16571,0.49085 1.73274,0.77392 l -0.62753,1.3953 c -0.31635,-0.15756 -0.94462,-0.42072 -1.08062,-0.63949 -1.31256,0.34406 -2.45151,1.02431 -3.50032,0.63363 -3.33506,2.9186 -3.05186,-3.8383 -1.32754,-1.64483 0.0946,0.12036 -1.40504,0.86484 -1.32188,0.96607 l -0.84864,-1.27298 z"
         id="path3661"
         style="fill:#000000;fill-opacity:1;fill-rule:nonzero;stroke:none" />
    </g>
    <g
       transform="translate(68.690001,502.34781)"
       id="g3689"
       style="fill:#000000;fill-opacity:1;stroke:none;display:inline">
      <path
         d="m 607.2367,545.43155 c -1.15458,1.83076 -2.3091,3.66086 -3.4138,5.52225 l -0.87701,-0.52072 c 1.10622,-1.86229 2.25997,-3.69473 3.41621,-5.52629 l 0.8746,0.52476 z"
         id="path3682"
         style="fill:#000000;fill-opacity:1;fill-rule:nonzero;stroke:none" />
      <path
         d="m 608.99652,546.06684 c -0.91679,1.92189 -1.26918,4.02666 -1.59277,6.11116 l -1.00782,-0.15677 c 0.34111,-2.18849 0.72023,-4.39522 1.68832,-6.41052 l 0.91227,0.45613 z"
         id="path3683"
         style="fill:#000000;fill-opacity:1;fill-rule:nonzero;stroke:none" />
      <path
         d="m 611.04396,546.76599 c -0.65137,2.87861 -0.44213,5.79948 -0.36996,8.7193 l -1.01964,0.0252 c -0.0743,-3.01141 -0.27866,-6.02436 0.4001,-8.99185 l 0.9895,0.24737 z"
         id="path3684"
         style="fill:#000000;fill-opacity:1;fill-rule:nonzero;stroke:none" />
      <path
         d="m 614.08554,545.87855 c 1.01997,2.17067 1.39211,4.55818 1.91622,6.87879 l -0.9949,0.22465 c -0.50582,-2.24051 -0.86033,-4.54736 -1.83359,-6.6473 l 0.91227,-0.45614 z"
         id="path3685"
         style="fill:#000000;fill-opacity:1;fill-rule:nonzero;stroke:none" />
      <path
         d="m 617.37922,545.59664 c 2.42251,0.60363 3.30082,3.16147 4.26258,5.21685 l -0.92511,0.42951 c -0.81381,-1.74056 -1.50068,-3.80802 -3.33747,-4.62641 l 0,-1.01995 z"
         id="path3686"
         style="fill:#000000;fill-opacity:1;fill-rule:nonzero;stroke:none" />
      <path
         d="m 620.38768,547.50131 c -0.67972,-4.82708 3.62959,1.43543 4.47498,3.1077 l -0.90511,0.47018 c -0.64531,-1.3065 -4.4808,-6.9346 -2.62287,-3.95668 l -0.947,0.3788 z"
         id="path3687"
         style="fill:#000000;fill-opacity:1;fill-rule:nonzero;stroke:none" />
    </g>
    <g
       transform="translate(68.690001,502.34781)"
       id="g3865"
       style="display:inline">
      <path
         d="m 601.81963,560.7948 13.71791,6.76717 7.92036,-6.32055 12.42197,24.11764 -11.62055,5.8061 -3.20567,-18.75816 10.41842,43.32242 c -12.82268,7.59259 -41.273,0.44662 -41.273,0.44662 l 9.61701,-42.8758 -4.00709,19.65141 -11.62055,-5.8061 17.63119,-26.35075 z"
         id="path3707"
         style="fill:#00ff15;fill-opacity:1;fill-rule:evenodd;stroke:#000000;stroke-width:1.25;stroke-linecap:butt;stroke-linejoin:miter;stroke-miterlimit:4;stroke-opacity:1;stroke-dasharray:none" />
      <g
         transform="matrix(0.663528,0.203064,-0.222779,0.727949,337.959,37.58167)"
         id="g3763">
        <path
           d="m 599.7744,582.6047 c 8.48204,6.77683 10.32365,18.11363 11.58749,28.27131 l -3.89684,0.74104 c -1.15456,-9.08236 -2.47927,-19.44086 -9.89097,-25.71188 l 2.20032,-3.30047 z"
           id="path3761"
           style="fill:#f0ff00;fill-opacity:1;fill-rule:nonzero;stroke:none" />
        <path
           d="m 592.0493,592.28293 c -2.32045,-10.48305 13.57833,-19.65261 22.425,-14.72572 8.3399,4.2453 -5.41921,23.47417 -8.49745,19.57803 -3.77774,-4.78149 4.4829,-8.92534 7.72314,-9.36408 7.88402,-0.50313 14.02952,2.76484 12.25065,11.30764 -2.33312,5.61955 -8.68072,7.67873 -14.13188,9.06608 l -0.95292,-3.8505 c 4.06438,-0.97145 8.82209,-2.38464 11.20928,-6.06105 0.91383,-5.76611 -2.2474,-6.64165 -7.89904,-6.52418 -2.05624,0.30486 -3.4156,2.57324 -4.70891,2.8346 -7.94888,1.60635 7.5184,-8.72489 2.96726,-13.58458 -5.86299,-4.00758 -16.11336,3.3856 -16.98374,9.28292 l -3.40139,2.04084 z"
           id="path3762"
           style="fill:#f0ff00;fill-opacity:1;fill-rule:nonzero;stroke:none" />
      </g>
    </g>
  </g>
  <g
     transform="translate(-625.25198,-957.99202)"
     id="layer3" />
  <g
     transform="translate(-625.25198,-957.99202)"
     id="layer4" />
</svg>
