<?xml version="1.0" encoding="UTF-8" standalone="no"?>
<!-- Created with Inkscape (http://www.inkscape.org/) -->

<svg
   xmlns:dc="http://purl.org/dc/elements/1.1/"
   xmlns:cc="http://creativecommons.org/ns#"
   xmlns:rdf="http://www.w3.org/1999/02/22-rdf-syntax-ns#"
   xmlns:svg="http://www.w3.org/2000/svg"
   xmlns="http://www.w3.org/2000/svg"
   xmlns:xlink="http://www.w3.org/1999/xlink"
   xmlns:sodipodi="http://sodipodi.sourceforge.net/DTD/sodipodi-0.dtd"
   xmlns:inkscape="http://www.inkscape.org/namespaces/inkscape"
   width="110.36443"
   height="260"
   id="svg2982"
   version="1.1"
   inkscape:version="0.47 r22583"
   sodipodi:docname="gallardon.svg">
  <defs
     id="defs2984">
    <inkscape:perspective
       sodipodi:type="inkscape:persp3d"
       inkscape:vp_x="0 : 526.18109 : 1"
       inkscape:vp_y="0 : 1000 : 0"
       inkscape:vp_z="744.09448 : 526.18109 : 1"
       inkscape:persp3d-origin="372.04724 : 350.78739 : 1"
       id="perspective2990" />
    <inkscape:perspective
       id="perspective2929"
       inkscape:persp3d-origin="0.5 : 0.33333333 : 1"
       inkscape:vp_z="1 : 0.5 : 1"
       inkscape:vp_y="0 : 1000 : 0"
       inkscape:vp_x="0 : 0.5 : 1"
       sodipodi:type="inkscape:persp3d" />
  </defs>
  <sodipodi:namedview
     id="base"
     pagecolor="#ffffff"
     bordercolor="#666666"
     borderopacity="1.0"
     inkscape:pageopacity="0.0"
     inkscape:pageshadow="2"
     inkscape:zoom="1.25"
     inkscape:cx="55.182217"
     inkscape:cy="130"
     inkscape:document-units="px"
     inkscape:current-layer="layer1"
     showgrid="false"
     inkscape:window-width="1024"
     inkscape:window-height="551"
     inkscape:window-x="0"
     inkscape:window-y="26"
     inkscape:window-maximized="1" />
  <metadata
     id="metadata2987">
    <rdf:RDF>
      <cc:Work
         rdf:about="">
        <dc:format>image/svg+xml</dc:format>
        <dc:type
           rdf:resource="http://purl.org/dc/dcmitype/StillImage" />
        <dc:title />
      </cc:Work>
    </rdf:RDF>
  </metadata>
  <g
     inkscape:label="Capa 1"
     inkscape:groupmode="layer"
     id="layer1"
     transform="translate(-377.82868,-447.28287)">
    <path
       style="color:#000000;fill:#4f4f53;fill-opacity:1;fill-rule:nonzero;stroke:none;marker:none;visibility:visible;display:inline;overflow:visible;enable-background:accumulate"
       d="m 404.21981,515.14774 c -9.32138,-2.40888 -20.54374,4.99749 -23.29489,13.86967 -3.21195,12.83562 -2.79089,26.18509 -2.75267,39.31076 4.37999,10.33365 21.01505,6.39504 22.2791,-3.68179 2.80779,-16.33881 3.44217,-32.95434 3.76846,-49.49864 z"
       id="path3815" />
    <g
       style="display:inline"
       id="g3890"
       transform="matrix(0.41304092,0,0,0.48668732,247.3918,357.92982)"
       inkscape:export-filename="/home/rgarcia/my.art/south_park_project/characters/textures/gallardon/legs.png"
       inkscape:export-xdpi="299"
       inkscape:export-ydpi="299">
      <path
         style="color:#000000;fill:#4f4f53;fill-opacity:1;fill-rule:nonzero;stroke:none;marker:none;visibility:visible;display:inline;overflow:visible;enable-background:accumulate"
         d="m 367.86693,503.66717 c 5.16227,71.34261 -3.15802,144.28663 15.76572,214.1511 42.47987,-0.43794 84.95975,-0.87587 127.43962,-1.31381 13.94911,-69.58754 11.75303,-141.09416 18.39335,-211.52348 -53.86623,-0.43794 -107.73246,-0.87587 -161.59869,-1.31381 z"
         id="path3811" />
      <path
         style="fill:none;stroke:#0f0909;stroke-width:3.02313828;stroke-linecap:round;stroke-linejoin:round;stroke-miterlimit:4;stroke-opacity:1;stroke-dasharray:none"
         d="m 452.42509,543.71904 c 0,56.42314 0,112.84629 0,169.26943"
         id="path3888" />
      <path
         style="fill:#171717;fill-opacity:1;stroke:none"
         d="m 413.8503,705.33707 c -8.55618,-1.71559 -41.74745,3.74364 -31.03569,11.80529 43.66665,-0.31409 87.34199,-0.24828 131.00313,-0.80323 -7.51219,-15.94571 -41.67039,-12.97866 -58.08424,-4.50163 -12.41495,2.24313 -27.3265,-9.06085 -41.8832,-6.50043 z"
         id="path3813" />
    </g>
    <g
       style="display:inline"
       id="g3895"
       transform="matrix(0.41304092,0,0,0.41304092,247.3918,395.02309)"
       inkscape:export-filename="/home/rgarcia/my.art/south_park_project/characters/textures/gallardon/body.png"
       inkscape:export-xdpi="299"
       inkscape:export-ydpi="299">
      <path
         style="fill:#4f4f53;fill-opacity:1;stroke:none"
         d="m 337.64929,306.5956 c 20.87648,-20.94482 52.49531,-24.29309 80.12753,-30.11878 35.08974,-4.24766 73.41306,-5.94991 105.26949,11.72471 24.081,8.50539 40.52855,29.20197 33.48234,55.14652 -1.27789,66.79206 -2.7967,134.11286 -16.55255,199.73343 -61.31116,0.87587 -122.62231,1.75175 -183.93347,2.62762 -13.0639,-78.88966 -22.16826,-159.04381 -18.39334,-239.1135 z"
         id="path3807" />
      <path
         style="fill:#a7bbf4;fill-opacity:1;stroke:none"
         d="m 408.76189,285.16637 c 14.24473,48.92756 28.48947,97.85511 42.7342,146.78267 13.93506,-48.61789 27.87012,-97.23578 41.80518,-145.85367 -28.17979,-0.30967 -56.35959,-0.61933 -84.53938,-0.929 z"
         id="path3869" />
      <path
         style="fill:#831b1c;fill-opacity:1;stroke:#000000;stroke-width:1px;stroke-linecap:butt;stroke-linejoin:miter;stroke-opacity:1"
         d="m 441.27704,330.68757 c -0.20624,29.04874 -2.14676,58.2686 -1.26455,87.20995 0.96691,9.25676 2.86766,17.42105 14.04403,14.73411 8.47636,0.27717 11.20955,-12.01307 17.20621,-17.16208 3.20778,-7.40073 -1.51203,-16.89788 -1.50673,-25.1455 -2.68029,-19.87882 -5.36058,-39.75765 -8.04087,-59.63648 -6.8127,0 -13.62539,0 -20.43809,0 z"
         id="path3877" />
      <path
         style="fill:#4f4f53;fill-opacity:1;stroke:#080505;stroke-width:2;stroke-linecap:round;stroke-linejoin:round;stroke-miterlimit:4;stroke-opacity:1;stroke-dasharray:none"
         d="m 392.03981,283.30836 c -1.48953,19.76174 -10.83107,54.73998 4.03736,66.15424 7.05681,-0.45811 21.33089,-7.63281 14.35683,4.96656 -1.83555,11.78961 -10.19852,24.01452 -2.31413,35.26803 7.56307,18.54996 33.43391,51.75674 42.9679,53.03274 -1.74003,-24.47359 -11.90542,-47.33569 -17.60811,-71.05135 -9.47793,-33.17276 -18.95586,-66.34551 -28.43379,-99.51827 -4.33535,3.71602 -8.67071,7.43203 -13.00606,11.14805 z"
         id="path3871" />
      <path
         style="fill:#4f4f53;fill-opacity:1;stroke:#090000;stroke-width:2;stroke-linecap:round;stroke-linejoin:round;stroke-miterlimit:4;stroke-opacity:1;stroke-dasharray:none"
         d="m 510.92904,283.30836 c 1.48953,19.76174 10.83107,54.73998 -4.03736,66.15424 -7.05681,-0.45811 -21.33089,-7.63281 -14.35683,4.96656 1.83555,11.78961 10.19852,24.01452 2.31413,35.26803 -7.56307,18.54996 -33.43391,51.75674 -42.9679,53.03274 1.74003,-24.47359 11.90542,-47.33569 17.60811,-71.05135 9.47793,-33.17276 18.95586,-66.34551 28.43379,-99.51827 4.33535,3.71602 8.67071,7.43203 13.00606,11.14805 z"
         id="path3873" />
      <path
         style="color:#000000;fill:#831b1c;fill-opacity:1;fill-rule:nonzero;stroke:#000000;stroke-width:1px;stroke-linecap:butt;stroke-linejoin:miter;stroke-miterlimit:4;stroke-opacity:1;stroke-dasharray:none;stroke-dashoffset:0;marker:none;visibility:visible;display:inline;overflow:visible;enable-background:accumulate"
         d="m 442.20604,303.74645 c -23.23145,20.33148 17.14558,44.03159 23.94855,16.83025 4.97766,-15.04059 -10.80956,-27.97148 -23.94855,-16.83025 z"
         id="path3875" />
      <path
         style="fill:none;stroke:#140e0e;stroke-width:2;stroke-linecap:round;stroke-linejoin:round;stroke-miterlimit:4;stroke-opacity:1;stroke-dasharray:none;display:inline"
         d="m 537.89348,538.78454 c -59.7216,7.67539 -120.3831,9.04789 -180.22683,1.85801"
         id="path3879" />
      <path
         style="fill:none;stroke:#171111;stroke-width:2;stroke-linecap:round;stroke-linejoin:round;stroke-miterlimit:4;stroke-opacity:1;stroke-dasharray:none"
         d="m 452.85658,447.08521 c 0,32.20548 0,64.41096 0,96.61644"
         id="path3882" />
      <path
         style="fill:none;stroke:#000000;stroke-width:2;stroke-linecap:round;stroke-linejoin:round;stroke-miterlimit:4;stroke-opacity:1;stroke-dasharray:none"
         d="m 473.59412,464.1921 c 1.66475,6.80836 -4.88021,21.82642 6.83925,18.58008 14.75199,0 29.50399,0 44.25598,0 -1.02454,-7.61331 4.21916,-21.38193 -8.20574,-17.80027 -14.2965,-0.25994 -28.59299,-0.51987 -42.88949,-0.77981 z"
         id="path3884" />
      <use
         height="744.09448"
         width="1052.3622"
         transform="matrix(1,0,0,0.9040395,-99.205393,46.636692)"
         id="use3886"
         xlink:href="#path3884"
         y="0"
         x="0" />
    </g>
    <path
       style="fill:#e3bf97;fill-opacity:1;stroke:none;display:inline"
       d="m 381.30782,598.61824 c -0.60057,7.94943 -4.64697,22.62256 5.58351,25.02122 6.68131,1.64325 12.06078,-1.59833 9.73693,-8.93336 0.67109,5.24442 3.96824,8.17666 2.75469,1.08266 0.95499,-10.30395 -4.14984,-21.34308 -16.30286,-17.33087 l -1.77227,0.16035 0,0 z"
       id="path3819" />
    <path
       style="color:#000000;fill:#4f4f53;fill-opacity:1;fill-rule:nonzero;stroke:none;marker:none;visibility:visible;display:inline;overflow:visible;enable-background:accumulate"
       d="m 380.88554,599.80231 c 9.66706,4.47705 20.40712,-0.64362 18.17915,-12.27759 -0.13094,-10.52831 3.56661,-27.41153 -11.46662,-28.43029 -9.38246,0.93181 -10.3294,10.46918 -9.5579,17.98851 -0.14312,7.6196 -0.40827,15.62693 2.84537,22.71937 z"
       id="path3817" />
    <use
       style="display:inline"
       x="0"
       y="0"
       xlink:href="#path3815"
       id="use3907"
       transform="matrix(-1,0,0,1,866.02179,-1.5608464e-6)"
       width="1052.3622"
       height="744.09448"
       inkscape:export-filename="/home/rgarcia/my.art/south_park_project/characters/textures/zp/arm_l.png"
       inkscape:export-xdpi="299"
       inkscape:export-ydpi="299" />
    <use
       style="display:inline"
       x="0"
       y="0"
       xlink:href="#path3819"
       id="use3909"
       transform="matrix(-1,0,0,1,866.02179,-1.5608464e-6)"
       width="1052.3622"
       height="744.09448"
       inkscape:export-filename="/home/rgarcia/my.art/south_park_project/characters/textures/zp/hand1_l.png"
       inkscape:export-xdpi="299"
       inkscape:export-ydpi="299" />
    <use
       style="display:inline"
       x="0"
       y="0"
       xlink:href="#path3817"
       id="use3911"
       transform="matrix(-1,0,0,1,866.02179,-1.5608464e-6)"
       width="1052.3622"
       height="744.09448"
       inkscape:export-filename="/home/rgarcia/my.art/south_park_project/characters/textures/zp/forearm_l.png"
       inkscape:export-xdpi="299"
       inkscape:export-ydpi="299" />
    <g
       style="display:inline"
       id="g9251"
       transform="matrix(0.40651173,0,0,0.41304092,369.7992,384.90613)"
       inkscape:export-filename="/home/rgarcia/my.art/south_park_project/characters/textures/gallardon/head.png"
       inkscape:export-xdpi="299"
       inkscape:export-ydpi="299">
      <g
         transform="matrix(0.93714897,0,0,1,-262.8254,154)"
         id="g9197">
        <g
           transform="translate(117,-123)"
           id="g9223">
          <g
             transform="translate(-250.5,-54)"
             id="g9161">
            <g
               id="g3449"
               transform="translate(0,-10)">
              <path
                 style="fill:#e3bf97;fill-opacity:1;stroke:none;display:inline"
                 d="m 505.50164,286.63631 c -6.93243,-26.70404 -31.96421,5.60136 -10.77895,14.51666 5.09999,7.65469 -1.51497,33.48255 14.63682,19.55328 0.88409,-11.46139 0.223,-23.21986 -3.85787,-34.06994 z"
                 id="path3780-1" />
              <path
                 style="fill:none;stroke:#000000;stroke-width:1.04125178px;stroke-linecap:butt;stroke-linejoin:miter;stroke-opacity:1;display:inline"
                 d="m 502.62844,291.03831 c 3.03998,5.67599 2.08534,12.24086 2.29651,18.388"
                 id="path4230-9" />
              <path
                 style="fill:none;stroke:#000000;stroke-width:1.04125178px;stroke-linecap:butt;stroke-linejoin:miter;stroke-opacity:1;display:inline"
                 d="m 503.08775,300.90976 c -0.69018,-1.57711 -4.0584,-6.09347 -5.05233,-6.77453"
                 id="path4232-7" />
              <path
                 style="fill:none;stroke:#000000;stroke-width:1.04125178px;stroke-linecap:butt;stroke-linejoin:miter;stroke-opacity:1;display:inline"
                 d="m 501.25056,284.45734 c -14.78702,-14.80405 -14.35539,11.38506 -4.59302,16.39949"
                 id="path4234-1" />
            </g>
            <path
               style="fill:#e3bf97;fill-opacity:1;stroke:none"
               d="m 502.83043,267.38373 c -2.32966,-28.13332 7.70107,-56.80905 30.90929,-73.8864 28.90777,-22.46622 80.48123,-24.82743 100.61089,10.52557 21.45514,31.98539 26.18874,73.45299 15.85012,110.17938 -11.02593,20.24974 -23.25958,39.78663 -41.74747,52.13993 -24.20678,16.42245 -55.95563,2.72051 -70.8766,-19.25832 -14.16108,-16.10455 -29.7144,-33.96888 -32.82831,-55.72907 -1.35818,-7.89588 -2.50311,-15.94185 -1.91792,-23.97109 z"
               id="path3386" />
            <path
               style="fill:none;stroke:#000000;stroke-width:1.04125166px;stroke-linecap:butt;stroke-linejoin:miter;stroke-opacity:1"
               d="m 560.73568,308.03142 c -8.86968,16.46694 23.96222,17.59779 33.84998,11.40668 7.5718,0.93222 7.09051,-6.9726 4.33378,-11.40668"
               id="path3388" />
            <path
               style="fill:#000000;fill-opacity:1;stroke:none"
               d="m 520.40477,273.04055 c -1.78442,-18.14493 9.28478,-48.13357 30.98379,-43.55078 14.62069,3.5347 33.6079,51.77613 6.69549,31.79432 -13.91517,-20.8299 -29.34419,17.74386 -37.09638,9.92842 l 0.33426,0.0622"
               id="path3390" />
            <path
               style="fill:none;stroke:#000000;stroke-width:1.04125166px;stroke-linecap:butt;stroke-linejoin:miter;stroke-opacity:1"
               d="m 557.20014,319.22381 c -6.29975,6.06499 -27.68944,22.09419 -10.6066,28.28427"
               id="path3392" />
            <path
               style="fill:#000000;fill-opacity:1;stroke:none"
               d="m 501.2356,253.17235 c 0.50083,7.09553 -2.03989,12.7663 -0.4774,20.24141 3.91939,1.82035 4.34874,7.44324 4.99089,1.1249 -2.10274,-5.73975 2.83653,-14.07647 2.9411,-21.19507 3.22822,-8.13698 16.4916,-16.25867 8.09573,-25.7833 -5.12796,-12.55912 13.81801,-29.21325 27.61117,-30.83601 20.71645,3.091 38.78807,17.00083 57.39318,1.49644 17.02626,-3.05393 36.72181,16.09296 37.92353,30.22514 -16.08715,5.02203 6.53711,14.21272 11.08615,24.65284 5.7006,6.5926 2.34642,22.42673 1.33536,21.7443 3.91855,-1.2728 7.57287,-3.33861 3.19224,-11.43304 0.0425,-24.91554 -7.17238,-49.30195 -23.79403,-68.08582 -13.31347,-23.54057 -43.74874,-20.89114 -68.04676,-21.30584 -26.39506,1.97483 -40.21052,22.95047 -55.16645,41.5158 -6.78827,11.81386 -8.2033,28.19631 -5.84826,39.12688 l -0.71409,-0.42646 0.32769,-1.07422"
               id="path3394" />
            <path
               style="fill:none;stroke:#000000;stroke-width:1.04125166px;stroke-linecap:butt;stroke-linejoin:miter;stroke-opacity:1;display:inline"
               d="m 601.64249,318.87026 c 6.29975,6.06499 27.68944,22.09419 10.6066,28.28427"
               id="path3392-7" />
            <g
               id="g4229"
               transform="matrix(-1,0,0,1,1160.5,0)">
              <path
                 style="fill:#e3bf97;fill-opacity:1;stroke:none;display:inline"
                 d="m 505.81838,272.97408 c -8.01755,-25.91915 -37.05697,5.78595 -12.67094,13.613 5.29917,8.38055 -0.25644,32.14491 17.20597,18.33609 1.07283,-10.81154 0.17995,-22.02265 -4.53503,-31.94909 z"
                 id="path4231" />
              <path
                 style="fill:none;stroke:#000000;stroke-width:1.04125178px;stroke-linecap:butt;stroke-linejoin:miter;stroke-opacity:1;display:inline"
                 d="m 502.20238,270.93075 c -15.87982,-13.7956 -18.02258,9.56052 -5.39921,15.37862"
                 id="path4237" />
              <path
                 style="fill:none;stroke:#000000;stroke-width:1.04125178px;stroke-linecap:butt;stroke-linejoin:miter;stroke-opacity:1;display:inline"
                 d="m 503.82212,277.10205 c 3.50926,5.10415 2.48317,11.4606 2.6996,17.24335"
                 id="path4233" />
              <path
                 style="fill:none;stroke:#000000;stroke-width:1.04125178px;stroke-linecap:butt;stroke-linejoin:miter;stroke-opacity:1;display:inline"
                 d="m 504.36205,286.35901 c -0.70174,-2.93443 -2.79043,-5.69922 -5.93914,-6.35282"
                 id="path4235" />
            </g>
            <path
               style="fill:#000000;fill-opacity:1;stroke:none"
               d="m 632.17025,271.04055 c 1.78442,-18.14493 -9.28478,-48.13357 -30.98379,-43.55078 -14.62069,3.5347 -33.6079,51.77613 -6.69549,31.79432 13.91517,-20.8299 29.34419,17.74386 37.09638,9.92842 l -0.33426,0.0622"
               id="path9159" />
          </g>
          <g
             transform="matrix(0.96835443,0,0,1,-233.18513,-54.5)"
             id="g9190">
            <path
               style="color:#000000;fill:none;stroke:#000000;stroke-width:1.26975453;stroke-linecap:round;stroke-linejoin:round;stroke-miterlimit:4;stroke-opacity:1;stroke-dasharray:none;marker:none;visibility:visible;display:inline;overflow:visible;enable-background:accumulate"
               d="m 575.69607,286.59447 c -2.11067,33.69503 -58.55488,30.11365 -53.94638,-4.73606 7.51123,-26.69766 51.67647,-24.78588 53.94638,4.73606 z"
               id="path9180" />
            <use
               x="0"
               y="0"
               xlink:href="#path9180"
               id="use9182"
               transform="translate(59.042487,0)"
               width="1052.3622"
               height="744.09448" />
            <path
               style="fill:none;stroke:#000000;stroke-width:1.58719313;stroke-linecap:butt;stroke-linejoin:miter;stroke-miterlimit:4;stroke-opacity:1;stroke-dasharray:none"
               d="m 520.67973,284.59448 c -10.12061,2.33681 -14.01821,-3.12863 -20.17974,-10"
               id="path9184" />
            <path
               style="fill:none;stroke:#000000;stroke-width:1.37556732;stroke-linecap:butt;stroke-linejoin:miter;stroke-miterlimit:4;stroke-opacity:1;stroke-dasharray:none"
               d="m 568.5,281.09448 c 6.3214,-6.37581 15.5113,-2.47287 23,-1.5"
               id="path9186" />
            <path
               style="fill:none;stroke:#000000;stroke-width:1.58719313;stroke-linecap:butt;stroke-linejoin:miter;stroke-miterlimit:4;stroke-opacity:1;stroke-dasharray:none"
               d="m 634.75491,282.09448 c 10.4329,2.15365 15.51475,-2.86203 22.2451,-10"
               id="path9188" />
          </g>
        </g>
      </g>
      <path
         style="fill:none;stroke:#000000;stroke-width:1.00799882px;stroke-linecap:butt;stroke-linejoin:miter;stroke-opacity:1"
         d="m 104.20868,199.09448 c 21.60649,-21.90139 47.20485,19.17458 67.93746,-7.86099 6.80143,-2.00663 13.7621,0.68476 19.69326,3.86099"
         id="path9249" />
    </g>
  </g>
</svg>
