<?xml version="1.0" encoding="UTF-8" standalone="no"?>
<!-- Created with Inkscape (http://www.inkscape.org/) -->

<svg
   xmlns:dc="http://purl.org/dc/elements/1.1/"
   xmlns:cc="http://creativecommons.org/ns#"
   xmlns:rdf="http://www.w3.org/1999/02/22-rdf-syntax-ns#"
   xmlns:svg="http://www.w3.org/2000/svg"
   xmlns="http://www.w3.org/2000/svg"
   xmlns:xlink="http://www.w3.org/1999/xlink"
   xmlns:sodipodi="http://sodipodi.sourceforge.net/DTD/sodipodi-0.dtd"
   xmlns:inkscape="http://www.inkscape.org/namespaces/inkscape"
   width="106.56107"
   height="255"
   id="svg2982"
   version="1.1"
   inkscape:version="0.47 r22583"
   sodipodi:docname="rajoy.svg">
  <defs
     id="defs2984">
    <inkscape:perspective
       sodipodi:type="inkscape:persp3d"
       inkscape:vp_x="0 : 526.18109 : 1"
       inkscape:vp_y="0 : 1000 : 0"
       inkscape:vp_z="744.09448 : 526.18109 : 1"
       inkscape:persp3d-origin="372.04724 : 350.78739 : 1"
       id="perspective2990" />
    <inkscape:perspective
       id="perspective2929"
       inkscape:persp3d-origin="0.5 : 0.33333333 : 1"
       inkscape:vp_z="1 : 0.5 : 1"
       inkscape:vp_y="0 : 1000 : 0"
       inkscape:vp_x="0 : 0.5 : 1"
       sodipodi:type="inkscape:persp3d" />
    <inkscape:perspective
       id="perspective3696"
       inkscape:persp3d-origin="0.5 : 0.33333333 : 1"
       inkscape:vp_z="1 : 0.5 : 1"
       inkscape:vp_y="0 : 1000 : 0"
       inkscape:vp_x="0 : 0.5 : 1"
       sodipodi:type="inkscape:persp3d" />
  </defs>
  <sodipodi:namedview
     id="base"
     pagecolor="#ffffff"
     bordercolor="#666666"
     borderopacity="1.0"
     inkscape:pageopacity="0.0"
     inkscape:pageshadow="2"
     inkscape:zoom="1.2745098"
     inkscape:cx="53.280537"
     inkscape:cy="127.5"
     inkscape:document-units="px"
     inkscape:current-layer="layer1"
     showgrid="false"
     inkscape:window-width="1024"
     inkscape:window-height="551"
     inkscape:window-x="0"
     inkscape:window-y="26"
     inkscape:window-maximized="1" />
  <metadata
     id="metadata2987">
    <rdf:RDF>
      <cc:Work
         rdf:about="">
        <dc:format>image/svg+xml</dc:format>
        <dc:type
           rdf:resource="http://purl.org/dc/dcmitype/StillImage" />
        <dc:title />
      </cc:Work>
    </rdf:RDF>
  </metadata>
  <g
     inkscape:label="Capa 1"
     inkscape:groupmode="layer"
     id="layer1"
     transform="translate(-529.75362,-342.92573)">
    <path
       style="fill:#42427e;fill-opacity:1;stroke:none;display:inline"
       d="m 555.1682,411.9648 c -6.58019,-2.85469 -16.62576,3.68265 -21.534,9.97916 -3.97695,11.99648 -3.79425,26.76607 -3.67653,41.49234 4.28333,7.44825 12.9068,8.90212 21.00878,-0.52522 3.0997,-16.13253 3.8723,-33.42862 4.20175,-50.94628 z"
       id="path3815"
       sodipodi:nodetypes="ccccc"
       inkscape:export-filename="/home/rgarcia/my.art/south_park_project/characters/textures/zp/arm_r.png"
       inkscape:export-xdpi="299"
       inkscape:export-ydpi="299" />
    <g
       style="display:inline"
       id="g3890"
       transform="matrix(0.39976799,0,0,0.47104778,403.3798,259.79903)"
       inkscape:export-filename="/home/rgarcia/my.art/south_park_project/characters/textures/zp/legs.png"
       inkscape:export-xdpi="299"
       inkscape:export-ydpi="299">
      <path
         sodipodi:nodetypes="ccccc"
         id="path3811"
         d="m 367.86693,503.66717 c 5.25524,71.3837 -3.34462,142.7674 15.76572,214.1511 l 127.43962,-1.31381 c 11.45172,-46.89628 12.41925,-140.85863 18.39335,-211.52348 l -161.59869,-1.31381 0,0 z"
         style="fill:#42427e;fill-opacity:1;stroke:none" />
      <path
         style="fill:none;stroke:#0f0909;stroke-width:3.02313828;stroke-linecap:round;stroke-linejoin:round;stroke-miterlimit:4;stroke-opacity:1;stroke-dasharray:none"
         d="m 452.42509,543.71904 0,169.26943"
         id="path3888" />
      <path
         sodipodi:nodetypes="ccczcc"
         id="path3813"
         d="m 413.8503,705.33707 c -22.98889,0.26867 -36.43527,4.2628 -34.81598,11.82429 l 130.72414,-0.6569 c 14.41496,1.21166 -0.80959,-11.98077 -23.64858,-11.1674 -22.83898,0.81338 -21.30326,2.7915 -34.81489,8.45713 -10.49791,-5.02167 -21.72777,-8.65447 -37.44469,-8.45712 l 0,0 z"
         style="fill:#171717;fill-opacity:1;stroke:none" />
    </g>
    <g
       style="display:inline"
       id="g3895"
       transform="matrix(0.39976799,0,0,0.39976799,403.3798,295.70032)"
       inkscape:export-filename="/home/rgarcia/my.art/south_park_project/characters/textures/zp/body.png"
       inkscape:export-xdpi="299"
       inkscape:export-ydpi="299">
      <path
         sodipodi:nodetypes="ccccccc"
         id="path3807"
         d="m 337.64929,306.5956 c 13.34842,-15.26923 34.03862,-19.17802 53.86623,-24.9624 40.85513,-9.95213 77.82382,-10.18814 111.67389,-2.62762 24.91792,12.32895 35.60552,13.15811 53.86622,35.47288 -1.48978,76.81392 -1.6066,155.28489 -17.07953,228.60302 L 356.04263,545.7091 C 342.90099,468.36875 333.69369,380.5165 337.64929,306.5956 z"
         style="fill:#42427e;fill-opacity:1;stroke:none" />
      <path
         sodipodi:nodetypes="cccc"
         id="path3869"
         d="m 408.76189,285.16637 42.7342,146.78267 41.80518,-145.85367 -84.53938,-0.929 0,0 z"
         style="fill:#a7bbf4;fill-opacity:1;stroke:none" />
      <path
         sodipodi:nodetypes="ccccccc"
         id="path3877"
         d="m 441.27704,330.68757 -1.85801,84.5394 3.71601,16.72207 14.86407,0.929 14.86407,-19.50908 -11.14805,-82.68139 -20.43809,0 0,0 z"
         style="fill:#831b1c;fill-opacity:1;stroke:#000000;stroke-width:1px;stroke-linecap:butt;stroke-linejoin:miter;stroke-opacity:1" />
      <path
         sodipodi:nodetypes="cccccccc"
         id="path3871"
         d="m 392.03981,283.30836 c -4.19501,25.03085 -5.71868,49.1865 0,66.88831 l 20.43809,-3.71602 -8.36104,32.51515 c 9.60238,30.03514 28.1243,47.43472 47.37923,67.81731 l -1.85802,-18.58008 -44.5922,-156.07272 -13.00606,11.14805 z"
         style="fill:#42427e;fill-opacity:1;stroke:#080505;stroke-width:2;stroke-linecap:round;stroke-linejoin:round;stroke-miterlimit:4;stroke-opacity:1;stroke-dasharray:none" />
      <path
         style="fill:#42427e;fill-opacity:1;stroke:#090000;stroke-width:2;stroke-linecap:round;stroke-linejoin:round;stroke-miterlimit:4;stroke-opacity:1;stroke-dasharray:none"
         d="m 510.92904,283.30836 c 4.19501,25.03085 5.71868,49.1865 0,66.88831 l -20.43809,-3.71602 8.36104,32.51515 c -9.60238,30.03514 -28.1243,47.43472 -47.37923,67.81731 l 1.85802,-18.58008 44.5922,-156.07272 13.00606,11.14805 z"
         id="path3873"
         sodipodi:nodetypes="cccccccc" />
      <path
         sodipodi:nodetypes="cacacac"
         id="path3875"
         d="m 442.20604,303.74645 c 0,0 -6.4827,9.45599 -6.50303,14.86407 -0.0177,4.71669 5.57403,13.00606 5.57403,13.00606 0,0 15.03846,2.34204 20.43809,-1.85801 4.40652,-3.42757 5.57403,-15.79307 5.57403,-15.79307 0,0 -3.3841,-11.79643 -8.36104,-13.93507 -5.24615,-2.25433 -16.72208,3.71602 -16.72208,3.71602 l 0,0 z"
         style="color:#000000;fill:#831b1c;fill-opacity:1;fill-rule:nonzero;stroke:#000000;stroke-width:1px;stroke-linecap:butt;stroke-linejoin:miter;stroke-miterlimit:4;stroke-opacity:1;stroke-dasharray:none;stroke-dashoffset:0;marker:none;visibility:visible;display:inline;overflow:visible;enable-background:accumulate" />
      <path
         sodipodi:nodetypes="cc"
         id="path3879"
         d="m 537.89348,538.78454 c -58.92456,7.52566 -118.82744,9.18133 -180.22683,1.85801"
         style="fill:none;stroke:#140e0e;stroke-width:2;stroke-linecap:round;stroke-linejoin:round;stroke-miterlimit:4;stroke-opacity:1;stroke-dasharray:none;display:inline" />
      <path
         id="path3882"
         d="m 452.85658,447.08521 0,96.61644"
         style="fill:none;stroke:#171111;stroke-width:2;stroke-linecap:round;stroke-linejoin:round;stroke-miterlimit:4;stroke-opacity:1;stroke-dasharray:none" />
      <path
         sodipodi:nodetypes="ccccc"
         id="path3884"
         d="m 473.59412,464.1921 0,18.58008 51.09523,0 0,-17.65108 -51.09523,-0.929 0,0 z"
         style="fill:none;stroke:#000000;stroke-width:2;stroke-linecap:round;stroke-linejoin:round;stroke-miterlimit:4;stroke-opacity:1;stroke-dasharray:none" />
      <use
         height="744.09448"
         width="1052.3622"
         transform="matrix(1,0,0,0.9040395,-99.205393,46.636692)"
         id="use3886"
         xlink:href="#path3884"
         y="0"
         x="0" />
    </g>
    <path
       style="fill:#e3bf97;fill-opacity:1;stroke:none;display:inline"
       d="m 532.99248,492.753 c -1.34939,7.70322 -1.8592,14.84935 0.71091,22.55257 3.89665,2.46846 8.61087,1.9826 13.47001,1.0823 1.63938,-2.4404 0.12198,-5.43789 0.6472,-8.06399 0.9008,3.68619 1.25078,4.8561 2.71621,6.11695 -0.002,-6.80385 0.0239,-13.34218 -3.36341,-20.63739 -5.05527,-1.99166 -9.60663,-1.46368 -14.18092,-1.05044 l 0,0 z"
       id="path3819"
       sodipodi:nodetypes="ccccccc"
       inkscape:export-filename="/home/rgarcia/my.art/south_park_project/characters/textures/zp/hand1_r.png"
       inkscape:export-xdpi="299"
       inkscape:export-ydpi="299" />
    <path
       style="fill:#42427e;fill-opacity:1;stroke:none;display:inline"
       d="m 532.58377,493.89902 c 4.58694,2.4509 9.97655,0.88845 15.23136,0 3.81292,-9.99207 2.18915,-21.79636 2.10088,-33.08882 -10.24793,-10.78546 -15.19608,-5.67157 -19.95834,0 0.30037,11.93816 -1.6934,23.83008 2.6261,33.08882 z"
       id="path3817"
       sodipodi:nodetypes="ccccc"
       inkscape:export-filename="/home/rgarcia/my.art/south_park_project/characters/textures/zp/forearm_r.png"
       inkscape:export-xdpi="299"
       inkscape:export-ydpi="299" />
    <use
       style="display:inline"
       x="0"
       y="0"
       xlink:href="#path3815"
       id="use3907"
       transform="matrix(-1,0,0,1,1166.0683,-1.4027476e-6)"
       width="1052.3622"
       height="744.09448"
       inkscape:export-filename="/home/rgarcia/my.art/south_park_project/characters/textures/zp/arm_l.png"
       inkscape:export-xdpi="299"
       inkscape:export-ydpi="299" />
    <use
       style="display:inline"
       x="0"
       y="0"
       xlink:href="#path3819"
       id="use3909"
       transform="matrix(-1,0,0,1,1166.0683,-1.4027476e-6)"
       width="1052.3622"
       height="744.09448"
       inkscape:export-filename="/home/rgarcia/my.art/south_park_project/characters/textures/zp/hand1_l.png"
       inkscape:export-xdpi="299"
       inkscape:export-ydpi="299" />
    <use
       style="display:inline"
       x="0"
       y="0"
       xlink:href="#path3817"
       id="use3911"
       transform="matrix(-1,0,0,1,1166.0683,-1.4027476e-6)"
       width="1052.3622"
       height="744.09448"
       inkscape:export-filename="/home/rgarcia/my.art/south_park_project/characters/textures/zp/forearm_l.png"
       inkscape:export-xdpi="299"
       inkscape:export-ydpi="299" />
    <g
       style="display:inline"
       id="g4252"
       transform="matrix(0.39976799,0,0,0.31158077,375.17866,326.43457)"
       inkscape:export-filename="/media/disk/south_park_project/characters/textures/rajoy/heads/1.png"
       inkscape:export-xdpi="299"
       inkscape:export-ydpi="299">
      <path
         sodipodi:nodetypes="ccccccscccc"
         id="path2998"
         d="m 459.75586,168.59954 7.21419,51.69454 c -9.76796,20.70496 -12.83474,35.15689 -9.42539,53.12615 -0.24252,31.4623 23.89529,44.57962 39.80164,63.89071 13.71781,1.40516 26.79858,2.23511 37.59043,0.99829 23.65776,-18.10331 43.64186,-37.86519 49.75205,-63.8907 5.30433,-20.95077 -0.66412,-40.34516 -2.33507,-55.99308 -2.40314,-22.50471 2.48982,-45.19678 2.33507,-67.79518 5.23823,-18.96755 -2.91266,-37.93509 -12.16161,-56.90265 -29.39748,-14.411778 -61.70129,-19.638726 -102.8209,2.994878 -14.37091,19.966532 -9.17541,46.999982 -9.95041,71.877042 l 0,0 z"
         style="fill:#e3bf97;fill-opacity:1;stroke:none" />
      <path
         sodipodi:nodetypes="caaaaaaaa"
         id="path3772"
         d="m 501.76872,219.33217 c 0,0 -4.48693,8.89752 -1.1056,11.35798 2.31557,1.68493 5.9885,-2.78147 8.8448,-1.89301 4.71126,1.46546 4.37801,8.46421 8.84481,10.41149 4.26928,1.86116 10.57365,2.49876 14.37282,0 4.53683,-2.98396 -0.50631,-11.71043 4.4224,-14.19747 2.61807,-1.32108 6.30335,3.3195 8.84481,1.89299 1.87469,-1.05225 1.57604,-3.80261 1.1056,-5.67898 -0.5577,-2.22445 -4.4224,-5.67899 -4.4224,-5.67899"
         style="fill:none;stroke:#000000;stroke-width:1.13270986px;stroke-linecap:butt;stroke-linejoin:miter;stroke-opacity:1" />
      <path
         sodipodi:nodetypes="cssaac"
         id="path3774"
         d="m 483.5263,159.17129 c 1.9185,-4.33949 5.74144,-7.25802 11.05601,-7.18504 6.81852,0.0936 15.31704,3.54754 20.45362,8.29043 1.95233,1.80269 -3.54446,2.27585 -5.52801,2.21078 -4.69537,-0.15404 -8.0505,-5.5157 -12.71441,-6.07965 -4.48468,-0.54227 -7.40006,0.30696 -13.26721,2.76348 l 0,0 z"
         style="fill:#000000;fill-opacity:1;stroke:#000000;stroke-width:1.13270986px;stroke-linecap:butt;stroke-linejoin:miter;stroke-opacity:1" />
      <path
         sodipodi:nodetypes="caaaa"
         id="path3776"
         d="m 479.10389,135.68175 c 0,0 10.92947,-9.68259 17.68962,-9.94851 9.63843,-0.37914 16.6166,12.45276 26.25803,12.15929 9.3121,-0.28345 15.2991,-12.72081 24.59962,-13.26469 6.23407,-0.36455 17.41322,6.90869 17.41322,6.90869"
         style="fill:none;stroke:#333333;stroke-width:1.13270986px;stroke-linecap:butt;stroke-linejoin:miter;stroke-opacity:1" />
      <path
         sodipodi:nodetypes="ccccccccccaaaaaacccccccc"
         id="path3778"
         d="m 557.04875,90.637104 c -11.818,5.427278 -23.27203,12.310186 -36.48483,12.159286 -15.47128,4.03172 -29.48981,3.70598 -42.01284,-1.10539 l -14.37282,15.47547 c 2.58014,16.47048 -2.57166,35.13499 0.55281,43.11021 -5.15948,9.21158 1.28987,12.15929 -3.86961,11.0539 l -16.58401,-23.21319 c -9.67846,-3.89391 -5.97822,-11.60958 -6.08081,-18.23894 3.76382,2.10068 2.24036,-3.22437 7.40622,-2.52549 1.1106,7.26006 1.20339,15.70733 10.8362,13.0267 -0.20077,-13.68905 -2.99439,-30.61683 2.764,-44.215605 6.50933,-15.372153 19.14409,-28.890681 33.72083,-37.030568 8.67683,-4.845278 19.56915,-7.55491 29.29843,-5.526951 15.71037,3.274653 24.74917,21.51838 39.80164,27.082057 4.69524,1.735451 10.93645,-1.365378 14.92561,1.658085 7.44424,5.642132 8.15355,16.937296 10.50321,25.976672 2.61574,10.06298 3.25549,19.09879 3.86961,30.95092 4.60667,3.26823 9.21333,-2.41025 13.82001,-7.73773 -1.77508,16.22164 -8.77371,27.93136 -15.83002,36.23266 l -7.3876,32.85422 -1.1056,-45.87369 c -4.40047,-14.9226 -1.69395,-24.42615 -2.76401,-38.68865 -0.64804,-7.73773 -6.15991,-15.47547 -11.05601,-23.213196 l -9.95041,-2.21078 z"
         style="fill:#2b2b2b;fill-opacity:1;stroke:none" />
      <path
         sodipodi:nodetypes="ccsscccsssssssscc"
         id="path3782"
         d="m 466.36168,222.39719 c -8.25298,13.47049 -11.08991,37.98932 -9.18663,58.45856 6.83961,29.30905 23.64791,40.7435 46.25205,64.36064 9.06599,9.47228 27.81714,5.84838 34.27364,-0.9465 29.94921,-31.51886 54.59071,-70.98734 50.85764,-70.98734 -0.60023,-16.66289 -0.85333,-35.76816 -7.21419,-54.89687 -1.50914,23.14866 -23.07583,76.76487 -30.13703,81.59948 0,0 8.61027,-31.62486 0.86639,-52.25805 -1.52025,-4.05063 6.59358,-8.00579 5.528,-12.30447 -1.08194,-4.36463 -6.10512,-10.85908 -11.05601,-9.46498 -8.99506,2.53288 -12.51872,19.23156 -19.90082,17.03697 -6.70867,-1.99442 -12.56316,-6.50691 -15.47841,-11.35797 -2.49645,-4.15411 -12.77511,-0.90932 -16.03122,2.83949 -3.75296,4.32072 4.70196,11.88832 1.65841,16.09046 -7.50075,10.35606 -2.02112,46.96226 -8.05601,46.38927 -10.72911,-1.01868 -30.01382,-71.1957 -22.37581,-74.55869 l 0,0 z"
         style="fill:#494949;fill-opacity:1;stroke:none" />
      <use
         height="744.09448"
         width="1052.3622"
         transform="matrix(-1,0,0,1,1049.5564,-1.3817377)"
         id="use3784"
         xlink:href="#path3774"
         y="0"
         x="0" />
      <path
         style="fill:none;stroke:#333333;stroke-width:1.13270986px;stroke-linecap:butt;stroke-linejoin:miter;stroke-opacity:1"
         d="m 480.7623,140.10331 c 0,0 9.5414,-8.58949 15.47841,-8.84312 9.6371,-0.4117 16.6166,12.45276 26.25803,12.15929 9.3121,-0.28345 15.30211,-12.67157 24.59962,-13.26468 5.12266,-0.32679 14.37282,5.52695 14.37282,5.52695"
         id="path3786"
         sodipodi:nodetypes="caaaa" />
      <path
         sodipodi:nodetypes="caaaa"
         id="path3788"
         d="m 483.8027,143.69582 c 0,0 7.58861,-6.24641 12.16161,-6.35599 9.64312,-0.23106 16.6166,12.45276 26.25803,12.15929 9.3121,-0.28344 15.32861,-12.34613 24.59962,-13.26468 4.69832,-0.46549 13.54362,4.14521 13.54362,4.14521"
         style="fill:none;stroke:#333333;stroke-width:1.13270986px;stroke-linecap:butt;stroke-linejoin:miter;stroke-opacity:1" />
      <path
         sodipodi:nodetypes="cssss"
         id="path3792"
         d="m 477.46713,160.17034 c 8.75874,-3.36118 24.43,-6.58321 35.6702,0.45852 10.82145,6.77941 10.94279,30.51618 4.29523,34.72431 -16.74746,10.60175 -31.08955,8.71271 -41.85701,1.92022 -11.60879,-7.32325 -10.19825,-32.46358 1.89158,-37.10305 l 0,0 z"
         style="fill:none;stroke:#000000;stroke-width:1.13270986px;stroke-linecap:butt;stroke-linejoin:miter;stroke-opacity:1" />
      <path
         sodipodi:nodetypes="cc"
         id="path3794"
         d="m 467.86295,176.33261 -8.65988,-6.10742"
         style="fill:none;stroke:#000000;stroke-width:1.13270986px;stroke-linecap:butt;stroke-linejoin:miter;stroke-opacity:1" />
      <path
         sodipodi:nodetypes="cccc"
         id="path3789"
         d="m 477.44549,235.91724 c -3.38257,0.67319 -5.47219,1.86867 -8.50581,3.73521 -1.07183,-1.01077 -4.31511,2.30254 -6.15635,3.34814 -2.0844,1.53838 -4.87542,3.65 -5.91238,6.03452"
         style="fill:none;stroke:#cbc8c8;stroke-width:1.13270986px;stroke-linecap:butt;stroke-linejoin:miter;stroke-opacity:1" />
      <path
         id="path3791"
         d="m 480.2095,246.30735 c -3.69727,1.47594 -7.38106,1.65818 -9.39761,3.786 -3.23694,0.88114 -6.63627,3.44294 -9.12121,4.73249 -1.20356,0.7618 -4.079,3.11164 -4.49151,3.25359 l 0.3455,0.0591"
         style="fill:none;stroke:#cbc8c8;stroke-width:1.13270986px;stroke-linecap:butt;stroke-linejoin:miter;stroke-opacity:1" />
      <path
         sodipodi:nodetypes="ccc"
         id="path3793"
         d="m 482.4207,253.87934 c -4.75746,2.39854 -10.24919,4.82208 -15.05392,7.58993 -3.98534,1.3778 -7.90783,3.62887 -10.92771,5.18779"
         style="fill:none;stroke:#cbc8c8;stroke-width:1.13270986px;stroke-linecap:butt;stroke-linejoin:miter;stroke-opacity:1" />
      <path
         sodipodi:nodetypes="cccc"
         id="path3795"
         d="m 487.3959,260.03158 c -2.74532,1.01951 -7.18648,2.97252 -11.60881,4.25923 -3.9232,2.2808 -8.5996,4.02674 -11.60881,6.86212 -1.53218,0.68368 -1.94364,3.38622 -4.4224,5.44235"
         style="fill:none;stroke:#cbc8c8;stroke-width:1.13270986px;stroke-linecap:butt;stroke-linejoin:miter;stroke-opacity:1" />
      <path
         sodipodi:nodetypes="ccccc"
         id="path3797"
         d="m 489.0543,266.65706 c -4.12863,2.12076 -8.92296,3.89998 -13.23412,6.04496 -1.21702,1.73908 -4.52483,3.16011 -6.1139,4.36651 -1.86012,1.14236 -3.01875,2.81352 -4.9752,4.25925 -2.29735,2.85201 -4.76994,5.16078 -6.08081,8.04523"
         style="fill:none;stroke:#cbc8c8;stroke-width:1.13270986px;stroke-linecap:butt;stroke-linejoin:miter;stroke-opacity:1" />
      <path
         id="path3799"
         d="m 497.34631,271.38955 c -4.20743,2.05135 -6.43545,5.77645 -9.69056,8.5062 -2.33077,2.64074 -5.69253,4.77639 -7.97975,7.3678 -2.95153,2.21842 -5.15612,5.39666 -6.65291,7.78844 -1.00319,2.49459 -2.05774,4.11757 -3.31681,6.62549 -1.0966,0.93263 -1.51154,2.22769 -2.72808,3.80815 -0.16545,0.71233 -1.02291,0.55906 -0.58872,1.87084"
         style="fill:none;stroke:#cbc8c8;stroke-width:1.13270986px;stroke-linecap:butt;stroke-linejoin:miter;stroke-opacity:1" />
      <path
         sodipodi:nodetypes="ccccc"
         id="path3801"
         d="m 501.76872,282.27427 c -2.50207,2.5011 -6.199,4.73737 -7.7378,7.92628 -2.86125,3.49599 -4.46259,7.79435 -7.18782,11.47693 -1.77494,4.52873 -3.14704,8.54536 -6.65683,12.17162 -1.48235,2.73411 -2.66758,4.87115 -3.69091,7.39426"
         style="fill:none;stroke:#cbc8c8;stroke-width:1.13270986px;stroke-linecap:butt;stroke-linejoin:miter;stroke-opacity:1" />
      <path
         id="path3803"
         d="m 510.06073,287.00677 c -2.24359,2.89383 -2.73256,5.78576 -3.01126,8.76041 -1.9192,4.69511 -2.28439,9.62285 -5.28075,13.95553 0.1382,4.44492 -4.46973,8.477 -5.52801,11.35797 -0.81912,2.71927 -3.11724,5.11328 -3.8696,8.99173 -0.59118,0.8063 -2.05275,2.63019 -1.1056,3.31274"
         style="fill:none;stroke:#cbc8c8;stroke-width:1.13270986px;stroke-linecap:butt;stroke-linejoin:miter;stroke-opacity:1" />
      <path
         sodipodi:nodetypes="ccccc"
         id="path3805"
         d="m 516.69433,292.0362 c 0.20881,4.22292 -0.4843,8.34537 -1.10079,12.48132 -1.00741,5.03962 -2.38302,9.80254 -3.87441,14.67017 -1.93795,4.47 -1.06563,9.66619 -3.31681,13.72421 0.43505,2.84913 -3.4281,5.41144 -1.6584,8.04523"
         style="fill:none;stroke:#cbc8c8;stroke-width:1.13270986px;stroke-linecap:butt;stroke-linejoin:miter;stroke-opacity:1" />
      <path
         sodipodi:nodetypes="ccc"
         id="path3808"
         d="m 572.60319,243.97321 c 1.07183,-1.01077 4.31511,2.30253 6.15635,3.34813 2.0844,1.53839 4.87542,3.65001 5.91238,6.03453"
         style="fill:none;stroke:#cbc8c8;stroke-width:1.13270986px;stroke-linecap:butt;stroke-linejoin:miter;stroke-opacity:1" />
      <path
         id="path3814"
         d="m 561.88617,265.23731 c 1.96382,0.68759 5.14073,2.00473 8.30416,2.87251 2.8064,1.53821 6.15158,2.71571 8.30416,4.62794 1.09602,0.46108 1.39035,2.28372 3.1635,3.67043 0.45141,0.30672 3.6413,1.91766 1.97718,2.55334"
         style="fill:none;stroke:#cbc8c8;stroke-width:1.13270986px;stroke-linecap:butt;stroke-linejoin:miter;stroke-opacity:1" />
      <path
         sodipodi:nodetypes="ccccc"
         id="path3816"
         d="m 562.95869,270.80903 c 1.21702,1.73907 4.52482,3.1601 6.11389,4.36651 1.86013,1.14236 3.01876,2.81352 4.97521,4.25924 2.29735,2.85201 4.76994,5.16079 6.0808,8.04523 1.81988,0.97909 -0.58363,1.43967 -1.1056,0.47325"
         style="fill:none;stroke:#cbc8c8;stroke-width:1.13270986px;stroke-linecap:butt;stroke-linejoin:miter;stroke-opacity:1" />
      <path
         id="path3818"
         d="m 543.64373,273.28253 c 3.34587,1.62987 5.11765,4.58959 7.7062,6.75846 1.8535,2.09816 4.52686,3.79502 6.34572,5.85397 2.34713,1.76261 4.10028,4.28783 5.29058,6.18819 0.79776,1.98203 1.63636,3.27154 2.63761,5.26417 0.87205,0.74101 1.20203,1.76999 2.16945,3.02571 0.13157,0.56597 0.81345,0.44419 0.46817,1.48644"
         style="fill:none;stroke:#cbc8c8;stroke-width:1.13270986px;stroke-linecap:butt;stroke-linejoin:miter;stroke-opacity:1" />
      <path
         id="path3820"
         d="m 537.01015,279.90803 c 2.50206,2.5011 6.19899,4.73737 7.73779,7.92627 2.86125,3.496 4.4626,7.79434 7.18782,11.47693 1.77495,4.52874 3.14704,8.54536 6.65684,12.17162 1.48235,2.73412 2.66757,4.87115 3.69091,7.39427 l 0.15547,-0.16268 0,0.47325"
         style="fill:none;stroke:#cbc8c8;stroke-width:1.13270986px;stroke-linecap:butt;stroke-linejoin:miter;stroke-opacity:1" />
      <path
         id="path3822"
         d="m 532.58775,285.587 c 1.91146,2.4755 2.32805,4.94935 2.56548,7.49398 1.63509,4.01636 1.94622,8.23173 4.49902,11.93805 -0.11774,3.80236 3.80805,7.25153 4.70967,9.71603 0.69786,2.32615 2.65578,4.37408 3.29676,7.69183 0.50366,0.68974 1.74887,2.24996 0.94193,2.83384"
         style="fill:none;stroke:#cbc8c8;stroke-width:1.13270986px;stroke-linecap:butt;stroke-linejoin:miter;stroke-opacity:1" />
      <path
         sodipodi:nodetypes="ccccc"
         id="path3824"
         d="m 525.58891,293.68861 c -0.88156,4.15877 -0.85362,8.32362 -0.90374,12.49289 0.19274,5.11022 0.79444,9.98945 1.49409,14.98598 1.20554,4.65492 -0.4888,9.70013 1.09287,13.98361 -0.88618,2.77141 2.53127,5.762 0.35739,8.16381"
         style="fill:none;stroke:#cbc8c8;stroke-width:1.13270986px;stroke-linecap:butt;stroke-linejoin:miter;stroke-opacity:1" />
      <path
         id="path3826"
         d="m 502.87432,234.47613 c -2.13351,1.90854 -4.94903,3.23298 -6.08081,5.679"
         style="fill:none;stroke:#cbc8c8;stroke-width:1.13270986px;stroke-linecap:butt;stroke-linejoin:miter;stroke-opacity:1" />
      <path
         id="path3830"
         d="m 507.84952,241.10162 c -3.26944,1.15579 -4.17587,4.3067 -6.6336,6.15223"
         style="fill:none;stroke:#cbc8c8;stroke-width:1.13270986px;stroke-linecap:butt;stroke-linejoin:miter;stroke-opacity:1" />
      <path
         id="path3834"
         d="m 515.58874,243.30897 c -1.68811,1.96023 -4.1694,5.41022 -5.528,7.09874"
         style="fill:none;stroke:#cbc8c8;stroke-width:1.13270986px;stroke-linecap:butt;stroke-linejoin:miter;stroke-opacity:1" />
      <path
         id="path3836"
         d="m 528.30314,244.88761 c -0.12502,2.64863 0.37966,5.52054 -0.5528,7.88284 l 0,0.16239"
         style="fill:none;stroke:#cbc8c8;stroke-width:1.13270986px;stroke-linecap:butt;stroke-linejoin:miter;stroke-opacity:1" />
      <path
         id="path3838"
         d="m 539.35915,239.28464 c 0.57005,1.03854 4.12554,5.23732 3.86961,8.51848"
         style="fill:none;stroke:#cbc8c8;stroke-width:1.13270986px;stroke-linecap:butt;stroke-linejoin:miter;stroke-opacity:1" />
      <path
         id="path3840"
         d="m 545.43996,235.42263 c 0.38796,2.7958 2.099,5.34559 2.2112,8.04523"
         style="fill:none;stroke:#cbc8c8;stroke-width:1.13270986px;stroke-linecap:butt;stroke-linejoin:miter;stroke-opacity:1" />
      <path
         id="path3842"
         d="m 551.52077,232.58314 c 2.04387,1.78936 3.91379,4.06083 3.8696,6.1874 0,0.53755 0,1.07509 0,1.61264"
         style="fill:none;stroke:#cbc8c8;stroke-width:1.13270986px;stroke-linecap:butt;stroke-linejoin:miter;stroke-opacity:1" />
      <path
         sodipodi:nodetypes="ccc"
         id="path3943"
         d="m 571.49759,235.4513 c 1.07183,-1.01076 4.31511,2.30253 6.15635,3.34813 2.0844,1.5384 4.87542,3.65001 5.91238,6.03453"
         style="fill:none;stroke:#cbc8c8;stroke-width:1.13270986px;stroke-linecap:butt;stroke-linejoin:miter;stroke-opacity:1" />
      <path
         sodipodi:nodetypes="cccc"
         id="path3945"
         d="m 570.17818,252.69451 c 3.23694,0.88114 6.63627,3.44293 9.12121,4.73248 1.20356,0.76181 4.079,3.11164 4.49151,3.25358 l -0.3455,0.0591"
         style="fill:none;stroke:#cbc8c8;stroke-width:1.13270986px;stroke-linecap:butt;stroke-linejoin:miter;stroke-opacity:1" />
      <path
         sodipodi:nodetypes="ccc"
         id="path3947"
         d="m 559.67497,256.24558 c 4.75746,2.39854 10.24919,4.82208 15.05392,7.58993 3.98534,1.3778 7.90783,3.62888 10.92771,5.1878"
         style="fill:none;stroke:#cbc8c8;stroke-width:1.13270986px;stroke-linecap:butt;stroke-linejoin:miter;stroke-opacity:1" />
      <path
         sodipodi:nodetypes="cccc"
         id="path3949"
         d="m 555.95252,274.18257 c 2.29387,1.64522 5.90391,4.59793 9.717,6.90721 3.00465,3.14101 6.90893,5.95238 8.85321,9.40282 1.24215,1.02816 0.7398,3.71942 2.43408,6.29371"
         style="fill:none;stroke:#cbc8c8;stroke-width:1.13270986px;stroke-linecap:butt;stroke-linejoin:miter;stroke-opacity:1" />
      <path
         sodipodi:nodetypes="cccc"
         id="path3951"
         d="m 562.95869,270.80903 c 1.21702,1.73907 4.52482,3.1601 6.11389,4.36651 1.86013,1.14236 3.01876,2.81352 4.97521,4.25924 2.29735,2.85201 4.76994,5.16079 6.0808,8.04523"
         style="fill:none;stroke:#cbc8c8;stroke-width:1.13270986px;stroke-linecap:butt;stroke-linejoin:miter;stroke-opacity:1" />
      <path
         id="path3965"
         d="m 507.84952,241.10162 c -3.26944,1.15579 -4.17587,4.3067 -6.6336,6.15223"
         style="fill:none;stroke:#cbc8c8;stroke-width:1.13270986px;stroke-linecap:butt;stroke-linejoin:miter;stroke-opacity:1" />
      <path
         id="path3969"
         d="m 522.2213,245.44743 c -0.9563,1.95963 -2.05259,5.2655 -2.76193,6.9256"
         style="fill:none;stroke:#cbc8c8;stroke-width:1.13270986px;stroke-linecap:butt;stroke-linejoin:miter;stroke-opacity:1" />
      <path
         id="path3971"
         d="m 528.30314,244.88761 c -0.12502,2.64863 0.37966,5.52054 -0.5528,7.88284 l 0,0.16239"
         style="fill:none;stroke:#cbc8c8;stroke-width:1.13270986px;stroke-linecap:butt;stroke-linejoin:miter;stroke-opacity:1" />
      <path
         id="path3973"
         d="m 533.27835,243.46786 c 0.57005,1.03854 4.12554,5.23732 3.8696,8.51849"
         style="fill:none;stroke:#cbc8c8;stroke-width:1.13270986px;stroke-linecap:butt;stroke-linejoin:miter;stroke-opacity:1" />
      <path
         sodipodi:nodetypes="caaaaa"
         id="path4196"
         d="m 523.88074,70.74008 c -2.9106,-2.501782 -5.14837,-2.393955 -7.92095,-2.720991 -4.18312,-0.493413 -8.42568,0.505416 -12.5781,1.212022 -5.82339,0.99095 -11.73914,2.000022 -17.20888,4.230326 -2.79759,1.14073 -5.33639,2.865909 -7.80484,4.607731 -1.70029,1.19979 -4.79208,4.001158 -4.79208,4.001158"
         style="fill:none;stroke:#8a8484;stroke-width:1.13270986px;stroke-linecap:round;stroke-linejoin:round;stroke-opacity:1" />
      <path
         sodipodi:nodetypes="caaaa"
         id="path4198"
         d="m 526.09194,76.819725 c -4.30106,-0.749647 -8.69782,-1.416246 -13.07531,-1.285283 -4.02272,0.120349 -8.03327,0.866514 -11.92348,1.897313 -4.97788,1.319007 -9.74627,3.365991 -14.4572,5.445705 -4.46971,1.973221 -10.64506,3.846569 -13.06003,6.654249"
         style="fill:none;stroke:#8a8484;stroke-width:1.13270986px;stroke-linecap:round;stroke-linejoin:round;stroke-opacity:1" />
      <path
         sodipodi:nodetypes="caas"
         id="path4200"
         d="m 513.93033,86.491886 c -7.24971,0.351979 -10.14308,-0.854444 -15.11244,-0.02885 -5.6158,0.932971 -10.82738,3.534153 -16.15006,5.55296 -2.69551,1.022364 -5.83159,0.852455 -7.98637,3.319033"
         style="fill:none;stroke:#8a8484;stroke-width:1.13270986px;stroke-linecap:round;stroke-linejoin:round;stroke-opacity:1" />
      <path
         style="fill:none;stroke:#000000;stroke-width:1.13270986px;stroke-linecap:butt;stroke-linejoin:miter;stroke-opacity:1"
         d="m 567.40528,161.7336 c -8.83826,-3.36118 -24.65182,-6.5832 -35.99406,0.45853 -10.91973,6.7794 -11.04216,30.51617 -4.33425,34.7243 16.89953,10.60176 31.37185,8.71271 42.23708,1.92022 11.71419,-7.32324 10.29083,-32.46357 -1.90877,-37.10305 z"
         id="path4226"
         sodipodi:nodetypes="cssss" />
      <path
         style="fill:none;stroke:#000000;stroke-width:1.13270986px;stroke-linecap:butt;stroke-linejoin:miter;stroke-opacity:1"
         d="m 576.71158,174.76936 8.55393,-6.10743"
         id="path4228"
         sodipodi:nodetypes="cc" />
      <g
         transform="matrix(1.1056011,0,0,0.7598802,-435.78099,60.616175)"
         id="g4236">
        <path
           style="fill:#e3bf97;fill-opacity:1;stroke:none"
           d="M 810.17157,143.14473 C 807.70736,134.91956 802.53781,122.18259 794,123.09448 c -9.84448,1.05145 -13.74817,16.64335 -13.34315,26.53553 0.43403,10.60054 13.9057,16.77556 16.57538,27.17158 2.7461,10.69358 -0.92379,18.09957 0.24264,30.87868 0.6495,7.11566 18.16175,6.0764 18.63604,-2.3033 1.49547,-26.4218 -0.27948,-43.34049 -5.93934,-62.23224 l 0,0 z"
           id="path3780"
           sodipodi:nodetypes="caassss" />
        <path
           style="fill:none;stroke:#000000;stroke-width:1.23579645px;stroke-linecap:butt;stroke-linejoin:miter;stroke-opacity:1"
           d="m 805.74818,151.18545 c 4.69398,10.49276 3.20258,22.2226 3.53553,33.58757"
           id="path4230"
           sodipodi:nodetypes="cc" />
        <path
           style="fill:none;stroke:#000000;stroke-width:1.23579645px;stroke-linecap:butt;stroke-linejoin:miter;stroke-opacity:1"
           d="m 806.45528,169.21667 c -1.47663,-8.03111 -4.43099,-10.89017 -7.77817,-12.37437"
           id="path4232"
           sodipodi:nodetypes="cc" />
        <path
           style="fill:none;stroke:#000000;stroke-width:1.23579645px;stroke-linecap:butt;stroke-linejoin:miter;stroke-opacity:1"
           d="m 803.62686,139.16463 c 0,0 -8.35601,-10.13948 -13.08148,-8.13173 -6.21203,2.63936 -5.14475,13.01182 -4.24264,19.79899 1.02653,7.72329 10.25305,18.2881 10.25305,18.2881"
           id="path4234"
           sodipodi:nodetypes="caaa" />
      </g>
      <use
         height="744.09448"
         width="1052.3622"
         transform="matrix(-1,0,0,1,1047.1914,0.3908151)"
         id="use4242"
         xlink:href="#g4236"
         y="0"
         x="0" />
    </g>
  </g>
</svg>
