<?xml version="1.0" encoding="UTF-8" standalone="no"?>
<!-- Created with Inkscape (http://www.inkscape.org/) -->

<svg
   xmlns:dc="http://purl.org/dc/elements/1.1/"
   xmlns:cc="http://creativecommons.org/ns#"
   xmlns:rdf="http://www.w3.org/1999/02/22-rdf-syntax-ns#"
   xmlns:svg="http://www.w3.org/2000/svg"
   xmlns="http://www.w3.org/2000/svg"
   xmlns:sodipodi="http://sodipodi.sourceforge.net/DTD/sodipodi-0.dtd"
   xmlns:inkscape="http://www.inkscape.org/namespaces/inkscape"
   width="95.984734"
   height="260"
   id="svg3092"
   version="1.1"
   inkscape:version="0.47 r22583"
   sodipodi:docname="zp1.svg">
  <defs
     id="defs3094">
    <inkscape:perspective
       sodipodi:type="inkscape:persp3d"
       inkscape:vp_x="0 : 526.18109 : 1"
       inkscape:vp_y="0 : 1000 : 0"
       inkscape:vp_z="744.09448 : 526.18109 : 1"
       inkscape:persp3d-origin="372.04724 : 350.78739 : 1"
       id="perspective3100" />
    <inkscape:perspective
       id="perspective3110"
       inkscape:persp3d-origin="0.5 : 0.33333333 : 1"
       inkscape:vp_z="1 : 0.5 : 1"
       inkscape:vp_y="0 : 1000 : 0"
       inkscape:vp_x="0 : 0.5 : 1"
       sodipodi:type="inkscape:persp3d" />
    <inkscape:perspective
       id="perspective3071"
       inkscape:persp3d-origin="0.5 : 0.33333333 : 1"
       inkscape:vp_z="1 : 0.5 : 1"
       inkscape:vp_y="0 : 1000 : 0"
       inkscape:vp_x="0 : 0.5 : 1"
       sodipodi:type="inkscape:persp3d" />
  </defs>
  <sodipodi:namedview
     id="base"
     pagecolor="#ffffff"
     bordercolor="#666666"
     borderopacity="1.0"
     inkscape:pageopacity="0.0"
     inkscape:pageshadow="2"
     inkscape:zoom="1.25"
     inkscape:cx="47.992367"
     inkscape:cy="130"
     inkscape:document-units="px"
     inkscape:current-layer="layer1"
     showgrid="false"
     inkscape:window-width="1024"
     inkscape:window-height="551"
     inkscape:window-x="0"
     inkscape:window-y="26"
     inkscape:window-maximized="1" />
  <metadata
     id="metadata3097">
    <rdf:RDF>
      <cc:Work
         rdf:about="">
        <dc:format>image/svg+xml</dc:format>
        <dc:type
           rdf:resource="http://purl.org/dc/dcmitype/StillImage" />
        <dc:title />
      </cc:Work>
    </rdf:RDF>
  </metadata>
  <g
     inkscape:label="Capa 1"
     inkscape:groupmode="layer"
     id="layer1"
     transform="translate(-412.43576,-576.2394)">
    <path
       inkscape:export-ydpi="299"
       inkscape:export-xdpi="299"
       inkscape:export-filename="/home/rgarcia/my.art/south_park_project/characters/textures/zp/arm_r.png"
       sodipodi:nodetypes="ccccc"
       id="path2984"
       d="m 435.32794,668.73519 c -5.92711,-2.57136 -14.97564,3.31715 -19.39674,8.98873 -3.58224,10.80582 -3.41767,24.10952 -3.31163,37.37419 3.8582,6.70902 11.62579,8.01859 18.92364,-0.47309 2.79206,-14.53136 3.48797,-30.11081 3.78473,-45.88983 z"
       style="fill:#6d6d7b;fill-opacity:1;stroke:none;display:inline" />
    <g
       style="display:inline"
       inkscape:export-ydpi="299"
       inkscape:export-xdpi="299"
       inkscape:export-filename="/home/rgarcia/my.art/south_park_project/characters/textures/zp/legs.png"
       transform="matrix(0.36009078,0,0,0.42429601,298.60463,531.67197)"
       id="g2986">
      <path
         style="fill:#6d6d7b;fill-opacity:1;stroke:none"
         d="m 367.86693,503.66717 c 5.25524,71.3837 -3.34462,142.7674 15.76572,214.1511 l 127.43962,-1.31381 c 11.45172,-46.89628 12.41925,-140.85863 18.39335,-211.52348 l -161.59869,-1.31381 0,0 z"
         id="path2988"
         sodipodi:nodetypes="ccccc" />
      <path
         id="path2990"
         d="m 452.42509,543.71904 0,169.26943"
         style="fill:none;stroke:#393939;stroke-width:3.02313828;stroke-linecap:round;stroke-linejoin:round;stroke-miterlimit:4;stroke-opacity:1;stroke-dasharray:none" />
      <path
         style="fill:#171717;fill-opacity:1;stroke:none"
         d="m 413.8503,705.33707 c -22.98889,0.26867 -36.43527,4.2628 -34.81598,11.82429 l 130.72414,-0.6569 c 14.41496,1.21166 -0.80959,-11.98077 -23.64858,-11.1674 -22.83898,0.81338 -21.30326,2.7915 -34.81489,8.45713 -10.49791,-5.02167 -21.72777,-8.65447 -37.44469,-8.45712 l 0,0 z"
         id="path2992"
         sodipodi:nodetypes="ccczcc" />
    </g>
    <g
       style="display:inline"
       inkscape:export-ydpi="299"
       inkscape:export-xdpi="299"
       inkscape:export-filename="/home/rgarcia/my.art/south_park_project/characters/textures/zp/body.png"
       transform="matrix(0.36009078,0,0,0.36009078,298.60463,564.01003)"
       id="g2994">
      <path
         style="fill:#6d6d7b;fill-opacity:1;stroke:none"
         d="m 337.64929,306.5956 c 13.34842,-15.26923 34.03862,-19.17802 53.86623,-24.9624 40.85513,-9.95213 77.82382,-10.18814 111.67389,-2.62762 24.91792,12.32895 35.60552,13.15811 53.86622,35.47288 -1.48978,76.81392 -1.6066,155.28489 -17.07953,228.60302 L 356.04263,545.7091 C 342.90099,468.36875 333.69369,380.5165 337.64929,306.5956 z"
         id="path2996"
         sodipodi:nodetypes="ccccccc" />
      <path
         style="fill:#ffffff;fill-opacity:1;stroke:none"
         d="m 408.76189,285.16637 42.7342,146.78267 41.80518,-145.85367 -84.53938,-0.929 0,0 z"
         id="path2998"
         sodipodi:nodetypes="cccc" />
      <path
         style="fill:#703684;fill-opacity:1;stroke:#000000;stroke-width:1px;stroke-linecap:butt;stroke-linejoin:miter;stroke-opacity:1"
         d="m 441.27704,330.68757 -1.85801,84.5394 3.71601,16.72207 14.86407,0.929 14.86407,-19.50908 -11.14805,-82.68139 -20.43809,0 0,0 z"
         id="path3000"
         sodipodi:nodetypes="ccccccc" />
      <path
         style="fill:#6d6d7b;fill-opacity:1;stroke:#393939;stroke-width:2;stroke-linecap:round;stroke-linejoin:round;stroke-miterlimit:4;stroke-opacity:1;stroke-dasharray:none"
         d="m 392.03981,283.30836 c -4.19501,25.03085 -5.71868,49.1865 0,66.88831 l 20.43809,-3.71602 -8.36104,32.51515 c 9.60238,30.03514 28.1243,47.43472 47.37923,67.81731 l -1.85802,-18.58008 -44.5922,-156.07272 -13.00606,11.14805 z"
         id="path3002"
         sodipodi:nodetypes="cccccccc" />
      <path
         sodipodi:nodetypes="cccccccc"
         id="path3004"
         d="m 510.92904,283.30836 c 4.19501,25.03085 5.71868,49.1865 0,66.88831 l -20.43809,-3.71602 8.36104,32.51515 c -9.60238,30.03514 -28.1243,47.43472 -47.37923,67.81731 l 1.85802,-18.58008 44.5922,-156.07272 13.00606,11.14805 z"
         style="fill:#6d6d7b;fill-opacity:1;stroke:#393939;stroke-width:2;stroke-linecap:round;stroke-linejoin:round;stroke-miterlimit:4;stroke-opacity:1;stroke-dasharray:none" />
      <path
         style="fill:#703684;fill-opacity:1;stroke:#000000;stroke-width:1px;stroke-linecap:butt;stroke-linejoin:miter;stroke-opacity:1"
         d="m 442.20604,303.74645 c 0,0 -6.4827,9.45599 -6.50303,14.86407 -0.0177,4.71669 5.57403,13.00606 5.57403,13.00606 0,0 15.03846,2.34204 20.43809,-1.85801 4.40652,-3.42757 5.57403,-15.79307 5.57403,-15.79307 0,0 -3.3841,-11.79643 -8.36104,-13.93507 -5.24615,-2.25433 -16.72208,3.71602 -16.72208,3.71602 l 0,0 z"
         id="path3006"
         sodipodi:nodetypes="cacacac" />
      <path
         style="fill:none;stroke:#393939;stroke-width:2;stroke-linecap:round;stroke-linejoin:round;stroke-miterlimit:4;stroke-opacity:1;stroke-dasharray:none;display:inline"
         d="m 537.89348,538.78454 c -58.92456,7.52566 -118.82744,9.18133 -180.22683,1.85801"
         id="path3008"
         sodipodi:nodetypes="cc" />
      <path
         style="fill:none;stroke:#393939;stroke-width:2;stroke-linecap:round;stroke-linejoin:round;stroke-miterlimit:4;stroke-opacity:1;stroke-dasharray:none"
         d="m 452.85658,447.08521 0,96.61644"
         id="path3010" />
      <path
         style="fill:none;stroke:#393939;stroke-width:2;stroke-linecap:round;stroke-linejoin:round;stroke-miterlimit:4;stroke-opacity:1;stroke-dasharray:none"
         d="m 473.59412,464.1921 0,18.58008 51.09523,0 0,-17.65108 -51.09523,-0.929 0,0 z"
         id="path3012"
         sodipodi:nodetypes="ccccc" />
      <path
         style="fill:none;stroke:#393939;stroke-width:1.90161979;stroke-linecap:round;stroke-linejoin:round;stroke-miterlimit:4;stroke-opacity:1;stroke-dasharray:none"
         d="m 374.38873,466.28469 0,16.79712 51.09523,0 0,-15.95727 -51.09523,-0.83985 0,0 z"
         id="use3014"
         sodipodi:nodetypes="ccccc" />
    </g>
    <path
       inkscape:export-ydpi="299"
       inkscape:export-xdpi="299"
       inkscape:export-filename="/home/rgarcia/my.art/south_park_project/characters/textures/zp/hand1_r.png"
       sodipodi:nodetypes="ccccccc"
       id="path3016"
       d="m 415.35317,741.50512 c -1.21546,6.93867 -1.67467,13.37555 0.64036,20.31421 3.5099,2.22346 7.75622,1.78583 12.1331,0.97489 1.47667,-2.1982 0.10987,-4.89818 0.58296,-7.26364 0.81139,3.32034 1.12664,4.37413 2.44662,5.50983 -0.002,-6.12855 0.0215,-12.01795 -3.02958,-18.58911 -4.55354,-1.79398 -8.65317,-1.31841 -12.77346,-0.94618 l 0,0 z"
       style="fill:#e3bf97;fill-opacity:1;stroke:none;display:inline" />
    <path
       inkscape:export-ydpi="299"
       inkscape:export-xdpi="299"
       inkscape:export-filename="/home/rgarcia/my.art/south_park_project/characters/textures/zp/forearm_r.png"
       sodipodi:nodetypes="ccccc"
       id="path3018"
       d="m 414.98502,742.53739 c 4.13169,2.20765 8.98638,0.80028 13.71964,0 3.43449,-9.00034 1.97188,-19.63305 1.89237,-29.80473 -9.23082,-9.71499 -13.68786,-5.10867 -17.97746,0 0.27055,10.75329 -1.52533,21.46493 2.36545,29.80473 z"
       style="fill:#6d6d7b;fill-opacity:1;stroke:none;display:inline" />
    <path
       inkscape:export-ydpi="299"
       inkscape:export-xdpi="299"
       inkscape:export-filename="/home/rgarcia/my.art/south_park_project/characters/textures/zp/arm_r.png"
       sodipodi:nodetypes="ccccc"
       id="use3020"
       d="m 485.52833,668.73519 c 5.9271,-2.57136 14.97563,3.31715 19.39673,8.98873 3.58224,10.80582 3.41767,24.10952 3.31163,37.37419 -3.8582,6.70902 -11.62579,8.01859 -18.92364,-0.47309 -2.79206,-14.53136 -3.48797,-30.11081 -3.78472,-45.88983 z"
       style="fill:#6d6d7b;fill-opacity:1;stroke:none;display:inline" />
    <g
       style="display:inline"
       transform="matrix(0.36009078,0,0,0.33391791,249.40316,566.10324)"
       inkscape:export-ydpi="299"
       inkscape:export-xdpi="299"
       inkscape:export-filename="/home/rgarcia/my.art/south_park_project/characters/textures/zp/head.png"
       id="g3022">
      <g
         id="g3024"
         transform="matrix(1,0,0,1.0067308,136.30784,-233.36988)"
         inkscape:export-filename="/home/rgarcia/my.art/south_park_project/characters/textures/zp/head.png"
         inkscape:export-xdpi="299"
         inkscape:export-ydpi="299">
        <g
           id="g3026">
          <g
             id="g3028">
            <path
               sodipodi:nodetypes="ccccccccc"
               id="path3030"
               d="m 373.16502,490.51461 c -8.33258,-65.92118 -26.79675,-151.55465 19.51417,-199.6072 31.2434,-26.56278 68.81839,-28.05365 96.06973,-6.90076 55.96483,59.30468 18.06734,128.13621 16.51199,177.52477 23.97709,28.52313 25.03903,31.33816 25.51851,59.86129 -2.85046,16.04912 -27.02105,49.33608 -52.53812,24.84273 -19.48281,6.15366 -26.22981,16.31835 -49.53596,1.38015 -18.359,4.85626 -39.4213,28.08234 -60.04358,-16.56182 -4.17779,-19.83623 -4.61534,-26.65682 4.50326,-40.53916 l 0,0 z"
               style="fill:#e3bf97;fill-opacity:1;stroke:none" />
            <path
               sodipodi:nodetypes="cccccccsc"
               id="path3032"
               d="m 364.73741,424.91479 c -1.55747,-48.70734 -20.47453,-98.3564 20.58336,-136.76768 23.4128,-15.71754 40.96543,-46.26279 111.04992,-6.90076 46.08896,68.9065 18.33653,98.09776 15.42359,147.47515 -4.22189,-45.68336 1.27067,-93.49904 -26.37216,-132.29348 -8.46827,6.67755 -14.9151,16.92251 -31.28168,9.66106 l -18.76902,-19.32212 c -9.42497,-11.08885 -27.80118,13.53311 -35.9739,9.66106 -26.12043,-12.37526 -35.1171,124.25211 -34.66011,128.48677 l 0,0 z"
               style="fill:#333333;stroke:none" />
            <path
               sodipodi:nodetypes="cc"
               id="path3034"
               d="m 398.49047,531.25719 c 10.91616,-1.79476 27.18426,-9.15377 27.59002,-24.9624"
               style="fill:none;stroke:#272422;stroke-width:2;stroke-linecap:round;stroke-linejoin:round;stroke-miterlimit:4;stroke-opacity:0.61660061;stroke-dasharray:none" />
            <path
               sodipodi:nodetypes="cc"
               id="use3036"
               d="m 497.62867,528.01814 c -10.91616,-1.79476 -27.18426,-9.15377 -27.59002,-24.9624"
               style="fill:none;stroke:#272422;stroke-width:2;stroke-linecap:round;stroke-linejoin:round;stroke-miterlimit:4;stroke-opacity:0.61660061;stroke-dasharray:none" />
            <path
               sodipodi:nodetypes="cc"
               id="path3038"
               d="m 429.66875,466.79096 c -10.12123,13.76013 -24.31805,17.14648 -40.83358,14.63096"
               style="fill:none;stroke:#272422;stroke-width:2;stroke-linecap:round;stroke-linejoin:round;stroke-miterlimit:4;stroke-opacity:0.61660061;stroke-dasharray:none" />
            <path
               sodipodi:nodetypes="cc"
               id="use3040"
               d="m 458.67737,470.886 c 12.59193,11.54226 27.17566,12.11828 42.89259,6.45536"
               style="fill:none;stroke:#272422;stroke-width:2;stroke-linecap:round;stroke-linejoin:round;stroke-miterlimit:4;stroke-opacity:0.61660061;stroke-dasharray:none" />
          </g>
          <path
             id="use3042"
             d="m 445.44106,416.91366 31.29571,-53.76489 39.53142,53.76489 -39.53142,-32.78348 -24.70714,41.96285 -6.58857,-9.17937 z"
             style="fill:#333333;fill-opacity:1;stroke:none" />
        </g>
        <path
           id="path3044"
           d="m 440.06718,420.85509 -31.29571,-53.76489 -39.53142,53.76489 39.53142,-32.78348 24.70714,41.96285 6.58857,-9.17937 z"
           style="fill:#333333;fill-opacity:1;stroke:none" />
      </g>
      <path
         style="fill:none;stroke:#272422;stroke-width:2.07797599;stroke-linecap:round;stroke-linejoin:round;stroke-miterlimit:4;stroke-opacity:0.61568627;stroke-dasharray:none"
         d="m 567.60256,234.04402 3.83957,26.65152 c -1.76507,0.15329 -2.75238,2.70642 -2.42608,4.72505 0.57736,2.56552 2.98664,4.21584 5.63428,3.61237 1.04946,-0.23031 1.57732,-2.22607 2.20653,-2.52365 -0.84151,3.23076 2.10063,2.88295 4.83643,3.87102 3.45247,-0.81334 5.05504,-0.21741 5.76438,-3.62567 0.61305,-0.8777 1.94635,4.26289 5.93307,0.45044 3.49722,-4.21096 2.69182,-6.00549 -1.31667,-7.58716 l 3.36285,-24.91263"
         id="path3046"
         sodipodi:nodetypes="cccccccccc" />
    </g>
    <path
       inkscape:export-ydpi="299"
       inkscape:export-xdpi="299"
       inkscape:export-filename="/home/rgarcia/my.art/south_park_project/characters/textures/zp/hand1_r.png"
       sodipodi:nodetypes="ccccccc"
       id="use3048"
       d="m 505.50309,741.50512 c 1.21547,6.93867 1.67467,13.37555 -0.64035,20.31421 -3.50991,2.22346 -7.75623,1.78583 -12.13311,0.97489 -1.47666,-2.1982 -0.10986,-4.89818 -0.58295,-7.26364 -0.8114,3.32034 -1.12665,4.37413 -2.44663,5.50983 0.002,-6.12855 -0.0215,-12.01795 3.02958,-18.58911 4.55354,-1.79398 8.65317,-1.31841 12.77346,-0.94618 l 0,0 z"
       style="fill:#e3bf97;fill-opacity:1;stroke:none;display:inline" />
    <path
       inkscape:export-ydpi="299"
       inkscape:export-xdpi="299"
       inkscape:export-filename="/home/rgarcia/my.art/south_park_project/characters/textures/zp/forearm_r.png"
       sodipodi:nodetypes="ccccc"
       id="use3050"
       d="m 505.87124,742.53739 c -4.13169,2.20765 -8.98637,0.80028 -13.71964,0 -3.43449,-9.00034 -1.97187,-19.63305 -1.89237,-29.80473 9.23082,-9.71499 13.68787,-5.10867 17.97746,0 -0.27055,10.75329 1.52533,21.46493 -2.36545,29.80473 z"
       style="fill:#6d6d7b;fill-opacity:1;stroke:none;display:inline" />
  </g>
</svg>
