<?xml version="1.0" encoding="UTF-8" standalone="no"?>
<!-- Created with Inkscape (http://www.inkscape.org/) -->

<svg
   xmlns:dc="http://purl.org/dc/elements/1.1/"
   xmlns:cc="http://creativecommons.org/ns#"
   xmlns:rdf="http://www.w3.org/1999/02/22-rdf-syntax-ns#"
   xmlns:svg="http://www.w3.org/2000/svg"
   xmlns="http://www.w3.org/2000/svg"
   xmlns:sodipodi="http://sodipodi.sourceforge.net/DTD/sodipodi-0.dtd"
   xmlns:inkscape="http://www.inkscape.org/namespaces/inkscape"
   width="34.649704"
   height="18"
   id="svg3080"
   version="1.1"
   inkscape:version="0.47 r22583"
   sodipodi:docname="m10.svg">
  <defs
     id="defs3082">
    <inkscape:perspective
       sodipodi:type="inkscape:persp3d"
       inkscape:vp_x="0 : 526.18109 : 1"
       inkscape:vp_y="0 : 1000 : 0"
       inkscape:vp_z="744.09448 : 526.18109 : 1"
       inkscape:persp3d-origin="372.04724 : 350.78739 : 1"
       id="perspective3088" />
    <inkscape:perspective
       id="perspective3098"
       inkscape:persp3d-origin="0.5 : 0.33333333 : 1"
       inkscape:vp_z="1 : 0.5 : 1"
       inkscape:vp_y="0 : 1000 : 0"
       inkscape:vp_x="0 : 0.5 : 1"
       sodipodi:type="inkscape:persp3d" />
    <clipPath
       clipPathUnits="userSpaceOnUse"
       id="clipPath4396">
      <path
         style="fill:#000000;fill-opacity:1;stroke:#000000;stroke-width:1.05400002;stroke-linecap:round;stroke-linejoin:round;stroke-miterlimit:4;stroke-opacity:1;stroke-dasharray:none;display:inline"
         d="m 1229.2232,172.31765 c 0.1148,-3.85943 -15.7758,-13.18081 -34.2791,-15.69524 -10.254,-1.39342 -22.619,3.87465 -21.6499,8.9635 0.6349,3.33363 13.4297,2.23802 20.2034,2.18946 13.422,-0.0962 34.8004,6.1668 35.7256,4.54228 z"
         id="path4398"
         sodipodi:nodetypes="csssc" />
    </clipPath>
  </defs>
  <sodipodi:namedview
     id="base"
     pagecolor="#ffffff"
     bordercolor="#666666"
     borderopacity="1.0"
     inkscape:pageopacity="0.0"
     inkscape:pageshadow="2"
     inkscape:zoom="11.197787"
     inkscape:cx="17.324852"
     inkscape:cy="9"
     inkscape:document-units="px"
     inkscape:current-layer="layer1"
     showgrid="false"
     inkscape:window-width="1024"
     inkscape:window-height="551"
     inkscape:window-x="0"
     inkscape:window-y="26"
     inkscape:window-maximized="1" />
  <metadata
     id="metadata3085">
    <rdf:RDF>
      <cc:Work
         rdf:about="">
        <dc:format>image/svg+xml</dc:format>
        <dc:type
           rdf:resource="http://purl.org/dc/dcmitype/StillImage" />
        <dc:title />
      </cc:Work>
    </rdf:RDF>
  </metadata>
  <g
     inkscape:label="Capa 1"
     inkscape:groupmode="layer"
     id="layer1"
     transform="translate(-616.8287,-303.2455)">
    <g
       style="display:inline"
       id="g4308"
       inkscape:export-filename="/home/rgarcia/my.art/south_park_project/characters/textures/mouths/10.png"
       inkscape:export-xdpi="299"
       inkscape:export-ydpi="299"
       transform="matrix(0.5232497,0,0,0.5232497,7.6441195,97.208159)">
      <g
         transform="matrix(0.31767143,0,0,0.30380839,867.04736,325.4153)"
         id="g4267">
        <path
           style="fill:#000000;fill-opacity:1;stroke:#000000;stroke-width:3;stroke-linejoin:round;stroke-miterlimit:4;stroke-opacity:1;stroke-dasharray:none"
           d="m 985.59722,315.5205 c 0.35764,-11.20869 -0.81965,-26.17818 8.49927,-33.07997 23.85791,-17.66969 68.05721,-17.92089 90.07701,1.86147 11.6563,10.47189 14.7551,34.40179 4.5984,45.98336 -4.6223,5.27074 -14.0498,1.42822 -21.021,0.65691 -16.3971,-1.8142 -31.6121,-13.8135 -48.0396,-12.33085 -7.1289,0.64341 -12.5681,9.98525 -19.6621,9.00724 -6.11806,-0.84346 -14.68139,-4.90845 -14.45198,-12.09816 z"
           id="path4250"
           sodipodi:nodetypes="caaaaaas"
           inkscape:export-filename="/home/rgarcia/my.art/south_park_project/characters/textures/mouths/10.png"
           inkscape:export-xdpi="299"
           inkscape:export-ydpi="299" />
        <path
           style="fill:#ffffff;fill-opacity:1;stroke:none"
           d="m 1038.4349,270.1002 c -6.2303,0.0352 -12.5019,0.5497 -18.625,1.49894 l 0,20.6708 21,0 0,-22.14556 c -0.7906,-0.0107 -1.5822,-0.0286 -2.375,-0.0241 z"
           id="rect4252" />
        <path
           style="fill:#ffffff;fill-opacity:1;stroke:none"
           d="m 1069.0599,275.4754 1.0339,18.10704 20.375,0 -1.0339,-3.01329 c -1.4841,-2.42445 -3.2215,-4.57988 -5.25,-6.28125 -4.3978,-3.68841 -9.5355,-6.58618 -15.125,-8.8125 z"
           id="rect4254"
           sodipodi:nodetypes="ccccsc" />
        <path
           style="fill:#ffffff;fill-opacity:1;stroke:none"
           d="m 1042.7786,270.1629 0,22.76329 24.3125,0 0,-19.23693 c -7.5221,-2.1174 -15.814,-3.27127 -24.3125,-3.52636 z"
           id="rect4256" />
      </g>
      <rect
         y="393.76486"
         x="1164.233"
         height="34.400402"
         width="66.220207"
         id="rect4275"
         style="fill:none;stroke:none;display:inline"
         inkscape:export-filename="/home/rgarcia/my.art/south_park_test/mouths/4.png"
         inkscape:export-xdpi="299"
         inkscape:export-ydpi="299" />
    </g>
  </g>
</svg>
