<?xml version="1.0" encoding="UTF-8" standalone="no"?>
<!-- Created with Inkscape (http://www.inkscape.org/) -->

<svg
   xmlns:dc="http://purl.org/dc/elements/1.1/"
   xmlns:cc="http://creativecommons.org/ns#"
   xmlns:rdf="http://www.w3.org/1999/02/22-rdf-syntax-ns#"
   xmlns:svg="http://www.w3.org/2000/svg"
   xmlns="http://www.w3.org/2000/svg"
   xmlns:sodipodi="http://sodipodi.sourceforge.net/DTD/sodipodi-0.dtd"
   xmlns:inkscape="http://www.inkscape.org/namespaces/inkscape"
   width="34.649704"
   height="18"
   id="svg3080"
   version="1.1"
   inkscape:version="0.47 r22583"
   sodipodi:docname="m7.svg">
  <defs
     id="defs3082">
    <inkscape:perspective
       sodipodi:type="inkscape:persp3d"
       inkscape:vp_x="0 : 526.18109 : 1"
       inkscape:vp_y="0 : 1000 : 0"
       inkscape:vp_z="744.09448 : 526.18109 : 1"
       inkscape:persp3d-origin="372.04724 : 350.78739 : 1"
       id="perspective3088" />
    <inkscape:perspective
       id="perspective3098"
       inkscape:persp3d-origin="0.5 : 0.33333333 : 1"
       inkscape:vp_z="1 : 0.5 : 1"
       inkscape:vp_y="0 : 1000 : 0"
       inkscape:vp_x="0 : 0.5 : 1"
       sodipodi:type="inkscape:persp3d" />
    <clipPath
       clipPathUnits="userSpaceOnUse"
       id="clipPath4396">
      <path
         style="fill:#000000;fill-opacity:1;stroke:#000000;stroke-width:1.05400002;stroke-linecap:round;stroke-linejoin:round;stroke-miterlimit:4;stroke-opacity:1;stroke-dasharray:none;display:inline"
         d="m 1229.2232,172.31765 c 0.1148,-3.85943 -15.7758,-13.18081 -34.2791,-15.69524 -10.254,-1.39342 -22.619,3.87465 -21.6499,8.9635 0.6349,3.33363 13.4297,2.23802 20.2034,2.18946 13.422,-0.0962 34.8004,6.1668 35.7256,4.54228 z"
         id="path4398"
         sodipodi:nodetypes="csssc" />
    </clipPath>
  </defs>
  <sodipodi:namedview
     id="base"
     pagecolor="#ffffff"
     bordercolor="#666666"
     borderopacity="1.0"
     inkscape:pageopacity="0.0"
     inkscape:pageshadow="2"
     inkscape:zoom="11.197787"
     inkscape:cx="17.324852"
     inkscape:cy="9"
     inkscape:document-units="px"
     inkscape:current-layer="layer1"
     showgrid="false"
     inkscape:window-width="1024"
     inkscape:window-height="551"
     inkscape:window-x="0"
     inkscape:window-y="26"
     inkscape:window-maximized="1" />
  <metadata
     id="metadata3085">
    <rdf:RDF>
      <cc:Work
         rdf:about="">
        <dc:format>image/svg+xml</dc:format>
        <dc:type
           rdf:resource="http://purl.org/dc/dcmitype/StillImage" />
        <dc:title />
      </cc:Work>
    </rdf:RDF>
  </metadata>
  <g
     inkscape:label="Capa 1"
     inkscape:groupmode="layer"
     id="layer1"
     transform="translate(-616.82866,-303.41568)">
    <g
       style="display:inline"
       id="g4237"
       inkscape:export-filename="/home/rgarcia/my.art/south_park_project/characters/textures/mouths/7.png"
       inkscape:export-xdpi="299"
       inkscape:export-ydpi="299"
       transform="matrix(0.5232497,0,0,0.5232497,7.3003779,160.62383)">
      <rect
         inkscape:export-ydpi="299"
         inkscape:export-xdpi="299"
         inkscape:export-filename="/home/rgarcia/my.art/south_park_test/mouths/4.png"
         style="fill:none;stroke:none;display:inline"
         id="rect2930"
         width="66.220207"
         height="34.400402"
         x="1164.8899"
         y="272.89429" />
      <g
         inkscape:export-filename="/home/rgarcia/my.art/south_park_project/characters/7.png"
         inkscape:export-ydpi="299"
         inkscape:export-xdpi="299"
         transform="matrix(0.45033568,0,0,0.36522891,762.92209,195.18179)"
         id="g4048">
        <path
           sodipodi:nodetypes="czzz"
           id="path4050"
           d="m 921,282.09448 c -11.12395,-8.44228 21.9639,-25.64979 42.5,-25.5 20.5361,0.14979 58.3712,14.32466 42,24.5 -16.37117,10.17534 -73.37605,9.44228 -84.5,1 z"
           style="fill:#000000;fill-opacity:1;stroke:#000000;stroke-width:3;stroke-linecap:butt;stroke-linejoin:round;stroke-miterlimit:4;stroke-opacity:1;stroke-dasharray:none" />
        <path
           id="path4052"
           d="m 947,259.25 c -4.71352,1.37286 -9.36732,3.16368 -13.5,5.21875 l 0,9.5625 13.5,0 0,-14.78125 z"
           style="fill:#ffffff;fill-opacity:1;stroke:none" />
        <path
           id="path4054"
           d="m 963.5,256.59375 c -4.28982,-0.0313 -9.13218,0.6921 -14,1.9375 l 0,16.71875 14,0 0,-18.65625 z"
           style="fill:#ffffff;fill-opacity:1;stroke:none" />
        <path
           id="path4056"
           d="m 966,256.6875 0,19.78125 13.5,0 0,-17.75 c -4.69568,-1.07076 -9.36008,-1.7986 -13.5,-2.03125 z"
           style="fill:#ffffff;fill-opacity:1;stroke:none" />
        <path
           id="path4058"
           d="m 982.5,260.34375 0,16.75 16,0 0,-10.65625 c -4.49191,-2.36997 -10.14638,-4.47905 -16,-6.09375 z"
           style="fill:#ffffff;fill-opacity:1;stroke:none" />
        <path
           id="path4060"
           d="m 998.1875,279.3125 -13.5,0.53125 0.28125,7.15625 c 5.00079,-0.70273 9.57306,-1.63943 13.40625,-2.84375 l -0.1875,-4.84375 z"
           style="fill:#ffffff;fill-opacity:1;stroke:none" />
        <path
           id="path4062"
           d="m 982.15625,278.9375 -14,0.5625 0.375,8.9375 c 4.7852,-0.18291 9.48729,-0.5534 13.9375,-1.09375 l -0.3125,-8.40625 z"
           style="fill:#ffffff;fill-opacity:1;stroke:none" />
        <path
           id="path4064"
           d="m 965.625,278.59375 -13.5,0.53125 0.375,9.25 c 4.39888,0.18834 8.95908,0.24026 13.5,0.125 l -0.375,-9.90625 z"
           style="fill:#ffffff;fill-opacity:1;stroke:none" />
        <path
           id="path4066"
           d="m 949.125,278.75 -16,0.65625 0.28125,6.96875 c 4.67227,0.88284 10.19304,1.49316 16.09375,1.84375 L 949.125,278.75 z"
           style="fill:#ffffff;fill-opacity:1;stroke:none" />
      </g>
    </g>
  </g>
</svg>
