<?xml version="1.0" encoding="UTF-8" standalone="no"?>
<!-- Created with Inkscape (http://www.inkscape.org/) -->

<svg
   xmlns:svg="http://www.w3.org/2000/svg"
   xmlns="http://www.w3.org/2000/svg"
   xmlns:inkscape="http://www.inkscape.org/namespaces/inkscape"
   version="1.1"
   width="28.857237"
   height="15.020172"
   id="svg2">
  <defs
     id="defs4">
    <inkscape:path-effect
       effect="spiro"
       id="path-effect3592" />
  </defs>
  <g
     transform="translate(-247.51204,-357.3466)"
     id="layer1">
    <path
       d="m 251.70354,359.19415 -2.72615,3.04419 c 14.41905,1.61748 17.83696,-0.98541 23.99493,-3.9059 0,0 3.70222,6.98138 0.85572,9.89103 -2.84649,2.90965 -8.99206,3.07898 -12.44717,3.14236 -3.4551,0.0634 -6.29405,-1.75649 -6.29405,-1.75649"
       id="path3934"
       style="fill:none;stroke:#000000;stroke-width:0.99999994;stroke-opacity:1" />
    <path
       d="m 272.9694,358.33372 c -4.98044,2.36202 -8.18262,4.51119 -16.84811,4.39298 1.09268,3.01173 1.08273,5.71558 0.76233,7.76166 1.14657,0.45581 2.73367,0.92328 4.49456,0.89098 3.45511,-0.0634 9.59235,-0.24313 12.43885,-3.15279 2.8465,-2.90965 -0.84763,-9.89283 -0.84763,-9.89283 z"
       id="path3936"
       style="fill:#cc0000;fill-opacity:1;stroke:#000000;stroke-width:0.99999994;stroke-opacity:1" />
  </g>
</svg>
