<?xml version="1.0" encoding="UTF-8" standalone="no"?>
<!-- Created with Inkscape (http://www.inkscape.org/) -->

<svg
   xmlns:svg="http://www.w3.org/2000/svg"
   xmlns="http://www.w3.org/2000/svg"
   xmlns:inkscape="http://www.inkscape.org/namespaces/inkscape"
   version="1.1"
   width="75.46875"
   height="57.125"
   id="svg2">
  <defs
     id="defs4">
    <inkscape:path-effect
       effect="spiro"
       id="path-effect3592" />
    <filter
       color-interpolation-filters="sRGB"
       id="filter3722">
      <feGaussianBlur
         id="feGaussianBlur3724"
         stdDeviation="0.30445115" />
    </filter>
  </defs>
  <g
     transform="translate(-315.81258,-317.79656)"
     id="layer1">
    <path
       d="m 328.83811,322.25691 c -4.47437,0 -8.07923,3.60486 -8.07923,8.07924 l 0,26.84201 c 0,4.47437 3.60486,8.07924 8.07923,8.07924 l 7.48736,0 -3.58091,9.20382 13.67256,-9.20382 35.83868,0 c 4.47437,0 8.07923,-3.60487 8.07923,-8.07924 l 0,-26.84201 c 0,-4.47438 -3.60486,-8.07924 -8.07923,-8.07924 l -53.41769,0 z"
       id="path3716"
       style="fill:#646464;fill-opacity:1;stroke:none;filter:url(#filter3722)" />
    <path
       d="m 326.83811,320.25691 c -4.47437,0 -8.07923,3.60486 -8.07923,8.07924 l 0,26.84201 c 0,4.47437 3.60486,8.07924 8.07923,8.07924 l 7.48736,0 -3.58091,9.20382 13.67256,-9.20382 35.83868,0 c 4.47437,0 8.07923,-3.60487 8.07923,-8.07924 l 0,-26.84201 c 0,-4.47438 -3.60486,-8.07924 -8.07923,-8.07924 l -53.41769,0 z"
       id="rect3690"
       style="fill:#ffffff;fill-opacity:1;stroke:#000000;stroke-width:2.00000024;stroke-miterlimit:4;stroke-opacity:1;stroke-dasharray:none" />
  </g>
</svg>
