<?xml version="1.0" encoding="UTF-8" standalone="no"?>
<!-- Created with Inkscape (http://www.inkscape.org/) -->

<svg
   xmlns:svg="http://www.w3.org/2000/svg"
   xmlns="http://www.w3.org/2000/svg"
   xmlns:inkscape="http://www.inkscape.org/namespaces/inkscape"
   version="1.1"
   width="68.966393"
   height="84.897781"
   id="svg2">
  <defs
     id="defs4">
    <inkscape:path-effect
       effect="spiro"
       id="path-effect3592" />
    <filter
       color-interpolation-filters="sRGB"
       id="filter3621">
      <feGaussianBlur
         id="feGaussianBlur3623"
         stdDeviation="0.874375" />
    </filter>
  </defs>
  <g
     transform="translate(-319.56258,-310.17156)"
     id="layer1">
    <path
       d="m 354.70756,312.56238 c -26.72519,0 -48.40625,16.13549 -48.40625,36.03125 0,13.69767 10.28677,25.62619 25.40625,31.71875 l -0.875,10.34375 12.5,-7.0625 c 3.64959,0.65488 7.45533,1.03125 11.375,1.03125 26.72519,0 48.375,-16.13549 48.375,-36.03125 0,-19.89576 -21.64981,-36.03125 -48.375,-36.03125 z"
       transform="matrix(0.67373673,0,0,1.0207506,115.54361,-5.8351796)"
       id="path3615"
       style="fill:#000000;fill-opacity:0.6204986;stroke:none;filter:url(#filter3621)" />
    <path
       d="m 353.17565,311.17156 c -18.00575,0 -32.61307,16.47032 -32.61307,36.77892 0,13.98191 6.93058,26.15795 17.11711,32.37694 l -0.5895,10.55839 8.42171,-7.20906 c 2.45884,0.66847 5.02293,1.05266 7.66375,1.05266 18.00574,0 32.592,-16.47032 32.592,-36.77893 0,-20.3086 -14.58626,-36.77892 -32.592,-36.77892 z"
       id="path2817"
       style="fill:#ffffff;fill-opacity:1;stroke:#000000;stroke-width:1.99999988;stroke-miterlimit:4;stroke-opacity:1;stroke-dasharray:none" />
  </g>
</svg>
