<?xml version="1.0" encoding="UTF-8" standalone="no"?>
<!-- Created with Inkscape (http://www.inkscape.org/) -->

<svg
   xmlns:svg="http://www.w3.org/2000/svg"
   xmlns="http://www.w3.org/2000/svg"
   xmlns:inkscape="http://www.inkscape.org/namespaces/inkscape"
   version="1.1"
   width="67.70507"
   height="82.214249"
   id="svg2">
  <defs
     id="defs4">
    <inkscape:path-effect
       effect="spiro"
       id="path-effect3592" />
  </defs>
  <g
     transform="translate(-321.03918,-311.30703)"
     id="layer1">
    <path
       d="m 356.15225,313.80703 c -18.00575,0 -32.61307,16.47032 -32.61307,36.77892 0,13.98191 6.93058,26.15795 17.11711,32.37694 l -0.5895,10.55839 8.42171,-7.20906 c 2.45884,0.66847 5.02293,1.05266 7.66375,1.05266 18.00574,0 32.592,-16.47032 32.592,-36.77893 0,-20.3086 -14.58626,-36.77892 -32.592,-36.77892 z"
       id="path3588"
       style="fill:#000000;fill-opacity:1;stroke:none" />
    <path
       d="m 354.15225,311.80703 c -18.00575,0 -32.61307,16.47032 -32.61307,36.77892 0,13.98191 6.93058,26.15795 17.11711,32.37694 l -0.5895,10.55839 8.42171,-7.20906 c 2.45884,0.66847 5.02293,1.05266 7.66375,1.05266 18.00574,0 32.592,-16.47032 32.592,-36.77893 0,-20.3086 -14.58626,-36.77892 -32.592,-36.77892 z"
       id="path2817"
       style="fill:#ffffff;fill-opacity:1;stroke:#000000;stroke-width:1;stroke-miterlimit:4;stroke-opacity:1;stroke-dasharray:none" />
  </g>
</svg>
