<?xml version="1.0" encoding="UTF-8" standalone="no"?>
<!-- Created with Inkscape (http://www.inkscape.org/) -->

<svg
   xmlns:svg="http://www.w3.org/2000/svg"
   xmlns="http://www.w3.org/2000/svg"
   version="1.0"
   width="41.945606"
   height="27.568192"
   id="svg2">
  <defs
     id="defs4" />
  <g
     transform="translate(-223.03599,-1042.6313)"
     id="layer1" />
  <g
     transform="translate(-223.03599,-1042.6313)"
     id="layer2">
    <path
       d="m 261.42689,1044.6586 3.0547,4.8875 c -12.93432,0.8067 -27.90103,3.5623 -37.87824,-6.4148 -12.80606,32.6243 17.76337,28.1314 33.90713,22.9102"
       id="path4906"
       style="fill:none;stroke:#000000;stroke-width:1;stroke-miterlimit:4;stroke-opacity:1;stroke-dasharray:none" />
    <path
       d="m 226.59281,1043.1328 c -12.21176,31.1103 15.00986,28.4647 31.5625,23.625 -0.88544,-4.6757 -1.49859,-11.2881 -0.3125,-16.7188 -11.17141,0.8723 -22.94331,1.4003 -31.25,-6.9062 z"
       id="path4908"
       style="fill:#ffffff;fill-opacity:1;stroke:#000000;stroke-width:1;stroke-miterlimit:4;stroke-opacity:1;stroke-dasharray:none" />
    <path
       d="m 258.06673,1058.5719 c -14.96802,1.8328 -34.21261,-3.6656 -34.21261,-3.6656"
       id="path4910"
       style="fill:#ffffff;fill-opacity:1;stroke:#000000;stroke-width:1;stroke-miterlimit:4;stroke-opacity:1;stroke-dasharray:none" />
    <path
       d="m 229.65804,1052.768 c -1.52734,4.582 -1.83281,7.3313 -1.83281,7.3313"
       id="path4912"
       style="fill:#ffffff;fill-opacity:1;stroke:#000000;stroke-width:1;stroke-miterlimit:4;stroke-opacity:1;stroke-dasharray:none" />
  </g>
  <g
     transform="translate(-223.03599,-1042.6313)"
     id="layer3" />
  <g
     transform="translate(-223.03599,-1042.6313)"
     id="layer4" />
</svg>
