<?xml version="1.0" encoding="UTF-8" standalone="no"?>
<!-- Created with Inkscape (http://www.inkscape.org/) -->

<svg
   xmlns:svg="http://www.w3.org/2000/svg"
   xmlns="http://www.w3.org/2000/svg"
   version="1.0"
   width="43.128532"
   height="25.749441"
   id="svg2">
  <defs
     id="defs4" />
  <g
     transform="translate(-160.23793,-1042.6238)"
     id="layer1" />
  <g
     transform="translate(-160.23793,-1042.6238)"
     id="layer2">
    <path
       d="m 201.42689,1044.6586 1.43957,6.5026 c -21.18181,-9.5026 -39.588,-10.0369 -41.51227,-4.3959 -2.98444,6.9758 5.87698,23.6148 8.76329,20.7879 8.03439,-7.8689 21.64137,-9.092 30.393,-1.5117"
       id="path4944"
       style="fill:none;stroke:#000000;stroke-width:1;stroke-miterlimit:4;stroke-opacity:1;stroke-dasharray:none" />
    <path
       d="m 172.18656,1043.1328 c -6.00358,-0.13 -10.00188,1.157 -10.84375,3.625 -2.98444,6.9758 5.89494,23.6081 8.78125,20.7812 6.15955,-6.0327 15.58242,-8.1267 23.59375,-5.375 -0.0189,-3.6113 0.59131,-8.3904 2.96875,-13.5312 -9.50081,-3.5942 -18.13961,-5.3624 -24.5,-5.5 z"
       id="path4946"
       style="fill:#ffffff;fill-opacity:1;stroke:#000000;stroke-width:1;stroke-miterlimit:4;stroke-opacity:1;stroke-dasharray:none" />
    <path
       d="m 10.764294,190.63984 c -16.9744638,-5.79615 -21.528588,-0.82802 -21.528588,-0.82802 l -1.242034,3.31209 -4.140113,-6.62418 0.414011,4.96814 -6.21017,2.07005"
       transform="translate(183.49906,864.53901)"
       id="path4956"
       style="fill:#ffffff;fill-opacity:1;stroke:#000000;stroke-width:1;stroke-miterlimit:4;stroke-opacity:1;stroke-dasharray:none" />
  </g>
  <g
     transform="translate(-160.23793,-1042.6238)"
     id="layer3" />
  <g
     transform="translate(-160.23793,-1042.6238)"
     id="layer4" />
</svg>
