<?xml version="1.0" encoding="UTF-8" standalone="no"?>
<!-- Created with Inkscape (http://www.inkscape.org/) -->

<svg
   xmlns:svg="http://www.w3.org/2000/svg"
   xmlns="http://www.w3.org/2000/svg"
   version="1.0"
   width="43.128532"
   height="25.749472"
   id="svg2">
  <defs
     id="defs4" />
  <g
     transform="translate(-160.23793,-962.6238)"
     id="layer1" />
  <g
     transform="translate(-160.23793,-962.6238)"
     id="layer2">
    <path
       d="m 201.42689,964.6586 1.43957,6.5026 c -21.18181,-9.5026 -39.588,-10.0369 -41.51227,-4.3959 -2.98444,6.9758 5.87698,23.6148 8.76329,20.7879 8.03439,-7.8689 21.64137,-9.092 30.393,-1.5117"
       id="path4952"
       style="fill:none;stroke:#000000;stroke-width:1;stroke-miterlimit:4;stroke-opacity:1;stroke-dasharray:none" />
    <path
       d="m 172.18656,963.1328 c -6.00358,-0.13 -10.00188,1.157 -10.84375,3.625 -2.98444,6.9758 5.89494,23.6081 8.78125,20.7812 6.15955,-6.0327 15.58242,-8.1267 23.59375,-5.375 -0.0189,-3.6113 0.59131,-8.3904 2.96875,-13.5312 -9.50081,-3.5942 -18.13961,-5.3624 -24.5,-5.5 z"
       id="path4954"
       style="fill:#ef2929;fill-opacity:1;stroke:#000000;stroke-width:1;stroke-miterlimit:4;stroke-opacity:1;stroke-dasharray:none" />
    <path
       d="m -11.3125,98.59375 c -6.003584,-0.129931 -10.001882,1.157063 -10.84375,3.625 -0.565791,1.32247 -0.69553,2.9939 -0.53125,4.8125 3.260339,-1.86305 4.875,-2.09375 4.875,-2.09375 l 4.5625,5.375 1.25,-7.84375 2.46875,3.3125 c 0,0 8.69587546,0.39848 13.25,0.8125 C 8.2728745,107.00776 17.375,109.5 17.375,109.5 l 0,-3.71875 C 6.2316532,101.03702 -4.0281809,98.751399 -11.3125,98.59375 z"
       transform="translate(183.49906,864.53901)"
       id="path4958"
       style="fill:#ffffff;fill-opacity:1;stroke:#000000;stroke-width:1;stroke-miterlimit:4;stroke-opacity:1;stroke-dasharray:none" />
    <path
       d="m -9.65625,113.8125 -1.375,3.3125 c 0,0 -2.318983,0.43222 -5.78125,4.28125 1.355377,1.6247 2.628519,2.38608 3.4375,1.59375 7.7205466,-7.56152 20.5847639,-8.97021 29.34375,-2.34375 L 17,118.78125 c 0,0 0.51936,0.002 -2.90625,-2.28125 -3.425609,-2.28374 -14.21564474,-1.66 -18.65625,-1.40625 -4.4406053,0.25375 -3.5625,2.03125 -3.5625,2.03125 l -1.53125,-3.3125 z"
       transform="translate(183.49906,864.53901)"
       id="path4965"
       style="fill:#ffffff;fill-opacity:1;stroke:#000000;stroke-width:1;stroke-miterlimit:4;stroke-opacity:1;stroke-dasharray:none" />
  </g>
  <g
     transform="translate(-160.23793,-962.6238)"
     id="layer3" />
  <g
     transform="translate(-160.23793,-962.6238)"
     id="layer4" />
</svg>
