<?xml version="1.0" encoding="UTF-8" standalone="no"?>
<!-- Created with Inkscape (http://www.inkscape.org/) -->

<svg
   xmlns:dc="http://purl.org/dc/elements/1.1/"
   xmlns:cc="http://creativecommons.org/ns#"
   xmlns:rdf="http://www.w3.org/1999/02/22-rdf-syntax-ns#"
   xmlns:svg="http://www.w3.org/2000/svg"
   xmlns="http://www.w3.org/2000/svg"
   xmlns:sodipodi="http://sodipodi.sourceforge.net/DTD/sodipodi-0.dtd"
   xmlns:inkscape="http://www.inkscape.org/namespaces/inkscape"
   version="1.0"
   width="118.15697"
   height="111.28972"
   id="svg2"
   inkscape:version="0.47 r22583"
   sodipodi:docname="arcadio7.svg">
  <metadata
     id="metadata38">
    <rdf:RDF>
      <cc:Work
         rdf:about="">
        <dc:format>image/svg+xml</dc:format>
        <dc:type
           rdf:resource="http://purl.org/dc/dcmitype/StillImage" />
        <dc:title></dc:title>
      </cc:Work>
    </rdf:RDF>
  </metadata>
  <sodipodi:namedview
     pagecolor="#ffffff"
     bordercolor="#666666"
     borderopacity="1"
     objecttolerance="10"
     gridtolerance="10"
     guidetolerance="10"
     inkscape:pageopacity="0"
     inkscape:pageshadow="2"
     inkscape:window-width="1024"
     inkscape:window-height="551"
     id="namedview36"
     showgrid="false"
     inkscape:zoom="1.3104839"
     inkscape:cx="-1.1801939"
     inkscape:cy="13.162771"
     inkscape:window-x="0"
     inkscape:window-y="26"
     inkscape:window-maximized="1"
     inkscape:current-layer="svg2" />
  <defs
     id="defs4">
    <inkscape:path-effect
       effect="spiro"
       id="path-effect3684"
       is_visible="true" />
    <inkscape:perspective
       sodipodi:type="inkscape:persp3d"
       inkscape:vp_x="0 : 99.326523 : 1"
       inkscape:vp_y="0 : 1000 : 0"
       inkscape:vp_z="107.28794 : 99.326523 : 1"
       inkscape:persp3d-origin="53.64397 : 66.217682 : 1"
       id="perspective40" />
    <linearGradient
       x1="79.135063"
       y1="222.45238"
       x2="81.359901"
       y2="288.58099"
       id="linearGradient22173"
       gradientUnits="userSpaceOnUse" />
    <linearGradient
       x1="146.3828"
       y1="70.228607"
       x2="116.75287"
       y2="53.988689"
       id="linearGradient15268"
       gradientUnits="userSpaceOnUse"
       gradientTransform="scale(1.034178,0.966951)" />
    <linearGradient
       x1="162.97719"
       y1="23.931684"
       x2="131.34537"
       y2="10.142395"
       id="linearGradient15267"
       gradientUnits="userSpaceOnUse"
       gradientTransform="scale(1.035723,0.965509)" />
    <linearGradient
       x1="215.19115"
       y1="116.1558"
       x2="148.53513"
       y2="78.029449"
       id="linearGradient15266"
       gradientUnits="userSpaceOnUse"
       gradientTransform="scale(1.026523,0.974162)" />
    <linearGradient
       x1="230.18588"
       y1="64.586258"
       x2="171.49763"
       y2="31.573004"
       id="linearGradient15265"
       gradientUnits="userSpaceOnUse"
       gradientTransform="scale(1.032621,0.96841)" />
    <radialGradient
       cx="24.825565"
       cy="176.56438"
       r="42.859913"
       fx="40.974991"
       fy="162.11137"
       id="radialGradient15264"
       gradientUnits="userSpaceOnUse" />
    <inkscape:perspective
       id="perspective3524"
       inkscape:persp3d-origin="0.5 : 0.33333333 : 1"
       inkscape:vp_z="1 : 0.5 : 1"
       inkscape:vp_y="0 : 1000 : 0"
       inkscape:vp_x="0 : 0.5 : 1"
       sodipodi:type="inkscape:persp3d" />
    <clipPath
       clipPathUnits="userSpaceOnUse"
       id="clipPath3715">
      <path
         style="fill:#ffffff;fill-opacity:1;fill-rule:nonzero;stroke:#000000;stroke-width:0.56952214;stroke-linecap:round;stroke-linejoin:round;stroke-miterlimit:4;stroke-opacity:1;stroke-dasharray:none;stroke-dashoffset:0.2;display:inline"
         d="m 185.11688,220.33022 c 3.59845,-7.71094 8.88596,-0.36717 8.88596,-0.36717 -4.11251,6.38907 -8.88596,0.44064 -8.88596,0.36717 z"
         id="path3717" />
    </clipPath>
    <inkscape:perspective
       id="perspective3554"
       inkscape:persp3d-origin="0.5 : 0.33333333 : 1"
       inkscape:vp_z="1 : 0.5 : 1"
       inkscape:vp_y="0 : 1000 : 0"
       inkscape:vp_x="0 : 0.5 : 1"
       sodipodi:type="inkscape:persp3d" />
    <inkscape:perspective
       id="perspective2983"
       inkscape:persp3d-origin="0.5 : 0.33333333 : 1"
       inkscape:vp_z="1 : 0.5 : 1"
       inkscape:vp_y="0 : 1000 : 0"
       inkscape:vp_x="0 : 0.5 : 1"
       sodipodi:type="inkscape:persp3d" />
    <filter
       color-interpolation-filters="sRGB"
       id="filter4572"
       inkscape:label="Drop shadow"
       width="1.5"
       height="1.5"
       x="-0.25"
       y="-0.25">
      <feGaussianBlur
         id="feGaussianBlur4574"
         in="SourceAlpha"
         stdDeviation="0,000000"
         result="blur" />
      <feColorMatrix
         id="feColorMatrix4576"
         result="bluralpha"
         type="matrix"
         values="-1 0 0 0 1 0 -1 0 0 1 0 0 -1 0 1 0 0 0 0,500000 0 " />
      <feOffset
         id="feOffset4578"
         in="bluralpha"
         dx="4,000000"
         dy="4,000000"
         result="offsetBlur" />
      <feMerge
         id="feMerge4580"
         result="fbSourceGraphic">
        <feMergeNode
           id="feMergeNode4582"
           in="offsetBlur" />
        <feMergeNode
           id="feMergeNode4584"
           in="SourceGraphic" />
      </feMerge>
      <feColorMatrix
         result="fbSourceGraphicAlpha"
         in="fbSourceGraphic"
         values="0 0 0 -1 0 0 0 0 -1 0 0 0 0 -1 0 0 0 0 1 0"
         id="feColorMatrix4586" />
      <feGaussianBlur
         id="feGaussianBlur4588"
         in="fbSourceGraphicAlpha"
         stdDeviation="0,000000"
         result="blur" />
      <feColorMatrix
         id="feColorMatrix4590"
         result="bluralpha"
         type="matrix"
         values="-1 0 0 0 1 0 -1 0 0 1 0 0 -1 0 1 0 0 0 0,500000 0 " />
      <feOffset
         id="feOffset4592"
         in="bluralpha"
         dx="4,000000"
         dy="4,000000"
         result="offsetBlur" />
      <feMerge
         id="feMerge4594">
        <feMergeNode
           id="feMergeNode4596"
           in="offsetBlur" />
        <feMergeNode
           id="feMergeNode4598"
           in="fbSourceGraphic" />
      </feMerge>
    </filter>
    <inkscape:perspective
       id="perspective3146"
       inkscape:persp3d-origin="0.5 : 0.33333333 : 1"
       inkscape:vp_z="1 : 0.5 : 1"
       inkscape:vp_y="0 : 1000 : 0"
       inkscape:vp_x="0 : 0.5 : 1"
       sodipodi:type="inkscape:persp3d" />
    <inkscape:perspective
       id="perspective3216"
       inkscape:persp3d-origin="0.5 : 0.33333333 : 1"
       inkscape:vp_z="1 : 0.5 : 1"
       inkscape:vp_y="0 : 1000 : 0"
       inkscape:vp_x="0 : 0.5 : 1"
       sodipodi:type="inkscape:persp3d" />
    <inkscape:perspective
       id="perspective3304"
       inkscape:persp3d-origin="0.5 : 0.33333333 : 1"
       inkscape:vp_z="1 : 0.5 : 1"
       inkscape:vp_y="0 : 1000 : 0"
       inkscape:vp_x="0 : 0.5 : 1"
       sodipodi:type="inkscape:persp3d" />
    <inkscape:perspective
       id="perspective4213"
       inkscape:persp3d-origin="0.5 : 0.33333333 : 1"
       inkscape:vp_z="1 : 0.5 : 1"
       inkscape:vp_y="0 : 1000 : 0"
       inkscape:vp_x="0 : 0.5 : 1"
       sodipodi:type="inkscape:persp3d" />
    <inkscape:perspective
       id="perspective4331"
       inkscape:persp3d-origin="0.5 : 0.33333333 : 1"
       inkscape:vp_z="1 : 0.5 : 1"
       inkscape:vp_y="0 : 1000 : 0"
       inkscape:vp_x="0 : 0.5 : 1"
       sodipodi:type="inkscape:persp3d" />
  </defs>
  <rect
     rx="7.4074073"
     style="fill:#b3b3b3;stroke:#000000;stroke-opacity:1"
     id="rect2922"
     width="40.476189"
     height="17.460318"
     x="18.487391"
     y="93.103142"
     ry="7.4074073"
     inkscape:export-filename="/home/zaryel/nosotros.png"
     inkscape:export-xdpi="90"
     inkscape:export-ydpi="90" />
  <rect
     rx="7.4074073"
     style="fill:#b3b3b3;stroke:#000000;stroke-opacity:1"
     id="rect2922-8"
     width="40.476189"
     height="17.460318"
     x="66.308647"
     y="93.329399"
     ry="7.4074073"
     inkscape:export-filename="/home/zaryel/nosotros.png"
     inkscape:export-xdpi="90"
     inkscape:export-ydpi="90" />
  <path
     style="fill:#333333;stroke:#000000;stroke-width:0.87785947px;stroke-linecap:butt;stroke-linejoin:miter;stroke-opacity:1"
     d="m 62.640356,75.55128 -49.70039,0.12599 c 0,0 -4.8720299,20.63153 1.00695,24.87863 3.54166,2.55858 38.96216,5.32754 48.69344,5.28498 9.73128,0.0425 46.681674,-1.52257 49.051084,-5.28498 4.09079,-6.49579 0.64932,-24.87863 0.64932,-24.87863 L 62.640356,75.55128 z"
     id="path2912-3"
     sodipodi:nodetypes="ccscscc"
     inkscape:export-filename="/home/zaryel/nosotros.png"
     inkscape:export-xdpi="90"
     inkscape:export-ydpi="90" />
  <path
     style="fill:#000000;stroke:#000000;stroke-width:1px;stroke-linecap:butt;stroke-linejoin:miter;stroke-opacity:1"
     d="m 32.840406,6.0869495 c 0,0 -8.61423,2.62173 -11.23595,13.4831505 -2.62173,10.86142 20.59925,-5.61798 20.59925,-5.61798 l -9.3633,-7.8651705 0,0 z"
     id="path3971"
     inkscape:export-filename="/home/zaryel/nosotros.png"
     inkscape:export-xdpi="90"
     inkscape:export-ydpi="90" />
  <path
     style="fill:#ffb380;stroke:#000000;stroke-width:1px;stroke-linecap:butt;stroke-linejoin:miter;stroke-opacity:1"
     d="m 60.218686,8.7685995 c -15.7609,0.10898 -31.80153,3.0238005 -41.84375,10.5312505 -18.53447986,18.53448 -10.3437499,56.875 -10.3437499,56.875 0,0 7.4613699,7.73298 40.5937499,8.375 3.84659,0.0745 7.69026,0.15245 11.5,0.21875 0.0621,10e-4 0.12543,-0.001 0.1875,0 3.80974,-0.0663 7.65341,-0.14421 11.5,-0.21875 33.132384,-0.64202 40.593754,-8.375 40.593754,-8.375 0,0 8.19073,-38.34052 -10.34375,-56.875 C 92.020266,11.7924 75.979586,8.8775795 60.218686,8.7685995 z"
     id="path2910-7"
     inkscape:export-filename="/home/zaryel/nosotros.png"
     inkscape:export-xdpi="90"
     inkscape:export-ydpi="90" />
  <path
     style="fill:#ffb380;stroke:#000000;stroke-width:0.99850225px;stroke-linecap:butt;stroke-linejoin:miter;stroke-opacity:1"
     d="m 54.187606,57.7943 c -2.39926,13.10715 -10.27688,20.00429 -15.4191,22.77634 0,0 -23.78172,8.91475 -33.3787899,-6.32608 -9.59705,-15.24084 -2.10955,-34.81843 -2.10955,-34.81843 3.747,-9.78973 11.0848599,-17.90364 16.3994399,-21.07022"
     id="path2916"
     sodipodi:nodetypes="cscss"
     inkscape:export-filename="/home/zaryel/nosotros.png"
     inkscape:export-xdpi="90"
     inkscape:export-ydpi="90" />
  <path
     sodipodi:type="arc"
     style="fill:#ffb380;stroke:#000000;stroke-opacity:1"
     id="path3213"
     sodipodi:cx="343.88113"
     sodipodi:cy="596.24329"
     sodipodi:rx="8.9160843"
     sodipodi:ry="5.4195805"
     d="m 352.79722,596.24329 a 8.9160843,5.4195805 0 1 1 -17.83217,0 8.9160843,5.4195805 0 1 1 17.83217,0 z"
     transform="matrix(0.8904008,-0.04314938,0.07048027,0.5451206,-266.58845,-211.64032)" />
  <path
     style="fill:#333333;stroke:#000000;stroke-width:0.69886839;stroke-opacity:1"
     d="m 71.829679,88.046176 c 0,0 0.89513,-0.552782 3.912369,-0.948616 l 8.235023,-0.399074 4.664373,0.532982 c 0,0 2.356328,7.43149 2.198747,8.639949 -0.07735,1.829002 -0.744784,2.605545 -0.744784,2.605545 l -16.811764,0.814709 c 0,0 -0.955528,-0.66417 -1.59841,-2.602364 -0.291712,-1.042585 0.144446,-8.643131 0.144446,-8.643131 z"
     id="rect3211"
     sodipodi:nodetypes="ccccccccc" />
  <path
     sodipodi:type="arc"
     style="fill:#000000;stroke:#000000;stroke-opacity:1"
     id="path3073"
     sodipodi:cx="312.73407"
     sodipodi:cy="525.02136"
     sodipodi:rx="3.3707864"
     sodipodi:ry="3.3707864"
     d="m 316.10486,525.02136 a 3.3707864,3.3707864 0 1 1 -6.74158,0 3.3707864,3.3707864 0 1 1 6.74158,0 z"
     transform="matrix(0.5162071,0,0,0.5162071,-102.61011,-235.71928)"
     inkscape:export-filename="/home/zaryel/nosotros.png"
     inkscape:export-xdpi="90"
     inkscape:export-ydpi="90" />
  <path
     style="fill:#000000;stroke:#000000;stroke-width:1.04318058px;stroke-linecap:butt;stroke-linejoin:miter;stroke-opacity:1"
     d="m 33.236526,6.1967795 c 0,0 8.48571,6.8052105 17.21966,13.8646505 3.70697,2.99625 4.20399,2.75757 8.68713,4.08911 5.1894,1.54131 15.56299,2.3176 16.76801,13.0378 2.24604,19.9814 7.48681,19.16584 7.48681,19.16584 0,0 2.99472,4.07784 2.24604,-14.68022 -0.74868,-18.75804 4.49208,-10.60237 4.49208,-10.60237 0,0 11.604554,9.78681 12.353234,22.83589 0.74869,13.04908 5.61511,19.16583 5.61511,19.16583 0,0 5.98686,6.7001 5.99117,-6.48252 9.6e-4,-2.93672 2.24431,6.89031 2.24431,6.89031 0,0 3.74341,-25.2826 -1.49736,-48.11848 C 109.60196,2.5267395 71.044906,1.3033795 71.044906,1.3033795 c 0,0 -22.46042,-3.67006 -37.80838,4.8934 l 0,0 z"
     id="path3967"
     sodipodi:nodetypes="cssscscscscscc"
     inkscape:export-filename="/home/zaryel/nosotros.png"
     inkscape:export-xdpi="90"
     inkscape:export-ydpi="90" />
  <path
     style="fill:#ffb380;stroke:#000000;stroke-width:0.84119689;stroke-opacity:1"
     d="m 87.85694,36.13653 c 1.84486,-2.4957 4.84351,-4.11915 8.22918,-4.11915 5.6078,0 10.15383,4.45388 10.15383,9.94802 0,5.49414 -4.54603,9.94802 -10.15383,9.94802 -3.38567,0 -6.38432,-1.62345 -8.22917,-4.11914"
     id="path2918"
     sodipodi:nodetypes="cscsc" />
  <path
     style="fill:#ffb380;stroke:#000000;stroke-width:0.52776885;stroke-opacity:1"
     d="m 99.24972,46.91407 c -3.21564,1.31025 -6.89308,-0.24875 -8.21377,-3.48214 -0.72563,-1.97878 -0.53425,-3.73942 0.27601,-5.20665"
     id="path2918-8"
     sodipodi:nodetypes="ccs" />
  <path
     style="fill:#ffb380;stroke:#000000;stroke-width:0.52776885;stroke-opacity:1"
     d="m 91.36394,43.91073 c 0.84991,-2.01699 2.63546,-3.3573 4.64581,-3.73363"
     id="path2918-8-6"
     sodipodi:nodetypes="cs" />
  <path
     style="fill:#000000;stroke:#000000;stroke-width:0.84215516px;stroke-linecap:butt;stroke-linejoin:miter;stroke-opacity:1"
     d="m 33.138196,6.0080295 c 0,0 -2.64851,10.2546905 10.59407,16.5652605 13.24256,6.31057 -6.05375,-7.88822 2.27015,-11.56939 8.3239,-3.6811705 -11.35078,-4.9958705 -12.86422,-4.9958705 z"
     id="path3969"
     inkscape:export-filename="/home/zaryel/nosotros.png"
     inkscape:export-xdpi="90"
     inkscape:export-ydpi="90" />
</svg>
