<?xml version="1.0" encoding="UTF-8" standalone="no"?>
<!-- Created with Inkscape (http://www.inkscape.org/) -->

<svg
   xmlns:dc="http://purl.org/dc/elements/1.1/"
   xmlns:cc="http://creativecommons.org/ns#"
   xmlns:rdf="http://www.w3.org/1999/02/22-rdf-syntax-ns#"
   xmlns:svg="http://www.w3.org/2000/svg"
   xmlns="http://www.w3.org/2000/svg"
   xmlns:sodipodi="http://sodipodi.sourceforge.net/DTD/sodipodi-0.dtd"
   xmlns:inkscape="http://www.inkscape.org/namespaces/inkscape"
   version="1.0"
   width="134.19467"
   height="94.00415"
   id="svg2"
   inkscape:version="0.47 r22583"
   sodipodi:docname="arcadio1">
  <metadata
     id="metadata38">
    <rdf:RDF>
      <cc:Work
         rdf:about="">
        <dc:format>image/svg+xml</dc:format>
        <dc:type
           rdf:resource="http://purl.org/dc/dcmitype/StillImage" />
        <dc:title></dc:title>
      </cc:Work>
    </rdf:RDF>
  </metadata>
  <sodipodi:namedview
     pagecolor="#ffffff"
     bordercolor="#666666"
     borderopacity="1"
     objecttolerance="10"
     gridtolerance="10"
     guidetolerance="10"
     inkscape:pageopacity="0"
     inkscape:pageshadow="2"
     inkscape:window-width="1024"
     inkscape:window-height="551"
     id="namedview36"
     showgrid="false"
     inkscape:zoom="1.8798417"
     inkscape:cx="62.7577"
     inkscape:cy="28.797774"
     inkscape:window-x="0"
     inkscape:window-y="26"
     inkscape:window-maximized="1"
     inkscape:current-layer="svg2" />
  <defs
     id="defs4">
    <inkscape:path-effect
       effect="spiro"
       id="path-effect3684"
       is_visible="true" />
    <inkscape:perspective
       sodipodi:type="inkscape:persp3d"
       inkscape:vp_x="0 : 99.326523 : 1"
       inkscape:vp_y="0 : 1000 : 0"
       inkscape:vp_z="107.28794 : 99.326523 : 1"
       inkscape:persp3d-origin="53.64397 : 66.217682 : 1"
       id="perspective40" />
    <linearGradient
       x1="79.135063"
       y1="222.45238"
       x2="81.359901"
       y2="288.58099"
       id="linearGradient22173"
       gradientUnits="userSpaceOnUse" />
    <linearGradient
       x1="146.3828"
       y1="70.228607"
       x2="116.75287"
       y2="53.988689"
       id="linearGradient15268"
       gradientUnits="userSpaceOnUse"
       gradientTransform="scale(1.034178,0.966951)" />
    <linearGradient
       x1="162.97719"
       y1="23.931684"
       x2="131.34537"
       y2="10.142395"
       id="linearGradient15267"
       gradientUnits="userSpaceOnUse"
       gradientTransform="scale(1.035723,0.965509)" />
    <linearGradient
       x1="215.19115"
       y1="116.1558"
       x2="148.53513"
       y2="78.029449"
       id="linearGradient15266"
       gradientUnits="userSpaceOnUse"
       gradientTransform="scale(1.026523,0.974162)" />
    <linearGradient
       x1="230.18588"
       y1="64.586258"
       x2="171.49763"
       y2="31.573004"
       id="linearGradient15265"
       gradientUnits="userSpaceOnUse"
       gradientTransform="scale(1.032621,0.96841)" />
    <radialGradient
       cx="24.825565"
       cy="176.56438"
       r="42.859913"
       fx="40.974991"
       fy="162.11137"
       id="radialGradient15264"
       gradientUnits="userSpaceOnUse" />
    <inkscape:perspective
       id="perspective3524"
       inkscape:persp3d-origin="0.5 : 0.33333333 : 1"
       inkscape:vp_z="1 : 0.5 : 1"
       inkscape:vp_y="0 : 1000 : 0"
       inkscape:vp_x="0 : 0.5 : 1"
       sodipodi:type="inkscape:persp3d" />
    <clipPath
       clipPathUnits="userSpaceOnUse"
       id="clipPath3715">
      <path
         style="fill:#ffffff;fill-opacity:1;fill-rule:nonzero;stroke:#000000;stroke-width:0.56952214;stroke-linecap:round;stroke-linejoin:round;stroke-miterlimit:4;stroke-opacity:1;stroke-dasharray:none;stroke-dashoffset:0.2;display:inline"
         d="m 185.11688,220.33022 c 3.59845,-7.71094 8.88596,-0.36717 8.88596,-0.36717 -4.11251,6.38907 -8.88596,0.44064 -8.88596,0.36717 z"
         id="path3717" />
    </clipPath>
    <inkscape:perspective
       id="perspective3554"
       inkscape:persp3d-origin="0.5 : 0.33333333 : 1"
       inkscape:vp_z="1 : 0.5 : 1"
       inkscape:vp_y="0 : 1000 : 0"
       inkscape:vp_x="0 : 0.5 : 1"
       sodipodi:type="inkscape:persp3d" />
    <inkscape:perspective
       id="perspective2983"
       inkscape:persp3d-origin="0.5 : 0.33333333 : 1"
       inkscape:vp_z="1 : 0.5 : 1"
       inkscape:vp_y="0 : 1000 : 0"
       inkscape:vp_x="0 : 0.5 : 1"
       sodipodi:type="inkscape:persp3d" />
    <filter
       color-interpolation-filters="sRGB"
       id="filter4572"
       inkscape:label="Drop shadow"
       width="1.5"
       height="1.5"
       x="-0.25"
       y="-0.25">
      <feGaussianBlur
         id="feGaussianBlur4574"
         in="SourceAlpha"
         stdDeviation="0,000000"
         result="blur" />
      <feColorMatrix
         id="feColorMatrix4576"
         result="bluralpha"
         type="matrix"
         values="-1 0 0 0 1 0 -1 0 0 1 0 0 -1 0 1 0 0 0 0,500000 0 " />
      <feOffset
         id="feOffset4578"
         in="bluralpha"
         dx="4,000000"
         dy="4,000000"
         result="offsetBlur" />
      <feMerge
         id="feMerge4580"
         result="fbSourceGraphic">
        <feMergeNode
           id="feMergeNode4582"
           in="offsetBlur" />
        <feMergeNode
           id="feMergeNode4584"
           in="SourceGraphic" />
      </feMerge>
      <feColorMatrix
         result="fbSourceGraphicAlpha"
         in="fbSourceGraphic"
         values="0 0 0 -1 0 0 0 0 -1 0 0 0 0 -1 0 0 0 0 1 0"
         id="feColorMatrix4586" />
      <feGaussianBlur
         id="feGaussianBlur4588"
         in="fbSourceGraphicAlpha"
         stdDeviation="0,000000"
         result="blur" />
      <feColorMatrix
         id="feColorMatrix4590"
         result="bluralpha"
         type="matrix"
         values="-1 0 0 0 1 0 -1 0 0 1 0 0 -1 0 1 0 0 0 0,500000 0 " />
      <feOffset
         id="feOffset4592"
         in="bluralpha"
         dx="4,000000"
         dy="4,000000"
         result="offsetBlur" />
      <feMerge
         id="feMerge4594">
        <feMergeNode
           id="feMergeNode4596"
           in="offsetBlur" />
        <feMergeNode
           id="feMergeNode4598"
           in="fbSourceGraphic" />
      </feMerge>
    </filter>
    <inkscape:perspective
       id="perspective3146"
       inkscape:persp3d-origin="0.5 : 0.33333333 : 1"
       inkscape:vp_z="1 : 0.5 : 1"
       inkscape:vp_y="0 : 1000 : 0"
       inkscape:vp_x="0 : 0.5 : 1"
       sodipodi:type="inkscape:persp3d" />
  </defs>
  <g
     transform="translate(-833.09203,-995.85938)"
     id="layer1" />
  <g
     transform="translate(-833.09203,-995.85938)"
     id="layer3" />
  <g
     transform="translate(-833.09203,-995.85938)"
     id="layer4" />
  <rect
     rx="7.4074073"
     style="fill:#b3b3b3;stroke:#000000;stroke-width:0.89537179;stroke-opacity:1"
     id="rect2922-80-7-9-2"
     width="36.241234"
     height="15.633478"
     x="27.806328"
     y="75.958534"
     ry="7.4074073" />
  <rect
     rx="7.4074073"
     style="fill:#b3b3b3;stroke:#000000;stroke-width:0.89537179;stroke-opacity:1"
     id="rect2922-8-1-5-2-5"
     width="36.241234"
     height="15.633478"
     x="70.6241"
     y="76.161102"
     ry="7.4074073" />
  <path
     style="fill:#ff0000;stroke:#000000;stroke-width:0.87800002;stroke-linecap:butt;stroke-linejoin:miter;stroke-miterlimit:4;stroke-opacity:1;stroke-dasharray:none;marker-start:none;filter:url(#filter4572)"
     d="m 58.254252,83.003365 -49.7003899,0.12599 c 0,0 -4.87203,20.631525 1.00695,24.878625 3.5416599,2.55858 38.9621599,5.32754 48.6934399,5.28498 9.731279,0.0425 46.681698,-1.52257 49.051108,-5.28498 4.09079,-6.49579 0.64932,-24.878625 0.64932,-24.878625 l -49.700428,-0.12599 z"
     id="path2912-3-4-9-8-3"
     sodipodi:nodetypes="ccscscc"
     transform="matrix(0.8953718,0,0,0.8953718,15.180447,-14.075857)" />
  <path
     style="fill:#ffb380;stroke:#000000;stroke-width:0.89537179px;stroke-linecap:butt;stroke-linejoin:miter;stroke-opacity:1"
     d="M 65.171365,0.4476859 C 51.059501,0.5452659 36.697172,3.1551119 27.705653,9.8770719 11.110402,26.472322 18.444151,60.801341 18.444151,60.801341 c 0,0 6.680699,6.923892 36.346498,7.49874 3.444129,0.0667 6.885643,0.1365 10.296774,0.195862 0.0556,8.96e-4 0.112309,-8.96e-4 0.167886,0 3.411132,-0.05937 6.852645,-0.129121 10.296773,-0.195862 29.665828,-0.574848 36.346528,-7.49874 36.346528,-7.49874 0,0 7.33374,-34.329019 -9.26151,-50.9242691 -8.991488,-6.72196 -23.353869,-9.331806 -37.465735,-9.429386 z"
     id="path2910-7-7-6-1-73" />
  <path
     style="fill:#ffb380;stroke:#000000;stroke-width:0.89403075px;stroke-linecap:butt;stroke-linejoin:miter;stroke-opacity:1"
     d="m 59.771307,44.343917 c -2.148229,11.735771 -9.201628,17.911276 -13.805829,20.393292 0,0 -21.293481,7.982013 -29.886425,-5.664196 C 7.486125,45.426797 14.190221,27.897574 14.190221,27.897574 17.545179,19.132126 24.115293,11.86716 28.873818,9.0318939"
     id="path2916-7-6-2-5"
     sodipodi:nodetypes="cscss" />
  <g
     transform="matrix(0.79723975,-0.03863474,0.06310605,0.48808562,-228.86048,-195.45771)"
     id="g3220-3-2-4-5">
    <path
       transform="translate(2,-2.7972028)"
       d="m 352.79722,596.24329 c 0,2.99315 -3.99187,5.41958 -8.91609,5.41958 -4.92421,0 -8.91608,-2.42643 -8.91608,-5.41958 0,-2.99316 3.99187,-5.41958 8.91608,-5.41958 4.92422,0 8.91609,2.42642 8.91609,5.41958 z"
       sodipodi:ry="5.4195805"
       sodipodi:rx="8.9160843"
       sodipodi:cy="596.24329"
       sodipodi:cx="343.88113"
       id="path3213-9-9-7-1"
       style="fill:#ffb380;stroke:#000000;stroke-opacity:1"
       sodipodi:type="arc" />
    <path
       sodipodi:nodetypes="ccccccccc"
       id="rect3211-5-9-8-8"
       d="m 336.46155,573.43915 c 0,0 1.07882,-0.92866 4.50347,-1.38372 l 9.24867,0 5.12898,1.38372 c 0,0 1.5575,13.75603 1.20724,15.94517 -0.35026,3.3275 -1.20724,4.6842 -1.20724,4.6842 l -18.88112,0 c 0,0 -0.97062,-1.29522 -1.40845,-4.88541 -0.17513,-1.92644 1.40845,-15.74396 1.40845,-15.74396 z"
       style="fill:#ff0000;stroke:#000000;stroke-opacity:1" />
  </g>
  <g
     transform="matrix(0.8953718,0,0,0.8953718,-230.30131,-447.5625)"
     id="g3324-5-4-3-76">
    <path
       sodipodi:nodetypes="cscsc"
       id="path2918-87-1-7-8"
       d="m 357.63825,527.73011 c 1.84486,-2.4957 4.84351,-4.11915 8.22918,-4.11915 5.6078,0 10.15383,4.45388 10.15383,9.94802 0,5.49414 -4.54603,9.94802 -10.15383,9.94802 -3.38567,0 -6.38432,-1.62345 -8.22917,-4.11914"
       style="fill:#ffb380;stroke:#000000;stroke-width:0.84119689;stroke-opacity:1" />
    <path
       sodipodi:nodetypes="ccs"
       id="path2918-8-2-6-7-2"
       d="m 369.03103,538.50765 c -3.21564,1.31025 -6.89308,-0.24875 -8.21377,-3.48214 -0.72563,-1.97878 -0.53425,-3.73942 0.27601,-5.20665"
       style="fill:#ffb380;stroke:#000000;stroke-width:0.52776885;stroke-opacity:1" />
    <path
       sodipodi:nodetypes="cs"
       id="path2918-8-6-8-7-2-4"
       d="m 361.14525,535.50431 c 0.84991,-2.01699 2.63546,-3.3573 4.64581,-3.73363"
       style="fill:#ffb380;stroke:#000000;stroke-width:0.52776885;stroke-opacity:1" />
  </g>
  <path
     style="fill:#ffffff;fill-opacity:1;fill-rule:nonzero;stroke:#000000;stroke-width:1.18941176;stroke-miterlimit:4;stroke-opacity:1;stroke-dasharray:none;marker:none;visibility:visible;display:inline;overflow:visible;enable-background:accumulate"
     d="m 60.76237,18.562344 c -3.90531,0 -7.06213,3.15682 -7.06213,7.06213 0,0.10957 -0.005,0.22618 0,0.33452 0.5178,-0.0846 1.07052,-0.14867 1.67261,-0.14867 l 10.40735,0 c 0.74152,0 1.40195,0.0979 2.00714,0.22301 0.007,-0.13267 0.0372,-0.27434 0.0372,-0.40886 0,-3.90531 -3.15682,-7.06213 -7.06214,-7.06213 l -3e-5,0 z"
     id="path3198" />
  <path
     sodipodi:type="arc"
     style="fill:#2b2200;fill-opacity:1;fill-rule:nonzero;stroke:#000000;stroke-width:1;stroke-linecap:round;stroke-linejoin:miter;stroke-miterlimit:4;stroke-opacity:1;stroke-dasharray:none;stroke-dashoffset:0;marker:none;visibility:visible;display:inline;overflow:visible;enable-background:accumulate"
     id="path3975"
     sodipodi:cx="188.41463"
     sodipodi:cy="711.20367"
     sodipodi:rx="2.4390244"
     sodipodi:ry="2.4390244"
     d="m 190.85365,711.20367 a 2.4390244,2.4390244 0 1 1 -4.87805,0 2.4390244,2.4390244 0 1 1 4.87805,0 z"
     transform="matrix(1.1037344,0,0,1.1037344,-148.66889,-763.19848)" />
  <path
     style="fill:none;stroke:#000000;stroke-width:1px;stroke-linecap:butt;stroke-linejoin:miter;stroke-opacity:1"
     d="m 53.12185,15.312794 c 1.37558,-0.54258 3.38538,-1.051 6.08408,-1.254 8.13271,-0.61176 8.95903,3.41549 8.95903,3.20016"
     id="path4063-1"
     sodipodi:nodetypes="css" />
</svg>
