<?xml version="1.0" encoding="UTF-8" standalone="no"?>
<!-- Created with Inkscape (http://www.inkscape.org/) -->

<svg
   xmlns:dc="http://purl.org/dc/elements/1.1/"
   xmlns:cc="http://creativecommons.org/ns#"
   xmlns:rdf="http://www.w3.org/1999/02/22-rdf-syntax-ns#"
   xmlns:svg="http://www.w3.org/2000/svg"
   xmlns="http://www.w3.org/2000/svg"
   xmlns:sodipodi="http://sodipodi.sourceforge.net/DTD/sodipodi-0.dtd"
   xmlns:inkscape="http://www.inkscape.org/namespaces/inkscape"
   version="1.0"
   width="114.70914"
   height="123.39337"
   id="svg2"
   inkscape:version="0.47 r22583"
   sodipodi:docname="arcadio3.svg">
  <metadata
     id="metadata38">
    <rdf:RDF>
      <cc:Work
         rdf:about="">
        <dc:format>image/svg+xml</dc:format>
        <dc:type
           rdf:resource="http://purl.org/dc/dcmitype/StillImage" />
        <dc:title></dc:title>
      </cc:Work>
    </rdf:RDF>
  </metadata>
  <sodipodi:namedview
     pagecolor="#ffffff"
     bordercolor="#666666"
     borderopacity="1"
     objecttolerance="10"
     gridtolerance="10"
     guidetolerance="10"
     inkscape:pageopacity="0"
     inkscape:pageshadow="2"
     inkscape:window-width="1024"
     inkscape:window-height="551"
     id="namedview36"
     showgrid="false"
     inkscape:zoom="0.93992083"
     inkscape:cx="-95.413678"
     inkscape:cy="30.914975"
     inkscape:window-x="0"
     inkscape:window-y="26"
     inkscape:window-maximized="1"
     inkscape:current-layer="svg2" />
  <defs
     id="defs4">
    <inkscape:path-effect
       effect="spiro"
       id="path-effect3684"
       is_visible="true" />
    <inkscape:perspective
       sodipodi:type="inkscape:persp3d"
       inkscape:vp_x="0 : 99.326523 : 1"
       inkscape:vp_y="0 : 1000 : 0"
       inkscape:vp_z="107.28794 : 99.326523 : 1"
       inkscape:persp3d-origin="53.64397 : 66.217682 : 1"
       id="perspective40" />
    <linearGradient
       x1="79.135063"
       y1="222.45238"
       x2="81.359901"
       y2="288.58099"
       id="linearGradient22173"
       gradientUnits="userSpaceOnUse" />
    <linearGradient
       x1="146.3828"
       y1="70.228607"
       x2="116.75287"
       y2="53.988689"
       id="linearGradient15268"
       gradientUnits="userSpaceOnUse"
       gradientTransform="scale(1.034178,0.966951)" />
    <linearGradient
       x1="162.97719"
       y1="23.931684"
       x2="131.34537"
       y2="10.142395"
       id="linearGradient15267"
       gradientUnits="userSpaceOnUse"
       gradientTransform="scale(1.035723,0.965509)" />
    <linearGradient
       x1="215.19115"
       y1="116.1558"
       x2="148.53513"
       y2="78.029449"
       id="linearGradient15266"
       gradientUnits="userSpaceOnUse"
       gradientTransform="scale(1.026523,0.974162)" />
    <linearGradient
       x1="230.18588"
       y1="64.586258"
       x2="171.49763"
       y2="31.573004"
       id="linearGradient15265"
       gradientUnits="userSpaceOnUse"
       gradientTransform="scale(1.032621,0.96841)" />
    <radialGradient
       cx="24.825565"
       cy="176.56438"
       r="42.859913"
       fx="40.974991"
       fy="162.11137"
       id="radialGradient15264"
       gradientUnits="userSpaceOnUse" />
    <inkscape:perspective
       id="perspective3524"
       inkscape:persp3d-origin="0.5 : 0.33333333 : 1"
       inkscape:vp_z="1 : 0.5 : 1"
       inkscape:vp_y="0 : 1000 : 0"
       inkscape:vp_x="0 : 0.5 : 1"
       sodipodi:type="inkscape:persp3d" />
    <clipPath
       clipPathUnits="userSpaceOnUse"
       id="clipPath3715">
      <path
         style="fill:#ffffff;fill-opacity:1;fill-rule:nonzero;stroke:#000000;stroke-width:0.56952214;stroke-linecap:round;stroke-linejoin:round;stroke-miterlimit:4;stroke-opacity:1;stroke-dasharray:none;stroke-dashoffset:0.2;display:inline"
         d="m 185.11688,220.33022 c 3.59845,-7.71094 8.88596,-0.36717 8.88596,-0.36717 -4.11251,6.38907 -8.88596,0.44064 -8.88596,0.36717 z"
         id="path3717" />
    </clipPath>
    <inkscape:perspective
       id="perspective3554"
       inkscape:persp3d-origin="0.5 : 0.33333333 : 1"
       inkscape:vp_z="1 : 0.5 : 1"
       inkscape:vp_y="0 : 1000 : 0"
       inkscape:vp_x="0 : 0.5 : 1"
       sodipodi:type="inkscape:persp3d" />
    <inkscape:perspective
       id="perspective2983"
       inkscape:persp3d-origin="0.5 : 0.33333333 : 1"
       inkscape:vp_z="1 : 0.5 : 1"
       inkscape:vp_y="0 : 1000 : 0"
       inkscape:vp_x="0 : 0.5 : 1"
       sodipodi:type="inkscape:persp3d" />
    <filter
       color-interpolation-filters="sRGB"
       id="filter4572"
       inkscape:label="Drop shadow"
       width="1.5"
       height="1.5"
       x="-0.25"
       y="-0.25">
      <feGaussianBlur
         id="feGaussianBlur4574"
         in="SourceAlpha"
         stdDeviation="0,000000"
         result="blur" />
      <feColorMatrix
         id="feColorMatrix4576"
         result="bluralpha"
         type="matrix"
         values="-1 0 0 0 1 0 -1 0 0 1 0 0 -1 0 1 0 0 0 0,500000 0 " />
      <feOffset
         id="feOffset4578"
         in="bluralpha"
         dx="4,000000"
         dy="4,000000"
         result="offsetBlur" />
      <feMerge
         id="feMerge4580"
         result="fbSourceGraphic">
        <feMergeNode
           id="feMergeNode4582"
           in="offsetBlur" />
        <feMergeNode
           id="feMergeNode4584"
           in="SourceGraphic" />
      </feMerge>
      <feColorMatrix
         result="fbSourceGraphicAlpha"
         in="fbSourceGraphic"
         values="0 0 0 -1 0 0 0 0 -1 0 0 0 0 -1 0 0 0 0 1 0"
         id="feColorMatrix4586" />
      <feGaussianBlur
         id="feGaussianBlur4588"
         in="fbSourceGraphicAlpha"
         stdDeviation="0,000000"
         result="blur" />
      <feColorMatrix
         id="feColorMatrix4590"
         result="bluralpha"
         type="matrix"
         values="-1 0 0 0 1 0 -1 0 0 1 0 0 -1 0 1 0 0 0 0,500000 0 " />
      <feOffset
         id="feOffset4592"
         in="bluralpha"
         dx="4,000000"
         dy="4,000000"
         result="offsetBlur" />
      <feMerge
         id="feMerge4594">
        <feMergeNode
           id="feMergeNode4596"
           in="offsetBlur" />
        <feMergeNode
           id="feMergeNode4598"
           in="fbSourceGraphic" />
      </feMerge>
    </filter>
    <inkscape:perspective
       id="perspective3146"
       inkscape:persp3d-origin="0.5 : 0.33333333 : 1"
       inkscape:vp_z="1 : 0.5 : 1"
       inkscape:vp_y="0 : 1000 : 0"
       inkscape:vp_x="0 : 0.5 : 1"
       sodipodi:type="inkscape:persp3d" />
    <inkscape:perspective
       id="perspective3216"
       inkscape:persp3d-origin="0.5 : 0.33333333 : 1"
       inkscape:vp_z="1 : 0.5 : 1"
       inkscape:vp_y="0 : 1000 : 0"
       inkscape:vp_x="0 : 0.5 : 1"
       sodipodi:type="inkscape:persp3d" />
  </defs>
  <g
     transform="translate(-991.27573,-968.58736)"
     id="layer1" />
  <g
     transform="translate(-991.27573,-968.58736)"
     id="layer3" />
  <g
     transform="translate(-991.27573,-968.58736)"
     id="layer4" />
  <rect
     rx="7.4074073"
     style="fill:#b3b3b3;stroke:#000000;stroke-opacity:1"
     id="rect2922-80-7-9"
     width="40.476189"
     height="17.460318"
     x="18.487347"
     y="105.20679"
     ry="7.4074073" />
  <rect
     rx="7.4074073"
     style="fill:#b3b3b3;stroke:#000000;stroke-opacity:1"
     id="rect2922-8-1-5-2"
     width="40.476189"
     height="17.460318"
     x="66.308578"
     y="105.43305"
     ry="7.4074073" />
  <path
     style="fill:#ff0000;stroke:#000000;stroke-width:0.87785947px;stroke-linecap:butt;stroke-linejoin:miter;stroke-opacity:1"
     d="m 62.640356,87.65485 -49.70039,0.12599 c 0,0 -4.8720299,20.63153 1.00695,24.87863 3.54166,2.55858 38.96216,5.32754 48.69344,5.28498 9.73128,0.0425 46.681694,-1.52257 49.051104,-5.28498 4.09079,-6.49579 0.64932,-24.87863 0.64932,-24.87863 L 62.640356,87.65485 z"
     id="path2912-3-4-9-8"
     sodipodi:nodetypes="ccscscc" />
  <path
     style="fill:#ffb380;stroke:#000000;stroke-width:1px;stroke-linecap:butt;stroke-linejoin:miter;stroke-opacity:1"
     d="m 60.218686,20.87217 c -15.7609,0.10898 -31.80153,3.0238 -41.84375,10.53125 -18.53447986,18.53448 -10.3437499,56.875 -10.3437499,56.875 0,0 7.4613699,7.73298 40.5937499,8.375 3.84659,0.0745 7.69026,0.15245 11.5,0.21875 0.0621,0.001 0.12543,-10e-4 0.1875,0 3.80974,-0.0663 7.65341,-0.14421 11.5,-0.21875 33.132404,-0.64202 40.593774,-8.375 40.593774,-8.375 0,0 8.19073,-38.34052 -10.34375,-56.875 C 92.020266,23.89597 75.979586,20.98115 60.218686,20.87217 z"
     id="path2910-7-7-6-1" />
  <path
     style="fill:#ececec;stroke:#000000;stroke-width:1.02130723px;stroke-linecap:butt;stroke-linejoin:miter;stroke-opacity:1"
     d="m 67.752046,81.58142 c 1.56411,-14.58275 -45.47592,-18.22892 -54.18314,-0.76541 -13.16599986,26.40618 13.67238,36.35633 13.67238,36.35633 0,0 37.97885,-0.3827 40.51076,-35.59092 z"
     id="path4501"
     sodipodi:nodetypes="cscc" />
  <path
     style="fill:#ffb380;stroke:#000000;stroke-width:0.99850225px;stroke-linecap:butt;stroke-linejoin:miter;stroke-opacity:1"
     d="m 54.187606,69.89787 c -2.39926,13.10715 -10.27688,20.00429 -15.4191,22.77634 0,0 -23.78172,8.91475 -33.3787899,-6.32608 -9.59705,-15.24084 -2.10955,-34.81843 -2.10955,-34.81843 3.747,-9.78973 11.0848599,-17.90364 16.3994399,-21.07022"
     id="path2916-7-6-2"
     sodipodi:nodetypes="cscss" />
  <g
     transform="matrix(0.8904008,-0.04314938,0.07048027,0.5451206,-268.1721,-197.92564)"
     id="g3220-3-2-4">
    <path
       transform="translate(2,-2.7972028)"
       d="m 352.79722,596.24329 c 0,2.99315 -3.99187,5.41958 -8.91609,5.41958 -4.92421,0 -8.91608,-2.42643 -8.91608,-5.41958 0,-2.99316 3.99187,-5.41958 8.91608,-5.41958 4.92422,0 8.91609,2.42642 8.91609,5.41958 z"
       sodipodi:ry="5.4195805"
       sodipodi:rx="8.9160843"
       sodipodi:cy="596.24329"
       sodipodi:cx="343.88113"
       id="path3213-9-9-7"
       style="fill:#ffb380;stroke:#000000;stroke-opacity:1"
       sodipodi:type="arc" />
    <path
       sodipodi:nodetypes="ccccccccc"
       id="rect3211-5-9-8"
       d="m 336.46155,573.43915 c 0,0 1.07882,-0.92866 4.50347,-1.38372 l 9.24867,0 5.12898,1.38372 c 0,0 1.5575,13.75603 1.20724,15.94517 -0.35026,3.3275 -1.20724,4.6842 -1.20724,4.6842 l -18.88112,0 c 0,0 -0.97062,-1.29522 -1.40845,-4.88541 -0.17513,-1.92644 1.40845,-15.74396 1.40845,-15.74396 z"
       style="fill:#ff0000;stroke:#000000;stroke-opacity:1" />
  </g>
  <path
     sodipodi:type="arc"
     style="fill:#000000;stroke:#000000;stroke-opacity:1"
     id="path3073-8-7-6"
     sodipodi:cx="312.73407"
     sodipodi:cy="525.02136"
     sodipodi:rx="3.3707864"
     sodipodi:ry="3.3707864"
     d="m 316.10486,525.02136 a 3.3707864,3.3707864 0 1 1 -6.74158,0 3.3707864,3.3707864 0 1 1 6.74158,0 z"
     transform="matrix(0.5162071,0,0,0.5162071,-102.61009,-223.61571)" />
  <g
     transform="translate(-269.7813,-479.49)"
     id="g3324-5-4-3">
    <path
       sodipodi:nodetypes="cscsc"
       id="path2918-87-1-7"
       d="m 357.63825,527.73011 c 1.84486,-2.4957 4.84351,-4.11915 8.22918,-4.11915 5.6078,0 10.15383,4.45388 10.15383,9.94802 0,5.49414 -4.54603,9.94802 -10.15383,9.94802 -3.38567,0 -6.38432,-1.62345 -8.22917,-4.11914"
       style="fill:#ffb380;stroke:#000000;stroke-width:0.84119689;stroke-opacity:1" />
    <path
       sodipodi:nodetypes="ccs"
       id="path2918-8-2-6-7"
       d="m 369.03103,538.50765 c -3.21564,1.31025 -6.89308,-0.24875 -8.21377,-3.48214 -0.72563,-1.97878 -0.53425,-3.73942 0.27601,-5.20665"
       style="fill:#ffb380;stroke:#000000;stroke-width:0.52776885;stroke-opacity:1" />
    <path
       sodipodi:nodetypes="cs"
       id="path2918-8-6-8-7-2"
       d="m 361.14525,535.50431 c 0.84991,-2.01699 2.63546,-3.3573 4.64581,-3.73363"
       style="fill:#ffb380;stroke:#000000;stroke-width:0.52776885;stroke-opacity:1" />
  </g>
  <path
     style="fill:none;stroke:#000000;stroke-width:1px;stroke-linecap:butt;stroke-linejoin:miter;stroke-opacity:1"
     d="m 52.408096,48.51136 c 0,0 -1.42045,-5.96591 9.65909,-6.53409 11.07955,-0.56818 6.25,-0.28409 6.25,-0.28409"
     id="path4495" />
  <path
     style="fill:#ffff00;stroke:#000000;stroke-width:1px;stroke-linecap:butt;stroke-linejoin:miter;stroke-opacity:1"
     d="m 33.942186,23.79545 c 0,0 53.90194,6.81813 67.329554,6.81818 1.13636,0 7.67046,-21.02272 7.67046,-21.02272 L 91.044466,17.54545 82.521736,2.48863 68.885376,11.57954 57.521736,0.5 l -9.375,11.07954 -15.34091,-8.80682 1.13636,21.02273 z"
     id="path4497"
     sodipodi:nodetypes="cscccccccc" />
</svg>
