<?xml version="1.0" encoding="UTF-8" standalone="no"?>
<!-- Created with Inkscape (http://www.inkscape.org/) -->

<svg
   xmlns:dc="http://purl.org/dc/elements/1.1/"
   xmlns:cc="http://creativecommons.org/ns#"
   xmlns:rdf="http://www.w3.org/1999/02/22-rdf-syntax-ns#"
   xmlns:svg="http://www.w3.org/2000/svg"
   xmlns="http://www.w3.org/2000/svg"
   xmlns:sodipodi="http://sodipodi.sourceforge.net/DTD/sodipodi-0.dtd"
   xmlns:inkscape="http://www.inkscape.org/namespaces/inkscape"
   width="107.66665"
   height="175.42325"
   id="svg2"
   sodipodi:version="0.32"
   inkscape:version="0.47 r22583"
   version="1.0"
   sodipodi:docname="front.svg"
   inkscape:output_extension="org.inkscape.output.svg.inkscape">
  <defs
     id="defs4">
    <inkscape:perspective
       sodipodi:type="inkscape:persp3d"
       id="perspective3033"
       inkscape:vp_x="-50 : 600 : 1"
       inkscape:vp_y="0 : 1000 : 0"
       inkscape:vp_z="700 : 600 : 1"
       inkscape:persp3d-origin="300 : 400 : 1" />
    <inkscape:perspective
       sodipodi:type="inkscape:persp3d"
       id="perspective3032"
       inkscape:vp_x="-50 : 600 : 1"
       inkscape:vp_y="0 : 1000 : 0"
       inkscape:vp_z="700 : 600 : 1"
       inkscape:persp3d-origin="300 : 400 : 1" />
    <inkscape:perspective
       sodipodi:type="inkscape:persp3d"
       id="perspective3031"
       inkscape:vp_x="-50 : 600 : 1"
       inkscape:vp_y="0 : 1000 : 0"
       inkscape:vp_z="700 : 600 : 1"
       inkscape:persp3d-origin="300 : 400 : 1" />
    <inkscape:perspective
       sodipodi:type="inkscape:persp3d"
       id="perspective3030"
       inkscape:vp_x="-50 : 600 : 1"
       inkscape:vp_y="0 : 1000 : 0"
       inkscape:vp_z="700 : 600 : 1"
       inkscape:persp3d-origin="300 : 400 : 1" />
    <inkscape:perspective
       sodipodi:type="inkscape:persp3d"
       id="perspective3029"
       inkscape:vp_x="-50 : 600 : 1"
       inkscape:vp_y="0 : 1000 : 0"
       inkscape:vp_z="700 : 600 : 1"
       inkscape:persp3d-origin="300 : 400 : 1" />
    <inkscape:perspective
       sodipodi:type="inkscape:persp3d"
       id="perspective2997"
       inkscape:vp_x="-50 : 600 : 1"
       inkscape:vp_y="0 : 1000 : 0"
       inkscape:vp_z="700 : 600 : 1"
       inkscape:persp3d-origin="300 : 400 : 1" />
    <inkscape:perspective
       sodipodi:type="inkscape:persp3d"
       id="perspective2996"
       inkscape:vp_x="-50 : 600 : 1"
       inkscape:vp_y="0 : 1000 : 0"
       inkscape:vp_z="700 : 600 : 1"
       inkscape:persp3d-origin="300 : 400 : 1" />
  </defs>
  <sodipodi:namedview
     id="base"
     pagecolor="#ffffff"
     bordercolor="#666666"
     borderopacity="1.0"
     inkscape:pageopacity="1"
     inkscape:pageshadow="2"
     inkscape:zoom="0.71146394"
     inkscape:cx="639.93827"
     inkscape:cy="73.454207"
     inkscape:document-units="px"
     inkscape:current-layer="layer2"
     width="1062.99px"
     borderlayer="true"
     inkscape:window-width="1024"
     inkscape:window-height="575"
     inkscape:window-x="0"
     inkscape:window-y="25"
     showgrid="false"
     inkscape:window-maximized="1" />
  <metadata
     id="metadata7">
    <rdf:RDF>
      <cc:Work
         rdf:about="">
        <dc:format>image/svg+xml</dc:format>
        <dc:type
           rdf:resource="http://purl.org/dc/dcmitype/StillImage" />
        <dc:title></dc:title>
        <dc:date />
        <dc:creator>
          <cc:Agent>
            <dc:title />
          </cc:Agent>
        </dc:creator>
        <dc:rights>
          <cc:Agent>
            <dc:title />
          </cc:Agent>
        </dc:rights>
        <dc:publisher>
          <cc:Agent>
            <dc:title />
          </cc:Agent>
        </dc:publisher>
        <dc:identifier />
        <dc:source />
        <dc:relation />
        <dc:language />
        <dc:subject>
          <rdf:Bag />
        </dc:subject>
        <dc:coverage />
        <dc:description />
        <dc:contributor>
          <cc:Agent>
            <dc:title />
          </cc:Agent>
        </dc:contributor>
        <cc:license
           rdf:resource="" />
      </cc:Work>
      <cc:Work
         rdf:about="">
        <dc:format>image/svg+xml</dc:format>
        <dc:type
           rdf:resource="http://purl.org/dc/dcmitype/StillImage" />
      </cc:Work>
    </rdf:RDF>
  </metadata>
  <g
     inkscape:label="fondo"
     inkscape:groupmode="layer"
     id="layer1"
     transform="translate(-98.878779,-980.33991)" />
  <g
     inkscape:groupmode="layer"
     id="layer2"
     inkscape:label="dibujos"
     transform="translate(-98.878779,-980.33991)">
    <g
       style="display:inline"
       id="g2745"
       transform="matrix(-1,0,0,1,506.73421,502.53721)">
      <path
         style="fill:#ffffff;fill-opacity:1;fill-rule:evenodd;stroke:#000000;stroke-width:1.25;stroke-linecap:butt;stroke-linejoin:miter;stroke-miterlimit:4;stroke-opacity:1"
         d="m 61.053417,633.09397 c -27.450373,1.41984 -28.396938,13.72518 -28.396938,13.72518 0,9.93893 53.007618,4.73283 53.007618,4.73283 l 0,-16.0916 -24.61068,-2.36641 z"
         id="path2746"
         sodipodi:nodetypes="ccccc"
         transform="translate(268.1573,-0.313798)" />
      <path
         style="fill:#000000;fill-opacity:1;fill-rule:nonzero;stroke:none"
         id="path2747"
         d="m 325.45238,634.32792 c -3.30411,1.76396 -4.78275,5.00331 -5.78563,8.53267 -0.38654,3.01387 -0.16775,5.74342 2.73846,7.01553 l -0.45474,1.46078 c -3.8784,-1.31602 -4.27574,-5.27802 -3.75426,-8.89841 1.11808,-3.86039 2.78921,-7.41198 6.40753,-9.38354 l 0.84864,1.27297 z" />
      <path
         style="fill:#000000;fill-opacity:1;fill-rule:nonzero;stroke:none"
         id="path2748"
         d="m 315.00649,636.20283 c -3.94023,3.53627 -3.26217,10.99809 -0.36872,14.99187 l -1.24536,0.88868 c -3.33005,-4.72753 -3.96581,-13.10773 0.76543,-17.15353 l 0.84865,1.27298 z" />
    </g>
    <g
       style="display:inline"
       id="g2741"
       transform="translate(-201.31,502.34781)">
      <path
         style="fill:#ffffff;fill-opacity:1;fill-rule:evenodd;stroke:#000000;stroke-width:1.25;stroke-linecap:butt;stroke-linejoin:miter;stroke-miterlimit:4;stroke-opacity:1"
         d="m 61.053417,633.09397 c -27.450373,1.41984 -28.396938,13.72518 -28.396938,13.72518 0,9.93893 53.007618,4.73283 53.007618,4.73283 l 0,-16.0916 -24.61068,-2.36641 z"
         id="path2708"
         sodipodi:nodetypes="ccccc"
         transform="translate(268.1573,-0.313798)" />
      <path
         style="fill:#000000;fill-opacity:1;fill-rule:nonzero;stroke:none"
         id="path2739"
         d="m 325.45238,634.32792 c -3.30411,1.76396 -4.78275,5.00331 -5.78563,8.53267 -0.38654,3.01387 -0.16775,5.74342 2.73846,7.01553 l -0.45474,1.46078 c -3.8784,-1.31602 -4.27574,-5.27802 -3.75426,-8.89841 1.11808,-3.86039 2.78921,-7.41198 6.40753,-9.38354 l 0.84864,1.27297 z" />
      <path
         style="fill:#000000;fill-opacity:1;fill-rule:nonzero;stroke:none"
         id="path2740"
         d="m 315.00649,636.20283 c -3.94023,3.53627 -3.26217,10.99809 -0.36872,14.99187 l -1.24536,0.88868 c -3.33005,-4.72753 -3.96581,-13.10773 0.76543,-17.15353 l 0.84865,1.27298 z" />
    </g>
    <path
       style="fill:#000000;fill-opacity:1;fill-rule:nonzero;stroke:none;display:inline"
       id="path2702"
       d="m 173.50824,992.82603 c 10.22427,1.29323 -14.24479,-11.92298 -17.61666,-12.48612 3.12724,4.25973 6.82041,8.11439 10.72758,11.67232 -10.13139,-6.34016 -23.14244,-12.91201 -6.14165,1.4311 -2.03638,1.0797 -15.11897,-8.41698 -21.55878,-6.21998 l 0.48779,1.26061 c 5.21281,-0.60661 23.34389,9.75912 21.94155,3.92534 -16.16041,-13.57866 -5.90998,-3.86282 4.66403,0.81063 4.57073,-1.38875 -6.57739,-11.87293 -10.01079,-11.53278 2.83934,0.84693 24.52163,13.45539 18.00893,9.88386 l -0.502,1.25502 z" />
    <path
       sodipodi:type="arc"
       style="fill:#ffe5b9;fill-opacity:1;stroke:#000000;stroke-width:1.25;stroke-miterlimit:4;stroke-opacity:1;display:inline"
       id="path2695"
       sodipodi:cx="54.664104"
       sodipodi:cy="525.42224"
       sodipodi:rx="6.8625937"
       sodipodi:ry="6.8625937"
       d="m 61.526698,525.42224 c 0,3.79011 -3.072488,6.86259 -6.862594,6.86259 -3.790105,0 -6.862593,-3.07248 -6.862593,-6.86259 0,-3.7901 3.072488,-6.86259 6.862593,-6.86259 3.790106,0 6.862594,3.07249 6.862594,6.86259 z"
       transform="matrix(1.031733,0,0,0.716766,65.63361,650.80701)" />
    <path
       sodipodi:type="arc"
       style="fill:#ffe5b9;fill-opacity:1;stroke:#000000;stroke-width:1.25;stroke-miterlimit:4;stroke-opacity:1;display:inline"
       id="path2696"
       sodipodi:cx="129.67935"
       sodipodi:cy="524.94897"
       sodipodi:rx="6.6259522"
       sodipodi:ry="5.4427466"
       d="m 136.3053,524.94897 c 0,3.00595 -2.96654,5.44275 -6.62595,5.44275 -3.65941,0 -6.62595,-2.4368 -6.62595,-5.44275 0,-3.00594 2.96654,-5.44274 6.62595,-5.44274 3.65941,0 6.62595,2.4368 6.62595,5.44274 z"
       transform="translate(67.60491,501.27641)" />
    <path
       sodipodi:type="arc"
       style="fill:#ffe5b9;fill-opacity:1;stroke:#000000;stroke-width:1.83430135;stroke-miterlimit:4;stroke-opacity:1;display:inline"
       id="path2699"
       sodipodi:cx="99.152641"
       sodipodi:cy="518.55963"
       sodipodi:rx="51.824413"
       sodipodi:ry="51.587772"
       d="m 150.97705,518.55963 c 0,28.49114 -23.20258,51.58777 -51.824409,51.58777 -28.621833,0 -51.824413,-23.09663 -51.824413,-51.58777 0,-28.49114 23.20258,-51.58777 51.824413,-51.58777 28.621829,0 51.824409,23.09663 51.824409,51.58777 z"
       transform="matrix(0.669126,0,0,0.694018,93.46881,664.32511)" />
    <g
       transform="matrix(0.4651787,0.8852168,0.8852168,-0.4651787,-938.2484,1435.6234)"
       id="g4513">
      <g
         id="g4515"
         inkscape:transform-center-x="-6.6507783"
         inkscape:transform-center-y="-6.1622439"
         transform="matrix(0.6557502,-0.05498409,0.05498409,0.6557502,-932.21721,283.43809)">
        <rect
           transform="matrix(0.6198235,0.7847413,-0.7847413,0.6198235,0,0)"
           style="fill:#cccccc;fill-opacity:1;fill-rule:nonzero;stroke:#000000;stroke-width:1;stroke-linecap:butt;stroke-linejoin:round;stroke-miterlimit:4;stroke-opacity:1;stroke-dasharray:none"
           id="rect4517"
           width="5.9731178"
           height="31.785524"
           x="2084.4009"
           y="-435.39514"
           ry="4.1980953"
           rx="4.1980953" />
        <path
           style="fill:#ffffff;fill-opacity:1;fill-rule:nonzero;stroke:none"
           d="m 1618.8049,1383.8827 13.0267,-10.8737 -0.7427,-0.2194 -12.1886,10.0342 -0.095,1.0589 z"
           id="path4520" />
      </g>
      <g
         id="g4522"
         transform="matrix(0.00456249,-0.6580355,0.6580355,0.00456249,-719.42452,2159.3041)"
         inkscape:transform-center-x="6.5510517"
         inkscape:transform-center-y="8.6773905">
        <rect
           transform="matrix(0.584065,-0.8117069,0.8117069,0.584065,0,0)"
           rx="4.1980953"
           ry="4.1980953"
           y="2086.7573"
           x="-187.26065"
           height="31.785521"
           width="5.9731174"
           id="rect4524"
           style="fill:#cccccc;fill-opacity:1;fill-rule:nonzero;stroke:#000000;stroke-width:0.99999994;stroke-linecap:butt;stroke-linejoin:round;stroke-miterlimit:4;stroke-opacity:1;stroke-dasharray:none" />
        <path
           id="path4526"
           d="m 1587.8529,1372.1075 17.6564,12.7047 0.035,-0.9921 -16.3468,-11.932 -1.3451,0.2194 z"
           style="fill:#ffffff;fill-opacity:1;fill-rule:nonzero;stroke:none" />
      </g>
      <g
         id="g4528"
         transform="matrix(0.5648622,0.337583,-0.337583,0.5648622,-241.38586,-223.42352)">
        <path
           sodipodi:type="arc"
           style="fill:#cccccc;fill-opacity:1;fill-rule:nonzero;stroke:#000000;stroke-width:1.29999959;stroke-linecap:butt;stroke-linejoin:round;stroke-miterlimit:4;stroke-opacity:1;stroke-dasharray:none"
           id="path4530"
           sodipodi:cx="223.90565"
           sodipodi:cy="121.57761"
           sodipodi:rx="7.873302"
           sodipodi:ry="7.873302"
           d="m 231.77896,121.57761 c 0,4.3483 -3.525,7.8733 -7.87331,7.8733 -4.3483,0 -7.8733,-3.525 -7.8733,-7.8733 0,-4.34831 3.525,-7.87331 7.8733,-7.87331 4.34831,0 7.87331,3.525 7.87331,7.87331 z"
           transform="matrix(0.4492809,-0.6243902,0.6243902,0.4492809,1435.5154,1471.7425)" />
        <path
           transform="matrix(0.100465,-0.1396217,0.1396217,0.100465,1570.2308,1407.7417)"
           d="m 231.77896,121.57761 c 0,4.3483 -3.525,7.8733 -7.87331,7.8733 -4.3483,0 -7.8733,-3.525 -7.8733,-7.8733 0,-4.34831 3.525,-7.87331 7.8733,-7.87331 4.34831,0 7.87331,3.525 7.87331,7.87331 z"
           sodipodi:ry="7.873302"
           sodipodi:rx="7.873302"
           sodipodi:cy="121.57761"
           sodipodi:cx="223.90565"
           id="path4532"
           style="fill:#ffffff;fill-opacity:1;fill-rule:nonzero;stroke:none"
           sodipodi:type="arc" />
      </g>
      <g
         id="g4534"
         inkscape:transform-center-x="-17.066912"
         inkscape:transform-center-y="-19.98967"
         transform="matrix(0.6557502,-0.05498409,0.05498409,0.6557502,-932.21721,283.43809)">
        <path
           id="path4536"
           d="m 1625.4971,1352.8929 0.5416,6.395 7.0293,4.1959 3.4203,-1.82 -6.9328,-3.7101 -0.2013,-5.0501 -3.8571,-0.011 z m 9.2208,-7.2783 4.5526,7.3487 -1.1071,6.9924 2.5946,0.8562 1.1937,-8.4761 -2.7863,-10.2992 -4.4475,3.578 z m 8.3995,17.5787 1.1011,1.9815 6.2365,-4.1637 5.2605,1.4069 0.3081,-4.6837 -6.2947,0.7327 -6.6115,4.7263 z m 0.1646,5.8859 0.1823,1.6473 4.2144,0.5056 2.3307,3.3716 2.5594,-1.9043 -3.725,-3.3343 -5.5618,-0.2859 z"
           style="fill:#cccccc;fill-opacity:1;fill-rule:nonzero;stroke:#000000;stroke-width:0.99999994;stroke-linecap:butt;stroke-linejoin:round;stroke-miterlimit:4;stroke-opacity:1;stroke-dasharray:none" />
        <path
           transform="matrix(0.5580852,-0.7756015,0.7756015,0.5580852,1418.3319,1472.7115)"
           d="m 231.77896,121.57761 c 0,4.3483 -3.525,7.8733 -7.87331,7.8733 -4.3483,0 -7.8733,-3.525 -7.8733,-7.8733 0,-4.34831 3.525,-7.87331 7.8733,-7.87331 4.34831,0 7.87331,3.525 7.87331,7.87331 z"
           sodipodi:ry="7.873302"
           sodipodi:rx="7.873302"
           sodipodi:cy="121.57761"
           sodipodi:cx="223.90565"
           id="path4538"
           style="fill:#cccccc;fill-opacity:1;fill-rule:nonzero;stroke:#000000;stroke-width:1.04655123;stroke-linecap:butt;stroke-linejoin:round;stroke-miterlimit:4;stroke-opacity:1;stroke-dasharray:none"
           sodipodi:type="arc" />
        <path
           sodipodi:type="arc"
           style="fill:#ffffff;fill-opacity:1;fill-rule:nonzero;stroke:none"
           id="path4540"
           sodipodi:cx="223.90565"
           sodipodi:cy="121.57761"
           sodipodi:rx="7.873302"
           sodipodi:ry="7.873302"
           d="m 231.77896,121.57761 c 0,4.3483 -3.525,7.8733 -7.87331,7.8733 -4.3483,0 -7.8733,-3.525 -7.8733,-7.8733 0,-4.34831 3.525,-7.87331 7.8733,-7.87331 4.34831,0 7.87331,3.525 7.87331,7.87331 z"
           transform="matrix(0.2150335,-0.2988437,0.2988437,0.2150335,1556.3475,1410.0025)" />
      </g>
    </g>
    <path
       style="fill:#ffe5b9;fill-opacity:1;fill-rule:evenodd;stroke:#000000;stroke-width:1.25;stroke-linecap:butt;stroke-linejoin:miter;stroke-miterlimit:4;stroke-opacity:1;display:inline"
       d="m 154.21551,1055.3323 -1.41984,16.0916 -8.99237,4.2595 11.83206,15.145 11.83206,-16.0915 -9.93893,-4.2596 1.04106,-15.1458 -4.35404,8e-4 z"
       id="path2694"
       sodipodi:nodetypes="cccccccc" />
    <path
       style="fill:#ffe5b9;fill-opacity:1;fill-rule:evenodd;stroke:#000000;stroke-width:1.25;stroke-linecap:butt;stroke-linejoin:miter;stroke-miterlimit:4;stroke-opacity:1;display:inline"
       d="m 173.5194,1091.2799 6.15267,16.5649 c 9.93893,2.3664 3.78626,11.8321 3.78626,11.8321 -8.51908,3.3129 -11.35877,-0.9466 -11.35877,-0.9466 l -5.20611,-27.4504 6.62595,0 z"
       id="path2697" />
    <path
       style="fill:#ffffff;fill-opacity:1;fill-rule:evenodd;stroke:#000000;stroke-width:1.25;stroke-linecap:butt;stroke-linejoin:miter;stroke-miterlimit:4;stroke-opacity:1;display:inline"
       d="m 135.76794,1110.2668 -8.13889,24.1172 c 8.54584,4.3065 25.63752,2.5839 25.63752,2.5839 8.95278,5.1679 27.67223,-1.292 27.67223,-1.292 l -7.73194,-29.285 -37.43892,3.8759 z"
       id="path2712" />
    <path
       style="fill:#ff9f00;fill-opacity:1;fill-rule:evenodd;stroke:#000000;stroke-width:1.25;stroke-linecap:butt;stroke-linejoin:miter;stroke-miterlimit:4;stroke-opacity:1;display:inline"
       d="m 146.03028,1072.0685 9.7541,-1.4724 11.88417,1.7989 12.42197,17.6298 -11.62055,4.2442 -3.20567,-13.7121 10.41842,31.6683 c -12.82267,5.5502 -41.27299,0.3265 -41.27299,0.3265 l 9.61701,-31.3418 -4.00709,14.365 -11.62056,-4.2442 17.63119,-19.2622 z"
       id="path2715"
       sodipodi:nodetypes="cccccccccccc" />
    <path
       style="fill:none;stroke:#000000;stroke-width:1.25;stroke-linecap:butt;stroke-linejoin:miter;stroke-miterlimit:4;stroke-opacity:1;stroke-dasharray:none;display:inline"
       d="m 140.72612,1123.1828 c 15.53492,-2.9463 25.44513,0.2678 25.44513,0.2678"
       id="path2725" />
    <path
       style="fill:none;stroke:#000000;stroke-width:1.25;stroke-linecap:butt;stroke-linejoin:miter;stroke-miterlimit:4;stroke-opacity:1;stroke-dasharray:none;display:inline"
       d="m 153.31476,1122.1114 -0.26784,14.9991"
       id="path2726" />
  </g>
  <g
     inkscape:groupmode="layer"
     id="layer3"
     inkscape:label="globos"
     transform="translate(-98.878779,-980.33991)" />
  <g
     inkscape:groupmode="layer"
     id="layer4"
     inkscape:label="vinietas"
     transform="translate(-98.878779,-980.33991)" />
</svg>
