<?xml version="1.0" encoding="UTF-8" standalone="no"?>
<!-- Created with Inkscape (http://www.inkscape.org/) -->

<svg
   xmlns:dc="http://purl.org/dc/elements/1.1/"
   xmlns:cc="http://creativecommons.org/ns#"
   xmlns:rdf="http://www.w3.org/1999/02/22-rdf-syntax-ns#"
   xmlns:svg="http://www.w3.org/2000/svg"
   xmlns="http://www.w3.org/2000/svg"
   xmlns:sodipodi="http://sodipodi.sourceforge.net/DTD/sodipodi-0.dtd"
   xmlns:inkscape="http://www.inkscape.org/namespaces/inkscape"
   width="110.95274"
   height="171.48436"
   id="svg2"
   sodipodi:version="0.32"
   inkscape:version="0.47 r22583"
   version="1.0"
   sodipodi:docname="finger-right.svg"
   inkscape:output_extension="org.inkscape.output.svg.inkscape">
  <defs
     id="defs4">
    <inkscape:perspective
       sodipodi:type="inkscape:persp3d"
       id="perspective3033"
       inkscape:vp_x="-50 : 600 : 1"
       inkscape:vp_y="0 : 1000 : 0"
       inkscape:vp_z="700 : 600 : 1"
       inkscape:persp3d-origin="300 : 400 : 1" />
    <inkscape:perspective
       sodipodi:type="inkscape:persp3d"
       id="perspective3032"
       inkscape:vp_x="-50 : 600 : 1"
       inkscape:vp_y="0 : 1000 : 0"
       inkscape:vp_z="700 : 600 : 1"
       inkscape:persp3d-origin="300 : 400 : 1" />
    <inkscape:perspective
       sodipodi:type="inkscape:persp3d"
       id="perspective3031"
       inkscape:vp_x="-50 : 600 : 1"
       inkscape:vp_y="0 : 1000 : 0"
       inkscape:vp_z="700 : 600 : 1"
       inkscape:persp3d-origin="300 : 400 : 1" />
    <inkscape:perspective
       sodipodi:type="inkscape:persp3d"
       id="perspective3030"
       inkscape:vp_x="-50 : 600 : 1"
       inkscape:vp_y="0 : 1000 : 0"
       inkscape:vp_z="700 : 600 : 1"
       inkscape:persp3d-origin="300 : 400 : 1" />
    <inkscape:perspective
       sodipodi:type="inkscape:persp3d"
       id="perspective3029"
       inkscape:vp_x="-50 : 600 : 1"
       inkscape:vp_y="0 : 1000 : 0"
       inkscape:vp_z="700 : 600 : 1"
       inkscape:persp3d-origin="300 : 400 : 1" />
    <inkscape:perspective
       sodipodi:type="inkscape:persp3d"
       id="perspective2997"
       inkscape:vp_x="-50 : 600 : 1"
       inkscape:vp_y="0 : 1000 : 0"
       inkscape:vp_z="700 : 600 : 1"
       inkscape:persp3d-origin="300 : 400 : 1" />
    <inkscape:perspective
       sodipodi:type="inkscape:persp3d"
       id="perspective2996"
       inkscape:vp_x="-50 : 600 : 1"
       inkscape:vp_y="0 : 1000 : 0"
       inkscape:vp_z="700 : 600 : 1"
       inkscape:persp3d-origin="300 : 400 : 1" />
  </defs>
  <sodipodi:namedview
     id="base"
     pagecolor="#ffffff"
     bordercolor="#666666"
     borderopacity="1.0"
     inkscape:pageopacity="1"
     inkscape:pageshadow="2"
     inkscape:zoom="0.34152865"
     inkscape:cx="635.37861"
     inkscape:cy="72.580948"
     inkscape:document-units="px"
     inkscape:current-layer="layer2"
     width="1062.99px"
     borderlayer="true"
     inkscape:window-width="1024"
     inkscape:window-height="575"
     inkscape:window-x="0"
     inkscape:window-y="25"
     showgrid="false"
     inkscape:window-maximized="1" />
  <metadata
     id="metadata7">
    <rdf:RDF>
      <cc:Work
         rdf:about="">
        <dc:format>image/svg+xml</dc:format>
        <dc:type
           rdf:resource="http://purl.org/dc/dcmitype/StillImage" />
        <dc:title></dc:title>
        <dc:date />
        <dc:creator>
          <cc:Agent>
            <dc:title />
          </cc:Agent>
        </dc:creator>
        <dc:rights>
          <cc:Agent>
            <dc:title />
          </cc:Agent>
        </dc:rights>
        <dc:publisher>
          <cc:Agent>
            <dc:title />
          </cc:Agent>
        </dc:publisher>
        <dc:identifier />
        <dc:source />
        <dc:relation />
        <dc:language />
        <dc:subject>
          <rdf:Bag />
        </dc:subject>
        <dc:coverage />
        <dc:description />
        <dc:contributor>
          <cc:Agent>
            <dc:title />
          </cc:Agent>
        </dc:contributor>
        <cc:license
           rdf:resource="" />
      </cc:Work>
      <cc:Work
         rdf:about="">
        <dc:format>image/svg+xml</dc:format>
        <dc:type
           rdf:resource="http://purl.org/dc/dcmitype/StillImage" />
      </cc:Work>
    </rdf:RDF>
  </metadata>
  <g
     inkscape:label="fondo"
     inkscape:groupmode="layer"
     id="layer1"
     transform="translate(-100.14668,-985.81613)" />
  <g
     inkscape:groupmode="layer"
     id="layer2"
     inkscape:label="dibujos"
     transform="translate(-100.14668,-985.81613)">
    <path
       id="path2703"
       d="m 152.09775,1057.0586 1.41985,16.0916 8.99236,4.2596 -11.83206,15.145 -11.83205,-16.0916 9.93892,-4.2595 -1.41984,-13.252 4.73282,-1.8931 z"
       style="fill:#ffe5b9;fill-opacity:1;fill-rule:evenodd;stroke:#000000;stroke-width:1.25;stroke-linecap:butt;stroke-linejoin:miter;stroke-miterlimit:4;stroke-opacity:1;display:inline" />
    <path
       transform="matrix(1.031733,0,0,0.716766,59.8898,654.67623)"
       d="m 61.526698,525.42224 c 0,3.79011 -3.072488,6.86259 -6.862594,6.86259 -3.790105,0 -6.862593,-3.07248 -6.862593,-6.86259 0,-3.7901 3.072488,-6.86259 6.862593,-6.86259 3.790106,0 6.862594,3.07249 6.862594,6.86259 z"
       sodipodi:ry="6.8625937"
       sodipodi:rx="6.8625937"
       sodipodi:cy="525.42224"
       sodipodi:cx="54.664104"
       id="path2705"
       style="fill:#ffe5b9;fill-opacity:1;stroke:#000000;stroke-width:1.25;stroke-miterlimit:4;stroke-opacity:1;display:inline"
       sodipodi:type="arc" />
    <path
       transform="translate(61.8611,505.14575)"
       d="m 136.3053,524.94897 c 0,3.00595 -2.96654,5.44275 -6.62595,5.44275 -3.65941,0 -6.62595,-2.4368 -6.62595,-5.44275 0,-3.00594 2.96654,-5.44274 6.62595,-5.44274 3.65941,0 6.62595,2.4368 6.62595,5.44274 z"
       sodipodi:ry="5.4427466"
       sodipodi:rx="6.6259522"
       sodipodi:cy="524.94897"
       sodipodi:cx="129.67935"
       id="path2707"
       style="fill:#ffe5b9;fill-opacity:1;stroke:#000000;stroke-width:1.25;stroke-miterlimit:4;stroke-opacity:1;display:inline"
       sodipodi:type="arc" />
    <path
       id="path2709"
       d="m 132.79386,1093.0063 -6.15267,16.5648 c -9.93893,2.3665 -3.78626,11.8321 -3.78626,11.8321 8.51908,3.313 11.35877,-0.9466 11.35877,-0.9466 l 5.20611,-27.4503 -6.62595,0 z"
       style="fill:#ffe5b9;fill-opacity:1;fill-rule:evenodd;stroke:#000000;stroke-width:1.25;stroke-linecap:butt;stroke-linejoin:miter;stroke-miterlimit:4;stroke-opacity:1;display:inline" />
    <path
       transform="matrix(0.669126,0,0,0.694018,87.7251,668.19433)"
       d="m 150.97705,518.55963 c 0,28.49114 -23.20258,51.58777 -51.824409,51.58777 -28.621833,0 -51.824413,-23.09663 -51.824413,-51.58777 0,-28.49114 23.20258,-51.58777 51.824413,-51.58777 28.621829,0 51.824409,23.09663 51.824409,51.58777 z"
       sodipodi:ry="51.587772"
       sodipodi:rx="51.824413"
       sodipodi:cy="518.55963"
       sodipodi:cx="99.152641"
       id="path2713"
       style="fill:#ffe5b9;fill-opacity:1;stroke:#000000;stroke-width:1.83430135;stroke-miterlimit:4;stroke-opacity:1;display:inline"
       sodipodi:type="arc" />
    <path
       d="m 144.22646,998.3022 c -10.22427,1.2932 14.24479,-11.92297 17.61666,-12.48607 -3.12724,4.25967 -6.82041,8.11437 -10.72759,11.67227 10.1314,-6.3401 23.14245,-12.91197 6.14165,1.4311 2.03639,1.0797 15.11898,-8.417 21.55879,-6.22 l -0.48779,1.2606 c -5.21281,-0.6066 -23.3439,9.7592 -21.94156,3.9254 16.16042,-13.57867 5.90999,-3.8628 -4.66402,0.8106 -4.57073,-1.3887 6.57739,-11.87287 10.01079,-11.53277 -2.83935,0.847 -24.52163,13.45537 -18.00894,9.88387 l 0.50201,1.255 z"
       id="path2720"
       style="fill:#000000;fill-opacity:1;fill-rule:nonzero;stroke:none;display:inline" />
    <g
       style="display:inline"
       transform="translate(68.1152,503.76075)"
       id="g2722">
      <path
         sodipodi:nodetypes="ccccc"
         id="path2724"
         d="m 61.053417,633.09397 c -27.450373,1.41984 -28.396938,13.72518 -28.396938,13.72518 0,9.93893 53.007618,4.73283 53.007618,4.73283 l 0,-16.0916 -24.61068,-2.36641 z"
         style="fill:#ffffff;fill-opacity:1;fill-rule:evenodd;stroke:#000000;stroke-width:1.25;stroke-linecap:butt;stroke-linejoin:miter;stroke-miterlimit:4;stroke-opacity:1" />
      <path
         d="m 47.091589,633.83797 c 9.893039,0.78197 14.224398,7.86493 10.715804,16.84466 l -1.257949,-0.49461 c 3.200515,-8.08553 -0.483228,-14.23165 -9.457855,-14.99836 l 0,-1.35169 z"
         id="path2727"
         style="fill:#000000;fill-opacity:1;fill-rule:nonzero;stroke:none" />
      <path
         d="m 55.137389,632.8914 c 11.544289,10e-4 15.765416,9.1204 11.336914,19.12686 l -1.23562,-0.54802 c 4.057666,-9.12836 0.507066,-17.22984 -10.101294,-17.22714 l 0,-1.3517 z"
         id="path2729"
         style="fill:#000000;fill-opacity:1;fill-rule:nonzero;stroke:none" />
    </g>
    <g
       style="display:inline"
       transform="matrix(-1,0,0,1,239.4661,503.76075)"
       id="g2731">
      <path
         sodipodi:nodetypes="ccccc"
         id="path2733"
         d="m 61.053417,633.09397 c -27.450373,1.41984 -28.396938,13.72518 -28.396938,13.72518 0,9.93893 53.007618,4.73283 53.007618,4.73283 l 0,-16.0916 -24.61068,-2.36641 z"
         style="fill:#ffffff;fill-opacity:1;fill-rule:evenodd;stroke:#000000;stroke-width:1.25;stroke-linecap:butt;stroke-linejoin:miter;stroke-miterlimit:4;stroke-opacity:1" />
      <path
         d="m 47.091589,633.83797 c 9.893039,0.78197 14.224398,7.86493 10.715804,16.84466 l -1.257949,-0.49461 c 3.200515,-8.08553 -0.483228,-14.23165 -9.457855,-14.99836 l 0,-1.35169 z"
         id="path2735"
         style="fill:#000000;fill-opacity:1;fill-rule:nonzero;stroke:none" />
      <path
         d="m 55.137389,632.8914 c 11.544289,10e-4 15.765416,9.1204 11.336914,19.12686 l -1.23562,-0.54802 c 4.057666,-9.12836 0.507066,-17.22984 -10.101294,-17.22714 l 0,-1.3517 z"
         id="path2737"
         style="fill:#000000;fill-opacity:1;fill-rule:nonzero;stroke:none" />
    </g>
    <g
       style="display:inline"
       transform="matrix(-1,0,0,1,238.7085,503.00275)"
       id="g2739">
      <path
         transform="matrix(0.859835,0,0,0.909951,14.03942,35.05921)"
         id="path2741"
         d="m 62.946547,630.72755 -9.465646,26.50381 c 9.938928,4.73283 29.816785,2.8397 29.816785,2.8397 10.412211,5.67939 32.183194,-1.41985 32.183194,-1.41985 l -8.99236,-32.1832 -43.541973,4.25954 z"
         style="fill:#ffffff;fill-opacity:1;fill-rule:evenodd;stroke:#000000;stroke-width:1.41316688;stroke-linecap:butt;stroke-linejoin:miter;stroke-miterlimit:4;stroke-opacity:1" />
      <path
         transform="matrix(0.859835,0,0,0.909951,14.03942,35.05921)"
         id="path2743"
         d="m 79.038145,636.40694 -2.839694,9.93893 16.091599,-1.41985"
         style="fill:none;stroke:#000000;stroke-width:1.41316688;stroke-linecap:butt;stroke-linejoin:miter;stroke-miterlimit:4;stroke-opacity:1" />
      <path
         transform="matrix(0.859835,0,0,0.909951,14.03942,35.05921)"
         id="path2745"
         d="m 85.664097,635.93366 -2.366411,23.66412"
         style="fill:none;stroke:#000000;stroke-width:1.41316688;stroke-linecap:butt;stroke-linejoin:miter;stroke-miterlimit:4;stroke-opacity:1" />
    </g>
    <g
       transform="matrix(0.53127098,0.38830751,-0.38830751,0.53127098,-144.65289,-261.71502)"
       inkscape:transform-center-y="-7.8849037"
       inkscape:transform-center-x="4.4759891"
       id="g3602">
      <rect
         rx="4.1980953"
         ry="4.1980953"
         y="-435.39514"
         x="2084.4009"
         height="31.785524"
         width="5.9731178"
         id="rect3604"
         style="fill:#cccccc;fill-opacity:1;fill-rule:nonzero;stroke:#000000;stroke-width:1;stroke-linecap:butt;stroke-linejoin:round;stroke-miterlimit:4;stroke-opacity:1;stroke-dasharray:none"
         transform="matrix(0.6198235,0.7847413,-0.7847413,0.6198235,0,0)" />
      <path
         id="path3606"
         d="m 1618.8049,1383.8827 13.0267,-10.8737 -0.7427,-0.2194 -12.1886,10.0342 -0.095,1.0589 z"
         style="fill:#ffffff;fill-opacity:1;fill-rule:nonzero;stroke:none" />
    </g>
    <g
       inkscape:transform-center-y="8.6773905"
       inkscape:transform-center-x="6.5510517"
       transform="matrix(0.58038171,0.31014289,-0.31014289,0.58038171,-332.0193,-204.29855)"
       id="g3608">
      <rect
         style="fill:#cccccc;fill-opacity:1;fill-rule:nonzero;stroke:#000000;stroke-width:0.99999994;stroke-linecap:butt;stroke-linejoin:round;stroke-miterlimit:4;stroke-opacity:1;stroke-dasharray:none"
         id="rect3610"
         width="5.9731174"
         height="31.785521"
         x="-187.26065"
         y="2086.7573"
         ry="4.1980953"
         rx="4.1980953"
         transform="matrix(0.584065,-0.8117069,0.8117069,0.584065,0,0)" />
      <path
         style="fill:#ffffff;fill-opacity:1;fill-rule:nonzero;stroke:none"
         d="m 1587.8529,1372.1075 17.6564,12.7047 0.035,-0.9921 -16.3468,-11.932 -1.3451,0.2194 z"
         id="path3612" />
    </g>
    <g
       transform="matrix(0.20531089,0.62520319,-0.62520319,0.20531089,709.30908,-191.67548)"
       id="g3614">
      <path
         transform="matrix(0.4492809,-0.6243902,0.6243902,0.4492809,1435.5154,1471.7425)"
         d="m 231.77896,121.57761 c 0,4.3483 -3.525,7.8733 -7.87331,7.8733 -4.3483,0 -7.8733,-3.525 -7.8733,-7.8733 0,-4.34831 3.525,-7.87331 7.8733,-7.87331 4.34831,0 7.87331,3.525 7.87331,7.87331 z"
         sodipodi:ry="7.873302"
         sodipodi:rx="7.873302"
         sodipodi:cy="121.57761"
         sodipodi:cx="223.90565"
         id="path3616"
         style="fill:#cccccc;fill-opacity:1;fill-rule:nonzero;stroke:#000000;stroke-width:1.29999959;stroke-linecap:butt;stroke-linejoin:round;stroke-miterlimit:4;stroke-opacity:1;stroke-dasharray:none"
         sodipodi:type="arc" />
      <path
         sodipodi:type="arc"
         style="fill:#ffffff;fill-opacity:1;fill-rule:nonzero;stroke:none"
         id="path3618"
         sodipodi:cx="223.90565"
         sodipodi:cy="121.57761"
         sodipodi:rx="7.873302"
         sodipodi:ry="7.873302"
         d="m 231.77896,121.57761 c 0,4.3483 -3.525,7.8733 -7.87331,7.8733 -4.3483,0 -7.8733,-3.525 -7.8733,-7.8733 0,-4.34831 3.525,-7.87331 7.8733,-7.87331 4.34831,0 7.87331,3.525 7.87331,7.87331 z"
         transform="matrix(0.100465,-0.1396217,0.1396217,0.100465,1570.2308,1407.7417)" />
    </g>
    <path
       style="fill:#cccccc;fill-opacity:1;fill-rule:nonzero;stroke:#000000;stroke-width:0.65805131;stroke-linecap:butt;stroke-linejoin:round;stroke-miterlimit:4;stroke-opacity:1;stroke-dasharray:none"
       d="m 193.58807,1088.2304 -2.19549,3.6078 2.10517,4.9587 2.52382,0.3612 -2.24253,-4.6631 1.85404,-2.7611 -2.04489,-1.5036 z"
       id="path3650" />
    <path
       style="fill:#cccccc;fill-opacity:1;fill-rule:nonzero;stroke:#000000;stroke-width:0.65805131;stroke-linecap:butt;stroke-linejoin:round;stroke-miterlimit:4;stroke-opacity:1;stroke-dasharray:none"
       d="m 206.90586,1089.8106 -3.84742,5.4222 -5.28603,1.3048 0.16853,2.0945 6.36338,-1.6869 6.46608,-5.0519 -3.86454,-2.0827 z"
       id="path3648" />
    <path
       transform="matrix(0.59766636,-0.19534589,0.19534589,0.59766636,37.000753,1071.4428)"
       d="m 231.77896,121.57761 c 0,4.3483 -3.525,7.8733 -7.87331,7.8733 -4.3483,0 -7.8733,-3.525 -7.8733,-7.8733 0,-4.34831 3.525,-7.87331 7.8733,-7.87331 4.34831,0 7.87331,3.525 7.87331,7.87331 z"
       sodipodi:ry="7.873302"
       sodipodi:rx="7.873302"
       sodipodi:cy="121.57761"
       sodipodi:cx="223.90565"
       id="path3624"
       style="fill:#cccccc;fill-opacity:1;fill-rule:nonzero;stroke:#000000;stroke-width:1.04655123;stroke-linecap:butt;stroke-linejoin:round;stroke-miterlimit:4;stroke-opacity:1;stroke-dasharray:none"
       sodipodi:type="arc" />
    <path
       sodipodi:type="arc"
       style="fill:#ffffff;fill-opacity:1;fill-rule:nonzero;stroke:none"
       id="path3626"
       sodipodi:cx="223.90565"
       sodipodi:cy="121.57761"
       sodipodi:rx="7.873302"
       sodipodi:ry="7.873302"
       d="m 231.77896,121.57761 c 0,4.3483 -3.525,7.8733 -7.87331,7.8733 -4.3483,0 -7.8733,-3.525 -7.8733,-7.8733 0,-4.34831 3.525,-7.87331 7.8733,-7.87331 4.34831,0 7.87331,3.525 7.87331,7.87331 z"
       transform="matrix(0.23028431,-0.07526786,0.07526786,0.23028431,134.67481,1091.7198)" />
    <path
       sodipodi:nodetypes="cccccccccccc"
       id="path2758"
       d="m 160.28298,1073.7949 -8.41488,5.2236 -13.22339,-4.8972 -12.42197,17.6298 11.62055,4.2442 3.20567,-13.712 -10.41842,31.6683 c 12.82268,5.5501 41.273,0.3265 41.273,0.3265 l -9.61701,-31.3419 4.00709,14.365 11.62055,-4.2442 -17.63119,-19.2621 z"
       style="fill:#ff9f00;fill-opacity:1;fill-rule:evenodd;stroke:#000000;stroke-width:1.25;stroke-linecap:butt;stroke-linejoin:miter;stroke-miterlimit:4;stroke-opacity:1;display:inline" />
    <g
       style="display:inline"
       transform="matrix(1.580161,0,0,1.580161,16.8585,157.17674)"
       id="g2760">
      <path
         d="m 79.568221,591.68176 c 3.270418,-5.30277 7.03816,8.14058 7.328073,11.12372 l -2.242542,0.21499 c -0.295658,-3.13174 -1.328754,-5.92497 -2.878956,-8.66548 -0.552855,-0.97736 -2.623264,-1.88937 -1.922132,-2.76646 1.775563,-2.22117 1.946714,-1.0902 1.968381,0.0932 l -2.252824,0 z"
         id="path2762"
         style="fill:#0f00ff;fill-opacity:1;fill-rule:nonzero;stroke:none" />
      <path
         d="m 78.527773,594.98355 c 2.008421,-1.83927 12.204236,-10.70096 13.206035,-5.40678 l -2.074777,-0.87779 c 1.010699,1.98701 -0.0315,0.7243 1.200209,1.14462 0.307451,0.10492 -11.818523,5.92023 -10.6008,6.58218 l -1.730667,-1.44223 z"
         id="path2766"
         style="fill:#0f00ff;fill-opacity:1;fill-rule:nonzero;stroke:none" />
      <path
         d="m 80.15824,596.56287 c 3.164958,-1.82212 7.71847,-3.53287 11.404416,-2.23908 l -0.896834,2.06662 c -3.122678,-0.32624 -6.472418,0.18755 -9.198155,2.00566 l -1.309427,-1.8332 z"
         id="path2771"
         style="fill:#0f00ff;fill-opacity:1;fill-rule:nonzero;stroke:none" />
    </g>
    <path
       style="fill:#cccccc;fill-opacity:1;stroke:#000000;stroke-width:0.69999999;stroke-miterlimit:4;stroke-opacity:1;stroke-dasharray:none"
       d="m 99.650169,119.34635 2.936461,-1.1367 0.47362,4.16788 -6.157092,-1.51559 0.189449,-3.03118 2.557562,1.51559 z"
       id="path3652"
       transform="translate(98.878779,980.33991)" />
    <path
       id="path4426"
       d="m 200.11007,1104.3631 -0.81669,3.0441 -4.98121,-3.9236 1.2352,-1.4508 4.5627,2.3303 z"
       style="fill:#cccccc;fill-opacity:1;stroke:#000000;stroke-width:0.69999999;stroke-miterlimit:4;stroke-opacity:1;stroke-dasharray:none"
       sodipodi:nodetypes="ccccc" />
  </g>
  <g
     inkscape:groupmode="layer"
     id="layer3"
     inkscape:label="globos"
     transform="translate(-100.14668,-985.81613)" />
  <g
     inkscape:groupmode="layer"
     id="layer4"
     inkscape:label="vinietas"
     transform="translate(-100.14668,-985.81613)" />
</svg>
